  0
SECTION
  2
HEADER
  9
$ACADVER
  1
AC1009
  9
$DWGCODEPAGE
  3
ANSI_1252
  9
$EXTMIN
 10
1e+20
 20
1e+20
 30
1e+20
  9
$EXTMAX
 10
-1e+20
 20
-1e+20
 30
-1e+20
  9
$LIMMIN
 10
0.0
 20
0.0
  9
$LIMMAX
 10
420.0
 20
297.0
  9
$LTSCALE
 40
1.0
  9
$DIMSCALE
 40
1.0
  9
$TDCREATE
 40
2460892.5336805554
  9
$TDUPDATE
 40
2460892.5336805554
  9
$PEXTMIN
 10
1e+20
 20
1e+20
 30
1e+20
  9
$PEXTMAX
 10
-1e+20
 20
-1e+20
 30
-1e+20
  9
$PLIMMIN
 10
0.0
 20
0.0
  9
$PLIMMAX
 10
420.0
 20
297.0
  9
$PLINEGEN
 70
1
  0
ENDSEC
  0
SECTION
  2
TABLES
  0
TABLE
  2
VPORT
 70
1
  0
VPORT
  2
*Active
 70
0
 10
0.0
 20
0.0
 11
1.0
 21
1.0
 12
0.0
 22
0.0
 13
0.0
 23
0.0
 14
0.5
 24
0.5
 15
0.5
 25
0.5
 16
0.0
 26
0.0
 36
1.0
 17
0.0
 27
0.0
 37
0.0
 40
1000.0
 41
1.34
 42
50.0
 43
0.0
 44
0.0
 50
0.0
 51
0.0
 71
0
 72
1000
 73
1
 74
3
 75
0
 76
0
 77
0
 78
0
  0
ENDTAB
  0
TABLE
  2
LTYPE
 70
17
  0
LTYPE
  2
GTSOLID
 70
0
  3
GTSOLID
 72
65
 73
0
 40
24.0
  0
LTYPE
  2
GTDASH
 70
0
  3
GTDASH
 72
65
 73
2
 40
12.0
 49
8.0
 49
-4.0
  0
LTYPE
  2
GTDOT
 70
0
  3
GTDOT
 72
65
 73
2
 40
6.0
 49
1.6
 49
-4.4
  0
LTYPE
  2
GTCHAIN
 70
0
  3
GTCHAIN
 72
65
 73
4
 40
24.0
 49
16.0
 49
-3.2
 49
1.6
 49
-3.2
  0
LTYPE
  2
GTLDASH
 70
0
  3
GTLDASH
 72
65
 73
2
 40
18.0
 49
14.4
 49
-3.6
  0
LTYPE
  2
GTDDASH
 70
0
  3
GTDDASH
 72
65
 73
6
 40
22.0
 49
0.251429
 49
-3.01714
 49
6.28571
 49
-3.14286
 49
6.28571
 49
-3.01714
  0
LTYPE
  2
GTDDOT
 70
0
  3
GTDDOT
 72
65
 73
6
 40
16.0
 49
6.34921
 49
-3.04762
 49
0.253968
 49
-3.04762
 49
0.253968
 49
-3.04762
  0
LTYPE
  2
GTDCHAIN
 70
0
  3
GTDCHAIN
 72
65
 73
6
 40
30.0
 49
14.6939
 49
-3.06122
 49
3.06122
 49
-3.06122
 49
3.06122
 49
-3.06122
  0
LTYPE
  2
GTFDOT
 70
0
  3
GTFDOT
 72
65
 73
2
 40
3.0
 49
0.24
 49
-2.76
  0
LTYPE
  2
GTTCHAIN
 70
0
  3
GTTCHAIN
 72
65
 73
8
 40
45.0
 49
24.0
 49
-3.0
 49
3.0
 49
-3.0
 49
3.0
 49
-3.0
 49
3.0
 49
-3.0
  0
LTYPE
  2
GT110
 70
0
  3
GT110
 72
65
 73
2
 40
3.0
 49
2.0
 49
-1.0
  0
LTYPE
  2
GT101
 70
0
  3
GT101
 72
65
 73
2
 40
3.0
 49
2.0
 49
-1.0
  0
LTYPE
  2
GT100
 70
0
  3
GT100
 72
65
 73
2
 40
1.0
 49
0.666667
 49
-0.333333
  0
LTYPE
  2
GT111
 70
0
  3
GT111
 72
65
 73
4
 40
6.0
 49
4.0
 49
-0.8
 49
0.4
 49
-0.8
  0
LTYPE
  2
ByBlock
 70
0
  3

 72
65
 73
0
 40
0.0
  0
LTYPE
  2
ByLayer
 70
0
  3

 72
65
 73
0
 40
0.0
  0
LTYPE
  2
Continuous
 70
0
  3

 72
65
 73
0
 40
0.0
  0
ENDTAB
  0
TABLE
  2
LAYER
 70
3
  0
LAYER
  2
0
 70
0
 62
7
  6
Continuous
  0
LAYER
  2
ACEPLANT
 70
0
 62
7
  6
Continuous
  0
LAYER
  2
Defpoints
 70
0
 62
7
  6
Continuous
  0
ENDTAB
  0
TABLE
  2
STYLE
 70
3
  0
STYLE
  2
HTX1
 70
0
 40
0.0
 41
1.02
 50
0.0
 71
0
 42
1.0
  3
O8116901
  4

  0
STYLE
  2
Standard
 70
0
 40
0.0
 41
1.0
 50
0.0
 71
0
 42
2.5
  3
txt
  4

  0
STYLE
  2
ARIAL
 70
0
 40
0.0
 41
1.0
 50
0.0
 71
0
 42
2.5
  3
arial.ttf
  4

  0
ENDTAB
  0
TABLE
  2
VIEW
 70
0
  0
ENDTAB
  0
TABLE
  2
UCS
 70
0
  0
ENDTAB
  0
TABLE
  2
APPID
 70
3
  0
APPID
  2
ACAD
 70
0
  0
APPID
  2
HATCHBACKGROUNDCOLOR
 70
0
  0
APPID
  2
EZDXF
 70
0
  0
ENDTAB
  0
TABLE
  2
DIMSTYLE
 70
1
  0
DIMSTYLE
  2
Standard
 70
0
  3

  4

  5

  6

  7

 40
1.0
 41
2.5
 42
0.625
 43
3.75
 44
1.25
 45
0.0
 46
0.0
 47
0.0
 48
0.0
140
2.5
141
2.5
142
0.0
143
0.03937007874
144
1.0
145
0.0
146
1.0
147
0.625
 71
0
 72
0
 73
0
 74
0
 75
0
 76
0
 77
1
 78
8
170
0
171
3
172
1
173
0
174
0
175
0
176
0
177
0
178
0
  0
ENDTAB
  0
ENDSEC
  0
SECTION
  2
BLOCKS
  0
BLOCK
  8
0
  2
$Model_Space
 70
0
 10
0.0
 20
0.0
 30
0.0
  3
$Model_Space
  1

1001
EZDXF
1000
WRITTEN_BY_EZDXF
1000
1.4.2 @ 2025-08-04T03:48:30.838306+00:00
  0
ENDBLK
  8
0
  0
BLOCK
  8
0
  2
$Paper_Space
 70
0
 10
0.0
 20
0.0
 30
0.0
  3
$Paper_Space
  1

  0
ENDBLK
  8
0
  0
ENDSEC
  0
SECTION
  2
ENTITIES
  0
POLYLINE
  8
ACEPLANT
 62
7
 66
1
 10
0.0
 20
0.0
 30
0.0
 70
128
  0
VERTEX
  8
ACEPLANT
 10
830.0
 20
12.0
 30
0.0
 70
0
  0
VERTEX
  8
ACEPLANT
 10
830.0
 20
584.0
 30
0.0
 70
0
  0
VERTEX
  8
ACEPLANT
 10
616.7
 20
584.0
 30
0.0
 70
0
  0
VERTEX
  8
ACEPLANT
 10
616.7
 20
12.0
 30
0.0
 70
0
  0
VERTEX
  8
ACEPLANT
 10
830.0
 20
12.0
 30
0.0
 70
0
  0
SEQEND
  8
0
  0
TEXT
  8
ACEPLANT
 62
2
 10
620.129
 20
578.286
 30
0.0
 40
3.0
  1
FABRICATION MATERIALS
  7
ARIAL
 41
0.86
  0
POLYLINE
  8
ACEPLANT
 62
7
 66
1
 10
0.0
 20
0.0
 30
0.0
 70
128
  0
VERTEX
  8
ACEPLANT
 10
616.7
 20
572.571
 30
0.0
 70
0
  0
VERTEX
  8
ACEPLANT
 10
830.0
 20
572.571
 30
0.0
 70
0
  0
SEQEND
  8
0
  0
TEXT
  8
ACEPLANT
 62
2
 10
620.129
 20
566.857
 30
0.0
 40
3.0
  1
PT
  7
ARIAL
 41
0.86
  0
TEXT
  8
ACEPLANT
 62
2
 10
620.129
 20
561.429
 30
0.0
 40
3.0
  1
NO
  7
ARIAL
 41
0.86
  0
TEXT
  8
ACEPLANT
 62
2
 10
628.357
 20
566.857
 30
0.0
 40
3.0
  1
ITEM
  7
ARIAL
 41
0.86
  0
TEXT
  8
ACEPLANT
 62
2
 10
659.214
 20
566.857
 30
0.0
 40
3.0
  1
MATERIAL
  7
ARIAL
 41
0.86
  0
TEXT
  8
ACEPLANT
 62
2
 10
692.129
 20
566.857
 30
0.0
 40
3.0
  1
SIZE (DN)
  7
ARIAL
 41
0.86
  0
TEXT
  8
ACEPLANT
 62
2
 10
714.757
 20
566.857
 30
0.0
 40
3.0
  1
DESCRIPTION
  7
ARIAL
 41
0.86
  0
TEXT
  8
ACEPLANT
 62
2
 10
760.014
 20
566.857
 30
0.0
 40
3.0
  1
QTY
  7
ARIAL
 41
0.86
  0
TEXT
  8
ACEPLANT
 62
2
 10
760.014
 20
561.429
 30
0.0
 40
3.0
  1
[MM,EA]
  7
ARIAL
 41
0.86
  0
TEXT
  8
ACEPLANT
 62
2
 10
778.529
 20
566.857
 30
0.0
 40
3.0
  1
UNIT
  7
ARIAL
 41
0.86
  0
TEXT
  8
ACEPLANT
 62
2
 10
778.529
 20
561.429
 30
0.0
 40
3.0
  1
W.T
  7
ARIAL
 41
0.86
  0
TEXT
  8
ACEPLANT
 62
2
 10
794.986
 20
566.857
 30
0.0
 40
3.0
  1
TOTAL
  7
ARIAL
 41
0.86
  0
TEXT
  8
ACEPLANT
 62
2
 10
794.986
 20
561.429
 30
0.0
 40
3.0
  1
W.T
  7
ARIAL
 41
0.86
  0
TEXT
  8
ACEPLANT
 62
2
 10
813.5
 20
566.857
 30
0.0
 40
3.0
  1
 REMARK
  7
ARIAL
 41
0.86
  0
POLYLINE
  8
ACEPLANT
 62
7
 66
1
 10
0.0
 20
0.0
 30
0.0
 70
128
  0
VERTEX
  8
ACEPLANT
 10
616.7
 20
558.117
 30
0.0
 70
0
  0
VERTEX
  8
ACEPLANT
 10
830.0
 20
558.117
 30
0.0
 70
0
  0
SEQEND
  8
0
  0
TEXT
  8
ACEPLANT
 62
2
 10
620.129
 20
549.714
 30
0.0
 40
3.0
  1
  1
  7
ARIAL
 41
0.86
  0
TEXT
  8
ACEPLANT
 62
2
 10
628.357
 20
549.714
 30
0.0
 40
3.0
  1
PIPE
  7
ARIAL
 41
0.86
  0
TEXT
  8
ACEPLANT
 62
2
 10
659.214
 20
549.714
 30
0.0
 40
3.0
  1
SA335-P92
  7
ARIAL
 41
0.86
  0
TEXT
  8
ACEPLANT
 62
2
 10
692.129
 20
549.714
 30
0.0
 40
3.0
  1
300
  7
ARIAL
 41
0.86
  0
TEXT
  8
ACEPLANT
 62
2
 10
714.757
 20
549.714
 30
0.0
 40
3.0
  1
SMLS BE AWT.44
  7
ARIAL
 41
0.86
  0
TEXT
  8
ACEPLANT
 62
2
 10
760.014
 20
549.714
 30
0.0
 40
3.0
  1
11876
  7
ARIAL
 41
0.86
  0
TEXT
  8
ACEPLANT
 62
2
 10
778.529
 20
549.714
 30
0.0
 40
3.0
  1
303.6
  7
ARIAL
 41
0.86
  0
TEXT
  8
ACEPLANT
 62
2
 10
794.986
 20
549.714
 30
0.0
 40
3.0
  1
3605.55
  7
ARIAL
 41
0.86
  0
TEXT
  8
ACEPLANT
 62
2
 10
620.129
 20
544.0
 30
0.0
 40
3.0
  1
  3
  7
ARIAL
 41
0.86
  0
TEXT
  8
ACEPLANT
 62
2
 10
628.357
 20
544.0
 30
0.0
 40
3.0
  1
REDUCER(CON.)
  7
ARIAL
 41
0.86
  0
TEXT
  8
ACEPLANT
 62
2
 10
659.214
 20
544.0
 30
0.0
 40
3.0
  1
SA234-WP92
  7
ARIAL
 41
0.86
  0
TEXT
  8
ACEPLANT
 62
2
 10
692.129
 20
544.0
 30
0.0
 40
3.0
  1
350 x 300
  7
ARIAL
 41
0.86
  0
TEXT
  8
ACEPLANT
 62
2
 10
714.757
 20
544.0
 30
0.0
 40
3.0
  1
SMLS BW AWT.48 x
  7
ARIAL
 41
0.86
  0
TEXT
  8
ACEPLANT
 62
2
 10
714.757
 20
538.571
 30
0.0
 40
3.0
  1
AWT.44
  7
ARIAL
 41
0.86
  0
TEXT
  8
ACEPLANT
 62
2
 10
760.014
 20
544.0
 30
0.0
 40
3.0
  1
1
  7
ARIAL
 41
0.86
  0
TEXT
  8
ACEPLANT
 62
2
 10
778.529
 20
544.0
 30
0.0
 40
3.0
  1
113.86
  7
ARIAL
 41
0.86
  0
TEXT
  8
ACEPLANT
 62
2
 10
794.986
 20
544.0
 30
0.0
 40
3.0
  1
 113.86
  7
ARIAL
 41
0.86
  0
TEXT
  8
ACEPLANT
 62
2
 10
620.129
 20
532.571
 30
0.0
 40
3.0
  1
  2
  7
ARIAL
 41
0.86
  0
TEXT
  8
ACEPLANT
 62
2
 10
628.357
 20
532.571
 30
0.0
 40
3.0
  1
90 ELBOW
  7
ARIAL
 41
0.86
  0
TEXT
  8
ACEPLANT
 62
2
 10
659.214
 20
532.571
 30
0.0
 40
3.0
  1
SA234-WP92
  7
ARIAL
 41
0.86
  0
TEXT
  8
ACEPLANT
 62
2
 10
692.129
 20
532.571
 30
0.0
 40
3.0
  1
300
  7
ARIAL
 41
0.86
  0
TEXT
  8
ACEPLANT
 62
2
 10
714.757
 20
532.571
 30
0.0
 40
3.0
  1
SMLS BW AWT.44
  7
ARIAL
 41
0.86
  0
TEXT
  8
ACEPLANT
 62
2
 10
760.014
 20
532.571
 30
0.0
 40
3.0
  1
3
  7
ARIAL
 41
0.86
  0
TEXT
  8
ACEPLANT
 62
2
 10
778.529
 20
532.571
 30
0.0
 40
3.0
  1
217.86
  7
ARIAL
 41
0.86
  0
TEXT
  8
ACEPLANT
 62
2
 10
794.986
 20
532.571
 30
0.0
 40
3.0
  1
 653.58
  7
ARIAL
 41
0.86
  0
POLYLINE
  8
ACEPLANT
 62
7
 66
1
 10
0.0
 20
0.0
 30
0.0
 70
128
  0
VERTEX
  8
ACEPLANT
 10
616.7
 20
529.545
 30
0.0
 70
0
  0
VERTEX
  8
ACEPLANT
 10
830.0
 20
529.545
 30
0.0
 70
0
  0
SEQEND
  8
0
  0
POLYLINE
  8
ACEPLANT
 62
7
 66
1
 10
0.0
 20
0.0
 30
0.0
 70
128
  0
VERTEX
  8
ACEPLANT
 10
627.329
 20
572.571
 30
0.0
 70
0
  0
VERTEX
  8
ACEPLANT
 10
627.329
 20
529.545
 30
0.0
 70
0
  0
SEQEND
  8
0
  0
POLYLINE
  8
ACEPLANT
 62
7
 66
1
 10
0.0
 20
0.0
 30
0.0
 70
128
  0
VERTEX
  8
ACEPLANT
 10
658.186
 20
572.571
 30
0.0
 70
0
  0
VERTEX
  8
ACEPLANT
 10
658.186
 20
529.545
 30
0.0
 70
0
  0
SEQEND
  8
0
  0
POLYLINE
  8
ACEPLANT
 62
7
 66
1
 10
0.0
 20
0.0
 30
0.0
 70
128
  0
VERTEX
  8
ACEPLANT
 10
691.1
 20
572.571
 30
0.0
 70
0
  0
VERTEX
  8
ACEPLANT
 10
691.1
 20
529.545
 30
0.0
 70
0
  0
SEQEND
  8
0
  0
POLYLINE
  8
ACEPLANT
 62
7
 66
1
 10
0.0
 20
0.0
 30
0.0
 70
128
  0
VERTEX
  8
ACEPLANT
 10
713.729
 20
572.571
 30
0.0
 70
0
  0
VERTEX
  8
ACEPLANT
 10
713.729
 20
529.545
 30
0.0
 70
0
  0
SEQEND
  8
0
  0
POLYLINE
  8
ACEPLANT
 62
7
 66
1
 10
0.0
 20
0.0
 30
0.0
 70
128
  0
VERTEX
  8
ACEPLANT
 10
758.986
 20
572.571
 30
0.0
 70
0
  0
VERTEX
  8
ACEPLANT
 10
758.986
 20
529.545
 30
0.0
 70
0
  0
SEQEND
  8
0
  0
POLYLINE
  8
ACEPLANT
 62
7
 66
1
 10
0.0
 20
0.0
 30
0.0
 70
128
  0
VERTEX
  8
ACEPLANT
 10
777.5
 20
572.571
 30
0.0
 70
0
  0
VERTEX
  8
ACEPLANT
 10
777.5
 20
529.545
 30
0.0
 70
0
  0
SEQEND
  8
0
  0
POLYLINE
  8
ACEPLANT
 62
7
 66
1
 10
0.0
 20
0.0
 30
0.0
 70
128
  0
VERTEX
  8
ACEPLANT
 10
793.957
 20
572.571
 30
0.0
 70
0
  0
VERTEX
  8
ACEPLANT
 10
793.957
 20
529.545
 30
0.0
 70
0
  0
SEQEND
  8
0
  0
POLYLINE
  8
ACEPLANT
 62
7
 66
1
 10
0.0
 20
0.0
 30
0.0
 70
128
  0
VERTEX
  8
ACEPLANT
 10
812.471
 20
572.571
 30
0.0
 70
0
  0
VERTEX
  8
ACEPLANT
 10
812.471
 20
529.545
 30
0.0
 70
0
  0
SEQEND
  8
0
  0
TEXT
  8
ACEPLANT
 62
2
 10
743.557
 20
521.143
 30
0.0
 40
3.0
  1
TOTAL FABRICATION WEIGHT
  7
ARIAL
 41
0.86
  0
TEXT
  8
ACEPLANT
 62
2
 10
794.986
 20
521.143
 30
0.0
 40
3.0
  1
4372.99
  7
ARIAL
 41
0.86
  0
TEXT
  8
ACEPLANT
 62
2
 10
620.129
 20
509.714
 30
0.0
 40
3.0
  1
ERECTION MATERIALS
  7
ARIAL
 41
0.86
  0
POLYLINE
  8
ACEPLANT
 62
7
 66
1
 10
0.0
 20
0.0
 30
0.0
 70
128
  0
VERTEX
  8
ACEPLANT
 10
616.7
 20
504.0
 30
0.0
 70
0
  0
VERTEX
  8
ACEPLANT
 10
830.0
 20
504.0
 30
0.0
 70
0
  0
SEQEND
  8
0
  0
TEXT
  8
ACEPLANT
 62
2
 10
620.129
 20
498.286
 30
0.0
 40
3.0
  1
PT
  7
ARIAL
 41
0.86
  0
TEXT
  8
ACEPLANT
 62
2
 10
620.129
 20
492.857
 30
0.0
 40
3.0
  1
NO
  7
ARIAL
 41
0.86
  0
TEXT
  8
ACEPLANT
 62
2
 10
628.357
 20
498.286
 30
0.0
 40
3.0
  1
ITEM
  7
ARIAL
 41
0.86
  0
TEXT
  8
ACEPLANT
 62
2
 10
659.214
 20
498.286
 30
0.0
 40
3.0
  1
MATERIAL
  7
ARIAL
 41
0.86
  0
TEXT
  8
ACEPLANT
 62
2
 10
692.129
 20
498.286
 30
0.0
 40
3.0
  1
SIZE (DN)
  7
ARIAL
 41
0.86
  0
TEXT
  8
ACEPLANT
 62
2
 10
714.757
 20
498.286
 30
0.0
 40
3.0
  1
DESCRIPTION
  7
ARIAL
 41
0.86
  0
TEXT
  8
ACEPLANT
 62
2
 10
760.014
 20
498.286
 30
0.0
 40
3.0
  1
QTY
  7
ARIAL
 41
0.86
  0
TEXT
  8
ACEPLANT
 62
2
 10
760.014
 20
492.857
 30
0.0
 40
3.0
  1
[MM,EA]
  7
ARIAL
 41
0.86
  0
TEXT
  8
ACEPLANT
 62
2
 10
778.529
 20
498.286
 30
0.0
 40
3.0
  1
UNIT
  7
ARIAL
 41
0.86
  0
TEXT
  8
ACEPLANT
 62
2
 10
778.529
 20
492.857
 30
0.0
 40
3.0
  1
W.T
  7
ARIAL
 41
0.86
  0
TEXT
  8
ACEPLANT
 62
2
 10
794.986
 20
498.286
 30
0.0
 40
3.0
  1
TOTAL
  7
ARIAL
 41
0.86
  0
TEXT
  8
ACEPLANT
 62
2
 10
794.986
 20
492.857
 30
0.0
 40
3.0
  1
W.T
  7
ARIAL
 41
0.86
  0
TEXT
  8
ACEPLANT
 62
2
 10
813.5
 20
498.286
 30
0.0
 40
3.0
  1
 REMARK
  7
ARIAL
 41
0.86
  0
POLYLINE
  8
ACEPLANT
 62
7
 66
1
 10
0.0
 20
0.0
 30
0.0
 70
128
  0
VERTEX
  8
ACEPLANT
 10
616.7
 20
489.545
 30
0.0
 70
0
  0
VERTEX
  8
ACEPLANT
 10
830.0
 20
489.545
 30
0.0
 70
0
  0
SEQEND
  8
0
  0
TEXT
  8
ACEPLANT
 62
2
 10
620.129
 20
481.143
 30
0.0
 40
3.0
  1
  4
  7
ARIAL
 41
0.86
  0
TEXT
  8
ACEPLANT
 62
2
 10
628.357
 20
481.143
 30
0.0
 40
3.0
  1
HP BYPASS V/V
  7
ARIAL
 41
0.86
  0
TEXT
  8
ACEPLANT
 62
2
 10
659.214
 20
481.143
 30
0.0
 40
3.0
  1
unset
  7
ARIAL
 41
0.86
  0
TEXT
  8
ACEPLANT
 62
2
 10
692.129
 20
481.143
 30
0.0
 40
3.0
  1
300
  7
ARIAL
 41
0.86
  0
TEXT
  8
ACEPLANT
 62
2
 10
714.757
 20
481.143
 30
0.0
 40
3.0
  1
BW 2 HP FV-001
  7
ARIAL
 41
0.86
  0
TEXT
  8
ACEPLANT
 62
2
 10
760.014
 20
481.143
 30
0.0
 40
3.0
  1
1
  7
ARIAL
 41
0.86
  0
TEXT
  8
ACEPLANT
 62
2
 10
778.529
 20
481.143
 30
0.0
 40
3.0
  1
-
  7
ARIAL
 41
0.86
  0
TEXT
  8
ACEPLANT
 62
2
 10
813.5
 20
481.143
 30
0.0
 40
3.0
  1
LOOSE
  7
ARIAL
 41
0.86
  0
TEXT
  8
ACEPLANT
 62
2
 10
813.5
 20
475.714
 30
0.0
 40
3.0
  1
PART
  7
ARIAL
 41
0.86
  0
TEXT
  8
ACEPLANT
 62
2
 10
620.129
 20
469.714
 30
0.0
 40
3.0
  1
  5
  7
ARIAL
 41
0.86
  0
TEXT
  8
ACEPLANT
 62
2
 10
628.357
 20
469.714
 30
0.0
 40
3.0
  1
HP BYPASS V/V
  7
ARIAL
 41
0.86
  0
TEXT
  8
ACEPLANT
 62
2
 10
659.214
 20
469.714
 30
0.0
 40
3.0
  1
unset
  7
ARIAL
 41
0.86
  0
TEXT
  8
ACEPLANT
 62
2
 10
692.129
 20
469.714
 30
0.0
 40
3.0
  1
500 x 300
  7
ARIAL
 41
0.86
  0
TEXT
  8
ACEPLANT
 62
2
 10
714.757
 20
469.714
 30
0.0
 40
3.0
  1
BW 2 HP PCV-001
  7
ARIAL
 41
0.86
  0
TEXT
  8
ACEPLANT
 62
2
 10
760.014
 20
469.714
 30
0.0
 40
3.0
  1
1
  7
ARIAL
 41
0.86
  0
TEXT
  8
ACEPLANT
 62
2
 10
778.529
 20
469.714
 30
0.0
 40
3.0
  1
-
  7
ARIAL
 41
0.86
  0
TEXT
  8
ACEPLANT
 62
2
 10
813.5
 20
469.714
 30
0.0
 40
3.0
  1
LOOSE
  7
ARIAL
 41
0.86
  0
TEXT
  8
ACEPLANT
 62
2
 10
813.5
 20
464.286
 30
0.0
 40
3.0
  1
PART
  7
ARIAL
 41
0.86
  0
POLYLINE
  8
ACEPLANT
 62
7
 66
1
 10
0.0
 20
0.0
 30
0.0
 70
128
  0
VERTEX
  8
ACEPLANT
 10
616.7
 20
460.974
 30
0.0
 70
0
  0
VERTEX
  8
ACEPLANT
 10
830.0
 20
460.974
 30
0.0
 70
0
  0
SEQEND
  8
0
  0
POLYLINE
  8
ACEPLANT
 62
7
 66
1
 10
0.0
 20
0.0
 30
0.0
 70
128
  0
VERTEX
  8
ACEPLANT
 10
627.329
 20
504.0
 30
0.0
 70
0
  0
VERTEX
  8
ACEPLANT
 10
627.329
 20
460.974
 30
0.0
 70
0
  0
SEQEND
  8
0
  0
POLYLINE
  8
ACEPLANT
 62
7
 66
1
 10
0.0
 20
0.0
 30
0.0
 70
128
  0
VERTEX
  8
ACEPLANT
 10
658.186
 20
504.0
 30
0.0
 70
0
  0
VERTEX
  8
ACEPLANT
 10
658.186
 20
460.974
 30
0.0
 70
0
  0
SEQEND
  8
0
  0
POLYLINE
  8
ACEPLANT
 62
7
 66
1
 10
0.0
 20
0.0
 30
0.0
 70
128
  0
VERTEX
  8
ACEPLANT
 10
691.1
 20
504.0
 30
0.0
 70
0
  0
VERTEX
  8
ACEPLANT
 10
691.1
 20
460.974
 30
0.0
 70
0
  0
SEQEND
  8
0
  0
POLYLINE
  8
ACEPLANT
 62
7
 66
1
 10
0.0
 20
0.0
 30
0.0
 70
128
  0
VERTEX
  8
ACEPLANT
 10
713.729
 20
504.0
 30
0.0
 70
0
  0
VERTEX
  8
ACEPLANT
 10
713.729
 20
460.974
 30
0.0
 70
0
  0
SEQEND
  8
0
  0
POLYLINE
  8
ACEPLANT
 62
7
 66
1
 10
0.0
 20
0.0
 30
0.0
 70
128
  0
VERTEX
  8
ACEPLANT
 10
758.986
 20
504.0
 30
0.0
 70
0
  0
VERTEX
  8
ACEPLANT
 10
758.986
 20
460.974
 30
0.0
 70
0
  0
SEQEND
  8
0
  0
POLYLINE
  8
ACEPLANT
 62
7
 66
1
 10
0.0
 20
0.0
 30
0.0
 70
128
  0
VERTEX
  8
ACEPLANT
 10
777.5
 20
504.0
 30
0.0
 70
0
  0
VERTEX
  8
ACEPLANT
 10
777.5
 20
460.974
 30
0.0
 70
0
  0
SEQEND
  8
0
  0
POLYLINE
  8
ACEPLANT
 62
7
 66
1
 10
0.0
 20
0.0
 30
0.0
 70
128
  0
VERTEX
  8
ACEPLANT
 10
793.957
 20
504.0
 30
0.0
 70
0
  0
VERTEX
  8
ACEPLANT
 10
793.957
 20
460.974
 30
0.0
 70
0
  0
SEQEND
  8
0
  0
POLYLINE
  8
ACEPLANT
 62
7
 66
1
 10
0.0
 20
0.0
 30
0.0
 70
128
  0
VERTEX
  8
ACEPLANT
 10
812.471
 20
504.0
 30
0.0
 70
0
  0
VERTEX
  8
ACEPLANT
 10
812.471
 20
460.974
 30
0.0
 70
0
  0
SEQEND
  8
0
  0
TEXT
  8
ACEPLANT
 62
2
 10
749.729
 20
452.571
 30
0.0
 40
3.0
  1
TOTAL ERECTION WEIGHT
  7
ARIAL
 41
0.86
  0
TEXT
  8
ACEPLANT
 62
2
 10
794.986
 20
452.571
 30
0.0
 40
3.0
  1
   0.00
  7
ARIAL
 41
0.86
  0
TEXT
  8
ACEPLANT
 62
2
 10
768.243
 20
441.143
 30
0.0
 40
3.0
  1
TOTAL WEIGHT
  7
ARIAL
 41
0.86
  0
TEXT
  8
ACEPLANT
 62
2
 10
794.986
 20
441.143
 30
0.0
 40
3.0
  1
4372.99
  7
ARIAL
 41
0.86
  0
TEXT
  8
ACEPLANT
 62
2
 10
622.186
 20
429.714
 30
0.0
 40
3.0
  1
PIPE SPOOLS
  7
ARIAL
 41
0.86
  0
POLYLINE
  8
ACEPLANT
 62
7
 66
1
 10
0.0
 20
0.0
 30
0.0
 70
128
  0
VERTEX
  8
ACEPLANT
 10
644.626
 20
427.686
 30
0.0
 70
0
  0
VERTEX
  8
ACEPLANT
 10
622.186
 20
427.686
 30
0.0
 70
0
  0
SEQEND
  8
0
  0
TEXT
  8
ACEPLANT
 62
2
 10
622.186
 20
418.286
 30
0.0
 40
3.0
  1
110022-13610-045-S001
  7
ARIAL
 41
0.86
  0
TEXT
  8
ACEPLANT
 62
2
 10
667.443
 20
418.286
 30
0.0
 40
3.0
  1
110022-13610-045-S002
  7
ARIAL
 41
0.86
  0
TEXT
  8
ACEPLANT
 62
2
 10
712.7
 20
418.286
 30
0.0
 40
3.0
  1
110022-13610-045-S003
  7
ARIAL
 41
0.86
  0
TEXT
  8
ACEPLANT
 62
2
 10
757.957
 20
418.286
 30
0.0
 40
3.0
  1
110022-13610-045-S004
  7
ARIAL
 41
0.86
  0
POLYLINE
  8
ACEPLANT
 62
7
 66
1
 10
0.0
 20
0.0
 30
0.0
 70
128
  0
VERTEX
  8
ACEPLANT
 10
616.7
 20
409.545
 30
0.0
 70
0
  0
VERTEX
  8
ACEPLANT
 10
830.0
 20
409.545
 30
0.0
 70
0
  0
SEQEND
  8
0
  0
TEXT
  8
ACEPLANT
 62
2
 10
718.871
 20
395.429
 30
0.0
 40
3.0
  1
CUT PIPE LENGTH
  7
ARIAL
 41
0.86
  0
POLYLINE
  8
ACEPLANT
 62
7
 66
1
 10
0.0
 20
0.0
 30
0.0
 70
128
  0
VERTEX
  8
ACEPLANT
 10
715.786
 20
399.457
 30
0.0
 70
0
  0
VERTEX
  8
ACEPLANT
 10
752.557
 20
399.457
 30
0.0
 70
0
  0
VERTEX
  8
ACEPLANT
 10
752.557
 20
393.4
 30
0.0
 70
0
  0
VERTEX
  8
ACEPLANT
 10
715.786
 20
393.4
 30
0.0
 70
0
  0
VERTEX
  8
ACEPLANT
 10
715.786
 20
399.457
 30
0.0
 70
0
  0
SEQEND
  8
0
  0
TEXT
  8
ACEPLANT
 62
2
 10
620.129
 20
384.0
 30
0.0
 40
3.0
  1
PIECE
  7
ARIAL
 41
0.86
  0
TEXT
  8
ACEPLANT
 62
2
 10
620.129
 20
378.571
 30
0.0
 40
3.0
  1
NO
  7
ARIAL
 41
0.86
  0
TEXT
  8
ACEPLANT
 62
2
 10
632.471
 20
384.0
 30
0.0
 40
3.0
  1
     CUT
  7
ARIAL
 41
0.86
  0
TEXT
  8
ACEPLANT
 62
2
 10
632.471
 20
378.571
 30
0.0
 40
3.0
  1
   LENGTH
  7
ARIAL
 41
0.86
  0
TEXT
  8
ACEPLANT
 62
2
 10
655.1
 20
384.0
 30
0.0
 40
3.0
  1
SIZE
  7
ARIAL
 41
0.86
  0
TEXT
  8
ACEPLANT
 62
2
 10
655.1
 20
378.571
 30
0.0
 40
3.0
  1
(DN)
  7
ARIAL
 41
0.86
  0
TEXT
  8
ACEPLANT
 62
2
 10
704.471
 20
384.0
 30
0.0
 40
3.0
  1
PIECE
  7
ARIAL
 41
0.86
  0
TEXT
  8
ACEPLANT
 62
2
 10
704.471
 20
378.571
 30
0.0
 40
3.0
  1
NO
  7
ARIAL
 41
0.86
  0
TEXT
  8
ACEPLANT
 62
2
 10
716.814
 20
384.0
 30
0.0
 40
3.0
  1
     CUT
  7
ARIAL
 41
0.86
  0
TEXT
  8
ACEPLANT
 62
2
 10
716.814
 20
378.571
 30
0.0
 40
3.0
  1
   LENGTH
  7
ARIAL
 41
0.86
  0
TEXT
  8
ACEPLANT
 62
2
 10
739.443
 20
384.0
 30
0.0
 40
3.0
  1
SIZE
  7
ARIAL
 41
0.86
  0
TEXT
  8
ACEPLANT
 62
2
 10
739.443
 20
378.571
 30
0.0
 40
3.0
  1
(DN)
  7
ARIAL
 41
0.86
  0
TEXT
  8
ACEPLANT
 62
2
 10
655.1
 20
372.571
 30
0.0
 40
3.0
  1

  7
ARIAL
 41
0.86
  0
TEXT
  8
ACEPLANT
 62
2
 10
739.443
 20
372.571
 30
0.0
 40
3.0
  1

  7
ARIAL
 41
0.86
  0
TEXT
  8
ACEPLANT
 62
2
 10
620.129
 20
366.857
 30
0.0
 40
3.0
  1
  <1>
  7
ARIAL
 41
0.86
  0
TEXT
  8
ACEPLANT
 62
2
 10
632.471
 20
366.857
 30
0.0
 40
3.0
  1
     3439
  7
ARIAL
 41
0.86
  0
TEXT
  8
ACEPLANT
 62
2
 10
655.1
 20
366.857
 30
0.0
 40
3.0
  1
   300
  7
ARIAL
 41
0.86
  0
TEXT
  8
ACEPLANT
 62
2
 10
704.471
 20
366.857
 30
0.0
 40
3.0
  1
  <2>
  7
ARIAL
 41
0.86
  0
TEXT
  8
ACEPLANT
 62
2
 10
716.814
 20
366.857
 30
0.0
 40
3.0
  1
     4271
  7
ARIAL
 41
0.86
  0
TEXT
  8
ACEPLANT
 62
2
 10
739.443
 20
366.857
 30
0.0
 40
3.0
  1
   300
  7
ARIAL
 41
0.86
  0
TEXT
  8
ACEPLANT
 62
2
 10
620.129
 20
361.143
 30
0.0
 40
3.0
  1
  <3>
  7
ARIAL
 41
0.86
  0
TEXT
  8
ACEPLANT
 62
2
 10
632.471
 20
361.143
 30
0.0
 40
3.0
  1
     1166
  7
ARIAL
 41
0.86
  0
TEXT
  8
ACEPLANT
 62
2
 10
655.1
 20
361.143
 30
0.0
 40
3.0
  1
   300
  7
ARIAL
 41
0.86
  0
TEXT
  8
ACEPLANT
 62
2
 10
704.471
 20
361.143
 30
0.0
 40
3.0
  1
  <4>
  7
ARIAL
 41
0.86
  0
TEXT
  8
ACEPLANT
 62
2
 10
716.814
 20
361.143
 30
0.0
 40
3.0
  1
     2000
  7
ARIAL
 41
0.86
  0
TEXT
  8
ACEPLANT
 62
2
 10
739.443
 20
361.143
 30
0.0
 40
3.0
  1
   300
  7
ARIAL
 41
0.86
  0
TEXT
  8
ACEPLANT
 62
2
 10
620.129
 20
355.429
 30
0.0
 40
3.0
  1
  <5>
  7
ARIAL
 41
0.86
  0
TEXT
  8
ACEPLANT
 62
2
 10
632.471
 20
355.429
 30
0.0
 40
3.0
  1
     1000
  7
ARIAL
 41
0.86
  0
TEXT
  8
ACEPLANT
 62
2
 10
655.1
 20
355.429
 30
0.0
 40
3.0
  1
   300
  7
ARIAL
 41
0.86
  0
POLYLINE
  8
ACEPLANT
 66
1
 10
0.0
 20
0.0
 30
0.0
 70
128
  0
VERTEX
  8
ACEPLANT
 10
6.0
 20
0.0
 30
0.0
 70
0
  0
VERTEX
  8
ACEPLANT
 10
0.0
 20
0.0
 30
0.0
 70
0
  0
VERTEX
  8
ACEPLANT
 10
0.0
 20
6.0
 30
0.0
 70
0
  0
SEQEND
  8
0
  0
POLYLINE
  8
ACEPLANT
 66
1
 10
0.0
 20
0.0
 30
0.0
 70
128
  0
VERTEX
  8
ACEPLANT
 10
0.0
 20
588.0
 30
0.0
 70
0
  0
VERTEX
  8
ACEPLANT
 10
0.0
 20
594.0
 30
0.0
 70
0
  0
VERTEX
  8
ACEPLANT
 10
6.0
 20
594.0
 30
0.0
 70
0
  0
SEQEND
  8
0
  0
POLYLINE
  8
ACEPLANT
 66
1
 10
0.0
 20
0.0
 30
0.0
 70
128
  0
VERTEX
  8
ACEPLANT
 10
835.0
 20
594.0
 30
0.0
 70
0
  0
VERTEX
  8
ACEPLANT
 10
841.0
 20
594.0
 30
0.0
 70
0
  0
VERTEX
  8
ACEPLANT
 10
841.0
 20
588.0
 30
0.0
 70
0
  0
SEQEND
  8
0
  0
POLYLINE
  8
ACEPLANT
 66
1
 10
0.0
 20
0.0
 30
0.0
 70
128
  0
VERTEX
  8
ACEPLANT
 10
841.0
 20
6.0
 30
0.0
 70
0
  0
VERTEX
  8
ACEPLANT
 10
841.0
 20
0.0
 30
0.0
 70
0
  0
VERTEX
  8
ACEPLANT
 10
835.0
 20
0.0
 30
0.0
 70
0
  0
SEQEND
  8
0
  0
POLYLINE
  8
ACEPLANT
 62
4
 66
1
 10
0.0
 20
0.0
 30
0.0
 70
128
  0
VERTEX
  8
ACEPLANT
 10
32.0
 20
12.0
 30
0.0
 70
0
  0
VERTEX
  8
ACEPLANT
 10
830.0
 20
12.0
 30
0.0
 70
0
  0
VERTEX
  8
ACEPLANT
 10
830.0
 20
12.0
 30
0.0
 70
0
  0
VERTEX
  8
ACEPLANT
 10
616.7
 20
12.0
 30
0.0
 70
0
  0
VERTEX
  8
ACEPLANT
 10
616.7
 20
584.0
 30
0.0
 70
0
  0
VERTEX
  8
ACEPLANT
 10
32.0
 20
584.0
 30
0.0
 70
0
  0
VERTEX
  8
ACEPLANT
 10
32.0
 20
12.0
 30
0.0
 70
0
  0
SEQEND
  8
0
  0
TEXT
  8
ACEPLANT
 62
2
 10
34.0
 20
63.0
 30
0.0
 40
3.0
  1
110022-13610-045-AA5H-300
  7
ARIAL
 41
0.86
  0
TEXT
  8
ACEPLANT
 62
2
 10
817.0
 20
27.3
 30
0.0
 40
3.0
  1
1
  7
ARIAL
 41
0.86
  0
TEXT
  8
ACEPLANT
 62
2
 10
822.3
 20
27.3
 30
0.0
 40
3.0
  1
1
  7
ARIAL
 41
0.86
  0
TEXT
  8
ACEPLANT
 62
2
 10
94.0
 20
63.0
 30
0.0
 40
3.0
  1
172.2
  7
ARIAL
 41
0.86
  0
TEXT
  8
ACEPLANT
 62
2
 10
118.0
 20
63.0
 30
0.0
 40
3.0
  1
600.2
  7
ARIAL
 41
0.86
  0
TEXT
  8
ACEPLANT
 62
2
 10
143.0
 20
63.0
 30
0.0
 40
3.0
  1
188
  7
ARIAL
 41
0.86
  0
TEXT
  8
ACEPLANT
 62
2
 10
166.0
 20
63.0
 30
0.0
 40
3.0
  1
607
  7
ARIAL
 41
0.86
  0
TEXT
  8
ACEPLANT
 62
2
 10
189.0
 20
63.0
 30
0.0
 40
3.0
  1
140
  7
ARIAL
 41
0.86
  0
TEXT
  8
ACEPLANT
 62
2
 10
204.0
 20
63.0
 30
0.0
 40
3.0
  1
HC
  7
ARIAL
 41
0.86
  0
TEXT
  8
ACEPLANT
 62
2
 10
301.0
 20
63.0
 30
0.0
 40
3.0
  1
BEP
  7
ARIAL
 41
0.86
  0
TEXT
  8
ACEPLANT
 62
2
 10
320.0
 20
63.0
 30
0.0
 40
3.0
  1
AA5H
  7
ARIAL
 41
0.86
  0
TEXT
  8
ACEPLANT
 62
2
 10
337.0
 20
63.0
 30
0.0
 40
3.0
  1
STEAM
  7
ARIAL
 41
0.86
  0
TEXT
  8
ACEPLANT
 62
2
 10
356.0
 20
63.0
 30
0.0
 40
3.0
  1
9-13610-ZM-105-014
  7
ARIAL
 41
0.86
  0
TEXT
  8
ACEPLANT
 62
2
 10
720.0
 20
36.0
 30
0.0
 40
3.0
  1
HP MAIN STEAM BYPASS LINE
  7
ARIAL
 41
0.86
  0
TEXT
  8
ACEPLANT
 62
2
 10
819.5
 20
27.3
 30
0.0
 40
3.0
  1
/
  7
ARIAL
 41
0.86
  0
POLYLINE
  8
ACEPLANT
 62
7
 66
1
 10
0.0
 20
0.0
 30
0.0
 70
128
  0
VERTEX
  8
ACEPLANT
 10
616.7
 20
12.0
 30
0.0
 70
0
  0
VERTEX
  8
ACEPLANT
 10
546.7
 20
12.0
 30
0.0
 70
0
  0
SEQEND
  8
0
  0
TEXT
  8
ACEPLANT
 62
2
 10
546.8
 20
13.1
 30
0.0
 40
3.5
  1
  12
  7
ARIAL
 41
0.86
  0
POLYLINE
  8
ACEPLANT
 62
7
 66
1
 10
0.0
 20
0.0
 30
0.0
 70
128
  0
VERTEX
  8
ACEPLANT
 10
558.3
 20
17.0
 30
0.0
 70
0
  0
VERTEX
  8
ACEPLANT
 10
558.3
 20
12.0
 30
0.0
 70
0
  0
SEQEND
  8
0
  0
POLYLINE
  8
ACEPLANT
 62
7
 66
1
 10
0.0
 20
0.0
 30
0.0
 70
128
  0
VERTEX
  8
ACEPLANT
 10
575.8
 20
17.0
 30
0.0
 70
0
  0
VERTEX
  8
ACEPLANT
 10
575.8
 20
12.0
 30
0.0
 70
0
  0
SEQEND
  8
0
  0
POLYLINE
  8
ACEPLANT
 62
7
 66
1
 10
0.0
 20
0.0
 30
0.0
 70
128
  0
VERTEX
  8
ACEPLANT
 10
593.3
 20
17.0
 30
0.0
 70
0
  0
VERTEX
  8
ACEPLANT
 10
593.3
 20
12.0
 30
0.0
 70
0
  0
SEQEND
  8
0
  0
POLYLINE
  8
ACEPLANT
 62
7
 66
1
 10
0.0
 20
0.0
 30
0.0
 70
128
  0
VERTEX
  8
ACEPLANT
 10
616.7
 20
17.0
 30
0.0
 70
0
  0
VERTEX
  8
ACEPLANT
 10
546.7
 20
17.0
 30
0.0
 70
0
  0
SEQEND
  8
0
  0
TEXT
  8
ACEPLANT
 62
2
 10
546.8
 20
18.1
 30
0.0
 40
3.5
  1
  11
  7
ARIAL
 41
0.86
  0
POLYLINE
  8
ACEPLANT
 62
7
 66
1
 10
0.0
 20
0.0
 30
0.0
 70
128
  0
VERTEX
  8
ACEPLANT
 10
558.3
 20
22.0
 30
0.0
 70
0
  0
VERTEX
  8
ACEPLANT
 10
558.3
 20
17.0
 30
0.0
 70
0
  0
SEQEND
  8
0
  0
POLYLINE
  8
ACEPLANT
 62
7
 66
1
 10
0.0
 20
0.0
 30
0.0
 70
128
  0
VERTEX
  8
ACEPLANT
 10
575.8
 20
22.0
 30
0.0
 70
0
  0
VERTEX
  8
ACEPLANT
 10
575.8
 20
17.0
 30
0.0
 70
0
  0
SEQEND
  8
0
  0
POLYLINE
  8
ACEPLANT
 62
7
 66
1
 10
0.0
 20
0.0
 30
0.0
 70
128
  0
VERTEX
  8
ACEPLANT
 10
593.3
 20
22.0
 30
0.0
 70
0
  0
VERTEX
  8
ACEPLANT
 10
593.3
 20
17.0
 30
0.0
 70
0
  0
SEQEND
  8
0
  0
POLYLINE
  8
ACEPLANT
 62
7
 66
1
 10
0.0
 20
0.0
 30
0.0
 70
128
  0
VERTEX
  8
ACEPLANT
 10
616.7
 20
22.0
 30
0.0
 70
0
  0
VERTEX
  8
ACEPLANT
 10
546.7
 20
22.0
 30
0.0
 70
0
  0
SEQEND
  8
0
  0
TEXT
  8
ACEPLANT
 62
2
 10
546.8
 20
23.1
 30
0.0
 40
3.5
  1
  10
  7
ARIAL
 41
0.86
  0
POLYLINE
  8
ACEPLANT
 62
7
 66
1
 10
0.0
 20
0.0
 30
0.0
 70
128
  0
VERTEX
  8
ACEPLANT
 10
558.3
 20
27.0
 30
0.0
 70
0
  0
VERTEX
  8
ACEPLANT
 10
558.3
 20
22.0
 30
0.0
 70
0
  0
SEQEND
  8
0
  0
POLYLINE
  8
ACEPLANT
 62
7
 66
1
 10
0.0
 20
0.0
 30
0.0
 70
128
  0
VERTEX
  8
ACEPLANT
 10
575.8
 20
27.0
 30
0.0
 70
0
  0
VERTEX
  8
ACEPLANT
 10
575.8
 20
22.0
 30
0.0
 70
0
  0
SEQEND
  8
0
  0
POLYLINE
  8
ACEPLANT
 62
7
 66
1
 10
0.0
 20
0.0
 30
0.0
 70
128
  0
VERTEX
  8
ACEPLANT
 10
593.3
 20
27.0
 30
0.0
 70
0
  0
VERTEX
  8
ACEPLANT
 10
593.3
 20
22.0
 30
0.0
 70
0
  0
SEQEND
  8
0
  0
POLYLINE
  8
ACEPLANT
 62
7
 66
1
 10
0.0
 20
0.0
 30
0.0
 70
128
  0
VERTEX
  8
ACEPLANT
 10
616.7
 20
27.0
 30
0.0
 70
0
  0
VERTEX
  8
ACEPLANT
 10
546.7
 20
27.0
 30
0.0
 70
0
  0
SEQEND
  8
0
  0
TEXT
  8
ACEPLANT
 62
2
 10
546.8
 20
28.1
 30
0.0
 40
3.5
  1
   9
  7
ARIAL
 41
0.86
  0
POLYLINE
  8
ACEPLANT
 62
7
 66
1
 10
0.0
 20
0.0
 30
0.0
 70
128
  0
VERTEX
  8
ACEPLANT
 10
558.3
 20
32.0
 30
0.0
 70
0
  0
VERTEX
  8
ACEPLANT
 10
558.3
 20
27.0
 30
0.0
 70
0
  0
SEQEND
  8
0
  0
POLYLINE
  8
ACEPLANT
 62
7
 66
1
 10
0.0
 20
0.0
 30
0.0
 70
128
  0
VERTEX
  8
ACEPLANT
 10
575.8
 20
32.0
 30
0.0
 70
0
  0
VERTEX
  8
ACEPLANT
 10
575.8
 20
27.0
 30
0.0
 70
0
  0
SEQEND
  8
0
  0
POLYLINE
  8
ACEPLANT
 62
7
 66
1
 10
0.0
 20
0.0
 30
0.0
 70
128
  0
VERTEX
  8
ACEPLANT
 10
593.3
 20
32.0
 30
0.0
 70
0
  0
VERTEX
  8
ACEPLANT
 10
593.3
 20
27.0
 30
0.0
 70
0
  0
SEQEND
  8
0
  0
POLYLINE
  8
ACEPLANT
 62
7
 66
1
 10
0.0
 20
0.0
 30
0.0
 70
128
  0
VERTEX
  8
ACEPLANT
 10
616.7
 20
32.0
 30
0.0
 70
0
  0
VERTEX
  8
ACEPLANT
 10
546.7
 20
32.0
 30
0.0
 70
0
  0
SEQEND
  8
0
  0
TEXT
  8
ACEPLANT
 62
2
 10
546.8
 20
33.1
 30
0.0
 40
3.5
  1
   8
  7
ARIAL
 41
0.86
  0
POLYLINE
  8
ACEPLANT
 62
7
 66
1
 10
0.0
 20
0.0
 30
0.0
 70
128
  0
VERTEX
  8
ACEPLANT
 10
558.3
 20
37.0
 30
0.0
 70
0
  0
VERTEX
  8
ACEPLANT
 10
558.3
 20
32.0
 30
0.0
 70
0
  0
SEQEND
  8
0
  0
POLYLINE
  8
ACEPLANT
 62
7
 66
1
 10
0.0
 20
0.0
 30
0.0
 70
128
  0
VERTEX
  8
ACEPLANT
 10
575.8
 20
37.0
 30
0.0
 70
0
  0
VERTEX
  8
ACEPLANT
 10
575.8
 20
32.0
 30
0.0
 70
0
  0
SEQEND
  8
0
  0
POLYLINE
  8
ACEPLANT
 62
7
 66
1
 10
0.0
 20
0.0
 30
0.0
 70
128
  0
VERTEX
  8
ACEPLANT
 10
593.3
 20
37.0
 30
0.0
 70
0
  0
VERTEX
  8
ACEPLANT
 10
593.3
 20
32.0
 30
0.0
 70
0
  0
SEQEND
  8
0
  0
POLYLINE
  8
ACEPLANT
 62
7
 66
1
 10
0.0
 20
0.0
 30
0.0
 70
128
  0
VERTEX
  8
ACEPLANT
 10
616.7
 20
37.0
 30
0.0
 70
0
  0
VERTEX
  8
ACEPLANT
 10
546.7
 20
37.0
 30
0.0
 70
0
  0
SEQEND
  8
0
  0
TEXT
  8
ACEPLANT
 62
2
 10
546.8
 20
38.1
 30
0.0
 40
3.5
  1
   7
  7
ARIAL
 41
0.86
  0
POLYLINE
  8
ACEPLANT
 62
7
 66
1
 10
0.0
 20
0.0
 30
0.0
 70
128
  0
VERTEX
  8
ACEPLANT
 10
558.3
 20
42.0
 30
0.0
 70
0
  0
VERTEX
  8
ACEPLANT
 10
558.3
 20
37.0
 30
0.0
 70
0
  0
SEQEND
  8
0
  0
POLYLINE
  8
ACEPLANT
 62
7
 66
1
 10
0.0
 20
0.0
 30
0.0
 70
128
  0
VERTEX
  8
ACEPLANT
 10
575.8
 20
42.0
 30
0.0
 70
0
  0
VERTEX
  8
ACEPLANT
 10
575.8
 20
37.0
 30
0.0
 70
0
  0
SEQEND
  8
0
  0
POLYLINE
  8
ACEPLANT
 62
7
 66
1
 10
0.0
 20
0.0
 30
0.0
 70
128
  0
VERTEX
  8
ACEPLANT
 10
593.3
 20
42.0
 30
0.0
 70
0
  0
VERTEX
  8
ACEPLANT
 10
593.3
 20
37.0
 30
0.0
 70
0
  0
SEQEND
  8
0
  0
POLYLINE
  8
ACEPLANT
 62
7
 66
1
 10
0.0
 20
0.0
 30
0.0
 70
128
  0
VERTEX
  8
ACEPLANT
 10
616.7
 20
42.0
 30
0.0
 70
0
  0
VERTEX
  8
ACEPLANT
 10
546.7
 20
42.0
 30
0.0
 70
0
  0
SEQEND
  8
0
  0
TEXT
  8
ACEPLANT
 62
2
 10
546.8
 20
43.1
 30
0.0
 40
3.5
  1
   6
  7
ARIAL
 41
0.86
  0
POLYLINE
  8
ACEPLANT
 62
7
 66
1
 10
0.0
 20
0.0
 30
0.0
 70
128
  0
VERTEX
  8
ACEPLANT
 10
558.3
 20
47.0
 30
0.0
 70
0
  0
VERTEX
  8
ACEPLANT
 10
558.3
 20
42.0
 30
0.0
 70
0
  0
SEQEND
  8
0
  0
POLYLINE
  8
ACEPLANT
 62
7
 66
1
 10
0.0
 20
0.0
 30
0.0
 70
128
  0
VERTEX
  8
ACEPLANT
 10
575.8
 20
47.0
 30
0.0
 70
0
  0
VERTEX
  8
ACEPLANT
 10
575.8
 20
42.0
 30
0.0
 70
0
  0
SEQEND
  8
0
  0
POLYLINE
  8
ACEPLANT
 62
7
 66
1
 10
0.0
 20
0.0
 30
0.0
 70
128
  0
VERTEX
  8
ACEPLANT
 10
593.3
 20
47.0
 30
0.0
 70
0
  0
VERTEX
  8
ACEPLANT
 10
593.3
 20
42.0
 30
0.0
 70
0
  0
SEQEND
  8
0
  0
POLYLINE
  8
ACEPLANT
 62
7
 66
1
 10
0.0
 20
0.0
 30
0.0
 70
128
  0
VERTEX
  8
ACEPLANT
 10
616.7
 20
47.0
 30
0.0
 70
0
  0
VERTEX
  8
ACEPLANT
 10
546.7
 20
47.0
 30
0.0
 70
0
  0
SEQEND
  8
0
  0
TEXT
  8
ACEPLANT
 62
2
 10
546.8
 20
48.1
 30
0.0
 40
3.5
  1
   5
  7
ARIAL
 41
0.86
  0
POLYLINE
  8
ACEPLANT
 62
7
 66
1
 10
0.0
 20
0.0
 30
0.0
 70
128
  0
VERTEX
  8
ACEPLANT
 10
558.3
 20
52.0
 30
0.0
 70
0
  0
VERTEX
  8
ACEPLANT
 10
558.3
 20
47.0
 30
0.0
 70
0
  0
SEQEND
  8
0
  0
POLYLINE
  8
ACEPLANT
 62
7
 66
1
 10
0.0
 20
0.0
 30
0.0
 70
128
  0
VERTEX
  8
ACEPLANT
 10
575.8
 20
52.0
 30
0.0
 70
0
  0
VERTEX
  8
ACEPLANT
 10
575.8
 20
47.0
 30
0.0
 70
0
  0
SEQEND
  8
0
  0
POLYLINE
  8
ACEPLANT
 62
7
 66
1
 10
0.0
 20
0.0
 30
0.0
 70
128
  0
VERTEX
  8
ACEPLANT
 10
593.3
 20
52.0
 30
0.0
 70
0
  0
VERTEX
  8
ACEPLANT
 10
593.3
 20
47.0
 30
0.0
 70
0
  0
SEQEND
  8
0
  0
POLYLINE
  8
ACEPLANT
 62
7
 66
1
 10
0.0
 20
0.0
 30
0.0
 70
128
  0
VERTEX
  8
ACEPLANT
 10
616.7
 20
52.0
 30
0.0
 70
0
  0
VERTEX
  8
ACEPLANT
 10
546.7
 20
52.0
 30
0.0
 70
0
  0
SEQEND
  8
0
  0
TEXT
  8
ACEPLANT
 62
2
 10
546.8
 20
53.1
 30
0.0
 40
3.5
  1
   4
  7
ARIAL
 41
0.86
  0
POLYLINE
  8
ACEPLANT
 62
7
 66
1
 10
0.0
 20
0.0
 30
0.0
 70
128
  0
VERTEX
  8
ACEPLANT
 10
558.3
 20
57.0
 30
0.0
 70
0
  0
VERTEX
  8
ACEPLANT
 10
558.3
 20
52.0
 30
0.0
 70
0
  0
SEQEND
  8
0
  0
POLYLINE
  8
ACEPLANT
 62
7
 66
1
 10
0.0
 20
0.0
 30
0.0
 70
128
  0
VERTEX
  8
ACEPLANT
 10
575.8
 20
57.0
 30
0.0
 70
0
  0
VERTEX
  8
ACEPLANT
 10
575.8
 20
52.0
 30
0.0
 70
0
  0
SEQEND
  8
0
  0
POLYLINE
  8
ACEPLANT
 62
7
 66
1
 10
0.0
 20
0.0
 30
0.0
 70
128
  0
VERTEX
  8
ACEPLANT
 10
593.3
 20
57.0
 30
0.0
 70
0
  0
VERTEX
  8
ACEPLANT
 10
593.3
 20
52.0
 30
0.0
 70
0
  0
SEQEND
  8
0
  0
POLYLINE
  8
ACEPLANT
 62
7
 66
1
 10
0.0
 20
0.0
 30
0.0
 70
128
  0
VERTEX
  8
ACEPLANT
 10
616.7
 20
57.0
 30
0.0
 70
0
  0
VERTEX
  8
ACEPLANT
 10
546.7
 20
57.0
 30
0.0
 70
0
  0
SEQEND
  8
0
  0
TEXT
  8
ACEPLANT
 62
2
 10
546.8
 20
58.1
 30
0.0
 40
3.5
  1
   3
  7
ARIAL
 41
0.86
  0
POLYLINE
  8
ACEPLANT
 62
7
 66
1
 10
0.0
 20
0.0
 30
0.0
 70
128
  0
VERTEX
  8
ACEPLANT
 10
558.3
 20
62.0
 30
0.0
 70
0
  0
VERTEX
  8
ACEPLANT
 10
558.3
 20
57.0
 30
0.0
 70
0
  0
SEQEND
  8
0
  0
POLYLINE
  8
ACEPLANT
 62
7
 66
1
 10
0.0
 20
0.0
 30
0.0
 70
128
  0
VERTEX
  8
ACEPLANT
 10
575.8
 20
62.0
 30
0.0
 70
0
  0
VERTEX
  8
ACEPLANT
 10
575.8
 20
57.0
 30
0.0
 70
0
  0
SEQEND
  8
0
  0
POLYLINE
  8
ACEPLANT
 62
7
 66
1
 10
0.0
 20
0.0
 30
0.0
 70
128
  0
VERTEX
  8
ACEPLANT
 10
593.3
 20
62.0
 30
0.0
 70
0
  0
VERTEX
  8
ACEPLANT
 10
593.3
 20
57.0
 30
0.0
 70
0
  0
SEQEND
  8
0
  0
POLYLINE
  8
ACEPLANT
 62
7
 66
1
 10
0.0
 20
0.0
 30
0.0
 70
128
  0
VERTEX
  8
ACEPLANT
 10
616.7
 20
62.0
 30
0.0
 70
0
  0
VERTEX
  8
ACEPLANT
 10
546.7
 20
62.0
 30
0.0
 70
0
  0
SEQEND
  8
0
  0
TEXT
  8
ACEPLANT
 62
2
 10
546.8
 20
63.1
 30
0.0
 40
3.5
  1
   2
  7
ARIAL
 41
0.86
  0
POLYLINE
  8
ACEPLANT
 62
7
 66
1
 10
0.0
 20
0.0
 30
0.0
 70
128
  0
VERTEX
  8
ACEPLANT
 10
558.3
 20
67.0
 30
0.0
 70
0
  0
VERTEX
  8
ACEPLANT
 10
558.3
 20
62.0
 30
0.0
 70
0
  0
SEQEND
  8
0
  0
POLYLINE
  8
ACEPLANT
 62
7
 66
1
 10
0.0
 20
0.0
 30
0.0
 70
128
  0
VERTEX
  8
ACEPLANT
 10
575.8
 20
67.0
 30
0.0
 70
0
  0
VERTEX
  8
ACEPLANT
 10
575.8
 20
62.0
 30
0.0
 70
0
  0
SEQEND
  8
0
  0
POLYLINE
  8
ACEPLANT
 62
7
 66
1
 10
0.0
 20
0.0
 30
0.0
 70
128
  0
VERTEX
  8
ACEPLANT
 10
593.3
 20
67.0
 30
0.0
 70
0
  0
VERTEX
  8
ACEPLANT
 10
593.3
 20
62.0
 30
0.0
 70
0
  0
SEQEND
  8
0
  0
POLYLINE
  8
ACEPLANT
 62
7
 66
1
 10
0.0
 20
0.0
 30
0.0
 70
128
  0
VERTEX
  8
ACEPLANT
 10
616.7
 20
67.0
 30
0.0
 70
0
  0
VERTEX
  8
ACEPLANT
 10
546.7
 20
67.0
 30
0.0
 70
0
  0
SEQEND
  8
0
  0
TEXT
  8
ACEPLANT
 62
2
 10
546.8
 20
68.1
 30
0.0
 40
3.5
  1
   1
  7
ARIAL
 41
0.86
  0
POLYLINE
  8
ACEPLANT
 62
7
 66
1
 10
0.0
 20
0.0
 30
0.0
 70
128
  0
VERTEX
  8
ACEPLANT
 10
558.3
 20
72.0
 30
0.0
 70
0
  0
VERTEX
  8
ACEPLANT
 10
558.3
 20
67.0
 30
0.0
 70
0
  0
SEQEND
  8
0
  0
POLYLINE
  8
ACEPLANT
 62
7
 66
1
 10
0.0
 20
0.0
 30
0.0
 70
128
  0
VERTEX
  8
ACEPLANT
 10
575.8
 20
72.0
 30
0.0
 70
0
  0
VERTEX
  8
ACEPLANT
 10
575.8
 20
67.0
 30
0.0
 70
0
  0
SEQEND
  8
0
  0
POLYLINE
  8
ACEPLANT
 62
7
 66
1
 10
0.0
 20
0.0
 30
0.0
 70
128
  0
VERTEX
  8
ACEPLANT
 10
593.3
 20
72.0
 30
0.0
 70
0
  0
VERTEX
  8
ACEPLANT
 10
593.3
 20
67.0
 30
0.0
 70
0
  0
SEQEND
  8
0
  0
POLYLINE
  8
ACEPLANT
 62
7
 66
1
 10
0.0
 20
0.0
 30
0.0
 70
128
  0
VERTEX
  8
ACEPLANT
 10
616.7
 20
72.0
 30
0.0
 70
0
  0
VERTEX
  8
ACEPLANT
 10
546.7
 20
72.0
 30
0.0
 70
0
  0
SEQEND
  8
0
  0
TEXT
  8
ACEPLANT
 62
2
 10
546.8
 20
73.1
 30
0.0
 40
3.5
  1
 NO
  7
ARIAL
 41
0.86
  0
POLYLINE
  8
ACEPLANT
 62
7
 66
1
 10
0.0
 20
0.0
 30
0.0
 70
128
  0
VERTEX
  8
ACEPLANT
 10
558.3
 20
77.0
 30
0.0
 70
0
  0
VERTEX
  8
ACEPLANT
 10
558.3
 20
72.0
 30
0.0
 70
0
  0
SEQEND
  8
0
  0
TEXT
  8
ACEPLANT
 62
2
 10
558.7
 20
73.1
 30
0.0
 40
3.5
  1
 /FLD
  7
ARIAL
 41
0.86
  0
POLYLINE
  8
ACEPLANT
 62
7
 66
1
 10
0.0
 20
0.0
 30
0.0
 70
128
  0
VERTEX
  8
ACEPLANT
 10
575.8
 20
77.0
 30
0.0
 70
0
  0
VERTEX
  8
ACEPLANT
 10
575.8
 20
72.0
 30
0.0
 70
0
  0
SEQEND
  8
0
  0
TEXT
  8
ACEPLANT
 62
2
 10
576.2
 20
73.1
 30
0.0
 40
3.5
  1
  DN
  7
ARIAL
 41
0.86
  0
POLYLINE
  8
ACEPLANT
 62
7
 66
1
 10
0.0
 20
0.0
 30
0.0
 70
128
  0
VERTEX
  8
ACEPLANT
 10
593.3
 20
77.0
 30
0.0
 70
0
  0
VERTEX
  8
ACEPLANT
 10
593.3
 20
72.0
 30
0.0
 70
0
  0
SEQEND
  8
0
  0
TEXT
  8
ACEPLANT
 62
2
 10
593.7
 20
73.1
 30
0.0
 40
3.5
  1
   TYPE
  7
ARIAL
 41
0.86
  0
POLYLINE
  8
ACEPLANT
 62
7
 66
1
 10
0.0
 20
0.0
 30
0.0
 70
128
  0
VERTEX
  8
ACEPLANT
 10
616.7
 20
77.0
 30
0.0
 70
0
  0
VERTEX
  8
ACEPLANT
 10
546.7
 20
77.0
 30
0.0
 70
0
  0
SEQEND
  8
0
  0
TEXT
  8
ACEPLANT
 62
2
 10
546.8
 20
78.1
 30
0.0
 40
3.5
  1
WELD
  7
ARIAL
 41
0.86
  0
POLYLINE
  8
ACEPLANT
 62
7
 66
1
 10
0.0
 20
0.0
 30
0.0
 70
128
  0
VERTEX
  8
ACEPLANT
 10
558.3
 20
82.0
 30
0.0
 70
0
  0
VERTEX
  8
ACEPLANT
 10
558.3
 20
77.0
 30
0.0
 70
0
  0
SEQEND
  8
0
  0
TEXT
  8
ACEPLANT
 62
2
 10
558.7
 20
78.1
 30
0.0
 40
3.5
  1
 SHOP
  7
ARIAL
 41
0.86
  0
POLYLINE
  8
ACEPLANT
 62
7
 66
1
 10
0.0
 20
0.0
 30
0.0
 70
128
  0
VERTEX
  8
ACEPLANT
 10
575.8
 20
82.0
 30
0.0
 70
0
  0
VERTEX
  8
ACEPLANT
 10
575.8
 20
77.0
 30
0.0
 70
0
  0
SEQEND
  8
0
  0
TEXT
  8
ACEPLANT
 62
2
 10
576.2
 20
78.1
 30
0.0
 40
3.5
  1
 WELD
  7
ARIAL
 41
0.86
  0
POLYLINE
  8
ACEPLANT
 62
7
 66
1
 10
0.0
 20
0.0
 30
0.0
 70
128
  0
VERTEX
  8
ACEPLANT
 10
593.3
 20
82.0
 30
0.0
 70
0
  0
VERTEX
  8
ACEPLANT
 10
593.3
 20
77.0
 30
0.0
 70
0
  0
SEQEND
  8
0
  0
TEXT
  8
ACEPLANT
 62
2
 10
593.7
 20
78.1
 30
0.0
 40
3.5
  1
   WELD
  7
ARIAL
 41
0.86
  0
POLYLINE
  8
ACEPLANT
 66
1
 10
0.0
 20
0.0
 30
0.0
 70
128
  0
VERTEX
  8
ACEPLANT
 10
616.7
 20
82.0
 30
0.0
 70
0
  0
VERTEX
  8
ACEPLANT
 10
546.7
 20
82.0
 30
0.0
 70
0
  0
VERTEX
  8
ACEPLANT
 10
546.7
 20
12.0
 30
0.0
 70
0
  0
SEQEND
  8
0
  0
TEXT
  8
ACEPLANT
 62
2
 10
35.8
 20
576.0
 30
0.0
 40
6.25
  1
N
  7
ARIAL
 41
0.86
  0
TEXT
  8
ACEPLANT
 62
2
 10
35.6
 20
576.0
 30
0.0
 40
6.25
  1
N
  7
ARIAL
 41
0.86
  0
POLYLINE
  8
ACEPLANT
 62
7
 66
1
 10
0.0
 20
0.0
 30
0.0
 70
128
  0
VERTEX
  8
ACEPLANT
 10
42.0
 20
574.0
 30
0.0
 70
0
  0
VERTEX
  8
ACEPLANT
 10
46.0
 20
568.0
 30
0.0
 70
0
  0
VERTEX
  8
ACEPLANT
 10
45.6
 20
571.2
 30
0.0
 70
0
  0
VERTEX
  8
ACEPLANT
 10
52.4
 20
567.2
 30
0.0
 70
0
  0
VERTEX
  8
ACEPLANT
 10
53.2
 20
568.4
 30
0.0
 70
0
  0
VERTEX
  8
ACEPLANT
 10
46.4
 20
572.4
 30
0.0
 70
0
  0
VERTEX
  8
ACEPLANT
 10
49.2
 20
573.6
 30
0.0
 70
0
  0
VERTEX
  8
ACEPLANT
 10
42.0
 20
574.0
 30
0.0
 70
0
  0
SEQEND
  8
0
  0
POLYLINE
  8
ACEPLANT
 66
1
 10
0.0
 20
0.0
 30
0.0
 70
128
  0
VERTEX
  8
ACEPLANT
 10
56.0
 20
583.2
 30
0.0
 70
0
  0
VERTEX
  8
ACEPLANT
 10
56.0
 20
563.2
 30
0.0
 70
0
  0
VERTEX
  8
ACEPLANT
 10
32.0
 20
563.2
 30
0.0
 70
0
  0
VERTEX
  8
ACEPLANT
 10
32.0
 20
583.4
 30
0.0
 70
0
  0
VERTEX
  8
ACEPLANT
 10
56.2
 20
583.4
 30
0.0
 70
0
  0
VERTEX
  8
ACEPLANT
 10
56.2
 20
563.4
 30
0.0
 70
0
  0
VERTEX
  8
ACEPLANT
 10
32.2
 20
563.4
 30
0.0
 70
0
  0
VERTEX
  8
ACEPLANT
 10
32.2
 20
583.6
 30
0.0
 70
0
  0
VERTEX
  8
ACEPLANT
 10
56.4
 20
583.6
 30
0.0
 70
0
  0
VERTEX
  8
ACEPLANT
 10
56.4
 20
563.6
 30
0.0
 70
0
  0
VERTEX
  8
ACEPLANT
 10
32.4
 20
563.6
 30
0.0
 70
0
  0
VERTEX
  8
ACEPLANT
 10
32.4
 20
583.8
 30
0.0
 70
0
  0
VERTEX
  8
ACEPLANT
 10
56.6
 20
583.8
 30
0.0
 70
0
  0
VERTEX
  8
ACEPLANT
 10
56.6
 20
563.8
 30
0.0
 70
0
  0
VERTEX
  8
ACEPLANT
 10
32.6
 20
563.8
 30
0.0
 70
0
  0
VERTEX
  8
ACEPLANT
 10
32.6
 20
584.0
 30
0.0
 70
0
  0
SEQEND
  8
0
  0
POLYLINE
  8
ACEPLANT
 62
7
 66
1
 10
0.0
 20
0.0
 30
0.0
 70
128
  0
VERTEX
  8
ACEPLANT
 10
254.5
 20
117.5
 30
0.0
 70
0
  0
VERTEX
  8
ACEPLANT
 10
250.3
 20
124.7
 30
0.0
 70
0
  0
SEQEND
  8
0
  0
POLYLINE
  8
ACEPLANT
 62
7
 66
1
 10
0.0
 20
0.0
 30
0.0
 70
128
  0
VERTEX
  8
ACEPLANT
 10
250.3
 20
119.9
 30
0.0
 70
0
  0
VERTEX
  8
ACEPLANT
 10
254.5
 20
122.3
 30
0.0
 70
0
  0
SEQEND
  8
0
  0
TEXT
  8
ACEPLANT
 62
2
 10
244.4700245123576
 20
119.71196204098241
 30
0.0
 40
3.0
  1
1
  7
ARIAL
 41
0.86
  0
POLYLINE
  8
ACEPLANT
 66
1
 10
0.0
 20
0.0
 30
0.0
 70
128
  0
VERTEX
  8
ACEPLANT
 10
252.4
 20
118.6
 30
0.0
 70
0
  0
VERTEX
  8
ACEPLANT
 10
252.4
 20
120.6
 30
0.0
 70
0
  0
VERTEX
  8
ACEPLANT
 10
251.7
 20
118.7
 30
0.0
 70
0
  0
SEQEND
  8
0
  0
POLYLINE
  8
ACEPLANT
 62
7
 66
1
 10
0.0
 20
0.0
 30
0.0
 70
128
  0
VERTEX
  8
ACEPLANT
 10
252.4
 20
120.6
 30
0.0
 70
0
  0
VERTEX
  8
ACEPLANT
 10
250.8
 20
111.7
 30
0.0
 70
0
  0
SEQEND
  8
0
  0
TEXT
  8
ACEPLANT
 62
2
 10
198.871
 20
112.2
 30
0.0
 40
3.0
  1
CONT. ON
  7
ARIAL
 41
0.86
  0
TEXT
  8
ACEPLANT
 62
3
 10
198.871
 20
108.2
 30
0.0
 40
3.0
  1
110022-13610-041-AA5H-350
  7
ARIAL
 41
0.86
  0
TEXT
  8
ACEPLANT
 62
2
 10
198.871
 20
104.2
 30
0.0
 40
3.0
  1
E 975237
  7
ARIAL
 41
0.86
  0
TEXT
  8
ACEPLANT
 62
2
 10
198.871
 20
100.2
 30
0.0
 40
3.0
  1
S 1280100
  7
ARIAL
 41
0.86
  0
TEXT
  8
ACEPLANT
 62
2
 10
198.871
 20
96.2
 30
0.0
 40
3.0
  1
FL+20932
  7
ARIAL
 41
0.86
  0
POLYLINE
  8
ACEPLANT
 62
2
 66
1
 10
0.0
 20
0.0
 30
0.0
 70
128
  0
VERTEX
  8
ACEPLANT
 10
252.4
 20
120.6
 30
0.0
 70
0
  0
VERTEX
  8
ACEPLANT
 10
254.0
 20
119.7
 30
0.0
 70
0
  0
VERTEX
  8
ACEPLANT
 10
252.8
 20
126.0
 30
0.0
 70
0
  0
VERTEX
  8
ACEPLANT
 10
252.0
 20
126.4
 30
0.0
 70
0
  0
VERTEX
  8
ACEPLANT
 10
250.8
 20
121.5
 30
0.0
 70
0
  0
VERTEX
  8
ACEPLANT
 10
252.4
 20
120.6
 30
0.0
 70
0
  0
SEQEND
  8
0
  0
TEXT
  8
ACEPLANT
 62
2
 10
268.60204097743724
 20
117.888010145679
 30
0.0
 40
3.0
  1
3
  7
ARIAL
 41
0.86
  0
POLYLINE
  8
ACEPLANT
 62
7
 66
1
 10
0.0
 20
0.0
 30
0.0
 70
128
  0
VERTEX
  8
ACEPLANT
 10
268.10204097743724
 20
121.388010145679
 30
0.0
 70
0
  0
VERTEX
  8
ACEPLANT
 10
271.10204097743724
 20
121.388010145679
 30
0.0
 70
0
  0
VERTEX
  8
ACEPLANT
 10
271.10204097743724
 20
117.388010145679
 30
0.0
 70
0
  0
VERTEX
  8
ACEPLANT
 10
268.10204097743724
 20
117.388010145679
 30
0.0
 70
0
  0
VERTEX
  8
ACEPLANT
 10
268.10204097743724
 20
121.388010145679
 30
0.0
 70
0
  0
SEQEND
  8
0
  0
TEXT
  8
ACEPLANT
 62
2
 10
268.60204097743724
 20
113.888010145679
 30
0.0
 40
3.0
  1
350x300DN
  7
ARIAL
 41
0.86
  0
POLYLINE
  8
ACEPLANT
 62
7
 66
1
 10
0.0
 20
0.0
 30
0.0
 70
128
  0
VERTEX
  8
ACEPLANT
 10
248.9
 20
122.6
 30
0.0
 70
0
  0
VERTEX
  8
ACEPLANT
 10
238.4
 20
128.7
 30
0.0
 70
0
  0
SEQEND
  8
0
  0
POLYLINE
  8
ACEPLANT
 62
7
 66
1
 10
0.0
 20
0.0
 30
0.0
 70
128
  0
VERTEX
  8
ACEPLANT
 10
239.1
 20
130.1
 30
0.0
 70
0
  0
VERTEX
  8
ACEPLANT
 10
239.4
 20
128.1
 30
0.0
 70
0
  0
VERTEX
  8
ACEPLANT
 10
239.7
 20
130.1
 30
0.0
 70
0
  0
SEQEND
  8
0
  0
POLYLINE
  8
ACEPLANT
 62
7
 66
1
 10
0.0
 20
0.0
 30
0.0
 70
128
  0
VERTEX
  8
ACEPLANT
 10
239.4
 20
128.1
 30
0.0
 70
0
  0
VERTEX
  8
ACEPLANT
 10
239.4
 20
130.9
 30
0.0
 70
0
  0
SEQEND
  8
0
  0
POLYLINE
  8
ACEPLANT
 62
7
 66
1
 10
0.0
 20
0.0
 30
0.0
 70
128
  0
VERTEX
  8
ACEPLANT
 10
248.9
 20
128.2
 30
0.0
 70
0
  0
VERTEX
  8
ACEPLANT
 10
238.4
 20
134.3
 30
0.0
 70
0
  0
SEQEND
  8
0
  0
POLYLINE
  8
ACEPLANT
 62
7
 66
1
 10
0.0
 20
0.0
 30
0.0
 70
128
  0
VERTEX
  8
ACEPLANT
 10
239.7
 20
131.7
 30
0.0
 70
0
  0
VERTEX
  8
ACEPLANT
 10
239.4
 20
133.7
 30
0.0
 70
0
  0
VERTEX
  8
ACEPLANT
 10
239.1
 20
131.7
 30
0.0
 70
0
  0
SEQEND
  8
0
  0
POLYLINE
  8
ACEPLANT
 62
7
 66
1
 10
0.0
 20
0.0
 30
0.0
 70
128
  0
VERTEX
  8
ACEPLANT
 10
239.4
 20
133.7
 30
0.0
 70
0
  0
VERTEX
  8
ACEPLANT
 10
239.4
 20
130.9
 30
0.0
 70
0
  0
SEQEND
  8
0
  0
TEXT
  8
ACEPLANT
 62
2
 10
238.4366034321867
 20
127.31039566310804
 30
0.0
 40
3.0
  1
330
 50
90.0
  7
ARIAL
 41
0.86
  0
TEXT
  8
ACEPLANT
 62
2
 10
258.4156993192292
 20
124.2281731681172
 30
0.0
 40
3.0
  1
2
  7
ARIAL
 41
0.86
  0
POLYLINE
  8
ACEPLANT
 66
1
 10
0.0
 20
0.0
 30
0.0
 70
128
  0
VERTEX
  8
ACEPLANT
 10
254.4
 20
133.4
 30
0.0
 70
0
  0
VERTEX
  8
ACEPLANT
 10
252.4
 20
133.1
 30
0.0
 70
0
  0
VERTEX
  8
ACEPLANT
 10
254.4
 20
132.8
 30
0.0
 70
0
  0
SEQEND
  8
0
  0
POLYLINE
  8
ACEPLANT
 62
7
 66
1
 10
0.0
 20
0.0
 30
0.0
 70
128
  0
VERTEX
  8
ACEPLANT
 10
252.4
 20
133.1
 30
0.0
 70
0
  0
VERTEX
  8
ACEPLANT
 10
257.4
 20
133.1
 30
0.0
 70
0
  0
SEQEND
  8
0
  0
TEXT
  8
ACEPLANT
 62
2
 10
257.9
 20
133.6
 30
0.0
 40
3.0
  1
300DN
  7
ARIAL
 41
0.86
  0
POLYLINE
  8
ACEPLANT
 66
1
 10
0.0
 20
0.0
 30
0.0
 70
128
  0
VERTEX
  8
ACEPLANT
 10
250.4
 20
133.5
 30
0.0
 70
0
  0
VERTEX
  8
ACEPLANT
 10
252.4
 20
133.1
 30
0.0
 70
0
  0
VERTEX
  8
ACEPLANT
 10
250.7
 20
134.1
 30
0.0
 70
0
  0
SEQEND
  8
0
  0
POLYLINE
  8
ACEPLANT
 62
7
 66
1
 10
0.0
 20
0.0
 30
0.0
 70
128
  0
VERTEX
  8
ACEPLANT
 10
252.4
 20
133.1
 30
0.0
 70
0
  0
VERTEX
  8
ACEPLANT
 10
228.9
 20
141.7
 30
0.0
 70
0
  0
SEQEND
  8
0
  0
TEXT
  8
ACEPLANT
 62
2
 10
185.2
 20
142.2
 30
0.0
 40
3.0
  1
110022-13610-045-S001
  7
ARIAL
 41
0.86
  0
POLYLINE
  8
ACEPLANT
 62
7
 66
1
 10
0.0
 20
0.0
 30
0.0
 70
128
  0
VERTEX
  8
ACEPLANT
 10
184.7
 20
145.7
 30
0.0
 70
0
  0
VERTEX
  8
ACEPLANT
 10
228.5
 20
145.7
 30
0.0
 70
0
  0
VERTEX
  8
ACEPLANT
 10
228.5
 20
141.7
 30
0.0
 70
0
  0
VERTEX
  8
ACEPLANT
 10
184.7
 20
141.7
 30
0.0
 70
0
  0
VERTEX
  8
ACEPLANT
 10
184.7
 20
145.7
 30
0.0
 70
0
  0
SEQEND
  8
0
  0
POLYLINE
  8
ACEPLANT
 62
7
 66
1
 10
0.0
 20
0.0
 30
0.0
 70
128
  0
VERTEX
  8
ACEPLANT
 10
183.7
 20
146.7
 30
0.0
 70
0
  0
VERTEX
  8
ACEPLANT
 10
229.5
 20
146.7
 30
0.0
 70
0
  0
VERTEX
  8
ACEPLANT
 10
229.5
 20
140.7
 30
0.0
 70
0
  0
VERTEX
  8
ACEPLANT
 10
183.7
 20
140.7
 30
0.0
 70
0
  0
VERTEX
  8
ACEPLANT
 10
183.7
 20
146.7
 30
0.0
 70
0
  0
SEQEND
  8
0
  0
POLYLINE
  8
ACEPLANT
 66
1
 10
0.0
 20
0.0
 30
0.0
 70
128
  0
VERTEX
  8
ACEPLANT
 10
252.4
 20
139.9
 30
0.0
 70
0
  0
VERTEX
  8
ACEPLANT
 10
253.7
 20
139.1
 30
0.0
 70
0
  0
VERTEX
  8
ACEPLANT
 10
252.4
 20
146.3
 30
0.0
 70
0
  0
VERTEX
  8
ACEPLANT
 10
251.2
 20
140.6
 30
0.0
 70
0
  0
VERTEX
  8
ACEPLANT
 10
253.6
 20
139.2
 30
0.0
 70
0
  0
VERTEX
  8
ACEPLANT
 10
252.4
 20
145.7
 30
0.0
 70
0
  0
VERTEX
  8
ACEPLANT
 10
251.3
 20
140.5
 30
0.0
 70
0
  0
VERTEX
  8
ACEPLANT
 10
253.4
 20
139.3
 30
0.0
 70
0
  0
VERTEX
  8
ACEPLANT
 10
252.4
 20
145.0
 30
0.0
 70
0
  0
VERTEX
  8
ACEPLANT
 10
251.5
 20
140.4
 30
0.0
 70
0
  0
VERTEX
  8
ACEPLANT
 10
253.2
 20
139.4
 30
0.0
 70
0
  0
VERTEX
  8
ACEPLANT
 10
252.4
 20
144.4
 30
0.0
 70
0
  0
VERTEX
  8
ACEPLANT
 10
251.7
 20
140.3
 30
0.0
 70
0
  0
VERTEX
  8
ACEPLANT
 10
253.1
 20
139.5
 30
0.0
 70
0
  0
VERTEX
  8
ACEPLANT
 10
252.4
 20
143.8
 30
0.0
 70
0
  0
VERTEX
  8
ACEPLANT
 10
251.8
 20
140.2
 30
0.0
 70
0
  0
VERTEX
  8
ACEPLANT
 10
252.9
 20
139.6
 30
0.0
 70
0
  0
VERTEX
  8
ACEPLANT
 10
252.4
 20
143.2
 30
0.0
 70
0
  0
VERTEX
  8
ACEPLANT
 10
252.0
 20
140.1
 30
0.0
 70
0
  0
VERTEX
  8
ACEPLANT
 10
252.7
 20
139.7
 30
0.0
 70
0
  0
VERTEX
  8
ACEPLANT
 10
252.4
 20
142.6
 30
0.0
 70
0
  0
VERTEX
  8
ACEPLANT
 10
252.2
 20
140.0
 30
0.0
 70
0
  0
VERTEX
  8
ACEPLANT
 10
252.6
 20
139.8
 30
0.0
 70
0
  0
VERTEX
  8
ACEPLANT
 10
252.4
 20
142.0
 30
0.0
 70
0
  0
VERTEX
  8
ACEPLANT
 10
252.3
 20
139.9
 30
0.0
 70
0
  0
VERTEX
  8
ACEPLANT
 10
252.4
 20
139.9
 30
0.0
 70
0
  0
VERTEX
  8
ACEPLANT
 10
252.4
 20
146.3
 30
0.0
 70
0
  0
SEQEND
  8
0
  0
TEXT
  8
ACEPLANT
 62
2
 10
250.95
 20
207.557
 30
0.0
 40
3.0
  1
<1>
 50
90.0
  7
ARIAL
 41
0.86
  0
TEXT
  8
ACEPLANT
 62
2
 10
250.95
 20
215.717
 30
0.0
 40
3.0
  1
1
 50
90.0
  7
ARIAL
 41
0.86
  0
POLYLINE
  8
ACEPLANT
 62
7
 66
1
 10
0.0
 20
0.0
 30
0.0
 70
128
  0
VERTEX
  8
ACEPLANT
 10
247.5
 20
215.2
 30
0.0
 70
0
  0
VERTEX
  8
ACEPLANT
 10
247.5
 20
218.3
 30
0.0
 70
0
  0
VERTEX
  8
ACEPLANT
 10
251.4
 20
218.3
 30
0.0
 70
0
  0
VERTEX
  8
ACEPLANT
 10
251.4
 20
215.2
 30
0.0
 70
0
  0
VERTEX
  8
ACEPLANT
 10
247.5
 20
215.2
 30
0.0
 70
0
  0
SEQEND
  8
0
  0
TEXT
  8
ACEPLANT
 62
2
 10
244.44886782176164
 20
278.08606766308515
 30
0.0
 40
3.0
  1
3
  7
ARIAL
 41
0.86
  0
POLYLINE
  8
ACEPLANT
 66
1
 10
0.0
 20
0.0
 30
0.0
 70
128
  0
VERTEX
  8
ACEPLANT
 10
254.1
 20
288.1
 30
0.0
 70
0
  0
VERTEX
  8
ACEPLANT
 10
252.4
 20
289.1
 30
0.0
 70
0
  0
VERTEX
  8
ACEPLANT
 10
253.7
 20
287.6
 30
0.0
 70
0
  0
SEQEND
  8
0
  0
POLYLINE
  8
ACEPLANT
 62
7
 66
1
 10
0.0
 20
0.0
 30
0.0
 70
128
  0
VERTEX
  8
ACEPLANT
 10
252.4
 20
289.1
 30
0.0
 70
0
  0
VERTEX
  8
ACEPLANT
 10
259.3
 20
283.3
 30
0.0
 70
0
  0
SEQEND
  8
0
  0
TEXT
  8
ACEPLANT
 62
2
 10
259.8
 20
283.8
 30
0.0
 40
3.0
  1
2
  7
ARIAL
 41
0.86
  0
POLYLINE
  8
ACEPLANT
 62
7
 66
1
 10
0.0
 20
0.0
 30
0.0
 70
128
  0
VERTEX
  8
ACEPLANT
 10
259.3
 20
287.3
 30
0.0
 70
0
  0
VERTEX
  8
ACEPLANT
 10
262.3
 20
287.3
 30
0.0
 70
0
  0
VERTEX
  8
ACEPLANT
 10
262.3
 20
283.3
 30
0.0
 70
0
  0
VERTEX
  8
ACEPLANT
 10
259.3
 20
283.3
 30
0.0
 70
0
  0
VERTEX
  8
ACEPLANT
 10
259.3
 20
287.3
 30
0.0
 70
0
  0
SEQEND
  8
0
  0
TEXT
  8
ACEPLANT
 62
2
 10
259.8
 20
279.8
 30
0.0
 40
3.0
  1
FL+25158
  7
ARIAL
 41
0.86
  0
POLYLINE
  8
ACEPLANT
 62
7
 66
1
 10
0.0
 20
0.0
 30
0.0
 70
128
  0
VERTEX
  8
ACEPLANT
 10
248.9
 20
128.2
 30
0.0
 70
0
  0
VERTEX
  8
ACEPLANT
 10
238.4
 20
134.3
 30
0.0
 70
0
  0
SEQEND
  8
0
  0
POLYLINE
  8
ACEPLANT
 62
7
 66
1
 10
0.0
 20
0.0
 30
0.0
 70
128
  0
VERTEX
  8
ACEPLANT
 10
239.1
 20
135.7
 30
0.0
 70
0
  0
VERTEX
  8
ACEPLANT
 10
239.4
 20
133.7
 30
0.0
 70
0
  0
VERTEX
  8
ACEPLANT
 10
239.7
 20
135.7
 30
0.0
 70
0
  0
SEQEND
  8
0
  0
POLYLINE
  8
ACEPLANT
 62
7
 66
1
 10
0.0
 20
0.0
 30
0.0
 70
128
  0
VERTEX
  8
ACEPLANT
 10
239.4
 20
133.7
 30
0.0
 70
0
  0
VERTEX
  8
ACEPLANT
 10
239.4
 20
211.0
 30
0.0
 70
0
  0
SEQEND
  8
0
  0
POLYLINE
  8
ACEPLANT
 62
7
 66
1
 10
0.0
 20
0.0
 30
0.0
 70
128
  0
VERTEX
  8
ACEPLANT
 10
248.9
 20
291.1
 30
0.0
 70
0
  0
VERTEX
  8
ACEPLANT
 10
238.4
 20
297.2
 30
0.0
 70
0
  0
SEQEND
  8
0
  0
POLYLINE
  8
ACEPLANT
 62
7
 66
1
 10
0.0
 20
0.0
 30
0.0
 70
128
  0
VERTEX
  8
ACEPLANT
 10
239.7
 20
294.6
 30
0.0
 70
0
  0
VERTEX
  8
ACEPLANT
 10
239.4
 20
296.6
 30
0.0
 70
0
  0
VERTEX
  8
ACEPLANT
 10
239.1
 20
294.6
 30
0.0
 70
0
  0
SEQEND
  8
0
  0
POLYLINE
  8
ACEPLANT
 62
7
 66
1
 10
0.0
 20
0.0
 30
0.0
 70
128
  0
VERTEX
  8
ACEPLANT
 10
239.4
 20
296.6
 30
0.0
 70
0
  0
VERTEX
  8
ACEPLANT
 10
239.4
 20
220.3
 30
0.0
 70
0
  0
SEQEND
  8
0
  0
TEXT
  8
ACEPLANT
 62
2
 10
240.61
 20
211.036
 30
0.0
 40
3.0
  1
3896
 50
90.0
  7
ARIAL
 41
0.86
  0
POLYLINE
  8
ACEPLANT
 62
7
 66
1
 10
0.0
 20
0.0
 30
0.0
 70
128
  0
VERTEX
  8
ACEPLANT
 10
248.9
 20
122.6
 30
0.0
 70
0
  0
VERTEX
  8
ACEPLANT
 10
234.0
 20
131.2
 30
0.0
 70
0
  0
SEQEND
  8
0
  0
POLYLINE
  8
ACEPLANT
 66
1
 10
0.0
 20
0.0
 30
0.0
 70
128
  0
VERTEX
  8
ACEPLANT
 10
234.8
 20
132.6
 30
0.0
 70
0
  0
VERTEX
  8
ACEPLANT
 10
235.1
 20
130.6
 30
0.0
 70
0
  0
VERTEX
  8
ACEPLANT
 10
235.4
 20
132.6
 30
0.0
 70
0
  0
SEQEND
  8
0
  0
POLYLINE
  8
ACEPLANT
 62
7
 66
1
 10
0.0
 20
0.0
 30
0.0
 70
128
  0
VERTEX
  8
ACEPLANT
 10
235.1
 20
130.6
 30
0.0
 70
0
  0
VERTEX
  8
ACEPLANT
 10
235.1
 20
210.7
 30
0.0
 70
0
  0
SEQEND
  8
0
  0
POLYLINE
  8
ACEPLANT
 62
7
 66
1
 10
0.0
 20
0.0
 30
0.0
 70
128
  0
VERTEX
  8
ACEPLANT
 10
248.9
 20
291.1
 30
0.0
 70
0
  0
VERTEX
  8
ACEPLANT
 10
234.0
 20
299.7
 30
0.0
 70
0
  0
SEQEND
  8
0
  0
POLYLINE
  8
ACEPLANT
 66
1
 10
0.0
 20
0.0
 30
0.0
 70
128
  0
VERTEX
  8
ACEPLANT
 10
235.4
 20
297.1
 30
0.0
 70
0
  0
VERTEX
  8
ACEPLANT
 10
235.1
 20
299.1
 30
0.0
 70
0
  0
VERTEX
  8
ACEPLANT
 10
234.8
 20
297.1
 30
0.0
 70
0
  0
SEQEND
  8
0
  0
POLYLINE
  8
ACEPLANT
 62
7
 66
1
 10
0.0
 20
0.0
 30
0.0
 70
128
  0
VERTEX
  8
ACEPLANT
 10
235.1
 20
299.1
 30
0.0
 70
0
  0
VERTEX
  8
ACEPLANT
 10
235.1
 20
220.0
 30
0.0
 70
0
  0
SEQEND
  8
0
  0
TEXT
  8
ACEPLANT
 62
2
 10
236.279
 20
210.736
 30
0.0
 40
3.0
  1
4226
 50
90.0
  7
ARIAL
 41
0.86
  0
POLYLINE
  8
ACEPLANT
 62
7
 66
1
 10
0.0
 20
0.0
 30
0.0
 70
128
  0
VERTEX
  8
ACEPLANT
 10
248.9
 20
291.1
 30
0.0
 70
0
  0
VERTEX
  8
ACEPLANT
 10
238.4
 20
297.2
 30
0.0
 70
0
  0
SEQEND
  8
0
  0
POLYLINE
  8
ACEPLANT
 62
7
 66
1
 10
0.0
 20
0.0
 30
0.0
 70
128
  0
VERTEX
  8
ACEPLANT
 10
240.9
 20
297.9
 30
0.0
 70
0
  0
VERTEX
  8
ACEPLANT
 10
239.4
 20
296.6
 30
0.0
 70
0
  0
VERTEX
  8
ACEPLANT
 10
241.3
 20
297.3
 30
0.0
 70
0
  0
SEQEND
  8
0
  0
POLYLINE
  8
ACEPLANT
 62
7
 66
1
 10
0.0
 20
0.0
 30
0.0
 70
128
  0
VERTEX
  8
ACEPLANT
 10
239.4
 20
296.6
 30
0.0
 70
0
  0
VERTEX
  8
ACEPLANT
 10
243.8
 20
299.1
 30
0.0
 70
0
  0
SEQEND
  8
0
  0
POLYLINE
  8
ACEPLANT
 62
7
 66
1
 10
0.0
 20
0.0
 30
0.0
 70
128
  0
VERTEX
  8
ACEPLANT
 10
257.6
 20
296.1
 30
0.0
 70
0
  0
VERTEX
  8
ACEPLANT
 10
247.1
 20
302.2
 30
0.0
 70
0
  0
SEQEND
  8
0
  0
POLYLINE
  8
ACEPLANT
 62
7
 66
1
 10
0.0
 20
0.0
 30
0.0
 70
128
  0
VERTEX
  8
ACEPLANT
 10
246.6
 20
300.3
 30
0.0
 70
0
  0
VERTEX
  8
ACEPLANT
 10
248.1
 20
301.6
 30
0.0
 70
0
  0
VERTEX
  8
ACEPLANT
 10
246.2
 20
300.9
 30
0.0
 70
0
  0
SEQEND
  8
0
  0
POLYLINE
  8
ACEPLANT
 62
7
 66
1
 10
0.0
 20
0.0
 30
0.0
 70
128
  0
VERTEX
  8
ACEPLANT
 10
248.1
 20
301.6
 30
0.0
 70
0
  0
VERTEX
  8
ACEPLANT
 10
243.8
 20
299.1
 30
0.0
 70
0
  0
SEQEND
  8
0
  0
TEXT
  8
ACEPLANT
 62
2
 10
240.20306800308526
 20
298.1643331512344
 30
0.0
 40
3.0
  1
457
 50
29.604450746004886
  7
ARIAL
 41
0.86
  0
POLYLINE
  8
ACEPLANT
 62
7
 66
1
 10
0.0
 20
0.0
 30
0.0
 70
128
  0
VERTEX
  8
ACEPLANT
 10
261.5
 20
291.9
 30
0.0
 70
0
  0
VERTEX
  8
ACEPLANT
 10
261.5
 20
296.7
 30
0.0
 70
0
  0
SEQEND
  8
0
  0
POLYLINE
  8
ACEPLANT
 62
7
 66
1
 10
0.0
 20
0.0
 30
0.0
 70
128
  0
VERTEX
  8
ACEPLANT
 10
257.4
 20
294.3
 30
0.0
 70
0
  0
VERTEX
  8
ACEPLANT
 10
265.7
 20
294.3
 30
0.0
 70
0
  0
SEQEND
  8
0
  0
TEXT
  8
ACEPLANT
 62
2
 10
266.0766391648223
 20
288.48379207373154
 30
0.0
 40
3.0
  1
4
  7
ARIAL
 41
0.86
  0
POLYLINE
  8
ACEPLANT
 66
1
 10
0.0
 20
0.0
 30
0.0
 70
128
  0
VERTEX
  8
ACEPLANT
 10
322.7
 20
327.4
 30
0.0
 70
0
  0
VERTEX
  8
ACEPLANT
 10
321.4
 20
328.9
 30
0.0
 70
0
  0
VERTEX
  8
ACEPLANT
 10
322.1
 20
327.0
 30
0.0
 70
0
  0
SEQEND
  8
0
  0
POLYLINE
  8
ACEPLANT
 62
7
 66
1
 10
0.0
 20
0.0
 30
0.0
 70
128
  0
VERTEX
  8
ACEPLANT
 10
321.4
 20
328.9
 30
0.0
 70
0
  0
VERTEX
  8
ACEPLANT
 10
325.9
 20
321.1
 30
0.0
 70
0
  0
SEQEND
  8
0
  0
TEXT
  8
ACEPLANT
 62
2
 10
326.4
 20
321.6
 30
0.0
 40
3.0
  1
110022-13610-045-S002
  7
ARIAL
 41
0.86
  0
POLYLINE
  8
ACEPLANT
 62
7
 66
1
 10
0.0
 20
0.0
 30
0.0
 70
128
  0
VERTEX
  8
ACEPLANT
 10
325.9
 20
325.1
 30
0.0
 70
0
  0
VERTEX
  8
ACEPLANT
 10
369.7
 20
325.1
 30
0.0
 70
0
  0
VERTEX
  8
ACEPLANT
 10
369.7
 20
321.1
 30
0.0
 70
0
  0
VERTEX
  8
ACEPLANT
 10
325.9
 20
321.1
 30
0.0
 70
0
  0
VERTEX
  8
ACEPLANT
 10
325.9
 20
325.1
 30
0.0
 70
0
  0
SEQEND
  8
0
  0
POLYLINE
  8
ACEPLANT
 62
7
 66
1
 10
0.0
 20
0.0
 30
0.0
 70
128
  0
VERTEX
  8
ACEPLANT
 10
324.9
 20
326.1
 30
0.0
 70
0
  0
VERTEX
  8
ACEPLANT
 10
370.7
 20
326.1
 30
0.0
 70
0
  0
VERTEX
  8
ACEPLANT
 10
370.7
 20
320.1
 30
0.0
 70
0
  0
VERTEX
  8
ACEPLANT
 10
324.9
 20
320.1
 30
0.0
 70
0
  0
VERTEX
  8
ACEPLANT
 10
324.9
 20
326.1
 30
0.0
 70
0
  0
SEQEND
  8
0
  0
POLYLINE
  8
ACEPLANT
 62
7
 66
1
 10
0.0
 20
0.0
 30
0.0
 70
128
  0
VERTEX
  8
ACEPLANT
 10
257.6
 20
296.1
 30
0.0
 70
0
  0
VERTEX
  8
ACEPLANT
 10
251.4
 20
299.7
 30
0.0
 70
0
  0
SEQEND
  8
0
  0
POLYLINE
  8
ACEPLANT
 66
1
 10
0.0
 20
0.0
 30
0.0
 70
128
  0
VERTEX
  8
ACEPLANT
 10
253.9
 20
300.4
 30
0.0
 70
0
  0
VERTEX
  8
ACEPLANT
 10
252.4
 20
299.1
 30
0.0
 70
0
  0
VERTEX
  8
ACEPLANT
 10
254.3
 20
299.8
 30
0.0
 70
0
  0
SEQEND
  8
0
  0
POLYLINE
  8
ACEPLANT
 62
7
 66
1
 10
0.0
 20
0.0
 30
0.0
 70
128
  0
VERTEX
  8
ACEPLANT
 10
252.4
 20
299.1
 30
0.0
 70
0
  0
VERTEX
  8
ACEPLANT
 10
309.1
 20
331.8
 30
0.0
 70
0
  0
SEQEND
  8
0
  0
POLYLINE
  8
ACEPLANT
 62
7
 66
1
 10
0.0
 20
0.0
 30
0.0
 70
128
  0
VERTEX
  8
ACEPLANT
 10
378.1
 20
365.7
 30
0.0
 70
0
  0
VERTEX
  8
ACEPLANT
 10
371.9
 20
369.3
 30
0.0
 70
0
  0
SEQEND
  8
0
  0
POLYLINE
  8
ACEPLANT
 66
1
 10
0.0
 20
0.0
 30
0.0
 70
128
  0
VERTEX
  8
ACEPLANT
 10
371.4
 20
367.4
 30
0.0
 70
0
  0
VERTEX
  8
ACEPLANT
 10
372.9
 20
368.7
 30
0.0
 70
0
  0
VERTEX
  8
ACEPLANT
 10
371.0
 20
368.0
 30
0.0
 70
0
  0
SEQEND
  8
0
  0
POLYLINE
  8
ACEPLANT
 62
7
 66
1
 10
0.0
 20
0.0
 30
0.0
 70
128
  0
VERTEX
  8
ACEPLANT
 10
372.9
 20
368.7
 30
0.0
 70
0
  0
VERTEX
  8
ACEPLANT
 10
317.1
 20
336.5
 30
0.0
 70
0
  0
SEQEND
  8
0
  0
TEXT
  8
ACEPLANT
 62
2
 10
309.727
 20
330.804
 30
0.0
 40
3.0
  1
3206
 50
30.0
  7
ARIAL
 41
0.86
  0
TEXT
  8
ACEPLANT
 62
2
 10
388.4
 20
355.4
 30
0.0
 40
3.0
  1
110022-13610-045-G-001
  7
ARIAL
 41
0.86
  0
POLYLINE
  8
ACEPLANT
 62
4
 66
1
 10
0.0
 20
0.0
 30
0.0
 70
128
  0
VERTEX
  8
ACEPLANT
 10
386.5
 20
356.9
 30
0.0
 70
0
  0
VERTEX
  8
ACEPLANT
 10
387.9
 20
358.9
 30
0.0
 70
0
  0
VERTEX
  8
ACEPLANT
 10
433.8
 20
358.9
 30
0.0
 70
0
  0
VERTEX
  8
ACEPLANT
 10
435.2
 20
356.9
 30
0.0
 70
0
  0
VERTEX
  8
ACEPLANT
 10
433.8
 20
354.9
 30
0.0
 70
0
  0
VERTEX
  8
ACEPLANT
 10
387.9
 20
354.9
 30
0.0
 70
0
  0
VERTEX
  8
ACEPLANT
 10
386.5
 20
356.9
 30
0.0
 70
0
  0
SEQEND
  8
0
  0
TEXT
  8
ACEPLANT
 62
2
 10
399.321
 20
375.584
 30
0.0
 40
3.0
  1
<2>
 50
30.0
  7
ARIAL
 41
0.86
  0
TEXT
  8
ACEPLANT
 62
2
 10
406.388
 20
379.664
 30
0.0
 40
3.0
  1
1
 50
30.0
  7
ARIAL
 41
0.86
  0
POLYLINE
  8
ACEPLANT
 62
7
 66
1
 10
0.0
 20
0.0
 30
0.0
 70
128
  0
VERTEX
  8
ACEPLANT
 10
404.2
 20
382.4
 30
0.0
 70
0
  0
VERTEX
  8
ACEPLANT
 10
406.8
 20
384.0
 30
0.0
 70
0
  0
VERTEX
  8
ACEPLANT
 10
408.8
 20
380.5
 30
0.0
 70
0
  0
VERTEX
  8
ACEPLANT
 10
406.2
 20
379.0
 30
0.0
 70
0
  0
VERTEX
  8
ACEPLANT
 10
404.2
 20
382.4
 30
0.0
 70
0
  0
SEQEND
  8
0
  0
TEXT
  8
ACEPLANT
 62
2
 10
420.96405288290043
 20
392.93752158842807
 30
0.0
 40
3.0
  1
5
  7
ARIAL
 41
0.86
  0
POLYLINE
  8
ACEPLANT
 66
1
 10
0.0
 20
0.0
 30
0.0
 70
128
  0
VERTEX
  8
ACEPLANT
 10
437.4
 20
393.7
 30
0.0
 70
0
  0
VERTEX
  8
ACEPLANT
 10
436.1
 20
395.2
 30
0.0
 70
0
  0
VERTEX
  8
ACEPLANT
 10
436.8
 20
393.3
 30
0.0
 70
0
  0
SEQEND
  8
0
  0
POLYLINE
  8
ACEPLANT
 62
7
 66
1
 10
0.0
 20
0.0
 30
0.0
 70
128
  0
VERTEX
  8
ACEPLANT
 10
436.1
 20
395.2
 30
0.0
 70
0
  0
VERTEX
  8
ACEPLANT
 10
438.6
 20
390.9
 30
0.0
 70
0
  0
SEQEND
  8
0
  0
TEXT
  8
ACEPLANT
 62
2
 10
439.1
 20
391.4
 30
0.0
 40
3.0
  1
2
  7
ARIAL
 41
0.86
  0
POLYLINE
  8
ACEPLANT
 62
7
 66
1
 10
0.0
 20
0.0
 30
0.0
 70
128
  0
VERTEX
  8
ACEPLANT
 10
438.6
 20
394.9
 30
0.0
 70
0
  0
VERTEX
  8
ACEPLANT
 10
441.6
 20
394.9
 30
0.0
 70
0
  0
VERTEX
  8
ACEPLANT
 10
441.6
 20
390.9
 30
0.0
 70
0
  0
VERTEX
  8
ACEPLANT
 10
438.6
 20
390.9
 30
0.0
 70
0
  0
VERTEX
  8
ACEPLANT
 10
438.6
 20
394.9
 30
0.0
 70
0
  0
SEQEND
  8
0
  0
POLYLINE
  8
ACEPLANT
 62
7
 66
1
 10
0.0
 20
0.0
 30
0.0
 70
128
  0
VERTEX
  8
ACEPLANT
 10
257.6
 20
296.1
 30
0.0
 70
0
  0
VERTEX
  8
ACEPLANT
 10
247.1
 20
302.2
 30
0.0
 70
0
  0
SEQEND
  8
0
  0
POLYLINE
  8
ACEPLANT
 62
7
 66
1
 10
0.0
 20
0.0
 30
0.0
 70
128
  0
VERTEX
  8
ACEPLANT
 10
249.6
 20
302.9
 30
0.0
 70
0
  0
VERTEX
  8
ACEPLANT
 10
248.1
 20
301.6
 30
0.0
 70
0
  0
VERTEX
  8
ACEPLANT
 10
250.0
 20
302.3
 30
0.0
 70
0
  0
SEQEND
  8
0
  0
POLYLINE
  8
ACEPLANT
 62
7
 66
1
 10
0.0
 20
0.0
 30
0.0
 70
128
  0
VERTEX
  8
ACEPLANT
 10
248.1
 20
301.6
 30
0.0
 70
0
  0
VERTEX
  8
ACEPLANT
 10
332.0
 20
350.1
 30
0.0
 70
0
  0
SEQEND
  8
0
  0
POLYLINE
  8
ACEPLANT
 62
7
 66
1
 10
0.0
 20
0.0
 30
0.0
 70
128
  0
VERTEX
  8
ACEPLANT
 10
432.6
 20
397.2
 30
0.0
 70
0
  0
VERTEX
  8
ACEPLANT
 10
422.1
 20
403.3
 30
0.0
 70
0
  0
SEQEND
  8
0
  0
POLYLINE
  8
ACEPLANT
 66
1
 10
0.0
 20
0.0
 30
0.0
 70
128
  0
VERTEX
  8
ACEPLANT
 10
421.6
 20
401.4
 30
0.0
 70
0
  0
VERTEX
  8
ACEPLANT
 10
423.1
 20
402.7
 30
0.0
 70
0
  0
VERTEX
  8
ACEPLANT
 10
421.2
 20
402.0
 30
0.0
 70
0
  0
SEQEND
  8
0
  0
POLYLINE
  8
ACEPLANT
 62
7
 66
1
 10
0.0
 20
0.0
 30
0.0
 70
128
  0
VERTEX
  8
ACEPLANT
 10
423.1
 20
402.7
 30
0.0
 70
0
  0
VERTEX
  8
ACEPLANT
 10
340.1
 20
354.7
 30
0.0
 70
0
  0
SEQEND
  8
0
  0
TEXT
  8
ACEPLANT
 62
2
 10
332.647
 20
349.054
 30
0.0
 40
3.0
  1
4728
 50
30.0
  7
ARIAL
 41
0.86
  0
POLYLINE
  8
ACEPLANT
 62
7
 66
1
 10
0.0
 20
0.0
 30
0.0
 70
128
  0
VERTEX
  8
ACEPLANT
 10
248.9
 20
291.1
 30
0.0
 70
0
  0
VERTEX
  8
ACEPLANT
 10
234.0
 20
299.7
 30
0.0
 70
0
  0
SEQEND
  8
0
  0
POLYLINE
  8
ACEPLANT
 66
1
 10
0.0
 20
0.0
 30
0.0
 70
128
  0
VERTEX
  8
ACEPLANT
 10
236.6
 20
300.4
 30
0.0
 70
0
  0
VERTEX
  8
ACEPLANT
 10
235.1
 20
299.1
 30
0.0
 70
0
  0
VERTEX
  8
ACEPLANT
 10
237.0
 20
299.8
 30
0.0
 70
0
  0
SEQEND
  8
0
  0
POLYLINE
  8
ACEPLANT
 62
7
 66
1
 10
0.0
 20
0.0
 30
0.0
 70
128
  0
VERTEX
  8
ACEPLANT
 10
235.1
 20
299.1
 30
0.0
 70
0
  0
VERTEX
  8
ACEPLANT
 10
323.4
 20
350.1
 30
0.0
 70
0
  0
SEQEND
  8
0
  0
POLYLINE
  8
ACEPLANT
 62
7
 66
1
 10
0.0
 20
0.0
 30
0.0
 70
128
  0
VERTEX
  8
ACEPLANT
 10
432.6
 20
397.2
 30
0.0
 70
0
  0
VERTEX
  8
ACEPLANT
 10
417.7
 20
405.8
 30
0.0
 70
0
  0
SEQEND
  8
0
  0
POLYLINE
  8
ACEPLANT
 66
1
 10
0.0
 20
0.0
 30
0.0
 70
128
  0
VERTEX
  8
ACEPLANT
 10
417.3
 20
403.9
 30
0.0
 70
0
  0
VERTEX
  8
ACEPLANT
 10
418.8
 20
405.2
 30
0.0
 70
0
  0
VERTEX
  8
ACEPLANT
 10
416.9
 20
404.5
 30
0.0
 70
0
  0
SEQEND
  8
0
  0
POLYLINE
  8
ACEPLANT
 62
7
 66
1
 10
0.0
 20
0.0
 30
0.0
 70
128
  0
VERTEX
  8
ACEPLANT
 10
418.8
 20
405.2
 30
0.0
 70
0
  0
VERTEX
  8
ACEPLANT
 10
331.4
 20
354.7
 30
0.0
 70
0
  0
SEQEND
  8
0
  0
TEXT
  8
ACEPLANT
 62
2
 10
323.966
 20
349.054
 30
0.0
 40
3.0
  1
5185
 50
30.0
  7
ARIAL
 41
0.86
  0
TEXT
  8
ACEPLANT
 62
2
 10
432.4482700004998
 20
401.7840787101846
 30
0.0
 40
3.0
  1
6
  7
ARIAL
 41
0.86
  0
TEXT
  8
ACEPLANT
 62
2
 10
401.971
 20
416.527
 30
0.0
 40
3.0
  1
<3>
 50
-30.0
  7
ARIAL
 41
0.86
  0
TEXT
  8
ACEPLANT
 62
2
 10
409.038
 20
412.447
 30
0.0
 40
3.0
  1
1
 50
-30.0
  7
ARIAL
 41
0.86
  0
POLYLINE
  8
ACEPLANT
 62
7
 66
1
 10
0.0
 20
0.0
 30
0.0
 70
128
  0
VERTEX
  8
ACEPLANT
 10
410.4
 20
415.7
 30
0.0
 70
0
  0
VERTEX
  8
ACEPLANT
 10
413.0
 20
414.2
 30
0.0
 70
0
  0
VERTEX
  8
ACEPLANT
 10
411.0
 20
410.8
 30
0.0
 70
0
  0
VERTEX
  8
ACEPLANT
 10
408.4
 20
412.3
 30
0.0
 70
0
  0
VERTEX
  8
ACEPLANT
 10
410.4
 20
415.7
 30
0.0
 70
0
  0
SEQEND
  8
0
  0
POLYLINE
  8
ACEPLANT
 62
7
 66
1
 10
0.0
 20
0.0
 30
0.0
 70
128
  0
VERTEX
  8
ACEPLANT
 10
439.6
 20
397.2
 30
0.0
 70
0
  0
VERTEX
  8
ACEPLANT
 10
450.1
 20
403.3
 30
0.0
 70
0
  0
SEQEND
  8
0
  0
POLYLINE
  8
ACEPLANT
 66
1
 10
0.0
 20
0.0
 30
0.0
 70
128
  0
VERTEX
  8
ACEPLANT
 10
447.2
 20
403.4
 30
0.0
 70
0
  0
VERTEX
  8
ACEPLANT
 10
449.1
 20
402.7
 30
0.0
 70
0
  0
VERTEX
  8
ACEPLANT
 10
447.6
 20
404.0
 30
0.0
 70
0
  0
SEQEND
  8
0
  0
POLYLINE
  8
ACEPLANT
 62
7
 66
1
 10
0.0
 20
0.0
 30
0.0
 70
128
  0
VERTEX
  8
ACEPLANT
 10
449.1
 20
402.7
 30
0.0
 70
0
  0
VERTEX
  8
ACEPLANT
 10
427.5
 20
415.1
 30
0.0
 70
0
  0
SEQEND
  8
0
  0
POLYLINE
  8
ACEPLANT
 62
7
 66
1
 10
0.0
 20
0.0
 30
0.0
 70
128
  0
VERTEX
  8
ACEPLANT
 10
387.6
 20
427.2
 30
0.0
 70
0
  0
VERTEX
  8
ACEPLANT
 10
398.1
 20
433.3
 30
0.0
 70
0
  0
SEQEND
  8
0
  0
POLYLINE
  8
ACEPLANT
 62
7
 66
1
 10
0.0
 20
0.0
 30
0.0
 70
128
  0
VERTEX
  8
ACEPLANT
 10
399.0
 20
432.0
 30
0.0
 70
0
  0
VERTEX
  8
ACEPLANT
 10
397.1
 20
432.7
 30
0.0
 70
0
  0
VERTEX
  8
ACEPLANT
 10
398.6
 20
431.4
 30
0.0
 70
0
  0
SEQEND
  8
0
  0
POLYLINE
  8
ACEPLANT
 62
7
 66
1
 10
0.0
 20
0.0
 30
0.0
 70
128
  0
VERTEX
  8
ACEPLANT
 10
397.1
 20
432.7
 30
0.0
 70
0
  0
VERTEX
  8
ACEPLANT
 10
419.5
 20
419.8
 30
0.0
 70
0
  0
SEQEND
  8
0
  0
TEXT
  8
ACEPLANT
 62
2
 10
418.927
 20
418.718
 30
0.0
 40
3.0
  1
1623
 50
-30.0
  7
ARIAL
 41
0.86
  0
POLYLINE
  8
ACEPLANT
 62
7
 66
1
 10
0.0
 20
0.0
 30
0.0
 70
128
  0
VERTEX
  8
ACEPLANT
 10
383.7
 20
423.0
 30
0.0
 70
0
  0
VERTEX
  8
ACEPLANT
 10
383.7
 20
427.8
 30
0.0
 70
0
  0
SEQEND
  8
0
  0
POLYLINE
  8
ACEPLANT
 62
7
 66
1
 10
0.0
 20
0.0
 30
0.0
 70
128
  0
VERTEX
  8
ACEPLANT
 10
387.8
 20
425.4
 30
0.0
 70
0
  0
VERTEX
  8
ACEPLANT
 10
379.5
 20
425.4
 30
0.0
 70
0
  0
SEQEND
  8
0
  0
TEXT
  8
ACEPLANT
 62
2
 10
385.42891587370104
 20
430.23625503006224
 30
0.0
 40
3.0
  1
7
  7
ARIAL
 41
0.86
  0
POLYLINE
  8
ACEPLANT
 66
1
 10
0.0
 20
0.0
 30
0.0
 70
128
  0
VERTEX
  8
ACEPLANT
 10
374.1
 20
428.7
 30
0.0
 70
0
  0
VERTEX
  8
ACEPLANT
 10
375.4
 20
430.2
 30
0.0
 70
0
  0
VERTEX
  8
ACEPLANT
 10
373.7
 20
429.2
 30
0.0
 70
0
  0
SEQEND
  8
0
  0
POLYLINE
  8
ACEPLANT
 62
7
 66
1
 10
0.0
 20
0.0
 30
0.0
 70
128
  0
VERTEX
  8
ACEPLANT
 10
375.4
 20
430.2
 30
0.0
 70
0
  0
VERTEX
  8
ACEPLANT
 10
371.6
 20
427.0
 30
0.0
 70
0
  0
SEQEND
  8
0
  0
TEXT
  8
ACEPLANT
 62
2
 10
369.043
 20
427.5
 30
0.0
 40
3.0
  1
2
  7
ARIAL
 41
0.86
  0
POLYLINE
  8
ACEPLANT
 62
7
 66
1
 10
0.0
 20
0.0
 30
0.0
 70
128
  0
VERTEX
  8
ACEPLANT
 10
368.5
 20
431.0
 30
0.0
 70
0
  0
VERTEX
  8
ACEPLANT
 10
371.5
 20
431.0
 30
0.0
 70
0
  0
VERTEX
  8
ACEPLANT
 10
371.5
 20
427.0
 30
0.0
 70
0
  0
VERTEX
  8
ACEPLANT
 10
368.5
 20
427.0
 30
0.0
 70
0
  0
VERTEX
  8
ACEPLANT
 10
368.5
 20
431.0
 30
0.0
 70
0
  0
SEQEND
  8
0
  0
POLYLINE
  8
ACEPLANT
 62
7
 66
1
 10
0.0
 20
0.0
 30
0.0
 70
128
  0
VERTEX
  8
ACEPLANT
 10
387.6
 20
427.2
 30
0.0
 70
0
  0
VERTEX
  8
ACEPLANT
 10
398.1
 20
433.3
 30
0.0
 70
0
  0
SEQEND
  8
0
  0
POLYLINE
  8
ACEPLANT
 62
7
 66
1
 10
0.0
 20
0.0
 30
0.0
 70
128
  0
VERTEX
  8
ACEPLANT
 10
395.2
 20
433.4
 30
0.0
 70
0
  0
VERTEX
  8
ACEPLANT
 10
397.1
 20
432.7
 30
0.0
 70
0
  0
VERTEX
  8
ACEPLANT
 10
395.6
 20
434.0
 30
0.0
 70
0
  0
SEQEND
  8
0
  0
POLYLINE
  8
ACEPLANT
 62
7
 66
1
 10
0.0
 20
0.0
 30
0.0
 70
128
  0
VERTEX
  8
ACEPLANT
 10
397.1
 20
432.7
 30
0.0
 70
0
  0
VERTEX
  8
ACEPLANT
 10
392.7
 20
435.2
 30
0.0
 70
0
  0
SEQEND
  8
0
  0
POLYLINE
  8
ACEPLANT
 62
7
 66
1
 10
0.0
 20
0.0
 30
0.0
 70
128
  0
VERTEX
  8
ACEPLANT
 10
378.9
 20
432.2
 30
0.0
 70
0
  0
VERTEX
  8
ACEPLANT
 10
389.4
 20
438.3
 30
0.0
 70
0
  0
SEQEND
  8
0
  0
POLYLINE
  8
ACEPLANT
 62
7
 66
1
 10
0.0
 20
0.0
 30
0.0
 70
128
  0
VERTEX
  8
ACEPLANT
 10
390.3
 20
437.0
 30
0.0
 70
0
  0
VERTEX
  8
ACEPLANT
 10
388.4
 20
437.7
 30
0.0
 70
0
  0
VERTEX
  8
ACEPLANT
 10
389.9
 20
436.4
 30
0.0
 70
0
  0
SEQEND
  8
0
  0
POLYLINE
  8
ACEPLANT
 62
7
 66
1
 10
0.0
 20
0.0
 30
0.0
 70
128
  0
VERTEX
  8
ACEPLANT
 10
388.4
 20
437.7
 30
0.0
 70
0
  0
VERTEX
  8
ACEPLANT
 10
392.7
 20
435.2
 30
0.0
 70
0
  0
SEQEND
  8
0
  0
TEXT
  8
ACEPLANT
 62
2
 10
390.05492193860226
 20
437.81092977527555
 30
0.0
 40
3.0
  1
457
 50
330.3955492539953
  7
ARIAL
 41
0.86
  0
POLYLINE
  8
ACEPLANT
 62
7
 66
1
 10
0.0
 20
0.0
 30
0.0
 70
128
  0
VERTEX
  8
ACEPLANT
 10
439.6
 20
397.2
 30
0.0
 70
0
  0
VERTEX
  8
ACEPLANT
 10
454.5
 20
405.8
 30
0.0
 70
0
  0
SEQEND
  8
0
  0
POLYLINE
  8
ACEPLANT
 66
1
 10
0.0
 20
0.0
 30
0.0
 70
128
  0
VERTEX
  8
ACEPLANT
 10
451.5
 20
405.9
 30
0.0
 70
0
  0
VERTEX
  8
ACEPLANT
 10
453.4
 20
405.2
 30
0.0
 70
0
  0
VERTEX
  8
ACEPLANT
 10
451.9
 20
406.5
 30
0.0
 70
0
  0
SEQEND
  8
0
  0
POLYLINE
  8
ACEPLANT
 62
7
 66
1
 10
0.0
 20
0.0
 30
0.0
 70
128
  0
VERTEX
  8
ACEPLANT
 10
453.4
 20
405.2
 30
0.0
 70
0
  0
VERTEX
  8
ACEPLANT
 10
427.5
 20
420.1
 30
0.0
 70
0
  0
SEQEND
  8
0
  0
POLYLINE
  8
ACEPLANT
 62
7
 66
1
 10
0.0
 20
0.0
 30
0.0
 70
128
  0
VERTEX
  8
ACEPLANT
 10
378.9
 20
432.2
 30
0.0
 70
0
  0
VERTEX
  8
ACEPLANT
 10
393.8
 20
440.8
 30
0.0
 70
0
  0
SEQEND
  8
0
  0
POLYLINE
  8
ACEPLANT
 66
1
 10
0.0
 20
0.0
 30
0.0
 70
128
  0
VERTEX
  8
ACEPLANT
 10
394.6
 20
439.5
 30
0.0
 70
0
  0
VERTEX
  8
ACEPLANT
 10
392.7
 20
440.2
 30
0.0
 70
0
  0
VERTEX
  8
ACEPLANT
 10
394.2
 20
438.9
 30
0.0
 70
0
  0
SEQEND
  8
0
  0
POLYLINE
  8
ACEPLANT
 62
7
 66
1
 10
0.0
 20
0.0
 30
0.0
 70
128
  0
VERTEX
  8
ACEPLANT
 10
392.7
 20
440.2
 30
0.0
 70
0
  0
VERTEX
  8
ACEPLANT
 10
419.5
 20
424.8
 30
0.0
 70
0
  0
SEQEND
  8
0
  0
TEXT
  8
ACEPLANT
 62
2
 10
418.907
 20
423.718
 30
0.0
 40
3.0
  1
2080
 50
-30.0
  7
ARIAL
 41
0.86
  0
POLYLINE
  8
ACEPLANT
 66
1
 10
0.0
 20
0.0
 30
0.0
 70
128
  0
VERTEX
  8
ACEPLANT
 10
373.4
 20
434.9
 30
0.0
 70
0
  0
VERTEX
  8
ACEPLANT
 10
375.4
 20
435.2
 30
0.0
 70
0
  0
VERTEX
  8
ACEPLANT
 10
373.4
 20
435.5
 30
0.0
 70
0
  0
SEQEND
  8
0
  0
POLYLINE
  8
ACEPLANT
 62
7
 66
1
 10
0.0
 20
0.0
 30
0.0
 70
128
  0
VERTEX
  8
ACEPLANT
 10
375.4
 20
435.2
 30
0.0
 70
0
  0
VERTEX
  8
ACEPLANT
 10
362.4
 20
435.2
 30
0.0
 70
0
  0
SEQEND
  8
0
  0
TEXT
  8
ACEPLANT
 62
2
 10
318.7
 20
435.7
 30
0.0
 40
3.0
  1
110022-13610-045-S003
  7
ARIAL
 41
0.86
  0
POLYLINE
  8
ACEPLANT
 62
7
 66
1
 10
0.0
 20
0.0
 30
0.0
 70
128
  0
VERTEX
  8
ACEPLANT
 10
318.2
 20
439.2
 30
0.0
 70
0
  0
VERTEX
  8
ACEPLANT
 10
362.0
 20
439.2
 30
0.0
 70
0
  0
VERTEX
  8
ACEPLANT
 10
362.0
 20
435.2
 30
0.0
 70
0
  0
VERTEX
  8
ACEPLANT
 10
318.2
 20
435.2
 30
0.0
 70
0
  0
VERTEX
  8
ACEPLANT
 10
318.2
 20
439.2
 30
0.0
 70
0
  0
SEQEND
  8
0
  0
POLYLINE
  8
ACEPLANT
 62
7
 66
1
 10
0.0
 20
0.0
 30
0.0
 70
128
  0
VERTEX
  8
ACEPLANT
 10
317.2
 20
440.2
 30
0.0
 70
0
  0
VERTEX
  8
ACEPLANT
 10
363.0
 20
440.2
 30
0.0
 70
0
  0
VERTEX
  8
ACEPLANT
 10
363.0
 20
434.2
 30
0.0
 70
0
  0
VERTEX
  8
ACEPLANT
 10
317.2
 20
434.2
 30
0.0
 70
0
  0
VERTEX
  8
ACEPLANT
 10
317.2
 20
440.2
 30
0.0
 70
0
  0
SEQEND
  8
0
  0
TEXT
  8
ACEPLANT
 62
2
 10
367.28430068077085
 20
438.2281731681172
 30
0.0
 40
3.0
  1
8
  7
ARIAL
 41
0.86
  0
TEXT
  8
ACEPLANT
 62
2
 10
373.95
 20
476.857
 30
0.0
 40
3.0
  1
<4>
 50
90.0
  7
ARIAL
 41
0.86
  0
TEXT
  8
ACEPLANT
 62
2
 10
373.95
 20
485.017
 30
0.0
 40
3.0
  1
1
 50
90.0
  7
ARIAL
 41
0.86
  0
POLYLINE
  8
ACEPLANT
 62
7
 66
1
 10
0.0
 20
0.0
 30
0.0
 70
128
  0
VERTEX
  8
ACEPLANT
 10
370.5
 20
484.5
 30
0.0
 70
0
  0
VERTEX
  8
ACEPLANT
 10
370.5
 20
487.6
 30
0.0
 70
0
  0
VERTEX
  8
ACEPLANT
 10
374.4
 20
487.6
 30
0.0
 70
0
  0
VERTEX
  8
ACEPLANT
 10
374.4
 20
484.5
 30
0.0
 70
0
  0
VERTEX
  8
ACEPLANT
 10
370.5
 20
484.5
 30
0.0
 70
0
  0
SEQEND
  8
0
  0
POLYLINE
  8
ACEPLANT
 62
7
 66
1
 10
0.0
 20
0.0
 30
0.0
 70
128
  0
VERTEX
  8
ACEPLANT
 10
378.9
 20
432.2
 30
0.0
 70
0
  0
VERTEX
  8
ACEPLANT
 10
389.4
 20
438.3
 30
0.0
 70
0
  0
SEQEND
  8
0
  0
POLYLINE
  8
ACEPLANT
 62
7
 66
1
 10
0.0
 20
0.0
 30
0.0
 70
128
  0
VERTEX
  8
ACEPLANT
 10
388.1
 20
439.7
 30
0.0
 70
0
  0
VERTEX
  8
ACEPLANT
 10
388.4
 20
437.7
 30
0.0
 70
0
  0
VERTEX
  8
ACEPLANT
 10
388.7
 20
439.7
 30
0.0
 70
0
  0
SEQEND
  8
0
  0
POLYLINE
  8
ACEPLANT
 62
7
 66
1
 10
0.0
 20
0.0
 30
0.0
 70
128
  0
VERTEX
  8
ACEPLANT
 10
388.4
 20
437.7
 30
0.0
 70
0
  0
VERTEX
  8
ACEPLANT
 10
388.4
 20
480.4
 30
0.0
 70
0
  0
SEQEND
  8
0
  0
POLYLINE
  8
ACEPLANT
 62
7
 66
1
 10
0.0
 20
0.0
 30
0.0
 70
128
  0
VERTEX
  8
ACEPLANT
 10
378.9
 20
525.8
 30
0.0
 70
0
  0
VERTEX
  8
ACEPLANT
 10
389.4
 20
531.9
 30
0.0
 70
0
  0
SEQEND
  8
0
  0
POLYLINE
  8
ACEPLANT
 66
1
 10
0.0
 20
0.0
 30
0.0
 70
128
  0
VERTEX
  8
ACEPLANT
 10
388.7
 20
529.3
 30
0.0
 70
0
  0
VERTEX
  8
ACEPLANT
 10
388.4
 20
531.3
 30
0.0
 70
0
  0
VERTEX
  8
ACEPLANT
 10
388.1
 20
529.3
 30
0.0
 70
0
  0
SEQEND
  8
0
  0
POLYLINE
  8
ACEPLANT
 62
7
 66
1
 10
0.0
 20
0.0
 30
0.0
 70
128
  0
VERTEX
  8
ACEPLANT
 10
388.4
 20
531.3
 30
0.0
 70
0
  0
VERTEX
  8
ACEPLANT
 10
388.4
 20
489.6
 30
0.0
 70
0
  0
SEQEND
  8
0
  0
TEXT
  8
ACEPLANT
 62
2
 10
389.59
 20
480.386
 30
0.0
 40
3.0
  1
2457
 50
90.0
  7
ARIAL
 41
0.86
  0
POLYLINE
  8
ACEPLANT
 62
7
 66
1
 10
0.0
 20
0.0
 30
0.0
 70
128
  0
VERTEX
  8
ACEPLANT
 10
373.3
 20
520.7
 30
0.0
 70
0
  0
VERTEX
  8
ACEPLANT
 10
377.5
 20
527.9
 30
0.0
 70
0
  0
SEQEND
  8
0
  0
POLYLINE
  8
ACEPLANT
 62
7
 66
1
 10
0.0
 20
0.0
 30
0.0
 70
128
  0
VERTEX
  8
ACEPLANT
 10
377.5
 20
523.1
 30
0.0
 70
0
  0
VERTEX
  8
ACEPLANT
 10
373.3
 20
525.5
 30
0.0
 70
0
  0
SEQEND
  8
0
  0
TEXT
  8
ACEPLANT
 62
2
 10
367.24113689137016
 20
522.3530953415324
 30
0.0
 40
3.0
  1
9
  7
ARIAL
 41
0.86
  0
POLYLINE
  8
ACEPLANT
 62
7
 66
1
 10
0.0
 20
0.0
 30
0.0
 70
128
  0
VERTEX
  8
ACEPLANT
 10
375.4
 20
523.8
 30
0.0
 70
0
  0
VERTEX
  8
ACEPLANT
 10
373.7
 20
522.8
 30
0.0
 70
0
  0
VERTEX
  8
ACEPLANT
 10
375.4
 20
531.8
 30
0.0
 70
0
  0
VERTEX
  8
ACEPLANT
 10
377.1
 20
524.8
 30
0.0
 70
0
  0
VERTEX
  8
ACEPLANT
 10
375.4
 20
523.8
 30
0.0
 70
0
  0
SEQEND
  8
0
  0
POLYLINE
  8
ACEPLANT
 66
1
 10
0.0
 20
0.0
 30
0.0
 70
128
  0
VERTEX
  8
ACEPLANT
 10
371.7
 20
527.1
 30
0.0
 70
0
  0
VERTEX
  8
ACEPLANT
 10
373.7
 20
526.8
 30
0.0
 70
0
  0
VERTEX
  8
ACEPLANT
 10
372.0
 20
527.8
 30
0.0
 70
0
  0
SEQEND
  8
0
  0
POLYLINE
  8
ACEPLANT
 62
7
 66
1
 10
0.0
 20
0.0
 30
0.0
 70
128
  0
VERTEX
  8
ACEPLANT
 10
373.7
 20
526.8
 30
0.0
 70
0
  0
VERTEX
  8
ACEPLANT
 10
361.5
 20
531.2
 30
0.0
 70
0
  0
SEQEND
  8
0
  0
TEXT
  8
ACEPLANT
 62
2
 10
348.657
 20
531.7
 30
0.0
 40
3.0
  1
367 MM
  7
ARIAL
 41
0.86
  0
POLYLINE
  8
ACEPLANT
 62
4
 66
1
 10
0.0
 20
0.0
 30
0.0
 70
128
  0
VERTEX
  8
ACEPLANT
 10
377.1
 20
528.8
 30
0.0
 70
0
  0
VERTEX
  8
ACEPLANT
 10
393.1
 20
534.6
 30
0.0
 70
0
  0
SEQEND
  8
0
  0
TEXT
  8
ACEPLANT
 62
2
 10
395.314
 20
536.814
 30
0.0
 40
3.0
  1
2
  7
ARIAL
 41
0.86
  0
TEXT
  8
ACEPLANT
 62
2
 10
395.314
 20
532.814
 30
0.0
 40
3.0
  1
HP
  7
ARIAL
 41
0.86
  0
TEXT
  8
ACEPLANT
 62
2
 10
395.314
 20
528.814
 30
0.0
 40
3.0
  1
FV-001
  7
ARIAL
 41
0.86
  0
TEXT
  8
ACEPLANT
 62
2
 10
395.314
 20
523.814
 30
0.0
 40
3.0
  1
4
  7
ARIAL
 41
0.86
  0
POLYLINE
  8
ACEPLANT
 62
7
 66
1
 10
0.0
 20
0.0
 30
0.0
 70
128
  0
VERTEX
  8
ACEPLANT
 10
394.8
 20
527.3
 30
0.0
 70
0
  0
VERTEX
  8
ACEPLANT
 10
397.9
 20
527.3
 30
0.0
 70
0
  0
VERTEX
  8
ACEPLANT
 10
397.9
 20
523.3
 30
0.0
 70
0
  0
VERTEX
  8
ACEPLANT
 10
394.8
 20
523.3
 30
0.0
 70
0
  0
VERTEX
  8
ACEPLANT
 10
394.8
 20
527.3
 30
0.0
 70
0
  0
SEQEND
  8
0
  0
POLYLINE
  8
ACEPLANT
 62
2
 66
1
 10
0.0
 20
0.0
 30
0.0
 70
128
  0
VERTEX
  8
ACEPLANT
 10
375.4
 20
531.8
 30
0.0
 70
0
  0
VERTEX
  8
ACEPLANT
 10
377.4
 20
530.7
 30
0.0
 70
0
  0
VERTEX
  8
ACEPLANT
 10
377.4
 20
528.7
 30
0.0
 70
0
  0
VERTEX
  8
ACEPLANT
 10
378.5
 20
528.4
 30
0.0
 70
0
  0
VERTEX
  8
ACEPLANT
 10
379.0
 20
529.3
 30
0.0
 70
0
  0
VERTEX
  8
ACEPLANT
 10
379.0
 20
530.1
 30
0.0
 70
0
  0
VERTEX
  8
ACEPLANT
 10
378.5
 20
531.6
 30
0.0
 70
0
  0
VERTEX
  8
ACEPLANT
 10
377.4
 20
532.7
 30
0.0
 70
0
  0
VERTEX
  8
ACEPLANT
 10
377.4
 20
530.7
 30
0.0
 70
0
  0
SEQEND
  8
0
  0
POLYLINE
  8
ACEPLANT
 62
7
 66
1
 10
0.0
 20
0.0
 30
0.0
 70
128
  0
VERTEX
  8
ACEPLANT
 10
375.4
 20
531.8
 30
0.0
 70
0
  0
VERTEX
  8
ACEPLANT
 10
368.5
 20
533.8
 30
0.0
 70
0
  0
VERTEX
  8
ACEPLANT
 10
368.5
 20
537.8
 30
0.0
 70
0
  0
VERTEX
  8
ACEPLANT
 10
375.4
 20
531.8
 30
0.0
 70
0
  0
SEQEND
  8
0
  0
POLYLINE
  8
ACEPLANT
 66
1
 10
0.0
 20
0.0
 30
0.0
 70
128
  0
VERTEX
  8
ACEPLANT
 10
373.9
 20
536.1
 30
0.0
 70
0
  0
VERTEX
  8
ACEPLANT
 10
371.9
 20
535.8
 30
0.0
 70
0
  0
VERTEX
  8
ACEPLANT
 10
373.9
 20
535.5
 30
0.0
 70
0
  0
SEQEND
  8
0
  0
POLYLINE
  8
ACEPLANT
 62
7
 66
1
 10
0.0
 20
0.0
 30
0.0
 70
128
  0
VERTEX
  8
ACEPLANT
 10
371.9
 20
535.8
 30
0.0
 70
0
  0
VERTEX
  8
ACEPLANT
 10
376.9
 20
535.8
 30
0.0
 70
0
  0
SEQEND
  8
0
  0
TEXT
  8
ACEPLANT
 62
2
 10
377.4
 20
536.3
 30
0.0
 40
3.0
  1
390 MM
  7
ARIAL
 41
0.86
  0
POLYLINE
  8
ACEPLANT
 62
7
 66
1
 10
0.0
 20
0.0
 30
0.0
 70
128
  0
VERTEX
  8
ACEPLANT
 10
370.2
 20
532.4
 30
0.0
 70
0
  0
VERTEX
  8
ACEPLANT
 10
366.0
 20
539.6
 30
0.0
 70
0
  0
SEQEND
  8
0
  0
POLYLINE
  8
ACEPLANT
 62
7
 66
1
 10
0.0
 20
0.0
 30
0.0
 70
128
  0
VERTEX
  8
ACEPLANT
 10
370.2
 20
537.2
 30
0.0
 70
0
  0
VERTEX
  8
ACEPLANT
 10
366.0
 20
534.8
 30
0.0
 70
0
  0
SEQEND
  8
0
  0
TEXT
  8
ACEPLANT
 62
2
 10
365.02893661360235
 20
527.4330694952595
 30
0.0
 40
3.0
  1
10
  7
ARIAL
 41
0.86
  0
TEXT
  8
ACEPLANT
 62
2
 10
345.571
 20
550.727
 30
0.0
 40
3.0
  1
<5>
 50
-30.0
  7
ARIAL
 41
0.86
  0
TEXT
  8
ACEPLANT
 62
2
 10
352.638
 20
546.647
 30
0.0
 40
3.0
  1
1
 50
-30.0
  7
ARIAL
 41
0.86
  0
POLYLINE
  8
ACEPLANT
 62
7
 66
1
 10
0.0
 20
0.0
 30
0.0
 70
128
  0
VERTEX
  8
ACEPLANT
 10
354.0
 20
549.9
 30
0.0
 70
0
  0
VERTEX
  8
ACEPLANT
 10
356.6
 20
548.4
 30
0.0
 70
0
  0
VERTEX
  8
ACEPLANT
 10
354.6
 20
545.0
 30
0.0
 70
0
  0
VERTEX
  8
ACEPLANT
 10
352.0
 20
546.5
 30
0.0
 70
0
  0
VERTEX
  8
ACEPLANT
 10
354.0
 20
549.9
 30
0.0
 70
0
  0
SEQEND
  8
0
  0
TEXT
  8
ACEPLANT
 62
2
 10
342.803
 20
545.933
 30
0.0
 40
3.0
  1
300DN
 50
-30.0
  7
ARIAL
 41
0.86
  0
POLYLINE
  8
ACEPLANT
 66
1
 10
0.0
 20
0.0
 30
0.0
 70
128
  0
VERTEX
  8
ACEPLANT
 10
341.4
 20
549.5
 30
0.0
 70
0
  0
VERTEX
  8
ACEPLANT
 10
341.4
 20
551.5
 30
0.0
 70
0
  0
VERTEX
  8
ACEPLANT
 10
340.7
 20
549.6
 30
0.0
 70
0
  0
SEQEND
  8
0
  0
POLYLINE
  8
ACEPLANT
 62
7
 66
1
 10
0.0
 20
0.0
 30
0.0
 70
128
  0
VERTEX
  8
ACEPLANT
 10
341.4
 20
551.5
 30
0.0
 70
0
  0
VERTEX
  8
ACEPLANT
 10
339.1
 20
538.7
 30
0.0
 70
0
  0
SEQEND
  8
0
  0
TEXT
  8
ACEPLANT
 62
2
 10
295.4
 20
539.2
 30
0.0
 40
3.0
  1
110022-13610-045-S004
  7
ARIAL
 41
0.86
  0
POLYLINE
  8
ACEPLANT
 62
7
 66
1
 10
0.0
 20
0.0
 30
0.0
 70
128
  0
VERTEX
  8
ACEPLANT
 10
294.9
 20
542.7
 30
0.0
 70
0
  0
VERTEX
  8
ACEPLANT
 10
338.7
 20
542.7
 30
0.0
 70
0
  0
VERTEX
  8
ACEPLANT
 10
338.7
 20
538.7
 30
0.0
 70
0
  0
VERTEX
  8
ACEPLANT
 10
294.9
 20
538.7
 30
0.0
 70
0
  0
VERTEX
  8
ACEPLANT
 10
294.9
 20
542.7
 30
0.0
 70
0
  0
SEQEND
  8
0
  0
POLYLINE
  8
ACEPLANT
 62
7
 66
1
 10
0.0
 20
0.0
 30
0.0
 70
128
  0
VERTEX
  8
ACEPLANT
 10
293.9
 20
543.7
 30
0.0
 70
0
  0
VERTEX
  8
ACEPLANT
 10
339.7
 20
543.7
 30
0.0
 70
0
  0
VERTEX
  8
ACEPLANT
 10
339.7
 20
537.7
 30
0.0
 70
0
  0
VERTEX
  8
ACEPLANT
 10
293.9
 20
537.7
 30
0.0
 70
0
  0
VERTEX
  8
ACEPLANT
 10
293.9
 20
543.7
 30
0.0
 70
0
  0
SEQEND
  8
0
  0
POLYLINE
  8
ACEPLANT
 62
7
 66
1
 10
0.0
 20
0.0
 30
0.0
 70
128
  0
VERTEX
  8
ACEPLANT
 10
368.5
 20
539.8
 30
0.0
 70
0
  0
VERTEX
  8
ACEPLANT
 10
368.5
 20
552.0
 30
0.0
 70
0
  0
SEQEND
  8
0
  0
POLYLINE
  8
ACEPLANT
 66
1
 10
0.0
 20
0.0
 30
0.0
 70
128
  0
VERTEX
  8
ACEPLANT
 10
366.6
 20
551.5
 30
0.0
 70
0
  0
VERTEX
  8
ACEPLANT
 10
368.5
 20
550.8
 30
0.0
 70
0
  0
VERTEX
  8
ACEPLANT
 10
367.0
 20
552.1
 30
0.0
 70
0
  0
SEQEND
  8
0
  0
POLYLINE
  8
ACEPLANT
 62
7
 66
1
 10
0.0
 20
0.0
 30
0.0
 70
128
  0
VERTEX
  8
ACEPLANT
 10
368.5
 20
550.8
 30
0.0
 70
0
  0
VERTEX
  8
ACEPLANT
 10
353.8
 20
559.3
 30
0.0
 70
0
  0
SEQEND
  8
0
  0
POLYLINE
  8
ACEPLANT
 62
7
 66
1
 10
0.0
 20
0.0
 30
0.0
 70
128
  0
VERTEX
  8
ACEPLANT
 10
330.1
 20
562.0
 30
0.0
 70
0
  0
VERTEX
  8
ACEPLANT
 10
330.1
 20
574.2
 30
0.0
 70
0
  0
SEQEND
  8
0
  0
POLYLINE
  8
ACEPLANT
 66
1
 10
0.0
 20
0.0
 30
0.0
 70
128
  0
VERTEX
  8
ACEPLANT
 10
332.0
 20
572.3
 30
0.0
 70
0
  0
VERTEX
  8
ACEPLANT
 10
330.1
 20
573.0
 30
0.0
 70
0
  0
VERTEX
  8
ACEPLANT
 10
331.6
 20
571.7
 30
0.0
 70
0
  0
SEQEND
  8
0
  0
POLYLINE
  8
ACEPLANT
 62
7
 66
1
 10
0.0
 20
0.0
 30
0.0
 70
128
  0
VERTEX
  8
ACEPLANT
 10
330.1
 20
573.0
 30
0.0
 70
0
  0
VERTEX
  8
ACEPLANT
 10
345.7
 20
564.0
 30
0.0
 70
0
  0
SEQEND
  8
0
  0
TEXT
  8
ACEPLANT
 62
2
 10
345.137
 20
562.918
 30
0.0
 40
3.0
  1
1000
 50
-30.0
  7
ARIAL
 41
0.86
  0
POLYLINE
  8
ACEPLANT
 62
7
 66
1
 10
0.0
 20
0.0
 30
0.0
 70
128
  0
VERTEX
  8
ACEPLANT
 10
331.8
 20
554.6
 30
0.0
 70
0
  0
VERTEX
  8
ACEPLANT
 10
327.6
 20
561.8
 30
0.0
 70
0
  0
SEQEND
  8
0
  0
POLYLINE
  8
ACEPLANT
 62
7
 66
1
 10
0.0
 20
0.0
 30
0.0
 70
128
  0
VERTEX
  8
ACEPLANT
 10
331.8
 20
559.4
 30
0.0
 70
0
  0
VERTEX
  8
ACEPLANT
 10
327.6
 20
557.0
 30
0.0
 70
0
  0
SEQEND
  8
0
  0
TEXT
  8
ACEPLANT
 62
2
 10
331.9908604896135
 20
562.0543140826016
 30
0.0
 40
3.0
  1
11
  7
ARIAL
 41
0.86
  0
POLYLINE
  8
ACEPLANT
 62
7
 66
1
 10
0.0
 20
0.0
 30
0.0
 70
128
  0
VERTEX
  8
ACEPLANT
 10
330.1
 20
558.0
 30
0.0
 70
0
  0
VERTEX
  8
ACEPLANT
 10
330.1
 20
556.0
 30
0.0
 70
0
  0
VERTEX
  8
ACEPLANT
 10
323.2
 20
562.0
 30
0.0
 70
0
  0
VERTEX
  8
ACEPLANT
 10
330.1
 20
560.0
 30
0.0
 70
0
  0
VERTEX
  8
ACEPLANT
 10
330.1
 20
558.0
 30
0.0
 70
0
  0
SEQEND
  8
0
  0
POLYLINE
  8
ACEPLANT
 66
1
 10
0.0
 20
0.0
 30
0.0
 70
128
  0
VERTEX
  8
ACEPLANT
 10
325.9
 20
563.9
 30
0.0
 70
0
  0
VERTEX
  8
ACEPLANT
 10
326.6
 20
562.0
 30
0.0
 70
0
  0
VERTEX
  8
ACEPLANT
 10
326.6
 20
564.0
 30
0.0
 70
0
  0
SEQEND
  8
0
  0
POLYLINE
  8
ACEPLANT
 62
7
 66
1
 10
0.0
 20
0.0
 30
0.0
 70
128
  0
VERTEX
  8
ACEPLANT
 10
326.6
 20
562.0
 30
0.0
 70
0
  0
VERTEX
  8
ACEPLANT
 10
325.7
 20
566.9
 30
0.0
 70
0
  0
SEQEND
  8
0
  0
TEXT
  8
ACEPLANT
 62
2
 10
312.857
 20
567.4
 30
0.0
 40
3.0
  1
410 MM
  7
ARIAL
 41
0.86
  0
POLYLINE
  8
ACEPLANT
 62
4
 66
1
 10
0.0
 20
0.0
 30
0.0
 70
128
  0
VERTEX
  8
ACEPLANT
 10
326.6
 20
562.0
 30
0.0
 70
0
  0
VERTEX
  8
ACEPLANT
 10
335.1
 20
576.7
 30
0.0
 70
0
  0
VERTEX
  8
ACEPLANT
 10
384.0
 20
558.9
 30
0.0
 70
0
  0
SEQEND
  8
0
  0
TEXT
  8
ACEPLANT
 62
2
 10
386.214
 20
561.114
 30
0.0
 40
3.0
  1
2
  7
ARIAL
 41
0.86
  0
TEXT
  8
ACEPLANT
 62
2
 10
386.214
 20
557.114
 30
0.0
 40
3.0
  1
HP
  7
ARIAL
 41
0.86
  0
TEXT
  8
ACEPLANT
 62
2
 10
386.214
 20
553.114
 30
0.0
 40
3.0
  1
PCV-001
  7
ARIAL
 41
0.86
  0
TEXT
  8
ACEPLANT
 62
2
 10
386.214
 20
548.114
 30
0.0
 40
3.0
  1
5
  7
ARIAL
 41
0.86
  0
POLYLINE
  8
ACEPLANT
 62
7
 66
1
 10
0.0
 20
0.0
 30
0.0
 70
128
  0
VERTEX
  8
ACEPLANT
 10
385.7
 20
551.6
 30
0.0
 70
0
  0
VERTEX
  8
ACEPLANT
 10
388.8
 20
551.6
 30
0.0
 70
0
  0
VERTEX
  8
ACEPLANT
 10
388.8
 20
547.6
 30
0.0
 70
0
  0
VERTEX
  8
ACEPLANT
 10
385.7
 20
547.6
 30
0.0
 70
0
  0
VERTEX
  8
ACEPLANT
 10
385.7
 20
551.6
 30
0.0
 70
0
  0
SEQEND
  8
0
  0
TEXT
  8
ACEPLANT
 62
2
 10
386.214
 20
544.114
 30
0.0
 40
3.0
  1
500x300DN
  7
ARIAL
 41
0.86
  0
POLYLINE
  8
ACEPLANT
 62
2
 66
1
 10
0.0
 20
0.0
 30
0.0
 70
128
  0
VERTEX
  8
ACEPLANT
 10
323.2
 20
562.0
 30
0.0
 70
0
  0
VERTEX
  8
ACEPLANT
 10
325.2
 20
560.9
 30
0.0
 70
0
  0
VERTEX
  8
ACEPLANT
 10
326.9
 20
559.9
 30
0.0
 70
0
  0
VERTEX
  8
ACEPLANT
 10
327.7
 20
559.4
 30
0.0
 70
0
  0
VERTEX
  8
ACEPLANT
 10
327.1
 20
559.7
 30
0.0
 70
0
  0
VERTEX
  8
ACEPLANT
 10
326.4
 20
560.1
 30
0.0
 70
0
  0
VERTEX
  8
ACEPLANT
 10
324.9
 20
561.0
 30
0.0
 70
0
  0
VERTEX
  8
ACEPLANT
 10
323.5
 20
561.9
 30
0.0
 70
0
  0
VERTEX
  8
ACEPLANT
 10
325.2
 20
560.9
 30
0.0
 70
0
  0
SEQEND
  8
0
  0
POLYLINE
  8
ACEPLANT
 62
7
 66
1
 10
0.0
 20
0.0
 30
0.0
 70
128
  0
VERTEX
  8
ACEPLANT
 10
323.2
 20
562.0
 30
0.0
 70
0
  0
VERTEX
  8
ACEPLANT
 10
318.0
 20
557.0
 30
0.0
 70
0
  0
VERTEX
  8
ACEPLANT
 10
314.5
 20
559.0
 30
0.0
 70
0
  0
VERTEX
  8
ACEPLANT
 10
323.2
 20
562.0
 30
0.0
 70
0
  0
SEQEND
  8
0
  0
POLYLINE
  8
ACEPLANT
 66
1
 10
0.0
 20
0.0
 30
0.0
 70
128
  0
VERTEX
  8
ACEPLANT
 10
316.3
 20
562.0
 30
0.0
 70
0
  0
VERTEX
  8
ACEPLANT
 10
318.0
 20
561.0
 30
0.0
 70
0
  0
VERTEX
  8
ACEPLANT
 10
316.7
 20
562.5
 30
0.0
 70
0
  0
SEQEND
  8
0
  0
POLYLINE
  8
ACEPLANT
 62
7
 66
1
 10
0.0
 20
0.0
 30
0.0
 70
128
  0
VERTEX
  8
ACEPLANT
 10
318.0
 20
561.0
 30
0.0
 70
0
  0
VERTEX
  8
ACEPLANT
 10
311.1
 20
566.8
 30
0.0
 70
0
  0
SEQEND
  8
0
  0
TEXT
  8
ACEPLANT
 62
2
 10
296.2
 20
567.3
 30
0.0
 40
3.0
  1
1172 MM
  7
ARIAL
 41
0.86
  0
POLYLINE
  8
ACEPLANT
 62
7
 66
1
 10
0.0
 20
0.0
 30
0.0
 70
128
  0
VERTEX
  8
ACEPLANT
 10
320.0
 20
557.8
 30
0.0
 70
0
  0
VERTEX
  8
ACEPLANT
 10
311.7
 20
557.8
 30
0.0
 70
0
  0
SEQEND
  8
0
  0
POLYLINE
  8
ACEPLANT
 62
7
 66
1
 10
0.0
 20
0.0
 30
0.0
 70
128
  0
VERTEX
  8
ACEPLANT
 10
315.9
 20
560.2
 30
0.0
 70
0
  0
VERTEX
  8
ACEPLANT
 10
315.9
 20
555.4
 30
0.0
 70
0
  0
SEQEND
  8
0
  0
TEXT
  8
ACEPLANT
 62
2
 10
318.7771824896562
 20
551.1381436811072
 30
0.0
 40
3.0
  1
12
  7
ARIAL
 41
0.86
  0
POLYLINE
  8
ACEPLANT
 66
1
 10
0.0
 20
0.0
 30
0.0
 70
128
  0
VERTEX
  8
ACEPLANT
 10
314.6
 20
559.0
 30
0.0
 70
0
  0
VERTEX
  8
ACEPLANT
 10
316.3
 20
558.0
 30
0.0
 70
0
  0
VERTEX
  8
ACEPLANT
 10
315.0
 20
559.5
 30
0.0
 70
0
  0
SEQEND
  8
0
  0
POLYLINE
  8
ACEPLANT
 62
7
 66
1
 10
0.0
 20
0.0
 30
0.0
 70
128
  0
VERTEX
  8
ACEPLANT
 10
316.3
 20
558.0
 30
0.0
 70
0
  0
VERTEX
  8
ACEPLANT
 10
309.4
 20
563.8
 30
0.0
 70
0
  0
VERTEX
  8
ACEPLANT
 10
291.0
 20
548.4
 30
0.0
 70
0
  0
SEQEND
  8
0
  0
TEXT
  8
ACEPLANT
 62
2
 10
239.071
 20
552.8
 30
0.0
 40
3.0
  1
CONT. ON
  7
ARIAL
 41
0.86
  0
TEXT
  8
ACEPLANT
 62
2
 10
239.071
 20
544.9
 30
0.0
 40
3.0
  1
110022-13610-046-DA2D-500
  7
ARIAL
 41
0.86
  0
TEXT
  8
ACEPLANT
 62
2
 10
239.071
 20
540.9
 30
0.0
 40
3.0
  1
E 979250
  7
ARIAL
 41
0.86
  0
TEXT
  8
ACEPLANT
 62
2
 10
239.071
 20
536.9
 30
0.0
 40
3.0
  1
S 1276220
  7
ARIAL
 41
0.86
  0
TEXT
  8
ACEPLANT
 62
2
 10
239.071
 20
532.9
 30
0.0
 40
3.0
  1
FL+27982
  7
ARIAL
 41
0.86
  0
CIRCLE
  8
ACEPLANT
 62
4
 10
399.7715
 20
534.6
 30
0.0
 40
6.6714999999999804
  0
CIRCLE
  8
ACEPLANT
 62
4
 10
390.67150000000004
 20
558.9
 30
0.0
 40
6.6714999999999804
  0
LINE
  8
ACEPLANT
 62
7
 10
251.7
 20
118.7
 30
0.0
 11
252.4
 21
118.6
 31
0.0
  0
LINE
  8
ACEPLANT
 62
7
 10
239.7
 20
130.1
 30
0.0
 11
239.1
 21
130.1
 31
0.0
  0
LINE
  8
ACEPLANT
 62
7
 10
239.1
 20
131.7
 30
0.0
 11
239.7
 21
131.7
 31
0.0
  0
LINE
  8
ACEPLANT
 62
7
 10
254.4
 20
132.8
 30
0.0
 11
254.4
 21
133.4
 31
0.0
  0
LINE
  8
ACEPLANT
 62
7
 10
250.7
 20
134.1
 30
0.0
 11
250.4
 21
133.5
 31
0.0
  0
LINE
  8
ACEPLANT
 62
7
 10
253.7
 20
287.6
 30
0.0
 11
254.1
 21
288.1
 31
0.0
  0
LINE
  8
ACEPLANT
 62
7
 10
239.7
 20
135.7
 30
0.0
 11
239.1
 21
135.7
 31
0.0
  0
LINE
  8
ACEPLANT
 62
7
 10
239.1
 20
294.6
 30
0.0
 11
239.7
 21
294.6
 31
0.0
  0
LINE
  8
ACEPLANT
 62
7
 10
235.4
 20
132.6
 30
0.0
 11
234.8
 21
132.6
 31
0.0
  0
LINE
  8
ACEPLANT
 62
7
 10
234.8
 20
297.1
 30
0.0
 11
235.4
 21
297.1
 31
0.0
  0
LINE
  8
ACEPLANT
 62
7
 10
241.3
 20
297.3
 30
0.0
 11
240.9
 21
297.9
 31
0.0
  0
LINE
  8
ACEPLANT
 62
7
 10
246.2
 20
300.9
 30
0.0
 11
246.6
 21
300.3
 31
0.0
  0
LINE
  8
ACEPLANT
 62
7
 10
322.1
 20
327.0
 30
0.0
 11
322.7
 21
327.4
 31
0.0
  0
LINE
  8
ACEPLANT
 62
7
 10
254.3
 20
299.8
 30
0.0
 11
253.9
 21
300.4
 31
0.0
  0
LINE
  8
ACEPLANT
 62
7
 10
371.0
 20
368.0
 30
0.0
 11
371.4
 21
367.4
 31
0.0
  0
LINE
  8
ACEPLANT
 62
7
 10
436.8
 20
393.3
 30
0.0
 11
437.4
 21
393.7
 31
0.0
  0
LINE
  8
ACEPLANT
 62
7
 10
250.0
 20
302.3
 30
0.0
 11
249.6
 21
302.9
 31
0.0
  0
LINE
  8
ACEPLANT
 62
7
 10
421.2
 20
402.0
 30
0.0
 11
421.6
 21
401.4
 31
0.0
  0
LINE
  8
ACEPLANT
 62
7
 10
237.0
 20
299.8
 30
0.0
 11
236.6
 21
300.4
 31
0.0
  0
LINE
  8
ACEPLANT
 62
7
 10
416.9
 20
404.5
 30
0.0
 11
417.3
 21
403.9
 31
0.0
  0
LINE
  8
ACEPLANT
 62
7
 10
447.6
 20
404.0
 30
0.0
 11
447.2
 21
403.4
 31
0.0
  0
LINE
  8
ACEPLANT
 62
7
 10
398.6
 20
431.4
 30
0.0
 11
399.0
 21
432.0
 31
0.0
  0
LINE
  8
ACEPLANT
 62
7
 10
373.7
 20
429.2
 30
0.0
 11
374.1
 21
428.7
 31
0.0
  0
LINE
  8
ACEPLANT
 62
7
 10
395.6
 20
434.0
 30
0.0
 11
395.2
 21
433.4
 31
0.0
  0
LINE
  8
ACEPLANT
 62
7
 10
389.9
 20
436.4
 30
0.0
 11
390.3
 21
437.0
 31
0.0
  0
LINE
  8
ACEPLANT
 62
7
 10
451.9
 20
406.5
 30
0.0
 11
451.5
 21
405.9
 31
0.0
  0
LINE
  8
ACEPLANT
 62
7
 10
394.2
 20
438.9
 30
0.0
 11
394.6
 21
439.5
 31
0.0
  0
LINE
  8
ACEPLANT
 62
7
 10
373.4
 20
435.5
 30
0.0
 11
373.4
 21
434.9
 31
0.0
  0
LINE
  8
ACEPLANT
 62
7
 10
388.7
 20
439.7
 30
0.0
 11
388.1
 21
439.7
 31
0.0
  0
LINE
  8
ACEPLANT
 62
7
 10
388.1
 20
529.3
 30
0.0
 11
388.7
 21
529.3
 31
0.0
  0
LINE
  8
ACEPLANT
 62
7
 10
372.0
 20
527.8
 30
0.0
 11
371.7
 21
527.1
 31
0.0
  0
LINE
  8
ACEPLANT
 62
7
 10
373.9
 20
535.5
 30
0.0
 11
373.9
 21
536.1
 31
0.0
  0
LINE
  8
ACEPLANT
 62
7
 10
340.7
 20
549.6
 30
0.0
 11
341.4
 21
549.5
 31
0.0
  0
LINE
  8
ACEPLANT
 62
7
 10
367.0
 20
552.1
 30
0.0
 11
366.6
 21
551.5
 31
0.0
  0
LINE
  8
ACEPLANT
 62
7
 10
331.6
 20
571.7
 30
0.0
 11
332.0
 21
572.3
 31
0.0
  0
LINE
  8
ACEPLANT
 62
7
 10
326.6
 20
564.0
 30
0.0
 11
325.9
 21
563.9
 31
0.0
  0
LINE
  8
ACEPLANT
 62
7
 10
316.7
 20
562.5
 30
0.0
 11
316.3
 21
562.0
 31
0.0
  0
LINE
  8
ACEPLANT
 62
7
 10
315.0
 20
559.5
 30
0.0
 11
314.6
 21
559.0
 31
0.0
  0
LINE
  8
ACEPLANT
 62
4
 10
387.9
 20
358.9
 30
0.0
 11
381.65
 21
363.75
 31
0.0
  0
CIRCLE
  8
ACEPLANT
 62
4
 10
381.65
 20
363.75
 30
0.0
 40
2.2
  0
LINE
  8
ACEPLANT
 62
4
 10
383.8476605416671
 20
363.64856951346155
 30
0.0
 11
379.45233945833286
 21
363.85143048653845
 31
0.0
  0
LINE
  8
ACEPLANT
 62
4
 10
381.94461937120303
 20
361.5698166530973
 30
0.0
 11
381.3553806287969
 21
365.9301833469027
 31
0.0
  0
TEXT
  8
ACEPLANT
 62
2
 10
219.0
 20
63.0
 30
0.0
 40
2.5
  1
110022-13610-045-S001
  7
ARIAL
 41
0.86
  0
TEXT
  8
ACEPLANT
 62
2
 10
279.0
 20
63.0
 30
0.0
 40
2.5
  1
4250
  7
ARIAL
 41
0.86
  0
TEXT
  8
ACEPLANT
 62
2
 10
219.0
 20
57.5
 30
0.0
 40
2.5
  1
110022-13610-045-S002
  7
ARIAL
 41
0.86
  0
TEXT
  8
ACEPLANT
 62
2
 10
279.0
 20
57.5
 30
0.0
 40
2.5
  1
4998
  7
ARIAL
 41
0.86
  0
TEXT
  8
ACEPLANT
 62
2
 10
219.0
 20
52.0
 30
0.0
 40
2.5
  1
110022-13610-045-S003
  7
ARIAL
 41
0.86
  0
TEXT
  8
ACEPLANT
 62
2
 10
279.0
 20
52.0
 30
0.0
 40
2.5
  1
2499
  7
ARIAL
 41
0.86
  0
TEXT
  8
ACEPLANT
 62
2
 10
219.0
 20
46.5
 30
0.0
 40
2.5
  1
110022-13610-045-S004
  7
ARIAL
 41
0.86
  0
TEXT
  8
ACEPLANT
 62
2
 10
279.0
 20
46.5
 30
0.0
 40
2.5
  1
1000
  7
ARIAL
 41
0.86
  0
CIRCLE
  8
ACEPLANT
 62
7
 10
252.4000000000004
 20
289.1081967213136
 30
0.0
 40
0.1
  0
CIRCLE
  8
ACEPLANT
 62
7
 10
252.4000000000004
 20
289.1081967213136
 30
0.0
 40
0.2
  0
CIRCLE
  8
ACEPLANT
 62
7
 10
252.4000000000004
 20
289.1081967213136
 30
0.0
 40
0.3
  0
CIRCLE
  8
ACEPLANT
 62
7
 10
436.1142857142841
 20
395.19999999999874
 30
0.0
 40
0.1
  0
CIRCLE
  8
ACEPLANT
 62
7
 10
436.1142857142841
 20
395.19999999999874
 30
0.0
 40
0.2
  0
CIRCLE
  8
ACEPLANT
 62
7
 10
436.1142857142841
 20
395.19999999999874
 30
0.0
 40
0.3
  0
CIRCLE
  8
ACEPLANT
 62
7
 10
375.39999999999833
 20
430.191803278689
 30
0.0
 40
0.1
  0
CIRCLE
  8
ACEPLANT
 62
7
 10
375.39999999999833
 20
430.191803278689
 30
0.0
 40
0.2
  0
CIRCLE
  8
ACEPLANT
 62
7
 10
375.39999999999833
 20
430.191803278689
 30
0.0
 40
0.3
  0
LINE
  8
ACEPLANT
 62
3
 10
252.4
 20
126.2
 30
0.0
 11
252.4
 21
139.9
 31
0.0
  0
LINE
  8
ACEPLANT
 62
3
 10
252.4
 20
146.3
 30
0.0
 11
252.4
 21
279.1
 31
0.0
  0
LINE
  8
ACEPLANT
 62
3
 10
252.4
 20
279.1
 30
0.0
 11
252.4000000000004
 21
289.1081967213136
 31
0.0
  0
LINE
  8
ACEPLANT
 62
3
 10
252.4000000000004
 20
289.1081967213136
 30
0.0
 11
261.1
 21
294.1
 31
0.0
  0
LINE
  8
ACEPLANT
 62
3
 10
261.1
 20
294.1
 30
0.0
 11
381.6
 21
363.7
 31
0.0
  0
LINE
  8
ACEPLANT
 62
3
 10
381.6
 20
363.7
 30
0.0
 11
427.4
 21
390.2
 31
0.0
  0
LINE
  8
ACEPLANT
 62
3
 10
427.4
 20
390.2
 30
0.0
 11
436.1142857142841
 21
395.19999999999874
 31
0.0
  0
LINE
  8
ACEPLANT
 62
3
 10
436.1142857142841
 20
395.19999999999874
 30
0.0
 11
427.4
 21
400.2
 31
0.0
  0
LINE
  8
ACEPLANT
 62
3
 10
427.4
 20
400.2
 30
0.0
 11
384.1
 21
425.2
 31
0.0
  0
LINE
  8
ACEPLANT
 62
3
 10
384.1
 20
425.2
 30
0.0
 11
375.39999999999833
 21
430.191803278689
 31
0.0
  0
LINE
  8
ACEPLANT
 62
3
 10
375.39999999999833
 20
430.191803278689
 30
0.0
 11
375.4
 21
440.2
 31
0.0
  0
LINE
  8
ACEPLANT
 62
3
 10
375.4
 20
440.2
 30
0.0
 11
375.4
 21
523.8
 31
0.0
  0
LINE
  8
ACEPLANT
 62
3
 10
368.5
 20
535.8
 30
0.0
 11
330.1
 21
558.0
 31
0.0
  0
CIRCLE
  8
ACEPLANT
 62
7
 10
245.5200245123576
 20
121.21196204098241
 30
0.0
 40
2.8
  0
CIRCLE
  8
ACEPLANT
 62
7
 10
259.4656993192292
 20
125.7281731681172
 30
0.0
 40
2.8
  0
CIRCLE
  8
ACEPLANT
 62
7
 10
245.49886782176162
 20
279.58606766308515
 30
0.0
 40
2.8
  0
CIRCLE
  8
ACEPLANT
 62
7
 10
267.12663916482234
 20
289.98379207373154
 30
0.0
 40
2.8
  0
CIRCLE
  8
ACEPLANT
 62
7
 10
422.01405288290044
 20
394.43752158842807
 30
0.0
 40
2.8
  0
CIRCLE
  8
ACEPLANT
 62
7
 10
433.4982700004998
 20
403.2840787101846
 30
0.0
 40
2.8
  0
CIRCLE
  8
ACEPLANT
 62
7
 10
386.47891587370106
 20
431.73625503006224
 30
0.0
 40
2.8
  0
CIRCLE
  8
ACEPLANT
 62
7
 10
368.33430068077087
 20
439.7281731681172
 30
0.0
 40
2.8
  0
CIRCLE
  8
ACEPLANT
 62
7
 10
368.2911368913702
 20
523.8530953415324
 30
0.0
 40
2.8
  0
CIRCLE
  8
ACEPLANT
 62
7
 10
367.1289366136024
 20
528.9330694952595
 30
0.0
 40
2.8
  0
CIRCLE
  8
ACEPLANT
 62
7
 10
334.09086048961353
 20
563.5543140826016
 30
0.0
 40
2.8
  0
CIRCLE
  8
ACEPLANT
 62
7
 10
320.87718248965615
 20
552.6381436811072
 30
0.0
 40
2.8
  0
CIRCLE
  8
ACEPLANT
 62
1
 10
252.51428571428573
 20
120.92857142857143
 30
0.0
 40
1.0
  0
CIRCLE
  8
ACEPLANT
 62
2
 10
252.51428571428573
 20
120.92857142857143
 30
0.0
 40
0.85
  0
CIRCLE
  8
ACEPLANT
 62
2
 10
252.51428571428573
 20
120.92857142857143
 30
0.0
 40
0.7
  0
CIRCLE
  8
ACEPLANT
 62
2
 10
252.51428571428573
 20
120.92857142857143
 30
0.0
 40
0.55
  0
CIRCLE
  8
ACEPLANT
 62
2
 10
252.51428571428573
 20
120.92857142857143
 30
0.0
 40
0.4
  0
CIRCLE
  8
ACEPLANT
 62
2
 10
252.51428571428573
 20
120.92857142857143
 30
0.0
 40
0.25
  0
CIRCLE
  8
ACEPLANT
 62
1
 10
252.48571428571427
 20
126.25714285714285
 30
0.0
 40
1.0
  0
CIRCLE
  8
ACEPLANT
 62
2
 10
252.48571428571427
 20
126.25714285714285
 30
0.0
 40
0.85
  0
CIRCLE
  8
ACEPLANT
 62
2
 10
252.48571428571427
 20
126.25714285714285
 30
0.0
 40
0.7
  0
CIRCLE
  8
ACEPLANT
 62
2
 10
252.48571428571427
 20
126.25714285714285
 30
0.0
 40
0.55
  0
CIRCLE
  8
ACEPLANT
 62
2
 10
252.48571428571427
 20
126.25714285714285
 30
0.0
 40
0.4
  0
CIRCLE
  8
ACEPLANT
 62
2
 10
252.48571428571427
 20
126.25714285714285
 30
0.0
 40
0.25
  0
CIRCLE
  8
ACEPLANT
 62
1
 10
252.48571428571427
 20
279.1571428571429
 30
0.0
 40
1.0
  0
CIRCLE
  8
ACEPLANT
 62
2
 10
252.48571428571427
 20
279.1571428571429
 30
0.0
 40
0.85
  0
CIRCLE
  8
ACEPLANT
 62
2
 10
252.48571428571427
 20
279.1571428571429
 30
0.0
 40
0.7
  0
CIRCLE
  8
ACEPLANT
 62
2
 10
252.48571428571427
 20
279.1571428571429
 30
0.0
 40
0.55
  0
CIRCLE
  8
ACEPLANT
 62
2
 10
252.48571428571427
 20
279.1571428571429
 30
0.0
 40
0.4
  0
CIRCLE
  8
ACEPLANT
 62
2
 10
252.48571428571427
 20
279.1571428571429
 30
0.0
 40
0.25
  0
CIRCLE
  8
ACEPLANT
 62
1
 10
261.57142857142856
 20
294.24285714285713
 30
0.0
 40
1.0
  0
CIRCLE
  8
ACEPLANT
 62
2
 10
261.57142857142856
 20
294.24285714285713
 30
0.0
 40
0.85
  0
CIRCLE
  8
ACEPLANT
 62
2
 10
261.57142857142856
 20
294.24285714285713
 30
0.0
 40
0.7
  0
CIRCLE
  8
ACEPLANT
 62
2
 10
261.57142857142856
 20
294.24285714285713
 30
0.0
 40
0.55
  0
CIRCLE
  8
ACEPLANT
 62
2
 10
261.57142857142856
 20
294.24285714285713
 30
0.0
 40
0.4
  0
CIRCLE
  8
ACEPLANT
 62
2
 10
261.57142857142856
 20
294.24285714285713
 30
0.0
 40
0.25
  0
CIRCLE
  8
ACEPLANT
 62
1
 10
427.5857142857143
 20
390.19999999999993
 30
0.0
 40
1.0
  0
CIRCLE
  8
ACEPLANT
 62
2
 10
427.5857142857143
 20
390.19999999999993
 30
0.0
 40
0.85
  0
CIRCLE
  8
ACEPLANT
 62
2
 10
427.5857142857143
 20
390.19999999999993
 30
0.0
 40
0.7
  0
CIRCLE
  8
ACEPLANT
 62
2
 10
427.5857142857143
 20
390.19999999999993
 30
0.0
 40
0.55
  0
CIRCLE
  8
ACEPLANT
 62
2
 10
427.5857142857143
 20
390.19999999999993
 30
0.0
 40
0.4
  0
CIRCLE
  8
ACEPLANT
 62
2
 10
427.5857142857143
 20
390.19999999999993
 30
0.0
 40
0.25
  0
CIRCLE
  8
ACEPLANT
 62
1
 10
427.2142857142857
 20
400.19999999999993
 30
0.0
 40
1.0
  0
CIRCLE
  8
ACEPLANT
 62
2
 10
427.2142857142857
 20
400.19999999999993
 30
0.0
 40
0.85
  0
CIRCLE
  8
ACEPLANT
 62
2
 10
427.2142857142857
 20
400.19999999999993
 30
0.0
 40
0.7
  0
CIRCLE
  8
ACEPLANT
 62
2
 10
427.2142857142857
 20
400.19999999999993
 30
0.0
 40
0.55
  0
CIRCLE
  8
ACEPLANT
 62
2
 10
427.2142857142857
 20
400.19999999999993
 30
0.0
 40
0.4
  0
CIRCLE
  8
ACEPLANT
 62
2
 10
427.2142857142857
 20
400.19999999999993
 30
0.0
 40
0.25
  0
CIRCLE
  8
ACEPLANT
 62
1
 10
383.62857142857143
 20
425.3428571428571
 30
0.0
 40
1.0
  0
CIRCLE
  8
ACEPLANT
 62
2
 10
383.62857142857143
 20
425.3428571428571
 30
0.0
 40
0.85
  0
CIRCLE
  8
ACEPLANT
 62
2
 10
383.62857142857143
 20
425.3428571428571
 30
0.0
 40
0.7
  0
CIRCLE
  8
ACEPLANT
 62
2
 10
383.62857142857143
 20
425.3428571428571
 30
0.0
 40
0.55
  0
CIRCLE
  8
ACEPLANT
 62
2
 10
383.62857142857143
 20
425.3428571428571
 30
0.0
 40
0.4
  0
CIRCLE
  8
ACEPLANT
 62
2
 10
383.62857142857143
 20
425.3428571428571
 30
0.0
 40
0.25
  0
CIRCLE
  8
ACEPLANT
 62
1
 10
375.31428571428575
 20
440.25714285714287
 30
0.0
 40
1.0
  0
CIRCLE
  8
ACEPLANT
 62
2
 10
375.31428571428575
 20
440.25714285714287
 30
0.0
 40
0.85
  0
CIRCLE
  8
ACEPLANT
 62
2
 10
375.31428571428575
 20
440.25714285714287
 30
0.0
 40
0.7
  0
CIRCLE
  8
ACEPLANT
 62
2
 10
375.31428571428575
 20
440.25714285714287
 30
0.0
 40
0.55
  0
CIRCLE
  8
ACEPLANT
 62
2
 10
375.31428571428575
 20
440.25714285714287
 30
0.0
 40
0.4
  0
CIRCLE
  8
ACEPLANT
 62
2
 10
375.31428571428575
 20
440.25714285714287
 30
0.0
 40
0.25
  0
CIRCLE
  8
ACEPLANT
 62
1
 10
375.2857142857143
 20
524.1285714285715
 30
0.0
 40
1.0
  0
CIRCLE
  8
ACEPLANT
 62
2
 10
375.2857142857143
 20
524.1285714285715
 30
0.0
 40
0.85
  0
CIRCLE
  8
ACEPLANT
 62
2
 10
375.2857142857143
 20
524.1285714285715
 30
0.0
 40
0.7
  0
CIRCLE
  8
ACEPLANT
 62
2
 10
375.2857142857143
 20
524.1285714285715
 30
0.0
 40
0.55
  0
CIRCLE
  8
ACEPLANT
 62
2
 10
375.2857142857143
 20
524.1285714285715
 30
0.0
 40
0.4
  0
CIRCLE
  8
ACEPLANT
 62
2
 10
375.2857142857143
 20
524.1285714285715
 30
0.0
 40
0.25
  0
CIRCLE
  8
ACEPLANT
 62
1
 10
368.15714285714284
 20
535.8571428571429
 30
0.0
 40
1.0
  0
CIRCLE
  8
ACEPLANT
 62
2
 10
368.15714285714284
 20
535.8571428571429
 30
0.0
 40
0.85
  0
CIRCLE
  8
ACEPLANT
 62
2
 10
368.15714285714284
 20
535.8571428571429
 30
0.0
 40
0.7
  0
CIRCLE
  8
ACEPLANT
 62
2
 10
368.15714285714284
 20
535.8571428571429
 30
0.0
 40
0.55
  0
CIRCLE
  8
ACEPLANT
 62
2
 10
368.15714285714284
 20
535.8571428571429
 30
0.0
 40
0.4
  0
CIRCLE
  8
ACEPLANT
 62
2
 10
368.15714285714284
 20
535.8571428571429
 30
0.0
 40
0.25
  0
CIRCLE
  8
ACEPLANT
 62
1
 10
329.75714285714287
 20
558.0571428571428
 30
0.0
 40
1.0
  0
CIRCLE
  8
ACEPLANT
 62
2
 10
329.75714285714287
 20
558.0571428571428
 30
0.0
 40
0.85
  0
CIRCLE
  8
ACEPLANT
 62
2
 10
329.75714285714287
 20
558.0571428571428
 30
0.0
 40
0.7
  0
CIRCLE
  8
ACEPLANT
 62
2
 10
329.75714285714287
 20
558.0571428571428
 30
0.0
 40
0.55
  0
CIRCLE
  8
ACEPLANT
 62
2
 10
329.75714285714287
 20
558.0571428571428
 30
0.0
 40
0.4
  0
CIRCLE
  8
ACEPLANT
 62
2
 10
329.75714285714287
 20
558.0571428571428
 30
0.0
 40
0.25
  0
CIRCLE
  8
ACEPLANT
 62
1
 10
316.0571428571429
 20
557.7142857142857
 30
0.0
 40
1.0
  0
CIRCLE
  8
ACEPLANT
 62
2
 10
316.0571428571429
 20
557.7142857142857
 30
0.0
 40
0.85
  0
CIRCLE
  8
ACEPLANT
 62
2
 10
316.0571428571429
 20
557.7142857142857
 30
0.0
 40
0.7
  0
CIRCLE
  8
ACEPLANT
 62
2
 10
316.0571428571429
 20
557.7142857142857
 30
0.0
 40
0.55
  0
CIRCLE
  8
ACEPLANT
 62
2
 10
316.0571428571429
 20
557.7142857142857
 30
0.0
 40
0.4
  0
CIRCLE
  8
ACEPLANT
 62
2
 10
316.0571428571429
 20
557.7142857142857
 30
0.0
 40
0.25
  0
LINE
  8
ACEPLANT
 62
7
 10
252.51428571428573
 20
120.92857142857143
 30
0.0
 11
248.31772899312884
 21
121.09860579601802
 31
0.0
  0
LINE
  8
ACEPLANT
 62
7
 10
252.48571428571427
 20
126.25714285714285
 30
0.0
 11
256.67370530582326
 21
125.93976104372746
 31
0.0
  0
LINE
  8
ACEPLANT
 62
7
 10
252.48571428571427
 20
279.1571428571429
 30
0.0
 11
248.29360640734268
 21
279.41449774070827
 31
0.0
  0
LINE
  8
ACEPLANT
 62
7
 10
261.57142857142856
 20
294.24285714285713
 30
0.0
 11
264.90455492746486
 21
291.68741810138175
 31
0.0
  0
LINE
  8
ACEPLANT
 62
7
 10
427.5857142857143
 20
390.19999999999993
 30
0.0
 11
424.24271744402597
 21
392.7425129530568
 31
0.0
  0
LINE
  8
ACEPLANT
 62
7
 10
427.2142857142857
 20
400.19999999999993
 30
0.0
 11
430.9846762860142
 21
402.05044722611075
 31
0.0
  0
LINE
  8
ACEPLANT
 62
7
 10
383.62857142857143
 20
425.3428571428571
 30
0.0
 11
385.3387780956492
 21
429.1788958751802
 31
0.0
  0
LINE
  8
ACEPLANT
 62
7
 10
375.31428571428575
 20
440.25714285714287
 30
0.0
 11
371.1262946941768
 21
439.93976104372746
 31
0.0
  0
LINE
  8
ACEPLANT
 62
7
 10
375.2857142857143
 20
524.1285714285715
 30
0.0
 11
371.0889678491078
 21
523.963285776348
 31
0.0
  0
LINE
  8
ACEPLANT
 62
7
 10
368.15714285714284
 20
535.8571428571429
 30
0.0
 11
367.5402191110186
 21
531.7026988400129
 31
0.0
  0
LINE
  8
ACEPLANT
 62
7
 10
329.75714285714287
 20
558.0571428571428
 30
0.0
 11
332.35737343662527
 21
561.3554455924182
 31
0.0
  0
LINE
  8
ACEPLANT
 62
7
 10
316.0571428571429
 20
557.7142857142857
 30
0.0
 11
318.94916663665083
 21
554.6686004943786
 31
0.0
  0
TEXT
  8
ACEPLANT
 62
2
 10
581.2
 20
68.1
 30
0.0
 40
2.5
  1
350
  7
ARIAL
 41
0.86
  0
TEXT
  8
ACEPLANT
 62
2
 10
596.7
 20
68.1
 30
0.0
 40
2.5
  1
  BW
  7
ARIAL
 41
0.86
  0
TEXT
  8
ACEPLANT
 62
2
 10
581.2
 20
63.1
 30
0.0
 40
2.5
  1
300
  7
ARIAL
 41
0.86
  0
TEXT
  8
ACEPLANT
 62
2
 10
596.7
 20
63.1
 30
0.0
 40
2.5
  1
  BW
  7
ARIAL
 41
0.86
  0
TEXT
  8
ACEPLANT
 62
2
 10
581.2
 20
58.1
 30
0.0
 40
2.5
  1
300
  7
ARIAL
 41
0.86
  0
TEXT
  8
ACEPLANT
 62
2
 10
596.7
 20
58.1
 30
0.0
 40
2.5
  1
  BW
  7
ARIAL
 41
0.86
  0
TEXT
  8
ACEPLANT
 62
2
 10
581.2
 20
53.1
 30
0.0
 40
2.5
  1
300
  7
ARIAL
 41
0.86
  0
TEXT
  8
ACEPLANT
 62
2
 10
596.7
 20
53.1
 30
0.0
 40
2.5
  1
  BW
  7
ARIAL
 41
0.86
  0
TEXT
  8
ACEPLANT
 62
2
 10
581.2
 20
48.1
 30
0.0
 40
2.5
  1
300
  7
ARIAL
 41
0.86
  0
TEXT
  8
ACEPLANT
 62
2
 10
596.7
 20
48.1
 30
0.0
 40
2.5
  1
  BW
  7
ARIAL
 41
0.86
  0
TEXT
  8
ACEPLANT
 62
2
 10
581.2
 20
43.1
 30
0.0
 40
2.5
  1
300
  7
ARIAL
 41
0.86
  0
TEXT
  8
ACEPLANT
 62
2
 10
596.7
 20
43.1
 30
0.0
 40
2.5
  1
  BW
  7
ARIAL
 41
0.86
  0
TEXT
  8
ACEPLANT
 62
2
 10
581.2
 20
38.1
 30
0.0
 40
2.5
  1
300
  7
ARIAL
 41
0.86
  0
TEXT
  8
ACEPLANT
 62
2
 10
596.7
 20
38.1
 30
0.0
 40
2.5
  1
  BW
  7
ARIAL
 41
0.86
  0
TEXT
  8
ACEPLANT
 62
2
 10
581.2
 20
33.1
 30
0.0
 40
2.5
  1
300
  7
ARIAL
 41
0.86
  0
TEXT
  8
ACEPLANT
 62
2
 10
596.7
 20
33.1
 30
0.0
 40
2.5
  1
  BW
  7
ARIAL
 41
0.86
  0
TEXT
  8
ACEPLANT
 62
2
 10
581.2
 20
28.1
 30
0.0
 40
2.5
  1
300
  7
ARIAL
 41
0.86
  0
TEXT
  8
ACEPLANT
 62
2
 10
596.7
 20
28.1
 30
0.0
 40
2.5
  1
  BW
  7
ARIAL
 41
0.86
  0
TEXT
  8
ACEPLANT
 62
2
 10
581.2
 20
23.1
 30
0.0
 40
2.5
  1
300
  7
ARIAL
 41
0.86
  0
TEXT
  8
ACEPLANT
 62
2
 10
596.7
 20
23.1
 30
0.0
 40
2.5
  1
  BW
  7
ARIAL
 41
0.86
  0
TEXT
  8
ACEPLANT
 62
2
 10
581.2
 20
18.1
 30
0.0
 40
2.5
  1
300
  7
ARIAL
 41
0.86
  0
TEXT
  8
ACEPLANT
 62
2
 10
596.7
 20
18.1
 30
0.0
 40
2.5
  1
  BW
  7
ARIAL
 41
0.86
  0
TEXT
  8
ACEPLANT
 62
2
 10
581.2
 20
13.1
 30
0.0
 40
2.5
  1
300
  7
ARIAL
 41
0.86
  0
TEXT
  8
ACEPLANT
 62
2
 10
596.7
 20
13.1
 30
0.0
 40
2.5
  1
  BW
  7
ARIAL
 41
0.86
  0
TEXT
  8
ACEPLANT
 62
2
 10
563.7
 20
68.1
 30
0.0
 40
2.5
  1
FW
  7
ARIAL
 41
0.86
  0
TEXT
  8
ACEPLANT
 62
2
 10
563.7
 20
63.1
 30
0.0
 40
2.5
  1
SW
  7
ARIAL
 41
0.86
  0
TEXT
  8
ACEPLANT
 62
2
 10
563.7
 20
58.1
 30
0.0
 40
2.5
  1
SW
  7
ARIAL
 41
0.86
  0
TEXT
  8
ACEPLANT
 62
2
 10
563.7
 20
53.1
 30
0.0
 40
2.5
  1
FW
  7
ARIAL
 41
0.86
  0
TEXT
  8
ACEPLANT
 62
2
 10
563.7
 20
48.1
 30
0.0
 40
2.5
  1
SW
  7
ARIAL
 41
0.86
  0
TEXT
  8
ACEPLANT
 62
2
 10
563.7
 20
43.1
 30
0.0
 40
2.5
  1
SW
  7
ARIAL
 41
0.86
  0
TEXT
  8
ACEPLANT
 62
2
 10
563.7
 20
38.1
 30
0.0
 40
2.5
  1
FW
  7
ARIAL
 41
0.86
  0
TEXT
  8
ACEPLANT
 62
2
 10
563.7
 20
33.1
 30
0.0
 40
2.5
  1
SW
  7
ARIAL
 41
0.86
  0
TEXT
  8
ACEPLANT
 62
2
 10
563.7
 20
28.1
 30
0.0
 40
2.5
  1
FW
  7
ARIAL
 41
0.86
  0
TEXT
  8
ACEPLANT
 62
2
 10
563.7
 20
23.1
 30
0.0
 40
2.5
  1
FW
  7
ARIAL
 41
0.86
  0
TEXT
  8
ACEPLANT
 62
2
 10
563.7
 20
18.1
 30
0.0
 40
2.5
  1
FW
  7
ARIAL
 41
0.86
  0
TEXT
  8
ACEPLANT
 62
2
 10
563.7
 20
13.1
 30
0.0
 40
2.5
  1
FW
  7
ARIAL
 41
0.86
  0
LINE
  8
ACEPLANT
 62
7
 10
268.10204097743724
 20
117.388010145679
 30
0.0
 11
254.0
 21
122.5
 31
0.0
  0
LINE
  8
ACEPLANT
 62
4
 10
254.0
 20
122.5
 30
0.0
 11
255.97578138853643
 21
122.18969707588714
 31
0.0
  0
LINE
  8
ACEPLANT
 62
4
 10
254.0
 20
122.5
 30
0.0
 11
255.71567108227563
 21
121.47215140344349
 31
0.0
  0
LINE
  8
ACEPLANT
 62
4
 10
255.97578138853643
 20
122.18969707588714
 30
0.0
 11
255.71567108227563
 21
121.47215140344349
 31
0.0
  0
TEXT
  8
ACEPLANT
 62
1
 10
239.071
 20
548.9
 30
0.0
 40
3.0
  1
2-13110-ZP-186-119
  7
ARIAL
 41
0.86
  0
TEXT
  8
ACEPLANT
 62
3
 10
742.0
 20
20.0
 30
0.0
 40
3.0
  1
2-13110-ZP-186-118
  7
ARIAL
 41
0.86
  0
ENDSEC
  0
EOF
