  0
SECTION
  2
HEADER
  9
$ACADVER
  1
AC1027
  9
$ACADMAINTVER
 70
105
  9
$DWGCODEPAGE
  3
ANSI_949
  9
$LASTSAVEDBY
  1
acepl
  9
$REQUIREDVERSIONS
160
0
  9
$INSBASE
 10
0.0
 20
0.0
 30
0.0
  9
$EXTMIN
 10
-0.0256633251274252
 20
-0.0181260584133725
 30
-0.0015258207003583
  9
$EXTMAX
 10
841.0256672413389
 20
594.0181288244414
 30
3.49246037e-08
  9
$LIMMIN
 10
0.0
 20
0.0
  9
$LIMMAX
 10
12.0
 20
9.0
  9
$ORTHOMODE
 70
0
  9
$REGENMODE
 70
1
  9
$FILLMODE
 70
1
  9
$QTEXTMODE
 70
0
  9
$MIRRTEXT
 70
0
  9
$LTSCALE
 40
1.0
  9
$ATTMODE
 70
1
  9
$TEXTSIZE
 40
0.2
  9
$TRACEWID
 40
0.05
  9
$TEXTSTYLE
  7
Standard
  9
$CLAYER
  8
0
  9
$CELTYPE
  6
Continuous
  9
$CECOLOR
 62
256
  9
$CELTSCALE
 40
1.0
  9
$DISPSILH
 70
0
  9
$DIMSCALE
 40
1.0
  9
$DIMASZ
 40
0.18
  9
$DIMEXO
 40
0.0625
  9
$DIMDLI
 40
0.38
  9
$DIMRND
 40
0.0
  9
$DIMDLE
 40
0.0
  9
$DIMEXE
 40
0.18
  9
$DIMTP
 40
0.0
  9
$DIMTM
 40
0.0
  9
$DIMTXT
 40
0.18
  9
$DIMCEN
 40
0.09
  9
$DIMTSZ
 40
0.0
  9
$DIMTOL
 70
0
  9
$DIMLIM
 70
0
  9
$DIMTIH
 70
1
  9
$DIMTOH
 70
1
  9
$DIMSE1
 70
0
  9
$DIMSE2
 70
0
  9
$DIMTAD
 70
0
  9
$DIMZIN
 70
0
  9
$DIMBLK
  1

  9
$DIMASO
 70
1
  9
$DIMSHO
 70
1
  9
$DIMPOST
  1

  9
$DIMAPOST
  1

  9
$DIMALT
 70
0
  9
$DIMALTD
 70
2
  9
$DIMALTF
 40
25.4
  9
$DIMLFAC
 40
1.0
  9
$DIMTOFL
 70
0
  9
$DIMTVP
 40
0.0
  9
$DIMTIX
 70
0
  9
$DIMSOXD
 70
0
  9
$DIMSAH
 70
0
  9
$DIMBLK1
  1

  9
$DIMBLK2
  1

  9
$DIMSTYLE
  2
Standard
  9
$DIMCLRD
 70
0
  9
$DIMCLRE
 70
0
  9
$DIMCLRT
 70
0
  9
$DIMTFAC
 40
1.0
  9
$DIMGAP
 40
0.09
  9
$DIMJUST
 70
0
  9
$DIMSD1
 70
0
  9
$DIMSD2
 70
0
  9
$DIMTOLJ
 70
1
  9
$DIMTZIN
 70
0
  9
$DIMALTZ
 70
0
  9
$DIMALTTZ
 70
0
  9
$DIMUPT
 70
0
  9
$DIMDEC
 70
4
  9
$DIMTDEC
 70
4
  9
$DIMALTU
 70
2
  9
$DIMALTTD
 70
2
  9
$DIMTXSTY
  7
Standard
  9
$DIMAUNIT
 70
0
  9
$DIMADEC
 70
0
  9
$DIMALTRND
 40
0.0
  9
$DIMAZIN
 70
0
  9
$DIMDSEP
 70
46
  9
$DIMATFIT
 70
3
  9
$DIMFRAC
 70
0
  9
$DIMLDRBLK
  1

  9
$DIMLUNIT
 70
2
  9
$DIMLWD
 70
-2
  9
$DIMLWE
 70
-2
  9
$DIMTMOVE
 70
0
  9
$DIMFXL
 40
1.0
  9
$DIMFXLON
 70
0
  9
$DIMJOGANG
 40
0.7853981633974483
  9
$DIMTFILL
 70
0
  9
$DIMTFILLCLR
 70
0
  9
$DIMARCSYM
 70
0
  9
$DIMLTYPE
  6

  9
$DIMLTEX1
  6

  9
$DIMLTEX2
  6

  9
$DIMTXTDIRECTION
 70
0
  9
$LUNITS
 70
2
  9
$LUPREC
 70
4
  9
$SKETCHINC
 40
0.1
  9
$FILLETRAD
 40
0.0
  9
$AUNITS
 70
0
  9
$AUPREC
 70
0
  9
$MENU
  1
.
  9
$ELEVATION
 40
0.0
  9
$PELEVATION
 40
0.0
  9
$THICKNESS
 40
0.0
  9
$LIMCHECK
 70
0
  9
$CHAMFERA
 40
0.0
  9
$CHAMFERB
 40
0.0
  9
$CHAMFERC
 40
0.0
  9
$CHAMFERD
 40
0.0
  9
$SKPOLY
 70
0
  9
$TDCREATE
 40
2460857.4378125
  9
$TDUCREATE
 40
2460856.968819445
  9
$TDUPDATE
 40
2460857.4378125
  9
$TDUUPDATE
 40
2460856.969212963
  9
$TDINDWG
 40
0.0003935185
  9
$TDUSRTIMER
 40
0.0003935185
  9
$USRTIMER
 70
1
  9
$ANGBASE
 50
0.0
  9
$ANGDIR
 70
0
  9
$PDMODE
 70
0
  9
$PDSIZE
 40
0.0
  9
$PLINEWID
 40
0.0
  9
$SPLFRAME
 70
0
  9
$SPLINETYPE
 70
6
  9
$SPLINESEGS
 70
8
  9
$HANDSEED
  5
92C
  9
$SURFTAB1
 70
6
  9
$SURFTAB2
 70
6
  9
$SURFTYPE
 70
6
  9
$SURFU
 70
6
  9
$SURFV
 70
6
  9
$UCSBASE
  2

  9
$UCSNAME
  2

  9
$UCSORG
 10
0.0
 20
0.0
 30
0.0
  9
$UCSXDIR
 10
1.0
 20
0.0
 30
0.0
  9
$UCSYDIR
 10
0.0
 20
1.0
 30
0.0
  9
$UCSORTHOREF
  2

  9
$UCSORTHOVIEW
 70
0
  9
$UCSORGTOP
 10
0.0
 20
0.0
 30
0.0
  9
$UCSORGBOTTOM
 10
0.0
 20
0.0
 30
0.0
  9
$UCSORGLEFT
 10
0.0
 20
0.0
 30
0.0
  9
$UCSORGRIGHT
 10
0.0
 20
0.0
 30
0.0
  9
$UCSORGFRONT
 10
0.0
 20
0.0
 30
0.0
  9
$UCSORGBACK
 10
0.0
 20
0.0
 30
0.0
  9
$PUCSBASE
  2

  9
$PUCSNAME
  2

  9
$PUCSORG
 10
0.0
 20
0.0
 30
0.0
  9
$PUCSXDIR
 10
1.0
 20
0.0
 30
0.0
  9
$PUCSYDIR
 10
0.0
 20
1.0
 30
0.0
  9
$PUCSORTHOREF
  2

  9
$PUCSORTHOVIEW
 70
0
  9
$PUCSORGTOP
 10
0.0
 20
0.0
 30
0.0
  9
$PUCSORGBOTTOM
 10
0.0
 20
0.0
 30
0.0
  9
$PUCSORGLEFT
 10
0.0
 20
0.0
 30
0.0
  9
$PUCSORGRIGHT
 10
0.0
 20
0.0
 30
0.0
  9
$PUCSORGFRONT
 10
0.0
 20
0.0
 30
0.0
  9
$PUCSORGBACK
 10
0.0
 20
0.0
 30
0.0
  9
$USERI1
 70
0
  9
$USERI2
 70
0
  9
$USERI3
 70
0
  9
$USERI4
 70
0
  9
$USERI5
 70
0
  9
$USERR1
 40
0.0
  9
$USERR2
 40
0.0
  9
$USERR3
 40
0.0
  9
$USERR4
 40
0.0
  9
$USERR5
 40
0.0
  9
$WORLDVIEW
 70
1
  9
$SHADEDGE
 70
3
  9
$SHADEDIF
 70
70
  9
$TILEMODE
 70
1
  9
$MAXACTVP
 70
64
  9
$PINSBASE
 10
0.0
 20
0.0
 30
0.0
  9
$PLIMCHECK
 70
0
  9
$PEXTMIN
 10
1e+20
 20
1e+20
 30
1e+20
  9
$PEXTMAX
 10
-1e+20
 20
-1e+20
 30
-1e+20
  9
$PLIMMIN
 10
0.0
 20
0.0
  9
$PLIMMAX
 10
12.0
 20
9.0
  9
$UNITMODE
 70
0
  9
$VISRETAIN
 70
1
  9
$PLINEGEN
 70
1
  9
$PSLTSCALE
 70
1
  9
$TREEDEPTH
 70
3020
  9
$CMLSTYLE
  2
Standard
  9
$CMLJUST
 70
0
  9
$CMLSCALE
 40
1.0
  9
$PROXYGRAPHICS
 70
1
  9
$MEASUREMENT
 70
0
  9
$CELWEIGHT
370
-1
  9
$ENDCAPS
280
0
  9
$JOINSTYLE
280
0
  9
$LWDISPLAY
290
0
  9
$INSUNITS
 70
0
  9
$HYPERLINKBASE
  1

  9
$STYLESHEET
  1

  9
$XEDIT
290
1
  9
$CEPSNTYPE
380
0
  9
$PSTYLEMODE
290
1
  9
$FINGERPRINTGUID
  2
{8335E53D-DF78-4F49-91FF-CDF50B633CD0}
  9
$VERSIONGUID
  2
{2A9FAE1C-CE81-4A5B-A21E-33471FEFA65B}
  9
$EXTNAMES
290
1
  9
$PSVPSCALE
 40
0.0
  9
$OLESTARTUP
290
0
  9
$SORTENTS
280
127
  9
$INDEXCTL
280
0
  9
$HIDETEXT
280
0
  9
$XCLIPFRAME
280
2
  9
$HALOGAP
280
0
  9
$OBSCOLOR
 70
257
  9
$OBSLTYPE
280
0
  9
$INTERSECTIONDISPLAY
280
0
  9
$INTERSECTIONCOLOR
 70
257
  9
$DIMASSOC
280
1
  9
$PROJECTNAME
  1

  9
$CAMERADISPLAY
290
0
  9
$LENSLENGTH
 40
50.0
  9
$CAMERAHEIGHT
 40
0.0
  9
$STEPSPERSEC
 40
2.0
  9
$STEPSIZE
 40
6.0
  9
$3DDWFPREC
 40
2.0
  9
$PSOLWIDTH
 40
0.25
  9
$PSOLHEIGHT
 40
4.0
  9
$LOFTANG1
 40
1.570796326794896
  9
$LOFTANG2
 40
1.570796326794896
  9
$LOFTMAG1
 40
0.0
  9
$LOFTMAG2
 40
0.0
  9
$LOFTPARAM
 70
7
  9
$LOFTNORMALS
280
1
  9
$LATITUDE
 40
37.795
  9
$LONGITUDE
 40
-122.394
  9
$NORTHDIRECTION
 40
0.0
  9
$TIMEZONE
 70
-8000
  9
$LIGHTGLYPHDISPLAY
280
1
  9
$TILEMODELIGHTSYNCH
280
1
  9
$CMATERIAL
347
11
  9
$SOLIDHIST
280
0
  9
$SHOWHIST
280
1
  9
$DWFFRAME
280
2
  9
$DGNFRAME
280
0
  9
$REALWORLDSCALE
290
1
  9
$INTERFERECOLOR
 62
1
  9
$INTERFEREOBJVS
345
33
  9
$INTERFEREVPVS
346
30
  9
$CSHADOW
280
0
  9
$SHADOWPLANELOCATION
 40
0.0
  0
ENDSEC
  0
SECTION
  2
CLASSES
  0
CLASS
  1
ACDBDICTIONARYWDFLT
  2
AcDbDictionaryWithDefault
  3
ObjectDBX Classes
 90
0
 91
1
280
0
281
0
  0
CLASS
  1
MATERIAL
  2
AcDbMaterial
  3
ObjectDBX Classes
 90
1153
 91
3
280
0
281
0
  0
CLASS
  1
VISUALSTYLE
  2
AcDbVisualStyle
  3
ObjectDBX Classes
 90
4095
 91
24
280
0
281
0
  0
CLASS
  1
SCALE
  2
AcDbScale
  3
ObjectDBX Classes
 90
1153
 91
17
280
0
281
0
  0
CLASS
  1
TABLESTYLE
  2
AcDbTableStyle
  3
ObjectDBX Classes
 90
4095
 91
1
280
0
281
0
  0
CLASS
  1
MLEADERSTYLE
  2
AcDbMLeaderStyle
  3
ACDB_MLEADERSTYLE_CLASS
 90
4095
 91
1
280
0
281
0
  0
CLASS
  1
ACDBSECTIONVIEWSTYLE
  2
AcDbSectionViewStyle
  3
ObjectDBX Classes
 90
1025
 91
1
280
0
281
0
  0
CLASS
  1
ACDBDETAILVIEWSTYLE
  2
AcDbDetailViewStyle
  3
ObjectDBX Classes
 90
1025
 91
1
280
0
281
0
  0
CLASS
  1
DICTIONARYVAR
  2
AcDbDictionaryVar
  3
ObjectDBX Classes
 90
0
 91
10
280
0
281
0
  0
CLASS
  1
CELLSTYLEMAP
  2
AcDbCellStyleMap
  3
ObjectDBX Classes
 90
1152
 91
1
280
0
281
0
  0
CLASS
  1
SUN
  2
AcDbSun
  3
SCENEOE
 90
1153
 91
0
280
0
281
0
  0
CLASS
  1
MENTALRAYRENDERSETTINGS
  2
AcDbMentalRayRenderSettings
  3
SCENEOE
 90
1024
 91
0
280
0
281
0
  0
CLASS
  1
RASTERVARIABLES
  2
AcDbRasterVariables
  3
ISM
 90
0
 91
0
280
0
281
0
  0
CLASS
  1
ACDBPLACEHOLDER
  2
AcDbPlaceHolder
  3
ObjectDBX Classes
 90
0
 91
0
280
0
281
0
  0
CLASS
  1
LAYOUT
  2
AcDbLayout
  3
ObjectDBX Classes
 90
0
 91
0
280
0
281
0
  0
ENDSEC
  0
SECTION
  2
TABLES
  0
TABLE
  2
VPORT
  5
8
330
0
100
AcDbSymbolTable
 70
1
  0
VPORT
  5
84
330
8
100
AcDbSymbolTableRecord
100
AcDbViewportTableRecord
  2
*Active
 70
0
 10
0.0
 20
0.0
 11
1.0
 21
1.0
 12
420.5000019581056
 22
297.000001383014
 13
0.0
 23
0.0
 14
1.0
 24
1.0
 15
0.0
 25
0.0
 16
0.0
 26
0.0
 36
1.0
 17
0.0
 27
0.0
 37
0.0
 40
596.1048663334045
 41
2.215447154471544
 42
50.0
 43
0.0
 44
0.0
 50
0.0
 51
0.0
 71
0
 72
100
 73
1
 74
1
 75
0
 76
0
 77
0
 78
0
281
0
 65
1
110
0.0
120
0.0
130
0.0
111
1.0
121
0.0
131
0.0
112
0.0
122
1.0
132
0.0
 79
0
146
0.0
 60
3
 61
5
348
2F
292
1
282
1
141
0.0
142
0.0
 63
250
421
3355443
1001
ACAD_NAV_VCDISPLAY
1070
3
  0
ENDTAB
  0
TABLE
  2
LTYPE
  5
5
330
0
100
AcDbSymbolTable
 70
17
  0
LTYPE
  5
5A
330
5
100
AcDbSymbolTableRecord
100
AcDbLinetypeTableRecord
  2
ByBlock
 70
0
  3

 72
65
 73
0
 40
0.0
  0
LTYPE
  5
5B
330
5
100
AcDbSymbolTableRecord
100
AcDbLinetypeTableRecord
  2
ByLayer
 70
0
  3

 72
65
 73
0
 40
0.0
  0
LTYPE
  5
5C
330
5
100
AcDbSymbolTableRecord
100
AcDbLinetypeTableRecord
  2
Continuous
 70
0
  3
Solid line
 72
65
 73
0
 40
0.0
  0
LTYPE
  5
74
330
5
100
AcDbSymbolTableRecord
100
AcDbLinetypeTableRecord
  2
GTSOLID
 70
0
  3
GTSOLID
 72
65
 73
0
 40
24.0
  0
LTYPE
  5
75
330
5
100
AcDbSymbolTableRecord
100
AcDbLinetypeTableRecord
  2
GTDASH
 70
0
  3
GTDASH
 72
65
 73
2
 40
12.0
 49
8.0
 74
0
 49
-4.0
 74
0
  0
LTYPE
  5
76
330
5
100
AcDbSymbolTableRecord
100
AcDbLinetypeTableRecord
  2
GTDOT
 70
0
  3
GTDOT
 72
65
 73
2
 40
6.0
 49
1.6
 74
0
 49
-4.4
 74
0
  0
LTYPE
  5
77
330
5
100
AcDbSymbolTableRecord
100
AcDbLinetypeTableRecord
  2
GTCHAIN
 70
0
  3
GTCHAIN
 72
65
 73
4
 40
24.0
 49
16.0
 74
0
 49
-3.2
 74
0
 49
1.6
 74
0
 49
-3.2
 74
0
  0
LTYPE
  5
78
330
5
100
AcDbSymbolTableRecord
100
AcDbLinetypeTableRecord
  2
GTLDASH
 70
0
  3
GTLDASH
 72
65
 73
2
 40
18.0
 49
14.4
 74
0
 49
-3.6
 74
0
  0
LTYPE
  5
79
330
5
100
AcDbSymbolTableRecord
100
AcDbLinetypeTableRecord
  2
GTDDASH
 70
0
  3
GTDDASH
 72
65
 73
6
 40
22.0
 49
0.251429
 74
0
 49
-3.017139999999999
 74
0
 49
6.285709999999999
 74
0
 49
-3.142859999999999
 74
0
 49
6.285709999999999
 74
0
 49
-3.017139999999999
 74
0
  0
LTYPE
  5
7A
330
5
100
AcDbSymbolTableRecord
100
AcDbLinetypeTableRecord
  2
GTDDOT
 70
0
  3
GTDDOT
 72
65
 73
6
 40
16.0
 49
6.34921
 74
0
 49
-3.04762
 74
0
 49
0.253968
 74
0
 49
-3.04762
 74
0
 49
0.253968
 74
0
 49
-3.04762
 74
0
  0
LTYPE
  5
7B
330
5
100
AcDbSymbolTableRecord
100
AcDbLinetypeTableRecord
  2
GTDCHAIN
 70
0
  3
GTDCHAIN
 72
65
 73
6
 40
30.0
 49
14.6939
 74
0
 49
-3.06122
 74
0
 49
3.06122
 74
0
 49
-3.06122
 74
0
 49
3.06122
 74
0
 49
-3.06122
 74
0
  0
LTYPE
  5
7C
330
5
100
AcDbSymbolTableRecord
100
AcDbLinetypeTableRecord
  2
GTFDOT
 70
0
  3
GTFDOT
 72
65
 73
2
 40
3.0
 49
0.24
 74
0
 49
-2.759999999999999
 74
0
  0
LTYPE
  5
7D
330
5
100
AcDbSymbolTableRecord
100
AcDbLinetypeTableRecord
  2
GTTCHAIN
 70
0
  3
GTTCHAIN
 72
65
 73
8
 40
45.0
 49
24.0
 74
0
 49
-3.0
 74
0
 49
3.0
 74
0
 49
-3.0
 74
0
 49
3.0
 74
0
 49
-3.0
 74
0
 49
3.0
 74
0
 49
-3.0
 74
0
  0
LTYPE
  5
7E
330
5
100
AcDbSymbolTableRecord
100
AcDbLinetypeTableRecord
  2
GT110
 70
0
  3
GT110
 72
65
 73
2
 40
3.0
 49
2.0
 74
0
 49
-1.0
 74
0
  0
LTYPE
  5
7F
330
5
100
AcDbSymbolTableRecord
100
AcDbLinetypeTableRecord
  2
GT101
 70
0
  3
GT101
 72
65
 73
2
 40
3.0
 49
2.0
 74
0
 49
-1.0
 74
0
  0
LTYPE
  5
80
330
5
100
AcDbSymbolTableRecord
100
AcDbLinetypeTableRecord
  2
GT100
 70
0
  3
GT100
 72
65
 73
2
 40
1.0
 49
0.666667
 74
0
 49
-0.333333
 74
0
  0
LTYPE
  5
81
330
5
100
AcDbSymbolTableRecord
100
AcDbLinetypeTableRecord
  2
GT111
 70
0
  3
GT111
 72
65
 73
4
 40
6.0
 49
4.0
 74
0
 49
-0.8
 74
0
 49
0.4
 74
0
 49
-0.8
 74
0
  0
ENDTAB
  0
TABLE
  2
LAYER
  5
2
330
0
100
AcDbSymbolTable
 70
3
  0
LAYER
  5
54
102
{ACAD_XDICTIONARY
360
90A
102
}
330
2
100
AcDbSymbolTableRecord
100
AcDbLayerTableRecord
  2
0
 70
0
 62
7
  6
Continuous
370
-3
390
F
347
21
348
0
  0
LAYER
  5
85
102
{ACAD_XDICTIONARY
360
90C
102
}
330
2
100
AcDbSymbolTableRecord
100
AcDbLayerTableRecord
  2
GT_1
 70
0
 62
7
  6
Continuous
370
-3
390
F
347
21
348
0
  0
LAYER
  5
91F
330
2
100
AcDbSymbolTableRecord
100
AcDbLayerTableRecord
  2
Defpoints
 70
0
 62
7
  6
Continuous
290
0
370
-3
390
F
347
21
  0
ENDTAB
  0
TABLE
  2
STYLE
  5
3
330
0
100
AcDbSymbolTable
 70
3
  0
STYLE
  5
55
330
3
100
AcDbSymbolTableRecord
100
AcDbTextStyleTableRecord
  2
Standard
 70
0
 40
0.0
 41
1.0
 50
0.0
 71
0
 42
0.2
  3
txt
  4

  0
STYLE
  5
59
330
3
100
AcDbSymbolTableRecord
100
AcDbTextStyleTableRecord
  2
Annotative
 70
0
 40
0.0
 41
1.0
 50
0.0
 71
0
 42
0.2
  3
txt
  4

1001
AcadAnnotative
1000
AnnotativeData
1002
{
1070
1
1070
1
1002
}
  0
STYLE
  5
73
330
3
100
AcDbSymbolTableRecord
100
AcDbTextStyleTableRecord
  2
HTX1
 70
0
 40
0.0
 41
1.02
 50
0.0
 71
0
 42
1.0
  3
O8116901
  4

  0
ENDTAB
  0
TABLE
  2
VIEW
  5
6
330
0
100
AcDbSymbolTable
 70
0
  0
ENDTAB
  0
TABLE
  2
UCS
  5
7
330
0
100
AcDbSymbolTable
 70
0
  0
ENDTAB
  0
TABLE
  2
APPID
  5
9
330
0
100
AcDbSymbolTable
 70
5
  0
APPID
  5
56
330
9
100
AcDbSymbolTableRecord
100
AcDbRegAppTableRecord
  2
ACAD
 70
0
  0
APPID
  5
5D
330
9
100
AcDbSymbolTableRecord
100
AcDbRegAppTableRecord
  2
AcadAnnotative
 70
0
  0
APPID
  5
917
330
9
100
AcDbSymbolTableRecord
100
AcDbRegAppTableRecord
  2
ACAD_NAV_VCDISPLAY
 70
0
  0
APPID
  5
928
330
9
100
AcDbSymbolTableRecord
100
AcDbRegAppTableRecord
  2
HATCHBACKGROUNDCOLOR
 70
0
  0
APPID
  5
929
330
9
100
AcDbSymbolTableRecord
100
AcDbRegAppTableRecord
  2
EZDXF
 70
0
  0
ENDTAB
  0
TABLE
  2
DIMSTYLE
  5
A
330
0
100
AcDbSymbolTable
 70
2
100
AcDbDimStyleTable
  0
DIMSTYLE
105
57
330
A
100
AcDbSymbolTableRecord
100
AcDbDimStyleTableRecord
  2
Standard
 70
0
 40
1.0
 41
2.5
 42
0.625
 43
3.75
 44
1.25
 45
0.0
 46
0.0
 47
0.0
 48
0.0
 49
2.5
140
2.5
141
2.5
142
0.0
143
0.03937007874
144
1.0
145
0.0
146
1.0
147
0.625
148
0.0
 69
0
 70
0
 71
0
 72
0
 73
0
 74
0
 75
0
 76
0
 77
1
 78
8
 79
3
170
0
171
3
172
1
173
0
174
0
175
0
176
0
177
0
178
0
179
2
271
2
272
2
273
2
274
3
275
0
276
0
277
2
278
44
279
0
280
0
281
0
282
0
283
0
284
8
285
0
286
0
288
0
289
3
290
0
340
55
371
-2
372
-2
  0
DIMSTYLE
105
58
330
A
100
AcDbSymbolTableRecord
100
AcDbDimStyleTableRecord
  2
Annotative
 70
0
 40
1.0
 41
2.5
 42
0.625
 43
3.75
 44
1.25
 45
0.0
 46
0.0
 47
0.0
 48
0.0
 49
2.5
140
2.5
141
2.5
142
0.0
143
0.03937007874
144
1.0
145
0.0
146
1.0
147
0.625
148
0.0
 69
0
 70
0
 71
0
 72
0
 73
0
 74
0
 75
0
 76
0
 77
1
 78
8
 79
3
170
0
171
3
172
1
173
0
174
0
175
0
176
0
177
0
178
0
179
2
271
2
272
2
273
2
274
3
275
0
276
0
277
2
278
44
279
0
280
0
281
0
282
0
283
0
284
8
285
0
286
0
288
0
289
3
290
0
340
55
371
-2
372
-2
1001
AcadAnnotative
1000
AnnotativeData
1002
{
1070
1
1070
1
1002
}
  0
ENDTAB
  0
TABLE
  2
BLOCK_RECORD
  5
1
330
0
100
AcDbSymbolTable
 70
2
  0
BLOCK_RECORD
  5
6F
330
1
100
AcDbSymbolTableRecord
100
AcDbBlockTableRecord
  2
*Model_Space
340
72
 70
0
280
1
281
0
  0
BLOCK_RECORD
  5
6B
330
1
100
AcDbSymbolTableRecord
100
AcDbBlockTableRecord
  2
*Paper_Space
340
6E
 70
0
280
1
281
0
  0
ENDTAB
  0
ENDSEC
  0
SECTION
  2
BLOCKS
  0
BLOCK
  5
70
330
6F
100
AcDbEntity
  8
0
100
AcDbBlockBegin
  2
*Model_Space
 70
0
 10
0.0
 20
0.0
 30
0.0
  3
*Model_Space
  1

  0
ENDBLK
  5
71
330
6F
100
AcDbEntity
  8
0
100
AcDbBlockEnd
  0
BLOCK
  5
6C
330
6B
100
AcDbEntity
 67
1
  8
0
100
AcDbBlockBegin
  2
*Paper_Space
 70
0
 10
0.0
 20
0.0
 30
0.0
  3
*Paper_Space
  1

  0
ENDBLK
  5
6D
330
6B
100
AcDbEntity
 67
1
  8
0
100
AcDbBlockEnd
  0
ENDSEC
  0
SECTION
  2
ENTITIES
  0
LWPOLYLINE
  5
86
330
6F
100
AcDbEntity
  8
GT_1
100
AcDbPolyline
 90
5
 70
128
 10
830.0
 20
12.0
 10
830.0
 20
584.0
 10
616.7
 20
584.0
 10
616.7
 20
12.0
 10
830.0
 20
12.0
  0
TEXT
  5
8D
330
6F
100
AcDbEntity
  8
GT_1
100
AcDbText
 10
620.129
 20
578.286
 30
0.0
 40
3.0
  1
FABRICATION MATERIALS
  7
HTX1
 41
1.02
100
AcDbText
  0
LWPOLYLINE
  5
8E
330
6F
100
AcDbEntity
  8
GT_1
100
AcDbPolyline
 90
2
 70
128
 10
616.7
 20
572.571
 10
830.0
 20
572.571
  0
TEXT
  5
92
330
6F
100
AcDbEntity
  8
GT_1
100
AcDbText
 10
620.129
 20
566.8569999999999
 30
0.0
 40
3.0
  1
PT
  7
HTX1
 41
1.02
100
AcDbText
  0
TEXT
  5
93
330
6F
100
AcDbEntity
  8
GT_1
100
AcDbText
 10
620.129
 20
561.4289999999999
 30
0.0
 40
3.0
  1
NO
  7
HTX1
 41
1.02
100
AcDbText
  0
TEXT
  5
94
330
6F
100
AcDbEntity
  8
GT_1
100
AcDbText
 10
628.357
 20
566.8569999999999
 30
0.0
 40
3.0
  1
ITEM
  7
HTX1
 41
1.02
100
AcDbText
  0
TEXT
  5
95
330
6F
100
AcDbEntity
  8
GT_1
100
AcDbText
 10
659.2139999999999
 20
566.8569999999999
 30
0.0
 40
3.0
  1
MATERIAL
  7
HTX1
 41
1.02
100
AcDbText
  0
TEXT
  5
96
330
6F
100
AcDbEntity
  8
GT_1
100
AcDbText
 10
692.1289999999999
 20
566.8569999999999
 30
0.0
 40
3.0
  1
SIZE (DN)
  7
HTX1
 41
1.02
100
AcDbText
  0
TEXT
  5
97
330
6F
100
AcDbEntity
  8
GT_1
100
AcDbText
 10
714.757
 20
566.8569999999999
 30
0.0
 40
3.0
  1
DESCRIPTION
  7
HTX1
 41
1.02
100
AcDbText
  0
TEXT
  5
98
330
6F
100
AcDbEntity
  8
GT_1
100
AcDbText
 10
760.0139999999998
 20
566.8569999999999
 30
0.0
 40
3.0
  1
QTY
  7
HTX1
 41
1.02
100
AcDbText
  0
TEXT
  5
99
330
6F
100
AcDbEntity
  8
GT_1
100
AcDbText
 10
760.0139999999998
 20
561.4289999999999
 30
0.0
 40
3.0
  1
[MM,EA]
  7
HTX1
 41
1.02
100
AcDbText
  0
TEXT
  5
9A
330
6F
100
AcDbEntity
  8
GT_1
100
AcDbText
 10
778.5289999999999
 20
566.8569999999999
 30
0.0
 40
3.0
  1
UNIT
  7
HTX1
 41
1.02
100
AcDbText
  0
TEXT
  5
9B
330
6F
100
AcDbEntity
  8
GT_1
100
AcDbText
 10
778.5289999999999
 20
561.4289999999999
 30
0.0
 40
3.0
  1
W.T
  7
HTX1
 41
1.02
100
AcDbText
  0
TEXT
  5
9C
330
6F
100
AcDbEntity
  8
GT_1
100
AcDbText
 10
794.9860000000001
 20
566.8569999999999
 30
0.0
 40
3.0
  1
TOTAL
  7
HTX1
 41
1.02
100
AcDbText
  0
TEXT
  5
9D
330
6F
100
AcDbEntity
  8
GT_1
100
AcDbText
 10
794.9860000000001
 20
561.4289999999999
 30
0.0
 40
3.0
  1
W.T
  7
HTX1
 41
1.02
100
AcDbText
  0
TEXT
  5
9E
330
6F
100
AcDbEntity
  8
GT_1
100
AcDbText
 10
813.4999999999999
 20
566.8569999999999
 30
0.0
 40
3.0
  1
 REMARK
  7
HTX1
 41
1.02
100
AcDbText
  0
LWPOLYLINE
  5
9F
330
6F
100
AcDbEntity
  8
GT_1
100
AcDbPolyline
 90
2
 70
128
 10
616.7
 20
558.1169999999998
 10
830.0
 20
558.1169999999998
  0
TEXT
  5
A3
330
6F
100
AcDbEntity
  8
GT_1
100
AcDbText
 10
620.129
 20
549.714
 30
0.0
 40
3.0
  1
  1
  7
HTX1
 41
1.02
100
AcDbText
  0
TEXT
  5
A4
330
6F
100
AcDbEntity
  8
GT_1
100
AcDbText
 10
628.357
 20
549.714
 30
0.0
 40
3.0
  1
PIPE
  7
HTX1
 41
1.02
100
AcDbText
  0
TEXT
  5
A5
330
6F
100
AcDbEntity
  8
GT_1
100
AcDbText
 10
659.2139999999999
 20
549.714
 30
0.0
 40
3.0
  1
A53-B
  7
HTX1
 41
1.02
100
AcDbText
  0
TEXT
  5
A6
330
6F
100
AcDbEntity
  8
GT_1
100
AcDbText
 10
692.1289999999999
 20
549.714
 30
0.0
 40
3.0
  1
100
  7
HTX1
 41
1.02
100
AcDbText
  0
TEXT
  5
A7
330
6F
100
AcDbEntity
  8
GT_1
100
AcDbText
 10
714.757
 20
549.714
 30
0.0
 40
3.0
  1
ERW BE SCH40
  7
HTX1
 41
1.02
100
AcDbText
  0
TEXT
  5
A8
330
6F
100
AcDbEntity
  8
GT_1
100
AcDbText
 10
760.0139999999998
 20
549.714
 30
0.0
 40
3.0
  1
27796
  7
HTX1
 41
1.02
100
AcDbText
  0
TEXT
  5
A9
330
6F
100
AcDbEntity
  8
GT_1
100
AcDbText
 10
778.5289999999999
 20
549.714
 30
0.0
 40
3.0
  1
16.4
  7
HTX1
 41
1.02
100
AcDbText
  0
TEXT
  5
AA
330
6F
100
AcDbEntity
  8
GT_1
100
AcDbText
 10
794.9860000000001
 20
549.714
 30
0.0
 40
3.0
  1
 455.85
  7
HTX1
 41
1.02
100
AcDbText
  0
TEXT
  5
AB
330
6F
100
AcDbEntity
  8
GT_1
100
AcDbText
 10
620.129
 20
544.0
 30
0.0
 40
3.0
  1
  2
  7
HTX1
 41
1.02
100
AcDbText
  0
TEXT
  5
AC
330
6F
100
AcDbEntity
  8
GT_1
100
AcDbText
 10
628.357
 20
544.0
 30
0.0
 40
3.0
  1
90 ELBOW
  7
HTX1
 41
1.02
100
AcDbText
  0
TEXT
  5
AD
330
6F
100
AcDbEntity
  8
GT_1
100
AcDbText
 10
659.2139999999999
 20
544.0
 30
0.0
 40
3.0
  1
A234-WPB
  7
HTX1
 41
1.02
100
AcDbText
  0
TEXT
  5
AE
330
6F
100
AcDbEntity
  8
GT_1
100
AcDbText
 10
692.1289999999999
 20
544.0
 30
0.0
 40
3.0
  1
100
  7
HTX1
 41
1.02
100
AcDbText
  0
TEXT
  5
AF
330
6F
100
AcDbEntity
  8
GT_1
100
AcDbText
 10
714.757
 20
544.0
 30
0.0
 40
3.0
  1
WELDED BW SCH40
  7
HTX1
 41
1.02
100
AcDbText
  0
TEXT
  5
B0
330
6F
100
AcDbEntity
  8
GT_1
100
AcDbText
 10
760.0139999999998
 20
544.0
 30
0.0
 40
3.0
  1
4
  7
HTX1
 41
1.02
100
AcDbText
  0
TEXT
  5
B1
330
6F
100
AcDbEntity
  8
GT_1
100
AcDbText
 10
778.5289999999999
 20
544.0
 30
0.0
 40
3.0
  1
3.84
  7
HTX1
 41
1.02
100
AcDbText
  0
TEXT
  5
B2
330
6F
100
AcDbEntity
  8
GT_1
100
AcDbText
 10
794.9860000000001
 20
544.0
 30
0.0
 40
3.0
  1
  15.36
  7
HTX1
 41
1.02
100
AcDbText
  0
TEXT
  5
B3
330
6F
100
AcDbEntity
  8
GT_1
100
AcDbText
 10
620.129
 20
538.286
 30
0.0
 40
3.0
  1
  3
  7
HTX1
 41
1.02
100
AcDbText
  0
TEXT
  5
B4
330
6F
100
AcDbEntity
  8
GT_1
100
AcDbText
 10
628.357
 20
538.286
 30
0.0
 40
3.0
  1
CAP
  7
HTX1
 41
1.02
100
AcDbText
  0
TEXT
  5
B5
330
6F
100
AcDbEntity
  8
GT_1
100
AcDbText
 10
659.2139999999999
 20
538.286
 30
0.0
 40
3.0
  1
A234-WPB
  7
HTX1
 41
1.02
100
AcDbText
  0
TEXT
  5
B6
330
6F
100
AcDbEntity
  8
GT_1
100
AcDbText
 10
692.1289999999999
 20
538.286
 30
0.0
 40
3.0
  1
100
  7
HTX1
 41
1.02
100
AcDbText
  0
TEXT
  5
B7
330
6F
100
AcDbEntity
  8
GT_1
100
AcDbText
 10
714.757
 20
538.286
 30
0.0
 40
3.0
  1
WELDED BW SCH40
  7
HTX1
 41
1.02
100
AcDbText
  0
TEXT
  5
B8
330
6F
100
AcDbEntity
  8
GT_1
100
AcDbText
 10
760.0139999999998
 20
538.286
 30
0.0
 40
3.0
  1
1
  7
HTX1
 41
1.02
100
AcDbText
  0
TEXT
  5
B9
330
6F
100
AcDbEntity
  8
GT_1
100
AcDbText
 10
778.5289999999999
 20
538.286
 30
0.0
 40
3.0
  1
1.17
  7
HTX1
 41
1.02
100
AcDbText
  0
TEXT
  5
BA
330
6F
100
AcDbEntity
  8
GT_1
100
AcDbText
 10
794.9860000000001
 20
538.286
 30
0.0
 40
3.0
  1
   1.17
  7
HTX1
 41
1.02
100
AcDbText
  0
TEXT
  5
BB
330
6F
100
AcDbEntity
  8
GT_1
100
AcDbText
 10
620.129
 20
532.5709999999999
 30
0.0
 40
3.0
  1
  4
  7
HTX1
 41
1.02
100
AcDbText
  0
TEXT
  5
BC
330
6F
100
AcDbEntity
  8
GT_1
100
AcDbText
 10
628.357
 20
532.5709999999999
 30
0.0
 40
3.0
  1
SOCKOLET
  7
HTX1
 41
1.02
100
AcDbText
  0
TEXT
  5
BD
330
6F
100
AcDbEntity
  8
GT_1
100
AcDbText
 10
659.2139999999999
 20
532.5709999999999
 30
0.0
 40
3.0
  1
A105
  7
HTX1
 41
1.02
100
AcDbText
  0
TEXT
  5
BE
330
6F
100
AcDbEntity
  8
GT_1
100
AcDbText
 10
692.1289999999999
 20
532.5709999999999
 30
0.0
 40
3.0
  1
100 x 50
  7
HTX1
 41
1.02
100
AcDbText
  0
TEXT
  5
BF
330
6F
100
AcDbEntity
  8
GT_1
100
AcDbText
 10
714.757
 20
532.5709999999999
 30
0.0
 40
3.0
  1
SW #3000
  7
HTX1
 41
1.02
100
AcDbText
  0
TEXT
  5
C0
330
6F
100
AcDbEntity
  8
GT_1
100
AcDbText
 10
760.0139999999998
 20
532.5709999999999
 30
0.0
 40
3.0
  1
3
  7
HTX1
 41
1.02
100
AcDbText
  0
TEXT
  5
C1
330
6F
100
AcDbEntity
  8
GT_1
100
AcDbText
 10
778.5289999999999
 20
532.5709999999999
 30
0.0
 40
3.0
  1
0.73
  7
HTX1
 41
1.02
100
AcDbText
  0
TEXT
  5
C2
330
6F
100
AcDbEntity
  8
GT_1
100
AcDbText
 10
794.9860000000001
 20
532.5709999999999
 30
0.0
 40
3.0
  1
   2.19
  7
HTX1
 41
1.02
100
AcDbText
  0
LWPOLYLINE
  5
C3
330
6F
100
AcDbEntity
  8
GT_1
100
AcDbPolyline
 90
2
 70
128
 10
616.7
 20
529.5449999999998
 10
830.0
 20
529.5449999999998
  0
LWPOLYLINE
  5
C7
330
6F
100
AcDbEntity
  8
GT_1
100
AcDbPolyline
 90
2
 70
128
 10
627.3290000000001
 20
572.571
 10
627.3290000000001
 20
529.5449999999998
  0
LWPOLYLINE
  5
CB
330
6F
100
AcDbEntity
  8
GT_1
100
AcDbPolyline
 90
2
 70
128
 10
658.186
 20
572.571
 10
658.186
 20
529.5449999999998
  0
LWPOLYLINE
  5
CF
330
6F
100
AcDbEntity
  8
GT_1
100
AcDbPolyline
 90
2
 70
128
 10
691.1
 20
572.571
 10
691.1
 20
529.5449999999998
  0
LWPOLYLINE
  5
D3
330
6F
100
AcDbEntity
  8
GT_1
100
AcDbPolyline
 90
2
 70
128
 10
713.7289999999999
 20
572.571
 10
713.7289999999999
 20
529.5449999999998
  0
LWPOLYLINE
  5
D7
330
6F
100
AcDbEntity
  8
GT_1
100
AcDbPolyline
 90
2
 70
128
 10
758.9860000000001
 20
572.571
 10
758.9860000000001
 20
529.5449999999998
  0
LWPOLYLINE
  5
DB
330
6F
100
AcDbEntity
  8
GT_1
100
AcDbPolyline
 90
2
 70
128
 10
777.5
 20
572.571
 10
777.5
 20
529.5449999999998
  0
LWPOLYLINE
  5
DF
330
6F
100
AcDbEntity
  8
GT_1
100
AcDbPolyline
 90
2
 70
128
 10
793.9569999999999
 20
572.571
 10
793.9569999999999
 20
529.5449999999998
  0
LWPOLYLINE
  5
E3
330
6F
100
AcDbEntity
  8
GT_1
100
AcDbPolyline
 90
2
 70
128
 10
812.471
 20
572.571
 10
812.471
 20
529.5449999999998
  0
TEXT
  5
E7
330
6F
100
AcDbEntity
  8
GT_1
100
AcDbText
 10
743.557
 20
521.143
 30
0.0
 40
3.0
  1
TOTAL FABRICATION WEIGHT
  7
HTX1
 41
1.02
100
AcDbText
  0
TEXT
  5
E8
330
6F
100
AcDbEntity
  8
GT_1
100
AcDbText
 10
794.9860000000001
 20
521.143
 30
0.0
 40
3.0
  1
 474.57
  7
HTX1
 41
1.02
100
AcDbText
  0
TEXT
  5
E9
330
6F
100
AcDbEntity
  8
GT_1
100
AcDbText
 10
620.129
 20
509.714
 30
0.0
 40
3.0
  1
ERECTION MATERIALS
  7
HTX1
 41
1.02
100
AcDbText
  0
LWPOLYLINE
  5
EA
330
6F
100
AcDbEntity
  8
GT_1
100
AcDbPolyline
 90
2
 70
128
 10
616.7
 20
504.0
 10
830.0
 20
504.0
  0
TEXT
  5
EE
330
6F
100
AcDbEntity
  8
GT_1
100
AcDbText
 10
620.129
 20
498.286
 30
0.0
 40
3.0
  1
PT
  7
HTX1
 41
1.02
100
AcDbText
  0
TEXT
  5
EF
330
6F
100
AcDbEntity
  8
GT_1
100
AcDbText
 10
620.129
 20
492.8569999999999
 30
0.0
 40
3.0
  1
NO
  7
HTX1
 41
1.02
100
AcDbText
  0
TEXT
  5
F0
330
6F
100
AcDbEntity
  8
GT_1
100
AcDbText
 10
628.357
 20
498.286
 30
0.0
 40
3.0
  1
ITEM
  7
HTX1
 41
1.02
100
AcDbText
  0
TEXT
  5
F1
330
6F
100
AcDbEntity
  8
GT_1
100
AcDbText
 10
659.2139999999999
 20
498.286
 30
0.0
 40
3.0
  1
MATERIAL
  7
HTX1
 41
1.02
100
AcDbText
  0
TEXT
  5
F2
330
6F
100
AcDbEntity
  8
GT_1
100
AcDbText
 10
692.1289999999999
 20
498.286
 30
0.0
 40
3.0
  1
SIZE (DN)
  7
HTX1
 41
1.02
100
AcDbText
  0
TEXT
  5
F3
330
6F
100
AcDbEntity
  8
GT_1
100
AcDbText
 10
714.757
 20
498.286
 30
0.0
 40
3.0
  1
DESCRIPTION
  7
HTX1
 41
1.02
100
AcDbText
  0
TEXT
  5
F4
330
6F
100
AcDbEntity
  8
GT_1
100
AcDbText
 10
760.0139999999998
 20
498.286
 30
0.0
 40
3.0
  1
QTY
  7
HTX1
 41
1.02
100
AcDbText
  0
TEXT
  5
F5
330
6F
100
AcDbEntity
  8
GT_1
100
AcDbText
 10
760.0139999999998
 20
492.8569999999999
 30
0.0
 40
3.0
  1
[MM,EA]
  7
HTX1
 41
1.02
100
AcDbText
  0
TEXT
  5
F6
330
6F
100
AcDbEntity
  8
GT_1
100
AcDbText
 10
778.5289999999999
 20
498.286
 30
0.0
 40
3.0
  1
UNIT
  7
HTX1
 41
1.02
100
AcDbText
  0
TEXT
  5
F7
330
6F
100
AcDbEntity
  8
GT_1
100
AcDbText
 10
778.5289999999999
 20
492.8569999999999
 30
0.0
 40
3.0
  1
W.T
  7
HTX1
 41
1.02
100
AcDbText
  0
TEXT
  5
F8
330
6F
100
AcDbEntity
  8
GT_1
100
AcDbText
 10
794.9860000000001
 20
498.286
 30
0.0
 40
3.0
  1
TOTAL
  7
HTX1
 41
1.02
100
AcDbText
  0
TEXT
  5
F9
330
6F
100
AcDbEntity
  8
GT_1
100
AcDbText
 10
794.9860000000001
 20
492.8569999999999
 30
0.0
 40
3.0
  1
W.T
  7
HTX1
 41
1.02
100
AcDbText
  0
TEXT
  5
FA
330
6F
100
AcDbEntity
  8
GT_1
100
AcDbText
 10
813.4999999999999
 20
498.286
 30
0.0
 40
3.0
  1
 REMARK
  7
HTX1
 41
1.02
100
AcDbText
  0
LWPOLYLINE
  5
FB
330
6F
100
AcDbEntity
  8
GT_1
100
AcDbPolyline
 90
2
 70
128
 10
616.7
 20
489.545
 10
830.0
 20
489.545
  0
TEXT
  5
FF
330
6F
100
AcDbEntity
  8
GT_1
100
AcDbText
 10
620.129
 20
481.143
 30
0.0
 40
3.0
  1
  5
  7
HTX1
 41
1.02
100
AcDbText
  0
TEXT
  5
100
330
6F
100
AcDbEntity
  8
GT_1
100
AcDbText
 10
628.357
 20
481.143
 30
0.0
 40
3.0
  1
U-BOLT ANCHOR
  7
HTX1
 41
1.02
100
AcDbText
  0
TEXT
  5
101
330
6F
100
AcDbEntity
  8
GT_1
100
AcDbText
 10
659.2139999999999
 20
481.143
 30
0.0
 40
3.0
  1
unset
  7
HTX1
 41
1.02
100
AcDbText
  0
TEXT
  5
102
330
6F
100
AcDbEntity
  8
GT_1
100
AcDbText
 10
692.1289999999999
 20
481.143
 30
0.0
 40
3.0
  1
100
  7
HTX1
 41
1.02
100
AcDbText
  0
TEXT
  5
103
330
6F
100
AcDbEntity
  8
GT_1
100
AcDbText
 10
714.757
 20
481.143
 30
0.0
 40
3.0
  1
U-BOLT ANCHOR
  7
HTX1
 41
1.02
100
AcDbText
  0
TEXT
  5
104
330
6F
100
AcDbEntity
  8
GT_1
100
AcDbText
 10
760.0139999999998
 20
481.143
 30
0.0
 40
3.0
  1
1
  7
HTX1
 41
1.02
100
AcDbText
  0
TEXT
  5
105
330
6F
100
AcDbEntity
  8
GT_1
100
AcDbText
 10
778.5289999999999
 20
481.143
 30
0.0
 40
3.0
  1
-
  7
HTX1
 41
1.02
100
AcDbText
  0
TEXT
  5
106
330
6F
100
AcDbEntity
  8
GT_1
100
AcDbText
 10
794.9860000000001
 20
481.143
 30
0.0
 40
3.0
  1
   0.00
  7
HTX1
 41
1.02
100
AcDbText
  0
TEXT
  5
107
330
6F
100
AcDbEntity
  8
GT_1
100
AcDbText
 10
620.129
 20
475.429
 30
0.0
 40
3.0
  1
  6
  7
HTX1
 41
1.02
100
AcDbText
  0
TEXT
  5
108
330
6F
100
AcDbEntity
  8
GT_1
100
AcDbText
 10
628.357
 20
475.429
 30
0.0
 40
3.0
  1
U-BOLT GUIDE
  7
HTX1
 41
1.02
100
AcDbText
  0
TEXT
  5
109
330
6F
100
AcDbEntity
  8
GT_1
100
AcDbText
 10
659.2139999999999
 20
475.429
 30
0.0
 40
3.0
  1
unset
  7
HTX1
 41
1.02
100
AcDbText
  0
TEXT
  5
10A
330
6F
100
AcDbEntity
  8
GT_1
100
AcDbText
 10
692.1289999999999
 20
475.429
 30
0.0
 40
3.0
  1
100
  7
HTX1
 41
1.02
100
AcDbText
  0
TEXT
  5
10B
330
6F
100
AcDbEntity
  8
GT_1
100
AcDbText
 10
760.0139999999998
 20
475.429
 30
0.0
 40
3.0
  1
7
  7
HTX1
 41
1.02
100
AcDbText
  0
TEXT
  5
10C
330
6F
100
AcDbEntity
  8
GT_1
100
AcDbText
 10
778.5289999999999
 20
475.429
 30
0.0
 40
3.0
  1
-
  7
HTX1
 41
1.02
100
AcDbText
  0
TEXT
  5
10D
330
6F
100
AcDbEntity
  8
GT_1
100
AcDbText
 10
794.9860000000001
 20
475.429
 30
0.0
 40
3.0
  1
   0.00
  7
HTX1
 41
1.02
100
AcDbText
  0
LWPOLYLINE
  5
10E
330
6F
100
AcDbEntity
  8
GT_1
100
AcDbPolyline
 90
2
 70
128
 10
616.7
 20
472.402
 10
830.0
 20
472.402
  0
LWPOLYLINE
  5
112
330
6F
100
AcDbEntity
  8
GT_1
100
AcDbPolyline
 90
2
 70
128
 10
627.3290000000001
 20
504.0
 10
627.3290000000001
 20
472.402
  0
LWPOLYLINE
  5
116
330
6F
100
AcDbEntity
  8
GT_1
100
AcDbPolyline
 90
2
 70
128
 10
658.186
 20
504.0
 10
658.186
 20
472.402
  0
LWPOLYLINE
  5
11A
330
6F
100
AcDbEntity
  8
GT_1
100
AcDbPolyline
 90
2
 70
128
 10
691.1
 20
504.0
 10
691.1
 20
472.402
  0
LWPOLYLINE
  5
11E
330
6F
100
AcDbEntity
  8
GT_1
100
AcDbPolyline
 90
2
 70
128
 10
713.7289999999999
 20
504.0
 10
713.7289999999999
 20
472.402
  0
LWPOLYLINE
  5
122
330
6F
100
AcDbEntity
  8
GT_1
100
AcDbPolyline
 90
2
 70
128
 10
758.9860000000001
 20
504.0
 10
758.9860000000001
 20
472.402
  0
LWPOLYLINE
  5
126
330
6F
100
AcDbEntity
  8
GT_1
100
AcDbPolyline
 90
2
 70
128
 10
777.5
 20
504.0
 10
777.5
 20
472.402
  0
LWPOLYLINE
  5
12A
330
6F
100
AcDbEntity
  8
GT_1
100
AcDbPolyline
 90
2
 70
128
 10
793.9569999999999
 20
504.0
 10
793.9569999999999
 20
472.402
  0
LWPOLYLINE
  5
12E
330
6F
100
AcDbEntity
  8
GT_1
100
AcDbPolyline
 90
2
 70
128
 10
812.471
 20
504.0
 10
812.471
 20
472.402
  0
TEXT
  5
132
330
6F
100
AcDbEntity
  8
GT_1
100
AcDbText
 10
749.7289999999999
 20
464.0
 30
0.0
 40
3.0
  1
TOTAL ERECTION WEIGHT
  7
HTX1
 41
1.02
100
AcDbText
  0
TEXT
  5
133
330
6F
100
AcDbEntity
  8
GT_1
100
AcDbText
 10
794.9860000000001
 20
464.0
 30
0.0
 40
3.0
  1
   0.00
  7
HTX1
 41
1.02
100
AcDbText
  0
TEXT
  5
134
330
6F
100
AcDbEntity
  8
GT_1
100
AcDbText
 10
768.243
 20
452.571
 30
0.0
 40
3.0
  1
TOTAL WEIGHT
  7
HTX1
 41
1.02
100
AcDbText
  0
TEXT
  5
135
330
6F
100
AcDbEntity
  8
GT_1
100
AcDbText
 10
794.9860000000001
 20
452.571
 30
0.0
 40
3.0
  1
 474.57
  7
HTX1
 41
1.02
100
AcDbText
  0
LWPOLYLINE
  5
136
330
6F
100
AcDbEntity
  8
GT_1
100
AcDbPolyline
 90
2
 70
128
 10
616.7
 20
443.8309999999999
 10
830.0
 20
443.8309999999999
  0
TEXT
  5
13A
330
6F
100
AcDbEntity
  8
GT_1
100
AcDbText
 10
718.8710000000001
 20
429.7139999999999
 30
0.0
 40
3.0
  1
CUT PIPE LENGTH
  7
HTX1
 41
1.02
100
AcDbText
  0
LWPOLYLINE
  5
13B
330
6F
100
AcDbEntity
  8
GT_1
100
AcDbPolyline
 90
5
 70
128
 10
715.786
 20
433.743
 10
752.557
 20
433.743
 10
752.557
 20
427.686
 10
715.786
 20
427.686
 10
715.786
 20
433.743
  0
TEXT
  5
142
330
6F
100
AcDbEntity
  8
GT_1
100
AcDbText
 10
620.129
 20
418.2859999999999
 30
0.0
 40
3.0
  1
PIECE
  7
HTX1
 41
1.02
100
AcDbText
  0
TEXT
  5
143
330
6F
100
AcDbEntity
  8
GT_1
100
AcDbText
 10
620.129
 20
412.8569999999999
 30
0.0
 40
3.0
  1
NO
  7
HTX1
 41
1.02
100
AcDbText
  0
TEXT
  5
144
330
6F
100
AcDbEntity
  8
GT_1
100
AcDbText
 10
632.471
 20
418.2859999999999
 30
0.0
 40
3.0
  1
     CUT
  7
HTX1
 41
1.02
100
AcDbText
  0
TEXT
  5
145
330
6F
100
AcDbEntity
  8
GT_1
100
AcDbText
 10
632.471
 20
412.8569999999999
 30
0.0
 40
3.0
  1
   LENGTH
  7
HTX1
 41
1.02
100
AcDbText
  0
TEXT
  5
146
330
6F
100
AcDbEntity
  8
GT_1
100
AcDbText
 10
655.1
 20
418.2859999999999
 30
0.0
 40
3.0
  1
SIZE
  7
HTX1
 41
1.02
100
AcDbText
  0
TEXT
  5
147
330
6F
100
AcDbEntity
  8
GT_1
100
AcDbText
 10
655.1
 20
412.8569999999999
 30
0.0
 40
3.0
  1
(DN)
  7
HTX1
 41
1.02
100
AcDbText
  0
TEXT
  5
148
330
6F
100
AcDbEntity
  8
GT_1
100
AcDbText
 10
704.471
 20
418.2859999999999
 30
0.0
 40
3.0
  1
PIECE
  7
HTX1
 41
1.02
100
AcDbText
  0
TEXT
  5
149
330
6F
100
AcDbEntity
  8
GT_1
100
AcDbText
 10
704.471
 20
412.8569999999999
 30
0.0
 40
3.0
  1
NO
  7
HTX1
 41
1.02
100
AcDbText
  0
TEXT
  5
14A
330
6F
100
AcDbEntity
  8
GT_1
100
AcDbText
 10
716.814
 20
418.2859999999999
 30
0.0
 40
3.0
  1
     CUT
  7
HTX1
 41
1.02
100
AcDbText
  0
TEXT
  5
14B
330
6F
100
AcDbEntity
  8
GT_1
100
AcDbText
 10
716.814
 20
412.8569999999999
 30
0.0
 40
3.0
  1
   LENGTH
  7
HTX1
 41
1.02
100
AcDbText
  0
TEXT
  5
14C
330
6F
100
AcDbEntity
  8
GT_1
100
AcDbText
 10
739.4429999999999
 20
418.2859999999999
 30
0.0
 40
3.0
  1
SIZE
  7
HTX1
 41
1.02
100
AcDbText
  0
TEXT
  5
14D
330
6F
100
AcDbEntity
  8
GT_1
100
AcDbText
 10
739.4429999999999
 20
412.8569999999999
 30
0.0
 40
3.0
  1
(DN)
  7
HTX1
 41
1.02
100
AcDbText
  0
TEXT
  5
14E
330
6F
100
AcDbEntity
  8
GT_1
100
AcDbText
 10
655.1
 20
406.8569999999999
 30
0.0
 40
3.0
  1

  7
HTX1
 41
1.02
100
AcDbText
  0
TEXT
  5
14F
330
6F
100
AcDbEntity
  8
GT_1
100
AcDbText
 10
739.4429999999999
 20
406.8569999999999
 30
0.0
 40
3.0
  1

  7
HTX1
 41
1.02
100
AcDbText
  0
TEXT
  5
150
330
6F
100
AcDbEntity
  8
GT_1
100
AcDbText
 10
620.129
 20
401.143
 30
0.0
 40
3.0
  1
  <1>
  7
HTX1
 41
1.02
100
AcDbText
  0
TEXT
  5
151
330
6F
100
AcDbEntity
  8
GT_1
100
AcDbText
 10
632.471
 20
401.143
 30
0.0
 40
3.0
  1
    13348
  7
HTX1
 41
1.02
100
AcDbText
  0
TEXT
  5
152
330
6F
100
AcDbEntity
  8
GT_1
100
AcDbText
 10
655.1
 20
401.143
 30
0.0
 40
3.0
  1
   100
  7
HTX1
 41
1.02
100
AcDbText
  0
TEXT
  5
153
330
6F
100
AcDbEntity
  8
GT_1
100
AcDbText
 10
704.471
 20
401.143
 30
0.0
 40
3.0
  1
  <2>
  7
HTX1
 41
1.02
100
AcDbText
  0
TEXT
  5
154
330
6F
100
AcDbEntity
  8
GT_1
100
AcDbText
 10
716.814
 20
401.143
 30
0.0
 40
3.0
  1
     3519
  7
HTX1
 41
1.02
100
AcDbText
  0
TEXT
  5
155
330
6F
100
AcDbEntity
  8
GT_1
100
AcDbText
 10
739.4429999999999
 20
401.143
 30
0.0
 40
3.0
  1
   100
  7
HTX1
 41
1.02
100
AcDbText
  0
TEXT
  5
156
330
6F
100
AcDbEntity
  8
GT_1
100
AcDbText
 10
620.129
 20
395.429
 30
0.0
 40
3.0
  1
  <3>
  7
HTX1
 41
1.02
100
AcDbText
  0
TEXT
  5
157
330
6F
100
AcDbEntity
  8
GT_1
100
AcDbText
 10
632.471
 20
395.429
 30
0.0
 40
3.0
  1
     6396
  7
HTX1
 41
1.02
100
AcDbText
  0
TEXT
  5
158
330
6F
100
AcDbEntity
  8
GT_1
100
AcDbText
 10
655.1
 20
395.429
 30
0.0
 40
3.0
  1
   100
  7
HTX1
 41
1.02
100
AcDbText
  0
TEXT
  5
159
330
6F
100
AcDbEntity
  8
GT_1
100
AcDbText
 10
704.471
 20
395.429
 30
0.0
 40
3.0
  1
  <4>
  7
HTX1
 41
1.02
100
AcDbText
  0
TEXT
  5
15A
330
6F
100
AcDbEntity
  8
GT_1
100
AcDbText
 10
716.814
 20
395.429
 30
0.0
 40
3.0
  1
     2025
  7
HTX1
 41
1.02
100
AcDbText
  0
TEXT
  5
15B
330
6F
100
AcDbEntity
  8
GT_1
100
AcDbText
 10
739.4429999999999
 20
395.429
 30
0.0
 40
3.0
  1
   100
  7
HTX1
 41
1.02
100
AcDbText
  0
TEXT
  5
15C
330
6F
100
AcDbEntity
  8
GT_1
100
AcDbText
 10
620.129
 20
389.714
 30
0.0
 40
3.0
  1
  <5>
  7
HTX1
 41
1.02
100
AcDbText
  0
TEXT
  5
15D
330
6F
100
AcDbEntity
  8
GT_1
100
AcDbText
 10
632.471
 20
389.714
 30
0.0
 40
3.0
  1
     2508
  7
HTX1
 41
1.02
100
AcDbText
  0
TEXT
  5
15E
330
6F
100
AcDbEntity
  8
GT_1
100
AcDbText
 10
655.1
 20
389.714
 30
0.0
 40
3.0
  1
   100
  7
HTX1
 41
1.02
100
AcDbText
  0
LWPOLYLINE
  5
15F
330
6F
100
AcDbEntity
  8
GT_1
100
AcDbPolyline
 90
3
 70
128
 10
6.0
 20
0.0
 10
0.0
 20
0.0
 10
0.0
 20
6.0
  0
LWPOLYLINE
  5
164
330
6F
100
AcDbEntity
  8
GT_1
100
AcDbPolyline
 90
3
 70
128
 10
0.0
 20
588.0
 10
0.0
 20
594.0
 10
6.0
 20
594.0
  0
LWPOLYLINE
  5
169
330
6F
100
AcDbEntity
  8
GT_1
100
AcDbPolyline
 90
3
 70
128
 10
835.0
 20
594.0
 10
841.0
 20
594.0
 10
841.0
 20
588.0
  0
LWPOLYLINE
  5
16E
330
6F
100
AcDbEntity
  8
GT_1
100
AcDbPolyline
 90
3
 70
128
 10
841.0
 20
6.0
 10
841.0
 20
0.0
 10
835.0
 20
0.0
  0
LWPOLYLINE
  5
173
330
6F
100
AcDbEntity
  8
GT_1
100
AcDbPolyline
 90
7
 70
128
 10
32.0
 20
12.0
 10
830.0
 20
12.0
 10
830.0
 20
12.0
 10
616.7
 20
12.0
 10
616.7
 20
584.0
 10
32.0
 20
584.0
 10
32.0
 20
12.0
  0
TEXT
  5
17C
330
6F
100
AcDbEntity
  8
GT_1
100
AcDbText
 10
34.0
 20
63.0
 30
0.0
 40
3.0
  1
110022-13110-019-HB2D-100
  7
HTX1
 41
1.02
100
AcDbText
  0
TEXT
  5
17D
330
6F
100
AcDbEntity
  8
GT_1
100
AcDbText
 10
94.0
 20
63.0
 30
0.0
 40
3.0
  1
LATER
  7
HTX1
 41
1.02
100
AcDbText
  0
TEXT
  5
17E
330
6F
100
AcDbEntity
  8
GT_1
100
AcDbText
 10
118.0
 20
63.0
 30
0.0
 40
3.0
  1
LATER
  7
HTX1
 41
1.02
100
AcDbText
  0
TEXT
  5
17F
330
6F
100
AcDbEntity
  8
GT_1
100
AcDbText
 10
143.0
 20
63.0
 30
0.0
 40
3.0
  1
11
  7
HTX1
 41
1.02
100
AcDbText
  0
TEXT
  5
180
330
6F
100
AcDbEntity
  8
GT_1
100
AcDbText
 10
166.0
 20
63.0
 30
0.0
 40
3.0
  1
60
  7
HTX1
 41
1.02
100
AcDbText
  0
TEXT
  5
181
330
6F
100
AcDbEntity
  8
GT_1
100
AcDbText
 10
189.0
 20
63.0
 30
0.0
 40
3.0
  1
-
  7
HTX1
 41
1.02
100
AcDbText
  0
TEXT
  5
182
330
6F
100
AcDbEntity
  8
GT_1
100
AcDbText
 10
204.0
 20
63.0
 30
0.0
 40
3.0
  1
-
  7
HTX1
 41
1.02
100
AcDbText
  0
TEXT
  5
183
330
6F
100
AcDbEntity
  8
GT_1
100
AcDbText
 10
301.0
 20
63.0
 30
0.0
 40
3.0
  1
NBEP
  7
HTX1
 41
1.02
100
AcDbText
  0
TEXT
  5
184
330
6F
100
AcDbEntity
  8
GT_1
100
AcDbText
 10
320.0
 20
63.0
 30
0.0
 40
3.0
  1
HB2D
  7
HTX1
 41
1.02
100
AcDbText
  0
TEXT
  5
185
330
6F
100
AcDbEntity
  8
GT_1
100
AcDbText
 10
337.0
 20
63.0
 30
0.0
 40
3.0
  1
WATER
  7
HTX1
 41
1.02
100
AcDbText
  0
TEXT
  5
186
330
6F
100
AcDbEntity
  8
GT_1
100
AcDbText
 10
356.0
 20
63.0
 30
0.0
 40
3.0
  1
9-13110-ZM-105-062
  7
HTX1
 41
1.02
100
AcDbText
  0
TEXT
  5
187
330
6F
100
AcDbEntity
  8
GT_1
100
AcDbText
 10
720.0
 20
36.0
 30
0.0
 40
3.0
  1
CLOSED COOLING WATER RETURN LINE FOR HFP
  7
HTX1
 41
1.02
100
AcDbText
  0
LWPOLYLINE
  5
188
330
6F
100
AcDbEntity
  8
GT_1
100
AcDbPolyline
 90
2
 70
128
 10
616.7
 20
12.0
 10
521.7
 20
12.0
  0
TEXT
  5
18C
330
6F
100
AcDbEntity
  8
GT_1
100
AcDbText
 10
521.8
 20
13.1
 30
0.0
 40
3.5
  1
  13
  7
HTX1
 41
1.02
100
AcDbText
  0
LWPOLYLINE
  5
18D
330
6F
100
AcDbEntity
  8
GT_1
100
AcDbPolyline
 90
2
 70
128
 10
533.3
 20
17.0
 10
533.3
 20
12.0
  0
TEXT
  5
191
330
6F
100
AcDbEntity
  8
GT_1
100
AcDbText
 10
533.7
 20
13.1
 30
0.0
 40
3.5
  1
   F
  7
HTX1
 41
1.02
100
AcDbText
  0
LWPOLYLINE
  5
192
330
6F
100
AcDbEntity
  8
GT_1
100
AcDbPolyline
 90
2
 70
128
 10
550.8
 20
17.0
 10
550.8
 20
12.0
  0
TEXT
  5
196
330
6F
100
AcDbEntity
  8
GT_1
100
AcDbText
 10
551.2
 20
13.1
 30
0.0
 40
3.5
  1

  7
HTX1
 41
1.02
100
AcDbText
  0
LWPOLYLINE
  5
197
330
6F
100
AcDbEntity
  8
GT_1
100
AcDbPolyline
 90
2
 70
128
 10
568.3
 20
17.0
 10
568.3
 20
12.0
  0
TEXT
  5
19B
330
6F
100
AcDbEntity
  8
GT_1
100
AcDbText
 10
568.7
 20
13.1
 30
0.0
 40
3.5
  1

  7
HTX1
 41
1.02
100
AcDbText
  0
LWPOLYLINE
  5
19C
330
6F
100
AcDbEntity
  8
GT_1
100
AcDbPolyline
 90
2
 70
128
 10
616.7
 20
17.0
 10
521.7
 20
17.0
  0
TEXT
  5
1A0
330
6F
100
AcDbEntity
  8
GT_1
100
AcDbText
 10
521.8
 20
18.1
 30
0.0
 40
3.5
  1
  12
  7
HTX1
 41
1.02
100
AcDbText
  0
LWPOLYLINE
  5
1A1
330
6F
100
AcDbEntity
  8
GT_1
100
AcDbPolyline
 90
2
 70
128
 10
533.3
 20
22.0
 10
533.3
 20
17.0
  0
TEXT
  5
1A5
330
6F
100
AcDbEntity
  8
GT_1
100
AcDbText
 10
533.7
 20
18.1
 30
0.0
 40
3.5
  1
   S
  7
HTX1
 41
1.02
100
AcDbText
  0
LWPOLYLINE
  5
1A6
330
6F
100
AcDbEntity
  8
GT_1
100
AcDbPolyline
 90
2
 70
128
 10
550.8
 20
22.0
 10
550.8
 20
17.0
  0
TEXT
  5
1AA
330
6F
100
AcDbEntity
  8
GT_1
100
AcDbText
 10
551.2
 20
18.1
 30
0.0
 40
3.5
  1

  7
HTX1
 41
1.02
100
AcDbText
  0
LWPOLYLINE
  5
1AB
330
6F
100
AcDbEntity
  8
GT_1
100
AcDbPolyline
 90
2
 70
128
 10
568.3
 20
22.0
 10
568.3
 20
17.0
  0
TEXT
  5
1AF
330
6F
100
AcDbEntity
  8
GT_1
100
AcDbText
 10
568.7
 20
18.1
 30
0.0
 40
3.5
  1

  7
HTX1
 41
1.02
100
AcDbText
  0
LWPOLYLINE
  5
1B0
330
6F
100
AcDbEntity
  8
GT_1
100
AcDbPolyline
 90
2
 70
128
 10
616.7
 20
22.0
 10
521.7
 20
22.0
  0
TEXT
  5
1B4
330
6F
100
AcDbEntity
  8
GT_1
100
AcDbText
 10
521.8
 20
23.1
 30
0.0
 40
3.5
  1
  11
  7
HTX1
 41
1.02
100
AcDbText
  0
LWPOLYLINE
  5
1B5
330
6F
100
AcDbEntity
  8
GT_1
100
AcDbPolyline
 90
2
 70
128
 10
533.3
 20
27.0
 10
533.3
 20
22.0
  0
TEXT
  5
1B9
330
6F
100
AcDbEntity
  8
GT_1
100
AcDbText
 10
533.7
 20
23.1
 30
0.0
 40
3.5
  1
   S
  7
HTX1
 41
1.02
100
AcDbText
  0
LWPOLYLINE
  5
1BA
330
6F
100
AcDbEntity
  8
GT_1
100
AcDbPolyline
 90
2
 70
128
 10
550.8
 20
27.0
 10
550.8
 20
22.0
  0
TEXT
  5
1BE
330
6F
100
AcDbEntity
  8
GT_1
100
AcDbText
 10
551.2
 20
23.1
 30
0.0
 40
3.5
  1

  7
HTX1
 41
1.02
100
AcDbText
  0
LWPOLYLINE
  5
1BF
330
6F
100
AcDbEntity
  8
GT_1
100
AcDbPolyline
 90
2
 70
128
 10
568.3
 20
27.0
 10
568.3
 20
22.0
  0
TEXT
  5
1C3
330
6F
100
AcDbEntity
  8
GT_1
100
AcDbText
 10
568.7
 20
23.1
 30
0.0
 40
3.5
  1

  7
HTX1
 41
1.02
100
AcDbText
  0
LWPOLYLINE
  5
1C4
330
6F
100
AcDbEntity
  8
GT_1
100
AcDbPolyline
 90
2
 70
128
 10
616.7
 20
27.0
 10
521.7
 20
27.0
  0
TEXT
  5
1C8
330
6F
100
AcDbEntity
  8
GT_1
100
AcDbText
 10
521.8
 20
28.1
 30
0.0
 40
3.5
  1
  10
  7
HTX1
 41
1.02
100
AcDbText
  0
LWPOLYLINE
  5
1C9
330
6F
100
AcDbEntity
  8
GT_1
100
AcDbPolyline
 90
2
 70
128
 10
533.3
 20
32.0
 10
533.3
 20
27.0
  0
TEXT
  5
1CD
330
6F
100
AcDbEntity
  8
GT_1
100
AcDbText
 10
533.7
 20
28.1
 30
0.0
 40
3.5
  1
   S
  7
HTX1
 41
1.02
100
AcDbText
  0
LWPOLYLINE
  5
1CE
330
6F
100
AcDbEntity
  8
GT_1
100
AcDbPolyline
 90
2
 70
128
 10
550.8
 20
32.0
 10
550.8
 20
27.0
  0
TEXT
  5
1D2
330
6F
100
AcDbEntity
  8
GT_1
100
AcDbText
 10
551.2
 20
28.1
 30
0.0
 40
3.5
  1

  7
HTX1
 41
1.02
100
AcDbText
  0
LWPOLYLINE
  5
1D3
330
6F
100
AcDbEntity
  8
GT_1
100
AcDbPolyline
 90
2
 70
128
 10
568.3
 20
32.0
 10
568.3
 20
27.0
  0
TEXT
  5
1D7
330
6F
100
AcDbEntity
  8
GT_1
100
AcDbText
 10
568.7
 20
28.1
 30
0.0
 40
3.5
  1

  7
HTX1
 41
1.02
100
AcDbText
  0
LWPOLYLINE
  5
1D8
330
6F
100
AcDbEntity
  8
GT_1
100
AcDbPolyline
 90
2
 70
128
 10
616.7
 20
32.0
 10
521.7
 20
32.0
  0
TEXT
  5
1DC
330
6F
100
AcDbEntity
  8
GT_1
100
AcDbText
 10
521.8
 20
33.1
 30
0.0
 40
3.5
  1
   9
  7
HTX1
 41
1.02
100
AcDbText
  0
LWPOLYLINE
  5
1DD
330
6F
100
AcDbEntity
  8
GT_1
100
AcDbPolyline
 90
2
 70
128
 10
533.3
 20
37.0
 10
533.3
 20
32.0
  0
TEXT
  5
1E1
330
6F
100
AcDbEntity
  8
GT_1
100
AcDbText
 10
533.7
 20
33.1
 30
0.0
 40
3.5
  1
   S
  7
HTX1
 41
1.02
100
AcDbText
  0
LWPOLYLINE
  5
1E2
330
6F
100
AcDbEntity
  8
GT_1
100
AcDbPolyline
 90
2
 70
128
 10
550.8
 20
37.0
 10
550.8
 20
32.0
  0
TEXT
  5
1E6
330
6F
100
AcDbEntity
  8
GT_1
100
AcDbText
 10
551.2
 20
33.1
 30
0.0
 40
3.5
  1

  7
HTX1
 41
1.02
100
AcDbText
  0
LWPOLYLINE
  5
1E7
330
6F
100
AcDbEntity
  8
GT_1
100
AcDbPolyline
 90
2
 70
128
 10
568.3
 20
37.0
 10
568.3
 20
32.0
  0
TEXT
  5
1EB
330
6F
100
AcDbEntity
  8
GT_1
100
AcDbText
 10
568.7
 20
33.1
 30
0.0
 40
3.5
  1

  7
HTX1
 41
1.02
100
AcDbText
  0
LWPOLYLINE
  5
1EC
330
6F
100
AcDbEntity
  8
GT_1
100
AcDbPolyline
 90
2
 70
128
 10
616.7
 20
37.0
 10
521.7
 20
37.0
  0
TEXT
  5
1F0
330
6F
100
AcDbEntity
  8
GT_1
100
AcDbText
 10
521.8
 20
38.1
 30
0.0
 40
3.5
  1
   8
  7
HTX1
 41
1.02
100
AcDbText
  0
LWPOLYLINE
  5
1F1
330
6F
100
AcDbEntity
  8
GT_1
100
AcDbPolyline
 90
2
 70
128
 10
533.3
 20
42.0
 10
533.3
 20
37.0
  0
TEXT
  5
1F5
330
6F
100
AcDbEntity
  8
GT_1
100
AcDbText
 10
533.7
 20
38.1
 30
0.0
 40
3.5
  1
   S
  7
HTX1
 41
1.02
100
AcDbText
  0
LWPOLYLINE
  5
1F6
330
6F
100
AcDbEntity
  8
GT_1
100
AcDbPolyline
 90
2
 70
128
 10
550.8
 20
42.0
 10
550.8
 20
37.0
  0
TEXT
  5
1FA
330
6F
100
AcDbEntity
  8
GT_1
100
AcDbText
 10
551.2
 20
38.1
 30
0.0
 40
3.5
  1

  7
HTX1
 41
1.02
100
AcDbText
  0
LWPOLYLINE
  5
1FB
330
6F
100
AcDbEntity
  8
GT_1
100
AcDbPolyline
 90
2
 70
128
 10
568.3
 20
42.0
 10
568.3
 20
37.0
  0
TEXT
  5
1FF
330
6F
100
AcDbEntity
  8
GT_1
100
AcDbText
 10
568.7
 20
38.1
 30
0.0
 40
3.5
  1

  7
HTX1
 41
1.02
100
AcDbText
  0
LWPOLYLINE
  5
200
330
6F
100
AcDbEntity
  8
GT_1
100
AcDbPolyline
 90
2
 70
128
 10
616.7
 20
42.0
 10
521.7
 20
42.0
  0
TEXT
  5
204
330
6F
100
AcDbEntity
  8
GT_1
100
AcDbText
 10
521.8
 20
43.1
 30
0.0
 40
3.5
  1
   7
  7
HTX1
 41
1.02
100
AcDbText
  0
LWPOLYLINE
  5
205
330
6F
100
AcDbEntity
  8
GT_1
100
AcDbPolyline
 90
2
 70
128
 10
533.3
 20
47.0
 10
533.3
 20
42.0
  0
TEXT
  5
209
330
6F
100
AcDbEntity
  8
GT_1
100
AcDbText
 10
533.7
 20
43.1
 30
0.0
 40
3.5
  1
   S
  7
HTX1
 41
1.02
100
AcDbText
  0
LWPOLYLINE
  5
20A
330
6F
100
AcDbEntity
  8
GT_1
100
AcDbPolyline
 90
2
 70
128
 10
550.8
 20
47.0
 10
550.8
 20
42.0
  0
TEXT
  5
20E
330
6F
100
AcDbEntity
  8
GT_1
100
AcDbText
 10
551.2
 20
43.1
 30
0.0
 40
3.5
  1

  7
HTX1
 41
1.02
100
AcDbText
  0
LWPOLYLINE
  5
20F
330
6F
100
AcDbEntity
  8
GT_1
100
AcDbPolyline
 90
2
 70
128
 10
568.3
 20
47.0
 10
568.3
 20
42.0
  0
TEXT
  5
213
330
6F
100
AcDbEntity
  8
GT_1
100
AcDbText
 10
568.7
 20
43.1
 30
0.0
 40
3.5
  1

  7
HTX1
 41
1.02
100
AcDbText
  0
LWPOLYLINE
  5
214
330
6F
100
AcDbEntity
  8
GT_1
100
AcDbPolyline
 90
2
 70
128
 10
616.7
 20
47.0
 10
521.7
 20
47.0
  0
TEXT
  5
218
330
6F
100
AcDbEntity
  8
GT_1
100
AcDbText
 10
521.8
 20
48.1
 30
0.0
 40
3.5
  1
   6
  7
HTX1
 41
1.02
100
AcDbText
  0
LWPOLYLINE
  5
219
330
6F
100
AcDbEntity
  8
GT_1
100
AcDbPolyline
 90
2
 70
128
 10
533.3
 20
52.0
 10
533.3
 20
47.0
  0
TEXT
  5
21D
330
6F
100
AcDbEntity
  8
GT_1
100
AcDbText
 10
533.7
 20
48.1
 30
0.0
 40
3.5
  1
   S
  7
HTX1
 41
1.02
100
AcDbText
  0
LWPOLYLINE
  5
21E
330
6F
100
AcDbEntity
  8
GT_1
100
AcDbPolyline
 90
2
 70
128
 10
550.8
 20
52.0
 10
550.8
 20
47.0
  0
TEXT
  5
222
330
6F
100
AcDbEntity
  8
GT_1
100
AcDbText
 10
551.2
 20
48.1
 30
0.0
 40
3.5
  1

  7
HTX1
 41
1.02
100
AcDbText
  0
LWPOLYLINE
  5
223
330
6F
100
AcDbEntity
  8
GT_1
100
AcDbPolyline
 90
2
 70
128
 10
568.3
 20
52.0
 10
568.3
 20
47.0
  0
TEXT
  5
227
330
6F
100
AcDbEntity
  8
GT_1
100
AcDbText
 10
568.7
 20
48.1
 30
0.0
 40
3.5
  1

  7
HTX1
 41
1.02
100
AcDbText
  0
LWPOLYLINE
  5
228
330
6F
100
AcDbEntity
  8
GT_1
100
AcDbPolyline
 90
2
 70
128
 10
616.7
 20
52.0
 10
521.7
 20
52.0
  0
TEXT
  5
22C
330
6F
100
AcDbEntity
  8
GT_1
100
AcDbText
 10
521.8
 20
53.1
 30
0.0
 40
3.5
  1
   5
  7
HTX1
 41
1.02
100
AcDbText
  0
LWPOLYLINE
  5
22D
330
6F
100
AcDbEntity
  8
GT_1
100
AcDbPolyline
 90
2
 70
128
 10
533.3
 20
57.0
 10
533.3
 20
52.0
  0
TEXT
  5
231
330
6F
100
AcDbEntity
  8
GT_1
100
AcDbText
 10
533.7
 20
53.1
 30
0.0
 40
3.5
  1
   S
  7
HTX1
 41
1.02
100
AcDbText
  0
LWPOLYLINE
  5
232
330
6F
100
AcDbEntity
  8
GT_1
100
AcDbPolyline
 90
2
 70
128
 10
550.8
 20
57.0
 10
550.8
 20
52.0
  0
TEXT
  5
236
330
6F
100
AcDbEntity
  8
GT_1
100
AcDbText
 10
551.2
 20
53.1
 30
0.0
 40
3.5
  1

  7
HTX1
 41
1.02
100
AcDbText
  0
LWPOLYLINE
  5
237
330
6F
100
AcDbEntity
  8
GT_1
100
AcDbPolyline
 90
2
 70
128
 10
568.3
 20
57.0
 10
568.3
 20
52.0
  0
TEXT
  5
23B
330
6F
100
AcDbEntity
  8
GT_1
100
AcDbText
 10
568.7
 20
53.1
 30
0.0
 40
3.5
  1

  7
HTX1
 41
1.02
100
AcDbText
  0
LWPOLYLINE
  5
23C
330
6F
100
AcDbEntity
  8
GT_1
100
AcDbPolyline
 90
2
 70
128
 10
616.7
 20
57.0
 10
521.7
 20
57.0
  0
TEXT
  5
240
330
6F
100
AcDbEntity
  8
GT_1
100
AcDbText
 10
521.8
 20
58.1
 30
0.0
 40
3.5
  1
   4
  7
HTX1
 41
1.02
100
AcDbText
  0
LWPOLYLINE
  5
241
330
6F
100
AcDbEntity
  8
GT_1
100
AcDbPolyline
 90
2
 70
128
 10
533.3
 20
62.0
 10
533.3
 20
57.0
  0
TEXT
  5
245
330
6F
100
AcDbEntity
  8
GT_1
100
AcDbText
 10
533.7
 20
58.1
 30
0.0
 40
3.5
  1
   S
  7
HTX1
 41
1.02
100
AcDbText
  0
LWPOLYLINE
  5
246
330
6F
100
AcDbEntity
  8
GT_1
100
AcDbPolyline
 90
2
 70
128
 10
550.8
 20
62.0
 10
550.8
 20
57.0
  0
TEXT
  5
24A
330
6F
100
AcDbEntity
  8
GT_1
100
AcDbText
 10
551.2
 20
58.1
 30
0.0
 40
3.5
  1

  7
HTX1
 41
1.02
100
AcDbText
  0
LWPOLYLINE
  5
24B
330
6F
100
AcDbEntity
  8
GT_1
100
AcDbPolyline
 90
2
 70
128
 10
568.3
 20
62.0
 10
568.3
 20
57.0
  0
TEXT
  5
24F
330
6F
100
AcDbEntity
  8
GT_1
100
AcDbText
 10
568.7
 20
58.1
 30
0.0
 40
3.5
  1

  7
HTX1
 41
1.02
100
AcDbText
  0
LWPOLYLINE
  5
250
330
6F
100
AcDbEntity
  8
GT_1
100
AcDbPolyline
 90
2
 70
128
 10
616.7
 20
62.0
 10
521.7
 20
62.0
  0
TEXT
  5
254
330
6F
100
AcDbEntity
  8
GT_1
100
AcDbText
 10
521.8
 20
63.1
 30
0.0
 40
3.5
  1
   3
  7
HTX1
 41
1.02
100
AcDbText
  0
LWPOLYLINE
  5
255
330
6F
100
AcDbEntity
  8
GT_1
100
AcDbPolyline
 90
2
 70
128
 10
533.3
 20
67.0
 10
533.3
 20
62.0
  0
TEXT
  5
259
330
6F
100
AcDbEntity
  8
GT_1
100
AcDbText
 10
533.7
 20
63.1
 30
0.0
 40
3.5
  1
   S
  7
HTX1
 41
1.02
100
AcDbText
  0
LWPOLYLINE
  5
25A
330
6F
100
AcDbEntity
  8
GT_1
100
AcDbPolyline
 90
2
 70
128
 10
550.8
 20
67.0
 10
550.8
 20
62.0
  0
TEXT
  5
25E
330
6F
100
AcDbEntity
  8
GT_1
100
AcDbText
 10
551.2
 20
63.1
 30
0.0
 40
3.5
  1

  7
HTX1
 41
1.02
100
AcDbText
  0
LWPOLYLINE
  5
25F
330
6F
100
AcDbEntity
  8
GT_1
100
AcDbPolyline
 90
2
 70
128
 10
568.3
 20
67.0
 10
568.3
 20
62.0
  0
TEXT
  5
263
330
6F
100
AcDbEntity
  8
GT_1
100
AcDbText
 10
568.7
 20
63.1
 30
0.0
 40
3.5
  1

  7
HTX1
 41
1.02
100
AcDbText
  0
LWPOLYLINE
  5
264
330
6F
100
AcDbEntity
  8
GT_1
100
AcDbPolyline
 90
2
 70
128
 10
616.7
 20
67.0
 10
521.7
 20
67.0
  0
TEXT
  5
268
330
6F
100
AcDbEntity
  8
GT_1
100
AcDbText
 10
521.8
 20
68.1
 30
0.0
 40
3.5
  1
   2
  7
HTX1
 41
1.02
100
AcDbText
  0
LWPOLYLINE
  5
269
330
6F
100
AcDbEntity
  8
GT_1
100
AcDbPolyline
 90
2
 70
128
 10
533.3
 20
72.0
 10
533.3
 20
67.0
  0
TEXT
  5
26D
330
6F
100
AcDbEntity
  8
GT_1
100
AcDbText
 10
533.7
 20
68.1
 30
0.0
 40
3.5
  1
   S
  7
HTX1
 41
1.02
100
AcDbText
  0
LWPOLYLINE
  5
26E
330
6F
100
AcDbEntity
  8
GT_1
100
AcDbPolyline
 90
2
 70
128
 10
550.8
 20
72.0
 10
550.8
 20
67.0
  0
TEXT
  5
272
330
6F
100
AcDbEntity
  8
GT_1
100
AcDbText
 10
551.2
 20
68.1
 30
0.0
 40
3.5
  1

  7
HTX1
 41
1.02
100
AcDbText
  0
LWPOLYLINE
  5
273
330
6F
100
AcDbEntity
  8
GT_1
100
AcDbPolyline
 90
2
 70
128
 10
568.3
 20
72.0
 10
568.3
 20
67.0
  0
TEXT
  5
277
330
6F
100
AcDbEntity
  8
GT_1
100
AcDbText
 10
568.7
 20
68.1
 30
0.0
 40
3.5
  1

  7
HTX1
 41
1.02
100
AcDbText
  0
LWPOLYLINE
  5
278
330
6F
100
AcDbEntity
  8
GT_1
100
AcDbPolyline
 90
2
 70
128
 10
616.7
 20
72.0
 10
521.7
 20
72.0
  0
TEXT
  5
27C
330
6F
100
AcDbEntity
  8
GT_1
100
AcDbText
 10
521.8
 20
73.1
 30
0.0
 40
3.5
  1
   1
  7
HTX1
 41
1.02
100
AcDbText
  0
LWPOLYLINE
  5
27D
330
6F
100
AcDbEntity
  8
GT_1
100
AcDbPolyline
 90
2
 70
128
 10
533.3
 20
77.0
 10
533.3
 20
72.0
  0
TEXT
  5
281
330
6F
100
AcDbEntity
  8
GT_1
100
AcDbText
 10
533.7
 20
73.1
 30
0.0
 40
3.5
  1
   S
  7
HTX1
 41
1.02
100
AcDbText
  0
LWPOLYLINE
  5
282
330
6F
100
AcDbEntity
  8
GT_1
100
AcDbPolyline
 90
2
 70
128
 10
550.8
 20
77.0
 10
550.8
 20
72.0
  0
TEXT
  5
286
330
6F
100
AcDbEntity
  8
GT_1
100
AcDbText
 10
551.2
 20
73.1
 30
0.0
 40
3.5
  1

  7
HTX1
 41
1.02
100
AcDbText
  0
LWPOLYLINE
  5
287
330
6F
100
AcDbEntity
  8
GT_1
100
AcDbPolyline
 90
2
 70
128
 10
568.3
 20
77.0
 10
568.3
 20
72.0
  0
TEXT
  5
28B
330
6F
100
AcDbEntity
  8
GT_1
100
AcDbText
 10
568.7
 20
73.1
 30
0.0
 40
3.5
  1

  7
HTX1
 41
1.02
100
AcDbText
  0
LWPOLYLINE
  5
28C
330
6F
100
AcDbEntity
  8
GT_1
100
AcDbPolyline
 90
2
 70
128
 10
616.7
 20
77.0
 10
521.7
 20
77.0
  0
TEXT
  5
290
330
6F
100
AcDbEntity
  8
GT_1
100
AcDbText
 10
521.8
 20
78.1
 30
0.0
 40
3.5
  1
 NO
  7
HTX1
 41
1.02
100
AcDbText
  0
LWPOLYLINE
  5
291
330
6F
100
AcDbEntity
  8
GT_1
100
AcDbPolyline
 90
2
 70
128
 10
533.3
 20
82.0
 10
533.3
 20
77.0
  0
TEXT
  5
295
330
6F
100
AcDbEntity
  8
GT_1
100
AcDbText
 10
533.7
 20
78.1
 30
0.0
 40
3.5
  1
 /FLD
  7
HTX1
 41
1.02
100
AcDbText
  0
LWPOLYLINE
  5
296
330
6F
100
AcDbEntity
  8
GT_1
100
AcDbPolyline
 90
2
 70
128
 10
550.8
 20
82.0
 10
550.8
 20
77.0
  0
TEXT
  5
29A
330
6F
100
AcDbEntity
  8
GT_1
100
AcDbText
 10
551.2
 20
78.1
 30
0.0
 40
3.5
  1
  DN
  7
HTX1
 41
1.02
100
AcDbText
  0
LWPOLYLINE
  5
29B
330
6F
100
AcDbEntity
  8
GT_1
100
AcDbPolyline
 90
2
 70
128
 10
568.3
 20
82.0
 10
568.3
 20
77.0
  0
TEXT
  5
29F
330
6F
100
AcDbEntity
  8
GT_1
100
AcDbText
 10
568.7
 20
78.1
 30
0.0
 40
3.5
  1
   TYPE
  7
HTX1
 41
1.02
100
AcDbText
  0
LWPOLYLINE
  5
2A0
330
6F
100
AcDbEntity
  8
GT_1
100
AcDbPolyline
 90
2
 70
128
 10
616.7
 20
82.0
 10
521.7
 20
82.0
  0
TEXT
  5
2A4
330
6F
100
AcDbEntity
  8
GT_1
100
AcDbText
 10
521.8
 20
83.1
 30
0.0
 40
3.5
  1
WELD
  7
HTX1
 41
1.02
100
AcDbText
  0
LWPOLYLINE
  5
2A5
330
6F
100
AcDbEntity
  8
GT_1
100
AcDbPolyline
 90
2
 70
128
 10
533.3
 20
87.0
 10
533.3
 20
82.0
  0
TEXT
  5
2A9
330
6F
100
AcDbEntity
  8
GT_1
100
AcDbText
 10
533.7
 20
83.1
 30
0.0
 40
3.5
  1
 SHOP
  7
HTX1
 41
1.02
100
AcDbText
  0
LWPOLYLINE
  5
2AA
330
6F
100
AcDbEntity
  8
GT_1
100
AcDbPolyline
 90
2
 70
128
 10
550.8
 20
87.0
 10
550.8
 20
82.0
  0
TEXT
  5
2AE
330
6F
100
AcDbEntity
  8
GT_1
100
AcDbText
 10
551.2
 20
83.1
 30
0.0
 40
3.5
  1
 WELD
  7
HTX1
 41
1.02
100
AcDbText
  0
LWPOLYLINE
  5
2AF
330
6F
100
AcDbEntity
  8
GT_1
100
AcDbPolyline
 90
2
 70
128
 10
568.3
 20
87.0
 10
568.3
 20
82.0
  0
TEXT
  5
2B3
330
6F
100
AcDbEntity
  8
GT_1
100
AcDbText
 10
568.7
 20
83.1
 30
0.0
 40
3.5
  1
   WELD
  7
HTX1
 41
1.02
100
AcDbText
  0
LWPOLYLINE
  5
2B4
330
6F
100
AcDbEntity
  8
GT_1
100
AcDbPolyline
 90
3
 70
128
 10
616.7
 20
87.0
 10
521.7
 20
87.0
 10
521.7
 20
12.0
  0
TEXT
  5
2B9
330
6F
100
AcDbEntity
  8
GT_1
100
AcDbText
 10
35.8
 20
576.0
 30
0.0
 40
6.25
  1
N
  7
HTX1
 41
1.02
100
AcDbText
  0
TEXT
  5
2BA
330
6F
100
AcDbEntity
  8
GT_1
100
AcDbText
 10
35.6
 20
576.0
 30
0.0
 40
6.25
  1
N
  7
HTX1
 41
1.02
100
AcDbText
  0
LWPOLYLINE
  5
2BB
330
6F
100
AcDbEntity
  8
GT_1
100
AcDbPolyline
 90
8
 70
128
 10
42.0
 20
574.0
 10
46.0
 20
568.0
 10
45.6
 20
571.2
 10
52.4
 20
567.2
 10
53.2
 20
568.4
 10
46.39999999999999
 20
572.4
 10
49.2
 20
573.6
 10
42.0
 20
574.0
  0
LWPOLYLINE
  5
2C5
330
6F
100
AcDbEntity
  8
GT_1
100
AcDbPolyline
 90
16
 70
128
 10
56.0
 20
583.2
 10
56.0
 20
563.2
 10
32.0
 20
563.2
 10
32.0
 20
583.3999999999999
 10
56.2
 20
583.3999999999999
 10
56.2
 20
563.3999999999999
 10
32.20000000000001
 20
563.3999999999999
 10
32.20000000000001
 20
583.6
 10
56.4
 20
583.6
 10
56.4
 20
563.6
 10
32.4
 20
563.6
 10
32.4
 20
583.8
 10
56.6
 20
583.8
 10
56.6
 20
563.8
 10
32.6
 20
563.8
 10
32.6
 20
584.0
  0
LWPOLYLINE
  5
2D7
330
6F
100
AcDbEntity
  8
GT_1
100
AcDbPolyline
 90
10
 70
128
 10
57.1
 20
113.5
 10
57.1
 20
112.9
 10
57.6
 20
112.0
 10
58.7
 20
112.0
 10
59.9
 20
112.7
 10
59.9
 20
117.5
 10
58.7
 20
116.8
 10
57.6
 20
115.6
 10
57.1
 20
114.1
 10
57.1
 20
113.5
  0
LWPOLYLINE
  5
2E3
330
6F
100
AcDbEntity
  8
GT_1
100
AcDbPolyline
 90
3
 70
128
 10
57.2
 20
118.2
 10
58.5
 20
116.7
 10
57.8
 20
118.6
  0
LWPOLYLINE
  5
2E8
330
6F
100
AcDbEntity
  8
GT_1
100
AcDbPolyline
 90
2
 70
128
 10
58.5
 20
116.7
 10
56.0
 20
121.0
  0
TEXT
  5
2EC
330
6F
100
AcDbEntity
  8
GT_1
100
AcDbText
 10
53.4429
 20
121.5
 30
0.0
 40
3.0
  1
3
  7
HTX1
 41
1.02
100
AcDbText
  0
LWPOLYLINE
  5
2ED
330
6F
100
AcDbEntity
  8
GT_1
100
AcDbPolyline
 90
5
 70
128
 10
52.9
 20
125.0
 10
55.89999999999999
 20
125.0
 10
55.89999999999999
 20
121.0
 10
52.9
 20
121.0
 10
52.9
 20
125.0
  0
LWPOLYLINE
  5
2F4
330
6F
100
AcDbEntity
  8
GT_1
100
AcDbPolyline
 90
7
 70
128
 10
60.5
 20
114.7
 10
59.9
 20
113.9
 10
59.29999999999999
 20
114.0
 10
59.29999999999999
 20
115.5
 10
59.9
 20
116.3
 10
60.5
 20
116.2
 10
60.5
 20
114.7
  0
LWPOLYLINE
  5
2FD
330
6F
100
AcDbEntity
  8
GT_1
100
AcDbPolyline
 90
2
 70
128
 10
59.29999999999999
 20
114.0
 10
59.975
 20
114.0
  0
LWPOLYLINE
  5
301
330
6F
100
AcDbEntity
  8
GT_1
100
AcDbPolyline
 90
2
 70
128
 10
59.29999999999999
 20
114.2
 10
60.125
 20
114.2
  0
LWPOLYLINE
  5
305
330
6F
100
AcDbEntity
  8
GT_1
100
AcDbPolyline
 90
2
 70
128
 10
59.29999999999999
 20
114.4
 10
60.27499999999999
 20
114.4
  0
LWPOLYLINE
  5
309
330
6F
100
AcDbEntity
  8
GT_1
100
AcDbPolyline
 90
2
 70
128
 10
59.29999999999999
 20
114.6
 10
60.425
 20
114.6
  0
LWPOLYLINE
  5
30D
330
6F
100
AcDbEntity
  8
GT_1
100
AcDbPolyline
 90
2
 70
128
 10
59.29999999999999
 20
114.8
 10
60.5
 20
114.8
  0
LWPOLYLINE
  5
311
330
6F
100
AcDbEntity
  8
GT_1
100
AcDbPolyline
 90
2
 70
128
 10
59.29999999999999
 20
115.0
 10
60.5
 20
115.0
  0
LWPOLYLINE
  5
315
330
6F
100
AcDbEntity
  8
GT_1
100
AcDbPolyline
 90
2
 70
128
 10
59.29999999999999
 20
115.2
 10
60.5
 20
115.2
  0
LWPOLYLINE
  5
319
330
6F
100
AcDbEntity
  8
GT_1
100
AcDbPolyline
 90
2
 70
128
 10
59.29999999999999
 20
115.4
 10
60.5
 20
115.4
  0
LWPOLYLINE
  5
31D
330
6F
100
AcDbEntity
  8
GT_1
100
AcDbPolyline
 90
2
 70
128
 10
59.375
 20
115.6
 10
60.5
 20
115.6
  0
LWPOLYLINE
  5
321
330
6F
100
AcDbEntity
  8
GT_1
100
AcDbPolyline
 90
2
 70
128
 10
59.525
 20
115.8
 10
60.5
 20
115.8
  0
LWPOLYLINE
  5
325
330
6F
100
AcDbEntity
  8
GT_1
100
AcDbPolyline
 90
2
 70
128
 10
59.675
 20
116.0
 10
60.5
 20
116.0
  0
LWPOLYLINE
  5
329
330
6F
100
AcDbEntity
  8
GT_1
100
AcDbPolyline
 90
2
 70
128
 10
59.825
 20
116.2
 10
60.5
 20
116.2
  0
LWPOLYLINE
  5
32D
330
6F
100
AcDbEntity
  8
GT_1
100
AcDbPolyline
 90
2
 70
128
 10
59.9
 20
113.9
 10
62.4
 20
109.6
  0
TEXT
  5
331
330
6F
100
AcDbEntity
  8
GT_1
100
AcDbText
 10
64.2
 20
108.4
 30
0.0
 40
3.0
  1
1
  7
HTX1
 41
1.02
100
AcDbText
  0
LWPOLYLINE
  5
332
330
6F
100
AcDbEntity
  8
GT_1
100
AcDbPolyline
 90
3
 70
128
 10
67.7143
 20
109.6
 42
1.0
 10
62.4
 20
109.6
 42
1.0
 10
67.7143
 20
109.6
  0
LWPOLYLINE
  5
337
330
6F
100
AcDbEntity
  8
GT_1
 62
3
100
AcDbPolyline
 90
2
 70
128
 43
0.6
 10
59.9
 20
115.1
 10
75.8
 20
124.3
  0
TEXT
  5
33B
330
6F
100
AcDbEntity
  8
GT_1
100
AcDbText
 10
62.6212
 20
118.384
 30
0.0
 40
3.0
  1
100DN
 50
30.0
  7
HTX1
 41
1.02
100
AcDbText
  0
LWPOLYLINE
  5
33C
330
6F
100
AcDbEntity
  8
GT_1
100
AcDbPolyline
 90
2
 70
128
 10
59.9
 20
119.1
 10
59.9
 20
131.3
  0
LWPOLYLINE
  5
340
330
6F
100
AcDbEntity
  8
GT_1
100
AcDbPolyline
 90
3
 70
128
 10
61.4
 20
131.4
 10
59.9
 20
130.1
 10
61.79999999999999
 20
130.8
  0
LWPOLYLINE
  5
345
330
6F
100
AcDbEntity
  8
GT_1
100
AcDbPolyline
 90
2
 70
128
 10
59.9
 20
130.1
 10
65.2
 20
133.2
  0
LWPOLYLINE
  5
349
330
6F
100
AcDbEntity
  8
GT_1
100
AcDbPolyline
 90
2
 70
128
 10
75.8
 20
128.3
 10
75.8
 20
140.5
  0
LWPOLYLINE
  5
34D
330
6F
100
AcDbEntity
  8
GT_1
100
AcDbPolyline
 90
3
 70
128
 10
74.29999999999998
 20
138.0
 10
75.8
 20
139.3
 10
73.9
 20
138.6
  0
LWPOLYLINE
  5
352
330
6F
100
AcDbEntity
  8
GT_1
100
AcDbPolyline
 90
2
 70
128
 10
75.8
 20
139.3
 10
71.4
 20
136.8
  0
TEXT
  5
356
330
6F
100
AcDbEntity
  8
GT_1
100
AcDbText
 10
65.7777
 20
132.118
 30
0.0
 40
3.0
  1
400
 50
30.0
  7
HTX1
 41
1.02
100
AcDbText
  0
LWPOLYLINE
  5
357
330
6F
100
AcDbEntity
  8
GT_1
100
AcDbPolyline
 90
7
 70
128
 10
76.4
 20
123.9
 10
75.8
 20
123.1
 10
75.2
 20
123.2
 10
75.2
 20
124.7
 10
75.8
 20
125.5
 10
76.4
 20
125.4
 10
76.4
 20
123.9
  0
LWPOLYLINE
  5
360
330
6F
100
AcDbEntity
  8
GT_1
100
AcDbPolyline
 90
2
 70
128
 10
75.2
 20
123.2
 10
75.875
 20
123.2
  0
LWPOLYLINE
  5
364
330
6F
100
AcDbEntity
  8
GT_1
100
AcDbPolyline
 90
2
 70
128
 10
75.2
 20
123.4
 10
76.025
 20
123.4
  0
LWPOLYLINE
  5
368
330
6F
100
AcDbEntity
  8
GT_1
100
AcDbPolyline
 90
2
 70
128
 10
75.2
 20
123.6
 10
76.17499999999998
 20
123.6
  0
LWPOLYLINE
  5
36C
330
6F
100
AcDbEntity
  8
GT_1
100
AcDbPolyline
 90
2
 70
128
 10
75.2
 20
123.8
 10
76.325
 20
123.8
  0
LWPOLYLINE
  5
370
330
6F
100
AcDbEntity
  8
GT_1
100
AcDbPolyline
 90
2
 70
128
 10
75.2
 20
124.0
 10
76.4
 20
124.0
  0
LWPOLYLINE
  5
374
330
6F
100
AcDbEntity
  8
GT_1
100
AcDbPolyline
 90
2
 70
128
 10
75.2
 20
124.2
 10
76.4
 20
124.2
  0
LWPOLYLINE
  5
378
330
6F
100
AcDbEntity
  8
GT_1
100
AcDbPolyline
 90
2
 70
128
 10
75.2
 20
124.4
 10
76.4
 20
124.4
  0
LWPOLYLINE
  5
37C
330
6F
100
AcDbEntity
  8
GT_1
100
AcDbPolyline
 90
2
 70
128
 10
75.2
 20
124.6
 10
76.4
 20
124.6
  0
LWPOLYLINE
  5
380
330
6F
100
AcDbEntity
  8
GT_1
100
AcDbPolyline
 90
2
 70
128
 10
75.275
 20
124.8
 10
76.4
 20
124.8
  0
LWPOLYLINE
  5
384
330
6F
100
AcDbEntity
  8
GT_1
100
AcDbPolyline
 90
2
 70
128
 10
75.425
 20
125.0
 10
76.4
 20
125.0
  0
LWPOLYLINE
  5
388
330
6F
100
AcDbEntity
  8
GT_1
100
AcDbPolyline
 90
2
 70
128
 10
75.575
 20
125.2
 10
76.4
 20
125.2
  0
LWPOLYLINE
  5
38C
330
6F
100
AcDbEntity
  8
GT_1
100
AcDbPolyline
 90
2
 70
128
 10
75.725
 20
125.4
 10
76.4
 20
125.4
  0
LWPOLYLINE
  5
390
330
6F
100
AcDbEntity
  8
GT_1
100
AcDbPolyline
 90
2
 70
128
 10
75.8
 20
125.5
 10
71.5
 20
150.1
  0
TEXT
  5
394
330
6F
100
AcDbEntity
  8
GT_1
100
AcDbText
 10
67.9857
 20
148.9
 30
0.0
 40
3.0
  1
2
  7
HTX1
 41
1.02
100
AcDbText
  0
LWPOLYLINE
  5
395
330
6F
100
AcDbEntity
  8
GT_1
100
AcDbPolyline
 90
3
 70
128
 10
66.1857
 20
150.1
 42
1.0
 10
71.5
 20
150.1
 42
1.0
 10
66.1857
 20
150.1
  0
LWPOLYLINE
  5
39A
330
6F
100
AcDbEntity
  8
GT_1
100
AcDbPolyline
 90
6
 70
128
 10
75.8
 20
124.3
 10
74.4
 20
123.5
 10
74.4
 20
120.3
 10
77.2
 20
121.9
 10
77.2
 20
125.1
 10
75.8
 20
124.3
  0
LWPOLYLINE
  5
3A2
330
6F
100
AcDbEntity
  8
GT_1
100
AcDbPolyline
 90
3
 70
128
 10
77.8
 20
121.4
 10
75.8
 20
121.1
 10
77.8
 20
120.8
  0
LWPOLYLINE
  5
3A7
330
6F
100
AcDbEntity
  8
GT_1
100
AcDbPolyline
 90
2
 70
128
 10
75.8
 20
121.1
 10
88.8
 20
121.1
  0
TEXT
  5
3AB
330
6F
100
AcDbEntity
  8
GT_1
100
AcDbText
 10
89.29999999999998
 20
121.6
 30
0.0
 40
3.0
  1
4
  7
HTX1
 41
1.02
100
AcDbText
  0
LWPOLYLINE
  5
3AC
330
6F
100
AcDbEntity
  8
GT_1
100
AcDbPolyline
 90
5
 70
128
 10
88.8
 20
125.1
 10
91.79999999999998
 20
125.1
 10
91.79999999999998
 20
121.1
 10
88.8
 20
121.1
 10
88.8
 20
125.1
  0
TEXT
  5
3B3
330
6F
100
AcDbEntity
  8
GT_1
100
AcDbText
 10
89.29999999999998
 20
117.6
 30
0.0
 40
3.0
  1
100x50DN
  7
HTX1
 41
1.02
100
AcDbText
  0
LWPOLYLINE
  5
3B4
330
6F
100
AcDbEntity
  8
GT_1
100
AcDbPolyline
 90
2
 70
128
 10
79.29999999999998
 20
126.3
 10
89.8
 20
132.4
  0
LWPOLYLINE
  5
3B8
330
6F
100
AcDbEntity
  8
GT_1
100
AcDbPolyline
 90
2
 70
128
 10
79.29999999999998
 20
123.1
 10
89.8
 20
129.2
  0
LWPOLYLINE
  5
3BC
330
6F
100
AcDbEntity
  8
GT_1
100
AcDbPolyline
 90
3
 70
128
 10
90.8
 20
130.5
 10
88.8
 20
130.2
 10
90.8
 20
129.9
  0
LWPOLYLINE
  5
3C1
330
6F
100
AcDbEntity
  8
GT_1
100
AcDbPolyline
 90
2
 70
128
 10
88.8
 20
130.2
 10
97.80000000000001
 20
130.2
  0
TEXT
  5
3C5
330
6F
100
AcDbEntity
  8
GT_1
100
AcDbText
 10
98.3
 20
130.7
 30
0.0
 40
3.0
  1
79
  7
HTX1
 41
1.02
100
AcDbText
  0
LWPOLYLINE
  5
3C6
330
6F
100
AcDbEntity
  8
GT_1
  6
GT100
100
AcDbPolyline
 90
7
 70
128
 10
75.2
 20
120.0
 10
74.7
 20
120.5
 10
75.2
 20
121.5
 10
76.4
 20
122.2
 10
76.9
 20
121.7
 10
76.4
 20
120.7
 10
75.2
 20
120.0
  0
LWPOLYLINE
  5
3CF
330
6F
100
AcDbEntity
  8
GT_1
  6
GT100
100
AcDbPolyline
 90
4
 70
128
 10
74.4
 20
118.3
 10
74.4
 20
120.3
 10
77.2
 20
121.9
 10
77.2
 20
119.9
  0
LWPOLYLINE
  5
3D5
330
6F
100
AcDbEntity
  8
GT_1
100
AcDbPolyline
 90
3
 70
128
 10
76.5
 20
119.2
 10
75.8
 20
121.1
 10
75.8
 20
119.1
  0
LWPOLYLINE
  5
3DA
330
6F
100
AcDbEntity
  8
GT_1
100
AcDbPolyline
 90
2
 70
128
 10
75.8
 20
121.1
 10
78.1
 20
108.3
  0
TEXT
  5
3DE
330
6F
100
AcDbEntity
  8
GT_1
100
AcDbText
 10
78.6
 20
108.8
 30
0.0
 40
3.0
  1
E 959500
  7
HTX1
 41
1.02
100
AcDbText
  0
TEXT
  5
3DF
330
6F
100
AcDbEntity
  8
GT_1
100
AcDbText
 10
78.6
 20
104.8
 30
0.0
 40
3.0
  1
S 1281800
  7
HTX1
 41
1.02
100
AcDbText
  0
TEXT
  5
3E0
330
6F
100
AcDbEntity
  8
GT_1
100
AcDbText
 10
78.6
 20
100.8
 30
0.0
 40
3.0
  1
FL+3921
  7
HTX1
 41
1.02
100
AcDbText
  0
LWPOLYLINE
  5
3E1
330
6F
100
AcDbEntity
  8
GT_1
 62
3
100
AcDbPolyline
 90
2
 70
128
 43
0.6
 10
75.8
 20
124.3
 10
91.69999999999999
 20
133.5
  0
LWPOLYLINE
  5
3E5
330
6F
100
AcDbEntity
  8
GT_1
100
AcDbPolyline
 90
3
 70
128
 10
83.1
 20
130.8
 10
83.8
 20
128.9
 10
83.8
 20
130.9
  0
LWPOLYLINE
  5
3EA
330
6F
100
AcDbEntity
  8
GT_1
100
AcDbPolyline
 90
2
 70
128
 10
83.8
 20
128.9
 10
82.9
 20
133.8
  0
TEXT
  5
3EE
330
6F
100
AcDbEntity
  8
GT_1
100
AcDbText
 10
78.2857
 20
134.3
 30
0.0
 40
3.0
  1
S5
  7
HTX1
 41
1.02
100
AcDbText
  0
LWPOLYLINE
  5
3EF
330
6F
100
AcDbEntity
  8
GT_1
100
AcDbPolyline
 90
5
 70
128
 10
77.8
 20
137.8
 10
82.9
 20
137.8
 10
82.9
 20
133.8
 10
77.8
 20
133.8
 10
77.8
 20
137.8
  0
LWPOLYLINE
  5
3F6
330
6F
100
AcDbEntity
  8
GT_1
 62
3
100
AcDbPolyline
 90
2
 70
128
 43
0.6
 10
91.69999999999999
 20
133.5
 10
159.1
 20
172.4
  0
LWPOLYLINE
  5
3FA
330
6F
100
AcDbEntity
  8
GT_1
100
AcDbPolyline
 90
3
 70
128
 10
123.7
 20
154.0
 10
125.4
 20
153.0
 10
124.1
 20
154.5
  0
LWPOLYLINE
  5
3FF
330
6F
100
AcDbEntity
  8
GT_1
100
AcDbPolyline
 90
2
 70
128
 10
125.4
 20
153.0
 10
121.6
 20
156.2
  0
TEXT
  5
403
330
6F
100
AcDbEntity
  8
GT_1
100
AcDbText
 10
116.986
 20
156.7
 30
0.0
 40
3.0
  1
S6
  7
HTX1
 41
1.02
100
AcDbText
  0
LWPOLYLINE
  5
404
330
6F
100
AcDbEntity
  8
GT_1
100
AcDbPolyline
 90
5
 70
128
 10
116.5
 20
160.2
 10
121.6
 20
160.2
 10
121.6
 20
156.2
 10
116.5
 20
156.2
 10
116.5
 20
160.2
  0
LWPOLYLINE
  5
40B
330
6F
100
AcDbEntity
  8
GT_1
 62
3
100
AcDbPolyline
 90
2
 70
128
 43
0.6
 10
159.1
 20
172.4
 10
226.5
 20
211.3
  0
LWPOLYLINE
  5
40F
330
6F
100
AcDbEntity
  8
GT_1
100
AcDbPolyline
 90
3
 70
128
 10
191.1
 20
192.9
 10
192.8
 20
191.9
 10
191.5
 20
193.4
  0
LWPOLYLINE
  5
414
330
6F
100
AcDbEntity
  8
GT_1
100
AcDbPolyline
 90
2
 70
128
 10
192.8
 20
191.9
 10
189.0
 20
195.1
  0
TEXT
  5
418
330
6F
100
AcDbEntity
  8
GT_1
100
AcDbText
 10
184.386
 20
195.6
 30
0.0
 40
3.0
  1
S6
  7
HTX1
 41
1.02
100
AcDbText
  0
LWPOLYLINE
  5
419
330
6F
100
AcDbEntity
  8
GT_1
100
AcDbPolyline
 90
5
 70
128
 10
183.9
 20
199.1
 10
189.0
 20
199.1
 10
189.0
 20
195.1
 10
183.9
 20
195.1
 10
183.9
 20
199.1
  0
LWPOLYLINE
  5
420
330
6F
100
AcDbEntity
  8
GT_1
 62
3
100
AcDbPolyline
 90
2
 70
128
 43
0.6
 10
226.5
 20
211.3
 10
246.0
 20
222.6
  0
LWPOLYLINE
  5
424
330
6F
100
AcDbEntity
  8
GT_1
100
AcDbPolyline
 90
2
 70
128
 10
75.8
 20
126.3
 10
75.8
 20
140.5
  0
LWPOLYLINE
  5
428
330
6F
100
AcDbEntity
  8
GT_1
100
AcDbPolyline
 90
3
 70
128
 10
77.3
 20
140.6
 10
75.8
 20
139.3
 10
77.7
 20
140.0
  0
LWPOLYLINE
  5
42D
330
6F
100
AcDbEntity
  8
GT_1
100
AcDbPolyline
 90
2
 70
128
 10
75.8
 20
139.3
 10
157.3
 20
186.4
  0
LWPOLYLINE
  5
431
330
6F
100
AcDbEntity
  8
GT_1
100
AcDbPolyline
 90
2
 70
128
 10
246.0
 20
226.6
 10
246.0
 20
238.8
  0
LWPOLYLINE
  5
435
330
6F
100
AcDbEntity
  8
GT_1
100
AcDbPolyline
 90
3
 70
128
 10
244.5
 20
236.3
 10
246.0
 20
237.6
 10
244.1
 20
236.9
  0
LWPOLYLINE
  5
43A
330
6F
100
AcDbEntity
  8
GT_1
100
AcDbPolyline
 90
2
 70
128
 10
246.0
 20
237.6
 10
165.4
 20
191.0
  0
TEXT
  5
43E
330
6F
100
AcDbEntity
  8
GT_1
100
AcDbText
 10
157.937
 20
185.354
 30
0.0
 40
3.0
  1
7500
 50
30.0
  7
HTX1
 41
1.02
100
AcDbText
  0
LWPOLYLINE
  5
43F
330
6F
100
AcDbEntity
  8
GT_1
100
AcDbPolyline
 90
7
 70
128
 10
246.6
 20
222.2
 10
246.0
 20
221.4
 10
245.4
 20
221.5
 10
245.4
 20
223.0
 10
246.0
 20
223.8
 10
246.6
 20
223.7
 10
246.6
 20
222.2
  0
LWPOLYLINE
  5
448
330
6F
100
AcDbEntity
  8
GT_1
100
AcDbPolyline
 90
2
 70
128
 10
245.4
 20
221.6
 10
246.15
 20
221.6
  0
LWPOLYLINE
  5
44C
330
6F
100
AcDbEntity
  8
GT_1
100
AcDbPolyline
 90
2
 70
128
 10
245.4
 20
221.8
 10
246.3
 20
221.8
  0
LWPOLYLINE
  5
450
330
6F
100
AcDbEntity
  8
GT_1
100
AcDbPolyline
 90
2
 70
128
 10
245.4
 20
222.0
 10
246.45
 20
222.0
  0
LWPOLYLINE
  5
454
330
6F
100
AcDbEntity
  8
GT_1
100
AcDbPolyline
 90
2
 70
128
 10
245.4
 20
222.2
 10
246.6
 20
222.2
  0
LWPOLYLINE
  5
458
330
6F
100
AcDbEntity
  8
GT_1
100
AcDbPolyline
 90
2
 70
128
 10
245.4
 20
222.4
 10
246.6
 20
222.4
  0
LWPOLYLINE
  5
45C
330
6F
100
AcDbEntity
  8
GT_1
100
AcDbPolyline
 90
2
 70
128
 10
245.4
 20
222.6
 10
246.6
 20
222.6
  0
LWPOLYLINE
  5
460
330
6F
100
AcDbEntity
  8
GT_1
100
AcDbPolyline
 90
2
 70
128
 10
245.4
 20
222.8
 10
246.6
 20
222.8
  0
LWPOLYLINE
  5
464
330
6F
100
AcDbEntity
  8
GT_1
100
AcDbPolyline
 90
2
 70
128
 10
245.4
 20
223.0
 10
246.6
 20
223.0
  0
LWPOLYLINE
  5
468
330
6F
100
AcDbEntity
  8
GT_1
100
AcDbPolyline
 90
2
 70
128
 10
245.55
 20
223.2
 10
246.6
 20
223.2
  0
LWPOLYLINE
  5
46C
330
6F
100
AcDbEntity
  8
GT_1
100
AcDbPolyline
 90
2
 70
128
 10
245.7
 20
223.4
 10
246.6
 20
223.4
  0
LWPOLYLINE
  5
470
330
6F
100
AcDbEntity
  8
GT_1
100
AcDbPolyline
 90
2
 70
128
 10
245.85
 20
223.6
 10
246.6
 20
223.6
  0
LWPOLYLINE
  5
474
330
6F
100
AcDbEntity
  8
GT_1
100
AcDbPolyline
 90
2
 70
128
 10
246.0
 20
223.8
 10
243.5
 20
228.1
  0
TEXT
  5
478
330
6F
100
AcDbEntity
  8
GT_1
100
AcDbText
 10
239.986
 20
226.9
 30
0.0
 40
3.0
  1
3
  7
HTX1
 41
1.02
100
AcDbText
  0
LWPOLYLINE
  5
479
330
6F
100
AcDbEntity
  8
GT_1
100
AcDbPolyline
 90
3
 70
128
 10
238.186
 20
228.1
 42
1.0
 10
243.5
 20
228.1
 42
1.0
 10
238.186
 20
228.1
  0
LWPOLYLINE
  5
47E
330
6F
100
AcDbEntity
  8
GT_1
100
AcDbPolyline
 90
6
 70
128
 10
246.0
 20
222.6
 10
244.6
 20
221.8
 10
244.6
 20
218.6
 10
247.4
 20
220.2
 10
247.4
 20
223.4
 10
246.0
 20
222.6
  0
LWPOLYLINE
  5
486
330
6F
100
AcDbEntity
  8
GT_1
100
AcDbPolyline
 90
3
 70
128
 10
248.0
 20
219.7
 10
246.0
 20
219.4
 10
248.0
 20
219.1
  0
LWPOLYLINE
  5
48B
330
6F
100
AcDbEntity
  8
GT_1
100
AcDbPolyline
 90
2
 70
128
 10
246.0
 20
219.4
 10
263.0
 20
219.4
  0
TEXT
  5
48F
330
6F
100
AcDbEntity
  8
GT_1
100
AcDbText
 10
263.5
 20
219.9
 30
0.0
 40
3.0
  1
4
  7
HTX1
 41
1.02
100
AcDbText
  0
LWPOLYLINE
  5
490
330
6F
100
AcDbEntity
  8
GT_1
100
AcDbPolyline
 90
5
 70
128
 10
263.0
 20
223.4
 10
266.0
 20
223.4
 10
266.0
 20
219.4
 10
263.0
 20
219.4
 10
263.0
 20
223.4
  0
TEXT
  5
497
330
6F
100
AcDbEntity
  8
GT_1
100
AcDbText
 10
263.5
 20
215.9
 30
0.0
 40
3.0
  1
100x50DN
  7
HTX1
 41
1.02
100
AcDbText
  0
LWPOLYLINE
  5
498
330
6F
100
AcDbEntity
  8
GT_1
100
AcDbPolyline
 90
2
 70
128
 10
249.5
 20
224.6
 10
260.0
 20
230.7
  0
LWPOLYLINE
  5
49C
330
6F
100
AcDbEntity
  8
GT_1
100
AcDbPolyline
 90
2
 70
128
 10
249.5
 20
221.4
 10
260.0
 20
227.5
  0
LWPOLYLINE
  5
4A0
330
6F
100
AcDbEntity
  8
GT_1
100
AcDbPolyline
 90
3
 70
128
 10
261.0
 20
228.8
 10
259.0
 20
228.5
 10
261.0
 20
228.2
  0
LWPOLYLINE
  5
4A5
330
6F
100
AcDbEntity
  8
GT_1
100
AcDbPolyline
 90
2
 70
128
 10
259.0
 20
228.5
 10
268.0
 20
228.5
  0
TEXT
  5
4A9
330
6F
100
AcDbEntity
  8
GT_1
100
AcDbText
 10
268.5
 20
229.0
 30
0.0
 40
3.0
  1
79
  7
HTX1
 41
1.02
100
AcDbText
  0
LWPOLYLINE
  5
4AA
330
6F
100
AcDbEntity
  8
GT_1
  6
GT100
100
AcDbPolyline
 90
7
 70
128
 10
245.4
 20
218.3
 10
244.9
 20
218.8
 10
245.4
 20
219.8
 10
246.6
 20
220.5
 10
247.1
 20
220.0
 10
246.6
 20
219.0
 10
245.4
 20
218.3
  0
LWPOLYLINE
  5
4B3
330
6F
100
AcDbEntity
  8
GT_1
  6
GT100
100
AcDbPolyline
 90
4
 70
128
 10
244.6
 20
216.6
 10
244.6
 20
218.6
 10
247.4
 20
220.2
 10
247.4
 20
218.2
  0
LWPOLYLINE
  5
4B9
330
6F
100
AcDbEntity
  8
GT_1
100
AcDbPolyline
 90
3
 70
128
 10
248.0
 20
219.1
 10
246.0
 20
219.4
 10
247.7
 20
218.4
  0
LWPOLYLINE
  5
4BE
330
6F
100
AcDbEntity
  8
GT_1
100
AcDbPolyline
 90
2
 70
128
 10
246.0
 20
219.4
 10
273.3
 20
209.5
  0
TEXT
  5
4C2
330
6F
100
AcDbEntity
  8
GT_1
100
AcDbText
 10
273.8
 20
210.0
 30
0.0
 40
3.0
  1
E 967000
  7
HTX1
 41
1.02
100
AcDbText
  0
TEXT
  5
4C3
330
6F
100
AcDbEntity
  8
GT_1
100
AcDbText
 10
273.8
 20
206.0
 30
0.0
 40
3.0
  1
S 1281800
  7
HTX1
 41
1.02
100
AcDbText
  0
TEXT
  5
4C4
330
6F
100
AcDbEntity
  8
GT_1
100
AcDbText
 10
273.8
 20
202.0
 30
0.0
 40
3.0
  1
FL+3921
  7
HTX1
 41
1.02
100
AcDbText
  0
LWPOLYLINE
  5
4C5
330
6F
100
AcDbEntity
  8
GT_1
 62
3
100
AcDbPolyline
 90
2
 70
128
 43
0.6
 10
246.0
 20
222.6
 10
302.5
 20
255.2
  0
LWPOLYLINE
  5
4C9
330
6F
100
AcDbEntity
  8
GT_1
100
AcDbPolyline
 90
3
 70
128
 10
272.6
 20
239.9
 10
274.3
 20
238.9
 10
273.0
 20
240.4
  0
LWPOLYLINE
  5
4CE
330
6F
100
AcDbEntity
  8
GT_1
100
AcDbPolyline
 90
2
 70
128
 10
274.3
 20
238.9
 10
270.5
 20
242.1
  0
TEXT
  5
4D2
330
6F
100
AcDbEntity
  8
GT_1
100
AcDbText
 10
265.886
 20
242.6
 30
0.0
 40
3.0
  1
S6
  7
HTX1
 41
1.02
100
AcDbText
  0
LWPOLYLINE
  5
4D3
330
6F
100
AcDbEntity
  8
GT_1
100
AcDbPolyline
 90
5
 70
128
 10
265.4
 20
246.1
 10
270.5
 20
246.1
 10
270.5
 20
242.1
 10
265.4
 20
242.1
 10
265.4
 20
246.1
  0
LWPOLYLINE
  5
4DA
330
6F
100
AcDbEntity
  8
GT_1
 62
3
100
AcDbPolyline
 90
2
 70
128
 43
0.6
 10
302.5
 20
255.2
 10
359.1
 20
287.9
  0
LWPOLYLINE
  5
4DE
330
6F
100
AcDbEntity
  8
GT_1
100
AcDbPolyline
 90
2
 70
128
 10
246.0
 20
224.6
 10
246.0
 20
238.8
  0
LWPOLYLINE
  5
4E2
330
6F
100
AcDbEntity
  8
GT_1
100
AcDbPolyline
 90
3
 70
128
 10
247.5
 20
238.9
 10
246.0
 20
237.6
 10
247.9
 20
238.3
  0
LWPOLYLINE
  5
4E7
330
6F
100
AcDbEntity
  8
GT_1
100
AcDbPolyline
 90
2
 70
128
 10
246.0
 20
237.6
 10
299.0
 20
268.2
  0
LWPOLYLINE
  5
4EB
330
6F
100
AcDbEntity
  8
GT_1
100
AcDbPolyline
 90
2
 70
128
 10
359.1
 20
291.9
 10
359.1
 20
304.1
  0
LWPOLYLINE
  5
4EF
330
6F
100
AcDbEntity
  8
GT_1
100
AcDbPolyline
 90
3
 70
128
 10
357.6
 20
301.6
 10
359.1
 20
302.9
 10
357.2
 20
302.2
  0
LWPOLYLINE
  5
4F4
330
6F
100
AcDbEntity
  8
GT_1
100
AcDbPolyline
 90
2
 70
128
 10
359.1
 20
302.9
 10
307.0
 20
272.8
  0
TEXT
  5
4F8
330
6F
100
AcDbEntity
  8
GT_1
100
AcDbText
 10
299.587
 20
267.154
 30
0.0
 40
3.0
  1
5300
 50
30.0
  7
HTX1
 41
1.02
100
AcDbText
  0
LWPOLYLINE
  5
4F9
330
6F
100
AcDbEntity
  8
GT_1
100
AcDbPolyline
 90
7
 70
128
 10
359.7
 20
287.5
 10
359.1
 20
286.7
 10
358.5
 20
286.8
 10
358.5
 20
288.3
 10
359.1
 20
289.1
 10
359.7
 20
289.0
 10
359.7
 20
287.5
  0
LWPOLYLINE
  5
502
330
6F
100
AcDbEntity
  8
GT_1
100
AcDbPolyline
 90
2
 70
128
 10
358.5
 20
286.8
 10
359.175
 20
286.8
  0
LWPOLYLINE
  5
506
330
6F
100
AcDbEntity
  8
GT_1
100
AcDbPolyline
 90
2
 70
128
 10
358.5
 20
287.0
 10
359.325
 20
287.0
  0
LWPOLYLINE
  5
50A
330
6F
100
AcDbEntity
  8
GT_1
100
AcDbPolyline
 90
2
 70
128
 10
358.5
 20
287.2
 10
359.475
 20
287.2
  0
LWPOLYLINE
  5
50E
330
6F
100
AcDbEntity
  8
GT_1
100
AcDbPolyline
 90
2
 70
128
 10
358.5
 20
287.4
 10
359.625
 20
287.4
  0
LWPOLYLINE
  5
512
330
6F
100
AcDbEntity
  8
GT_1
100
AcDbPolyline
 90
2
 70
128
 10
358.5
 20
287.6
 10
359.7
 20
287.6
  0
LWPOLYLINE
  5
516
330
6F
100
AcDbEntity
  8
GT_1
100
AcDbPolyline
 90
2
 70
128
 10
358.5
 20
287.8
 10
359.7
 20
287.8
  0
LWPOLYLINE
  5
51A
330
6F
100
AcDbEntity
  8
GT_1
100
AcDbPolyline
 90
2
 70
128
 10
358.5
 20
288.0
 10
359.7
 20
288.0
  0
LWPOLYLINE
  5
51E
330
6F
100
AcDbEntity
  8
GT_1
100
AcDbPolyline
 90
2
 70
128
 10
358.5
 20
288.2
 10
359.7
 20
288.2
  0
LWPOLYLINE
  5
522
330
6F
100
AcDbEntity
  8
GT_1
100
AcDbPolyline
 90
2
 70
128
 10
358.575
 20
288.4
 10
359.7
 20
288.4
  0
LWPOLYLINE
  5
526
330
6F
100
AcDbEntity
  8
GT_1
100
AcDbPolyline
 90
2
 70
128
 10
358.725
 20
288.6
 10
359.7
 20
288.6
  0
LWPOLYLINE
  5
52A
330
6F
100
AcDbEntity
  8
GT_1
100
AcDbPolyline
 90
2
 70
128
 10
358.875
 20
288.8
 10
359.7
 20
288.8
  0
LWPOLYLINE
  5
52E
330
6F
100
AcDbEntity
  8
GT_1
100
AcDbPolyline
 90
2
 70
128
 10
359.025
 20
289.0
 10
359.7
 20
289.0
  0
LWPOLYLINE
  5
532
330
6F
100
AcDbEntity
  8
GT_1
100
AcDbPolyline
 90
2
 70
128
 10
359.1
 20
289.1
 10
356.6
 20
293.4
  0
TEXT
  5
536
330
6F
100
AcDbEntity
  8
GT_1
100
AcDbText
 10
353.086
 20
292.2
 30
0.0
 40
3.0
  1
4
  7
HTX1
 41
1.02
100
AcDbText
  0
LWPOLYLINE
  5
537
330
6F
100
AcDbEntity
  8
GT_1
100
AcDbPolyline
 90
3
 70
128
 10
351.286
 20
293.4
 42
1.0
 10
356.6
 20
293.4
 42
1.0
 10
351.286
 20
293.4
  0
LWPOLYLINE
  5
53C
330
6F
100
AcDbEntity
  8
GT_1
100
AcDbPolyline
 90
6
 70
128
 10
359.1
 20
287.9
 10
357.7
 20
287.1
 10
357.7
 20
283.9
 10
360.5
 20
285.5
 10
360.5
 20
288.7
 10
359.1
 20
287.9
  0
LWPOLYLINE
  5
544
330
6F
100
AcDbEntity
  8
GT_1
100
AcDbPolyline
 90
3
 70
128
 10
361.1
 20
284.4
 10
359.1
 20
284.7
 10
360.8
 20
283.7
  0
LWPOLYLINE
  5
549
330
6F
100
AcDbEntity
  8
GT_1
100
AcDbPolyline
 90
2
 70
128
 10
359.1
 20
284.7
 10
375.1
 20
278.9
  0
TEXT
  5
54D
330
6F
100
AcDbEntity
  8
GT_1
100
AcDbText
 10
375.6
 20
279.4
 30
0.0
 40
3.0
  1
4
  7
HTX1
 41
1.02
100
AcDbText
  0
LWPOLYLINE
  5
54E
330
6F
100
AcDbEntity
  8
GT_1
100
AcDbPolyline
 90
5
 70
128
 10
375.1
 20
282.9
 10
378.1
 20
282.9
 10
378.1
 20
278.9
 10
375.1
 20
278.9
 10
375.1
 20
282.9
  0
TEXT
  5
555
330
6F
100
AcDbEntity
  8
GT_1
100
AcDbText
 10
375.6
 20
275.4
 30
0.0
 40
3.0
  1
100x50DN
  7
HTX1
 41
1.02
100
AcDbText
  0
LWPOLYLINE
  5
556
330
6F
100
AcDbEntity
  8
GT_1
100
AcDbPolyline
 90
2
 70
128
 10
362.6
 20
289.9
 10
373.1
 20
296.0
  0
LWPOLYLINE
  5
55A
330
6F
100
AcDbEntity
  8
GT_1
100
AcDbPolyline
 90
2
 70
128
 10
362.6
 20
286.7
 10
373.1
 20
292.8
  0
LWPOLYLINE
  5
55E
330
6F
100
AcDbEntity
  8
GT_1
100
AcDbPolyline
 90
3
 70
128
 10
373.8
 20
292.8
 10
372.1
 20
293.8
 10
373.4
 20
292.3
  0
LWPOLYLINE
  5
563
330
6F
100
AcDbEntity
  8
GT_1
100
AcDbPolyline
 90
2
 70
128
 10
372.1
 20
293.8
 10
382.1
 20
285.4
  0
TEXT
  5
567
330
6F
100
AcDbEntity
  8
GT_1
100
AcDbText
 10
382.6
 20
285.9
 30
0.0
 40
3.0
  1
79
  7
HTX1
 41
1.02
100
AcDbText
  0
LWPOLYLINE
  5
568
330
6F
100
AcDbEntity
  8
GT_1
  6
GT100
100
AcDbPolyline
 90
7
 70
128
 10
358.5
 20
283.6
 10
358.0
 20
284.1
 10
358.5
 20
285.1
 10
359.7
 20
285.8
 10
360.2
 20
285.3
 10
359.7
 20
284.3
 10
358.5
 20
283.6
  0
LWPOLYLINE
  5
571
330
6F
100
AcDbEntity
  8
GT_1
  6
GT100
100
AcDbPolyline
 90
4
 70
128
 10
357.7
 20
281.9
 10
357.7
 20
283.9
 10
360.5
 20
285.5
 10
360.5
 20
283.5
  0
LWPOLYLINE
  5
577
330
6F
100
AcDbEntity
  8
GT_1
100
AcDbPolyline
 90
3
 70
128
 10
361.1
 20
285.0
 10
359.1
 20
284.7
 10
361.1
 20
284.4
  0
LWPOLYLINE
  5
57C
330
6F
100
AcDbEntity
  8
GT_1
100
AcDbPolyline
 90
2
 70
128
 10
359.1
 20
284.7
 10
396.1
 20
284.7
  0
TEXT
  5
580
330
6F
100
AcDbEntity
  8
GT_1
100
AcDbText
 10
396.6
 20
285.2
 30
0.0
 40
3.0
  1
E 972300
  7
HTX1
 41
1.02
100
AcDbText
  0
TEXT
  5
581
330
6F
100
AcDbEntity
  8
GT_1
100
AcDbText
 10
396.6
 20
281.2
 30
0.0
 40
3.0
  1
S 1281800
  7
HTX1
 41
1.02
100
AcDbText
  0
TEXT
  5
582
330
6F
100
AcDbEntity
  8
GT_1
100
AcDbText
 10
396.6
 20
277.2
 30
0.0
 40
3.0
  1
FL+3921
  7
HTX1
 41
1.02
100
AcDbText
  0
LWPOLYLINE
  5
583
330
6F
100
AcDbEntity
  8
GT_1
 62
3
100
AcDbPolyline
 90
2
 70
128
 43
0.6
 10
359.1
 20
287.9
 10
379.4
 20
299.6
  0
TEXT
  5
587
330
6F
100
AcDbEntity
  8
GT_1
100
AcDbText
 10
364.021
 20
292.384
 30
0.0
 40
3.0
  1
<1>
 50
30.0
  7
HTX1
 41
1.02
100
AcDbText
  0
TEXT
  5
588
330
6F
100
AcDbEntity
  8
GT_1
100
AcDbText
 10
371.088
 20
296.464
 30
0.0
 40
3.0
  1
1
 50
30.0
  7
HTX1
 41
1.02
100
AcDbText
  0
LWPOLYLINE
  5
589
330
6F
100
AcDbEntity
  8
GT_1
100
AcDbPolyline
 90
5
 70
128
 10
368.9
 20
299.2
 10
371.5
 20
300.8
 10
373.5
 20
297.3
 10
370.9
 20
295.8
 10
368.9
 20
299.2
  0
LWPOLYLINE
  5
590
330
6F
100
AcDbEntity
  8
GT_1
100
AcDbPolyline
 90
7
 70
128
 10
380.0
 20
299.2
 10
379.4
 20
298.4
 10
378.8
 20
298.5
 10
378.8
 20
300.0
 10
379.4
 20
300.8
 10
380.0
 20
300.7
 10
380.0
 20
299.2
  0
LWPOLYLINE
  5
599
330
6F
100
AcDbEntity
  8
GT_1
100
AcDbPolyline
 90
2
 70
128
 10
378.8
 20
298.6
 10
379.55
 20
298.6
  0
LWPOLYLINE
  5
59D
330
6F
100
AcDbEntity
  8
GT_1
100
AcDbPolyline
 90
2
 70
128
 10
378.8
 20
298.8
 10
379.7
 20
298.8
  0
LWPOLYLINE
  5
5A1
330
6F
100
AcDbEntity
  8
GT_1
100
AcDbPolyline
 90
2
 70
128
 10
378.8
 20
299.0
 10
379.85
 20
299.0
  0
LWPOLYLINE
  5
5A5
330
6F
100
AcDbEntity
  8
GT_1
100
AcDbPolyline
 90
2
 70
128
 10
378.8
 20
299.2
 10
380.0
 20
299.2
  0
LWPOLYLINE
  5
5A9
330
6F
100
AcDbEntity
  8
GT_1
100
AcDbPolyline
 90
2
 70
128
 10
378.8
 20
299.4
 10
380.0
 20
299.4
  0
LWPOLYLINE
  5
5AD
330
6F
100
AcDbEntity
  8
GT_1
100
AcDbPolyline
 90
2
 70
128
 10
378.8
 20
299.6
 10
380.0
 20
299.6
  0
LWPOLYLINE
  5
5B1
330
6F
100
AcDbEntity
  8
GT_1
100
AcDbPolyline
 90
2
 70
128
 10
378.8
 20
299.8
 10
380.0
 20
299.8
  0
LWPOLYLINE
  5
5B5
330
6F
100
AcDbEntity
  8
GT_1
100
AcDbPolyline
 90
2
 70
128
 10
378.8
 20
300.0
 10
380.0
 20
300.0
  0
LWPOLYLINE
  5
5B9
330
6F
100
AcDbEntity
  8
GT_1
100
AcDbPolyline
 90
2
 70
128
 10
378.95
 20
300.2
 10
380.0
 20
300.2
  0
LWPOLYLINE
  5
5BD
330
6F
100
AcDbEntity
  8
GT_1
100
AcDbPolyline
 90
2
 70
128
 10
379.1
 20
300.4
 10
380.0
 20
300.4
  0
LWPOLYLINE
  5
5C1
330
6F
100
AcDbEntity
  8
GT_1
100
AcDbPolyline
 90
2
 70
128
 10
379.25
 20
300.6
 10
380.0
 20
300.6
  0
LWPOLYLINE
  5
5C5
330
6F
100
AcDbEntity
  8
GT_1
100
AcDbPolyline
 90
2
 70
128
 10
379.4
 20
298.4
 10
381.9
 20
294.1
  0
TEXT
  5
5C9
330
6F
100
AcDbEntity
  8
GT_1
100
AcDbText
 10
383.7
 20
292.9
 30
0.0
 40
3.0
  1
5
  7
HTX1
 41
1.02
100
AcDbText
  0
LWPOLYLINE
  5
5CA
330
6F
100
AcDbEntity
  8
GT_1
100
AcDbPolyline
 90
3
 70
128
 10
387.214
 20
294.1
 42
1.0
 10
381.9
 20
294.1
 42
1.0
 10
387.214
 20
294.1
  0
LWPOLYLINE
  5
5CF
330
6F
100
AcDbEntity
  8
GT_1
 62
3
100
AcDbPolyline
 90
2
 70
128
 43
0.6
 10
379.4
 20
299.6
 10
385.5
 20
303.1
  0
LWPOLYLINE
  5
5D3
330
6F
100
AcDbEntity
  8
GT_1
100
AcDbPolyline
 90
3
 70
128
 10
389.4
 20
303.1
 10
388.1
 20
304.6
 10
388.8
 20
302.7
  0
LWPOLYLINE
  5
5D8
330
6F
100
AcDbEntity
  8
GT_1
100
AcDbPolyline
 90
2
 70
128
 10
388.1
 20
304.6
 10
390.6
 20
300.3
  0
TEXT
  5
5DC
330
6F
100
AcDbEntity
  8
GT_1
100
AcDbText
 10
391.1000000000001
 20
300.8
 30
0.0
 40
3.0
  1
2
  7
HTX1
 41
1.02
100
AcDbText
  0
LWPOLYLINE
  5
5DD
330
6F
100
AcDbEntity
  8
GT_1
100
AcDbPolyline
 90
5
 70
128
 10
390.6
 20
304.3
 10
393.6
 20
304.3
 10
393.6
 20
300.3
 10
390.6
 20
300.3
 10
390.6
 20
304.3
  0
LWPOLYLINE
  5
5E4
330
6F
100
AcDbEntity
  8
GT_1
100
AcDbPolyline
 90
2
 70
128
 10
359.1
 20
289.9
 10
359.1
 20
304.1
  0
LWPOLYLINE
  5
5E8
330
6F
100
AcDbEntity
  8
GT_1
100
AcDbPolyline
 90
3
 70
128
 10
360.6
 20
304.2
 10
359.1
 20
302.9
 10
361.0
 20
303.6
  0
LWPOLYLINE
  5
5ED
330
6F
100
AcDbEntity
  8
GT_1
100
AcDbPolyline
 90
2
 70
128
 10
359.1
 20
302.9
 10
370.9
 20
309.7
  0
LWPOLYLINE
  5
5F1
330
6F
100
AcDbEntity
  8
GT_1
100
AcDbPolyline
 90
2
 70
128
 10
388.1
 20
308.6
 10
388.1
 20
320.8
  0
LWPOLYLINE
  5
5F5
330
6F
100
AcDbEntity
  8
GT_1
100
AcDbPolyline
 90
3
 70
128
 10
386.6
 20
318.3
 10
388.1
 20
319.6
 10
386.2
 20
318.9
  0
LWPOLYLINE
  5
5FA
330
6F
100
AcDbEntity
  8
GT_1
100
AcDbPolyline
 90
2
 70
128
 10
388.1
 20
319.6
 10
377.2
 20
313.3
  0
TEXT
  5
5FE
330
6F
100
AcDbEntity
  8
GT_1
100
AcDbText
 10
371.528
 20
308.668
 30
0.0
 40
3.0
  1
300
 50
30.0
  7
HTX1
 41
1.02
100
AcDbText
  0
LWPOLYLINE
  5
5FF
330
6F
100
AcDbEntity
  8
GT_1
100
AcDbPolyline
 90
2
 70
128
 10
59.9
 20
119.1
 10
59.9
 20
136.3
  0
LWPOLYLINE
  5
603
330
6F
100
AcDbEntity
  8
GT_1
100
AcDbPolyline
 90
3
 70
128
 10
61.4
 20
136.4
 10
59.9
 20
135.1
 10
61.79999999999999
 20
135.8
  0
LWPOLYLINE
  5
608
330
6F
100
AcDbEntity
  8
GT_1
100
AcDbPolyline
 90
2
 70
128
 10
59.9
 20
135.1
 10
219.5
 20
227.3
  0
LWPOLYLINE
  5
60C
330
6F
100
AcDbEntity
  8
GT_1
100
AcDbPolyline
 90
2
 70
128
 10
388.1
 20
308.6
 10
388.1
 20
325.8
  0
LWPOLYLINE
  5
610
330
6F
100
AcDbEntity
  8
GT_1
100
AcDbPolyline
 90
3
 70
128
 10
386.6
 20
323.3
 10
388.1
 20
324.6
 10
386.2
 20
323.9
  0
LWPOLYLINE
  5
615
330
6F
100
AcDbEntity
  8
GT_1
100
AcDbPolyline
 90
2
 70
128
 10
388.1
 20
324.6
 10
229.3
 20
232.9
  0
TEXT
  5
619
330
6F
100
AcDbEntity
  8
GT_1
100
AcDbText
 10
220.146
 20
226.239
 30
0.0
 40
3.0
  1
13500
 50
30.0
  7
HTX1
 41
1.02
100
AcDbText
  0
LWPOLYLINE
  5
61E
330
6F
100
AcDbEntity
  8
GT_1
 62
3
100
AcDbPolyline
 90
2
 70
128
 43
0.6
 10
388.1
 20
307.6
 10
388.1
 20
314.6
  0
LWPOLYLINE
  5
622
330
6F
100
AcDbEntity
  8
GT_1
100
AcDbPolyline
 90
7
 70
128
 10
387.5
 20
315.0
 10
387.0
 20
314.0
 10
387.5
 20
313.5
 10
388.7
 20
314.2
 10
389.2
 20
315.2
 10
388.7
 20
315.7
 10
387.5
 20
315.0
  0
LWPOLYLINE
  5
62B
330
6F
100
AcDbEntity
  8
GT_1
100
AcDbPolyline
 90
2
 70
128
 10
387.2
 20
313.8
 10
388.014
 20
313.8
  0
LWPOLYLINE
  5
62F
330
6F
100
AcDbEntity
  8
GT_1
100
AcDbPolyline
 90
2
 70
128
 10
387.0
 20
314.0
 10
388.357
 20
314.0
  0
LWPOLYLINE
  5
633
330
6F
100
AcDbEntity
  8
GT_1
100
AcDbPolyline
 90
2
 70
128
 10
387.1
 20
314.2
 10
388.7
 20
314.2
  0
LWPOLYLINE
  5
637
330
6F
100
AcDbEntity
  8
GT_1
100
AcDbPolyline
 90
2
 70
128
 10
387.2
 20
314.4
 10
388.8
 20
314.4
  0
LWPOLYLINE
  5
63B
330
6F
100
AcDbEntity
  8
GT_1
100
AcDbPolyline
 90
2
 70
128
 10
387.3
 20
314.6
 10
388.9
 20
314.6
  0
LWPOLYLINE
  5
63F
330
6F
100
AcDbEntity
  8
GT_1
100
AcDbPolyline
 90
2
 70
128
 10
387.4
 20
314.8
 10
389.0
 20
314.8
  0
LWPOLYLINE
  5
643
330
6F
100
AcDbEntity
  8
GT_1
100
AcDbPolyline
 90
2
 70
128
 10
387.5
 20
315.0
 10
389.1
 20
315.0
  0
LWPOLYLINE
  5
647
330
6F
100
AcDbEntity
  8
GT_1
100
AcDbPolyline
 90
2
 70
128
 10
387.843
 20
315.2
 10
389.2
 20
315.2
  0
LWPOLYLINE
  5
64B
330
6F
100
AcDbEntity
  8
GT_1
100
AcDbPolyline
 90
2
 70
128
 10
388.186
 20
315.4
 10
389.0
 20
315.4
  0
LWPOLYLINE
  5
64F
330
6F
100
AcDbEntity
  8
GT_1
100
AcDbPolyline
 90
2
 70
128
 10
389.2
 20
315.2
 10
393.9
 20
316.9
  0
TEXT
  5
653
330
6F
100
AcDbEntity
  8
GT_1
100
AcDbText
 10
395.7
 20
315.7
 30
0.0
 40
3.0
  1
6
  7
HTX1
 41
1.02
100
AcDbText
  0
LWPOLYLINE
  5
654
330
6F
100
AcDbEntity
  8
GT_1
100
AcDbPolyline
 90
3
 70
128
 10
399.214
 20
316.9
 42
1.0
 10
393.9
 20
316.9
 42
1.0
 10
399.214
 20
316.9
  0
LWPOLYLINE
  5
659
330
6F
100
AcDbEntity
  8
GT_1
 62
3
100
AcDbPolyline
 90
2
 70
128
 43
0.6
 10
388.1
 20
314.6
 10
388.1
 20
333.8
  0
LWPOLYLINE
  5
65D
330
6F
100
AcDbEntity
  8
GT_1
100
AcDbPolyline
 90
3
 70
128
 10
390.1
 20
324.5
 10
388.1
 20
324.2
 10
390.1
 20
323.9
  0
LWPOLYLINE
  5
662
330
6F
100
AcDbEntity
  8
GT_1
100
AcDbPolyline
 90
2
 70
128
 10
388.1
 20
324.2
 10
393.1
 20
324.2
  0
TEXT
  5
666
330
6F
100
AcDbEntity
  8
GT_1
100
AcDbText
 10
393.6
 20
324.7
 30
0.0
 40
3.0
  1
S6
  7
HTX1
 41
1.02
100
AcDbText
  0
LWPOLYLINE
  5
667
330
6F
100
AcDbEntity
  8
GT_1
100
AcDbPolyline
 90
5
 70
128
 10
393.1
 20
328.2
 10
398.2
 20
328.2
 10
398.2
 20
324.2
 10
393.1
 20
324.2
 10
393.1
 20
328.2
  0
LWPOLYLINE
  5
66E
330
6F
100
AcDbEntity
  8
GT_1
 62
3
100
AcDbPolyline
 90
2
 70
128
 43
0.6
 10
388.1
 20
333.8
 10
388.1
 20
388.6
  0
TEXT
  5
672
330
6F
100
AcDbEntity
  8
GT_1
100
AcDbText
 10
386.65
 20
356.057
 30
0.0
 40
3.0
  1
<2>
 50
90.0
  7
HTX1
 41
1.02
100
AcDbText
  0
TEXT
  5
673
330
6F
100
AcDbEntity
  8
GT_1
100
AcDbText
 10
386.65
 20
364.217
 30
0.0
 40
3.0
  1
1
 50
90.0
  7
HTX1
 41
1.02
100
AcDbText
  0
LWPOLYLINE
  5
674
330
6F
100
AcDbEntity
  8
GT_1
100
AcDbPolyline
 90
5
 70
128
 10
383.2
 20
363.7
 10
383.2
 20
366.8
 10
387.1
 20
366.8
 10
387.1
 20
363.7
 10
383.2
 20
363.7
  0
LWPOLYLINE
  5
67B
330
6F
100
AcDbEntity
  8
GT_1
100
AcDbPolyline
 90
7
 70
128
 10
387.5
 20
389.0
 10
387.0
 20
388.0
 10
387.5
 20
387.5
 10
388.7
 20
388.2
 10
389.2
 20
389.2
 10
388.7
 20
389.7
 10
387.5
 20
389.0
  0
LWPOLYLINE
  5
684
330
6F
100
AcDbEntity
  8
GT_1
100
AcDbPolyline
 90
2
 70
128
 10
387.2
 20
387.8
 10
388.014
 20
387.8
  0
LWPOLYLINE
  5
688
330
6F
100
AcDbEntity
  8
GT_1
100
AcDbPolyline
 90
2
 70
128
 10
387.0
 20
388.0
 10
388.357
 20
388.0
  0
LWPOLYLINE
  5
68C
330
6F
100
AcDbEntity
  8
GT_1
100
AcDbPolyline
 90
2
 70
128
 10
387.1
 20
388.2
 10
388.7
 20
388.2
  0
LWPOLYLINE
  5
690
330
6F
100
AcDbEntity
  8
GT_1
100
AcDbPolyline
 90
2
 70
128
 10
387.2
 20
388.4
 10
388.8
 20
388.4
  0
LWPOLYLINE
  5
694
330
6F
100
AcDbEntity
  8
GT_1
100
AcDbPolyline
 90
2
 70
128
 10
387.3
 20
388.6
 10
388.9
 20
388.6
  0
LWPOLYLINE
  5
698
330
6F
100
AcDbEntity
  8
GT_1
100
AcDbPolyline
 90
2
 70
128
 10
387.4
 20
388.8
 10
389.0
 20
388.8
  0
LWPOLYLINE
  5
69C
330
6F
100
AcDbEntity
  8
GT_1
100
AcDbPolyline
 90
2
 70
128
 10
387.5
 20
389.0
 10
389.1
 20
389.0
  0
LWPOLYLINE
  5
6A0
330
6F
100
AcDbEntity
  8
GT_1
100
AcDbPolyline
 90
2
 70
128
 10
387.843
 20
389.2
 10
389.2
 20
389.2
  0
LWPOLYLINE
  5
6A4
330
6F
100
AcDbEntity
  8
GT_1
100
AcDbPolyline
 90
2
 70
128
 10
388.186
 20
389.4
 10
389.0
 20
389.4
  0
LWPOLYLINE
  5
6A8
330
6F
100
AcDbEntity
  8
GT_1
100
AcDbPolyline
 90
2
 70
128
 10
387.0
 20
388.0
 10
382.0
 20
388.0
  0
TEXT
  5
6AC
330
6F
100
AcDbEntity
  8
GT_1
100
AcDbText
 10
378.486
 20
386.8
 30
0.0
 40
3.0
  1
7
  7
HTX1
 41
1.02
100
AcDbText
  0
LWPOLYLINE
  5
6AD
330
6F
100
AcDbEntity
  8
GT_1
100
AcDbPolyline
 90
3
 70
128
 10
376.686
 20
388.0
 42
1.0
 10
382.0
 20
388.0
 42
1.0
 10
376.686
 20
388.0
  0
LWPOLYLINE
  5
6B2
330
6F
100
AcDbEntity
  8
GT_1
 62
3
100
AcDbPolyline
 90
2
 70
128
 43
0.6
 10
388.1
 20
388.6
 10
388.1
 20
395.6
  0
LWPOLYLINE
  5
6B6
330
6F
100
AcDbEntity
  8
GT_1
100
AcDbPolyline
 90
3
 70
128
 10
386.1
 20
398.3
 10
388.1
 20
398.6
 10
386.1
 20
398.9
  0
LWPOLYLINE
  5
6BB
330
6F
100
AcDbEntity
  8
GT_1
100
AcDbPolyline
 90
2
 70
128
 10
388.1
 20
398.6
 10
375.1
 20
398.6
  0
TEXT
  5
6BF
330
6F
100
AcDbEntity
  8
GT_1
100
AcDbText
 10
360.2
 20
399.1
 30
0.0
 40
3.0
  1
2
  7
HTX1
 41
1.02
100
AcDbText
  0
LWPOLYLINE
  5
6C0
330
6F
100
AcDbEntity
  8
GT_1
100
AcDbPolyline
 90
5
 70
128
 10
359.7
 20
402.6
 10
362.7
 20
402.6
 10
362.7
 20
398.6
 10
359.7
 20
398.6
 10
359.7
 20
402.6
  0
TEXT
  5
6C7
330
6F
100
AcDbEntity
  8
GT_1
100
AcDbText
 10
360.2
 20
395.1
 30
0.0
 40
3.0
  1
FL+7823
  7
HTX1
 41
1.02
100
AcDbText
  0
LWPOLYLINE
  5
6C8
330
6F
100
AcDbEntity
  8
GT_1
100
AcDbPolyline
 90
2
 70
128
 10
391.6
 20
306.6
 10
402.0999999999999
 20
312.7
  0
LWPOLYLINE
  5
6CC
330
6F
100
AcDbEntity
  8
GT_1
100
AcDbPolyline
 90
3
 70
128
 10
400.8
 20
314.1
 10
401.1
 20
312.1
 10
401.4
 20
314.1
  0
LWPOLYLINE
  5
6D1
330
6F
100
AcDbEntity
  8
GT_1
100
AcDbPolyline
 90
2
 70
128
 10
401.1
 20
312.1
 10
401.1
 20
355.0
  0
LWPOLYLINE
  5
6D5
330
6F
100
AcDbEntity
  8
GT_1
100
AcDbPolyline
 90
2
 70
128
 10
391.6
 20
400.6
 10
402.0999999999999
 20
406.7
  0
LWPOLYLINE
  5
6D9
330
6F
100
AcDbEntity
  8
GT_1
100
AcDbPolyline
 90
3
 70
128
 10
401.4
 20
404.1
 10
401.1
 20
406.0999999999999
 10
400.8
 20
404.1
  0
LWPOLYLINE
  5
6DE
330
6F
100
AcDbEntity
  8
GT_1
100
AcDbPolyline
 90
2
 70
128
 10
401.1
 20
406.0999999999999
 10
401.1
 20
364.2
  0
TEXT
  5
6E2
330
6F
100
AcDbEntity
  8
GT_1
100
AcDbText
 10
402.2899999999999
 20
354.986
 30
0.0
 40
3.0
  1
3823
 50
90.0
  7
HTX1
 41
1.02
100
AcDbText
  0
LWPOLYLINE
  5
6E7
330
6F
100
AcDbEntity
  8
GT_1
 62
3
100
AcDbPolyline
 90
2
 70
128
 43
0.6
 10
390.7
 20
400.1
 10
396.8
 20
403.6
  0
LWPOLYLINE
  5
6EB
330
6F
100
AcDbEntity
  8
GT_1
100
AcDbPolyline
 90
7
 70
128
 10
398.1
 20
403.6
 10
397.9
 20
403.0
 10
396.8
 20
402.8999999999999
 10
395.5
 20
403.6
 10
395.7
 20
404.1999999999999
 10
396.8
 20
404.3
 10
398.1
 20
403.6
  0
LWPOLYLINE
  5
6F4
330
6F
100
AcDbEntity
  8
GT_1
100
AcDbPolyline
 90
2
 70
128
 10
396.614
 20
403.0
 10
397.9
 20
403.0
  0
LWPOLYLINE
  5
6F8
330
6F
100
AcDbEntity
  8
GT_1
100
AcDbPolyline
 90
2
 70
128
 10
396.2430000000001
 20
403.2
 10
397.967
 20
403.2
  0
LWPOLYLINE
  5
6FC
330
6F
100
AcDbEntity
  8
GT_1
100
AcDbPolyline
 90
2
 70
128
 10
395.871
 20
403.3999999999999
 10
398.033
 20
403.3999999999999
  0
LWPOLYLINE
  5
700
330
6F
100
AcDbEntity
  8
GT_1
100
AcDbPolyline
 90
2
 70
128
 10
395.5
 20
403.6
 10
398.1
 20
403.6
  0
LWPOLYLINE
  5
704
330
6F
100
AcDbEntity
  8
GT_1
100
AcDbPolyline
 90
2
 70
128
 10
395.5669999999999
 20
403.8
 10
397.729
 20
403.8
  0
LWPOLYLINE
  5
708
330
6F
100
AcDbEntity
  8
GT_1
100
AcDbPolyline
 90
2
 70
128
 10
395.633
 20
404.0
 10
397.357
 20
404.0
  0
LWPOLYLINE
  5
70C
330
6F
100
AcDbEntity
  8
GT_1
100
AcDbPolyline
 90
2
 70
128
 10
395.7
 20
404.1999999999999
 10
396.986
 20
404.1999999999999
  0
LWPOLYLINE
  5
710
330
6F
100
AcDbEntity
  8
GT_1
100
AcDbPolyline
 90
2
 70
128
 10
395.7
 20
404.1999999999999
 10
393.2
 20
408.4999999999999
  0
TEXT
  5
714
330
6F
100
AcDbEntity
  8
GT_1
100
AcDbText
 10
389.686
 20
407.3
 30
0.0
 40
3.0
  1
8
  7
HTX1
 41
1.02
100
AcDbText
  0
LWPOLYLINE
  5
715
330
6F
100
AcDbEntity
  8
GT_1
100
AcDbPolyline
 90
3
 70
128
 10
387.886
 20
408.4999999999999
 42
1.0
 10
393.2
 20
408.4999999999999
 42
1.0
 10
387.886
 20
408.4999999999999
  0
LWPOLYLINE
  5
71A
330
6F
100
AcDbEntity
  8
GT_1
 62
3
100
AcDbPolyline
 90
2
 70
128
 43
0.6
 10
396.8
 20
403.6
 10
409.9
 20
411.2
  0
LWPOLYLINE
  5
71E
330
6F
100
AcDbEntity
  8
GT_1
100
AcDbPolyline
 90
3
 70
128
 10
402.0999999999999
 20
408.8999999999999
 10
403.3999999999999
 20
407.3999999999999
 10
402.7
 20
409.2999999999999
  0
LWPOLYLINE
  5
723
330
6F
100
AcDbEntity
  8
GT_1
100
AcDbPolyline
 90
2
 70
128
 10
403.3999999999999
 20
407.3999999999999
 10
400.8999999999999
 20
411.6999999999999
  0
TEXT
  5
727
330
6F
100
AcDbEntity
  8
GT_1
100
AcDbText
 10
396.286
 20
412.1999999999999
 30
0.0
 40
3.0
  1
S6
  7
HTX1
 41
1.02
100
AcDbText
  0
LWPOLYLINE
  5
728
330
6F
100
AcDbEntity
  8
GT_1
100
AcDbPolyline
 90
5
 70
128
 10
395.8
 20
415.7
 10
400.8999999999999
 20
415.7
 10
400.8999999999999
 20
411.6999999999999
 10
395.8
 20
411.6999999999999
 10
395.8
 20
415.7
  0
LWPOLYLINE
  5
72F
330
6F
100
AcDbEntity
  8
GT_1
 62
3
100
AcDbPolyline
 90
2
 70
128
 43
0.6
 10
409.9
 20
411.2
 10
505.2999999999999
 20
466.3
  0
LWPOLYLINE
  5
733
330
6F
100
AcDbEntity
  8
GT_1
100
AcDbPolyline
 90
3
 70
128
 10
419.5
 20
418.7
 10
421.1999999999999
 20
417.6999999999999
 10
419.8999999999999
 20
419.2
  0
LWPOLYLINE
  5
738
330
6F
100
AcDbEntity
  8
GT_1
100
AcDbPolyline
 90
2
 70
128
 10
421.1999999999999
 20
417.6999999999999
 10
417.3999999999999
 20
420.8999999999999
  0
TEXT
  5
73C
330
6F
100
AcDbEntity
  8
GT_1
100
AcDbText
 10
412.786
 20
421.3999999999999
 30
0.0
 40
3.0
  1
S6
  7
HTX1
 41
1.02
100
AcDbText
  0
LWPOLYLINE
  5
73D
330
6F
100
AcDbEntity
  8
GT_1
100
AcDbPolyline
 90
5
 70
128
 10
412.3
 20
424.8999999999999
 10
417.3999999999999
 20
424.8999999999999
 10
417.3999999999999
 20
420.8999999999999
 10
412.3
 20
420.8999999999999
 10
412.3
 20
424.8999999999999
  0
LWPOLYLINE
  5
744
330
6F
100
AcDbEntity
  8
GT_1
 62
3
100
AcDbPolyline
 90
2
 70
128
 43
0.6
 10
505.2999999999999
 20
466.3
 10
538.3
 20
485.4
  0
TEXT
  5
748
330
6F
100
AcDbEntity
  8
GT_1
100
AcDbText
 10
516.6209999999999
 20
474.484
 30
0.0
 40
3.0
  1
<3>
 50
30.0
  7
HTX1
 41
1.02
100
AcDbText
  0
TEXT
  5
749
330
6F
100
AcDbEntity
  8
GT_1
100
AcDbText
 10
523.688
 20
478.5639999999999
 30
0.0
 40
3.0
  1
1
 50
30.0
  7
HTX1
 41
1.02
100
AcDbText
  0
LWPOLYLINE
  5
74A
330
6F
100
AcDbEntity
  8
GT_1
100
AcDbPolyline
 90
5
 70
128
 10
521.4999999999999
 20
481.3
 10
524.1
 20
482.8999999999999
 10
526.1
 20
479.3999999999999
 10
523.5
 20
477.8999999999999
 10
521.4999999999999
 20
481.3
  0
LWPOLYLINE
  5
751
330
6F
100
AcDbEntity
  8
GT_1
100
AcDbPolyline
 90
7
 70
128
 10
539.5999999999999
 20
485.4
 10
539.4
 20
484.7999999999999
 10
538.3
 20
484.7
 10
537.0
 20
485.4
 10
537.2
 20
486.0
 10
538.3
 20
486.1
 10
539.5999999999999
 20
485.4
  0
LWPOLYLINE
  5
75A
330
6F
100
AcDbEntity
  8
GT_1
100
AcDbPolyline
 90
2
 70
128
 10
538.114
 20
484.7999999999999
 10
539.4
 20
484.7999999999999
  0
LWPOLYLINE
  5
75E
330
6F
100
AcDbEntity
  8
GT_1
100
AcDbPolyline
 90
2
 70
128
 10
537.743
 20
485.0
 10
539.4669999999999
 20
485.0
  0
LWPOLYLINE
  5
762
330
6F
100
AcDbEntity
  8
GT_1
100
AcDbPolyline
 90
2
 70
128
 10
537.3709999999999
 20
485.2
 10
539.533
 20
485.2
  0
LWPOLYLINE
  5
766
330
6F
100
AcDbEntity
  8
GT_1
100
AcDbPolyline
 90
2
 70
128
 10
537.0
 20
485.4
 10
539.5999999999999
 20
485.4
  0
LWPOLYLINE
  5
76A
330
6F
100
AcDbEntity
  8
GT_1
100
AcDbPolyline
 90
2
 70
128
 10
537.067
 20
485.6
 10
539.229
 20
485.6
  0
LWPOLYLINE
  5
76E
330
6F
100
AcDbEntity
  8
GT_1
100
AcDbPolyline
 90
2
 70
128
 10
537.133
 20
485.8
 10
538.8569999999999
 20
485.8
  0
LWPOLYLINE
  5
772
330
6F
100
AcDbEntity
  8
GT_1
100
AcDbPolyline
 90
2
 70
128
 10
537.2
 20
486.0
 10
538.4859999999999
 20
486.0
  0
LWPOLYLINE
  5
776
330
6F
100
AcDbEntity
  8
GT_1
100
AcDbPolyline
 90
2
 70
128
 10
537.2
 20
486.0
 10
534.7
 20
490.3
  0
TEXT
  5
77A
330
6F
100
AcDbEntity
  8
GT_1
100
AcDbText
 10
531.186
 20
489.1
 30
0.0
 40
3.0
  1
9
  7
HTX1
 41
1.02
100
AcDbText
  0
LWPOLYLINE
  5
77B
330
6F
100
AcDbEntity
  8
GT_1
100
AcDbPolyline
 90
3
 70
128
 10
529.3859999999999
 20
490.3
 42
1.0
 10
534.7
 20
490.3
 42
1.0
 10
529.3859999999999
 20
490.3
  0
LWPOLYLINE
  5
780
330
6F
100
AcDbEntity
  8
GT_1
 62
3
100
AcDbPolyline
 90
2
 70
128
 43
0.6
 10
538.3
 20
485.4
 10
544.3999999999999
 20
488.9
  0
LWPOLYLINE
  5
784
330
6F
100
AcDbEntity
  8
GT_1
100
AcDbPolyline
 90
3
 70
128
 10
548.3
 20
488.9
 10
547.0
 20
490.3999999999999
 10
547.7
 20
488.4999999999999
  0
LWPOLYLINE
  5
789
330
6F
100
AcDbEntity
  8
GT_1
100
AcDbPolyline
 90
2
 70
128
 10
547.0
 20
490.3999999999999
 10
549.5
 20
486.1
  0
TEXT
  5
78D
330
6F
100
AcDbEntity
  8
GT_1
100
AcDbText
 10
550.0
 20
486.6
 30
0.0
 40
3.0
  1
2
  7
HTX1
 41
1.02
100
AcDbText
  0
LWPOLYLINE
  5
78E
330
6F
100
AcDbEntity
  8
GT_1
100
AcDbPolyline
 90
5
 70
128
 10
549.5
 20
490.1
 10
552.5
 20
490.1
 10
552.5
 20
486.1
 10
549.5
 20
486.1
 10
549.5
 20
490.1
  0
LWPOLYLINE
  5
795
330
6F
100
AcDbEntity
  8
GT_1
100
AcDbPolyline
 90
2
 70
128
 10
384.6
 20
400.6
 10
374.1
 20
406.7
  0
LWPOLYLINE
  5
799
330
6F
100
AcDbEntity
  8
GT_1
100
AcDbPolyline
 90
3
 70
128
 10
376.6
 20
407.3999999999999
 10
375.1
 20
406.0999999999999
 10
377.0
 20
406.8
  0
LWPOLYLINE
  5
79E
330
6F
100
AcDbEntity
  8
GT_1
100
AcDbPolyline
 90
2
 70
128
 10
375.1
 20
406.0999999999999
 10
451.0
 20
449.8999999999999
  0
LWPOLYLINE
  5
7A2
330
6F
100
AcDbEntity
  8
GT_1
100
AcDbPolyline
 90
2
 70
128
 10
543.5
 20
492.3999999999999
 10
533.0
 20
498.5
  0
LWPOLYLINE
  5
7A6
330
6F
100
AcDbEntity
  8
GT_1
100
AcDbPolyline
 90
3
 70
128
 10
532.5
 20
496.6
 10
534.0
 20
497.9
 10
532.1
 20
497.2
  0
LWPOLYLINE
  5
7AB
330
6F
100
AcDbEntity
  8
GT_1
100
AcDbPolyline
 90
2
 70
128
 10
534.0
 20
497.9
 10
459.0
 20
454.6
  0
TEXT
  5
7AF
330
6F
100
AcDbEntity
  8
GT_1
100
AcDbText
 10
451.597
 20
448.904
 30
0.0
 40
3.0
  1
6700
 50
30.0
  7
HTX1
 41
1.02
100
AcDbText
  0
LWPOLYLINE
  5
7B4
330
6F
100
AcDbEntity
  8
GT_1
 62
3
100
AcDbPolyline
 90
2
 70
128
 43
0.6
 10
544.3999999999999
 20
491.8999999999999
 10
538.3
 20
495.3999999999999
  0
LWPOLYLINE
  5
7B8
330
6F
100
AcDbEntity
  8
GT_1
100
AcDbPolyline
 90
7
 70
128
 10
537.0
 20
495.3999999999999
 10
537.2
 20
494.8
 10
538.3
 20
494.7
 10
539.5999999999999
 20
495.3999999999999
 10
539.4
 20
496.0
 10
538.3
 20
496.1
 10
537.0
 20
495.3999999999999
  0
LWPOLYLINE
  5
7C1
330
6F
100
AcDbEntity
  8
GT_1
100
AcDbPolyline
 90
2
 70
128
 10
537.2
 20
494.8
 10
538.4859999999999
 20
494.8
  0
LWPOLYLINE
  5
7C5
330
6F
100
AcDbEntity
  8
GT_1
100
AcDbPolyline
 90
2
 70
128
 10
537.133
 20
495.0
 10
538.8569999999999
 20
495.0
  0
LWPOLYLINE
  5
7C9
330
6F
100
AcDbEntity
  8
GT_1
100
AcDbPolyline
 90
2
 70
128
 10
537.067
 20
495.1999999999999
 10
539.229
 20
495.1999999999999
  0
LWPOLYLINE
  5
7CD
330
6F
100
AcDbEntity
  8
GT_1
100
AcDbPolyline
 90
2
 70
128
 10
537.0
 20
495.3999999999999
 10
539.5999999999999
 20
495.3999999999999
  0
LWPOLYLINE
  5
7D1
330
6F
100
AcDbEntity
  8
GT_1
100
AcDbPolyline
 90
2
 70
128
 10
537.3709999999999
 20
495.6
 10
539.533
 20
495.6
  0
LWPOLYLINE
  5
7D5
330
6F
100
AcDbEntity
  8
GT_1
100
AcDbPolyline
 90
2
 70
128
 10
537.743
 20
495.8
 10
539.4669999999999
 20
495.8
  0
LWPOLYLINE
  5
7D9
330
6F
100
AcDbEntity
  8
GT_1
100
AcDbPolyline
 90
2
 70
128
 10
538.114
 20
496.0
 10
539.4
 20
496.0
  0
LWPOLYLINE
  5
7DD
330
6F
100
AcDbEntity
  8
GT_1
100
AcDbPolyline
 90
2
 70
128
 10
539.4
 20
496.0
 10
540.3
 20
500.8999999999999
  0
TEXT
  5
7E1
330
6F
100
AcDbEntity
  8
GT_1
100
AcDbText
 10
541.071
 20
499.6999999999999
 30
0.0
 40
3.0
  1
10
  7
HTX1
 41
1.02
100
AcDbText
  0
LWPOLYLINE
  5
7E2
330
6F
100
AcDbEntity
  8
GT_1
100
AcDbPolyline
 90
3
 70
128
 10
545.614
 20
500.8999999999999
 42
1.0
 10
540.3
 20
500.8999999999999
 42
1.0
 10
545.614
 20
500.8999999999999
  0
LWPOLYLINE
  5
7E7
330
6F
100
AcDbEntity
  8
GT_1
 62
3
100
AcDbPolyline
 90
2
 70
128
 43
0.6
 10
538.3
 20
495.3999999999999
 10
524.8
 20
503.2
  0
LWPOLYLINE
  5
7EB
330
6F
100
AcDbEntity
  8
GT_1
100
AcDbPolyline
 90
3
 70
128
 10
531.6
 20
501.2999999999999
 10
531.6
 20
499.3
 10
532.3
 20
501.1999999999999
  0
LWPOLYLINE
  5
7F0
330
6F
100
AcDbEntity
  8
GT_1
100
AcDbPolyline
 90
2
 70
128
 10
531.6
 20
499.3
 10
532.5
 20
504.1999999999999
  0
TEXT
  5
7F4
330
6F
100
AcDbEntity
  8
GT_1
100
AcDbText
 10
533.0
 20
504.6999999999999
 30
0.0
 40
3.0
  1
S6
  7
HTX1
 41
1.02
100
AcDbText
  0
LWPOLYLINE
  5
7F5
330
6F
100
AcDbEntity
  8
GT_1
100
AcDbPolyline
 90
5
 70
128
 10
532.5
 20
508.1999999999999
 10
537.6
 20
508.1999999999999
 10
537.6
 20
504.1999999999999
 10
532.5
 20
504.1999999999999
 10
532.5
 20
508.1999999999999
  0
LWPOLYLINE
  5
7FC
330
6F
100
AcDbEntity
  8
GT_1
 62
3
100
AcDbPolyline
 90
2
 70
128
 43
0.6
 10
524.8
 20
503.2
 10
492.6999999999999
 20
521.7
  0
TEXT
  5
800
330
6F
100
AcDbEntity
  8
GT_1
100
AcDbText
 10
504.971
 20
516.2269999999999
 30
0.0
 40
3.0
  1
<4>
 50
330.0
  7
HTX1
 41
1.02
100
AcDbText
  0
TEXT
  5
801
330
6F
100
AcDbEntity
  8
GT_1
100
AcDbText
 10
512.0379999999999
 20
512.1469999999999
 30
0.0
 40
3.0
  1
1
 50
330.0
  7
HTX1
 41
1.02
100
AcDbText
  0
LWPOLYLINE
  5
802
330
6F
100
AcDbEntity
  8
GT_1
100
AcDbPolyline
 90
5
 70
128
 10
513.3999999999999
 20
515.3999999999999
 10
516.0
 20
513.9
 10
514.0
 20
510.5
 10
511.3999999999999
 20
512.0
 10
513.3999999999999
 20
515.3999999999999
  0
LWPOLYLINE
  5
809
330
6F
100
AcDbEntity
  8
GT_1
100
AcDbPolyline
 90
7
 70
128
 10
491.3999999999999
 20
521.7
 10
491.6
 20
521.1
 10
492.6999999999999
 20
521.0
 10
494.0
 20
521.7
 10
493.8
 20
522.3
 10
492.6999999999999
 20
522.4
 10
491.3999999999999
 20
521.7
  0
LWPOLYLINE
  5
812
330
6F
100
AcDbEntity
  8
GT_1
100
AcDbPolyline
 90
2
 70
128
 10
491.5669999999999
 20
521.2
 10
493.0709999999999
 20
521.2
  0
LWPOLYLINE
  5
816
330
6F
100
AcDbEntity
  8
GT_1
100
AcDbPolyline
 90
2
 70
128
 10
491.5
 20
521.3999999999999
 10
493.443
 20
521.3999999999999
  0
LWPOLYLINE
  5
81A
330
6F
100
AcDbEntity
  8
GT_1
100
AcDbPolyline
 90
2
 70
128
 10
491.433
 20
521.6
 10
493.814
 20
521.6
  0
LWPOLYLINE
  5
81E
330
6F
100
AcDbEntity
  8
GT_1
100
AcDbPolyline
 90
2
 70
128
 10
491.586
 20
521.8
 10
493.9669999999999
 20
521.8
  0
LWPOLYLINE
  5
822
330
6F
100
AcDbEntity
  8
GT_1
100
AcDbPolyline
 90
2
 70
128
 10
491.957
 20
522.0
 10
493.9
 20
522.0
  0
LWPOLYLINE
  5
826
330
6F
100
AcDbEntity
  8
GT_1
100
AcDbPolyline
 90
2
 70
128
 10
492.329
 20
522.2
 10
493.833
 20
522.2
  0
LWPOLYLINE
  5
82A
330
6F
100
AcDbEntity
  8
GT_1
100
AcDbPolyline
 90
2
 70
128
 10
491.6
 20
521.1
 10
489.1
 20
516.8
  0
TEXT
  5
82E
330
6F
100
AcDbEntity
  8
GT_1
100
AcDbText
 10
484.5569999999999
 20
515.6
 30
0.0
 40
3.0
  1
11
  7
HTX1
 41
1.02
100
AcDbText
  0
LWPOLYLINE
  5
82F
330
6F
100
AcDbEntity
  8
GT_1
100
AcDbPolyline
 90
3
 70
128
 10
483.786
 20
516.8
 42
1.0
 10
489.1
 20
516.8
 42
1.0
 10
483.786
 20
516.8
  0
LWPOLYLINE
  5
834
330
6F
100
AcDbEntity
  8
GT_1
 62
3
100
AcDbPolyline
 90
2
 70
128
 43
0.6
 10
492.6999999999999
 20
521.7
 10
486.6
 20
525.2
  0
LWPOLYLINE
  5
838
330
6F
100
AcDbEntity
  8
GT_1
100
AcDbPolyline
 90
3
 70
128
 10
483.3
 20
524.8
 10
484.0
 20
526.7
 10
482.6999999999999
 20
525.2
  0
LWPOLYLINE
  5
83D
330
6F
100
AcDbEntity
  8
GT_1
100
AcDbPolyline
 90
2
 70
128
 10
484.0
 20
526.7
 10
481.5
 20
522.4
  0
TEXT
  5
841
330
6F
100
AcDbEntity
  8
GT_1
100
AcDbText
 10
478.943
 20
522.9
 30
0.0
 40
3.0
  1
2
  7
HTX1
 41
1.02
100
AcDbText
  0
LWPOLYLINE
  5
842
330
6F
100
AcDbEntity
  8
GT_1
100
AcDbPolyline
 90
5
 70
128
 10
478.3999999999999
 20
526.4
 10
481.4
 20
526.4
 10
481.4
 20
522.4
 10
478.3999999999999
 20
522.4
 10
478.3999999999999
 20
526.4
  0
LWPOLYLINE
  5
849
330
6F
100
AcDbEntity
  8
GT_1
100
AcDbPolyline
 90
2
 70
128
 10
550.4999999999999
 20
492.3999999999999
 10
561.0
 20
498.5
  0
LWPOLYLINE
  5
84D
330
6F
100
AcDbEntity
  8
GT_1
100
AcDbPolyline
 90
3
 70
128
 10
558.1
 20
498.6
 10
560.0
 20
497.9
 10
558.4999999999999
 20
499.1999999999999
  0
LWPOLYLINE
  5
852
330
6F
100
AcDbEntity
  8
GT_1
100
AcDbPolyline
 90
2
 70
128
 10
560.0
 20
497.9
 10
532.8999999999999
 20
513.4999999999999
  0
LWPOLYLINE
  5
856
330
6F
100
AcDbEntity
  8
GT_1
100
AcDbPolyline
 90
2
 70
128
 10
487.5
 20
528.7
 10
498.0
 20
534.8
  0
LWPOLYLINE
  5
85A
330
6F
100
AcDbEntity
  8
GT_1
100
AcDbPolyline
 90
3
 70
128
 10
498.8999999999999
 20
533.4999999999999
 10
497.0
 20
534.2
 10
498.5
 20
532.8999999999999
  0
LWPOLYLINE
  5
85F
330
6F
100
AcDbEntity
  8
GT_1
100
AcDbPolyline
 90
2
 70
128
 10
497.0
 20
534.2
 10
524.8999999999999
 20
518.1
  0
TEXT
  5
863
330
6F
100
AcDbEntity
  8
GT_1
100
AcDbText
 10
524.3269999999999
 20
517.0679999999999
 30
0.0
 40
3.0
  1
2329
 50
330.0
  7
HTX1
 41
1.02
100
AcDbText
  0
LWPOLYLINE
  5
868
330
6F
100
AcDbEntity
  8
GT_1
 62
3
100
AcDbPolyline
 90
2
 70
128
 43
0.6
 10
486.6
 20
528.2
 10
492.6999999999999
 20
531.7
  0
LWPOLYLINE
  5
86C
330
6F
100
AcDbEntity
  8
GT_1
100
AcDbPolyline
 90
7
 70
128
 10
494.0
 20
531.7
 10
493.8
 20
531.0999999999999
 10
492.6999999999999
 20
531.0
 10
491.3999999999999
 20
531.7
 10
491.6
 20
532.3
 10
492.6999999999999
 20
532.3999999999999
 10
494.0
 20
531.7
  0
LWPOLYLINE
  5
875
330
6F
100
AcDbEntity
  8
GT_1
100
AcDbPolyline
 90
2
 70
128
 10
492.329
 20
531.2
 10
493.833
 20
531.2
  0
LWPOLYLINE
  5
879
330
6F
100
AcDbEntity
  8
GT_1
100
AcDbPolyline
 90
2
 70
128
 10
491.957
 20
531.4
 10
493.9
 20
531.4
  0
LWPOLYLINE
  5
87D
330
6F
100
AcDbEntity
  8
GT_1
100
AcDbPolyline
 90
2
 70
128
 10
491.586
 20
531.6
 10
493.9669999999999
 20
531.6
  0
LWPOLYLINE
  5
881
330
6F
100
AcDbEntity
  8
GT_1
100
AcDbPolyline
 90
2
 70
128
 10
491.433
 20
531.8
 10
493.814
 20
531.8
  0
LWPOLYLINE
  5
885
330
6F
100
AcDbEntity
  8
GT_1
100
AcDbPolyline
 90
2
 70
128
 10
491.5
 20
532.0
 10
493.443
 20
532.0
  0
LWPOLYLINE
  5
889
330
6F
100
AcDbEntity
  8
GT_1
100
AcDbPolyline
 90
2
 70
128
 10
491.5669999999999
 20
532.2
 10
493.0709999999999
 20
532.2
  0
LWPOLYLINE
  5
88D
330
6F
100
AcDbEntity
  8
GT_1
100
AcDbPolyline
 90
2
 70
128
 10
491.6
 20
532.3
 10
487.8
 20
535.5
  0
TEXT
  5
891
330
6F
100
AcDbEntity
  8
GT_1
100
AcDbText
 10
483.2569999999999
 20
534.3
 30
0.0
 40
3.0
  1
12
  7
HTX1
 41
1.02
100
AcDbText
  0
LWPOLYLINE
  5
892
330
6F
100
AcDbEntity
  8
GT_1
100
AcDbPolyline
 90
3
 70
128
 10
482.486
 20
535.5
 42
1.0
 10
487.8
 20
535.5
 42
1.0
 10
482.486
 20
535.5
  0
LWPOLYLINE
  5
897
330
6F
100
AcDbEntity
  8
GT_1
 62
3
100
AcDbPolyline
 90
2
 70
128
 43
0.6
 10
492.6999999999999
 20
531.7
 10
546.7
 20
562.8999999999999
  0
TEXT
  5
89B
330
6F
100
AcDbEntity
  8
GT_1
100
AcDbText
 10
514.5209999999998
 20
545.984
 30
0.0
 40
3.0
  1
<5>
 50
30.0
  7
HTX1
 41
1.02
100
AcDbText
  0
TEXT
  5
89C
330
6F
100
AcDbEntity
  8
GT_1
100
AcDbText
 10
521.5880000000001
 20
550.0639999999999
 30
0.0
 40
3.0
  1
1
 50
30.0
  7
HTX1
 41
1.02
100
AcDbText
  0
LWPOLYLINE
  5
89D
330
6F
100
AcDbEntity
  8
GT_1
100
AcDbPolyline
 90
5
 70
128
 10
519.3999999999999
 20
552.8
 10
522.0
 20
554.3999999999999
 10
524.0
 20
550.8999999999999
 10
521.3999999999999
 20
549.3999999999999
 10
519.3999999999999
 20
552.8
  0
TEXT
  5
8A4
330
6F
100
AcDbEntity
  8
GT_1
100
AcDbText
 10
517.2889999999999
 20
541.19
 30
0.0
 40
3.0
  1
100DN
 50
30.0
  7
HTX1
 41
1.02
100
AcDbText
  0
LWPOLYLINE
  5
8A5
330
6F
100
AcDbEntity
  8
GT_1
100
AcDbPolyline
 90
2
 70
128
 10
480.4999999999999
 20
528.7
 10
470.0
 20
534.8
  0
LWPOLYLINE
  5
8A9
330
6F
100
AcDbEntity
  8
GT_1
100
AcDbPolyline
 90
3
 70
128
 10
472.5
 20
535.5
 10
471.0
 20
534.2
 10
472.9
 20
534.9
  0
LWPOLYLINE
  5
8AE
330
6F
100
AcDbEntity
  8
GT_1
100
AcDbPolyline
 90
2
 70
128
 10
471.0
 20
534.2
 10
498.8
 20
550.2
  0
LWPOLYLINE
  5
8B2
330
6F
100
AcDbEntity
  8
GT_1
100
AcDbPolyline
 90
2
 70
128
 10
543.2
 20
564.9
 10
532.7
 20
571.0
  0
LWPOLYLINE
  5
8B6
330
6F
100
AcDbEntity
  8
GT_1
100
AcDbPolyline
 90
3
 70
128
 10
532.2
 20
569.1
 10
533.7
 20
570.3999999999999
 10
531.8
 20
569.7
  0
LWPOLYLINE
  5
8BB
330
6F
100
AcDbEntity
  8
GT_1
100
AcDbPolyline
 90
2
 70
128
 10
533.7
 20
570.3999999999999
 10
506.8
 20
554.8999999999999
  0
TEXT
  5
8BF
330
6F
100
AcDbEntity
  8
GT_1
100
AcDbText
 10
499.397
 20
549.2040000000001
 30
0.0
 40
3.0
  1
2660
 50
30.0
  7
HTX1
 41
1.02
100
AcDbText
  0
LWPOLYLINE
  5
8C0
330
6F
100
AcDbEntity
  8
GT_1
100
AcDbPolyline
 90
2
 70
128
 10
547.1
 20
560.7
 10
547.1
 20
565.5
  0
LWPOLYLINE
  5
8C4
330
6F
100
AcDbEntity
  8
GT_1
100
AcDbPolyline
 90
2
 70
128
 10
543.0
 20
563.1
 10
551.3
 20
563.1
  0
LWPOLYLINE
  5
8C8
330
6F
100
AcDbEntity
  8
GT_1
100
AcDbPolyline
 90
7
 70
128
 10
547.5
 20
562.3999999999999
 10
548.3999999999999
 20
562.8999999999999
 10
547.9
 20
563.6
 10
546.7
 20
563.9
 10
545.8999999999999
 20
563.3999999999999
 10
546.3
 20
562.7
 10
547.5
 20
562.3999999999999
  0
LWPOLYLINE
  5
8D1
330
6F
100
AcDbEntity
  8
GT_1
100
AcDbPolyline
 90
2
 70
128
 10
546.7
 20
562.6
 10
547.86
 20
562.6
  0
LWPOLYLINE
  5
8D5
330
6F
100
AcDbEntity
  8
GT_1
100
AcDbPolyline
 90
2
 70
128
 10
546.243
 20
562.8
 10
548.22
 20
562.8
  0
LWPOLYLINE
  5
8D9
330
6F
100
AcDbEntity
  8
GT_1
100
AcDbPolyline
 90
2
 70
128
 10
546.1289999999999
 20
563.0
 10
548.3290000000001
 20
563.0
  0
LWPOLYLINE
  5
8DD
330
6F
100
AcDbEntity
  8
GT_1
100
AcDbPolyline
 90
2
 70
128
 10
546.0139999999999
 20
563.2
 10
548.186
 20
563.2
  0
LWPOLYLINE
  5
8E1
330
6F
100
AcDbEntity
  8
GT_1
100
AcDbPolyline
 90
2
 70
128
 10
545.8999999999999
 20
563.3999999999999
 10
548.043
 20
563.3999999999999
  0
LWPOLYLINE
  5
8E5
330
6F
100
AcDbEntity
  8
GT_1
100
AcDbPolyline
 90
2
 70
128
 10
546.22
 20
563.6
 10
547.9
 20
563.6
  0
LWPOLYLINE
  5
8E9
330
6F
100
AcDbEntity
  8
GT_1
100
AcDbPolyline
 90
2
 70
128
 10
546.5399999999998
 20
563.8
 10
547.1
 20
563.8
  0
LWPOLYLINE
  5
8ED
330
6F
100
AcDbEntity
  8
GT_1
100
AcDbPolyline
 90
2
 70
128
 10
546.3
 20
563.6
 10
537.8
 20
578.3
  0
TEXT
  5
8F1
330
6F
100
AcDbEntity
  8
GT_1
100
AcDbText
 10
533.257
 20
577.0999999999999
 30
0.0
 40
3.0
  1
13
  7
HTX1
 41
1.02
100
AcDbText
  0
LWPOLYLINE
  5
8F2
330
6F
100
AcDbEntity
  8
GT_1
100
AcDbPolyline
 90
3
 70
128
 10
532.486
 20
578.3
 42
1.0
 10
537.8
 20
578.3
 42
1.0
 10
532.486
 20
578.3
  0
LWPOLYLINE
  5
8F7
330
6F
100
AcDbEntity
  8
GT_1
100
AcDbPolyline
 90
3
 70
128
 10
548.3999999999999
 20
561.8999999999999
 10
546.7
 20
562.8999999999999
 10
548.0
 20
561.3999999999999
  0
LWPOLYLINE
  5
8FC
330
6F
100
AcDbEntity
  8
GT_1
100
AcDbPolyline
 90
2
 70
128
 10
546.7
 20
562.8999999999999
 10
553.6
 20
557.1
  0
TEXT
  5
900
330
6F
100
AcDbEntity
  8
GT_1
100
AcDbText
 10
554.1
 20
557.6
 30
0.0
 40
3.0
  1
CONT. ON
  7
HTX1
 41
1.02
100
AcDbText
  0
TEXT
  5
901
330
6F
100
AcDbEntity
  8
GT_1
100
AcDbText
 10
554.1
 20
553.6
 30
0.0
 40
3.0
  1
110022-13110-051-HB2D-150
  7
HTX1
 41
1.02
100
AcDbText
  0
TEXT
  5
902
330
6F
100
AcDbEntity
  8
GT_1
100
AcDbText
 10
554.1
 20
549.6
 30
0.0
 40
3.0
  1
E 981960
  7
HTX1
 41
1.02
100
AcDbText
  0
TEXT
  5
903
330
6F
100
AcDbEntity
  8
GT_1
100
AcDbText
 10
554.1
 20
545.6
 30
0.0
 40
3.0
  1
S 1279471
  7
HTX1
 41
1.02
100
AcDbText
  0
TEXT
  5
904
330
6F
100
AcDbEntity
  8
GT_1
100
AcDbText
 10
554.1
 20
541.6
 30
0.0
 40
3.0
  1
FL+7823
  7
HTX1
 41
1.02
100
AcDbText
  0
LINE
  5
920
330
6F
100
AcDbEntity
  8
0
 62
3
100
AcDbLine
 10
379.4
 20
299.6
 30
0.0
 11
388.09999999999957
 21
304.59180327868773
 31
0.0
  0
LINE
  5
921
330
6F
100
AcDbEntity
  8
0
 62
3
100
AcDbLine
 10
388.1
 20
307.6
 30
0.0
 11
388.09999999999957
 21
304.59180327868773
 31
0.0
  0
LINE
  5
922
330
6F
100
AcDbEntity
  8
0
 62
3
100
AcDbLine
 10
388.1
 20
388.6
 30
0.0
 11
388.10000000000167
 21
398.6081967213115
 31
0.0
  0
LINE
  5
923
330
6F
100
AcDbEntity
  8
0
 62
3
100
AcDbLine
 10
390.7
 20
400.1
 30
0.0
 11
388.10000000000167
 21
398.6081967213115
 31
0.0
  0
LINE
  5
924
330
6F
100
AcDbEntity
  8
0
 62
3
100
AcDbLine
 10
538.3
 20
485.4
 30
0.0
 11
547.0142857142824
 21
490.39999999999816
 31
0.0
  0
LINE
  5
925
330
6F
100
AcDbEntity
  8
0
 62
3
100
AcDbLine
 10
544.3999999999999
 20
491.8999999999999
 30
0.0
 11
547.0142857142824
 21
490.39999999999816
 31
0.0
  0
LINE
  5
926
330
6F
100
AcDbEntity
  8
0
 62
3
100
AcDbLine
 10
492.6999999999999
 20
521.7
 30
0.0
 11
483.98571428571347
 21
526.7
 31
0.0
  0
LINE
  5
927
330
6F
100
AcDbEntity
  8
0
 62
3
100
AcDbLine
 10
486.6
 20
528.2
 30
0.0
 11
483.98571428571347
 21
526.7
 31
0.0
  0
ENDSEC
  0
SECTION
  2
OBJECTS
  0
DICTIONARY
  5
C
330
0
100
AcDbDictionary
281
1
  3
ACAD_CIP_PREVIOUS_PRODUCT_INFO
350
906
  3
ACAD_COLOR
350
62
  3
ACAD_DETAILVIEWSTYLE
350
69
  3
ACAD_GROUP
350
D
  3
ACAD_LAST_SAVED_VERSION_INFO
350
909
  3
ACAD_LAYOUT
350
61
  3
ACAD_MATERIAL
350
10
  3
ACAD_MLEADERSTYLE
350
65
  3
ACAD_MLINESTYLE
350
5E
  3
ACAD_PLOTSETTINGS
350
60
  3
ACAD_PLOTSTYLENAME
350
E
  3
ACAD_SCALELIST
350
42
  3
ACAD_SECTIONVIEWSTYLE
350
67
  3
ACAD_TABLESTYLE
350
63
  3
ACAD_VISUALSTYLE
350
29
  3
ACDB_RECOMPOSE_DATA
350
91A
  3
AcDbVariableDictionary
350
907
  3
EZDXF_META
350
92A
  0
DICTIONARY
  5
90A
330
54
100
AcDbDictionary
280
1
281
1
  3
ADSK_XREC_LAYER_RECONCILED
360
90B
  0
DICTIONARY
  5
90C
330
85
100
AcDbDictionary
280
1
281
1
  3
ADSK_XREC_LAYER_RECONCILED
360
90D
  0
XRECORD
  5
906
102
{ACAD_REACTORS
330
C
102
}
330
C
100
AcDbXrecord
280
1
300
ACD
300
2024
300

  0
DICTIONARY
  5
62
102
{ACAD_REACTORS
330
C
102
}
330
C
100
AcDbDictionary
281
1
  0
DICTIONARY
  5
69
102
{ACAD_REACTORS
330
C
102
}
330
C
100
AcDbDictionary
281
1
  3
Imperial24
350
6A
  0
DICTIONARY
  5
D
102
{ACAD_REACTORS
330
C
102
}
330
C
100
AcDbDictionary
281
1
  0
XRECORD
  5
909
102
{ACAD_REACTORS
330
C
102
}
330
C
100
AcDbXrecord
280
1
300
{840A961F-0204-3E47-B7E2-902E1AF68D8E}
301
{8CD9AF3D-60F6-7E40-8261-861C4903ACB5}
302
{840A961F-0204-3E47-B7E2-902E1AF68D8E}
303
C:\Users\acepl\OneDrive\JJDATA\PYTHON\ISO AUTO EDIT\ARC2.dxf
  0
DICTIONARY
  5
61
102
{ACAD_REACTORS
330
C
102
}
330
C
100
AcDbDictionary
281
1
  3
Model
350
72
  3
1
350
6E
  0
DICTIONARY
  5
10
102
{ACAD_REACTORS
330
C
102
}
330
C
100
AcDbDictionary
281
1
  3
ByBlock
350
19
  3
ByLayer
350
11
  3
Global
350
21
  0
DICTIONARY
  5
65
102
{ACAD_REACTORS
330
C
102
}
330
C
100
AcDbDictionary
281
1
  3
Standard
350
66
  0
DICTIONARY
  5
5E
102
{ACAD_REACTORS
330
C
102
}
330
C
100
AcDbDictionary
281
1
  3
Standard
350
5F
  0
DICTIONARY
  5
60
102
{ACAD_REACTORS
330
C
102
}
330
C
100
AcDbDictionary
281
1
  0
ACDBDICTIONARYWDFLT
  5
E
102
{ACAD_REACTORS
330
C
102
}
330
C
100
AcDbDictionary
281
1
  3
Normal
350
F
100
AcDbDictionaryWithDefault
340
F
  0
DICTIONARY
  5
42
102
{ACAD_REACTORS
330
C
102
}
330
C
100
AcDbDictionary
281
1
  3
A0
350
43
  3
A1
350
44
  3
A2
350
45
  3
A3
350
46
  3
A4
350
47
  3
A5
350
48
  3
A6
350
49
  3
A7
350
4A
  3
A8
350
4B
  3
A9
350
4C
  3
B0
350
4D
  3
B1
350
4E
  3
B2
350
4F
  3
B3
350
50
  3
B4
350
51
  3
B5
350
52
  3
B6
350
53
  0
DICTIONARY
  5
67
102
{ACAD_REACTORS
330
C
102
}
330
C
100
AcDbDictionary
281
1
  3
Imperial24
350
68
  0
DICTIONARY
  5
63
102
{ACAD_REACTORS
330
C
102
}
330
C
100
AcDbDictionary
281
1
  3
Standard
350
64
  0
DICTIONARY
  5
29
102
{ACAD_REACTORS
330
C
102
}
330
C
100
AcDbDictionary
281
1
  3
2dWireframe
350
2F
  3
Basic
350
2E
  3
Brighten
350
35
  3
ColorChange
350
39
  3
Conceptual
350
32
  3
Dim
350
34
  3
EdgeColorOff
350
41
  3
Facepattern
350
38
  3
Flat
350
2A
  3
FlatWithEdges
350
2B
  3
Gouraud
350
2C
  3
GouraudWithEdges
350
2D
  3
Hidden
350
31
  3
JitterOff
350
3F
  3
Linepattern
350
37
  3
OverhangOff
350
40
  3
Realistic
350
33
  3
Shaded
350
3E
  3
Shaded with edges
350
3D
  3
Shades of Gray
350
3A
  3
Sketchy
350
3B
  3
Thicken
350
36
  3
Wireframe
350
30
  3
X-Ray
350
3C
  0
XRECORD
  5
91A
102
{ACAD_REACTORS
330
C
102
}
330
C
100
AcDbXrecord
280
1
 90
1
330
64
  0
DICTIONARY
  5
907
102
{ACAD_REACTORS
330
C
102
}
330
C
100
AcDbDictionary
281
1
  3
CANNOSCALE
350
913
  3
CMLEADERSTYLE
350
90F
  3
CTABLESTYLE
350
90E
  3
CVIEWDETAILSTYLE
350
910
  3
CVIEWSECTIONSTYLE
350
911
  3
LAYEREVAL
350
915
  3
LAYERNOTIFY
350
916
  3
LIGHTINGUNITS
350
914
  3
MSLTSCALE
350
912
  0
XRECORD
  5
90B
102
{ACAD_REACTORS
330
90A
102
}
330
90A
100
AcDbXrecord
280
1
290
1
  0
XRECORD
  5
90D
102
{ACAD_REACTORS
330
90C
102
}
330
90C
100
AcDbXrecord
280
1
290
1
  0
ACDBDETAILVIEWSTYLE
  5
6A
102
{ACAD_XDICTIONARY
360
91D
102
}
102
{ACAD_REACTORS
330
69
102
}
330
69
100
AcDbModelDocViewStyle
 70
0
  3
Imperial24
290
0
100
AcDbDetailViewStyle
 70
0
 71
0
 90
3
 71
1
340
55
 62
256
 40
0.24
340
0
 62
256
 40
0.24
300

 40
0.36
280
3
 71
2
340
5C
 90
25
 62
256
 71
3
340
55
 62
256
 40
0.24
 90
1
 40
0.75
 90
1
300
%<\AcVar ViewType \f "%tc1">% %<\AcVar ViewDetailId>%\PSCALE %<\AcVar ViewScale \f "%sn">%
 71
4
340
5C
 90
25
 62
256
340
5C
 90
25
 62
256
280
0
  0
LAYOUT
  5
72
102
{ACAD_REACTORS
330
61
102
}
330
61
100
AcDbPlotSettings
  1

  2
Hancom PDF
  4

  6

 40
0.0
 41
0.0
 42
0.0
 43
0.0
 44
0.0
 45
0.0
 46
0.0
 47
0.0
 48
0.0
 49
0.0
140
0.0
141
0.0
142
1.0
143
1.0
 70
1712
 72
0
 73
0
 74
0
  7

 75
0
 76
0
 77
2
 78
300
147
1.0
148
0.0
149
0.0
100
AcDbLayout
  1
Model
 70
1
 71
0
 10
0.0
 20
0.0
 11
12.0
 21
9.0
 12
0.0
 22
0.0
 32
0.0
 14
0.0
 24
0.0
 34
0.0
 15
0.0
 25
0.0
 35
0.0
146
0.0
 13
0.0
 23
0.0
 33
0.0
 16
1.0
 26
0.0
 36
0.0
 17
0.0
 27
1.0
 37
0.0
 76
0
330
6F
331
84
  0
LAYOUT
  5
6E
102
{ACAD_REACTORS
330
61
102
}
330
61
100
AcDbPlotSettings
  1

  2
Hancom PDF
  4

  6

 40
0.0
 41
0.0
 42
0.0
 43
0.0
 44
0.0
 45
0.0
 46
0.0
 47
0.0
 48
0.0
 49
0.0
140
0.0
141
0.0
142
1.0
143
1.0
 70
688
 72
0
 73
0
 74
5
  7

 75
16
 76
0
 77
2
 78
300
147
1.0
148
0.0
149
0.0
100
AcDbLayout
  1
1
 70
1
 71
1
 10
0.0
 20
0.0
 11
12.0
 21
9.0
 12
0.0
 22
0.0
 32
0.0
 14
1e+20
 24
1e+20
 34
1e+20
 15
-1e+20
 25
-1e+20
 35
-1e+20
146
0.0
 13
0.0
 23
0.0
 33
0.0
 16
1.0
 26
0.0
 36
0.0
 17
0.0
 27
1.0
 37
0.0
 76
0
330
6B
  0
MATERIAL
  5
19
102
{ACAD_XDICTIONARY
360
1A
102
}
102
{ACAD_REACTORS
330
10
102
}
330
10
100
AcDbMaterial
  1
ByBlock
  2

 70
0
 40
1.0
 71
0
 41
1.0
 91
-1023410177
 42
1.0
 72
0
  3

 73
1
 74
1
 75
1
 43
0.0208333333333333
 43
0.0
 43
0.0
 43
0.0
 43
0.0
 43
0.0208333333333333
 43
0.0
 43
0.0
 43
0.0
 43
0.0
 43
1.0
 43
0.0
 43
0.0
 43
0.0
 43
0.0
 43
1.0
 44
0.5
 73
0
 45
1.0
 46
1.0
 77
0
  4

 78
1
 79
1
170
1
 47
0.0208333333333333
 47
0.0
 47
0.0
 47
0.0
 47
0.0
 47
0.0208333333333333
 47
0.0
 47
0.0
 47
0.0
 47
0.0
 47
1.0
 47
0.0
 47
0.0
 47
0.0
 47
0.0
 47
1.0
 48
1.0
171
0
  6

172
1
173
1
174
1
 49
0.0208333333333333
 49
0.0
 49
0.0
 49
0.0
 49
0.0
 49
0.0208333333333333
 49
0.0
 49
0.0
 49
0.0
 49
0.0
 49
1.0
 49
0.0
 49
0.0
 49
0.0
 49
0.0
 49
1.0
140
1.0
141
1.0
175
0
  7

176
1
177
1
178
1
142
0.0208333333333333
142
0.0
142
0.0
142
0.0
142
0.0
142
0.0208333333333333
142
0.0
142
0.0
142
0.0
142
0.0
142
1.0
142
0.0
142
0.0
142
0.0
142
0.0
142
1.0
143
1.0
179
0
  8

270
1
271
1
272
1
144
0.0208333333333333
144
0.0
144
0.0
144
0.0
144
0.0
144
0.0208333333333333
144
0.0
144
0.0
144
0.0
144
0.0
144
1.0
144
0.0
144
0.0
144
0.0
144
0.0
144
1.0
145
1.0
146
1.0
273
1
  9

274
1
275
1
276
1
147
0.0208333333333333
147
0.0
147
0.0
147
0.0
147
0.0
147
0.0208333333333333
147
0.0
147
0.0
147
0.0
147
0.0
147
1.0
147
0.0
147
0.0
147
0.0
147
0.0
147
1.0
 42
1.0
 72
1
  3

 73
1
 74
1
 75
1
 94
63
  0
MATERIAL
  5
11
102
{ACAD_XDICTIONARY
360
12
102
}
102
{ACAD_REACTORS
330
10
102
}
330
10
100
AcDbMaterial
  1
ByLayer
  2

 70
0
 40
1.0
 71
0
 41
1.0
 91
-1023410177
 42
1.0
 72
0
  3

 73
1
 74
1
 75
1
 43
0.0208333333333333
 43
0.0
 43
0.0
 43
0.0
 43
0.0
 43
0.0208333333333333
 43
0.0
 43
0.0
 43
0.0
 43
0.0
 43
1.0
 43
0.0
 43
0.0
 43
0.0
 43
0.0
 43
1.0
 44
0.5
 73
0
 45
1.0
 46
1.0
 77
0
  4

 78
1
 79
1
170
1
 47
0.0208333333333333
 47
0.0
 47
0.0
 47
0.0
 47
0.0
 47
0.0208333333333333
 47
0.0
 47
0.0
 47
0.0
 47
0.0
 47
1.0
 47
0.0
 47
0.0
 47
0.0
 47
0.0
 47
1.0
 48
1.0
171
0
  6

172
1
173
1
174
1
 49
0.0208333333333333
 49
0.0
 49
0.0
 49
0.0
 49
0.0
 49
0.0208333333333333
 49
0.0
 49
0.0
 49
0.0
 49
0.0
 49
1.0
 49
0.0
 49
0.0
 49
0.0
 49
0.0
 49
1.0
140
1.0
141
1.0
175
0
  7

176
1
177
1
178
1
142
0.0208333333333333
142
0.0
142
0.0
142
0.0
142
0.0
142
0.0208333333333333
142
0.0
142
0.0
142
0.0
142
0.0
142
1.0
142
0.0
142
0.0
142
0.0
142
0.0
142
1.0
143
1.0
179
0
  8

270
1
271
1
272
1
144
0.0208333333333333
144
0.0
144
0.0
144
0.0
144
0.0
144
0.0208333333333333
144
0.0
144
0.0
144
0.0
144
0.0
144
1.0
144
0.0
144
0.0
144
0.0
144
0.0
144
1.0
145
1.0
146
1.0
273
1
  9

274
1
275
1
276
1
147
0.0208333333333333
147
0.0
147
0.0
147
0.0
147
0.0
147
0.0208333333333333
147
0.0
147
0.0
147
0.0
147
0.0
147
1.0
147
0.0
147
0.0
147
0.0
147
0.0
147
1.0
 42
1.0
 72
1
  3

 73
1
 74
1
 75
1
 94
63
  0
MATERIAL
  5
21
102
{ACAD_XDICTIONARY
360
22
102
}
102
{ACAD_REACTORS
330
10
102
}
330
10
100
AcDbMaterial
  1
Global
  2

 70
0
 40
1.0
 71
0
 41
1.0
 91
-1023410177
 42
1.0
 72
0
  3

 73
1
 74
1
 75
1
 43
0.0208333333333333
 43
0.0
 43
0.0
 43
0.0
 43
0.0
 43
0.0208333333333333
 43
0.0
 43
0.0
 43
0.0
 43
0.0
 43
1.0
 43
0.0
 43
0.0
 43
0.0
 43
0.0
 43
1.0
 44
0.5
 73
0
 45
1.0
 46
1.0
 77
0
  4

 78
1
 79
1
170
1
 47
0.0208333333333333
 47
0.0
 47
0.0
 47
0.0
 47
0.0
 47
0.0208333333333333
 47
0.0
 47
0.0
 47
0.0
 47
0.0
 47
1.0
 47
0.0
 47
0.0
 47
0.0
 47
0.0
 47
1.0
 48
1.0
171
0
  6

172
1
173
1
174
1
 49
0.0208333333333333
 49
0.0
 49
0.0
 49
0.0
 49
0.0
 49
0.0208333333333333
 49
0.0
 49
0.0
 49
0.0
 49
0.0
 49
1.0
 49
0.0
 49
0.0
 49
0.0
 49
0.0
 49
1.0
140
1.0
141
1.0
175
0
  7

176
1
177
1
178
1
142
0.0208333333333333
142
0.0
142
0.0
142
0.0
142
0.0
142
0.0208333333333333
142
0.0
142
0.0
142
0.0
142
0.0
142
1.0
142
0.0
142
0.0
142
0.0
142
0.0
142
1.0
143
1.0
179
0
  8

270
1
271
1
272
1
144
0.0208333333333333
144
0.0
144
0.0
144
0.0
144
0.0
144
0.0208333333333333
144
0.0
144
0.0
144
0.0
144
0.0
144
1.0
144
0.0
144
0.0
144
0.0
144
0.0
144
1.0
145
1.0
146
1.0
273
1
  9

274
1
275
1
276
1
147
0.0208333333333333
147
0.0
147
0.0
147
0.0
147
0.0
147
0.0208333333333333
147
0.0
147
0.0
147
0.0
147
0.0
147
1.0
147
0.0
147
0.0
147
0.0
147
0.0
147
1.0
 42
1.0
 72
1
  3

 73
1
 74
1
 75
1
 94
63
  0
MLEADERSTYLE
  5
66
102
{ACAD_REACTORS
330
65
102
}
330
65
100
AcDbMLeaderStyle
179
2
170
2
171
1
172
0
 90
2
 40
0.0
 41
0.0
173
1
 91
-1056964608
340
5A
 92
-2
290
1
 42
0.09
291
1
 43
0.36
  3
Standard
 44
0.18
300

342
55
174
1
175
1
176
0
178
6
 93
-1056964608
 45
0.18
292
0
297
0
 46
0.18
293
1
 94
-1056964608
 47
1.0
 49
1.0
140
1.0
294
1
141
0.0
177
0
142
1.0
295
0
296
0
143
0.125
271
0
272
9
273
9
298
0
  0
MLINESTYLE
  5
5F
102
{ACAD_REACTORS
330
5E
102
}
330
5E
100
AcDbMlineStyle
  2
STANDARD
 70
0
  3

 62
256
 51
90.0
 52
90.0
 71
2
 49
0.5
 62
256
  6
BYLAYER
 49
-0.5
 62
256
  6
BYLAYER
  0
ACDBPLACEHOLDER
  5
F
102
{ACAD_REACTORS
330
E
102
}
330
E
  0
SCALE
  5
43
102
{ACAD_REACTORS
330
42
102
}
330
42
100
AcDbScale
 70
0
300
1:1
140
1.0
141
1.0
290
1
  0
SCALE
  5
44
102
{ACAD_REACTORS
330
42
102
}
330
42
100
AcDbScale
 70
0
300
1/128" = 1'-0"
140
0.0078125
141
12.0
290
0
  0
SCALE
  5
45
102
{ACAD_REACTORS
330
42
102
}
330
42
100
AcDbScale
 70
0
300
1/64" = 1'-0"
140
0.015625
141
12.0
290
0
  0
SCALE
  5
46
102
{ACAD_REACTORS
330
42
102
}
330
42
100
AcDbScale
 70
0
300
1/32" = 1'-0"
140
0.03125
141
12.0
290
0
  0
SCALE
  5
47
102
{ACAD_REACTORS
330
42
102
}
330
42
100
AcDbScale
 70
0
300
1/16" = 1'-0"
140
0.0625
141
12.0
290
0
  0
SCALE
  5
48
102
{ACAD_REACTORS
330
42
102
}
330
42
100
AcDbScale
 70
0
300
3/32" = 1'-0"
140
0.09375
141
12.0
290
0
  0
SCALE
  5
49
102
{ACAD_REACTORS
330
42
102
}
330
42
100
AcDbScale
 70
0
300
1/8" = 1'-0"
140
0.125
141
12.0
290
0
  0
SCALE
  5
4A
102
{ACAD_REACTORS
330
42
102
}
330
42
100
AcDbScale
 70
0
300
3/16" = 1'-0"
140
0.1875
141
12.0
290
0
  0
SCALE
  5
4B
102
{ACAD_REACTORS
330
42
102
}
330
42
100
AcDbScale
 70
0
300
1/4" = 1'-0"
140
0.25
141
12.0
290
0
  0
SCALE
  5
4C
102
{ACAD_REACTORS
330
42
102
}
330
42
100
AcDbScale
 70
0
300
3/8" = 1'-0"
140
0.375
141
12.0
290
0
  0
SCALE
  5
4D
102
{ACAD_REACTORS
330
42
102
}
330
42
100
AcDbScale
 70
0
300
1/2" = 1'-0"
140
0.5
141
12.0
290
0
  0
SCALE
  5
4E
102
{ACAD_REACTORS
330
42
102
}
330
42
100
AcDbScale
 70
0
300
3/4" = 1'-0"
140
0.75
141
12.0
290
0
  0
SCALE
  5
4F
102
{ACAD_REACTORS
330
42
102
}
330
42
100
AcDbScale
 70
0
300
1" = 1'-0"
140
1.0
141
12.0
290
0
  0
SCALE
  5
50
102
{ACAD_REACTORS
330
42
102
}
330
42
100
AcDbScale
 70
0
300
1-1/2" = 1'-0"
140
1.5
141
12.0
290
0
  0
SCALE
  5
51
102
{ACAD_REACTORS
330
42
102
}
330
42
100
AcDbScale
 70
0
300
3" = 1'-0"
140
3.0
141
12.0
290
0
  0
SCALE
  5
52
102
{ACAD_REACTORS
330
42
102
}
330
42
100
AcDbScale
 70
0
300
6" = 1'-0"
140
6.0
141
12.0
290
0
  0
SCALE
  5
53
102
{ACAD_REACTORS
330
42
102
}
330
42
100
AcDbScale
 70
0
300
1'-0" = 1'-0"
140
12.0
141
12.0
290
0
  0
ACDBSECTIONVIEWSTYLE
  5
68
102
{ACAD_XDICTIONARY
360
91B
102
}
102
{ACAD_REACTORS
330
67
102
}
330
67
100
AcDbModelDocViewStyle
 70
0
  3
Imperial24
290
0
100
AcDbSectionViewStyle
 70
0
 71
0
 90
78
 71
1
340
55
 62
256
 40
0.24
340
0
340
0
 62
256
 40
0.24
300
I, O, Q, S, X, Z
 40
0.48
 90
3
 40
0.18
 90
1
 71
2
340
5C
 90
25
 62
256
340
5C
 90
50
 62
256
 40
0.24
 40
0.0
 40
0.24
 71
3
340
55
 62
256
 40
0.24
 90
1
 40
0.75
 90
1
300
%<\AcVar ViewType \f "%tc1">% %<\AcVar ViewSectionStartId>%-%<\AcVar ViewSectionEndId>%\PSCALE %<\AcVar ViewScale \f "%sn">%
 71
4
 62
256
 62
257
300
ANSI31
 40
1.0
 90
0
290
0
290
0
 90
6
 40
0.0
 40
1.570796326794896
 40
0.2617993877991494
 40
1.308996938995747
 40
-0.2617993877991494
 40
1.832595714594046
  0
TABLESTYLE
  5
64
102
{ACAD_XDICTIONARY
360
918
102
}
102
{ACAD_REACTORS
330
63
102
}
330
63
100
AcDbTableStyle
280
0
  3
Standard
 70
0
 71
0
 40
0.06
 41
0.06
280
0
281
0
  7
Standard
140
0.18
170
2
 62
0
 63
7
283
0
 90
512
 91
0
  1

274
-2
284
1
 64
0
275
-2
285
1
 65
0
276
-2
286
1
 66
0
277
-2
287
1
 67
0
278
-2
288
1
 68
0
279
-2
289
1
 69
0
  7
Standard
140
0.25
170
5
 62
0
 63
7
283
0
 90
512
 91
0
  1

274
-2
284
1
 64
0
275
-2
285
1
 65
0
276
-2
286
1
 66
0
277
-2
287
1
 67
0
278
-2
288
1
 68
0
279
-2
289
1
 69
0
  7
Standard
140
0.18
170
5
 62
0
 63
7
283
0
 90
512
 91
0
  1

274
-2
284
1
 64
0
275
-2
285
1
 65
0
276
-2
286
1
 66
0
277
-2
287
1
 67
0
278
-2
288
1
 68
0
279
-2
289
1
 69
0
  0
VISUALSTYLE
  5
2F
102
{ACAD_REACTORS
330
29
102
}
330
29
100
AcDbVisualStyle
  2
2dWireframe
 70
4
177
3
291
0
 70
58
 90
0
176
1
 90
2
176
1
 90
0
176
1
 90
0
176
1
 40
0.6
176
1
 40
30.0
176
1
 62
7
420
16777215
176
1
 90
1
176
1
 90
4
176
1
 62
7
176
1
 62
257
176
1
 90
1
176
1
 90
1
176
1
 40
1.0
176
1
 90
0
176
1
 62
257
176
1
 40
1.0
176
1
 90
1
176
1
 90
6
176
1
 90
2
176
1
 62
7
176
1
 90
5
176
1
 90
0
176
1
 90
0
176
1
290
0
176
1
 90
1
176
1
 40
0.0
176
1
 90
0
176
1
290
1
176
1
290
1
176
1
290
0
176
1
290
0
176
1
290
0
176
1
290
0
176
1
290
0
176
1
290
0
176
1
290
0
176
1
 90
50
176
1
 40
0.0
176
1
 40
1.0
176
1
 90
0
176
1
 62
18
420
0
176
1
 90
50
176
1
 90
3
176
1
 62
5
420
255
176
1
290
0
176
1
 90
50
176
1
 90
50
176
1
 90
50
176
1
290
0
176
1
 90
50
176
1
 62
256
176
0
 40
1.0
176
0
 90
2
176
1
  1
strokes_ogs.tif
176
1
290
0
176
1
 40
1.0
176
1
 40
1.0
176
1
1001
ACAD
1000
AcDbSavedByObjectVersion
1070
0
  0
VISUALSTYLE
  5
2E
102
{ACAD_REACTORS
330
29
102
}
330
29
100
AcDbVisualStyle
  2
Basic
 70
7
177
3
291
1
 70
58
 90
1
176
1
 90
0
176
1
 90
1
176
1
 90
0
176
1
 40
0.6
176
1
 40
30.0
176
1
 62
7
420
16777215
176
1
 90
0
176
1
 90
4
176
1
 62
7
176
1
 62
257
176
1
 90
1
176
1
 90
1
176
1
 40
1.0
176
1
 90
8
176
1
 62
7
176
1
 40
1.0
176
1
 90
1
176
1
 90
6
176
1
 90
2
176
1
 62
7
176
1
 90
5
176
1
 90
0
176
1
 90
0
176
1
290
0
176
1
 90
1
176
1
 40
0.0
176
1
 90
0
176
1
290
0
176
1
290
1
176
1
290
1
176
1
290
0
176
1
290
0
176
1
290
0
176
1
290
0
176
1
290
0
176
1
290
0
176
1
 90
50
176
1
 40
0.0
176
1
 40
1.0
176
1
 90
0
176
1
 62
18
420
0
176
1
 90
50
176
1
 90
3
176
1
 62
5
420
255
176
1
290
0
176
1
 90
50
176
1
 90
50
176
1
 90
50
176
1
290
0
176
1
 90
50
176
1
 62
256
176
0
 40
1.0
176
0
 90
2
176
1
  1
strokes_ogs.tif
176
1
290
0
176
1
 40
1.0
176
1
 40
1.0
176
1
1001
ACAD
1000
AcDbSavedByObjectVersion
1070
0
  0
VISUALSTYLE
  5
35
102
{ACAD_REACTORS
330
29
102
}
330
29
100
AcDbVisualStyle
  2
Brighten
 70
12
177
3
291
1
 70
58
 90
2
176
1
 90
2
176
1
 90
0
176
1
 90
0
176
1
 40
0.6
176
1
 40
30.0
176
1
 62
7
420
16777215
176
1
 90
1
176
1
 90
4
176
1
 62
7
176
1
 62
257
176
1
 90
1
176
1
 90
1
176
1
 40
1.0
176
1
 90
8
176
1
 62
7
176
1
 40
1.0
176
1
 90
1
176
1
 90
6
176
1
 90
2
176
1
 62
7
176
1
 90
5
176
1
 90
0
176
1
 90
0
176
1
290
0
176
1
 90
1
176
1
 40
50.0
176
1
 90
0
176
1
290
0
176
1
290
1
176
1
290
1
176
1
290
0
176
1
290
0
176
1
290
0
176
1
290
0
176
1
290
0
176
1
290
0
176
1
 90
50
176
1
 40
0.0
176
1
 40
1.0
176
1
 90
0
176
1
 62
18
420
0
176
1
 90
50
176
1
 90
3
176
1
 62
5
420
255
176
1
290
0
176
1
 90
50
176
1
 90
50
176
1
 90
50
176
1
290
0
176
1
 90
50
176
1
 62
256
176
0
 40
1.0
176
0
 90
2
176
1
  1
strokes_ogs.tif
176
1
290
0
176
1
 40
1.0
176
1
 40
1.0
176
1
1001
ACAD
1000
AcDbSavedByObjectVersion
1070
0
  0
VISUALSTYLE
  5
39
102
{ACAD_REACTORS
330
29
102
}
330
29
100
AcDbVisualStyle
  2
ColorChange
 70
16
177
3
291
1
 70
58
 90
2
176
1
 90
2
176
1
 90
3
176
1
 90
0
176
1
 40
0.6
176
1
 40
30.0
176
1
 62
8
420
8421504
176
1
 90
1
176
1
 90
4
176
1
 62
7
176
1
 62
257
176
1
 90
1
176
1
 90
1
176
1
 40
1.0
176
1
 90
8
176
1
 62
8
420
8421504
176
1
 40
1.0
176
1
 90
1
176
1
 90
6
176
1
 90
2
176
1
 62
7
176
1
 90
5
176
1
 90
0
176
1
 90
0
176
1
290
0
176
1
 90
1
176
1
 40
0.0
176
1
 90
0
176
1
290
0
176
1
290
1
176
1
290
1
176
1
290
0
176
1
290
0
176
1
290
0
176
1
290
0
176
1
290
0
176
1
290
0
176
1
 90
50
176
1
 40
0.0
176
1
 40
1.0
176
1
 90
0
176
1
 62
18
420
0
176
1
 90
50
176
1
 90
3
176
1
 62
5
420
255
176
1
290
0
176
1
 90
50
176
1
 90
50
176
1
 90
50
176
1
290
0
176
1
 90
50
176
1
 62
256
176
0
 40
1.0
176
0
 90
2
176
1
  1
strokes_ogs.tif
176
1
290
0
176
1
 40
1.0
176
1
 40
1.0
176
1
1001
ACAD
1000
AcDbSavedByObjectVersion
1070
0
  0
VISUALSTYLE
  5
32
102
{ACAD_REACTORS
330
29
102
}
330
29
100
AcDbVisualStyle
  2
Conceptual
 70
9
177
3
291
0
 70
58
 90
3
176
1
 90
2
176
1
 90
0
176
1
 90
0
176
1
 40
0.6
176
1
 40
30.0
176
1
 62
7
420
16777215
176
1
 90
2
176
1
 90
2
176
1
 62
7
176
1
 62
257
176
1
 90
1
176
1
 90
1
176
1
 40
179.0
176
1
 90
8
176
1
 62
7
176
1
 40
1.0
176
1
 90
1
176
1
 90
6
176
1
 90
2
176
1
 62
7
176
1
 90
3
176
1
 90
0
176
1
 90
0
176
1
290
0
176
1
 90
1
176
1
 40
0.0
176
1
 90
0
176
1
290
0
176
1
290
1
176
1
290
1
176
1
290
0
176
1
290
0
176
1
290
0
176
1
290
0
176
1
290
0
176
1
290
0
176
1
 90
50
176
1
 40
0.0
176
1
 40
1.0
176
1
 90
0
176
1
 62
18
420
0
176
1
 90
50
176
1
 90
3
176
1
 62
5
420
255
176
1
290
0
176
1
 90
50
176
1
 90
50
176
1
 90
50
176
1
290
0
176
1
 90
50
176
1
 62
256
176
0
 40
1.0
176
0
 90
2
176
1
  1
strokes_ogs.tif
176
1
290
0
176
1
 40
1.0
176
1
 40
1.0
176
1
1001
ACAD
1000
AcDbSavedByObjectVersion
1070
0
  0
VISUALSTYLE
  5
34
102
{ACAD_REACTORS
330
29
102
}
330
29
100
AcDbVisualStyle
  2
Dim
 70
11
177
3
291
1
 70
58
 90
2
176
1
 90
2
176
1
 90
0
176
1
 90
0
176
1
 40
0.6
176
1
 40
30.0
176
1
 62
7
420
16777215
176
1
 90
1
176
1
 90
4
176
1
 62
7
176
1
 62
257
176
1
 90
1
176
1
 90
1
176
1
 40
1.0
176
1
 90
8
176
1
 62
7
176
1
 40
1.0
176
1
 90
1
176
1
 90
6
176
1
 90
2
176
1
 62
7
176
1
 90
5
176
1
 90
0
176
1
 90
0
176
1
290
0
176
1
 90
1
176
1
 40
-50.0
176
1
 90
0
176
1
290
0
176
1
290
1
176
1
290
1
176
1
290
0
176
1
290
0
176
1
290
0
176
1
290
0
176
1
290
0
176
1
290
0
176
1
 90
50
176
1
 40
0.0
176
1
 40
1.0
176
1
 90
0
176
1
 62
18
420
0
176
1
 90
50
176
1
 90
3
176
1
 62
5
420
255
176
1
290
0
176
1
 90
50
176
1
 90
50
176
1
 90
50
176
1
290
0
176
1
 90
50
176
1
 62
256
176
0
 40
1.0
176
0
 90
2
176
1
  1
strokes_ogs.tif
176
1
290
0
176
1
 40
1.0
176
1
 40
1.0
176
1
1001
ACAD
1000
AcDbSavedByObjectVersion
1070
0
  0
VISUALSTYLE
  5
41
102
{ACAD_REACTORS
330
29
102
}
330
29
100
AcDbVisualStyle
  2
EdgeColorOff
 70
22
177
3
291
1
 70
58
 90
2
176
0
 90
2
176
0
 90
0
176
0
 90
0
176
0
 40
0.6
176
0
 40
30.0
176
0
 62
7
420
16777215
176
0
 90
1
176
0
 90
4
176
0
 62
7
176
0
 62
257
176
0
 90
1
176
0
 90
1
176
0
 40
1.0
176
0
 90
8
176
2
 62
7
176
0
 40
1.0
176
0
 90
1
176
0
 90
6
176
0
 90
2
176
0
 62
7
176
0
 90
5
176
0
 90
0
176
0
 90
0
176
0
290
0
176
0
 90
1
176
0
 40
0.0
176
0
 90
0
176
0
290
0
176
1
290
1
176
1
290
1
176
1
290
0
176
1
290
0
176
1
290
0
176
1
290
0
176
1
290
0
176
1
290
0
176
1
 90
50
176
0
 40
0.0
176
0
 40
1.0
176
0
 90
0
176
0
 62
18
420
0
176
0
 90
50
176
0
 90
3
176
0
 62
5
420
255
176
0
290
0
176
1
 90
50
176
0
 90
50
176
0
 90
50
176
0
290
0
176
1
 90
50
176
0
 62
256
176
0
 40
1.0
176
0
 90
2
176
0
  1
strokes_ogs.tif
176
0
290
0
176
1
 40
1.0
176
0
 40
1.0
176
0
1001
ACAD
1000
AcDbSavedByObjectVersion
1070
0
  0
VISUALSTYLE
  5
38
102
{ACAD_REACTORS
330
29
102
}
330
29
100
AcDbVisualStyle
  2
Facepattern
 70
15
177
3
291
1
 70
58
 90
2
176
1
 90
2
176
1
 90
0
176
1
 90
0
176
1
 40
0.6
176
1
 40
30.0
176
1
 62
7
420
16777215
176
1
 90
1
176
1
 90
4
176
1
 62
7
176
1
 62
257
176
1
 90
1
176
1
 90
1
176
1
 40
1.0
176
1
 90
8
176
1
 62
7
176
1
 40
1.0
176
1
 90
1
176
1
 90
6
176
1
 90
2
176
1
 62
7
176
1
 90
5
176
1
 90
0
176
1
 90
0
176
1
290
0
176
1
 90
1
176
1
 40
0.0
176
1
 90
0
176
1
290
0
176
1
290
1
176
1
290
1
176
1
290
0
176
1
290
0
176
1
290
0
176
1
290
0
176
1
290
0
176
1
290
0
176
1
 90
50
176
1
 40
0.0
176
1
 40
1.0
176
1
 90
0
176
1
 62
18
420
0
176
1
 90
50
176
1
 90
3
176
1
 62
5
420
255
176
1
290
0
176
1
 90
50
176
1
 90
50
176
1
 90
50
176
1
290
0
176
1
 90
50
176
1
 62
256
176
0
 40
1.0
176
0
 90
2
176
1
  1
strokes_ogs.tif
176
1
290
0
176
1
 40
1.0
176
1
 40
1.0
176
1
1001
ACAD
1000
AcDbSavedByObjectVersion
1070
0
  0
VISUALSTYLE
  5
2A
102
{ACAD_REACTORS
330
29
102
}
330
29
100
AcDbVisualStyle
  2
Flat
 70
0
177
3
291
1
 70
58
 90
2
176
1
 90
1
176
1
 90
1
176
1
 90
2
176
1
 40
0.6
176
1
 40
30.0
176
1
 62
7
420
16777215
176
1
 90
0
176
1
 90
0
176
1
 62
7
176
1
 62
257
176
1
 90
1
176
1
 90
1
176
1
 40
1.0
176
1
 90
8
176
1
 62
7
176
1
 40
1.0
176
1
 90
1
176
1
 90
6
176
1
 90
2
176
1
 62
7
176
1
 90
5
176
1
 90
0
176
1
 90
0
176
1
290
0
176
1
 90
13
176
1
 40
0.0
176
1
 90
0
176
1
290
0
176
1
290
1
176
1
290
1
176
1
290
0
176
1
290
0
176
1
290
0
176
1
290
0
176
1
290
0
176
1
290
0
176
1
 90
50
176
1
 40
0.0
176
1
 40
1.0
176
1
 90
0
176
1
 62
18
420
0
176
1
 90
50
176
1
 90
3
176
1
 62
5
420
255
176
1
290
0
176
1
 90
50
176
1
 90
50
176
1
 90
50
176
1
290
0
176
1
 90
50
176
1
 62
256
176
0
 40
1.0
176
0
 90
2
176
1
  1
strokes_ogs.tif
176
1
290
0
176
1
 40
1.0
176
1
 40
1.0
176
1
1001
ACAD
1000
AcDbSavedByObjectVersion
1070
0
  0
VISUALSTYLE
  5
2B
102
{ACAD_REACTORS
330
29
102
}
330
29
100
AcDbVisualStyle
  2
FlatWithEdges
 70
1
177
3
291
1
 70
58
 90
2
176
1
 90
1
176
1
 90
1
176
1
 90
2
176
1
 40
0.6
176
1
 40
30.0
176
1
 62
7
420
16777215
176
1
 90
1
176
1
 90
0
176
1
 62
7
176
1
 62
257
176
1
 90
1
176
1
 90
1
176
1
 40
1.0
176
1
 90
0
176
1
 62
257
176
1
 40
1.0
176
1
 90
1
176
1
 90
6
176
1
 90
2
176
1
 62
7
176
1
 90
5
176
1
 90
0
176
1
 90
0
176
1
290
0
176
1
 90
13
176
1
 40
0.0
176
1
 90
0
176
1
290
0
176
1
290
1
176
1
290
1
176
1
290
0
176
1
290
0
176
1
290
0
176
1
290
0
176
1
290
0
176
1
290
0
176
1
 90
50
176
1
 40
0.0
176
1
 40
1.0
176
1
 90
0
176
1
 62
18
420
0
176
1
 90
50
176
1
 90
3
176
1
 62
5
420
255
176
1
290
0
176
1
 90
50
176
1
 90
50
176
1
 90
50
176
1
290
0
176
1
 90
50
176
1
 62
256
176
0
 40
1.0
176
0
 90
2
176
1
  1
strokes_ogs.tif
176
1
290
0
176
1
 40
1.0
176
1
 40
1.0
176
1
1001
ACAD
1000
AcDbSavedByObjectVersion
1070
0
  0
VISUALSTYLE
  5
2C
102
{ACAD_REACTORS
330
29
102
}
330
29
100
AcDbVisualStyle
  2
Gouraud
 70
2
177
3
291
1
 70
58
 90
2
176
1
 90
2
176
1
 90
1
176
1
 90
2
176
1
 40
0.6
176
1
 40
30.0
176
1
 62
7
420
16777215
176
1
 90
0
176
1
 90
0
176
1
 62
7
176
1
 62
257
176
1
 90
1
176
1
 90
1
176
1
 40
1.0
176
1
 90
0
176
1
 62
7
176
1
 40
1.0
176
1
 90
1
176
1
 90
6
176
1
 90
2
176
1
 62
7
176
1
 90
5
176
1
 90
0
176
1
 90
0
176
1
290
0
176
1
 90
13
176
1
 40
0.0
176
1
 90
0
176
1
290
0
176
1
290
1
176
1
290
1
176
1
290
0
176
1
290
0
176
1
290
0
176
1
290
0
176
1
290
0
176
1
290
0
176
1
 90
50
176
1
 40
0.0
176
1
 40
1.0
176
1
 90
0
176
1
 62
18
420
0
176
1
 90
50
176
1
 90
3
176
1
 62
5
420
255
176
1
290
0
176
1
 90
50
176
1
 90
50
176
1
 90
50
176
1
290
0
176
1
 90
50
176
1
 62
256
176
0
 40
1.0
176
0
 90
2
176
1
  1
strokes_ogs.tif
176
1
290
0
176
1
 40
1.0
176
1
 40
1.0
176
1
1001
ACAD
1000
AcDbSavedByObjectVersion
1070
0
  0
VISUALSTYLE
  5
2D
102
{ACAD_REACTORS
330
29
102
}
330
29
100
AcDbVisualStyle
  2
GouraudWithEdges
 70
3
177
3
291
1
 70
58
 90
2
176
1
 90
2
176
1
 90
1
176
1
 90
2
176
1
 40
0.6
176
1
 40
30.0
176
1
 62
7
420
16777215
176
1
 90
1
176
1
 90
0
176
1
 62
7
176
1
 62
257
176
1
 90
1
176
1
 90
1
176
1
 40
1.0
176
1
 90
0
176
1
 62
257
176
1
 40
1.0
176
1
 90
1
176
1
 90
6
176
1
 90
2
176
1
 62
7
176
1
 90
5
176
1
 90
0
176
1
 90
0
176
1
290
0
176
1
 90
13
176
1
 40
0.0
176
1
 90
0
176
1
290
0
176
1
290
1
176
1
290
1
176
1
290
0
176
1
290
0
176
1
290
0
176
1
290
0
176
1
290
0
176
1
290
0
176
1
 90
50
176
1
 40
0.0
176
1
 40
1.0
176
1
 90
0
176
1
 62
18
420
0
176
1
 90
50
176
1
 90
3
176
1
 62
5
420
255
176
1
290
0
176
1
 90
50
176
1
 90
50
176
1
 90
50
176
1
290
0
176
1
 90
50
176
1
 62
256
176
0
 40
1.0
176
0
 90
2
176
1
  1
strokes_ogs.tif
176
1
290
0
176
1
 40
1.0
176
1
 40
1.0
176
1
1001
ACAD
1000
AcDbSavedByObjectVersion
1070
0
  0
VISUALSTYLE
  5
31
102
{ACAD_REACTORS
330
29
102
}
330
29
100
AcDbVisualStyle
  2
Hidden
 70
6
177
3
291
0
 70
58
 90
1
176
1
 90
2
176
1
 90
2
176
1
 90
0
176
1
 40
0.6
176
1
 40
30.0
176
1
 62
7
420
16777215
176
1
 90
2
176
1
 90
2
176
1
 62
7
176
1
 62
257
176
1
 90
2
176
1
 90
1
176
1
 40
40.0
176
1
 90
0
176
1
 62
257
176
1
 40
1.0
176
1
 90
1
176
1
 90
6
176
1
 90
2
176
1
 62
7
176
1
 90
3
176
1
 90
0
176
1
 90
0
176
1
290
0
176
1
 90
1
176
1
 40
0.0
176
1
 90
0
176
1
290
0
176
1
290
1
176
1
290
1
176
1
290
0
176
1
290
0
176
1
290
0
176
1
290
0
176
1
290
0
176
1
290
0
176
1
 90
50
176
1
 40
0.0
176
1
 40
1.0
176
1
 90
0
176
1
 62
18
420
0
176
1
 90
50
176
1
 90
3
176
1
 62
5
420
255
176
1
290
0
176
1
 90
50
176
1
 90
50
176
1
 90
50
176
1
290
0
176
1
 90
50
176
1
 62
256
176
0
 40
1.0
176
0
 90
2
176
1
  1
strokes_ogs.tif
176
1
290
0
176
1
 40
1.0
176
1
 40
1.0
176
1
1001
ACAD
1000
AcDbSavedByObjectVersion
1070
0
  0
VISUALSTYLE
  5
3F
102
{ACAD_REACTORS
330
29
102
}
330
29
100
AcDbVisualStyle
  2
JitterOff
 70
20
177
3
291
1
 70
58
 90
2
176
0
 90
2
176
0
 90
0
176
0
 90
0
176
0
 40
0.6
176
0
 40
30.0
176
0
 62
7
420
16777215
176
0
 90
1
176
0
 90
4
176
0
 62
7
176
0
 62
257
176
0
 90
1
176
0
 90
1
176
0
 40
1.0
176
0
 90
10
176
2
 62
7
176
0
 40
1.0
176
0
 90
1
176
0
 90
6
176
0
 90
2
176
0
 62
7
176
0
 90
5
176
0
 90
0
176
0
 90
0
176
0
290
0
176
0
 90
1
176
0
 40
0.0
176
0
 90
0
176
0
290
0
176
1
290
1
176
1
290
1
176
1
290
0
176
1
290
0
176
1
290
0
176
1
290
0
176
1
290
0
176
1
290
0
176
1
 90
50
176
0
 40
0.0
176
0
 40
1.0
176
0
 90
0
176
0
 62
18
420
0
176
0
 90
50
176
0
 90
3
176
0
 62
5
420
255
176
0
290
0
176
1
 90
50
176
0
 90
50
176
0
 90
50
176
0
290
0
176
1
 90
50
176
0
 62
256
176
0
 40
1.0
176
0
 90
2
176
0
  1
strokes_ogs.tif
176
0
290
0
176
1
 40
1.0
176
0
 40
1.0
176
0
1001
ACAD
1000
AcDbSavedByObjectVersion
1070
0
  0
VISUALSTYLE
  5
37
102
{ACAD_REACTORS
330
29
102
}
330
29
100
AcDbVisualStyle
  2
Linepattern
 70
14
177
3
291
1
 70
58
 90
2
176
1
 90
2
176
1
 90
0
176
1
 90
0
176
1
 40
0.6
176
1
 40
30.0
176
1
 62
7
420
16777215
176
1
 90
1
176
1
 90
4
176
1
 62
7
176
1
 62
257
176
1
 90
7
176
1
 90
7
176
1
 40
1.0
176
1
 90
8
176
1
 62
7
176
1
 40
1.0
176
1
 90
1
176
1
 90
6
176
1
 90
2
176
1
 62
7
176
1
 90
5
176
1
 90
0
176
1
 90
0
176
1
290
0
176
1
 90
1
176
1
 40
0.0
176
1
 90
0
176
1
290
0
176
1
290
1
176
1
290
1
176
1
290
0
176
1
290
0
176
1
290
0
176
1
290
0
176
1
290
0
176
1
290
0
176
1
 90
50
176
1
 40
0.0
176
1
 40
1.0
176
1
 90
0
176
1
 62
18
420
0
176
1
 90
50
176
1
 90
3
176
1
 62
5
420
255
176
1
290
0
176
1
 90
50
176
1
 90
50
176
1
 90
50
176
1
290
0
176
1
 90
50
176
1
 62
256
176
0
 40
1.0
176
0
 90
2
176
1
  1
strokes_ogs.tif
176
1
290
0
176
1
 40
1.0
176
1
 40
1.0
176
1
1001
ACAD
1000
AcDbSavedByObjectVersion
1070
0
  0
VISUALSTYLE
  5
40
102
{ACAD_REACTORS
330
29
102
}
330
29
100
AcDbVisualStyle
  2
OverhangOff
 70
21
177
3
291
1
 70
58
 90
2
176
0
 90
2
176
0
 90
0
176
0
 90
0
176
0
 40
0.6
176
0
 40
30.0
176
0
 62
7
420
16777215
176
0
 90
1
176
0
 90
4
176
0
 62
7
176
0
 62
257
176
0
 90
1
176
0
 90
1
176
0
 40
1.0
176
0
 90
9
176
2
 62
7
176
0
 40
1.0
176
0
 90
1
176
0
 90
6
176
0
 90
2
176
0
 62
7
176
0
 90
5
176
0
 90
0
176
0
 90
0
176
0
290
0
176
0
 90
1
176
0
 40
0.0
176
0
 90
0
176
0
290
0
176
1
290
1
176
1
290
1
176
1
290
0
176
1
290
0
176
1
290
0
176
1
290
0
176
1
290
0
176
1
290
0
176
1
 90
50
176
0
 40
0.0
176
0
 40
1.0
176
0
 90
0
176
0
 62
18
420
0
176
0
 90
50
176
0
 90
3
176
0
 62
5
420
255
176
0
290
0
176
1
 90
50
176
0
 90
50
176
0
 90
50
176
0
290
0
176
1
 90
50
176
0
 62
256
176
0
 40
1.0
176
0
 90
2
176
0
  1
strokes_ogs.tif
176
0
290
0
176
1
 40
1.0
176
0
 40
1.0
176
0
1001
ACAD
1000
AcDbSavedByObjectVersion
1070
0
  0
VISUALSTYLE
  5
33
102
{ACAD_REACTORS
330
29
102
}
330
29
100
AcDbVisualStyle
  2
Realistic
 70
8
177
3
291
0
 70
58
 90
2
176
1
 90
3
176
1
 90
0
176
1
 90
2
176
1
 40
0.6
176
1
 40
30.0
176
1
 62
7
420
16777215
176
1
 90
0
176
1
 90
0
176
1
 62
7
176
1
 62
257
176
1
 90
1
176
1
 90
1
176
1
 40
1.0
176
1
 90
8
176
1
 62
257
176
1
 40
1.0
176
1
 90
1
176
1
 90
6
176
1
 90
2
176
1
 62
7
176
1
 90
3
176
1
 90
0
176
1
 90
0
176
1
290
0
176
1
 90
13
176
1
 40
0.0
176
1
 90
0
176
1
290
0
176
1
290
1
176
1
290
1
176
1
290
0
176
1
290
0
176
1
290
0
176
1
290
0
176
1
290
0
176
1
290
0
176
1
 90
50
176
1
 40
0.0
176
1
 40
1.0
176
1
 90
0
176
1
 62
18
420
0
176
1
 90
50
176
1
 90
3
176
1
 62
5
420
255
176
1
290
0
176
1
 90
50
176
1
 90
50
176
1
 90
50
176
1
290
0
176
1
 90
50
176
1
 62
256
176
0
 40
1.0
176
0
 90
2
176
1
  1
strokes_ogs.tif
176
1
290
0
176
1
 40
1.0
176
1
 40
1.0
176
1
1001
ACAD
1000
AcDbSavedByObjectVersion
1070
0
  0
VISUALSTYLE
  5
3E
102
{ACAD_REACTORS
330
29
102
}
330
29
100
AcDbVisualStyle
  2
Shaded
 70
27
177
3
291
0
 70
58
 90
2
176
1
 90
2
176
1
 90
1
176
1
 90
2
176
1
 40
0.6
176
1
 40
30.0
176
1
 62
7
420
16777215
176
1
 90
0
176
1
 90
4
176
1
 62
7
176
1
 62
257
176
1
 90
1
176
1
 90
1
176
1
 40
1.0
176
1
 90
8
176
1
 62
257
176
1
 40
1.0
176
1
 90
1
176
1
 90
6
176
1
 90
2
176
1
 62
8
420
7895160
176
1
 90
3
176
1
 90
0
176
1
 90
0
176
1
290
0
176
1
 90
5
176
1
 40
0.0
176
1
 90
0
176
1
290
0
176
1
290
1
176
1
290
1
176
1
290
0
176
1
290
0
176
1
290
0
176
1
290
0
176
1
290
0
176
1
290
0
176
1
 90
50
176
1
 40
0.0
176
1
 40
1.0
176
1
 90
0
176
1
 62
18
420
0
176
1
 90
50
176
1
 90
3
176
1
 62
5
420
255
176
1
290
0
176
1
 90
50
176
1
 90
50
176
1
 90
50
176
1
290
0
176
1
 90
50
176
1
 62
256
176
0
 40
1.0
176
0
 90
2
176
1
  1
strokes_ogs.tif
176
1
290
0
176
1
 40
1.0
176
1
 40
1.0
176
1
1001
ACAD
1000
AcDbSavedByObjectVersion
1070
0
  0
VISUALSTYLE
  5
3D
102
{ACAD_REACTORS
330
29
102
}
330
29
100
AcDbVisualStyle
  2
Shaded with edges
 70
26
177
3
291
0
 70
58
 90
2
176
1
 90
2
176
1
 90
1
176
1
 90
2
176
1
 40
0.6
176
1
 40
30.0
176
1
 62
7
420
16777215
176
1
 90
1
176
1
 90
2
176
1
 62
7
176
1
 62
257
176
1
 90
2
176
1
 90
1
176
1
 40
1.0
176
1
 90
8
176
1
 62
257
176
1
 40
1.0
176
1
 90
1
176
1
 90
6
176
1
 90
2
176
1
 62
7
176
1
 90
3
176
1
 90
0
176
1
 90
0
176
1
290
0
176
1
 90
5
176
1
 40
0.0
176
1
 90
0
176
1
290
0
176
1
290
1
176
1
290
1
176
1
290
0
176
1
290
0
176
1
290
0
176
1
290
0
176
1
290
0
176
1
290
0
176
1
 90
50
176
1
 40
0.0
176
1
 40
1.0
176
1
 90
0
176
1
 62
18
420
0
176
1
 90
50
176
1
 90
3
176
1
 62
5
420
255
176
1
290
0
176
1
 90
50
176
1
 90
50
176
1
 90
50
176
1
290
0
176
1
 90
50
176
1
 62
256
176
0
 40
1.0
176
0
 90
2
176
1
  1
strokes_ogs.tif
176
1
290
0
176
1
 40
1.0
176
1
 40
1.0
176
1
1001
ACAD
1000
AcDbSavedByObjectVersion
1070
0
  0
VISUALSTYLE
  5
3A
102
{ACAD_REACTORS
330
29
102
}
330
29
100
AcDbVisualStyle
  2
Shades of Gray
 70
23
177
3
291
0
 70
58
 90
2
176
1
 90
2
176
1
 90
3
176
1
 90
0
176
1
 40
0.6
176
1
 40
30.0
176
1
 62
7
420
16777215
176
1
 90
2
176
1
 90
2
176
1
 62
7
176
1
 62
7
176
1
 90
1
176
1
 90
1
176
1
 40
40.0
176
1
 90
8
176
1
 62
7
176
1
 40
1.0
176
1
 90
1
176
1
 90
6
176
1
 90
2
176
1
 62
7
176
1
 90
3
176
1
 90
0
176
1
 90
0
176
1
290
0
176
1
 90
1
176
1
 40
0.0
176
1
 90
0
176
1
290
0
176
1
290
1
176
1
290
1
176
1
290
0
176
1
290
0
176
1
290
0
176
1
290
0
176
1
290
0
176
1
290
0
176
1
 90
50
176
1
 40
0.0
176
1
 40
1.0
176
1
 90
0
176
1
 62
18
420
0
176
1
 90
50
176
1
 90
3
176
1
 62
5
420
255
176
1
290
0
176
1
 90
50
176
1
 90
50
176
1
 90
50
176
1
290
0
176
1
 90
50
176
1
 62
256
176
0
 40
1.0
176
0
 90
2
176
1
  1
strokes_ogs.tif
176
1
290
0
176
1
 40
1.0
176
1
 40
1.0
176
1
1001
ACAD
1000
AcDbSavedByObjectVersion
1070
0
  0
VISUALSTYLE
  5
3B
102
{ACAD_REACTORS
330
29
102
}
330
29
100
AcDbVisualStyle
  2
Sketchy
 70
24
177
3
291
0
 70
58
 90
1
176
1
 90
2
176
1
 90
2
176
1
 90
0
176
1
 40
0.6
176
1
 40
30.0
176
1
 62
7
420
16777215
176
1
 90
2
176
1
 90
2
176
1
 62
7
176
1
 62
7
176
1
 90
1
176
1
 90
1
176
1
 40
40.0
176
1
 90
11
176
1
 62
7
176
1
 40
1.0
176
1
 90
1
176
1
 90
6
176
1
 90
2
176
1
 62
7
176
1
 90
6
176
1
 90
0
176
1
 90
0
176
1
290
0
176
1
 90
1
176
1
 40
0.0
176
1
 90
0
176
1
290
0
176
1
290
1
176
1
290
1
176
1
290
0
176
1
290
0
176
1
290
0
176
1
290
0
176
1
290
0
176
1
290
0
176
1
 90
50
176
1
 40
0.0
176
1
 40
1.0
176
1
 90
0
176
1
 62
18
420
0
176
1
 90
50
176
1
 90
3
176
1
 62
5
420
255
176
1
290
0
176
1
 90
50
176
1
 90
50
176
1
 90
50
176
1
290
0
176
1
 90
50
176
1
 62
256
176
0
 40
1.0
176
0
 90
2
176
1
  1
strokes_ogs.tif
176
1
290
0
176
1
 40
1.0
176
1
 40
1.0
176
1
1001
ACAD
1000
AcDbSavedByObjectVersion
1070
0
  0
VISUALSTYLE
  5
36
102
{ACAD_REACTORS
330
29
102
}
330
29
100
AcDbVisualStyle
  2
Thicken
 70
13
177
3
291
1
 70
58
 90
2
176
1
 90
2
176
1
 90
0
176
1
 90
0
176
1
 40
0.6
176
1
 40
30.0
176
1
 62
7
420
16777215
176
1
 90
1
176
1
 90
4
176
1
 62
7
176
1
 62
257
176
1
 90
1
176
1
 90
1
176
1
 40
1.0
176
1
 90
12
176
1
 62
7
176
1
 40
1.0
176
1
 90
1
176
1
 90
6
176
1
 90
2
176
1
 62
7
176
1
 90
5
176
1
 90
0
176
1
 90
0
176
1
290
0
176
1
 90
1
176
1
 40
0.0
176
1
 90
0
176
1
290
0
176
1
290
1
176
1
290
1
176
1
290
0
176
1
290
0
176
1
290
0
176
1
290
0
176
1
290
0
176
1
290
0
176
1
 90
50
176
1
 40
0.0
176
1
 40
1.0
176
1
 90
0
176
1
 62
18
420
0
176
1
 90
50
176
1
 90
3
176
1
 62
5
420
255
176
1
290
0
176
1
 90
50
176
1
 90
50
176
1
 90
50
176
1
290
0
176
1
 90
50
176
1
 62
256
176
0
 40
1.0
176
0
 90
2
176
1
  1
strokes_ogs.tif
176
1
290
0
176
1
 40
1.0
176
1
 40
1.0
176
1
1001
ACAD
1000
AcDbSavedByObjectVersion
1070
0
  0
VISUALSTYLE
  5
30
102
{ACAD_REACTORS
330
29
102
}
330
29
100
AcDbVisualStyle
  2
Wireframe
 70
5
177
3
291
0
 70
58
 90
0
176
1
 90
2
176
1
 90
0
176
1
 90
0
176
1
 40
0.6
176
1
 40
30.0
176
1
 62
7
420
16777215
176
1
 90
1
176
1
 90
4
176
1
 62
7
176
1
 62
257
176
1
 90
1
176
1
 90
1
176
1
 40
1.0
176
1
 90
0
176
1
 62
257
176
1
 40
1.0
176
1
 90
1
176
1
 90
6
176
1
 90
2
176
1
 62
7
176
1
 90
3
176
1
 90
0
176
1
 90
0
176
1
290
0
176
1
 90
1
176
1
 40
0.0
176
1
 90
0
176
1
290
0
176
1
290
1
176
1
290
1
176
1
290
0
176
1
290
0
176
1
290
0
176
1
290
0
176
1
290
0
176
1
290
0
176
1
 90
50
176
1
 40
0.0
176
1
 40
1.0
176
1
 90
0
176
1
 62
18
420
0
176
1
 90
50
176
1
 90
3
176
1
 62
5
420
255
176
1
290
0
176
1
 90
50
176
1
 90
50
176
1
 90
50
176
1
290
0
176
1
 90
50
176
1
 62
256
176
0
 40
1.0
176
0
 90
2
176
1
  1
strokes_ogs.tif
176
1
290
0
176
1
 40
1.0
176
1
 40
1.0
176
1
1001
ACAD
1000
AcDbSavedByObjectVersion
1070
0
  0
VISUALSTYLE
  5
3C
102
{ACAD_REACTORS
330
29
102
}
330
29
100
AcDbVisualStyle
  2
X-Ray
 70
25
177
3
291
0
 70
58
 90
2
176
1
 90
2
176
1
 90
1
176
1
 90
1
176
1
 40
0.5
176
1
 40
30.0
176
1
 62
7
420
16777215
176
1
 90
1
176
1
 90
0
176
1
 62
7
176
1
 62
257
176
1
 90
1
176
1
 90
1
176
1
 40
1.0
176
1
 90
8
176
1
 62
7
176
1
 40
1.0
176
1
 90
1
176
1
 90
6
176
1
 90
2
176
1
 62
7
176
1
 90
3
176
1
 90
0
176
1
 90
0
176
1
290
0
176
1
 90
13
176
1
 40
0.0
176
1
 90
0
176
1
290
0
176
1
290
1
176
1
290
1
176
1
290
0
176
1
290
0
176
1
290
0
176
1
290
0
176
1
290
0
176
1
290
0
176
1
 90
50
176
1
 40
0.0
176
1
 40
1.0
176
1
 90
0
176
1
 62
18
420
0
176
1
 90
50
176
1
 90
3
176
1
 62
5
420
255
176
1
290
0
176
1
 90
50
176
1
 90
50
176
1
 90
50
176
1
290
0
176
1
 90
50
176
1
 62
256
176
0
 40
1.0
176
0
 90
2
176
1
  1
strokes_ogs.tif
176
1
290
0
176
1
 40
1.0
176
1
 40
1.0
176
1
1001
ACAD
1000
AcDbSavedByObjectVersion
1070
0
  0
DICTIONARYVAR
  5
913
102
{ACAD_REACTORS
330
907
102
}
330
907
100
DictionaryVariables
280
0
  1
1:1
  0
DICTIONARYVAR
  5
90F
102
{ACAD_REACTORS
330
907
102
}
330
907
100
DictionaryVariables
280
0
  1
STANDARD
  0
DICTIONARYVAR
  5
90E
102
{ACAD_REACTORS
330
907
102
}
330
907
100
DictionaryVariables
280
0
  1
STANDARD
  0
DICTIONARYVAR
  5
910
102
{ACAD_REACTORS
330
907
102
}
330
907
100
DictionaryVariables
280
0
  1
Imperial24
  0
DICTIONARYVAR
  5
911
102
{ACAD_REACTORS
330
907
102
}
330
907
100
DictionaryVariables
280
0
  1
Imperial24
  0
DICTIONARYVAR
  5
915
102
{ACAD_REACTORS
330
907
102
}
330
907
100
DictionaryVariables
280
0
  1
1
  0
DICTIONARYVAR
  5
916
102
{ACAD_REACTORS
330
907
102
}
330
907
100
DictionaryVariables
280
0
  1
15
  0
DICTIONARYVAR
  5
914
102
{ACAD_REACTORS
330
907
102
}
330
907
100
DictionaryVariables
280
0
  1
0
  0
DICTIONARYVAR
  5
912
102
{ACAD_REACTORS
330
907
102
}
330
907
100
DictionaryVariables
280
0
  1
0
  0
DICTIONARY
  5
91D
330
6A
100
AcDbDictionary
280
1
281
1
  3
ACAD_XREC_ROUNDTRIP
360
91E
  0
DICTIONARY
  5
1A
330
19
100
AcDbDictionary
280
1
281
1
  3
BUMPTILE
360
1C
  3
DIFFUSETILE
360
1B
  3
OPACITYTILE
360
1F
  3
REFLECTIONTILE
360
1E
  3
REFRACTIONTILE
360
20
  3
SPECULARTILE
360
1D
  0
DICTIONARY
  5
12
330
11
100
AcDbDictionary
280
1
281
1
  3
BUMPTILE
360
14
  3
DIFFUSETILE
360
13
  3
OPACITYTILE
360
17
  3
REFLECTIONTILE
360
16
  3
REFRACTIONTILE
360
18
  3
SPECULARTILE
360
15
  0
DICTIONARY
  5
22
330
21
100
AcDbDictionary
280
1
281
1
  3
BUMPTILE
360
24
  3
DIFFUSETILE
360
23
  3
OPACITYTILE
360
27
  3
REFLECTIONTILE
360
26
  3
REFRACTIONTILE
360
28
  3
SPECULARTILE
360
25
  0
DICTIONARY
  5
91B
330
68
100
AcDbDictionary
280
1
281
1
  3
ACAD_XREC_ROUNDTRIP
360
91C
  0
DICTIONARY
  5
918
330
64
100
AcDbDictionary
280
1
281
1
  3
ACAD_ROUNDTRIP_2008_TABLESTYLE_CELLSTYLEMAP
360
919
  0
XRECORD
  5
91E
102
{ACAD_REACTORS
330
91D
102
}
330
91D
100
AcDbXrecord
280
1
102
DISPLAYNAME
  1
Imperial24
102
FLAGS
 90
0
  0
XRECORD
  5
1C
102
{ACAD_REACTORS
330
1A
102
}
330
1A
100
AcDbXrecord
280
1
270
1
271
1
  0
XRECORD
  5
1B
102
{ACAD_REACTORS
330
1A
102
}
330
1A
100
AcDbXrecord
280
1
270
1
271
1
  0
XRECORD
  5
1F
102
{ACAD_REACTORS
330
1A
102
}
330
1A
100
AcDbXrecord
280
1
270
1
271
1
  0
XRECORD
  5
1E
102
{ACAD_REACTORS
330
1A
102
}
330
1A
100
AcDbXrecord
280
1
270
1
271
1
  0
XRECORD
  5
20
102
{ACAD_REACTORS
330
1A
102
}
330
1A
100
AcDbXrecord
280
1
270
1
271
1
  0
XRECORD
  5
1D
102
{ACAD_REACTORS
330
1A
102
}
330
1A
100
AcDbXrecord
280
1
270
1
271
1
  0
XRECORD
  5
14
102
{ACAD_REACTORS
330
12
102
}
330
12
100
AcDbXrecord
280
1
270
1
271
1
  0
XRECORD
  5
13
102
{ACAD_REACTORS
330
12
102
}
330
12
100
AcDbXrecord
280
1
270
1
271
1
  0
XRECORD
  5
17
102
{ACAD_REACTORS
330
12
102
}
330
12
100
AcDbXrecord
280
1
270
1
271
1
  0
XRECORD
  5
16
102
{ACAD_REACTORS
330
12
102
}
330
12
100
AcDbXrecord
280
1
270
1
271
1
  0
XRECORD
  5
18
102
{ACAD_REACTORS
330
12
102
}
330
12
100
AcDbXrecord
280
1
270
1
271
1
  0
XRECORD
  5
15
102
{ACAD_REACTORS
330
12
102
}
330
12
100
AcDbXrecord
280
1
270
1
271
1
  0
XRECORD
  5
24
102
{ACAD_REACTORS
330
22
102
}
330
22
100
AcDbXrecord
280
1
270
1
271
1
  0
XRECORD
  5
23
102
{ACAD_REACTORS
330
22
102
}
330
22
100
AcDbXrecord
280
1
270
1
271
1
  0
XRECORD
  5
27
102
{ACAD_REACTORS
330
22
102
}
330
22
100
AcDbXrecord
280
1
270
1
271
1
  0
XRECORD
  5
26
102
{ACAD_REACTORS
330
22
102
}
330
22
100
AcDbXrecord
280
1
270
1
271
1
  0
XRECORD
  5
28
102
{ACAD_REACTORS
330
22
102
}
330
22
100
AcDbXrecord
280
1
270
1
271
1
  0
XRECORD
  5
25
102
{ACAD_REACTORS
330
22
102
}
330
22
100
AcDbXrecord
280
1
270
1
271
1
  0
XRECORD
  5
91C
102
{ACAD_REACTORS
330
91B
102
}
330
91B
100
AcDbXrecord
280
1
102
DISPLAYNAME
  1
Imperial24
102
FLAGS
 90
0
  0
CELLSTYLEMAP
  5
919
102
{ACAD_REACTORS
330
918
102
}
330
918
100
AcDbCellStyleMap
 90
3
300
CELLSTYLE
  1
TABLEFORMAT_BEGIN
 90
5
170
1
 91
0
 92
32768
 62
257
 93
1
300
CONTENTFORMAT
  1
CONTENTFORMAT_BEGIN
 90
0
 91
0
 92
512
 93
0
300

 40
0.0
140
1.0
 94
5
 62
0
340
55
144
0.25
309
CONTENTFORMAT_END
171
0
 94
0
309
TABLEFORMAT_END
  1
CELLSTYLE_BEGIN
 90
1
 91
1
300
_TITLE
309
CELLSTYLE_END
300
CELLSTYLE
  1
TABLEFORMAT_BEGIN
 90
5
170
1
 91
0
 92
0
 62
257
 93
1
300
CONTENTFORMAT
  1
CONTENTFORMAT_BEGIN
 90
0
 91
0
 92
512
 93
0
300

 40
0.0
140
1.0
 94
5
 62
0
340
55
144
0.18
309
CONTENTFORMAT_END
171
0
 94
0
309
TABLEFORMAT_END
  1
CELLSTYLE_BEGIN
 90
2
 91
1
300
_HEADER
309
CELLSTYLE_END
300
CELLSTYLE
  1
TABLEFORMAT_BEGIN
 90
5
170
1
 91
0
 92
0
 62
257
 93
1
300
CONTENTFORMAT
  1
CONTENTFORMAT_BEGIN
 90
0
 91
0
 92
512
 93
0
300

 40
0.0
140
1.0
 94
2
 62
0
340
55
144
0.18
309
CONTENTFORMAT_END
171
0
 94
0
309
TABLEFORMAT_END
  1
CELLSTYLE_BEGIN
 90
3
 91
2
300
_DATA
309
CELLSTYLE_END
  0
DICTIONARY
  5
92A
330
C
100
AcDbDictionary
280
1
281
1
  3
WRITTEN_BY_EZDXF
350
92B
  0
DICTIONARYVAR
  5
92B
330
92A
100
DictionaryVariables
280
0
  1
1.4.2 @ 2025-06-30T01:30:27.193515+00:00
  0
ENDSEC
  0
EOF
