  0
SECTION
  2
HEADER
999
User:  aceplant-hdj
999
Date:  Thu, 10 Jul 2025.  Time:  17:01:42
  9
$LIMMIN
 10
0.00000
 20
0.00000
  9
$LIMMAX
 10
841.000
 20
594.000
  9
$EXTMIN
 10
0.00000
 20
0.00000
  9
$EXTMAX
 10
841.000
 20
594.000
  9
$LTSCALE
 40
1.00000
  9
$DIMSCALE
 40
1.00000
  9
$PLINEGEN
 70
1
  0
ENDSEC
999
--------------------------------------------------------------------------------
  0
SECTION
  2
TABLES
  0
TABLE
  2
STYLE
 70
1
  0
STYLE
  2
HTX1
 70
0
 40
0.00000
 41
1.02000
 50
0.00000
 71
0
 42
1.00000
  3
O8116901
  4

  0
ENDTAB
  0
TABLE
  2
LTYPE
 70
14
  0
LTYPE
  2
GTSOLID
 70
0
  3
GTSOLID
 72
65
 73
0
 40
24.0000
  0
LTYPE
  2
GTDASH
 70
0
  3
GTDASH
 72
65
 73
2
 40
12.0000
 49
8.00000
 49
-4.00000
  0
LTYPE
  2
GTDOT
 70
0
  3
GTDOT
 72
65
 73
2
 40
6.00000
 49
1.60000
 49
-4.40000
  0
LTYPE
  2
GTCHAIN
 70
0
  3
GTCHAIN
 72
65
 73
4
 40
24.0000
 49
16.0000
 49
-3.20000
 49
1.60000
 49
-3.20000
  0
LTYPE
  2
GTLDASH
 70
0
  3
GTLDASH
 72
65
 73
2
 40
18.0000
 49
14.4000
 49
-3.60000
  0
LTYPE
  2
GTDDASH
 70
0
  3
GTDDASH
 72
65
 73
6
 40
22.0000
 49
0.251429
 49
-3.01714
 49
6.28571
 49
-3.14286
 49
6.28571
 49
-3.01714
  0
LTYPE
  2
GTDDOT
 70
0
  3
GTDDOT
 72
65
 73
6
 40
16.0000
 49
6.34921
 49
-3.04762
 49
0.253968
 49
-3.04762
 49
0.253968
 49
-3.04762
  0
LTYPE
  2
GTDCHAIN
 70
0
  3
GTDCHAIN
 72
65
 73
6
 40
30.0000
 49
14.6939
 49
-3.06122
 49
3.06122
 49
-3.06122
 49
3.06122
 49
-3.06122
  0
LTYPE
  2
GTFDOT
 70
0
  3
GTFDOT
 72
65
 73
2
 40
3.00000
 49
0.240000
 49
-2.76000
  0
LTYPE
  2
GTTCHAIN
 70
0
  3
GTTCHAIN
 72
65
 73
8
 40
45.0000
 49
24.0000
 49
-3.00000
 49
3.00000
 49
-3.00000
 49
3.00000
 49
-3.00000
 49
3.00000
 49
-3.00000
  0
LTYPE
  2
GT110
 70
0
  3
GT110
 72
65
 73
2
 40
3.00000
 49
2.00000
 49
-1.00000
  0
LTYPE
  2
GT101
 70
0
  3
GT101
 72
65
 73
2
 40
3.00000
 49
2.00000
 49
-1.00000
  0
LTYPE
  2
GT100
 70
0
  3
GT100
 72
65
 73
2
 40
1.00000
 49
0.666667
 49
-0.333333
  0
LTYPE
  2
GT111
 70
0
  3
GT111
 72
65
 73
4
 40
6.00000
 49
4.00000
 49
-0.800000
 49
0.400000
 49
-0.800000
  0
ENDTAB
  0
ENDSEC
999
--------------------------------------------------------------------------------
  0
SECTION
  2
ENTITIES
  0
POLYLINE
  8
GT_1
 66
1
 70
128
  0
VERTEX
  8
GT_1
 10
830.000
 20
12.0000
  0
VERTEX
  8
GT_1
 10
830.000
 20
584.000
  0
VERTEX
  8
GT_1
 10
616.700
 20
584.000
  0
VERTEX
  8
GT_1
 10
616.700
 20
12.0000
  0
VERTEX
  8
GT_1
 10
830.000
 20
12.0000
  0
SEQEND
  0
TEXT
  8
GT_1
 10
620.129
 20
578.286
 40
3.00000
  1
FABRICATION MATERIALS
 41
1.02000
  7
HTX1
  0
POLYLINE
  8
GT_1
 66
1
 70
128
  0
VERTEX
  8
GT_1
 10
616.700
 20
572.571
  0
VERTEX
  8
GT_1
 10
830.000
 20
572.571
  0
SEQEND
  0
TEXT
  8
GT_1
 10
620.129
 20
566.857
 40
3.00000
  1
PT
 41
1.02000
  7
HTX1
  0
TEXT
  8
GT_1
 10
620.129
 20
561.429
 40
3.00000
  1
NO
 41
1.02000
  7
HTX1
  0
TEXT
  8
GT_1
 10
628.357
 20
566.857
 40
3.00000
  1
ITEM
 41
1.02000
  7
HTX1
  0
TEXT
  8
GT_1
 10
659.214
 20
566.857
 40
3.00000
  1
MATERIAL
 41
1.02000
  7
HTX1
  0
TEXT
  8
GT_1
 10
692.129
 20
566.857
 40
3.00000
  1
SIZE (DN)
 41
1.02000
  7
HTX1
  0
TEXT
  8
GT_1
 10
714.757
 20
566.857
 40
3.00000
  1
DESCRIPTION
 41
1.02000
  7
HTX1
  0
TEXT
  8
GT_1
 10
760.014
 20
566.857
 40
3.00000
  1
QTY
 41
1.02000
  7
HTX1
  0
TEXT
  8
GT_1
 10
760.014
 20
561.429
 40
3.00000
  1
[MM,EA]
 41
1.02000
  7
HTX1
  0
TEXT
  8
GT_1
 10
778.529
 20
566.857
 40
3.00000
  1
UNIT
 41
1.02000
  7
HTX1
  0
TEXT
  8
GT_1
 10
778.529
 20
561.429
 40
3.00000
  1
W.T
 41
1.02000
  7
HTX1
  0
TEXT
  8
GT_1
 10
794.986
 20
566.857
 40
3.00000
  1
TOTAL
 41
1.02000
  7
HTX1
  0
TEXT
  8
GT_1
 10
794.986
 20
561.429
 40
3.00000
  1
W.T
 41
1.02000
  7
HTX1
  0
TEXT
  8
GT_1
 10
813.500
 20
566.857
 40
3.00000
  1
 REMARK
 41
1.02000
  7
HTX1
  0
POLYLINE
  8
GT_1
 66
1
 70
128
  0
VERTEX
  8
GT_1
 10
616.700
 20
558.117
  0
VERTEX
  8
GT_1
 10
830.000
 20
558.117
  0
SEQEND
  0
TEXT
  8
GT_1
 10
620.129
 20
549.714
 40
3.00000
  1
  1
 41
1.02000
  7
HTX1
  0
TEXT
  8
GT_1
 10
628.357
 20
549.714
 40
3.00000
  1
PIPE
 41
1.02000
  7
HTX1
  0
TEXT
  8
GT_1
 10
659.214
 20
549.714
 40
3.00000
  1
SA106-C
 41
1.02000
  7
HTX1
  0
TEXT
  8
GT_1
 10
692.129
 20
549.714
 40
3.00000
  1
250
 41
1.02000
  7
HTX1
  0
TEXT
  8
GT_1
 10
714.757
 20
549.714
 40
3.00000
  1
SMLS BE SCH160
 41
1.02000
  7
HTX1
  0
TEXT
  8
GT_1
 10
760.014
 20
549.714
 40
3.00000
  1
1957
 41
1.02000
  7
HTX1
  0
TEXT
  8
GT_1
 10
778.529
 20
549.714
 40
3.00000
  1
172.33
 41
1.02000
  7
HTX1
  0
TEXT
  8
GT_1
 10
794.986
 20
549.714
 40
3.00000
  1
 337.25
 41
1.02000
  7
HTX1
  0
TEXT
  8
GT_1
 10
620.129
 20
544.000
 40
3.00000
  1
  2
 41
1.02000
  7
HTX1
  0
TEXT
  8
GT_1
 10
628.357
 20
544.000
 40
3.00000
  1
TEE
 41
1.02000
  7
HTX1
  0
TEXT
  8
GT_1
 10
659.214
 20
544.000
 40
3.00000
  1
SA234-WPC
 41
1.02000
  7
HTX1
  0
TEXT
  8
GT_1
 10
692.129
 20
544.000
 40
3.00000
  1
250 x 250
 41
1.02000
  7
HTX1
  0
TEXT
  8
GT_1
 10
714.757
 20
544.000
 40
3.00000
  1
SMLS BW SCH160
 41
1.02000
  7
HTX1
  0
TEXT
  8
GT_1
 10
760.014
 20
544.000
 40
3.00000
  1
1
 41
1.02000
  7
HTX1
  0
TEXT
  8
GT_1
 10
778.529
 20
544.000
 40
3.00000
  1
96.7
 41
1.02000
  7
HTX1
  0
TEXT
  8
GT_1
 10
794.986
 20
544.000
 40
3.00000
  1
  96.70
 41
1.02000
  7
HTX1
  0
TEXT
  8
GT_1
 10
620.129
 20
538.286
 40
3.00000
  1
  3
 41
1.02000
  7
HTX1
  0
TEXT
  8
GT_1
 10
628.357
 20
538.286
 40
3.00000
  1
COUPLING(HALF)
 41
1.02000
  7
HTX1
  0
TEXT
  8
GT_1
 10
659.214
 20
538.286
 40
3.00000
  1
SA105
 41
1.02000
  7
HTX1
  0
TEXT
  8
GT_1
 10
692.129
 20
538.286
 40
3.00000
  1
250 x 20
 41
1.02000
  7
HTX1
  0
TEXT
  8
GT_1
 10
714.757
 20
538.286
 40
3.00000
  1
SW #3000
 41
1.02000
  7
HTX1
  0
TEXT
  8
GT_1
 10
760.014
 20
538.286
 40
3.00000
  1
4
 41
1.02000
  7
HTX1
  0
TEXT
  8
GT_1
 10
778.529
 20
538.286
 40
3.00000
  1
0.2
 41
1.02000
  7
HTX1
  0
TEXT
  8
GT_1
 10
794.986
 20
538.286
 40
3.00000
  1
   0.80
 41
1.02000
  7
HTX1
  0
TEXT
  8
GT_1
 10
620.129
 20
532.571
 40
3.00000
  1
  4
 41
1.02000
  7
HTX1
  0
TEXT
  8
GT_1
 10
628.357
 20
532.571
 40
3.00000
  1
COUPLING(HALF)
 41
1.02000
  7
HTX1
  0
TEXT
  8
GT_1
 10
659.214
 20
532.571
 40
3.00000
  1
SA105
 41
1.02000
  7
HTX1
  0
TEXT
  8
GT_1
 10
692.129
 20
532.571
 40
3.00000
  1
250 x 25
 41
1.02000
  7
HTX1
  0
TEXT
  8
GT_1
 10
714.757
 20
532.571
 40
3.00000
  1
SW #3000
 41
1.02000
  7
HTX1
  0
TEXT
  8
GT_1
 10
760.014
 20
532.571
 40
3.00000
  1
4
 41
1.02000
  7
HTX1
  0
TEXT
  8
GT_1
 10
778.529
 20
532.571
 40
3.00000
  1
0.31
 41
1.02000
  7
HTX1
  0
TEXT
  8
GT_1
 10
794.986
 20
532.571
 40
3.00000
  1
   1.24
 41
1.02000
  7
HTX1
  0
POLYLINE
  8
GT_1
 66
1
 70
128
  0
VERTEX
  8
GT_1
 10
616.700
 20
529.545
  0
VERTEX
  8
GT_1
 10
830.000
 20
529.545
  0
SEQEND
  0
POLYLINE
  8
GT_1
 66
1
 70
128
  0
VERTEX
  8
GT_1
 10
627.329
 20
572.571
  0
VERTEX
  8
GT_1
 10
627.329
 20
529.545
  0
SEQEND
  0
POLYLINE
  8
GT_1
 66
1
 70
128
  0
VERTEX
  8
GT_1
 10
658.186
 20
572.571
  0
VERTEX
  8
GT_1
 10
658.186
 20
529.545
  0
SEQEND
  0
POLYLINE
  8
GT_1
 66
1
 70
128
  0
VERTEX
  8
GT_1
 10
691.100
 20
572.571
  0
VERTEX
  8
GT_1
 10
691.100
 20
529.545
  0
SEQEND
  0
POLYLINE
  8
GT_1
 66
1
 70
128
  0
VERTEX
  8
GT_1
 10
713.729
 20
572.571
  0
VERTEX
  8
GT_1
 10
713.729
 20
529.545
  0
SEQEND
  0
POLYLINE
  8
GT_1
 66
1
 70
128
  0
VERTEX
  8
GT_1
 10
758.986
 20
572.571
  0
VERTEX
  8
GT_1
 10
758.986
 20
529.545
  0
SEQEND
  0
POLYLINE
  8
GT_1
 66
1
 70
128
  0
VERTEX
  8
GT_1
 10
777.500
 20
572.571
  0
VERTEX
  8
GT_1
 10
777.500
 20
529.545
  0
SEQEND
  0
POLYLINE
  8
GT_1
 66
1
 70
128
  0
VERTEX
  8
GT_1
 10
793.957
 20
572.571
  0
VERTEX
  8
GT_1
 10
793.957
 20
529.545
  0
SEQEND
  0
POLYLINE
  8
GT_1
 66
1
 70
128
  0
VERTEX
  8
GT_1
 10
812.471
 20
572.571
  0
VERTEX
  8
GT_1
 10
812.471
 20
529.545
  0
SEQEND
  0
TEXT
  8
GT_1
 10
743.557
 20
521.143
 40
3.00000
  1
TOTAL FABRICATION WEIGHT
 41
1.02000
  7
HTX1
  0
TEXT
  8
GT_1
 10
794.986
 20
521.143
 40
3.00000
  1
 435.99
 41
1.02000
  7
HTX1
  0
TEXT
  8
GT_1
 10
620.129
 20
509.714
 40
3.00000
  1
ERECTION MATERIALS
 41
1.02000
  7
HTX1
  0
POLYLINE
  8
GT_1
 66
1
 70
128
  0
VERTEX
  8
GT_1
 10
616.700
 20
504.000
  0
VERTEX
  8
GT_1
 10
830.000
 20
504.000
  0
SEQEND
  0
TEXT
  8
GT_1
 10
620.129
 20
498.286
 40
3.00000
  1
PT
 41
1.02000
  7
HTX1
  0
TEXT
  8
GT_1
 10
620.129
 20
492.857
 40
3.00000
  1
NO
 41
1.02000
  7
HTX1
  0
TEXT
  8
GT_1
 10
628.357
 20
498.286
 40
3.00000
  1
ITEM
 41
1.02000
  7
HTX1
  0
TEXT
  8
GT_1
 10
659.214
 20
498.286
 40
3.00000
  1
MATERIAL
 41
1.02000
  7
HTX1
  0
TEXT
  8
GT_1
 10
692.129
 20
498.286
 40
3.00000
  1
SIZE (DN)
 41
1.02000
  7
HTX1
  0
TEXT
  8
GT_1
 10
714.757
 20
498.286
 40
3.00000
  1
DESCRIPTION
 41
1.02000
  7
HTX1
  0
TEXT
  8
GT_1
 10
760.014
 20
498.286
 40
3.00000
  1
QTY
 41
1.02000
  7
HTX1
  0
TEXT
  8
GT_1
 10
760.014
 20
492.857
 40
3.00000
  1
[MM,EA]
 41
1.02000
  7
HTX1
  0
TEXT
  8
GT_1
 10
778.529
 20
498.286
 40
3.00000
  1
UNIT
 41
1.02000
  7
HTX1
  0
TEXT
  8
GT_1
 10
778.529
 20
492.857
 40
3.00000
  1
W.T
 41
1.02000
  7
HTX1
  0
TEXT
  8
GT_1
 10
794.986
 20
498.286
 40
3.00000
  1
TOTAL
 41
1.02000
  7
HTX1
  0
TEXT
  8
GT_1
 10
794.986
 20
492.857
 40
3.00000
  1
W.T
 41
1.02000
  7
HTX1
  0
TEXT
  8
GT_1
 10
813.500
 20
498.286
 40
3.00000
  1
 REMARK
 41
1.02000
  7
HTX1
  0
POLYLINE
  8
GT_1
 66
1
 70
128
  0
VERTEX
  8
GT_1
 10
616.700
 20
489.545
  0
VERTEX
  8
GT_1
 10
830.000
 20
489.545
  0
SEQEND
  0
TEXT
  8
GT_1
 10
620.129
 20
481.143
 40
3.00000
  1
  5
 41
1.02000
  7
HTX1
  0
TEXT
  8
GT_1
 10
628.357
 20
481.143
 40
3.00000
  1
THERMOWELL
 41
1.02000
  7
HTX1
  0
TEXT
  8
GT_1
 10
628.357
 20
475.714
 40
3.00000
  1
GAUGE
 41
1.02000
  7
HTX1
  0
TEXT
  8
GT_1
 10
659.214
 20
481.143
 40
3.00000
  1
unset
 41
1.02000
  7
HTX1
  0
TEXT
  8
GT_1
 10
692.129
 20
481.143
 40
3.00000
  1
25
 41
1.02000
  7
HTX1
  0
TEXT
  8
GT_1
 10
714.757
 20
481.143
 40
3.00000
  1
OD 33.2 2 FW TI-611
 41
1.02000
  7
HTX1
  0
TEXT
  8
GT_1
 10
760.014
 20
481.143
 40
3.00000
  1
1
 41
1.02000
  7
HTX1
  0
TEXT
  8
GT_1
 10
778.529
 20
481.143
 40
3.00000
  1
-
 41
1.02000
  7
HTX1
  0
TEXT
  8
GT_1
 10
620.129
 20
469.714
 40
3.00000
  1
  6
 41
1.02000
  7
HTX1
  0
TEXT
  8
GT_1
 10
628.357
 20
469.714
 40
3.00000
  1
THERMOWELL
 41
1.02000
  7
HTX1
  0
TEXT
  8
GT_1
 10
659.214
 20
469.714
 40
3.00000
  1
unset
 41
1.02000
  7
HTX1
  0
TEXT
  8
GT_1
 10
692.129
 20
469.714
 40
3.00000
  1
25
 41
1.02000
  7
HTX1
  0
TEXT
  8
GT_1
 10
714.757
 20
469.714
 40
3.00000
  1
OD 33.2 2 FW TT-611
 41
1.02000
  7
HTX1
  0
TEXT
  8
GT_1
 10
760.014
 20
469.714
 40
3.00000
  1
3
 41
1.02000
  7
HTX1
  0
TEXT
  8
GT_1
 10
778.529
 20
469.714
 40
3.00000
  1
-
 41
1.02000
  7
HTX1
  0
TEXT
  8
GT_1
 10
620.129
 20
464.000
 40
3.00000
  1
  7
 41
1.02000
  7
HTX1
  0
TEXT
  8
GT_1
 10
628.357
 20
464.000
 40
3.00000
  1
PIPE SUPPORT -
 41
1.02000
  7
HTX1
  0
TEXT
  8
GT_1
 10
628.357
 20
458.571
 40
3.00000
  1
GUIDE
 41
1.02000
  7
HTX1
  0
TEXT
  8
GT_1
 10
659.214
 20
464.000
 40
3.00000
  1
unset
 41
1.02000
  7
HTX1
  0
TEXT
  8
GT_1
 10
692.129
 20
464.000
 40
3.00000
  1
250
 41
1.02000
  7
HTX1
  0
TEXT
  8
GT_1
 10
760.014
 20
464.000
 40
3.00000
  1
1
 41
1.02000
  7
HTX1
  0
TEXT
  8
GT_1
 10
778.529
 20
464.000
 40
3.00000
  1
-
 41
1.02000
  7
HTX1
  0
TEXT
  8
GT_1
 10
794.986
 20
464.000
 40
3.00000
  1
   0.00
 41
1.02000
  7
HTX1
  0
POLYLINE
  8
GT_1
 66
1
 70
128
  0
VERTEX
  8
GT_1
 10
616.700
 20
455.259
  0
VERTEX
  8
GT_1
 10
830.000
 20
455.259
  0
SEQEND
  0
POLYLINE
  8
GT_1
 66
1
 70
128
  0
VERTEX
  8
GT_1
 10
627.329
 20
504.000
  0
VERTEX
  8
GT_1
 10
627.329
 20
455.259
  0
SEQEND
  0
POLYLINE
  8
GT_1
 66
1
 70
128
  0
VERTEX
  8
GT_1
 10
658.186
 20
504.000
  0
VERTEX
  8
GT_1
 10
658.186
 20
455.259
  0
SEQEND
  0
POLYLINE
  8
GT_1
 66
1
 70
128
  0
VERTEX
  8
GT_1
 10
691.100
 20
504.000
  0
VERTEX
  8
GT_1
 10
691.100
 20
455.259
  0
SEQEND
  0
POLYLINE
  8
GT_1
 66
1
 70
128
  0
VERTEX
  8
GT_1
 10
713.729
 20
504.000
  0
VERTEX
  8
GT_1
 10
713.729
 20
455.259
  0
SEQEND
  0
POLYLINE
  8
GT_1
 66
1
 70
128
  0
VERTEX
  8
GT_1
 10
758.986
 20
504.000
  0
VERTEX
  8
GT_1
 10
758.986
 20
455.259
  0
SEQEND
  0
POLYLINE
  8
GT_1
 66
1
 70
128
  0
VERTEX
  8
GT_1
 10
777.500
 20
504.000
  0
VERTEX
  8
GT_1
 10
777.500
 20
455.259
  0
SEQEND
  0
POLYLINE
  8
GT_1
 66
1
 70
128
  0
VERTEX
  8
GT_1
 10
793.957
 20
504.000
  0
VERTEX
  8
GT_1
 10
793.957
 20
455.259
  0
SEQEND
  0
POLYLINE
  8
GT_1
 66
1
 70
128
  0
VERTEX
  8
GT_1
 10
812.471
 20
504.000
  0
VERTEX
  8
GT_1
 10
812.471
 20
455.259
  0
SEQEND
  0
TEXT
  8
GT_1
 10
749.729
 20
446.857
 40
3.00000
  1
TOTAL ERECTION WEIGHT
 41
1.02000
  7
HTX1
  0
TEXT
  8
GT_1
 10
794.986
 20
446.857
 40
3.00000
  1
   0.00
 41
1.02000
  7
HTX1
  0
TEXT
  8
GT_1
 10
768.243
 20
435.429
 40
3.00000
  1
TOTAL WEIGHT
 41
1.02000
  7
HTX1
  0
TEXT
  8
GT_1
 10
794.986
 20
435.429
 40
3.00000
  1
 435.99
 41
1.02000
  7
HTX1
  0
TEXT
  8
GT_1
 10
622.186
 20
424.000
 40
3.00000
  1
PIPE SPOOLS
 41
1.02000
  7
HTX1
  0
POLYLINE
  8
GT_1
 66
1
 70
128
  0
VERTEX
  8
GT_1
 10
644.626
 20
421.971
  0
VERTEX
  8
GT_1
 10
622.186
 20
421.971
  0
SEQEND
  0
TEXT
  8
GT_1
 10
622.186
 20
412.571
 40
3.00000
  1
110022-13610-032-SOO1
 41
1.02000
  7
HTX1
  0
POLYLINE
  8
GT_1
 66
1
 70
128
  0
VERTEX
  8
GT_1
 10
616.700
 20
403.831
  0
VERTEX
  8
GT_1
 10
830.000
 20
403.831
  0
SEQEND
  0
TEXT
  8
GT_1
 10
718.871
 20
389.714
 40
3.00000
  1
CUT PIPE LENGTH
 41
1.02000
  7
HTX1
  0
POLYLINE
  8
GT_1
 66
1
 70
128
  0
VERTEX
  8
GT_1
 10
715.786
 20
393.743
  0
VERTEX
  8
GT_1
 10
752.557
 20
393.743
  0
VERTEX
  8
GT_1
 10
752.557
 20
387.686
  0
VERTEX
  8
GT_1
 10
715.786
 20
387.686
  0
VERTEX
  8
GT_1
 10
715.786
 20
393.743
  0
SEQEND
  0
TEXT
  8
GT_1
 10
620.129
 20
378.286
 40
3.00000
  1
PIECE
 41
1.02000
  7
HTX1
  0
TEXT
  8
GT_1
 10
620.129
 20
372.857
 40
3.00000
  1
NO
 41
1.02000
  7
HTX1
  0
TEXT
  8
GT_1
 10
632.471
 20
378.286
 40
3.00000
  1
     CUT
 41
1.02000
  7
HTX1
  0
TEXT
  8
GT_1
 10
632.471
 20
372.857
 40
3.00000
  1
   LENGTH
 41
1.02000
  7
HTX1
  0
TEXT
  8
GT_1
 10
655.100
 20
378.286
 40
3.00000
  1
SIZE
 41
1.02000
  7
HTX1
  0
TEXT
  8
GT_1
 10
655.100
 20
372.857
 40
3.00000
  1
(DN)
 41
1.02000
  7
HTX1
  0
TEXT
  8
GT_1
 10
704.471
 20
378.286
 40
3.00000
  1
PIECE
 41
1.02000
  7
HTX1
  0
TEXT
  8
GT_1
 10
704.471
 20
372.857
 40
3.00000
  1
NO
 41
1.02000
  7
HTX1
  0
TEXT
  8
GT_1
 10
716.814
 20
378.286
 40
3.00000
  1
     CUT
 41
1.02000
  7
HTX1
  0
TEXT
  8
GT_1
 10
716.814
 20
372.857
 40
3.00000
  1
   LENGTH
 41
1.02000
  7
HTX1
  0
TEXT
  8
GT_1
 10
739.443
 20
378.286
 40
3.00000
  1
SIZE
 41
1.02000
  7
HTX1
  0
TEXT
  8
GT_1
 10
739.443
 20
372.857
 40
3.00000
  1
(DN)
 41
1.02000
  7
HTX1
  0
TEXT
  8
GT_1
 10
655.100
 20
366.857
 40
3.00000
  1

 41
1.02000
  7
HTX1
  0
TEXT
  8
GT_1
 10
739.443
 20
366.857
 40
3.00000
  1

 41
1.02000
  7
HTX1
  0
TEXT
  8
GT_1
 10
620.129
 20
361.143
 40
3.00000
  1
  <1>
 41
1.02000
  7
HTX1
  0
TEXT
  8
GT_1
 10
632.471
 20
361.143
 40
3.00000
  1
     1957
 41
1.02000
  7
HTX1
  0
TEXT
  8
GT_1
 10
655.100
 20
361.143
 40
3.00000
  1
   250
 41
1.02000
  7
HTX1
  0
POLYLINE
  8
GT_1
 66
1
 70
128
  0
VERTEX
  8
GT_1
 10
6.00000
 20
0.00000
  0
VERTEX
  8
GT_1
 10
0.00000
 20
0.00000
  0
VERTEX
  8
GT_1
 10
0.00000
 20
6.00000
  0
SEQEND
  0
POLYLINE
  8
GT_1
 66
1
 70
128
  0
VERTEX
  8
GT_1
 10
0.00000
 20
588.000
  0
VERTEX
  8
GT_1
 10
0.00000
 20
594.000
  0
VERTEX
  8
GT_1
 10
6.00000
 20
594.000
  0
SEQEND
  0
POLYLINE
  8
GT_1
 66
1
 70
128
  0
VERTEX
  8
GT_1
 10
835.000
 20
594.000
  0
VERTEX
  8
GT_1
 10
841.000
 20
594.000
  0
VERTEX
  8
GT_1
 10
841.000
 20
588.000
  0
SEQEND
  0
POLYLINE
  8
GT_1
 66
1
 70
128
  0
VERTEX
  8
GT_1
 10
841.000
 20
6.00000
  0
VERTEX
  8
GT_1
 10
841.000
 20
0.00000
  0
VERTEX
  8
GT_1
 10
835.000
 20
0.00000
  0
SEQEND
  0
POLYLINE
  8
GT_1
 66
1
 70
128
  0
VERTEX
  8
GT_1
 10
32.0000
 20
12.0000
  0
VERTEX
  8
GT_1
 10
830.000
 20
12.0000
  0
VERTEX
  8
GT_1
 10
830.000
 20
12.0000
  0
VERTEX
  8
GT_1
 10
616.700
 20
12.0000
  0
VERTEX
  8
GT_1
 10
616.700
 20
584.000
  0
VERTEX
  8
GT_1
 10
32.0000
 20
584.000
  0
VERTEX
  8
GT_1
 10
32.0000
 20
12.0000
  0
SEQEND
  0
TEXT
  8
GT_1
 10
34.0000
 20
63.0000
 40
3.00000
  1
110022-13610-032-CB5H-250
 41
1.02000
  7
HTX1
  0
TEXT
  8
GT_1
 10
817.000
 20
27.3000
 40
3.00000
  1
1
 41
1.02000
  7
HTX1
  0
TEXT
  8
GT_1
 10
822.300
 20
27.3000
 40
3.00000
  1
1
 41
1.02000
  7
HTX1
  0
TEXT
  8
GT_1
 10
94.0000
 20
63.0000
 40
3.00000
  1
194
 41
1.02000
  7
HTX1
  0
TEXT
  8
GT_1
 10
118.000
 20
63.0000
 40
3.00000
  1
159.8
 41
1.02000
  7
HTX1
  0
TEXT
  8
GT_1
 10
143.000
 20
63.0000
 40
3.00000
  1
216
 41
1.02000
  7
HTX1
  0
TEXT
  8
GT_1
 10
166.000
 20
63.0000
 40
3.00000
  1
205
 41
1.02000
  7
HTX1
  0
TEXT
  8
GT_1
 10
189.000
 20
63.0000
 40
3.00000
  1
25
 41
1.02000
  7
HTX1
  0
TEXT
  8
GT_1
 10
204.000
 20
63.0000
 40
3.00000
  1
HC
 41
1.02000
  7
HTX1
  0
TEXT
  8
GT_1
 10
301.000
 20
63.0000
 40
3.00000
  1
BEP
 41
1.02000
  7
HTX1
  0
TEXT
  8
GT_1
 10
320.000
 20
63.0000
 40
3.00000
  1
CB5H
 41
1.02000
  7
HTX1
  0
TEXT
  8
GT_1
 10
337.000
 20
63.0000
 40
3.00000
  1
WATER
 41
1.02000
  7
HTX1
  0
TEXT
  8
GT_1
 10
356.000
 20
63.0000
 40
3.00000
  1
9-13610-ZM-105-011
 41
1.02000
  7
HTX1
  0
TEXT
  8
GT_1
 10
720.000
 20
36.0000
 40
3.00000
  1
HP FEEDWATER LINE
 41
1.02000
  7
HTX1
  0
TEXT
  8
GT_1
 10
742.000
 20
20.0000
 40
3.00000
  1
2-13110-ZP-186-068
 41
1.02000
  7
HTX1
  0
TEXT
  8
GT_1
 10
279.000
 20
63.0000
 40
3.00000
  1
2389
 41
1.02000
  7
HTX1
  0
TEXT
  8
GT_1
 10
819.500
 20
27.3000
 40
3.00000
  1
/
 41
1.02000
  7
HTX1
  0
POLYLINE
  8
GT_1
 66
1
 70
128
  0
VERTEX
  8
GT_1
 10
616.700
 20
12.0000
  0
VERTEX
  8
GT_1
 10
521.700
 20
12.0000
  0
SEQEND
  0
TEXT
  8
GT_1
 10
521.800
 20
13.1000
 40
3.50000
  1
  15
 41
1.02000
  7
HTX1
  0
POLYLINE
  8
GT_1
 66
1
 70
128
  0
VERTEX
  8
GT_1
 10
533.300
 20
17.0000
  0
VERTEX
  8
GT_1
 10
533.300
 20
12.0000
  0
SEQEND
  0
TEXT
  8
GT_1
 10
533.700
 20
13.1000
 40
3.50000
  1
   F
 41
1.02000
  7
HTX1
  0
POLYLINE
  8
GT_1
 66
1
 70
128
  0
VERTEX
  8
GT_1
 10
550.800
 20
17.0000
  0
VERTEX
  8
GT_1
 10
550.800
 20
12.0000
  0
SEQEND
  0
TEXT
  8
GT_1
 10
551.200
 20
13.1000
 40
3.50000
  1

 41
1.02000
  7
HTX1
  0
POLYLINE
  8
GT_1
 66
1
 70
128
  0
VERTEX
  8
GT_1
 10
568.300
 20
17.0000
  0
VERTEX
  8
GT_1
 10
568.300
 20
12.0000
  0
SEQEND
  0
TEXT
  8
GT_1
 10
568.700
 20
13.1000
 40
3.50000
  1

 41
1.02000
  7
HTX1
  0
POLYLINE
  8
GT_1
 66
1
 70
128
  0
VERTEX
  8
GT_1
 10
616.700
 20
17.0000
  0
VERTEX
  8
GT_1
 10
521.700
 20
17.0000
  0
SEQEND
  0
TEXT
  8
GT_1
 10
521.800
 20
18.1000
 40
3.50000
  1
  14
 41
1.02000
  7
HTX1
  0
POLYLINE
  8
GT_1
 66
1
 70
128
  0
VERTEX
  8
GT_1
 10
533.300
 20
22.0000
  0
VERTEX
  8
GT_1
 10
533.300
 20
17.0000
  0
SEQEND
  0
TEXT
  8
GT_1
 10
533.700
 20
18.1000
 40
3.50000
  1
   F
 41
1.02000
  7
HTX1
  0
POLYLINE
  8
GT_1
 66
1
 70
128
  0
VERTEX
  8
GT_1
 10
550.800
 20
22.0000
  0
VERTEX
  8
GT_1
 10
550.800
 20
17.0000
  0
SEQEND
  0
TEXT
  8
GT_1
 10
551.200
 20
18.1000
 40
3.50000
  1

 41
1.02000
  7
HTX1
  0
POLYLINE
  8
GT_1
 66
1
 70
128
  0
VERTEX
  8
GT_1
 10
568.300
 20
22.0000
  0
VERTEX
  8
GT_1
 10
568.300
 20
17.0000
  0
SEQEND
  0
TEXT
  8
GT_1
 10
568.700
 20
18.1000
 40
3.50000
  1

 41
1.02000
  7
HTX1
  0
POLYLINE
  8
GT_1
 66
1
 70
128
  0
VERTEX
  8
GT_1
 10
616.700
 20
22.0000
  0
VERTEX
  8
GT_1
 10
521.700
 20
22.0000
  0
SEQEND
  0
TEXT
  8
GT_1
 10
521.800
 20
23.1000
 40
3.50000
  1
  13
 41
1.02000
  7
HTX1
  0
POLYLINE
  8
GT_1
 66
1
 70
128
  0
VERTEX
  8
GT_1
 10
533.300
 20
27.0000
  0
VERTEX
  8
GT_1
 10
533.300
 20
22.0000
  0
SEQEND
  0
TEXT
  8
GT_1
 10
533.700
 20
23.1000
 40
3.50000
  1
   S
 41
1.02000
  7
HTX1
  0
POLYLINE
  8
GT_1
 66
1
 70
128
  0
VERTEX
  8
GT_1
 10
550.800
 20
27.0000
  0
VERTEX
  8
GT_1
 10
550.800
 20
22.0000
  0
SEQEND
  0
TEXT
  8
GT_1
 10
551.200
 20
23.1000
 40
3.50000
  1

 41
1.02000
  7
HTX1
  0
POLYLINE
  8
GT_1
 66
1
 70
128
  0
VERTEX
  8
GT_1
 10
568.300
 20
27.0000
  0
VERTEX
  8
GT_1
 10
568.300
 20
22.0000
  0
SEQEND
  0
TEXT
  8
GT_1
 10
568.700
 20
23.1000
 40
3.50000
  1

 41
1.02000
  7
HTX1
  0
POLYLINE
  8
GT_1
 66
1
 70
128
  0
VERTEX
  8
GT_1
 10
616.700
 20
27.0000
  0
VERTEX
  8
GT_1
 10
521.700
 20
27.0000
  0
SEQEND
  0
TEXT
  8
GT_1
 10
521.800
 20
28.1000
 40
3.50000
  1
  12
 41
1.02000
  7
HTX1
  0
POLYLINE
  8
GT_1
 66
1
 70
128
  0
VERTEX
  8
GT_1
 10
533.300
 20
32.0000
  0
VERTEX
  8
GT_1
 10
533.300
 20
27.0000
  0
SEQEND
  0
TEXT
  8
GT_1
 10
533.700
 20
28.1000
 40
3.50000
  1
   F
 41
1.02000
  7
HTX1
  0
POLYLINE
  8
GT_1
 66
1
 70
128
  0
VERTEX
  8
GT_1
 10
550.800
 20
32.0000
  0
VERTEX
  8
GT_1
 10
550.800
 20
27.0000
  0
SEQEND
  0
TEXT
  8
GT_1
 10
551.200
 20
28.1000
 40
3.50000
  1

 41
1.02000
  7
HTX1
  0
POLYLINE
  8
GT_1
 66
1
 70
128
  0
VERTEX
  8
GT_1
 10
568.300
 20
32.0000
  0
VERTEX
  8
GT_1
 10
568.300
 20
27.0000
  0
SEQEND
  0
TEXT
  8
GT_1
 10
568.700
 20
28.1000
 40
3.50000
  1

 41
1.02000
  7
HTX1
  0
POLYLINE
  8
GT_1
 66
1
 70
128
  0
VERTEX
  8
GT_1
 10
616.700
 20
32.0000
  0
VERTEX
  8
GT_1
 10
521.700
 20
32.0000
  0
SEQEND
  0
TEXT
  8
GT_1
 10
521.800
 20
33.1000
 40
3.50000
  1
  11
 41
1.02000
  7
HTX1
  0
POLYLINE
  8
GT_1
 66
1
 70
128
  0
VERTEX
  8
GT_1
 10
533.300
 20
37.0000
  0
VERTEX
  8
GT_1
 10
533.300
 20
32.0000
  0
SEQEND
  0
TEXT
  8
GT_1
 10
533.700
 20
33.1000
 40
3.50000
  1
   S
 41
1.02000
  7
HTX1
  0
POLYLINE
  8
GT_1
 66
1
 70
128
  0
VERTEX
  8
GT_1
 10
550.800
 20
37.0000
  0
VERTEX
  8
GT_1
 10
550.800
 20
32.0000
  0
SEQEND
  0
TEXT
  8
GT_1
 10
551.200
 20
33.1000
 40
3.50000
  1

 41
1.02000
  7
HTX1
  0
POLYLINE
  8
GT_1
 66
1
 70
128
  0
VERTEX
  8
GT_1
 10
568.300
 20
37.0000
  0
VERTEX
  8
GT_1
 10
568.300
 20
32.0000
  0
SEQEND
  0
TEXT
  8
GT_1
 10
568.700
 20
33.1000
 40
3.50000
  1

 41
1.02000
  7
HTX1
  0
POLYLINE
  8
GT_1
 66
1
 70
128
  0
VERTEX
  8
GT_1
 10
616.700
 20
37.0000
  0
VERTEX
  8
GT_1
 10
521.700
 20
37.0000
  0
SEQEND
  0
TEXT
  8
GT_1
 10
521.800
 20
38.1000
 40
3.50000
  1
  10
 41
1.02000
  7
HTX1
  0
POLYLINE
  8
GT_1
 66
1
 70
128
  0
VERTEX
  8
GT_1
 10
533.300
 20
42.0000
  0
VERTEX
  8
GT_1
 10
533.300
 20
37.0000
  0
SEQEND
  0
TEXT
  8
GT_1
 10
533.700
 20
38.1000
 40
3.50000
  1
   F
 41
1.02000
  7
HTX1
  0
POLYLINE
  8
GT_1
 66
1
 70
128
  0
VERTEX
  8
GT_1
 10
550.800
 20
42.0000
  0
VERTEX
  8
GT_1
 10
550.800
 20
37.0000
  0
SEQEND
  0
TEXT
  8
GT_1
 10
551.200
 20
38.1000
 40
3.50000
  1

 41
1.02000
  7
HTX1
  0
POLYLINE
  8
GT_1
 66
1
 70
128
  0
VERTEX
  8
GT_1
 10
568.300
 20
42.0000
  0
VERTEX
  8
GT_1
 10
568.300
 20
37.0000
  0
SEQEND
  0
TEXT
  8
GT_1
 10
568.700
 20
38.1000
 40
3.50000
  1

 41
1.02000
  7
HTX1
  0
POLYLINE
  8
GT_1
 66
1
 70
128
  0
VERTEX
  8
GT_1
 10
616.700
 20
42.0000
  0
VERTEX
  8
GT_1
 10
521.700
 20
42.0000
  0
SEQEND
  0
TEXT
  8
GT_1
 10
521.800
 20
43.1000
 40
3.50000
  1
   9
 41
1.02000
  7
HTX1
  0
POLYLINE
  8
GT_1
 66
1
 70
128
  0
VERTEX
  8
GT_1
 10
533.300
 20
47.0000
  0
VERTEX
  8
GT_1
 10
533.300
 20
42.0000
  0
SEQEND
  0
TEXT
  8
GT_1
 10
533.700
 20
43.1000
 40
3.50000
  1
   S
 41
1.02000
  7
HTX1
  0
POLYLINE
  8
GT_1
 66
1
 70
128
  0
VERTEX
  8
GT_1
 10
550.800
 20
47.0000
  0
VERTEX
  8
GT_1
 10
550.800
 20
42.0000
  0
SEQEND
  0
TEXT
  8
GT_1
 10
551.200
 20
43.1000
 40
3.50000
  1

 41
1.02000
  7
HTX1
  0
POLYLINE
  8
GT_1
 66
1
 70
128
  0
VERTEX
  8
GT_1
 10
568.300
 20
47.0000
  0
VERTEX
  8
GT_1
 10
568.300
 20
42.0000
  0
SEQEND
  0
TEXT
  8
GT_1
 10
568.700
 20
43.1000
 40
3.50000
  1

 41
1.02000
  7
HTX1
  0
POLYLINE
  8
GT_1
 66
1
 70
128
  0
VERTEX
  8
GT_1
 10
616.700
 20
47.0000
  0
VERTEX
  8
GT_1
 10
521.700
 20
47.0000
  0
SEQEND
  0
TEXT
  8
GT_1
 10
521.800
 20
48.1000
 40
3.50000
  1
   8
 41
1.02000
  7
HTX1
  0
POLYLINE
  8
GT_1
 66
1
 70
128
  0
VERTEX
  8
GT_1
 10
533.300
 20
52.0000
  0
VERTEX
  8
GT_1
 10
533.300
 20
47.0000
  0
SEQEND
  0
TEXT
  8
GT_1
 10
533.700
 20
48.1000
 40
3.50000
  1
   F
 41
1.02000
  7
HTX1
  0
POLYLINE
  8
GT_1
 66
1
 70
128
  0
VERTEX
  8
GT_1
 10
550.800
 20
52.0000
  0
VERTEX
  8
GT_1
 10
550.800
 20
47.0000
  0
SEQEND
  0
TEXT
  8
GT_1
 10
551.200
 20
48.1000
 40
3.50000
  1

 41
1.02000
  7
HTX1
  0
POLYLINE
  8
GT_1
 66
1
 70
128
  0
VERTEX
  8
GT_1
 10
568.300
 20
52.0000
  0
VERTEX
  8
GT_1
 10
568.300
 20
47.0000
  0
SEQEND
  0
TEXT
  8
GT_1
 10
568.700
 20
48.1000
 40
3.50000
  1

 41
1.02000
  7
HTX1
  0
POLYLINE
  8
GT_1
 66
1
 70
128
  0
VERTEX
  8
GT_1
 10
616.700
 20
52.0000
  0
VERTEX
  8
GT_1
 10
521.700
 20
52.0000
  0
SEQEND
  0
TEXT
  8
GT_1
 10
521.800
 20
53.1000
 40
3.50000
  1
   7
 41
1.02000
  7
HTX1
  0
POLYLINE
  8
GT_1
 66
1
 70
128
  0
VERTEX
  8
GT_1
 10
533.300
 20
57.0000
  0
VERTEX
  8
GT_1
 10
533.300
 20
52.0000
  0
SEQEND
  0
TEXT
  8
GT_1
 10
533.700
 20
53.1000
 40
3.50000
  1
   S
 41
1.02000
  7
HTX1
  0
POLYLINE
  8
GT_1
 66
1
 70
128
  0
VERTEX
  8
GT_1
 10
550.800
 20
57.0000
  0
VERTEX
  8
GT_1
 10
550.800
 20
52.0000
  0
SEQEND
  0
TEXT
  8
GT_1
 10
551.200
 20
53.1000
 40
3.50000
  1

 41
1.02000
  7
HTX1
  0
POLYLINE
  8
GT_1
 66
1
 70
128
  0
VERTEX
  8
GT_1
 10
568.300
 20
57.0000
  0
VERTEX
  8
GT_1
 10
568.300
 20
52.0000
  0
SEQEND
  0
TEXT
  8
GT_1
 10
568.700
 20
53.1000
 40
3.50000
  1

 41
1.02000
  7
HTX1
  0
POLYLINE
  8
GT_1
 66
1
 70
128
  0
VERTEX
  8
GT_1
 10
616.700
 20
57.0000
  0
VERTEX
  8
GT_1
 10
521.700
 20
57.0000
  0
SEQEND
  0
TEXT
  8
GT_1
 10
521.800
 20
58.1000
 40
3.50000
  1
   6
 41
1.02000
  7
HTX1
  0
POLYLINE
  8
GT_1
 66
1
 70
128
  0
VERTEX
  8
GT_1
 10
533.300
 20
62.0000
  0
VERTEX
  8
GT_1
 10
533.300
 20
57.0000
  0
SEQEND
  0
TEXT
  8
GT_1
 10
533.700
 20
58.1000
 40
3.50000
  1
   S
 41
1.02000
  7
HTX1
  0
POLYLINE
  8
GT_1
 66
1
 70
128
  0
VERTEX
  8
GT_1
 10
550.800
 20
62.0000
  0
VERTEX
  8
GT_1
 10
550.800
 20
57.0000
  0
SEQEND
  0
TEXT
  8
GT_1
 10
551.200
 20
58.1000
 40
3.50000
  1

 41
1.02000
  7
HTX1
  0
POLYLINE
  8
GT_1
 66
1
 70
128
  0
VERTEX
  8
GT_1
 10
568.300
 20
62.0000
  0
VERTEX
  8
GT_1
 10
568.300
 20
57.0000
  0
SEQEND
  0
TEXT
  8
GT_1
 10
568.700
 20
58.1000
 40
3.50000
  1

 41
1.02000
  7
HTX1
  0
POLYLINE
  8
GT_1
 66
1
 70
128
  0
VERTEX
  8
GT_1
 10
616.700
 20
62.0000
  0
VERTEX
  8
GT_1
 10
521.700
 20
62.0000
  0
SEQEND
  0
TEXT
  8
GT_1
 10
521.800
 20
63.1000
 40
3.50000
  1
   5
 41
1.02000
  7
HTX1
  0
POLYLINE
  8
GT_1
 66
1
 70
128
  0
VERTEX
  8
GT_1
 10
533.300
 20
67.0000
  0
VERTEX
  8
GT_1
 10
533.300
 20
62.0000
  0
SEQEND
  0
TEXT
  8
GT_1
 10
533.700
 20
63.1000
 40
3.50000
  1
   S
 41
1.02000
  7
HTX1
  0
POLYLINE
  8
GT_1
 66
1
 70
128
  0
VERTEX
  8
GT_1
 10
550.800
 20
67.0000
  0
VERTEX
  8
GT_1
 10
550.800
 20
62.0000
  0
SEQEND
  0
TEXT
  8
GT_1
 10
551.200
 20
63.1000
 40
3.50000
  1

 41
1.02000
  7
HTX1
  0
POLYLINE
  8
GT_1
 66
1
 70
128
  0
VERTEX
  8
GT_1
 10
568.300
 20
67.0000
  0
VERTEX
  8
GT_1
 10
568.300
 20
62.0000
  0
SEQEND
  0
TEXT
  8
GT_1
 10
568.700
 20
63.1000
 40
3.50000
  1

 41
1.02000
  7
HTX1
  0
POLYLINE
  8
GT_1
 66
1
 70
128
  0
VERTEX
  8
GT_1
 10
616.700
 20
67.0000
  0
VERTEX
  8
GT_1
 10
521.700
 20
67.0000
  0
SEQEND
  0
TEXT
  8
GT_1
 10
521.800
 20
68.1000
 40
3.50000
  1
   4
 41
1.02000
  7
HTX1
  0
POLYLINE
  8
GT_1
 66
1
 70
128
  0
VERTEX
  8
GT_1
 10
533.300
 20
72.0000
  0
VERTEX
  8
GT_1
 10
533.300
 20
67.0000
  0
SEQEND
  0
TEXT
  8
GT_1
 10
533.700
 20
68.1000
 40
3.50000
  1
   S
 41
1.02000
  7
HTX1
  0
POLYLINE
  8
GT_1
 66
1
 70
128
  0
VERTEX
  8
GT_1
 10
550.800
 20
72.0000
  0
VERTEX
  8
GT_1
 10
550.800
 20
67.0000
  0
SEQEND
  0
TEXT
  8
GT_1
 10
551.200
 20
68.1000
 40
3.50000
  1

 41
1.02000
  7
HTX1
  0
POLYLINE
  8
GT_1
 66
1
 70
128
  0
VERTEX
  8
GT_1
 10
568.300
 20
72.0000
  0
VERTEX
  8
GT_1
 10
568.300
 20
67.0000
  0
SEQEND
  0
TEXT
  8
GT_1
 10
568.700
 20
68.1000
 40
3.50000
  1

 41
1.02000
  7
HTX1
  0
POLYLINE
  8
GT_1
 66
1
 70
128
  0
VERTEX
  8
GT_1
 10
616.700
 20
72.0000
  0
VERTEX
  8
GT_1
 10
521.700
 20
72.0000
  0
SEQEND
  0
TEXT
  8
GT_1
 10
521.800
 20
73.1000
 40
3.50000
  1
   3
 41
1.02000
  7
HTX1
  0
POLYLINE
  8
GT_1
 66
1
 70
128
  0
VERTEX
  8
GT_1
 10
533.300
 20
77.0000
  0
VERTEX
  8
GT_1
 10
533.300
 20
72.0000
  0
SEQEND
  0
TEXT
  8
GT_1
 10
533.700
 20
73.1000
 40
3.50000
  1
   S
 41
1.02000
  7
HTX1
  0
POLYLINE
  8
GT_1
 66
1
 70
128
  0
VERTEX
  8
GT_1
 10
550.800
 20
77.0000
  0
VERTEX
  8
GT_1
 10
550.800
 20
72.0000
  0
SEQEND
  0
TEXT
  8
GT_1
 10
551.200
 20
73.1000
 40
3.50000
  1

 41
1.02000
  7
HTX1
  0
POLYLINE
  8
GT_1
 66
1
 70
128
  0
VERTEX
  8
GT_1
 10
568.300
 20
77.0000
  0
VERTEX
  8
GT_1
 10
568.300
 20
72.0000
  0
SEQEND
  0
TEXT
  8
GT_1
 10
568.700
 20
73.1000
 40
3.50000
  1

 41
1.02000
  7
HTX1
  0
POLYLINE
  8
GT_1
 66
1
 70
128
  0
VERTEX
  8
GT_1
 10
616.700
 20
77.0000
  0
VERTEX
  8
GT_1
 10
521.700
 20
77.0000
  0
SEQEND
  0
TEXT
  8
GT_1
 10
521.800
 20
78.1000
 40
3.50000
  1
   2
 41
1.02000
  7
HTX1
  0
POLYLINE
  8
GT_1
 66
1
 70
128
  0
VERTEX
  8
GT_1
 10
533.300
 20
82.0000
  0
VERTEX
  8
GT_1
 10
533.300
 20
77.0000
  0
SEQEND
  0
TEXT
  8
GT_1
 10
533.700
 20
78.1000
 40
3.50000
  1
   S
 41
1.02000
  7
HTX1
  0
POLYLINE
  8
GT_1
 66
1
 70
128
  0
VERTEX
  8
GT_1
 10
550.800
 20
82.0000
  0
VERTEX
  8
GT_1
 10
550.800
 20
77.0000
  0
SEQEND
  0
TEXT
  8
GT_1
 10
551.200
 20
78.1000
 40
3.50000
  1

 41
1.02000
  7
HTX1
  0
POLYLINE
  8
GT_1
 66
1
 70
128
  0
VERTEX
  8
GT_1
 10
568.300
 20
82.0000
  0
VERTEX
  8
GT_1
 10
568.300
 20
77.0000
  0
SEQEND
  0
TEXT
  8
GT_1
 10
568.700
 20
78.1000
 40
3.50000
  1

 41
1.02000
  7
HTX1
  0
POLYLINE
  8
GT_1
 66
1
 70
128
  0
VERTEX
  8
GT_1
 10
616.700
 20
82.0000
  0
VERTEX
  8
GT_1
 10
521.700
 20
82.0000
  0
SEQEND
  0
TEXT
  8
GT_1
 10
521.800
 20
83.1000
 40
3.50000
  1
   1
 41
1.02000
  7
HTX1
  0
POLYLINE
  8
GT_1
 66
1
 70
128
  0
VERTEX
  8
GT_1
 10
533.300
 20
87.0000
  0
VERTEX
  8
GT_1
 10
533.300
 20
82.0000
  0
SEQEND
  0
TEXT
  8
GT_1
 10
533.700
 20
83.1000
 40
3.50000
  1
   F
 41
1.02000
  7
HTX1
  0
POLYLINE
  8
GT_1
 66
1
 70
128
  0
VERTEX
  8
GT_1
 10
550.800
 20
87.0000
  0
VERTEX
  8
GT_1
 10
550.800
 20
82.0000
  0
SEQEND
  0
TEXT
  8
GT_1
 10
551.200
 20
83.1000
 40
3.50000
  1

 41
1.02000
  7
HTX1
  0
POLYLINE
  8
GT_1
 66
1
 70
128
  0
VERTEX
  8
GT_1
 10
568.300
 20
87.0000
  0
VERTEX
  8
GT_1
 10
568.300
 20
82.0000
  0
SEQEND
  0
TEXT
  8
GT_1
 10
568.700
 20
83.1000
 40
3.50000
  1

 41
1.02000
  7
HTX1
  0
POLYLINE
  8
GT_1
 66
1
 70
128
  0
VERTEX
  8
GT_1
 10
616.700
 20
87.0000
  0
VERTEX
  8
GT_1
 10
521.700
 20
87.0000
  0
SEQEND
  0
TEXT
  8
GT_1
 10
521.800
 20
88.1000
 40
3.50000
  1
 NO
 41
1.02000
  7
HTX1
  0
POLYLINE
  8
GT_1
 66
1
 70
128
  0
VERTEX
  8
GT_1
 10
533.300
 20
92.0000
  0
VERTEX
  8
GT_1
 10
533.300
 20
87.0000
  0
SEQEND
  0
TEXT
  8
GT_1
 10
533.700
 20
88.1000
 40
3.50000
  1
 /FLD
 41
1.02000
  7
HTX1
  0
POLYLINE
  8
GT_1
 66
1
 70
128
  0
VERTEX
  8
GT_1
 10
550.800
 20
92.0000
  0
VERTEX
  8
GT_1
 10
550.800
 20
87.0000
  0
SEQEND
  0
TEXT
  8
GT_1
 10
551.200
 20
88.1000
 40
3.50000
  1
  DN
 41
1.02000
  7
HTX1
  0
POLYLINE
  8
GT_1
 66
1
 70
128
  0
VERTEX
  8
GT_1
 10
568.300
 20
92.0000
  0
VERTEX
  8
GT_1
 10
568.300
 20
87.0000
  0
SEQEND
  0
TEXT
  8
GT_1
 10
568.700
 20
88.1000
 40
3.50000
  1
   TYPE
 41
1.02000
  7
HTX1
  0
POLYLINE
  8
GT_1
 66
1
 70
128
  0
VERTEX
  8
GT_1
 10
616.700
 20
92.0000
  0
VERTEX
  8
GT_1
 10
521.700
 20
92.0000
  0
SEQEND
  0
TEXT
  8
GT_1
 10
521.800
 20
93.1000
 40
3.50000
  1
WELD
 41
1.02000
  7
HTX1
  0
POLYLINE
  8
GT_1
 66
1
 70
128
  0
VERTEX
  8
GT_1
 10
533.300
 20
97.0000
  0
VERTEX
  8
GT_1
 10
533.300
 20
92.0000
  0
SEQEND
  0
TEXT
  8
GT_1
 10
533.700
 20
93.1000
 40
3.50000
  1
 SHOP
 41
1.02000
  7
HTX1
  0
POLYLINE
  8
GT_1
 66
1
 70
128
  0
VERTEX
  8
GT_1
 10
550.800
 20
97.0000
  0
VERTEX
  8
GT_1
 10
550.800
 20
92.0000
  0
SEQEND
  0
TEXT
  8
GT_1
 10
551.200
 20
93.1000
 40
3.50000
  1
 WELD
 41
1.02000
  7
HTX1
  0
POLYLINE
  8
GT_1
 66
1
 70
128
  0
VERTEX
  8
GT_1
 10
568.300
 20
97.0000
  0
VERTEX
  8
GT_1
 10
568.300
 20
92.0000
  0
SEQEND
  0
TEXT
  8
GT_1
 10
568.700
 20
93.1000
 40
3.50000
  1
   WELD
 41
1.02000
  7
HTX1
  0
POLYLINE
  8
GT_1
 66
1
 70
128
  0
VERTEX
  8
GT_1
 10
616.700
 20
97.0000
  0
VERTEX
  8
GT_1
 10
521.700
 20
97.0000
  0
VERTEX
  8
GT_1
 10
521.700
 20
12.0000
  0
SEQEND
  0
TEXT
  8
GT_1
 10
35.8000
 20
576.000
 40
6.25000
  1
N
 41
1.02000
  7
HTX1
  0
TEXT
  8
GT_1
 10
35.6000
 20
576.000
 40
6.25000
  1
N
 41
1.02000
  7
HTX1
  0
POLYLINE
  8
GT_1
 66
1
 70
128
  0
VERTEX
  8
GT_1
 10
42.0000
 20
574.000
  0
VERTEX
  8
GT_1
 10
46.0000
 20
568.000
  0
VERTEX
  8
GT_1
 10
45.6000
 20
571.200
  0
VERTEX
  8
GT_1
 10
52.4000
 20
567.200
  0
VERTEX
  8
GT_1
 10
53.2000
 20
568.400
  0
VERTEX
  8
GT_1
 10
46.4000
 20
572.400
  0
VERTEX
  8
GT_1
 10
49.2000
 20
573.600
  0
VERTEX
  8
GT_1
 10
42.0000
 20
574.000
  0
SEQEND
  0
POLYLINE
  8
GT_1
 66
1
 70
128
  0
VERTEX
  8
GT_1
 10
56.0000
 20
583.200
  0
VERTEX
  8
GT_1
 10
56.0000
 20
563.200
  0
VERTEX
  8
GT_1
 10
32.0000
 20
563.200
  0
VERTEX
  8
GT_1
 10
32.0000
 20
583.400
  0
VERTEX
  8
GT_1
 10
56.2000
 20
583.400
  0
VERTEX
  8
GT_1
 10
56.2000
 20
563.400
  0
VERTEX
  8
GT_1
 10
32.2000
 20
563.400
  0
VERTEX
  8
GT_1
 10
32.2000
 20
583.600
  0
VERTEX
  8
GT_1
 10
56.4000
 20
583.600
  0
VERTEX
  8
GT_1
 10
56.4000
 20
563.600
  0
VERTEX
  8
GT_1
 10
32.4000
 20
563.600
  0
VERTEX
  8
GT_1
 10
32.4000
 20
583.800
  0
VERTEX
  8
GT_1
 10
56.6000
 20
583.800
  0
VERTEX
  8
GT_1
 10
56.6000
 20
563.800
  0
VERTEX
  8
GT_1
 10
32.6000
 20
563.800
  0
VERTEX
  8
GT_1
 10
32.6000
 20
584.000
  0
SEQEND
  0
POLYLINE
  8
GT_1
 66
1
 70
128
  0
VERTEX
  8
GT_1
 10
546.200
 20
471.000
  0
VERTEX
  8
GT_1
 10
546.200
 20
466.200
  0
SEQEND
  0
POLYLINE
  8
GT_1
 66
1
 70
128
  0
VERTEX
  8
GT_1
 10
550.300
 20
468.600
  0
VERTEX
  8
GT_1
 10
542.000
 20
468.600
  0
SEQEND
  0
POLYLINE
  8
GT_1
 66
1
 70
128
  0
VERTEX
  8
GT_1
 10
545.800
 20
469.300
  0
VERTEX
  8
GT_1
 10
544.900
 20
468.800
  0
VERTEX
  8
GT_1
 10
545.400
 20
468.100
  0
VERTEX
  8
GT_1
 10
546.600
 20
467.800
  0
VERTEX
  8
GT_1
 10
547.400
 20
468.300
  0
VERTEX
  8
GT_1
 10
547.000
 20
469.000
  0
VERTEX
  8
GT_1
 10
545.800
 20
469.300
  0
SEQEND
  0
POLYLINE
  8
GT_1
 66
1
 70
128
  0
VERTEX
  8
GT_1
 10
545.800
 20
468.000
  0
VERTEX
  8
GT_1
 10
546.920
 20
468.000
  0
SEQEND
  0
POLYLINE
  8
GT_1
 66
1
 70
128
  0
VERTEX
  8
GT_1
 10
545.329
 20
468.200
  0
VERTEX
  8
GT_1
 10
547.240
 20
468.200
  0
SEQEND
  0
POLYLINE
  8
GT_1
 66
1
 70
128
  0
VERTEX
  8
GT_1
 10
545.186
 20
468.400
  0
VERTEX
  8
GT_1
 10
547.343
 20
468.400
  0
SEQEND
  0
POLYLINE
  8
GT_1
 66
1
 70
128
  0
VERTEX
  8
GT_1
 10
545.043
 20
468.600
  0
VERTEX
  8
GT_1
 10
547.229
 20
468.600
  0
SEQEND
  0
POLYLINE
  8
GT_1
 66
1
 70
128
  0
VERTEX
  8
GT_1
 10
544.900
 20
468.800
  0
VERTEX
  8
GT_1
 10
547.114
 20
468.800
  0
SEQEND
  0
POLYLINE
  8
GT_1
 66
1
 70
128
  0
VERTEX
  8
GT_1
 10
545.260
 20
469.000
  0
VERTEX
  8
GT_1
 10
547.000
 20
469.000
  0
SEQEND
  0
POLYLINE
  8
GT_1
 66
1
 70
128
  0
VERTEX
  8
GT_1
 10
545.620
 20
469.200
  0
VERTEX
  8
GT_1
 10
546.200
 20
469.200
  0
SEQEND
  0
POLYLINE
  8
GT_1
 66
1
 70
128
  0
VERTEX
  8
GT_1
 10
547.000
 20
468.100
  0
VERTEX
  8
GT_1
 10
550.000
 20
451.400
  0
VERTEX
  8
GT_1
 10
554.000
 20
451.400
  0
SEQEND
  0
TEXT
  8
GT_1
 10
555.800
 20
450.200
 40
3.00000
  1
1
 41
1.02000
  7
HTX1
  0
POLYLINE
  8
GT_1
 66
1
 70
128
  0
VERTEX
  8
GT_1
 10
559.314
 20
451.400
 42
1.00000
  0
VERTEX
  8
GT_1
 10
554.000
 20
451.400
 42
1.00000
  0
VERTEX
  8
GT_1
 10
559.314
 20
451.400
  0
SEQEND
  0
POLYLINE
  8
GT_1
 66
1
 70
128
  0
VERTEX
  8
GT_1
 10
547.900
 20
470.300
  0
VERTEX
  8
GT_1
 10
546.600
 20
468.800
  0
VERTEX
  8
GT_1
 10
548.300
 20
469.800
  0
SEQEND
  0
POLYLINE
  8
GT_1
 66
1
 70
128
  0
VERTEX
  8
GT_1
 10
546.600
 20
468.800
  0
VERTEX
  8
GT_1
 10
559.600
 20
479.700
  0
SEQEND
  0
TEXT
  8
GT_1
 10
560.100
 20
480.200
 40
3.00000
  1
CONT. ON
 41
1.02000
  7
HTX1
  0
TEXT
  8
GT_1
 10
560.100
 20
476.200
 40
3.00000
  1
110022-13610-031-BB5D-250
 41
1.02000
  7
HTX1
  0
TEXT
  8
GT_1
 10
560.100
 20
472.200
 40
3.00000
  1
E 958116
 41
1.02000
  7
HTX1
  0
TEXT
  8
GT_1
 10
560.100
 20
468.200
 40
3.00000
  1
S 1278866
 41
1.02000
  7
HTX1
  0
TEXT
  8
GT_1
 10
560.100
 20
464.200
 40
3.00000
  1
FL+27637
 41
1.02000
  7
HTX1
  0
POLYLINE
  8
GT_1
 66
1
 70
128
 40
0.600000
 41
0.600000
  0
VERTEX
  8
GT_1
 10
546.600
 20
468.800
  0
VERTEX
  8
GT_1
 10
537.900
 20
463.800
  0
SEQEND
  0
POLYLINE
  8
GT_1
 66
1
 70
128
  0
VERTEX
  8
GT_1
 10
542.300
 20
466.300
  0
VERTEX
  8
GT_1
 10
544.000
 20
467.300
  0
VERTEX
  8
GT_1
 10
542.000
 20
467.000
  0
SEQEND
  0
POLYLINE
  8
GT_1
 66
1
 70
128
  0
VERTEX
  8
GT_1
 10
544.000
 20
467.300
  0
VERTEX
  8
GT_1
 10
494.200
 20
449.200
  0
SEQEND
  0
TEXT
  8
GT_1
 10
483.414
 20
449.700
 40
3.00000
  1
250DN
 41
1.02000
  7
HTX1
  0
POLYLINE
  8
GT_1
 66
1
 70
128
  0
VERTEX
  8
GT_1
 10
539.200
 20
462.300
  0
VERTEX
  8
GT_1
 10
537.900
 20
463.800
  0
VERTEX
  8
GT_1
 10
538.600
 20
461.900
  0
SEQEND
  0
POLYLINE
  8
GT_1
 66
1
 70
128
  0
VERTEX
  8
GT_1
 10
537.900
 20
463.800
  0
VERTEX
  8
GT_1
 10
552.400
 20
438.700
  0
SEQEND
  0
TEXT
  8
GT_1
 10
552.900
 20
439.200
 40
3.00000
  1
2
 41
1.02000
  7
HTX1
  0
POLYLINE
  8
GT_1
 66
1
 70
128
  0
VERTEX
  8
GT_1
 10
552.400
 20
442.700
  0
VERTEX
  8
GT_1
 10
555.400
 20
442.700
  0
VERTEX
  8
GT_1
 10
555.400
 20
438.700
  0
VERTEX
  8
GT_1
 10
552.400
 20
438.700
  0
VERTEX
  8
GT_1
 10
552.400
 20
442.700
  0
SEQEND
  0
TEXT
  8
GT_1
 10
552.900
 20
435.200
 40
3.00000
  1
250x250DN
 41
1.02000
  7
HTX1
  0
POLYLINE
  8
GT_1
 66
1
 70
128
  0
VERTEX
  8
GT_1
 10
550.100
 20
466.800
  0
VERTEX
  8
GT_1
 10
560.600
 20
460.700
  0
SEQEND
  0
POLYLINE
  8
GT_1
 66
1
 70
128
  0
VERTEX
  8
GT_1
 10
558.000
 20
460.100
  0
VERTEX
  8
GT_1
 10
559.600
 20
461.300
  0
VERTEX
  8
GT_1
 10
557.700
 20
460.700
  0
SEQEND
  0
POLYLINE
  8
GT_1
 66
1
 70
128
  0
VERTEX
  8
GT_1
 10
559.600
 20
461.300
  0
VERTEX
  8
GT_1
 10
558.800
 20
460.900
  0
SEQEND
  0
POLYLINE
  8
GT_1
 66
1
 70
128
  0
VERTEX
  8
GT_1
 10
539.600
 20
462.800
  0
VERTEX
  8
GT_1
 10
551.900
 20
455.700
  0
SEQEND
  0
POLYLINE
  8
GT_1
 66
1
 70
128
  0
VERTEX
  8
GT_1
 10
552.400
 20
457.600
  0
VERTEX
  8
GT_1
 10
550.900
 20
456.300
  0
VERTEX
  8
GT_1
 10
552.800
 20
457.000
  0
SEQEND
  0
POLYLINE
  8
GT_1
 66
1
 70
128
  0
VERTEX
  8
GT_1
 10
550.900
 20
456.300
  0
VERTEX
  8
GT_1
 10
552.600
 20
457.300
  0
SEQEND
  0
TEXT
  8
GT_1
 10
553.168
 20
456.218
 40
3.00000
  1
216
 50
30.0000
 41
1.02000
  7
HTX1
  0
POLYLINE
  8
GT_1
 66
1
 70
128
 40
0.600000
 41
0.600000
  0
VERTEX
  8
GT_1
 10
537.900
 20
463.800
  0
VERTEX
  8
GT_1
 10
529.200
 20
468.800
  0
SEQEND
  0
POLYLINE
  8
GT_1
 66
1
 70
128
  0
VERTEX
  8
GT_1
 10
534.300
 20
468.200
  0
VERTEX
  8
GT_1
 10
533.600
 20
466.300
  0
VERTEX
  8
GT_1
 10
534.900
 20
467.800
  0
SEQEND
  0
POLYLINE
  8
GT_1
 66
1
 70
128
  0
VERTEX
  8
GT_1
 10
533.600
 20
466.300
  0
VERTEX
  8
GT_1
 10
546.100
 20
488.000
  0
SEQEND
  0
TEXT
  8
GT_1
 10
546.600
 20
488.500
 40
3.00000
  1
110022-13610-032-SOO1
 41
1.02000
  7
HTX1
  0
POLYLINE
  8
GT_1
 66
1
 70
128
  0
VERTEX
  8
GT_1
 10
546.100
 20
492.000
  0
VERTEX
  8
GT_1
 10
589.900
 20
492.000
  0
VERTEX
  8
GT_1
 10
589.900
 20
488.000
  0
VERTEX
  8
GT_1
 10
546.100
 20
488.000
  0
VERTEX
  8
GT_1
 10
546.100
 20
492.000
  0
SEQEND
  0
POLYLINE
  8
GT_1
 66
1
 70
128
  0
VERTEX
  8
GT_1
 10
545.100
 20
493.000
  0
VERTEX
  8
GT_1
 10
590.900
 20
493.000
  0
VERTEX
  8
GT_1
 10
590.900
 20
487.000
  0
VERTEX
  8
GT_1
 10
545.100
 20
487.000
  0
VERTEX
  8
GT_1
 10
545.100
 20
493.000
  0
SEQEND
  0
POLYLINE
  8
GT_1
 66
1
 70
128
  0
VERTEX
  8
GT_1
 10
536.200
 20
462.800
  0
VERTEX
  8
GT_1
 10
523.900
 20
455.700
  0
SEQEND
  0
POLYLINE
  8
GT_1
 66
1
 70
128
  0
VERTEX
  8
GT_1
 10
523.000
 20
457.000
  0
VERTEX
  8
GT_1
 10
524.900
 20
456.300
  0
VERTEX
  8
GT_1
 10
523.400
 20
457.600
  0
SEQEND
  0
POLYLINE
  8
GT_1
 66
1
 70
128
  0
VERTEX
  8
GT_1
 10
524.900
 20
456.300
  0
VERTEX
  8
GT_1
 10
520.600
 20
458.800
  0
SEQEND
  0
POLYLINE
  8
GT_1
 66
1
 70
128
  0
VERTEX
  8
GT_1
 10
525.700
 20
466.800
  0
VERTEX
  8
GT_1
 10
515.200
 20
460.700
  0
SEQEND
  0
POLYLINE
  8
GT_1
 66
1
 70
128
  0
VERTEX
  8
GT_1
 10
518.100
 20
460.600
  0
VERTEX
  8
GT_1
 10
516.200
 20
461.300
  0
VERTEX
  8
GT_1
 10
517.700
 20
460.000
  0
SEQEND
  0
POLYLINE
  8
GT_1
 66
1
 70
128
  0
VERTEX
  8
GT_1
 10
516.200
 20
461.300
  0
VERTEX
  8
GT_1
 10
520.600
 20
458.800
  0
SEQEND
  0
POLYLINE
  8
GT_1
 66
1
 70
128
  0
VERTEX
  8
GT_1
 10
517.200
 20
459.300
  0
VERTEX
  8
GT_1
 10
519.200
 20
459.600
  0
VERTEX
  8
GT_1
 10
517.200
 20
459.900
  0
SEQEND
  0
POLYLINE
  8
GT_1
 66
1
 70
128
  0
VERTEX
  8
GT_1
 10
519.200
 20
459.600
  0
VERTEX
  8
GT_1
 10
514.200
 20
459.600
  0
SEQEND
  0
TEXT
  8
GT_1
 10
507.529
 20
460.100
 40
3.00000
  1
216
 41
1.02000
  7
HTX1
  0
POLYLINE
  8
GT_1
 66
1
 70
128
  6
GT100
  0
VERTEX
  8
GT_1
  6
GT100
 10
529.200
 20
469.500
  0
VERTEX
  8
GT_1
  6
GT100
 10
530.300
 20
469.400
  0
VERTEX
  8
GT_1
  6
GT100
 10
530.500
 20
468.800
  0
VERTEX
  8
GT_1
  6
GT100
 10
529.200
 20
468.100
  0
VERTEX
  8
GT_1
  6
GT100
 10
528.100
 20
468.200
  0
VERTEX
  8
GT_1
  6
GT100
 10
527.900
 20
468.800
  0
VERTEX
  8
GT_1
  6
GT100
 10
529.200
 20
469.500
  0
SEQEND
  0
POLYLINE
  8
GT_1
 66
1
 70
128
  0
VERTEX
  8
GT_1
 10
529.200
 20
470.800
  0
VERTEX
  8
GT_1
 10
529.200
 20
468.800
  0
VERTEX
  8
GT_1
 10
529.900
 20
470.700
  0
SEQEND
  0
POLYLINE
  8
GT_1
 66
1
 70
128
  0
VERTEX
  8
GT_1
 10
529.200
 20
468.800
  0
VERTEX
  8
GT_1
 10
537.000
 20
513.100
  0
SEQEND
  0
TEXT
  8
GT_1
 10
537.500
 20
513.600
 40
3.00000
  1
CONT. ON
 41
1.02000
  7
HTX1
  0
TEXT
  8
GT_1
 10
537.500
 20
509.600
 40
3.00000
  1
110022-13610-040-CB5H-250
 41
1.02000
  7
HTX1
  0
TEXT
  8
GT_1
 10
537.500
 20
505.600
 40
3.00000
  1
E 957900
 41
1.02000
  7
HTX1
  0
TEXT
  8
GT_1
 10
537.500
 20
501.600
 40
3.00000
  1
S 1278650
 41
1.02000
  7
HTX1
  0
TEXT
  8
GT_1
 10
537.500
 20
497.600
 40
3.00000
  1
FL+27637
 41
1.02000
  7
HTX1
  0
POLYLINE
  8
GT_1
 66
1
 70
128
 40
0.600000
 41
0.600000
  0
VERTEX
  8
GT_1
 10
537.900
 20
463.800
  0
VERTEX
  8
GT_1
 10
529.200
 20
458.800
  0
SEQEND
  0
POLYLINE
  8
GT_1
 66
1
 70
128
  0
VERTEX
  8
GT_1
 10
527.900
 20
458.800
  0
VERTEX
  8
GT_1
 10
528.100
 20
459.400
  0
VERTEX
  8
GT_1
 10
529.200
 20
459.500
  0
VERTEX
  8
GT_1
 10
530.500
 20
458.800
  0
VERTEX
  8
GT_1
 10
530.300
 20
458.200
  0
VERTEX
  8
GT_1
 10
529.200
 20
458.100
  0
VERTEX
  8
GT_1
 10
527.900
 20
458.800
  0
SEQEND
  0
POLYLINE
  8
GT_1
 66
1
 70
128
  0
VERTEX
  8
GT_1
 10
529.014
 20
458.200
  0
VERTEX
  8
GT_1
 10
530.300
 20
458.200
  0
SEQEND
  0
POLYLINE
  8
GT_1
 66
1
 70
128
  0
VERTEX
  8
GT_1
 10
528.643
 20
458.400
  0
VERTEX
  8
GT_1
 10
530.367
 20
458.400
  0
SEQEND
  0
POLYLINE
  8
GT_1
 66
1
 70
128
  0
VERTEX
  8
GT_1
 10
528.271
 20
458.600
  0
VERTEX
  8
GT_1
 10
530.433
 20
458.600
  0
SEQEND
  0
POLYLINE
  8
GT_1
 66
1
 70
128
  0
VERTEX
  8
GT_1
 10
527.900
 20
458.800
  0
VERTEX
  8
GT_1
 10
530.500
 20
458.800
  0
SEQEND
  0
POLYLINE
  8
GT_1
 66
1
 70
128
  0
VERTEX
  8
GT_1
 10
527.967
 20
459.000
  0
VERTEX
  8
GT_1
 10
530.129
 20
459.000
  0
SEQEND
  0
POLYLINE
  8
GT_1
 66
1
 70
128
  0
VERTEX
  8
GT_1
 10
528.033
 20
459.200
  0
VERTEX
  8
GT_1
 10
529.757
 20
459.200
  0
SEQEND
  0
POLYLINE
  8
GT_1
 66
1
 70
128
  0
VERTEX
  8
GT_1
 10
528.100
 20
459.400
  0
VERTEX
  8
GT_1
 10
529.386
 20
459.400
  0
SEQEND
  0
POLYLINE
  8
GT_1
 66
1
 70
128
  0
VERTEX
  8
GT_1
 10
530.300
 20
458.200
  0
VERTEX
  8
GT_1
 10
534.100
 20
455.000
  0
SEQEND
  0
TEXT
  8
GT_1
 10
535.900
 20
453.800
 40
3.00000
  1
2
 41
1.02000
  7
HTX1
  0
POLYLINE
  8
GT_1
 66
1
 70
128
  0
VERTEX
  8
GT_1
 10
539.414
 20
455.000
 42
1.00000
  0
VERTEX
  8
GT_1
 10
534.100
 20
455.000
 42
1.00000
  0
VERTEX
  8
GT_1
 10
539.414
 20
455.000
  0
SEQEND
  0
POLYLINE
  8
GT_1
 66
1
 70
128
 40
0.600000
 41
0.600000
  0
VERTEX
  8
GT_1
 10
529.200
 20
458.800
  0
VERTEX
  8
GT_1
 10
499.100
 20
441.400
  0
SEQEND
  0
POLYLINE
  8
GT_1
 66
1
 70
128
  0
VERTEX
  8
GT_1
 10
539.600
 20
462.800
  0
VERTEX
  8
GT_1
 10
551.900
 20
455.700
  0
SEQEND
  0
POLYLINE
  8
GT_1
 66
1
 70
128
  0
VERTEX
  8
GT_1
 10
549.400
 20
455.000
  0
VERTEX
  8
GT_1
 10
550.900
 20
456.300
  0
VERTEX
  8
GT_1
 10
549.000
 20
455.600
  0
SEQEND
  0
POLYLINE
  8
GT_1
 66
1
 70
128
  0
VERTEX
  8
GT_1
 10
550.900
 20
456.300
  0
VERTEX
  8
GT_1
 10
535.100
 20
447.200
  0
SEQEND
  0
POLYLINE
  8
GT_1
 66
1
 70
128
  0
VERTEX
  8
GT_1
 10
502.600
 20
439.400
  0
VERTEX
  8
GT_1
 10
513.100
 20
433.300
  0
SEQEND
  0
POLYLINE
  8
GT_1
 66
1
 70
128
  0
VERTEX
  8
GT_1
 10
513.600
 20
435.200
  0
VERTEX
  8
GT_1
 10
512.100
 20
433.900
  0
VERTEX
  8
GT_1
 10
514.000
 20
434.600
  0
SEQEND
  0
POLYLINE
  8
GT_1
 66
1
 70
128
  0
VERTEX
  8
GT_1
 10
512.100
 20
433.900
  0
VERTEX
  8
GT_1
 10
528.800
 20
443.600
  0
SEQEND
  0
TEXT
  8
GT_1
 10
529.418
 20
442.518
 40
3.00000
  1
366
 50
30.0000
 41
1.02000
  7
HTX1
  0
POLYLINE
  8
GT_1
 66
1
 70
128
  0
VERTEX
  8
GT_1
 10
497.800
 20
441.400
  0
VERTEX
  8
GT_1
 10
498.000
 20
442.000
  0
VERTEX
  8
GT_1
 10
499.100
 20
442.100
  0
VERTEX
  8
GT_1
 10
500.400
 20
441.400
  0
VERTEX
  8
GT_1
 10
500.200
 20
440.800
  0
VERTEX
  8
GT_1
 10
499.100
 20
440.700
  0
VERTEX
  8
GT_1
 10
497.800
 20
441.400
  0
SEQEND
  0
POLYLINE
  8
GT_1
 66
1
 70
128
  0
VERTEX
  8
GT_1
 10
498.914
 20
440.800
  0
VERTEX
  8
GT_1
 10
500.200
 20
440.800
  0
SEQEND
  0
POLYLINE
  8
GT_1
 66
1
 70
128
  0
VERTEX
  8
GT_1
 10
498.543
 20
441.000
  0
VERTEX
  8
GT_1
 10
500.267
 20
441.000
  0
SEQEND
  0
POLYLINE
  8
GT_1
 66
1
 70
128
  0
VERTEX
  8
GT_1
 10
498.171
 20
441.200
  0
VERTEX
  8
GT_1
 10
500.333
 20
441.200
  0
SEQEND
  0
POLYLINE
  8
GT_1
 66
1
 70
128
  0
VERTEX
  8
GT_1
 10
497.800
 20
441.400
  0
VERTEX
  8
GT_1
 10
500.400
 20
441.400
  0
SEQEND
  0
POLYLINE
  8
GT_1
 66
1
 70
128
  0
VERTEX
  8
GT_1
 10
497.867
 20
441.600
  0
VERTEX
  8
GT_1
 10
500.029
 20
441.600
  0
SEQEND
  0
POLYLINE
  8
GT_1
 66
1
 70
128
  0
VERTEX
  8
GT_1
 10
497.933
 20
441.800
  0
VERTEX
  8
GT_1
 10
499.657
 20
441.800
  0
SEQEND
  0
POLYLINE
  8
GT_1
 66
1
 70
128
  0
VERTEX
  8
GT_1
 10
498.000
 20
442.000
  0
VERTEX
  8
GT_1
 10
499.286
 20
442.000
  0
SEQEND
  0
POLYLINE
  8
GT_1
 66
1
 70
128
  0
VERTEX
  8
GT_1
 10
500.200
 20
440.800
  0
VERTEX
  8
GT_1
 10
498.600
 20
431.900
  0
SEQEND
  0
TEXT
  8
GT_1
 10
495.086
 20
430.700
 40
3.00000
  1
3
 41
1.02000
  7
HTX1
  0
POLYLINE
  8
GT_1
 66
1
 70
128
  0
VERTEX
  8
GT_1
 10
493.286
 20
431.900
 42
1.00000
  0
VERTEX
  8
GT_1
 10
498.600
 20
431.900
 42
1.00000
  0
VERTEX
  8
GT_1
 10
493.286
 20
431.900
  0
SEQEND
  0
POLYLINE
  8
GT_1
 66
1
 70
128
  0
VERTEX
  8
GT_1
 10
499.100
 20
441.400
  0
VERTEX
  8
GT_1
 10
500.500
 20
442.200
  0
VERTEX
  8
GT_1
 10
497.700
 20
443.800
  0
VERTEX
  8
GT_1
 10
494.900
 20
442.200
  0
VERTEX
  8
GT_1
 10
497.700
 20
440.600
  0
VERTEX
  8
GT_1
 10
499.100
 20
441.400
  0
SEQEND
  0
POLYLINE
  8
GT_1
 66
1
 70
128
  0
VERTEX
  8
GT_1
 10
496.300
 20
445.000
  0
VERTEX
  8
GT_1
 10
496.300
 20
443.000
  0
VERTEX
  8
GT_1
 10
497.000
 20
444.900
  0
SEQEND
  0
POLYLINE
  8
GT_1
 66
1
 70
128
  0
VERTEX
  8
GT_1
 10
496.300
 20
443.000
  0
VERTEX
  8
GT_1
 10
501.300
 20
471.600
  0
SEQEND
  0
TEXT
  8
GT_1
 10
501.800
 20
472.100
 40
3.00000
  1
3
 41
1.02000
  7
HTX1
  0
POLYLINE
  8
GT_1
 66
1
 70
128
  0
VERTEX
  8
GT_1
 10
501.300
 20
475.600
  0
VERTEX
  8
GT_1
 10
504.300
 20
475.600
  0
VERTEX
  8
GT_1
 10
504.300
 20
471.600
  0
VERTEX
  8
GT_1
 10
501.300
 20
471.600
  0
VERTEX
  8
GT_1
 10
501.300
 20
475.600
  0
SEQEND
  0
TEXT
  8
GT_1
 10
501.800
 20
468.100
 40
3.00000
  1
250x20DN
 41
1.02000
  7
HTX1
  0
POLYLINE
  8
GT_1
 66
1
 70
128
  0
VERTEX
  8
GT_1
 10
495.600
 20
439.400
  0
VERTEX
  8
GT_1
 10
485.100
 20
433.300
  0
SEQEND
  0
POLYLINE
  8
GT_1
 66
1
 70
128
  0
VERTEX
  8
GT_1
 10
492.800
 20
441.000
  0
VERTEX
  8
GT_1
 10
482.300
 20
434.900
  0
SEQEND
  0
POLYLINE
  8
GT_1
 66
1
 70
128
  0
VERTEX
  8
GT_1
 10
483.000
 20
433.700
  0
VERTEX
  8
GT_1
 10
484.700
 20
434.700
  0
VERTEX
  8
GT_1
 10
482.700
 20
434.400
  0
SEQEND
  0
POLYLINE
  8
GT_1
 66
1
 70
128
  0
VERTEX
  8
GT_1
 10
484.700
 20
434.700
  0
VERTEX
  8
GT_1
 10
480.000
 20
433.000
  0
SEQEND
  0
TEXT
  8
GT_1
 10
473.329
 20
433.500
 40
3.00000
  1
160
 41
1.02000
  7
HTX1
  0
POLYLINE
  8
GT_1
 66
1
 70
128
  6
GT100
  0
VERTEX
  8
GT_1
  6
GT100
 10
496.300
 20
443.700
  0
VERTEX
  8
GT_1
  6
GT100
 10
497.400
 20
443.600
  0
VERTEX
  8
GT_1
  6
GT100
 10
497.600
 20
443.000
  0
VERTEX
  8
GT_1
  6
GT100
 10
496.300
 20
442.300
  0
VERTEX
  8
GT_1
  6
GT100
 10
495.200
 20
442.400
  0
VERTEX
  8
GT_1
  6
GT100
 10
495.000
 20
443.000
  0
VERTEX
  8
GT_1
  6
GT100
 10
496.300
 20
443.700
  0
SEQEND
  0
POLYLINE
  8
GT_1
 66
1
 70
128
  6
GT100
  0
VERTEX
  8
GT_1
  6
GT100
 10
496.000
 20
444.800
  0
VERTEX
  8
GT_1
  6
GT100
 10
497.700
 20
443.800
  0
VERTEX
  8
GT_1
  6
GT100
 10
494.900
 20
442.200
  0
VERTEX
  8
GT_1
  6
GT100
 10
493.200
 20
443.200
  0
SEQEND
  0
POLYLINE
  8
GT_1
 66
1
 70
128
  0
VERTEX
  8
GT_1
 10
495.600
 20
441.100
  0
VERTEX
  8
GT_1
 10
496.300
 20
443.000
  0
VERTEX
  8
GT_1
 10
495.000
 20
441.500
  0
SEQEND
  0
POLYLINE
  8
GT_1
 66
1
 70
128
  0
VERTEX
  8
GT_1
 10
496.300
 20
443.000
  0
VERTEX
  8
GT_1
 10
489.800
 20
431.700
  0
VERTEX
  8
GT_1
 10
505.100
 20
418.900
  0
SEQEND
  0
TEXT
  8
GT_1
 10
505.600
 20
419.400
 40
3.00000
  1
CONT. ON
 41
1.02000
  7
HTX1
  0
TEXT
  8
GT_1
 10
505.600
 20
415.400
 40
3.00000
  1
110022-13610-307-CB5H-20
 41
1.02000
  7
HTX1
  0
TEXT
  8
GT_1
 10
505.600
 20
411.400
 40
3.00000
  1
E 957534
 41
1.02000
  7
HTX1
  0
TEXT
  8
GT_1
 10
505.600
 20
407.400
 40
3.00000
  1
S 1278706
 41
1.02000
  7
HTX1
  0
TEXT
  8
GT_1
 10
505.600
 20
403.400
 40
3.00000
  1
FL+27637
 41
1.02000
  7
HTX1
  0
POLYLINE
  8
GT_1
 66
1
 70
128
 40
0.600000
 41
0.600000
  0
VERTEX
  8
GT_1
 10
499.100
 20
441.400
  0
VERTEX
  8
GT_1
 10
454.900
 20
415.900
  0
SEQEND
  0
POLYLINE
  8
GT_1
 66
1
 70
128
  0
VERTEX
  8
GT_1
 10
500.800
 20
440.400
  0
VERTEX
  8
GT_1
 10
513.100
 20
433.300
  0
SEQEND
  0
POLYLINE
  8
GT_1
 66
1
 70
128
  0
VERTEX
  8
GT_1
 10
510.600
 20
432.600
  0
VERTEX
  8
GT_1
 10
512.100
 20
433.900
  0
VERTEX
  8
GT_1
 10
510.200
 20
433.200
  0
SEQEND
  0
POLYLINE
  8
GT_1
 66
1
 70
128
  0
VERTEX
  8
GT_1
 10
512.100
 20
433.900
  0
VERTEX
  8
GT_1
 10
493.600
 20
423.200
  0
SEQEND
  0
POLYLINE
  8
GT_1
 66
1
 70
128
  0
VERTEX
  8
GT_1
 10
458.400
 20
413.900
  0
VERTEX
  8
GT_1
 10
468.900
 20
407.800
  0
SEQEND
  0
POLYLINE
  8
GT_1
 66
1
 70
128
  0
VERTEX
  8
GT_1
 10
469.400
 20
409.700
  0
VERTEX
  8
GT_1
 10
467.900
 20
408.400
  0
VERTEX
  8
GT_1
 10
469.800
 20
409.100
  0
SEQEND
  0
POLYLINE
  8
GT_1
 66
1
 70
128
  0
VERTEX
  8
GT_1
 10
467.900
 20
408.400
  0
VERTEX
  8
GT_1
 10
487.300
 20
419.600
  0
SEQEND
  0
TEXT
  8
GT_1
 10
487.918
 20
418.568
 40
3.00000
  1
250
 50
30.0000
 41
1.02000
  7
HTX1
  0
POLYLINE
  8
GT_1
 66
1
 70
128
  0
VERTEX
  8
GT_1
 10
453.600
 20
415.900
  0
VERTEX
  8
GT_1
 10
453.800
 20
416.500
  0
VERTEX
  8
GT_1
 10
454.900
 20
416.600
  0
VERTEX
  8
GT_1
 10
456.200
 20
415.900
  0
VERTEX
  8
GT_1
 10
456.000
 20
415.300
  0
VERTEX
  8
GT_1
 10
454.900
 20
415.200
  0
VERTEX
  8
GT_1
 10
453.600
 20
415.900
  0
SEQEND
  0
POLYLINE
  8
GT_1
 66
1
 70
128
  0
VERTEX
  8
GT_1
 10
454.529
 20
415.400
  0
VERTEX
  8
GT_1
 10
456.033
 20
415.400
  0
SEQEND
  0
POLYLINE
  8
GT_1
 66
1
 70
128
  0
VERTEX
  8
GT_1
 10
454.157
 20
415.600
  0
VERTEX
  8
GT_1
 10
456.100
 20
415.600
  0
SEQEND
  0
POLYLINE
  8
GT_1
 66
1
 70
128
  0
VERTEX
  8
GT_1
 10
453.786
 20
415.800
  0
VERTEX
  8
GT_1
 10
456.167
 20
415.800
  0
SEQEND
  0
POLYLINE
  8
GT_1
 66
1
 70
128
  0
VERTEX
  8
GT_1
 10
453.633
 20
416.000
  0
VERTEX
  8
GT_1
 10
456.014
 20
416.000
  0
SEQEND
  0
POLYLINE
  8
GT_1
 66
1
 70
128
  0
VERTEX
  8
GT_1
 10
453.700
 20
416.200
  0
VERTEX
  8
GT_1
 10
455.643
 20
416.200
  0
SEQEND
  0
POLYLINE
  8
GT_1
 66
1
 70
128
  0
VERTEX
  8
GT_1
 10
453.767
 20
416.400
  0
VERTEX
  8
GT_1
 10
455.271
 20
416.400
  0
SEQEND
  0
POLYLINE
  8
GT_1
 66
1
 70
128
  0
VERTEX
  8
GT_1
 10
456.000
 20
415.300
  0
VERTEX
  8
GT_1
 10
454.400
 20
406.400
  0
SEQEND
  0
TEXT
  8
GT_1
 10
450.886
 20
405.200
 40
3.00000
  1
4
 41
1.02000
  7
HTX1
  0
POLYLINE
  8
GT_1
 66
1
 70
128
  0
VERTEX
  8
GT_1
 10
449.086
 20
406.400
 42
1.00000
  0
VERTEX
  8
GT_1
 10
454.400
 20
406.400
 42
1.00000
  0
VERTEX
  8
GT_1
 10
449.086
 20
406.400
  0
SEQEND
  0
POLYLINE
  8
GT_1
 66
1
 70
128
  0
VERTEX
  8
GT_1
 10
454.900
 20
415.900
  0
VERTEX
  8
GT_1
 10
456.300
 20
416.700
  0
VERTEX
  8
GT_1
 10
453.500
 20
418.300
  0
VERTEX
  8
GT_1
 10
450.700
 20
416.700
  0
VERTEX
  8
GT_1
 10
453.500
 20
415.100
  0
VERTEX
  8
GT_1
 10
454.900
 20
415.900
  0
SEQEND
  0
POLYLINE
  8
GT_1
 66
1
 70
128
  0
VERTEX
  8
GT_1
 10
452.800
 20
419.400
  0
VERTEX
  8
GT_1
 10
452.100
 20
417.500
  0
VERTEX
  8
GT_1
 10
453.400
 20
419.000
  0
SEQEND
  0
POLYLINE
  8
GT_1
 66
1
 70
128
  0
VERTEX
  8
GT_1
 10
452.100
 20
417.500
  0
VERTEX
  8
GT_1
 10
466.600
 20
442.600
  0
SEQEND
  0
TEXT
  8
GT_1
 10
467.100
 20
443.100
 40
3.00000
  1
3
 41
1.02000
  7
HTX1
  0
POLYLINE
  8
GT_1
 66
1
 70
128
  0
VERTEX
  8
GT_1
 10
466.600
 20
446.600
  0
VERTEX
  8
GT_1
 10
469.600
 20
446.600
  0
VERTEX
  8
GT_1
 10
469.600
 20
442.600
  0
VERTEX
  8
GT_1
 10
466.600
 20
442.600
  0
VERTEX
  8
GT_1
 10
466.600
 20
446.600
  0
SEQEND
  0
TEXT
  8
GT_1
 10
467.100
 20
439.100
 40
3.00000
  1
250x20DN
 41
1.02000
  7
HTX1
  0
POLYLINE
  8
GT_1
 66
1
 70
128
  0
VERTEX
  8
GT_1
 10
451.400
 20
413.900
  0
VERTEX
  8
GT_1
 10
440.900
 20
407.800
  0
SEQEND
  0
POLYLINE
  8
GT_1
 66
1
 70
128
  0
VERTEX
  8
GT_1
 10
448.600
 20
415.500
  0
VERTEX
  8
GT_1
 10
438.100
 20
409.400
  0
SEQEND
  0
POLYLINE
  8
GT_1
 66
1
 70
128
  0
VERTEX
  8
GT_1
 10
438.800
 20
408.200
  0
VERTEX
  8
GT_1
 10
440.500
 20
409.200
  0
VERTEX
  8
GT_1
 10
438.500
 20
408.900
  0
SEQEND
  0
POLYLINE
  8
GT_1
 66
1
 70
128
  0
VERTEX
  8
GT_1
 10
440.500
 20
409.200
  0
VERTEX
  8
GT_1
 10
435.800
 20
407.500
  0
SEQEND
  0
TEXT
  8
GT_1
 10
429.129
 20
408.000
 40
3.00000
  1
160
 41
1.02000
  7
HTX1
  0
POLYLINE
  8
GT_1
 66
1
 70
128
  6
GT100
  0
VERTEX
  8
GT_1
  6
GT100
 10
452.100
 20
418.200
  0
VERTEX
  8
GT_1
  6
GT100
 10
453.200
 20
418.100
  0
VERTEX
  8
GT_1
  6
GT100
 10
453.400
 20
417.500
  0
VERTEX
  8
GT_1
  6
GT100
 10
452.100
 20
416.800
  0
VERTEX
  8
GT_1
  6
GT100
 10
451.000
 20
416.900
  0
VERTEX
  8
GT_1
  6
GT100
 10
450.800
 20
417.500
  0
VERTEX
  8
GT_1
  6
GT100
 10
452.100
 20
418.200
  0
SEQEND
  0
POLYLINE
  8
GT_1
 66
1
 70
128
  6
GT100
  0
VERTEX
  8
GT_1
  6
GT100
 10
451.800
 20
419.300
  0
VERTEX
  8
GT_1
  6
GT100
 10
453.500
 20
418.300
  0
VERTEX
  8
GT_1
  6
GT100
 10
450.700
 20
416.700
  0
VERTEX
  8
GT_1
  6
GT100
 10
449.000
 20
417.700
  0
SEQEND
  0
POLYLINE
  8
GT_1
 66
1
 70
128
  0
VERTEX
  8
GT_1
 10
450.800
 20
419.000
  0
VERTEX
  8
GT_1
 10
452.100
 20
417.500
  0
VERTEX
  8
GT_1
 10
451.400
 20
419.400
  0
SEQEND
  0
POLYLINE
  8
GT_1
 66
1
 70
128
  0
VERTEX
  8
GT_1
 10
452.100
 20
417.500
  0
VERTEX
  8
GT_1
 10
439.600
 20
439.200
  0
SEQEND
  0
TEXT
  8
GT_1
 10
389.729
 20
439.700
 40
3.00000
  1
CONT. ON
 41
1.02000
  7
HTX1
  0
TEXT
  8
GT_1
 10
389.729
 20
435.700
 40
3.00000
  1
110022-13610-308-CB5H-20
 41
1.02000
  7
HTX1
  0
TEXT
  8
GT_1
 10
389.729
 20
431.700
 40
3.00000
  1
E 957284
 41
1.02000
  7
HTX1
  0
TEXT
  8
GT_1
 10
389.729
 20
427.700
 40
3.00000
  1
S 1278706
 41
1.02000
  7
HTX1
  0
TEXT
  8
GT_1
 10
389.729
 20
423.700
 40
3.00000
  1
FL+27637
 41
1.02000
  7
HTX1
  0
POLYLINE
  8
GT_1
 66
1
 70
128
 40
0.600000
 41
0.600000
  0
VERTEX
  8
GT_1
 10
454.900
 20
415.900
  0
VERTEX
  8
GT_1
 10
410.700
 20
390.400
  0
SEQEND
  0
POLYLINE
  8
GT_1
 66
1
 70
128
  0
VERTEX
  8
GT_1
 10
456.600
 20
414.900
  0
VERTEX
  8
GT_1
 10
468.900
 20
407.800
  0
SEQEND
  0
POLYLINE
  8
GT_1
 66
1
 70
128
  0
VERTEX
  8
GT_1
 10
466.400
 20
407.100
  0
VERTEX
  8
GT_1
 10
467.900
 20
408.400
  0
VERTEX
  8
GT_1
 10
466.000
 20
407.700
  0
SEQEND
  0
POLYLINE
  8
GT_1
 66
1
 70
128
  0
VERTEX
  8
GT_1
 10
467.900
 20
408.400
  0
VERTEX
  8
GT_1
 10
449.400
 20
397.700
  0
SEQEND
  0
POLYLINE
  8
GT_1
 66
1
 70
128
  0
VERTEX
  8
GT_1
 10
414.200
 20
388.400
  0
VERTEX
  8
GT_1
 10
424.700
 20
382.300
  0
SEQEND
  0
POLYLINE
  8
GT_1
 66
1
 70
128
  0
VERTEX
  8
GT_1
 10
425.200
 20
384.200
  0
VERTEX
  8
GT_1
 10
423.700
 20
382.900
  0
VERTEX
  8
GT_1
 10
425.600
 20
383.600
  0
SEQEND
  0
POLYLINE
  8
GT_1
 66
1
 70
128
  0
VERTEX
  8
GT_1
 10
423.700
 20
382.900
  0
VERTEX
  8
GT_1
 10
443.100
 20
394.100
  0
SEQEND
  0
TEXT
  8
GT_1
 10
443.718
 20
393.068
 40
3.00000
  1
250
 50
30.0000
 41
1.02000
  7
HTX1
  0
POLYLINE
  8
GT_1
 66
1
 70
128
  0
VERTEX
  8
GT_1
 10
409.400
 20
390.400
  0
VERTEX
  8
GT_1
 10
409.600
 20
391.000
  0
VERTEX
  8
GT_1
 10
410.700
 20
391.100
  0
VERTEX
  8
GT_1
 10
412.000
 20
390.400
  0
VERTEX
  8
GT_1
 10
411.800
 20
389.800
  0
VERTEX
  8
GT_1
 10
410.700
 20
389.700
  0
VERTEX
  8
GT_1
 10
409.400
 20
390.400
  0
SEQEND
  0
POLYLINE
  8
GT_1
 66
1
 70
128
  0
VERTEX
  8
GT_1
 10
410.514
 20
389.800
  0
VERTEX
  8
GT_1
 10
411.800
 20
389.800
  0
SEQEND
  0
POLYLINE
  8
GT_1
 66
1
 70
128
  0
VERTEX
  8
GT_1
 10
410.143
 20
390.000
  0
VERTEX
  8
GT_1
 10
411.867
 20
390.000
  0
SEQEND
  0
POLYLINE
  8
GT_1
 66
1
 70
128
  0
VERTEX
  8
GT_1
 10
409.771
 20
390.200
  0
VERTEX
  8
GT_1
 10
411.933
 20
390.200
  0
SEQEND
  0
POLYLINE
  8
GT_1
 66
1
 70
128
  0
VERTEX
  8
GT_1
 10
409.400
 20
390.400
  0
VERTEX
  8
GT_1
 10
412.000
 20
390.400
  0
SEQEND
  0
POLYLINE
  8
GT_1
 66
1
 70
128
  0
VERTEX
  8
GT_1
 10
409.467
 20
390.600
  0
VERTEX
  8
GT_1
 10
411.629
 20
390.600
  0
SEQEND
  0
POLYLINE
  8
GT_1
 66
1
 70
128
  0
VERTEX
  8
GT_1
 10
409.533
 20
390.800
  0
VERTEX
  8
GT_1
 10
411.257
 20
390.800
  0
SEQEND
  0
POLYLINE
  8
GT_1
 66
1
 70
128
  0
VERTEX
  8
GT_1
 10
409.600
 20
391.000
  0
VERTEX
  8
GT_1
 10
410.886
 20
391.000
  0
SEQEND
  0
POLYLINE
  8
GT_1
 66
1
 70
128
  0
VERTEX
  8
GT_1
 10
411.800
 20
389.800
  0
VERTEX
  8
GT_1
 10
410.200
 20
380.900
  0
SEQEND
  0
TEXT
  8
GT_1
 10
406.686
 20
379.700
 40
3.00000
  1
5
 41
1.02000
  7
HTX1
  0
POLYLINE
  8
GT_1
 66
1
 70
128
  0
VERTEX
  8
GT_1
 10
404.886
 20
380.900
 42
1.00000
  0
VERTEX
  8
GT_1
 10
410.200
 20
380.900
 42
1.00000
  0
VERTEX
  8
GT_1
 10
404.886
 20
380.900
  0
SEQEND
  0
POLYLINE
  8
GT_1
 66
1
 70
128
  0
VERTEX
  8
GT_1
 10
410.700
 20
390.400
  0
VERTEX
  8
GT_1
 10
412.100
 20
391.200
  0
VERTEX
  8
GT_1
 10
409.300
 20
392.800
  0
VERTEX
  8
GT_1
 10
406.500
 20
391.200
  0
VERTEX
  8
GT_1
 10
409.300
 20
389.600
  0
VERTEX
  8
GT_1
 10
410.700
 20
390.400
  0
SEQEND
  0
POLYLINE
  8
GT_1
 66
1
 70
128
  0
VERTEX
  8
GT_1
 10
408.600
 20
393.900
  0
VERTEX
  8
GT_1
 10
407.900
 20
392.000
  0
VERTEX
  8
GT_1
 10
409.200
 20
393.500
  0
SEQEND
  0
POLYLINE
  8
GT_1
 66
1
 70
128
  0
VERTEX
  8
GT_1
 10
407.900
 20
392.000
  0
VERTEX
  8
GT_1
 10
422.400
 20
417.100
  0
SEQEND
  0
TEXT
  8
GT_1
 10
422.900
 20
417.600
 40
3.00000
  1
3
 41
1.02000
  7
HTX1
  0
POLYLINE
  8
GT_1
 66
1
 70
128
  0
VERTEX
  8
GT_1
 10
422.400
 20
421.100
  0
VERTEX
  8
GT_1
 10
425.400
 20
421.100
  0
VERTEX
  8
GT_1
 10
425.400
 20
417.100
  0
VERTEX
  8
GT_1
 10
422.400
 20
417.100
  0
VERTEX
  8
GT_1
 10
422.400
 20
421.100
  0
SEQEND
  0
TEXT
  8
GT_1
 10
422.900
 20
413.600
 40
3.00000
  1
250x20DN
 41
1.02000
  7
HTX1
  0
POLYLINE
  8
GT_1
 66
1
 70
128
  0
VERTEX
  8
GT_1
 10
407.200
 20
388.400
  0
VERTEX
  8
GT_1
 10
396.700
 20
382.300
  0
SEQEND
  0
POLYLINE
  8
GT_1
 66
1
 70
128
  0
VERTEX
  8
GT_1
 10
404.400
 20
390.000
  0
VERTEX
  8
GT_1
 10
393.900
 20
383.900
  0
SEQEND
  0
POLYLINE
  8
GT_1
 66
1
 70
128
  0
VERTEX
  8
GT_1
 10
394.600
 20
382.700
  0
VERTEX
  8
GT_1
 10
396.300
 20
383.700
  0
VERTEX
  8
GT_1
 10
394.300
 20
383.400
  0
SEQEND
  0
POLYLINE
  8
GT_1
 66
1
 70
128
  0
VERTEX
  8
GT_1
 10
396.300
 20
383.700
  0
VERTEX
  8
GT_1
 10
391.600
 20
382.000
  0
SEQEND
  0
TEXT
  8
GT_1
 10
384.929
 20
382.500
 40
3.00000
  1
160
 41
1.02000
  7
HTX1
  0
POLYLINE
  8
GT_1
 66
1
 70
128
  6
GT100
  0
VERTEX
  8
GT_1
  6
GT100
 10
407.900
 20
392.700
  0
VERTEX
  8
GT_1
  6
GT100
 10
409.000
 20
392.600
  0
VERTEX
  8
GT_1
  6
GT100
 10
409.200
 20
392.000
  0
VERTEX
  8
GT_1
  6
GT100
 10
407.900
 20
391.300
  0
VERTEX
  8
GT_1
  6
GT100
 10
406.800
 20
391.400
  0
VERTEX
  8
GT_1
  6
GT100
 10
406.600
 20
392.000
  0
VERTEX
  8
GT_1
  6
GT100
 10
407.900
 20
392.700
  0
SEQEND
  0
POLYLINE
  8
GT_1
 66
1
 70
128
  6
GT100
  0
VERTEX
  8
GT_1
  6
GT100
 10
407.600
 20
393.800
  0
VERTEX
  8
GT_1
  6
GT100
 10
409.300
 20
392.800
  0
VERTEX
  8
GT_1
  6
GT100
 10
406.500
 20
391.200
  0
VERTEX
  8
GT_1
  6
GT100
 10
404.800
 20
392.200
  0
SEQEND
  0
POLYLINE
  8
GT_1
 66
1
 70
128
  0
VERTEX
  8
GT_1
 10
406.200
 20
393.000
  0
VERTEX
  8
GT_1
 10
407.900
 20
392.000
  0
VERTEX
  8
GT_1
 10
406.600
 20
393.500
  0
SEQEND
  0
POLYLINE
  8
GT_1
 66
1
 70
128
  0
VERTEX
  8
GT_1
 10
407.900
 20
392.000
  0
VERTEX
  8
GT_1
 10
379.600
 20
415.800
  0
SEQEND
  0
TEXT
  8
GT_1
 10
329.729
 20
416.300
 40
3.00000
  1
CONT. ON
 41
1.02000
  7
HTX1
  0
TEXT
  8
GT_1
 10
329.729
 20
412.300
 40
3.00000
  1
110022-13610-309-CB5H-20
 41
1.02000
  7
HTX1
  0
TEXT
  8
GT_1
 10
329.729
 20
408.300
 40
3.00000
  1
E 957034
 41
1.02000
  7
HTX1
  0
TEXT
  8
GT_1
 10
329.729
 20
404.300
 40
3.00000
  1
S 1278706
 41
1.02000
  7
HTX1
  0
TEXT
  8
GT_1
 10
329.729
 20
400.300
 40
3.00000
  1
FL+27637
 41
1.02000
  7
HTX1
  0
POLYLINE
  8
GT_1
 66
1
 70
128
 40
0.600000
 41
0.600000
  0
VERTEX
  8
GT_1
 10
410.700
 20
390.400
  0
VERTEX
  8
GT_1
 10
366.500
 20
364.900
  0
SEQEND
  0
POLYLINE
  8
GT_1
 66
1
 70
128
  0
VERTEX
  8
GT_1
 10
412.400
 20
389.400
  0
VERTEX
  8
GT_1
 10
424.700
 20
382.300
  0
SEQEND
  0
POLYLINE
  8
GT_1
 66
1
 70
128
  0
VERTEX
  8
GT_1
 10
422.200
 20
381.600
  0
VERTEX
  8
GT_1
 10
423.700
 20
382.900
  0
VERTEX
  8
GT_1
 10
421.800
 20
382.200
  0
SEQEND
  0
POLYLINE
  8
GT_1
 66
1
 70
128
  0
VERTEX
  8
GT_1
 10
423.700
 20
382.900
  0
VERTEX
  8
GT_1
 10
405.200
 20
372.200
  0
SEQEND
  0
POLYLINE
  8
GT_1
 66
1
 70
128
  0
VERTEX
  8
GT_1
 10
370.000
 20
362.900
  0
VERTEX
  8
GT_1
 10
380.500
 20
356.800
  0
SEQEND
  0
POLYLINE
  8
GT_1
 66
1
 70
128
  0
VERTEX
  8
GT_1
 10
381.000
 20
358.700
  0
VERTEX
  8
GT_1
 10
379.500
 20
357.400
  0
VERTEX
  8
GT_1
 10
381.400
 20
358.100
  0
SEQEND
  0
POLYLINE
  8
GT_1
 66
1
 70
128
  0
VERTEX
  8
GT_1
 10
379.500
 20
357.400
  0
VERTEX
  8
GT_1
 10
398.900
 20
368.600
  0
SEQEND
  0
TEXT
  8
GT_1
 10
399.518
 20
367.568
 40
3.00000
  1
250
 50
30.0000
 41
1.02000
  7
HTX1
  0
POLYLINE
  8
GT_1
 66
1
 70
128
  0
VERTEX
  8
GT_1
 10
365.200
 20
364.900
  0
VERTEX
  8
GT_1
 10
365.400
 20
365.500
  0
VERTEX
  8
GT_1
 10
366.500
 20
365.600
  0
VERTEX
  8
GT_1
 10
367.800
 20
364.900
  0
VERTEX
  8
GT_1
 10
367.600
 20
364.300
  0
VERTEX
  8
GT_1
 10
366.500
 20
364.200
  0
VERTEX
  8
GT_1
 10
365.200
 20
364.900
  0
SEQEND
  0
POLYLINE
  8
GT_1
 66
1
 70
128
  0
VERTEX
  8
GT_1
 10
366.129
 20
364.400
  0
VERTEX
  8
GT_1
 10
367.633
 20
364.400
  0
SEQEND
  0
POLYLINE
  8
GT_1
 66
1
 70
128
  0
VERTEX
  8
GT_1
 10
365.757
 20
364.600
  0
VERTEX
  8
GT_1
 10
367.700
 20
364.600
  0
SEQEND
  0
POLYLINE
  8
GT_1
 66
1
 70
128
  0
VERTEX
  8
GT_1
 10
365.386
 20
364.800
  0
VERTEX
  8
GT_1
 10
367.767
 20
364.800
  0
SEQEND
  0
POLYLINE
  8
GT_1
 66
1
 70
128
  0
VERTEX
  8
GT_1
 10
365.233
 20
365.000
  0
VERTEX
  8
GT_1
 10
367.614
 20
365.000
  0
SEQEND
  0
POLYLINE
  8
GT_1
 66
1
 70
128
  0
VERTEX
  8
GT_1
 10
365.300
 20
365.200
  0
VERTEX
  8
GT_1
 10
367.243
 20
365.200
  0
SEQEND
  0
POLYLINE
  8
GT_1
 66
1
 70
128
  0
VERTEX
  8
GT_1
 10
365.367
 20
365.400
  0
VERTEX
  8
GT_1
 10
366.871
 20
365.400
  0
SEQEND
  0
POLYLINE
  8
GT_1
 66
1
 70
128
  0
VERTEX
  8
GT_1
 10
367.600
 20
364.300
  0
VERTEX
  8
GT_1
 10
380.100
 20
342.600
  0
SEQEND
  0
TEXT
  8
GT_1
 10
381.900
 20
341.400
 40
3.00000
  1
6
 41
1.02000
  7
HTX1
  0
POLYLINE
  8
GT_1
 66
1
 70
128
  0
VERTEX
  8
GT_1
 10
385.414
 20
342.600
 42
1.00000
  0
VERTEX
  8
GT_1
 10
380.100
 20
342.600
 42
1.00000
  0
VERTEX
  8
GT_1
 10
385.414
 20
342.600
  0
SEQEND
  0
POLYLINE
  8
GT_1
 66
1
 70
128
  0
VERTEX
  8
GT_1
 10
366.500
 20
364.900
  0
VERTEX
  8
GT_1
 10
367.900
 20
365.700
  0
VERTEX
  8
GT_1
 10
365.100
 20
367.300
  0
VERTEX
  8
GT_1
 10
362.300
 20
365.700
  0
VERTEX
  8
GT_1
 10
365.100
 20
364.100
  0
VERTEX
  8
GT_1
 10
366.500
 20
364.900
  0
SEQEND
  0
POLYLINE
  8
GT_1
 66
1
 70
128
  0
VERTEX
  8
GT_1
 10
364.400
 20
368.400
  0
VERTEX
  8
GT_1
 10
363.700
 20
366.500
  0
VERTEX
  8
GT_1
 10
365.000
 20
368.000
  0
SEQEND
  0
POLYLINE
  8
GT_1
 66
1
 70
128
  0
VERTEX
  8
GT_1
 10
363.700
 20
366.500
  0
VERTEX
  8
GT_1
 10
378.200
 20
391.600
  0
SEQEND
  0
TEXT
  8
GT_1
 10
378.700
 20
392.100
 40
3.00000
  1
3
 41
1.02000
  7
HTX1
  0
POLYLINE
  8
GT_1
 66
1
 70
128
  0
VERTEX
  8
GT_1
 10
378.200
 20
395.600
  0
VERTEX
  8
GT_1
 10
381.200
 20
395.600
  0
VERTEX
  8
GT_1
 10
381.200
 20
391.600
  0
VERTEX
  8
GT_1
 10
378.200
 20
391.600
  0
VERTEX
  8
GT_1
 10
378.200
 20
395.600
  0
SEQEND
  0
TEXT
  8
GT_1
 10
378.700
 20
388.100
 40
3.00000
  1
250x20DN
 41
1.02000
  7
HTX1
  0
POLYLINE
  8
GT_1
 66
1
 70
128
  0
VERTEX
  8
GT_1
 10
363.000
 20
362.900
  0
VERTEX
  8
GT_1
 10
352.500
 20
356.800
  0
SEQEND
  0
POLYLINE
  8
GT_1
 66
1
 70
128
  0
VERTEX
  8
GT_1
 10
360.200
 20
364.500
  0
VERTEX
  8
GT_1
 10
349.700
 20
358.400
  0
SEQEND
  0
POLYLINE
  8
GT_1
 66
1
 70
128
  0
VERTEX
  8
GT_1
 10
350.400
 20
357.200
  0
VERTEX
  8
GT_1
 10
352.100
 20
358.200
  0
VERTEX
  8
GT_1
 10
350.100
 20
357.900
  0
SEQEND
  0
POLYLINE
  8
GT_1
 66
1
 70
128
  0
VERTEX
  8
GT_1
 10
352.100
 20
358.200
  0
VERTEX
  8
GT_1
 10
347.400
 20
356.500
  0
SEQEND
  0
TEXT
  8
GT_1
 10
340.729
 20
357.000
 40
3.00000
  1
160
 41
1.02000
  7
HTX1
  0
POLYLINE
  8
GT_1
 66
1
 70
128
  6
GT100
  0
VERTEX
  8
GT_1
  6
GT100
 10
363.700
 20
367.200
  0
VERTEX
  8
GT_1
  6
GT100
 10
364.800
 20
367.100
  0
VERTEX
  8
GT_1
  6
GT100
 10
365.000
 20
366.500
  0
VERTEX
  8
GT_1
  6
GT100
 10
363.700
 20
365.800
  0
VERTEX
  8
GT_1
  6
GT100
 10
362.600
 20
365.900
  0
VERTEX
  8
GT_1
  6
GT100
 10
362.400
 20
366.500
  0
VERTEX
  8
GT_1
  6
GT100
 10
363.700
 20
367.200
  0
SEQEND
  0
POLYLINE
  8
GT_1
 66
1
 70
128
  6
GT100
  0
VERTEX
  8
GT_1
  6
GT100
 10
363.400
 20
368.300
  0
VERTEX
  8
GT_1
  6
GT100
 10
365.100
 20
367.300
  0
VERTEX
  8
GT_1
  6
GT100
 10
362.300
 20
365.700
  0
VERTEX
  8
GT_1
  6
GT100
 10
360.600
 20
366.700
  0
SEQEND
  0
POLYLINE
  8
GT_1
 66
1
 70
128
  0
VERTEX
  8
GT_1
 10
362.400
 20
368.000
  0
VERTEX
  8
GT_1
 10
363.700
 20
366.500
  0
VERTEX
  8
GT_1
 10
363.000
 20
368.400
  0
SEQEND
  0
POLYLINE
  8
GT_1
 66
1
 70
128
  0
VERTEX
  8
GT_1
 10
363.700
 20
366.500
  0
VERTEX
  8
GT_1
 10
355.200
 20
381.200
  0
SEQEND
  0
TEXT
  8
GT_1
 10
305.329
 20
381.700
 40
3.00000
  1
CONT. ON
 41
1.02000
  7
HTX1
  0
TEXT
  8
GT_1
 10
305.329
 20
377.700
 40
3.00000
  1
110022-13610-310-CB5H-20
 41
1.02000
  7
HTX1
  0
TEXT
  8
GT_1
 10
305.329
 20
373.700
 40
3.00000
  1
E 956784
 41
1.02000
  7
HTX1
  0
TEXT
  8
GT_1
 10
305.329
 20
369.700
 40
3.00000
  1
S 1278706
 41
1.02000
  7
HTX1
  0
TEXT
  8
GT_1
 10
305.329
 20
365.700
 40
3.00000
  1
FL+27637
 41
1.02000
  7
HTX1
  0
POLYLINE
  8
GT_1
 66
1
 70
128
 40
0.600000
 41
0.600000
  0
VERTEX
  8
GT_1
 10
366.500
 20
364.900
  0
VERTEX
  8
GT_1
 10
328.900
 20
343.200
  0
SEQEND
  0
POLYLINE
  8
GT_1
 66
1
 70
128
  0
VERTEX
  8
GT_1
 10
368.200
 20
363.900
  0
VERTEX
  8
GT_1
 10
376.200
 20
359.300
  0
SEQEND
  0
POLYLINE
  8
GT_1
 66
1
 70
128
  0
VERTEX
  8
GT_1
 10
373.700
 20
358.600
  0
VERTEX
  8
GT_1
 10
375.200
 20
359.900
  0
VERTEX
  8
GT_1
 10
373.300
 20
359.200
  0
SEQEND
  0
POLYLINE
  8
GT_1
 66
1
 70
128
  0
VERTEX
  8
GT_1
 10
375.200
 20
359.900
  0
VERTEX
  8
GT_1
 10
359.900
 20
351.100
  0
SEQEND
  0
POLYLINE
  8
GT_1
 66
1
 70
128
  0
VERTEX
  8
GT_1
 10
332.400
 20
341.200
  0
VERTEX
  8
GT_1
 10
338.600
 20
337.600
  0
SEQEND
  0
POLYLINE
  8
GT_1
 66
1
 70
128
  0
VERTEX
  8
GT_1
 10
339.100
 20
339.500
  0
VERTEX
  8
GT_1
 10
337.600
 20
338.200
  0
VERTEX
  8
GT_1
 10
339.500
 20
338.900
  0
SEQEND
  0
POLYLINE
  8
GT_1
 66
1
 70
128
  0
VERTEX
  8
GT_1
 10
337.600
 20
338.200
  0
VERTEX
  8
GT_1
 10
353.700
 20
347.500
  0
SEQEND
  0
TEXT
  8
GT_1
 10
354.288
 20
346.468
 40
3.00000
  1
134
 50
30.0000
 41
1.02000
  7
HTX1
  0
POLYLINE
  8
GT_1
 66
1
 70
128
  0
VERTEX
  8
GT_1
 10
328.600
 20
345.100
  0
VERTEX
  8
GT_1
 10
325.600
 20
343.300
  0
SEQEND
  0
POLYLINE
  8
GT_1
 66
1
 70
128
  0
VERTEX
  8
GT_1
 10
329.100
 20
341.300
  0
VERTEX
  8
GT_1
 10
332.100
 20
343.100
  0
SEQEND
  0
POLYLINE
  8
GT_1
 66
1
 70
128
  0
VERTEX
  8
GT_1
 10
325.800
 20
345.700
  0
VERTEX
  8
GT_1
 10
327.100
 20
344.200
  0
VERTEX
  8
GT_1
 10
326.400
 20
346.100
  0
SEQEND
  0
POLYLINE
  8
GT_1
 66
1
 70
128
  0
VERTEX
  8
GT_1
 10
327.100
 20
344.200
  0
VERTEX
  8
GT_1
 10
324.600
 20
348.500
  0
SEQEND
  0
TEXT
  8
GT_1
 10
319.986
 20
349.000
 40
3.00000
  1
S7
 41
1.02000
  7
HTX1
  0
POLYLINE
  8
GT_1
 66
1
 70
128
  0
VERTEX
  8
GT_1
 10
319.500
 20
352.500
  0
VERTEX
  8
GT_1
 10
324.600
 20
352.500
  0
VERTEX
  8
GT_1
 10
324.600
 20
348.500
  0
VERTEX
  8
GT_1
 10
319.500
 20
348.500
  0
VERTEX
  8
GT_1
 10
319.500
 20
352.500
  0
SEQEND
  0
POLYLINE
  8
GT_1
 66
1
 70
128
 40
0.600000
 41
0.600000
  0
VERTEX
  8
GT_1
 10
328.900
 20
343.200
  0
VERTEX
  8
GT_1
 10
305.900
 20
329.900
  0
SEQEND
  0
POLYLINE
  8
GT_1
 66
1
 70
128
  0
VERTEX
  8
GT_1
 10
368.200
 20
363.900
  0
VERTEX
  8
GT_1
 10
380.500
 20
356.800
  0
SEQEND
  0
POLYLINE
  8
GT_1
 66
1
 70
128
  0
VERTEX
  8
GT_1
 10
378.000
 20
356.100
  0
VERTEX
  8
GT_1
 10
379.500
 20
357.400
  0
VERTEX
  8
GT_1
 10
377.600
 20
356.700
  0
SEQEND
  0
POLYLINE
  8
GT_1
 66
1
 70
128
  0
VERTEX
  8
GT_1
 10
379.500
 20
357.400
  0
VERTEX
  8
GT_1
 10
352.800
 20
342.000
  0
SEQEND
  0
POLYLINE
  8
GT_1
 66
1
 70
128
  0
VERTEX
  8
GT_1
 10
309.400
 20
327.900
  0
VERTEX
  8
GT_1
 10
319.900
 20
321.800
  0
SEQEND
  0
POLYLINE
  8
GT_1
 66
1
 70
128
  0
VERTEX
  8
GT_1
 10
320.400
 20
323.700
  0
VERTEX
  8
GT_1
 10
318.900
 20
322.400
  0
VERTEX
  8
GT_1
 10
320.800
 20
323.100
  0
SEQEND
  0
POLYLINE
  8
GT_1
 66
1
 70
128
  0
VERTEX
  8
GT_1
 10
318.900
 20
322.400
  0
VERTEX
  8
GT_1
 10
346.500
 20
338.400
  0
SEQEND
  0
TEXT
  8
GT_1
 10
347.118
 20
337.318
 40
3.00000
  1
200
 50
30.0000
 41
1.02000
  7
HTX1
  0
POLYLINE
  8
GT_1
 66
1
 70
128
  0
VERTEX
  8
GT_1
 10
305.300
 20
330.300
  0
VERTEX
  8
GT_1
 10
305.900
 20
331.100
  0
VERTEX
  8
GT_1
 10
306.500
 20
331.000
  0
VERTEX
  8
GT_1
 10
306.500
 20
329.500
  0
VERTEX
  8
GT_1
 10
305.900
 20
328.700
  0
VERTEX
  8
GT_1
 10
305.300
 20
328.800
  0
VERTEX
  8
GT_1
 10
305.300
 20
330.300
  0
SEQEND
  0
POLYLINE
  8
GT_1
 66
1
 70
128
  0
VERTEX
  8
GT_1
 10
305.300
 20
328.800
  0
VERTEX
  8
GT_1
 10
305.975
 20
328.800
  0
SEQEND
  0
POLYLINE
  8
GT_1
 66
1
 70
128
  0
VERTEX
  8
GT_1
 10
305.300
 20
329.000
  0
VERTEX
  8
GT_1
 10
306.125
 20
329.000
  0
SEQEND
  0
POLYLINE
  8
GT_1
 66
1
 70
128
  0
VERTEX
  8
GT_1
 10
305.300
 20
329.200
  0
VERTEX
  8
GT_1
 10
306.275
 20
329.200
  0
SEQEND
  0
POLYLINE
  8
GT_1
 66
1
 70
128
  0
VERTEX
  8
GT_1
 10
305.300
 20
329.400
  0
VERTEX
  8
GT_1
 10
306.425
 20
329.400
  0
SEQEND
  0
POLYLINE
  8
GT_1
 66
1
 70
128
  0
VERTEX
  8
GT_1
 10
305.300
 20
329.600
  0
VERTEX
  8
GT_1
 10
306.500
 20
329.600
  0
SEQEND
  0
POLYLINE
  8
GT_1
 66
1
 70
128
  0
VERTEX
  8
GT_1
 10
305.300
 20
329.800
  0
VERTEX
  8
GT_1
 10
306.500
 20
329.800
  0
SEQEND
  0
POLYLINE
  8
GT_1
 66
1
 70
128
  0
VERTEX
  8
GT_1
 10
305.300
 20
330.000
  0
VERTEX
  8
GT_1
 10
306.500
 20
330.000
  0
SEQEND
  0
POLYLINE
  8
GT_1
 66
1
 70
128
  0
VERTEX
  8
GT_1
 10
305.300
 20
330.200
  0
VERTEX
  8
GT_1
 10
306.500
 20
330.200
  0
SEQEND
  0
POLYLINE
  8
GT_1
 66
1
 70
128
  0
VERTEX
  8
GT_1
 10
305.375
 20
330.400
  0
VERTEX
  8
GT_1
 10
306.500
 20
330.400
  0
SEQEND
  0
POLYLINE
  8
GT_1
 66
1
 70
128
  0
VERTEX
  8
GT_1
 10
305.525
 20
330.600
  0
VERTEX
  8
GT_1
 10
306.500
 20
330.600
  0
SEQEND
  0
POLYLINE
  8
GT_1
 66
1
 70
128
  0
VERTEX
  8
GT_1
 10
305.675
 20
330.800
  0
VERTEX
  8
GT_1
 10
306.500
 20
330.800
  0
SEQEND
  0
POLYLINE
  8
GT_1
 66
1
 70
128
  0
VERTEX
  8
GT_1
 10
305.825
 20
331.000
  0
VERTEX
  8
GT_1
 10
306.500
 20
331.000
  0
SEQEND
  0
POLYLINE
  8
GT_1
 66
1
 70
128
  0
VERTEX
  8
GT_1
 10
305.900
 20
328.700
  0
VERTEX
  8
GT_1
 10
316.400
 20
310.500
  0
SEQEND
  0
TEXT
  8
GT_1
 10
318.200
 20
309.300
 40
3.00000
  1
7
 41
1.02000
  7
HTX1
  0
POLYLINE
  8
GT_1
 66
1
 70
128
  0
VERTEX
  8
GT_1
 10
321.714
 20
310.500
 42
1.00000
  0
VERTEX
  8
GT_1
 10
316.400
 20
310.500
 42
1.00000
  0
VERTEX
  8
GT_1
 10
321.714
 20
310.500
  0
SEQEND
  0
POLYLINE
  8
GT_1
 66
1
 70
128
  0
VERTEX
  8
GT_1
 10
305.900
 20
329.900
  0
VERTEX
  8
GT_1
 10
307.300
 20
330.700
  0
VERTEX
  8
GT_1
 10
307.300
 20
333.900
  0
VERTEX
  8
GT_1
 10
304.500
 20
332.300
  0
VERTEX
  8
GT_1
 10
304.500
 20
329.100
  0
VERTEX
  8
GT_1
 10
305.900
 20
329.900
  0
SEQEND
  0
POLYLINE
  8
GT_1
 66
1
 70
128
  0
VERTEX
  8
GT_1
 10
303.900
 20
333.400
  0
VERTEX
  8
GT_1
 10
305.900
 20
333.100
  0
VERTEX
  8
GT_1
 10
304.200
 20
334.100
  0
SEQEND
  0
POLYLINE
  8
GT_1
 66
1
 70
128
  0
VERTEX
  8
GT_1
 10
305.900
 20
333.100
  0
VERTEX
  8
GT_1
 10
286.200
 20
340.300
  0
SEQEND
  0
TEXT
  8
GT_1
 10
269.243
 20
340.800
 40
3.00000
  1
4
 41
1.02000
  7
HTX1
  0
POLYLINE
  8
GT_1
 66
1
 70
128
  0
VERTEX
  8
GT_1
 10
268.700
 20
344.300
  0
VERTEX
  8
GT_1
 10
271.700
 20
344.300
  0
VERTEX
  8
GT_1
 10
271.700
 20
340.300
  0
VERTEX
  8
GT_1
 10
268.700
 20
340.300
  0
VERTEX
  8
GT_1
 10
268.700
 20
344.300
  0
SEQEND
  0
TEXT
  8
GT_1
 10
269.243
 20
336.800
 40
3.00000
  1
250x25DN
 41
1.02000
  7
HTX1
  0
POLYLINE
  8
GT_1
 66
1
 70
128
  0
VERTEX
  8
GT_1
 10
302.400
 20
327.900
  0
VERTEX
  8
GT_1
 10
291.900
 20
321.800
  0
SEQEND
  0
POLYLINE
  8
GT_1
 66
1
 70
128
  0
VERTEX
  8
GT_1
 10
302.400
 20
331.100
  0
VERTEX
  8
GT_1
 10
291.900
 20
325.000
  0
SEQEND
  0
POLYLINE
  8
GT_1
 66
1
 70
128
  0
VERTEX
  8
GT_1
 10
290.900
 20
323.700
  0
VERTEX
  8
GT_1
 10
292.900
 20
324.000
  0
VERTEX
  8
GT_1
 10
290.900
 20
324.300
  0
SEQEND
  0
POLYLINE
  8
GT_1
 66
1
 70
128
  0
VERTEX
  8
GT_1
 10
292.900
 20
324.000
  0
VERTEX
  8
GT_1
 10
287.900
 20
324.000
  0
SEQEND
  0
TEXT
  8
GT_1
 10
281.229
 20
324.500
 40
3.00000
  1
165
 41
1.02000
  7
HTX1
  0
POLYLINE
  8
GT_1
 66
1
 70
128
  0
VERTEX
  8
GT_1
 10
305.900
 20
333.100
  0
VERTEX
  8
GT_1
 10
307.300
 20
333.900
  0
VERTEX
  8
GT_1
 10
307.300
 20
335.900
  0
VERTEX
  8
GT_1
 10
304.500
 20
334.300
  0
VERTEX
  8
GT_1
 10
304.500
 20
332.300
  0
VERTEX
  8
GT_1
 10
305.900
 20
333.100
  0
SEQEND
  0
POLYLINE
  8
GT_1
 66
1
 70
128
  0
VERTEX
  8
GT_1
 10
307.300
 20
333.900
  0
VERTEX
  8
GT_1
 10
307.100
 20
335.800
  0
VERTEX
  8
GT_1
 10
306.700
 20
333.600
  0
VERTEX
  8
GT_1
 10
306.400
 20
335.400
  0
VERTEX
  8
GT_1
 10
306.000
 20
333.200
  0
VERTEX
  8
GT_1
 10
305.700
 20
335.000
  0
VERTEX
  8
GT_1
 10
305.300
 20
332.800
  0
VERTEX
  8
GT_1
 10
305.000
 20
334.600
  0
VERTEX
  8
GT_1
 10
304.700
 20
332.400
  0
VERTEX
  8
GT_1
 10
304.700
 20
334.400
  0
VERTEX
  8
GT_1
 10
305.000
 20
332.600
  0
VERTEX
  8
GT_1
 10
305.300
 20
334.800
  0
VERTEX
  8
GT_1
 10
305.700
 20
333.000
  0
VERTEX
  8
GT_1
 10
306.000
 20
335.200
  0
VERTEX
  8
GT_1
 10
306.400
 20
333.400
  0
VERTEX
  8
GT_1
 10
306.700
 20
335.600
  0
VERTEX
  8
GT_1
 10
307.100
 20
333.800
  0
VERTEX
  8
GT_1
 10
307.300
 20
335.900
  0
SEQEND
  0
POLYLINE
  8
GT_1
 66
1
 70
128
  0
VERTEX
  8
GT_1
 10
304.500
 20
333.300
  0
VERTEX
  8
GT_1
 10
294.000
 20
315.100
  0
SEQEND
  0
TEXT
  8
GT_1
 10
290.486
 20
313.900
 40
3.00000
  1
8
 41
1.02000
  7
HTX1
  0
POLYLINE
  8
GT_1
 66
1
 70
128
  0
VERTEX
  8
GT_1
 10
288.686
 20
315.100
 42
1.00000
  0
VERTEX
  8
GT_1
 10
294.000
 20
315.100
 42
1.00000
  0
VERTEX
  8
GT_1
 10
288.686
 20
315.100
  0
SEQEND
  0
POLYLINE
  8
GT_1
 66
1
 70
128
  0
VERTEX
  8
GT_1
 10
307.900
 20
333.400
  0
VERTEX
  8
GT_1
 10
305.900
 20
333.100
  0
VERTEX
  8
GT_1
 10
307.900
 20
332.800
  0
SEQEND
  0
POLYLINE
  8
GT_1
 66
1
 70
128
  0
VERTEX
  8
GT_1
 10
305.900
 20
333.100
  0
VERTEX
  8
GT_1
 10
358.900
 20
333.100
  0
SEQEND
  0
TEXT
  8
GT_1
 10
359.400
 20
333.600
 40
3.00000
  1
E 956584
 41
1.02000
  7
HTX1
  0
TEXT
  8
GT_1
 10
359.400
 20
329.600
 40
3.00000
  1
S 1278866
 41
1.02000
  7
HTX1
  0
TEXT
  8
GT_1
 10
359.400
 20
325.600
 40
3.00000
  1
FL+27801
 41
1.02000
  7
HTX1
  0
POLYLINE
  8
GT_1
 66
1
 70
128
  0
VERTEX
  8
GT_1
 10
305.900
 20
333.100
  0
VERTEX
  8
GT_1
 10
305.900
 20
337.100
  0
SEQEND
  0
POLYLINE
  8
GT_1
 66
1
 70
128
  0
VERTEX
  8
GT_1
 10
305.900
 20
337.100
 42
1.00000
  0
VERTEX
  8
GT_1
 10
305.900
 20
351.500
 42
1.00000
  0
VERTEX
  8
GT_1
 10
305.900
 20
337.100
  0
SEQEND
  0
TEXT
  8
GT_1
 10
300.414
 20
347.043
 40
3.00000
  1
2
 41
1.02000
  7
HTX1
  0
TEXT
  8
GT_1
 10
300.414
 20
343.043
 40
3.00000
  1
FW
 41
1.02000
  7
HTX1
  0
TEXT
  8
GT_1
 10
300.414
 20
339.043
 40
3.00000
  1
TI-611
 41
1.02000
  7
HTX1
  0
POLYLINE
  8
GT_1
 66
1
 70
128
  0
VERTEX
  8
GT_1
 10
297.700
 20
340.400
  0
VERTEX
  8
GT_1
 10
299.700
 20
340.700
  0
VERTEX
  8
GT_1
 10
297.700
 20
341.000
  0
SEQEND
  0
POLYLINE
  8
GT_1
 66
1
 70
128
  0
VERTEX
  8
GT_1
 10
299.700
 20
340.700
  0
VERTEX
  8
GT_1
 10
294.700
 20
340.700
  0
SEQEND
  0
TEXT
  8
GT_1
 10
292.143
 20
341.200
 40
3.00000
  1
5
 41
1.02000
  7
HTX1
  0
POLYLINE
  8
GT_1
 66
1
 70
128
  0
VERTEX
  8
GT_1
 10
291.600
 20
344.700
  0
VERTEX
  8
GT_1
 10
294.600
 20
344.700
  0
VERTEX
  8
GT_1
 10
294.600
 20
340.700
  0
VERTEX
  8
GT_1
 10
291.600
 20
340.700
  0
VERTEX
  8
GT_1
 10
291.600
 20
344.700
  0
SEQEND
  0
POLYLINE
  8
GT_1
 66
1
 70
128
 40
0.600000
 41
0.600000
  0
VERTEX
  8
GT_1
 10
305.900
 20
329.900
  0
VERTEX
  8
GT_1
 10
253.200
 20
299.500
  0
SEQEND
  0
POLYLINE
  8
GT_1
 66
1
 70
128
  0
VERTEX
  8
GT_1
 10
305.900
 20
327.900
  0
VERTEX
  8
GT_1
 10
305.900
 20
313.700
  0
SEQEND
  0
POLYLINE
  8
GT_1
 66
1
 70
128
  0
VERTEX
  8
GT_1
 10
304.400
 20
313.600
  0
VERTEX
  8
GT_1
 10
305.900
 20
314.900
  0
VERTEX
  8
GT_1
 10
304.000
 20
314.200
  0
SEQEND
  0
POLYLINE
  8
GT_1
 66
1
 70
128
  0
VERTEX
  8
GT_1
 10
305.900
 20
314.900
  0
VERTEX
  8
GT_1
 10
283.100
 20
301.800
  0
SEQEND
  0
POLYLINE
  8
GT_1
 66
1
 70
128
  0
VERTEX
  8
GT_1
 10
253.200
 20
295.500
  0
VERTEX
  8
GT_1
 10
253.200
 20
283.300
  0
SEQEND
  0
POLYLINE
  8
GT_1
 66
1
 70
128
  0
VERTEX
  8
GT_1
 10
254.700
 20
285.800
  0
VERTEX
  8
GT_1
 10
253.200
 20
284.500
  0
VERTEX
  8
GT_1
 10
255.100
 20
285.200
  0
SEQEND
  0
POLYLINE
  8
GT_1
 66
1
 70
128
  0
VERTEX
  8
GT_1
 10
253.200
 20
284.500
  0
VERTEX
  8
GT_1
 10
276.900
 20
298.200
  0
SEQEND
  0
TEXT
  8
GT_1
 10
277.478
 20
297.118
 40
3.00000
  1
200
 50
30.0000
 41
1.02000
  7
HTX1
  0
POLYLINE
  8
GT_1
 66
1
 70
128
  0
VERTEX
  8
GT_1
 10
252.600
 20
299.900
  0
VERTEX
  8
GT_1
 10
253.200
 20
300.700
  0
VERTEX
  8
GT_1
 10
253.800
 20
300.600
  0
VERTEX
  8
GT_1
 10
253.800
 20
299.100
  0
VERTEX
  8
GT_1
 10
253.200
 20
298.300
  0
VERTEX
  8
GT_1
 10
252.600
 20
298.400
  0
VERTEX
  8
GT_1
 10
252.600
 20
299.900
  0
SEQEND
  0
POLYLINE
  8
GT_1
 66
1
 70
128
  0
VERTEX
  8
GT_1
 10
252.600
 20
298.400
  0
VERTEX
  8
GT_1
 10
253.275
 20
298.400
  0
SEQEND
  0
POLYLINE
  8
GT_1
 66
1
 70
128
  0
VERTEX
  8
GT_1
 10
252.600
 20
298.600
  0
VERTEX
  8
GT_1
 10
253.425
 20
298.600
  0
SEQEND
  0
POLYLINE
  8
GT_1
 66
1
 70
128
  0
VERTEX
  8
GT_1
 10
252.600
 20
298.800
  0
VERTEX
  8
GT_1
 10
253.575
 20
298.800
  0
SEQEND
  0
POLYLINE
  8
GT_1
 66
1
 70
128
  0
VERTEX
  8
GT_1
 10
252.600
 20
299.000
  0
VERTEX
  8
GT_1
 10
253.725
 20
299.000
  0
SEQEND
  0
POLYLINE
  8
GT_1
 66
1
 70
128
  0
VERTEX
  8
GT_1
 10
252.600
 20
299.200
  0
VERTEX
  8
GT_1
 10
253.800
 20
299.200
  0
SEQEND
  0
POLYLINE
  8
GT_1
 66
1
 70
128
  0
VERTEX
  8
GT_1
 10
252.600
 20
299.400
  0
VERTEX
  8
GT_1
 10
253.800
 20
299.400
  0
SEQEND
  0
POLYLINE
  8
GT_1
 66
1
 70
128
  0
VERTEX
  8
GT_1
 10
252.600
 20
299.600
  0
VERTEX
  8
GT_1
 10
253.800
 20
299.600
  0
SEQEND
  0
POLYLINE
  8
GT_1
 66
1
 70
128
  0
VERTEX
  8
GT_1
 10
252.600
 20
299.800
  0
VERTEX
  8
GT_1
 10
253.800
 20
299.800
  0
SEQEND
  0
POLYLINE
  8
GT_1
 66
1
 70
128
  0
VERTEX
  8
GT_1
 10
252.675
 20
300.000
  0
VERTEX
  8
GT_1
 10
253.800
 20
300.000
  0
SEQEND
  0
POLYLINE
  8
GT_1
 66
1
 70
128
  0
VERTEX
  8
GT_1
 10
252.825
 20
300.200
  0
VERTEX
  8
GT_1
 10
253.800
 20
300.200
  0
SEQEND
  0
POLYLINE
  8
GT_1
 66
1
 70
128
  0
VERTEX
  8
GT_1
 10
252.975
 20
300.400
  0
VERTEX
  8
GT_1
 10
253.800
 20
300.400
  0
SEQEND
  0
POLYLINE
  8
GT_1
 66
1
 70
128
  0
VERTEX
  8
GT_1
 10
253.125
 20
300.600
  0
VERTEX
  8
GT_1
 10
253.800
 20
300.600
  0
SEQEND
  0
POLYLINE
  8
GT_1
 66
1
 70
128
  0
VERTEX
  8
GT_1
 10
253.200
 20
298.300
  0
VERTEX
  8
GT_1
 10
246.700
 20
287.000
  0
SEQEND
  0
TEXT
  8
GT_1
 10
243.186
 20
285.800
 40
3.00000
  1
9
 41
1.02000
  7
HTX1
  0
POLYLINE
  8
GT_1
 66
1
 70
128
  0
VERTEX
  8
GT_1
 10
241.386
 20
287.000
 42
1.00000
  0
VERTEX
  8
GT_1
 10
246.700
 20
287.000
 42
1.00000
  0
VERTEX
  8
GT_1
 10
241.386
 20
287.000
  0
SEQEND
  0
POLYLINE
  8
GT_1
 66
1
 70
128
  0
VERTEX
  8
GT_1
 10
253.200
 20
299.500
  0
VERTEX
  8
GT_1
 10
254.600
 20
300.300
  0
VERTEX
  8
GT_1
 10
254.600
 20
303.500
  0
VERTEX
  8
GT_1
 10
251.800
 20
301.900
  0
VERTEX
  8
GT_1
 10
251.800
 20
298.700
  0
VERTEX
  8
GT_1
 10
253.200
 20
299.500
  0
SEQEND
  0
POLYLINE
  8
GT_1
 66
1
 70
128
  0
VERTEX
  8
GT_1
 10
251.200
 20
303.000
  0
VERTEX
  8
GT_1
 10
253.200
 20
302.700
  0
VERTEX
  8
GT_1
 10
251.500
 20
303.700
  0
SEQEND
  0
POLYLINE
  8
GT_1
 66
1
 70
128
  0
VERTEX
  8
GT_1
 10
253.200
 20
302.700
  0
VERTEX
  8
GT_1
 10
233.500
 20
309.900
  0
SEQEND
  0
TEXT
  8
GT_1
 10
216.543
 20
310.400
 40
3.00000
  1
4
 41
1.02000
  7
HTX1
  0
POLYLINE
  8
GT_1
 66
1
 70
128
  0
VERTEX
  8
GT_1
 10
216.000
 20
313.900
  0
VERTEX
  8
GT_1
 10
219.000
 20
313.900
  0
VERTEX
  8
GT_1
 10
219.000
 20
309.900
  0
VERTEX
  8
GT_1
 10
216.000
 20
309.900
  0
VERTEX
  8
GT_1
 10
216.000
 20
313.900
  0
SEQEND
  0
TEXT
  8
GT_1
 10
216.543
 20
306.400
 40
3.00000
  1
250x25DN
 41
1.02000
  7
HTX1
  0
POLYLINE
  8
GT_1
 66
1
 70
128
  0
VERTEX
  8
GT_1
 10
249.700
 20
297.500
  0
VERTEX
  8
GT_1
 10
239.200
 20
291.400
  0
SEQEND
  0
POLYLINE
  8
GT_1
 66
1
 70
128
  0
VERTEX
  8
GT_1
 10
249.700
 20
300.700
  0
VERTEX
  8
GT_1
 10
239.200
 20
294.600
  0
SEQEND
  0
POLYLINE
  8
GT_1
 66
1
 70
128
  0
VERTEX
  8
GT_1
 10
238.200
 20
293.300
  0
VERTEX
  8
GT_1
 10
240.200
 20
293.600
  0
VERTEX
  8
GT_1
 10
238.200
 20
293.900
  0
SEQEND
  0
POLYLINE
  8
GT_1
 66
1
 70
128
  0
VERTEX
  8
GT_1
 10
240.200
 20
293.600
  0
VERTEX
  8
GT_1
 10
235.200
 20
293.600
  0
SEQEND
  0
TEXT
  8
GT_1
 10
228.529
 20
294.100
 40
3.00000
  1
165
 41
1.02000
  7
HTX1
  0
POLYLINE
  8
GT_1
 66
1
 70
128
  0
VERTEX
  8
GT_1
 10
253.200
 20
302.700
  0
VERTEX
  8
GT_1
 10
254.600
 20
303.500
  0
VERTEX
  8
GT_1
 10
254.600
 20
305.500
  0
VERTEX
  8
GT_1
 10
251.800
 20
303.900
  0
VERTEX
  8
GT_1
 10
251.800
 20
301.900
  0
VERTEX
  8
GT_1
 10
253.200
 20
302.700
  0
SEQEND
  0
POLYLINE
  8
GT_1
 66
1
 70
128
  0
VERTEX
  8
GT_1
 10
254.600
 20
303.500
  0
VERTEX
  8
GT_1
 10
254.400
 20
305.400
  0
VERTEX
  8
GT_1
 10
254.000
 20
303.200
  0
VERTEX
  8
GT_1
 10
253.700
 20
305.000
  0
VERTEX
  8
GT_1
 10
253.300
 20
302.800
  0
VERTEX
  8
GT_1
 10
253.000
 20
304.600
  0
VERTEX
  8
GT_1
 10
252.600
 20
302.400
  0
VERTEX
  8
GT_1
 10
252.300
 20
304.200
  0
VERTEX
  8
GT_1
 10
252.000
 20
302.000
  0
VERTEX
  8
GT_1
 10
252.000
 20
304.000
  0
VERTEX
  8
GT_1
 10
252.300
 20
302.200
  0
VERTEX
  8
GT_1
 10
252.600
 20
304.400
  0
VERTEX
  8
GT_1
 10
253.000
 20
302.600
  0
VERTEX
  8
GT_1
 10
253.300
 20
304.800
  0
VERTEX
  8
GT_1
 10
253.700
 20
303.000
  0
VERTEX
  8
GT_1
 10
254.000
 20
305.200
  0
VERTEX
  8
GT_1
 10
254.400
 20
303.400
  0
VERTEX
  8
GT_1
 10
254.600
 20
305.500
  0
SEQEND
  0
POLYLINE
  8
GT_1
 66
1
 70
128
  0
VERTEX
  8
GT_1
 10
254.600
 20
304.500
  0
VERTEX
  8
GT_1
 10
307.600
 20
304.500
  0
SEQEND
  0
TEXT
  8
GT_1
 10
308.371
 20
303.300
 40
3.00000
  1
10
 41
1.02000
  7
HTX1
  0
POLYLINE
  8
GT_1
 66
1
 70
128
  0
VERTEX
  8
GT_1
 10
312.914
 20
304.500
 42
1.00000
  0
VERTEX
  8
GT_1
 10
307.600
 20
304.500
 42
1.00000
  0
VERTEX
  8
GT_1
 10
312.914
 20
304.500
  0
SEQEND
  0
POLYLINE
  8
GT_1
 66
1
 70
128
  0
VERTEX
  8
GT_1
 10
255.200
 20
302.400
  0
VERTEX
  8
GT_1
 10
253.200
 20
302.700
  0
VERTEX
  8
GT_1
 10
254.900
 20
301.700
  0
SEQEND
  0
POLYLINE
  8
GT_1
 66
1
 70
128
  0
VERTEX
  8
GT_1
 10
253.200
 20
302.700
  0
VERTEX
  8
GT_1
 10
288.000
 20
290.000
  0
SEQEND
  0
TEXT
  8
GT_1
 10
288.500
 20
290.500
 40
3.00000
  1
E 956384
 41
1.02000
  7
HTX1
  0
TEXT
  8
GT_1
 10
288.500
 20
286.500
 40
3.00000
  1
S 1278866
 41
1.02000
  7
HTX1
  0
TEXT
  8
GT_1
 10
288.500
 20
282.500
 40
3.00000
  1
FL+27801
 41
1.02000
  7
HTX1
  0
POLYLINE
  8
GT_1
 66
1
 70
128
  0
VERTEX
  8
GT_1
 10
253.200
 20
302.700
  0
VERTEX
  8
GT_1
 10
253.200
 20
306.700
  0
SEQEND
  0
POLYLINE
  8
GT_1
 66
1
 70
128
  0
VERTEX
  8
GT_1
 10
253.200
 20
306.700
 42
1.00000
  0
VERTEX
  8
GT_1
 10
253.200
 20
321.100
 42
1.00000
  0
VERTEX
  8
GT_1
 10
253.200
 20
306.700
  0
SEQEND
  0
TEXT
  8
GT_1
 10
247.714
 20
316.643
 40
3.00000
  1
2
 41
1.02000
  7
HTX1
  0
TEXT
  8
GT_1
 10
247.714
 20
312.643
 40
3.00000
  1
FW
 41
1.02000
  7
HTX1
  0
TEXT
  8
GT_1
 10
247.714
 20
308.643
 40
3.00000
  1
TT-611
 41
1.02000
  7
HTX1
  0
POLYLINE
  8
GT_1
 66
1
 70
128
  0
VERTEX
  8
GT_1
 10
245.000
 20
310.000
  0
VERTEX
  8
GT_1
 10
247.000
 20
310.300
  0
VERTEX
  8
GT_1
 10
245.000
 20
310.600
  0
SEQEND
  0
POLYLINE
  8
GT_1
 66
1
 70
128
  0
VERTEX
  8
GT_1
 10
247.000
 20
310.300
  0
VERTEX
  8
GT_1
 10
242.000
 20
310.300
  0
SEQEND
  0
TEXT
  8
GT_1
 10
239.443
 20
310.800
 40
3.00000
  1
6
 41
1.02000
  7
HTX1
  0
POLYLINE
  8
GT_1
 66
1
 70
128
  0
VERTEX
  8
GT_1
 10
238.900
 20
314.300
  0
VERTEX
  8
GT_1
 10
241.900
 20
314.300
  0
VERTEX
  8
GT_1
 10
241.900
 20
310.300
  0
VERTEX
  8
GT_1
 10
238.900
 20
310.300
  0
VERTEX
  8
GT_1
 10
238.900
 20
314.300
  0
SEQEND
  0
POLYLINE
  8
GT_1
 66
1
 70
128
 40
0.600000
 41
0.600000
  0
VERTEX
  8
GT_1
 10
253.200
 20
299.500
  0
VERTEX
  8
GT_1
 10
200.500
 20
269.100
  0
SEQEND
  0
POLYLINE
  8
GT_1
 66
1
 70
128
  0
VERTEX
  8
GT_1
 10
253.200
 20
297.500
  0
VERTEX
  8
GT_1
 10
253.200
 20
283.300
  0
SEQEND
  0
POLYLINE
  8
GT_1
 66
1
 70
128
  0
VERTEX
  8
GT_1
 10
251.700
 20
283.200
  0
VERTEX
  8
GT_1
 10
253.200
 20
284.500
  0
VERTEX
  8
GT_1
 10
251.300
 20
283.800
  0
SEQEND
  0
POLYLINE
  8
GT_1
 66
1
 70
128
  0
VERTEX
  8
GT_1
 10
253.200
 20
284.500
  0
VERTEX
  8
GT_1
 10
230.400
 20
271.400
  0
SEQEND
  0
POLYLINE
  8
GT_1
 66
1
 70
128
  0
VERTEX
  8
GT_1
 10
200.500
 20
265.100
  0
VERTEX
  8
GT_1
 10
200.500
 20
252.900
  0
SEQEND
  0
POLYLINE
  8
GT_1
 66
1
 70
128
  0
VERTEX
  8
GT_1
 10
202.000
 20
255.400
  0
VERTEX
  8
GT_1
 10
200.500
 20
254.100
  0
VERTEX
  8
GT_1
 10
202.400
 20
254.800
  0
SEQEND
  0
POLYLINE
  8
GT_1
 66
1
 70
128
  0
VERTEX
  8
GT_1
 10
200.500
 20
254.100
  0
VERTEX
  8
GT_1
 10
224.200
 20
267.800
  0
SEQEND
  0
TEXT
  8
GT_1
 10
224.778
 20
266.718
 40
3.00000
  1
200
 50
30.0000
 41
1.02000
  7
HTX1
  0
POLYLINE
  8
GT_1
 66
1
 70
128
  0
VERTEX
  8
GT_1
 10
199.900
 20
269.500
  0
VERTEX
  8
GT_1
 10
200.500
 20
270.300
  0
VERTEX
  8
GT_1
 10
201.100
 20
270.200
  0
VERTEX
  8
GT_1
 10
201.100
 20
268.700
  0
VERTEX
  8
GT_1
 10
200.500
 20
267.900
  0
VERTEX
  8
GT_1
 10
199.900
 20
268.000
  0
VERTEX
  8
GT_1
 10
199.900
 20
269.500
  0
SEQEND
  0
POLYLINE
  8
GT_1
 66
1
 70
128
  0
VERTEX
  8
GT_1
 10
199.900
 20
268.000
  0
VERTEX
  8
GT_1
 10
200.575
 20
268.000
  0
SEQEND
  0
POLYLINE
  8
GT_1
 66
1
 70
128
  0
VERTEX
  8
GT_1
 10
199.900
 20
268.200
  0
VERTEX
  8
GT_1
 10
200.725
 20
268.200
  0
SEQEND
  0
POLYLINE
  8
GT_1
 66
1
 70
128
  0
VERTEX
  8
GT_1
 10
199.900
 20
268.400
  0
VERTEX
  8
GT_1
 10
200.875
 20
268.400
  0
SEQEND
  0
POLYLINE
  8
GT_1
 66
1
 70
128
  0
VERTEX
  8
GT_1
 10
199.900
 20
268.600
  0
VERTEX
  8
GT_1
 10
201.025
 20
268.600
  0
SEQEND
  0
POLYLINE
  8
GT_1
 66
1
 70
128
  0
VERTEX
  8
GT_1
 10
199.900
 20
268.800
  0
VERTEX
  8
GT_1
 10
201.100
 20
268.800
  0
SEQEND
  0
POLYLINE
  8
GT_1
 66
1
 70
128
  0
VERTEX
  8
GT_1
 10
199.900
 20
269.000
  0
VERTEX
  8
GT_1
 10
201.100
 20
269.000
  0
SEQEND
  0
POLYLINE
  8
GT_1
 66
1
 70
128
  0
VERTEX
  8
GT_1
 10
199.900
 20
269.200
  0
VERTEX
  8
GT_1
 10
201.100
 20
269.200
  0
SEQEND
  0
POLYLINE
  8
GT_1
 66
1
 70
128
  0
VERTEX
  8
GT_1
 10
199.900
 20
269.400
  0
VERTEX
  8
GT_1
 10
201.100
 20
269.400
  0
SEQEND
  0
POLYLINE
  8
GT_1
 66
1
 70
128
  0
VERTEX
  8
GT_1
 10
199.975
 20
269.600
  0
VERTEX
  8
GT_1
 10
201.100
 20
269.600
  0
SEQEND
  0
POLYLINE
  8
GT_1
 66
1
 70
128
  0
VERTEX
  8
GT_1
 10
200.125
 20
269.800
  0
VERTEX
  8
GT_1
 10
201.100
 20
269.800
  0
SEQEND
  0
POLYLINE
  8
GT_1
 66
1
 70
128
  0
VERTEX
  8
GT_1
 10
200.275
 20
270.000
  0
VERTEX
  8
GT_1
 10
201.100
 20
270.000
  0
SEQEND
  0
POLYLINE
  8
GT_1
 66
1
 70
128
  0
VERTEX
  8
GT_1
 10
200.425
 20
270.200
  0
VERTEX
  8
GT_1
 10
201.100
 20
270.200
  0
SEQEND
  0
POLYLINE
  8
GT_1
 66
1
 70
128
  0
VERTEX
  8
GT_1
 10
200.500
 20
267.900
  0
VERTEX
  8
GT_1
 10
211.000
 20
249.700
  0
SEQEND
  0
TEXT
  8
GT_1
 10
211.771
 20
248.500
 40
3.00000
  1
11
 41
1.02000
  7
HTX1
  0
POLYLINE
  8
GT_1
 66
1
 70
128
  0
VERTEX
  8
GT_1
 10
216.314
 20
249.700
 42
1.00000
  0
VERTEX
  8
GT_1
 10
211.000
 20
249.700
 42
1.00000
  0
VERTEX
  8
GT_1
 10
216.314
 20
249.700
  0
SEQEND
  0
POLYLINE
  8
GT_1
 66
1
 70
128
  0
VERTEX
  8
GT_1
 10
200.500
 20
269.100
  0
VERTEX
  8
GT_1
 10
201.900
 20
269.900
  0
VERTEX
  8
GT_1
 10
201.900
 20
273.100
  0
VERTEX
  8
GT_1
 10
199.100
 20
271.500
  0
VERTEX
  8
GT_1
 10
199.100
 20
268.300
  0
VERTEX
  8
GT_1
 10
200.500
 20
269.100
  0
SEQEND
  0
POLYLINE
  8
GT_1
 66
1
 70
128
  0
VERTEX
  8
GT_1
 10
198.500
 20
272.600
  0
VERTEX
  8
GT_1
 10
200.500
 20
272.300
  0
VERTEX
  8
GT_1
 10
198.800
 20
273.300
  0
SEQEND
  0
POLYLINE
  8
GT_1
 66
1
 70
128
  0
VERTEX
  8
GT_1
 10
200.500
 20
272.300
  0
VERTEX
  8
GT_1
 10
180.800
 20
279.500
  0
SEQEND
  0
TEXT
  8
GT_1
 10
163.843
 20
280.000
 40
3.00000
  1
4
 41
1.02000
  7
HTX1
  0
POLYLINE
  8
GT_1
 66
1
 70
128
  0
VERTEX
  8
GT_1
 10
163.300
 20
283.500
  0
VERTEX
  8
GT_1
 10
166.300
 20
283.500
  0
VERTEX
  8
GT_1
 10
166.300
 20
279.500
  0
VERTEX
  8
GT_1
 10
163.300
 20
279.500
  0
VERTEX
  8
GT_1
 10
163.300
 20
283.500
  0
SEQEND
  0
TEXT
  8
GT_1
 10
163.843
 20
276.000
 40
3.00000
  1
250x25DN
 41
1.02000
  7
HTX1
  0
POLYLINE
  8
GT_1
 66
1
 70
128
  0
VERTEX
  8
GT_1
 10
197.000
 20
267.100
  0
VERTEX
  8
GT_1
 10
186.500
 20
261.000
  0
SEQEND
  0
POLYLINE
  8
GT_1
 66
1
 70
128
  0
VERTEX
  8
GT_1
 10
197.000
 20
270.300
  0
VERTEX
  8
GT_1
 10
186.500
 20
264.200
  0
SEQEND
  0
POLYLINE
  8
GT_1
 66
1
 70
128
  0
VERTEX
  8
GT_1
 10
185.500
 20
262.900
  0
VERTEX
  8
GT_1
 10
187.500
 20
263.200
  0
VERTEX
  8
GT_1
 10
185.500
 20
263.500
  0
SEQEND
  0
POLYLINE
  8
GT_1
 66
1
 70
128
  0
VERTEX
  8
GT_1
 10
187.500
 20
263.200
  0
VERTEX
  8
GT_1
 10
182.500
 20
263.200
  0
SEQEND
  0
TEXT
  8
GT_1
 10
175.829
 20
263.700
 40
3.00000
  1
165
 41
1.02000
  7
HTX1
  0
POLYLINE
  8
GT_1
 66
1
 70
128
  0
VERTEX
  8
GT_1
 10
200.500
 20
272.300
  0
VERTEX
  8
GT_1
 10
201.900
 20
273.100
  0
VERTEX
  8
GT_1
 10
201.900
 20
275.100
  0
VERTEX
  8
GT_1
 10
199.100
 20
273.500
  0
VERTEX
  8
GT_1
 10
199.100
 20
271.500
  0
VERTEX
  8
GT_1
 10
200.500
 20
272.300
  0
SEQEND
  0
POLYLINE
  8
GT_1
 66
1
 70
128
  0
VERTEX
  8
GT_1
 10
201.900
 20
273.100
  0
VERTEX
  8
GT_1
 10
201.700
 20
275.000
  0
VERTEX
  8
GT_1
 10
201.300
 20
272.800
  0
VERTEX
  8
GT_1
 10
201.000
 20
274.600
  0
VERTEX
  8
GT_1
 10
200.600
 20
272.400
  0
VERTEX
  8
GT_1
 10
200.300
 20
274.200
  0
VERTEX
  8
GT_1
 10
199.900
 20
272.000
  0
VERTEX
  8
GT_1
 10
199.600
 20
273.800
  0
VERTEX
  8
GT_1
 10
199.300
 20
271.600
  0
VERTEX
  8
GT_1
 10
199.300
 20
273.600
  0
VERTEX
  8
GT_1
 10
199.600
 20
271.800
  0
VERTEX
  8
GT_1
 10
199.900
 20
274.000
  0
VERTEX
  8
GT_1
 10
200.300
 20
272.200
  0
VERTEX
  8
GT_1
 10
200.600
 20
274.400
  0
VERTEX
  8
GT_1
 10
201.000
 20
272.600
  0
VERTEX
  8
GT_1
 10
201.300
 20
274.800
  0
VERTEX
  8
GT_1
 10
201.700
 20
273.000
  0
VERTEX
  8
GT_1
 10
201.900
 20
275.100
  0
SEQEND
  0
POLYLINE
  8
GT_1
 66
1
 70
128
  0
VERTEX
  8
GT_1
 10
201.900
 20
274.100
  0
VERTEX
  8
GT_1
 10
254.900
 20
274.100
  0
SEQEND
  0
TEXT
  8
GT_1
 10
255.671
 20
272.900
 40
3.00000
  1
12
 41
1.02000
  7
HTX1
  0
POLYLINE
  8
GT_1
 66
1
 70
128
  0
VERTEX
  8
GT_1
 10
260.214
 20
274.100
 42
1.00000
  0
VERTEX
  8
GT_1
 10
254.900
 20
274.100
 42
1.00000
  0
VERTEX
  8
GT_1
 10
260.214
 20
274.100
  0
SEQEND
  0
POLYLINE
  8
GT_1
 66
1
 70
128
  0
VERTEX
  8
GT_1
 10
202.500
 20
272.000
  0
VERTEX
  8
GT_1
 10
200.500
 20
272.300
  0
VERTEX
  8
GT_1
 10
202.200
 20
271.300
  0
SEQEND
  0
POLYLINE
  8
GT_1
 66
1
 70
128
  0
VERTEX
  8
GT_1
 10
200.500
 20
272.300
  0
VERTEX
  8
GT_1
 10
231.500
 20
261.000
  0
SEQEND
  0
TEXT
  8
GT_1
 10
232.000
 20
261.500
 40
3.00000
  1
E 956184
 41
1.02000
  7
HTX1
  0
TEXT
  8
GT_1
 10
232.000
 20
257.500
 40
3.00000
  1
S 1278866
 41
1.02000
  7
HTX1
  0
TEXT
  8
GT_1
 10
232.000
 20
253.500
 40
3.00000
  1
FL+27801
 41
1.02000
  7
HTX1
  0
POLYLINE
  8
GT_1
 66
1
 70
128
  0
VERTEX
  8
GT_1
 10
200.500
 20
272.300
  0
VERTEX
  8
GT_1
 10
200.500
 20
276.300
  0
SEQEND
  0
POLYLINE
  8
GT_1
 66
1
 70
128
  0
VERTEX
  8
GT_1
 10
200.500
 20
276.300
 42
1.00000
  0
VERTEX
  8
GT_1
 10
200.500
 20
290.700
 42
1.00000
  0
VERTEX
  8
GT_1
 10
200.500
 20
276.300
  0
SEQEND
  0
TEXT
  8
GT_1
 10
195.014
 20
286.243
 40
3.00000
  1
2
 41
1.02000
  7
HTX1
  0
TEXT
  8
GT_1
 10
195.014
 20
282.243
 40
3.00000
  1
FW
 41
1.02000
  7
HTX1
  0
TEXT
  8
GT_1
 10
195.014
 20
278.243
 40
3.00000
  1
TT-612
 41
1.02000
  7
HTX1
  0
POLYLINE
  8
GT_1
 66
1
 70
128
  0
VERTEX
  8
GT_1
 10
192.300
 20
279.600
  0
VERTEX
  8
GT_1
 10
194.300
 20
279.900
  0
VERTEX
  8
GT_1
 10
192.300
 20
280.200
  0
SEQEND
  0
POLYLINE
  8
GT_1
 66
1
 70
128
  0
VERTEX
  8
GT_1
 10
194.300
 20
279.900
  0
VERTEX
  8
GT_1
 10
189.300
 20
279.900
  0
SEQEND
  0
TEXT
  8
GT_1
 10
186.743
 20
280.400
 40
3.00000
  1
6
 41
1.02000
  7
HTX1
  0
POLYLINE
  8
GT_1
 66
1
 70
128
  0
VERTEX
  8
GT_1
 10
186.200
 20
283.900
  0
VERTEX
  8
GT_1
 10
189.200
 20
283.900
  0
VERTEX
  8
GT_1
 10
189.200
 20
279.900
  0
VERTEX
  8
GT_1
 10
186.200
 20
279.900
  0
VERTEX
  8
GT_1
 10
186.200
 20
283.900
  0
SEQEND
  0
POLYLINE
  8
GT_1
 66
1
 70
128
 40
0.600000
 41
0.600000
  0
VERTEX
  8
GT_1
 10
200.500
 20
269.100
  0
VERTEX
  8
GT_1
 10
147.800
 20
238.700
  0
SEQEND
  0
POLYLINE
  8
GT_1
 66
1
 70
128
  0
VERTEX
  8
GT_1
 10
200.500
 20
267.100
  0
VERTEX
  8
GT_1
 10
200.500
 20
252.900
  0
SEQEND
  0
POLYLINE
  8
GT_1
 66
1
 70
128
  0
VERTEX
  8
GT_1
 10
199.000
 20
252.800
  0
VERTEX
  8
GT_1
 10
200.500
 20
254.100
  0
VERTEX
  8
GT_1
 10
198.600
 20
253.400
  0
SEQEND
  0
POLYLINE
  8
GT_1
 66
1
 70
128
  0
VERTEX
  8
GT_1
 10
200.500
 20
254.100
  0
VERTEX
  8
GT_1
 10
177.700
 20
241.000
  0
SEQEND
  0
POLYLINE
  8
GT_1
 66
1
 70
128
  0
VERTEX
  8
GT_1
 10
147.800
 20
234.700
  0
VERTEX
  8
GT_1
 10
147.800
 20
222.500
  0
SEQEND
  0
POLYLINE
  8
GT_1
 66
1
 70
128
  0
VERTEX
  8
GT_1
 10
149.300
 20
225.000
  0
VERTEX
  8
GT_1
 10
147.800
 20
223.700
  0
VERTEX
  8
GT_1
 10
149.700
 20
224.400
  0
SEQEND
  0
POLYLINE
  8
GT_1
 66
1
 70
128
  0
VERTEX
  8
GT_1
 10
147.800
 20
223.700
  0
VERTEX
  8
GT_1
 10
171.500
 20
237.400
  0
SEQEND
  0
TEXT
  8
GT_1
 10
172.078
 20
236.318
 40
3.00000
  1
200
 50
30.0000
 41
1.02000
  7
HTX1
  0
POLYLINE
  8
GT_1
 66
1
 70
128
  0
VERTEX
  8
GT_1
 10
147.200
 20
239.100
  0
VERTEX
  8
GT_1
 10
147.800
 20
239.900
  0
VERTEX
  8
GT_1
 10
148.400
 20
239.800
  0
VERTEX
  8
GT_1
 10
148.400
 20
238.300
  0
VERTEX
  8
GT_1
 10
147.800
 20
237.500
  0
VERTEX
  8
GT_1
 10
147.200
 20
237.600
  0
VERTEX
  8
GT_1
 10
147.200
 20
239.100
  0
SEQEND
  0
POLYLINE
  8
GT_1
 66
1
 70
128
  0
VERTEX
  8
GT_1
 10
147.200
 20
237.600
  0
VERTEX
  8
GT_1
 10
147.875
 20
237.600
  0
SEQEND
  0
POLYLINE
  8
GT_1
 66
1
 70
128
  0
VERTEX
  8
GT_1
 10
147.200
 20
237.800
  0
VERTEX
  8
GT_1
 10
148.025
 20
237.800
  0
SEQEND
  0
POLYLINE
  8
GT_1
 66
1
 70
128
  0
VERTEX
  8
GT_1
 10
147.200
 20
238.000
  0
VERTEX
  8
GT_1
 10
148.175
 20
238.000
  0
SEQEND
  0
POLYLINE
  8
GT_1
 66
1
 70
128
  0
VERTEX
  8
GT_1
 10
147.200
 20
238.200
  0
VERTEX
  8
GT_1
 10
148.325
 20
238.200
  0
SEQEND
  0
POLYLINE
  8
GT_1
 66
1
 70
128
  0
VERTEX
  8
GT_1
 10
147.200
 20
238.400
  0
VERTEX
  8
GT_1
 10
148.400
 20
238.400
  0
SEQEND
  0
POLYLINE
  8
GT_1
 66
1
 70
128
  0
VERTEX
  8
GT_1
 10
147.200
 20
238.600
  0
VERTEX
  8
GT_1
 10
148.400
 20
238.600
  0
SEQEND
  0
POLYLINE
  8
GT_1
 66
1
 70
128
  0
VERTEX
  8
GT_1
 10
147.200
 20
238.800
  0
VERTEX
  8
GT_1
 10
148.400
 20
238.800
  0
SEQEND
  0
POLYLINE
  8
GT_1
 66
1
 70
128
  0
VERTEX
  8
GT_1
 10
147.200
 20
239.000
  0
VERTEX
  8
GT_1
 10
148.400
 20
239.000
  0
SEQEND
  0
POLYLINE
  8
GT_1
 66
1
 70
128
  0
VERTEX
  8
GT_1
 10
147.275
 20
239.200
  0
VERTEX
  8
GT_1
 10
148.400
 20
239.200
  0
SEQEND
  0
POLYLINE
  8
GT_1
 66
1
 70
128
  0
VERTEX
  8
GT_1
 10
147.425
 20
239.400
  0
VERTEX
  8
GT_1
 10
148.400
 20
239.400
  0
SEQEND
  0
POLYLINE
  8
GT_1
 66
1
 70
128
  0
VERTEX
  8
GT_1
 10
147.575
 20
239.600
  0
VERTEX
  8
GT_1
 10
148.400
 20
239.600
  0
SEQEND
  0
POLYLINE
  8
GT_1
 66
1
 70
128
  0
VERTEX
  8
GT_1
 10
147.725
 20
239.800
  0
VERTEX
  8
GT_1
 10
148.400
 20
239.800
  0
SEQEND
  0
POLYLINE
  8
GT_1
 66
1
 70
128
  0
VERTEX
  8
GT_1
 10
147.800
 20
237.500
  0
VERTEX
  8
GT_1
 10
156.800
 20
237.500
  0
SEQEND
  0
TEXT
  8
GT_1
 10
157.571
 20
236.300
 40
3.00000
  1
13
 41
1.02000
  7
HTX1
  0
POLYLINE
  8
GT_1
 66
1
 70
128
  0
VERTEX
  8
GT_1
 10
162.114
 20
237.500
 42
1.00000
  0
VERTEX
  8
GT_1
 10
156.800
 20
237.500
 42
1.00000
  0
VERTEX
  8
GT_1
 10
162.114
 20
237.500
  0
SEQEND
  0
POLYLINE
  8
GT_1
 66
1
 70
128
  0
VERTEX
  8
GT_1
 10
147.800
 20
238.700
  0
VERTEX
  8
GT_1
 10
149.200
 20
239.500
  0
VERTEX
  8
GT_1
 10
149.200
 20
242.700
  0
VERTEX
  8
GT_1
 10
146.400
 20
241.100
  0
VERTEX
  8
GT_1
 10
146.400
 20
237.900
  0
VERTEX
  8
GT_1
 10
147.800
 20
238.700
  0
SEQEND
  0
POLYLINE
  8
GT_1
 66
1
 70
128
  0
VERTEX
  8
GT_1
 10
149.800
 20
242.200
  0
VERTEX
  8
GT_1
 10
147.800
 20
241.900
  0
VERTEX
  8
GT_1
 10
149.800
 20
241.600
  0
SEQEND
  0
POLYLINE
  8
GT_1
 66
1
 70
128
  0
VERTEX
  8
GT_1
 10
147.800
 20
241.900
  0
VERTEX
  8
GT_1
 10
164.800
 20
241.900
  0
VERTEX
  8
GT_1
 10
168.300
 20
222.200
  0
SEQEND
  0
TEXT
  8
GT_1
 10
168.800
 20
222.700
 40
3.00000
  1
4
 41
1.02000
  7
HTX1
  0
POLYLINE
  8
GT_1
 66
1
 70
128
  0
VERTEX
  8
GT_1
 10
168.300
 20
226.200
  0
VERTEX
  8
GT_1
 10
171.300
 20
226.200
  0
VERTEX
  8
GT_1
 10
171.300
 20
222.200
  0
VERTEX
  8
GT_1
 10
168.300
 20
222.200
  0
VERTEX
  8
GT_1
 10
168.300
 20
226.200
  0
SEQEND
  0
TEXT
  8
GT_1
 10
168.800
 20
218.700
 40
3.00000
  1
250x25DN
 41
1.02000
  7
HTX1
  0
POLYLINE
  8
GT_1
 66
1
 70
128
  0
VERTEX
  8
GT_1
 10
144.300
 20
236.700
  0
VERTEX
  8
GT_1
 10
133.800
 20
230.600
  0
SEQEND
  0
POLYLINE
  8
GT_1
 66
1
 70
128
  0
VERTEX
  8
GT_1
 10
144.300
 20
239.900
  0
VERTEX
  8
GT_1
 10
133.800
 20
233.800
  0
SEQEND
  0
POLYLINE
  8
GT_1
 66
1
 70
128
  0
VERTEX
  8
GT_1
 10
132.800
 20
233.100
  0
VERTEX
  8
GT_1
 10
134.800
 20
232.800
  0
VERTEX
  8
GT_1
 10
133.100
 20
233.800
  0
SEQEND
  0
POLYLINE
  8
GT_1
 66
1
 70
128
  0
VERTEX
  8
GT_1
 10
134.800
 20
232.800
  0
VERTEX
  8
GT_1
 10
126.300
 20
235.900
  0
SEQEND
  0
TEXT
  8
GT_1
 10
119.629
 20
236.400
 40
3.00000
  1
165
 41
1.02000
  7
HTX1
  0
POLYLINE
  8
GT_1
 66
1
 70
128
  0
VERTEX
  8
GT_1
 10
147.800
 20
241.900
  0
VERTEX
  8
GT_1
 10
149.200
 20
242.700
  0
VERTEX
  8
GT_1
 10
149.200
 20
244.700
  0
VERTEX
  8
GT_1
 10
146.400
 20
243.100
  0
VERTEX
  8
GT_1
 10
146.400
 20
241.100
  0
VERTEX
  8
GT_1
 10
147.800
 20
241.900
  0
SEQEND
  0
POLYLINE
  8
GT_1
 66
1
 70
128
  0
VERTEX
  8
GT_1
 10
149.200
 20
242.700
  0
VERTEX
  8
GT_1
 10
149.000
 20
244.600
  0
VERTEX
  8
GT_1
 10
148.600
 20
242.400
  0
VERTEX
  8
GT_1
 10
148.300
 20
244.200
  0
VERTEX
  8
GT_1
 10
147.900
 20
242.000
  0
VERTEX
  8
GT_1
 10
147.600
 20
243.800
  0
VERTEX
  8
GT_1
 10
147.200
 20
241.600
  0
VERTEX
  8
GT_1
 10
146.900
 20
243.400
  0
VERTEX
  8
GT_1
 10
146.600
 20
241.200
  0
VERTEX
  8
GT_1
 10
146.600
 20
243.200
  0
VERTEX
  8
GT_1
 10
146.900
 20
241.400
  0
VERTEX
  8
GT_1
 10
147.200
 20
243.600
  0
VERTEX
  8
GT_1
 10
147.600
 20
241.800
  0
VERTEX
  8
GT_1
 10
147.900
 20
244.000
  0
VERTEX
  8
GT_1
 10
148.300
 20
242.200
  0
VERTEX
  8
GT_1
 10
148.600
 20
244.400
  0
VERTEX
  8
GT_1
 10
149.000
 20
242.600
  0
VERTEX
  8
GT_1
 10
149.200
 20
244.700
  0
SEQEND
  0
POLYLINE
  8
GT_1
 66
1
 70
128
  0
VERTEX
  8
GT_1
 10
146.400
 20
242.100
  0
VERTEX
  8
GT_1
 10
137.400
 20
242.100
  0
SEQEND
  0
TEXT
  8
GT_1
 10
132.857
 20
240.900
 40
3.00000
  1
14
 41
1.02000
  7
HTX1
  0
POLYLINE
  8
GT_1
 66
1
 70
128
  0
VERTEX
  8
GT_1
 10
132.086
 20
242.100
 42
1.00000
  0
VERTEX
  8
GT_1
 10
137.400
 20
242.100
 42
1.00000
  0
VERTEX
  8
GT_1
 10
132.086
 20
242.100
  0
SEQEND
  0
POLYLINE
  8
GT_1
 66
1
 70
128
  0
VERTEX
  8
GT_1
 10
149.500
 20
242.900
  0
VERTEX
  8
GT_1
 10
147.800
 20
241.900
  0
VERTEX
  8
GT_1
 10
149.800
 20
242.200
  0
SEQEND
  0
POLYLINE
  8
GT_1
 66
1
 70
128
  0
VERTEX
  8
GT_1
 10
147.800
 20
241.900
  0
VERTEX
  8
GT_1
 10
178.800
 20
253.200
  0
VERTEX
  8
GT_1
 10
188.800
 20
235.900
  0
SEQEND
  0
TEXT
  8
GT_1
 10
189.300
 20
236.400
 40
3.00000
  1
E 955984
 41
1.02000
  7
HTX1
  0
TEXT
  8
GT_1
 10
189.300
 20
232.400
 40
3.00000
  1
S 1278866
 41
1.02000
  7
HTX1
  0
TEXT
  8
GT_1
 10
189.300
 20
228.400
 40
3.00000
  1
FL+27801
 41
1.02000
  7
HTX1
  0
POLYLINE
  8
GT_1
 66
1
 70
128
  0
VERTEX
  8
GT_1
 10
147.800
 20
241.900
  0
VERTEX
  8
GT_1
 10
147.800
 20
245.900
  0
SEQEND
  0
POLYLINE
  8
GT_1
 66
1
 70
128
  0
VERTEX
  8
GT_1
 10
147.800
 20
245.900
 42
1.00000
  0
VERTEX
  8
GT_1
 10
147.800
 20
260.300
 42
1.00000
  0
VERTEX
  8
GT_1
 10
147.800
 20
245.900
  0
SEQEND
  0
TEXT
  8
GT_1
 10
142.314
 20
255.843
 40
3.00000
  1
2
 41
1.02000
  7
HTX1
  0
TEXT
  8
GT_1
 10
142.314
 20
251.843
 40
3.00000
  1
FW
 41
1.02000
  7
HTX1
  0
TEXT
  8
GT_1
 10
142.314
 20
247.843
 40
3.00000
  1
TT-613
 41
1.02000
  7
HTX1
  0
POLYLINE
  8
GT_1
 66
1
 70
128
  0
VERTEX
  8
GT_1
 10
139.600
 20
249.200
  0
VERTEX
  8
GT_1
 10
141.600
 20
249.500
  0
VERTEX
  8
GT_1
 10
139.600
 20
249.800
  0
SEQEND
  0
POLYLINE
  8
GT_1
 66
1
 70
128
  0
VERTEX
  8
GT_1
 10
141.600
 20
249.500
  0
VERTEX
  8
GT_1
 10
136.600
 20
249.500
  0
SEQEND
  0
TEXT
  8
GT_1
 10
134.043
 20
250.000
 40
3.00000
  1
6
 41
1.02000
  7
HTX1
  0
POLYLINE
  8
GT_1
 66
1
 70
128
  0
VERTEX
  8
GT_1
 10
133.500
 20
253.500
  0
VERTEX
  8
GT_1
 10
136.500
 20
253.500
  0
VERTEX
  8
GT_1
 10
136.500
 20
249.500
  0
VERTEX
  8
GT_1
 10
133.500
 20
249.500
  0
VERTEX
  8
GT_1
 10
133.500
 20
253.500
  0
SEQEND
  0
POLYLINE
  8
GT_1
 66
1
 70
128
 40
0.600000
 41
0.600000
  0
VERTEX
  8
GT_1
 10
147.800
 20
238.700
  0
VERTEX
  8
GT_1
 10
102.600
 20
212.600
  0
SEQEND
  0
TEXT
  8
GT_1
 10
120.021
 20
224.284
 40
3.00000
  1
<1>
 50
30.0000
 41
1.02000
  7
HTX1
  0
TEXT
  8
GT_1
 10
127.088
 20
228.364
 40
3.00000
  1
1
 50
30.0000
 41
1.02000
  7
HTX1
  0
POLYLINE
  8
GT_1
 66
1
 70
128
  0
VERTEX
  8
GT_1
 10
124.900
 20
231.100
  0
VERTEX
  8
GT_1
 10
127.500
 20
232.700
  0
VERTEX
  8
GT_1
 10
129.500
 20
229.200
  0
VERTEX
  8
GT_1
 10
126.900
 20
227.700
  0
VERTEX
  8
GT_1
 10
124.900
 20
231.100
  0
SEQEND
  0
POLYLINE
  8
GT_1
 66
1
 70
128
  0
VERTEX
  8
GT_1
 10
147.800
 20
236.700
  0
VERTEX
  8
GT_1
 10
147.800
 20
222.500
  0
SEQEND
  0
POLYLINE
  8
GT_1
 66
1
 70
128
  0
VERTEX
  8
GT_1
 10
146.300
 20
222.400
  0
VERTEX
  8
GT_1
 10
147.800
 20
223.700
  0
VERTEX
  8
GT_1
 10
145.900
 20
223.000
  0
SEQEND
  0
POLYLINE
  8
GT_1
 66
1
 70
128
  0
VERTEX
  8
GT_1
 10
147.800
 20
223.700
  0
VERTEX
  8
GT_1
 10
128.800
 20
212.700
  0
SEQEND
  0
POLYLINE
  8
GT_1
 66
1
 70
128
  0
VERTEX
  8
GT_1
 10
102.600
 20
208.600
  0
VERTEX
  8
GT_1
 10
102.600
 20
196.400
  0
SEQEND
  0
POLYLINE
  8
GT_1
 66
1
 70
128
  0
VERTEX
  8
GT_1
 10
104.100
 20
198.900
  0
VERTEX
  8
GT_1
 10
102.600
 20
197.600
  0
VERTEX
  8
GT_1
 10
104.500
 20
198.300
  0
SEQEND
  0
POLYLINE
  8
GT_1
 66
1
 70
128
  0
VERTEX
  8
GT_1
 10
102.600
 20
197.600
  0
VERTEX
  8
GT_1
 10
122.500
 20
209.100
  0
SEQEND
  0
TEXT
  8
GT_1
 10
123.128
 20
208.068
 40
3.00000
  1
257
 50
30.0000
 41
1.02000
  7
HTX1
  0
POLYLINE
  8
GT_1
 66
1
 70
128
  0
VERTEX
  8
GT_1
 10
546.600
 20
464.800
  0
VERTEX
  8
GT_1
 10
546.600
 20
447.600
  0
SEQEND
  0
POLYLINE
  8
GT_1
 66
1
 70
128
  0
VERTEX
  8
GT_1
 10
545.100
 20
447.500
  0
VERTEX
  8
GT_1
 10
546.600
 20
448.800
  0
VERTEX
  8
GT_1
 10
544.700
 20
448.100
  0
SEQEND
  0
POLYLINE
  8
GT_1
 66
1
 70
128
  0
VERTEX
  8
GT_1
 10
546.600
 20
448.800
  0
VERTEX
  8
GT_1
 10
329.100
 20
323.300
  0
SEQEND
  0
POLYLINE
  8
GT_1
 66
1
 70
128
  0
VERTEX
  8
GT_1
 10
102.600
 20
208.600
  0
VERTEX
  8
GT_1
 10
102.600
 20
191.400
  0
SEQEND
  0
POLYLINE
  8
GT_1
 66
1
 70
128
  0
VERTEX
  8
GT_1
 10
104.100
 20
193.900
  0
VERTEX
  8
GT_1
 10
102.600
 20
192.600
  0
VERTEX
  8
GT_1
 10
104.500
 20
193.300
  0
SEQEND
  0
POLYLINE
  8
GT_1
 66
1
 70
128
  0
VERTEX
  8
GT_1
 10
102.600
 20
192.600
  0
VERTEX
  8
GT_1
 10
321.000
 20
318.600
  0
SEQEND
  0
TEXT
  8
GT_1
 10
321.637
 20
317.604
 40
3.00000
  1
2389
 50
30.0000
 41
1.02000
  7
HTX1
  0
POLYLINE
  8
GT_1
 66
1
 70
128
  0
VERTEX
  8
GT_1
 10
104.300
 20
216.000
  0
VERTEX
  8
GT_1
 10
100.100
 20
208.800
  0
SEQEND
  0
POLYLINE
  8
GT_1
 66
1
 70
128
  0
VERTEX
  8
GT_1
 10
104.300
 20
211.200
  0
VERTEX
  8
GT_1
 10
100.100
 20
213.600
  0
SEQEND
  0
POLYLINE
  8
GT_1
 66
1
 70
128
  0
VERTEX
  8
GT_1
 10
102.600
 20
213.600
  0
VERTEX
  8
GT_1
 10
101.800
 20
213.100
  0
VERTEX
  8
GT_1
 10
101.400
 20
211.900
  0
VERTEX
  8
GT_1
 10
101.800
 20
211.200
  0
VERTEX
  8
GT_1
 10
102.600
 20
211.600
  0
VERTEX
  8
GT_1
 10
103.000
 20
212.800
  0
VERTEX
  8
GT_1
 10
102.600
 20
213.600
  0
SEQEND
  0
POLYLINE
  8
GT_1
 66
1
 70
128
  0
VERTEX
  8
GT_1
 10
101.686
 20
211.400
  0
VERTEX
  8
GT_1
 10
102.200
 20
211.400
  0
SEQEND
  0
POLYLINE
  8
GT_1
 66
1
 70
128
  0
VERTEX
  8
GT_1
 10
101.571
 20
211.600
  0
VERTEX
  8
GT_1
 10
102.600
 20
211.600
  0
SEQEND
  0
POLYLINE
  8
GT_1
 66
1
 70
128
  0
VERTEX
  8
GT_1
 10
101.457
 20
211.800
  0
VERTEX
  8
GT_1
 10
102.667
 20
211.800
  0
SEQEND
  0
POLYLINE
  8
GT_1
 66
1
 70
128
  0
VERTEX
  8
GT_1
 10
101.433
 20
212.000
  0
VERTEX
  8
GT_1
 10
102.733
 20
212.000
  0
SEQEND
  0
POLYLINE
  8
GT_1
 66
1
 70
128
  0
VERTEX
  8
GT_1
 10
101.500
 20
212.200
  0
VERTEX
  8
GT_1
 10
102.800
 20
212.200
  0
SEQEND
  0
POLYLINE
  8
GT_1
 66
1
 70
128
  0
VERTEX
  8
GT_1
 10
101.567
 20
212.400
  0
VERTEX
  8
GT_1
 10
102.867
 20
212.400
  0
SEQEND
  0
POLYLINE
  8
GT_1
 66
1
 70
128
  0
VERTEX
  8
GT_1
 10
101.633
 20
212.600
  0
VERTEX
  8
GT_1
 10
102.933
 20
212.600
  0
SEQEND
  0
POLYLINE
  8
GT_1
 66
1
 70
128
  0
VERTEX
  8
GT_1
 10
101.700
 20
212.800
  0
VERTEX
  8
GT_1
 10
103.000
 20
212.800
  0
SEQEND
  0
POLYLINE
  8
GT_1
 66
1
 70
128
  0
VERTEX
  8
GT_1
 10
101.767
 20
213.000
  0
VERTEX
  8
GT_1
 10
102.900
 20
213.000
  0
SEQEND
  0
POLYLINE
  8
GT_1
 66
1
 70
128
  0
VERTEX
  8
GT_1
 10
101.960
 20
213.200
  0
VERTEX
  8
GT_1
 10
102.800
 20
213.200
  0
SEQEND
  0
POLYLINE
  8
GT_1
 66
1
 70
128
  0
VERTEX
  8
GT_1
 10
102.200
 20
211.400
  0
VERTEX
  8
GT_1
 10
114.700
 20
189.700
  0
SEQEND
  0
TEXT
  8
GT_1
 10
115.471
 20
188.500
 40
3.00000
  1
15
 41
1.02000
  7
HTX1
  0
POLYLINE
  8
GT_1
 66
1
 70
128
  0
VERTEX
  8
GT_1
 10
120.014
 20
189.700
 42
1.00000
  0
VERTEX
  8
GT_1
 10
114.700
 20
189.700
 42
1.00000
  0
VERTEX
  8
GT_1
 10
120.014
 20
189.700
  0
SEQEND
  0
POLYLINE
  8
GT_1
 66
1
 70
128
  0
VERTEX
  8
GT_1
 10
104.300
 20
211.600
  0
VERTEX
  8
GT_1
 10
102.600
 20
212.600
  0
VERTEX
  8
GT_1
 10
103.900
 20
211.100
  0
SEQEND
  0
POLYLINE
  8
GT_1
 66
1
 70
128
  0
VERTEX
  8
GT_1
 10
102.600
 20
212.600
  0
VERTEX
  8
GT_1
 10
121.800
 20
196.500
  0
SEQEND
  0
TEXT
  8
GT_1
 10
122.300
 20
197.000
 40
3.00000
  1
CONT. ON
 41
1.02000
  7
HTX1
  0
TEXT
  8
GT_1
 10
122.300
 20
193.000
 40
3.00000
  1
110022-13610-033-BB5H-250
 41
1.02000
  7
HTX1
  0
TEXT
  8
GT_1
 10
122.300
 20
189.000
 40
3.00000
  1
E 955727
 41
1.02000
  7
HTX1
  0
TEXT
  8
GT_1
 10
122.300
 20
185.000
 40
3.00000
  1
S 1278866
 41
1.02000
  7
HTX1
  0
TEXT
  8
GT_1
 10
122.300
 20
181.000
 40
3.00000
  1
FL+27637
 41
1.02000
  7
HTX1
  0
POLYLINE
  8
GT_1
 66
1
 70
128
  0
VERTEX
  8
GT_1
 10
102.600
 20
214.600
  0
VERTEX
  8
GT_1
 10
102.600
 20
246.300
  0
SEQEND
  0
POLYLINE
  8
GT_1
 66
1
 70
128
  0
VERTEX
  8
GT_1
 10
104.100
 20
246.400
  0
VERTEX
  8
GT_1
 10
102.600
 20
245.100
  0
VERTEX
  8
GT_1
 10
104.500
 20
245.800
  0
SEQEND
  0
POLYLINE
  8
GT_1
 66
1
 70
128
  0
VERTEX
  8
GT_1
 10
102.600
 20
245.100
  0
VERTEX
  8
GT_1
 10
105.600
 20
246.900
  0
SEQEND
  0
POLYLINE
  8
GT_1
 66
1
 70
128
  0
VERTEX
  8
GT_1
 10
105.600
 20
246.900
  0
VERTEX
  8
GT_1
 10
108.100
 20
251.200
  0
SEQEND
  0
TEXT
  8
GT_1
 10
108.600
 20
251.700
 40
3.00000
  1
MATL
 41
1.02000
  7
HTX1
  0
TEXT
  8
GT_1
 10
108.600
 20
247.700
 40
3.00000
  1
CB5H
 41
1.02000
  7
HTX1
  0
POLYLINE
  8
GT_1
 66
1
 70
128
  0
VERTEX
  8
GT_1
 10
108.100
 20
255.200
  0
VERTEX
  8
GT_1
 10
117.300
 20
255.200
  0
VERTEX
  8
GT_1
 10
117.300
 20
247.200
  0
VERTEX
  8
GT_1
 10
108.100
 20
247.200
  0
VERTEX
  8
GT_1
 10
108.100
 20
255.200
  0
SEQEND
  0
POLYLINE
  8
GT_1
 66
1
 70
128
  0
VERTEX
  8
GT_1
 10
102.600
 20
214.600
  0
VERTEX
  8
GT_1
 10
102.600
 20
246.300
  0
SEQEND
  0
POLYLINE
  8
GT_1
 66
1
 70
128
  0
VERTEX
  8
GT_1
 10
101.100
 20
243.800
  0
VERTEX
  8
GT_1
 10
102.600
 20
245.100
  0
VERTEX
  8
GT_1
 10
100.700
 20
244.400
  0
SEQEND
  0
POLYLINE
  8
GT_1
 66
1
 70
128
  0
VERTEX
  8
GT_1
 10
102.600
 20
245.100
  0
VERTEX
  8
GT_1
 10
99.6000
 20
243.400
  0
SEQEND
  0
POLYLINE
  8
GT_1
 66
1
 70
128
  0
VERTEX
  8
GT_1
 10
99.6000
 20
243.400
  0
VERTEX
  8
GT_1
 10
98.7000
 20
248.300
  0
SEQEND
  0
TEXT
  8
GT_1
 10
89.9714
 20
248.800
 40
3.00000
  1
MATL
 41
1.02000
  7
HTX1
  0
TEXT
  8
GT_1
 10
89.9714
 20
244.800
 40
3.00000
  1
BB5H
 41
1.02000
  7
HTX1
  0
POLYLINE
  8
GT_1
 66
1
 70
128
  0
VERTEX
  8
GT_1
 10
89.5000
 20
252.300
  0
VERTEX
  8
GT_1
 10
98.7000
 20
252.300
  0
VERTEX
  8
GT_1
 10
98.7000
 20
244.300
  0
VERTEX
  8
GT_1
 10
89.5000
 20
244.300
  0
VERTEX
  8
GT_1
 10
89.5000
 20
252.300
  0
SEQEND
  0
ENDSEC
  0
EOF
