  0
SECTION
  2
HEADER
  9
$ACADVER
  1
AC1032
  9
$ACADMAINTVER
 90
4
  9
$DWGCODEPAGE
  3
ANSI_1252
  9
$LASTSAVEDBY
  1
장혁준
  9
$REQUIREDVERSIONS
160
0
  9
$INSBASE
 10
0.0
 20
0.0
 30
0.0
  9
$EXTMIN
 10
1e+20
 20
1e+20
 30
1e+20
  9
$EXTMAX
 10
-1e+20
 20
-1e+20
 30
-1e+20
  9
$LIMMIN
 10
0.0
 20
0.0
  9
$LIMMAX
 10
12.0
 20
9.0
  9
$ORTHOMODE
 70
0
  9
$REGENMODE
 70
1
  9
$FILLMODE
 70
1
  9
$QTEXTMODE
 70
0
  9
$MIRRTEXT
 70
1
  9
$LTSCALE
 40
1.0
  9
$ATTMODE
 70
1
  9
$TEXTSIZE
 40
2.5
  9
$TRACEWID
 40
0.05
  9
$TEXTSTYLE
  7
Standard
  9
$CLAYER
  8
0
  9
$CELTYPE
  6
ByBlock
  9
$CECOLOR
 62
256
  9
$CELTSCALE
 40
1.0
  9
$DISPSILH
 70
0
  9
$DIMSCALE
 40
1.0
  9
$DIMASZ
 40
0.18
  9
$DIMEXO
 40
0.0625
  9
$DIMDLI
 40
0.38
  9
$DIMRND
 40
0.0
  9
$DIMDLE
 40
0.0
  9
$DIMEXE
 40
0.18
  9
$DIMTP
 40
0.0
  9
$DIMTM
 40
0.0
  9
$DIMTXT
 40
0.18
  9
$DIMCEN
 40
0.09
  9
$DIMTSZ
 40
0.0
  9
$DIMTOL
 70
0
  9
$DIMLIM
 70
0
  9
$DIMTIH
 70
1
  9
$DIMTOH
 70
1
  9
$DIMSE1
 70
0
  9
$DIMSE2
 70
0
  9
$DIMTAD
 70
0
  9
$DIMZIN
 70
0
  9
$DIMBLK
  1

  9
$DIMASO
 70
1
  9
$DIMSHO
 70
1
  9
$DIMPOST
  1

  9
$DIMAPOST
  1

  9
$DIMALT
 70
0
  9
$DIMALTD
 70
2
  9
$DIMALTF
 40
25.4
  9
$DIMLFAC
 40
1.0
  9
$DIMTOFL
 70
0
  9
$DIMTVP
 40
0.0
  9
$DIMTIX
 70
0
  9
$DIMSOXD
 70
0
  9
$DIMSAH
 70
0
  9
$DIMBLK1
  1

  9
$DIMBLK2
  1

  9
$DIMSTYLE
  2
Standard
  9
$DIMCLRD
 70
0
  9
$DIMCLRE
 70
0
  9
$DIMCLRT
 70
0
  9
$DIMTFAC
 40
1.0
  9
$DIMGAP
 40
0.09
  9
$DIMJUST
 70
0
  9
$DIMSD1
 70
0
  9
$DIMSD2
 70
0
  9
$DIMTOLJ
 70
1
  9
$DIMTZIN
 70
0
  9
$DIMALTZ
 70
0
  9
$DIMALTTZ
 70
0
  9
$DIMUPT
 70
0
  9
$DIMDEC
 70
4
  9
$DIMTDEC
 70
4
  9
$DIMALTU
 70
2
  9
$DIMALTTD
 70
2
  9
$DIMTXSTY
  7
Standard
  9
$DIMAUNIT
 70
0
  9
$DIMADEC
 70
0
  9
$DIMALTRND
 40
0.0
  9
$DIMAZIN
 70
0
  9
$DIMDSEP
 70
46
  9
$DIMATFIT
 70
3
  9
$DIMFRAC
 70
0
  9
$DIMLDRBLK
  1

  9
$DIMLUNIT
 70
2
  9
$DIMLWD
 70
-2
  9
$DIMLWE
 70
-2
  9
$DIMTMOVE
 70
2
  9
$DIMFXL
 40
1.0
  9
$DIMFXLON
 70
0
  9
$DIMJOGANG
 40
0.78539816339745
  9
$DIMTFILL
 70
0
  9
$DIMTFILLCLR
 70
0
  9
$DIMARCSYM
 70
0
  9
$DIMLTYPE
  6

  9
$DIMLTEX1
  6

  9
$DIMLTEX2
  6

  9
$DIMTXTDIRECTION
 70
0
  9
$LUNITS
 70
2
  9
$LUPREC
 70
4
  9
$SKETCHINC
 40
0.1
  9
$FILLETRAD
 40
0.0
  9
$AUNITS
 70
0
  9
$AUPREC
 70
0
  9
$MENU
  1
.
  9
$ELEVATION
 40
0.0
  9
$PELEVATION
 40
0.0
  9
$THICKNESS
 40
0.0
  9
$LIMCHECK
 70
0
  9
$CHAMFERA
 40
0.0
  9
$CHAMFERB
 40
0.0
  9
$CHAMFERC
 40
0.0
  9
$CHAMFERD
 40
0.0
  9
$SKPOLY
 70
0
  9
$TDCREATE
 40
2460857.6279513887
  9
$TDUCREATE
 40
2460857.196863415
  9
$TDUPDATE
 40
2460857.6279513887
  9
$TDUUPDATE
 40
2460857.252278357
  9
$TDINDWG
 40
1.16e-08
  9
$TDUSRTIMER
 40
1.16e-08
  9
$USRTIMER
 70
1
  9
$ANGBASE
 50
0.0
  9
$ANGDIR
 70
0
  9
$PDMODE
 70
0
  9
$PDSIZE
 40
0.0
  9
$PLINEWID
 40
0.0
  9
$SPLFRAME
 70
0
  9
$SPLINETYPE
 70
6
  9
$SPLINESEGS
 70
8
  9
$HANDSEED
  5
EA0
  9
$SURFTAB1
 70
6
  9
$SURFTAB2
 70
6
  9
$SURFTYPE
 70
6
  9
$SURFU
 70
6
  9
$SURFV
 70
6
  9
$UCSBASE
  2

  9
$UCSNAME
  2

  9
$UCSORG
 10
0.0
 20
0.0
 30
0.0
  9
$UCSXDIR
 10
1.0
 20
0.0
 30
0.0
  9
$UCSYDIR
 10
0.0
 20
1.0
 30
0.0
  9
$UCSORTHOREF
  2

  9
$UCSORTHOVIEW
 70
0
  9
$UCSORGTOP
 10
0.0
 20
0.0
 30
0.0
  9
$UCSORGBOTTOM
 10
0.0
 20
0.0
 30
0.0
  9
$UCSORGLEFT
 10
0.0
 20
0.0
 30
0.0
  9
$UCSORGRIGHT
 10
0.0
 20
0.0
 30
0.0
  9
$UCSORGFRONT
 10
0.0
 20
0.0
 30
0.0
  9
$UCSORGBACK
 10
0.0
 20
0.0
 30
0.0
  9
$PUCSBASE
  2

  9
$PUCSNAME
  2

  9
$PUCSORG
 10
0.0
 20
0.0
 30
0.0
  9
$PUCSXDIR
 10
1.0
 20
0.0
 30
0.0
  9
$PUCSYDIR
 10
0.0
 20
1.0
 30
0.0
  9
$PUCSORTHOREF
  2

  9
$PUCSORTHOVIEW
 70
0
  9
$PUCSORGTOP
 10
0.0
 20
0.0
 30
0.0
  9
$PUCSORGBOTTOM
 10
0.0
 20
0.0
 30
0.0
  9
$PUCSORGLEFT
 10
0.0
 20
0.0
 30
0.0
  9
$PUCSORGRIGHT
 10
0.0
 20
0.0
 30
0.0
  9
$PUCSORGFRONT
 10
0.0
 20
0.0
 30
0.0
  9
$PUCSORGBACK
 10
0.0
 20
0.0
 30
0.0
  9
$USERI1
 70
0
  9
$USERI2
 70
0
  9
$USERI3
 70
0
  9
$USERI4
 70
0
  9
$USERI5
 70
0
  9
$USERR1
 40
0.0
  9
$USERR2
 40
0.0
  9
$USERR3
 40
0.0
  9
$USERR4
 40
0.0
  9
$USERR5
 40
0.0
  9
$WORLDVIEW
 70
1
  9
$SHADEDGE
 70
3
  9
$SHADEDIF
 70
70
  9
$TILEMODE
 70
1
  9
$MAXACTVP
 70
64
  9
$PINSBASE
 10
0.0
 20
0.0
 30
0.0
  9
$PLIMCHECK
 70
0
  9
$PEXTMIN
 10
1e+20
 20
1e+20
 30
1e+20
  9
$PEXTMAX
 10
-1e+20
 20
-1e+20
 30
-1e+20
  9
$PLIMMIN
 10
0.0
 20
0.0
  9
$PLIMMAX
 10
420.0
 20
297.0
  9
$UNITMODE
 70
0
  9
$VISRETAIN
 70
1
  9
$PLINEGEN
 70
1
  9
$PSLTSCALE
 70
1
  9
$TREEDEPTH
 70
3020
  9
$CMLSTYLE
  2
Standard
  9
$CMLJUST
 70
0
  9
$CMLSCALE
 40
1.0
  9
$PROXYGRAPHICS
 70
1
  9
$MEASUREMENT
 70
0
  9
$CELWEIGHT
370
-1
  9
$ENDCAPS
280
0
  9
$JOINSTYLE
280
0
  9
$LWDISPLAY
290
0
  9
$INSUNITS
 70
0
  9
$HYPERLINKBASE
  1

  9
$STYLESHEET
  1

  9
$XEDIT
290
1
  9
$CEPSNTYPE
380
0
  9
$PSTYLEMODE
290
1
  9
$FINGERPRINTGUID
  2
{ff89cd77-c506-4140-a1c7-4a409818ceb7}
  9
$VERSIONGUID
  2
{C0D78442-1D5B-4E03-B350-BFEC265931C6}
  9
$EXTNAMES
290
1
  9
$PSVPSCALE
 40
0.0
  9
$OLESTARTUP
290
0
  9
$SORTENTS
280
127
  9
$INDEXCTL
280
0
  9
$HIDETEXT
280
1
  9
$XCLIPFRAME
280
2
  9
$HALOGAP
280
0
  9
$OBSCOLOR
 70
257
  9
$OBSLTYPE
280
0
  9
$INTERSECTIONDISPLAY
280
0
  9
$INTERSECTIONCOLOR
 70
257
  9
$DIMASSOC
280
2
  9
$PROJECTNAME
  1

  9
$CAMERADISPLAY
290
0
  9
$LENSLENGTH
 40
50.0
  9
$CAMERAHEIGHT
 40
0.0
  9
$STEPSPERSEC
 40
2.0
  9
$STEPSIZE
 40
6.0
  9
$3DDWFPREC
 40
2.0
  9
$PSOLWIDTH
 40
0.25
  9
$PSOLHEIGHT
 40
4.0
  9
$LOFTANG1
 40
1.5707963267949
  9
$LOFTANG2
 40
1.5707963267949
  9
$LOFTMAG1
 40
0.0
  9
$LOFTMAG2
 40
0.0
  9
$LOFTPARAM
 70
7
  9
$LOFTNORMALS
280
1
  9
$LATITUDE
 40
37.795
  9
$LONGITUDE
 40
-122.394
  9
$NORTHDIRECTION
 40
0.0
  9
$TIMEZONE
 70
-8000
  9
$LIGHTGLYPHDISPLAY
280
1
  9
$TILEMODELIGHTSYNCH
280
1
  9
$CMATERIAL
347
34
  9
$SOLIDHIST
280
0
  9
$SHOWHIST
280
1
  9
$DWFFRAME
280
2
  9
$DGNFRAME
280
2
  9
$REALWORLDSCALE
290
1
  9
$INTERFERECOLOR
 62
256
  9
$CSHADOW
280
0
  9
$SHADOWPLANELOCATION
 40
0.0
  0
ENDSEC
  0
SECTION
  2
CLASSES
  0
CLASS
  1
ACDBDICTIONARYWDFLT
  2
AcDbDictionaryWithDefault
  3
ObjectDBX Classes
 90
0
 91
4
280
0
281
0
  0
CLASS
  1
MATERIAL
  2
AcDbMaterial
  3
ObjectDBX Classes
 90
1153
 91
3
280
0
281
0
  0
CLASS
  1
SCALE
  2
AcDbScale
  3
ObjectDBX Classes
 90
1153
 91
3
280
0
281
0
  0
CLASS
  1
VISUALSTYLE
  2
AcDbVisualStyle
  3
ObjectDBX Classes
 90
4095
 91
3
280
0
281
0
  0
CLASS
  1
TABLESTYLE
  2
AcDbTableStyle
  3
ObjectDBX Classes
 90
4095
 91
3
280
0
281
0
  0
CLASS
  1
MLEADERSTYLE
  2
AcDbMLeaderStyle
  3
ACDB_MLEADERSTYLE_CLASS
 90
4095
 91
3
280
0
281
0
  0
CLASS
  1
MAPRESOURCEMANAGEROBJECT
  2
AcMapResourceManager
  3
AcMapSharedComponents
 90
1024
 91
3
280
0
281
0
  0
CLASS
  1
SUN
  2
AcDbSun
  3
SCENEOE
 90
1153
 91
3
280
0
281
0
  0
CLASS
  1
DICTIONARYVAR
  2
AcDbDictionaryVar
  3
ObjectDBX Classes
 90
0
 91
3
280
0
281
0
  0
CLASS
  1
CELLSTYLEMAP
  2
AcDbCellStyleMap
  3
ObjectDBX Classes
 90
1152
 91
3
280
0
281
0
  0
CLASS
  1
MENTALRAYRENDERSETTINGS
  2
AcDbMentalRayRenderSettings
  3
SCENEOE
 90
1024
 91
3
280
0
281
0
  0
CLASS
  1
ACDBDETAILVIEWSTYLE
  2
AcDbDetailViewStyle
  3
ObjectDBX Classes
 90
1025
 91
3
280
0
281
0
  0
CLASS
  1
ACDBSECTIONVIEWSTYLE
  2
AcDbSectionViewStyle
  3
ObjectDBX Classes
 90
1025
 91
3
280
0
281
0
  0
CLASS
  1
RASTERVARIABLES
  2
AcDbRasterVariables
  3
ISM
 90
0
 91
3
280
0
281
0
  0
CLASS
  1
LAYOUT
  2
AcDbLayout
  3
ObjectDBX Classes
 90
0
 91
1
280
0
281
0
  0
CLASS
  1
ACDBPLACEHOLDER
  2
AcDbPlaceHolder
  3
ObjectDBX Classes
 90
0
 91
1
280
0
281
0
  0
ENDSEC
  0
SECTION
  2
TABLES
  0
TABLE
  2
VPORT
  5
8
330
0
100
AcDbSymbolTable
 70
1
  0
VPORT
  5
20
330
8
100
AcDbSymbolTableRecord
100
AcDbViewportTableRecord
  2
*Active
 70
0
 10
0.0
 20
0.0
 11
1.0
 21
1.0
 12
487.4883192472924
 22
344.2989140598967
 13
0.0
 23
0.0
 14
0.5
 24
0.5
 15
0.5
 25
0.5
 16
0.0
 26
0.0
 36
1.0
 17
0.0
 27
0.0
 37
0.0
 40
701.6554889838129
 41
2.25150501672241
 42
50.0
 43
0.0
 44
0.0
 50
0.0
 51
0.0
 71
16
 72
1000
 73
1
 74
3
 75
0
 76
0
 77
0
 78
0
281
0
 65
0
110
0.0
120
0.0
130
0.0
111
1.0
121
0.0
131
0.0
112
0.0
122
1.0
132
0.0
 79
0
146
0.0
 60
3
 61
5
348
E46
292
1
282
1
141
0.0
142
0.0
 63
256
  0
ENDTAB
  0
TABLE
  2
LTYPE
  5
5
330
0
100
AcDbSymbolTable
 70
18
  0
LTYPE
  5
14
330
5
100
AcDbSymbolTableRecord
100
AcDbLinetypeTableRecord
  2
ByBlock
 70
0
  3

 72
65
 73
0
 40
0.0
  0
LTYPE
  5
15
330
5
100
AcDbSymbolTableRecord
100
AcDbLinetypeTableRecord
  2
ByLayer
 70
0
  3

 72
65
 73
0
 40
0.0
  0
LTYPE
  5
16
330
5
100
AcDbSymbolTableRecord
100
AcDbLinetypeTableRecord
  2
Continuous
 70
0
  3

 72
65
 73
0
 40
0.0
  0
LTYPE
  5
21
330
5
100
AcDbSymbolTableRecord
100
AcDbLinetypeTableRecord
  2
GTSOLID
 70
0
  3
GTSOLID
 72
65
 73
0
 40
24.0
  0
LTYPE
  5
22
330
5
100
AcDbSymbolTableRecord
100
AcDbLinetypeTableRecord
  2
GTDASH
 70
0
  3
GTDASH
 72
65
 73
2
 40
12.0
 49
8.0
 74
0
 49
-4.0
 74
0
  0
LTYPE
  5
23
330
5
100
AcDbSymbolTableRecord
100
AcDbLinetypeTableRecord
  2
GTDOT
 70
0
  3
GTDOT
 72
65
 73
2
 40
6.0
 49
1.6
 74
0
 49
-4.4
 74
0
  0
LTYPE
  5
24
330
5
100
AcDbSymbolTableRecord
100
AcDbLinetypeTableRecord
  2
GTCHAIN
 70
0
  3
GTCHAIN
 72
65
 73
4
 40
24.0
 49
16.0
 74
0
 49
-3.2
 74
0
 49
1.6
 74
0
 49
-3.2
 74
0
  0
LTYPE
  5
25
330
5
100
AcDbSymbolTableRecord
100
AcDbLinetypeTableRecord
  2
GTLDASH
 70
0
  3
GTLDASH
 72
65
 73
2
 40
18.0
 49
14.4
 74
0
 49
-3.6
 74
0
  0
LTYPE
  5
26
330
5
100
AcDbSymbolTableRecord
100
AcDbLinetypeTableRecord
  2
GTDDASH
 70
0
  3
GTDDASH
 72
65
 73
6
 40
21.999989
 49
0.251429
 74
0
 49
-3.01714
 74
0
 49
6.28571
 74
0
 49
-3.14286
 74
0
 49
6.28571
 74
0
 49
-3.01714
 74
0
  0
LTYPE
  5
27
330
5
100
AcDbSymbolTableRecord
100
AcDbLinetypeTableRecord
  2
GTDDOT
 70
0
  3
GTDDOT
 72
65
 73
6
 40
16.000006
 49
6.34921
 74
0
 49
-3.04762
 74
0
 49
0.253968
 74
0
 49
-3.04762
 74
0
 49
0.253968
 74
0
 49
-3.04762
 74
0
  0
LTYPE
  5
28
330
5
100
AcDbSymbolTableRecord
100
AcDbLinetypeTableRecord
  2
GTDCHAIN
 70
0
  3
GTDCHAIN
 72
65
 73
6
 40
30.0
 49
14.6939
 74
0
 49
-3.06122
 74
0
 49
3.06122
 74
0
 49
-3.06122
 74
0
 49
3.06122
 74
0
 49
-3.06122
 74
0
  0
LTYPE
  5
29
330
5
100
AcDbSymbolTableRecord
100
AcDbLinetypeTableRecord
  2
GTFDOT
 70
0
  3
GTFDOT
 72
65
 73
2
 40
3.0
 49
0.24
 74
0
 49
-2.76
 74
0
  0
LTYPE
  5
2A
330
5
100
AcDbSymbolTableRecord
100
AcDbLinetypeTableRecord
  2
GTTCHAIN
 70
0
  3
GTTCHAIN
 72
65
 73
8
 40
45.0
 49
24.0
 74
0
 49
-3.0
 74
0
 49
3.0
 74
0
 49
-3.0
 74
0
 49
3.0
 74
0
 49
-3.0
 74
0
 49
3.0
 74
0
 49
-3.0
 74
0
  0
LTYPE
  5
2B
330
5
100
AcDbSymbolTableRecord
100
AcDbLinetypeTableRecord
  2
GT110
 70
0
  3
GT110
 72
65
 73
2
 40
3.0
 49
2.0
 74
0
 49
-1.0
 74
0
  0
LTYPE
  5
2C
330
5
100
AcDbSymbolTableRecord
100
AcDbLinetypeTableRecord
  2
GT101
 70
0
  3
GT101
 72
65
 73
2
 40
3.0
 49
2.0
 74
0
 49
-1.0
 74
0
  0
LTYPE
  5
2D
330
5
100
AcDbSymbolTableRecord
100
AcDbLinetypeTableRecord
  2
GT100
 70
0
  3
GT100
 72
65
 73
2
 40
1.0
 49
0.666667
 74
0
 49
-0.333333
 74
0
  0
LTYPE
  5
2E
330
5
100
AcDbSymbolTableRecord
100
AcDbLinetypeTableRecord
  2
GT111
 70
0
  3
GT111
 72
65
 73
4
 40
6.0
 49
4.0
 74
0
 49
-0.8
 74
0
 49
0.4
 74
0
 49
-0.8
 74
0
  0
LTYPE
  5
E9C
330
5
100
AcDbSymbolTableRecord
100
AcDbLinetypeTableRecord
  2
DASHED2
 70
0
  3
_ _ _ _ _ _ _ _ _ _ _ _ _ _ _ _ _ _ _ _ _ _ _ _
 72
65
 73
2
 40
0.375
 49
0.25
 74
0
 49
-0.125
 74
0
  0
ENDTAB
  0
TABLE
  2
LAYER
  5
2
330
0
100
AcDbSymbolTable
 70
6
  0
LAYER
  5
10
330
2
100
AcDbSymbolTableRecord
100
AcDbLayerTableRecord
  2
0
 70
0
 62
7
  6
Continuous
370
-3
390
F
347
36
348
0
  0
LAYER
  5
37
330
2
100
AcDbSymbolTableRecord
100
AcDbLayerTableRecord
  2
Defpoints
 70
0
 62
7
  6
Continuous
290
0
370
-3
390
F
347
36
348
0
  0
LAYER
  5
E2E
330
2
100
AcDbSymbolTableRecord
100
AcDbLayerTableRecord
  2
GT_1
 70
0
 62
7
  6
Continuous
370
-3
390
F
347
36
348
0
  0
LAYER
  5
E63
330
2
100
AcDbSymbolTableRecord
100
AcDbLayerTableRecord
  2
delEnt
 70
0
 62
7
  6
Continuous
370
-3
390
F
347
36
348
0
1001
AcAecLayerStandard
1000

1000

  0
LAYER
  5
E99
330
2
100
AcDbSymbolTableRecord
100
AcDbLayerTableRecord
  2
SW
 70
0
 62
7
  6
Continuous
370
-3
390
F
347
36
348
0
  0
LAYER
  5
E9A
330
2
100
AcDbSymbolTableRecord
100
AcDbLayerTableRecord
  2
OW
 70
0
 62
7
  6
Continuous
370
-3
390
F
347
36
348
0
  0
ENDTAB
  0
TABLE
  2
STYLE
  5
3
330
0
100
AcDbSymbolTable
 70
2
  0
STYLE
  5
11
330
3
100
AcDbSymbolTableRecord
100
AcDbTextStyleTableRecord
  2
Standard
 70
0
 40
0.0
 41
1.0
 50
0.0
 71
0
 42
2.5
  3
txt
  4

  0
STYLE
  5
38
330
3
100
AcDbSymbolTableRecord
100
AcDbTextStyleTableRecord
  2
HTX1
 70
0
 40
0.0
 41
1.02
 50
0.0
 71
0
 42
1.0
  3
O8116901
  4

  0
ENDTAB
  0
TABLE
  2
VIEW
  5
6
330
0
100
AcDbSymbolTable
 70
0
  0
ENDTAB
  0
TABLE
  2
UCS
  5
7
330
0
100
AcDbSymbolTable
 70
0
  0
ENDTAB
  0
TABLE
  2
APPID
  5
9
330
0
100
AcDbSymbolTable
 70
5
  0
APPID
  5
12
330
9
100
AcDbSymbolTableRecord
100
AcDbRegAppTableRecord
  2
ACAD
 70
0
  0
APPID
  5
3B
330
9
100
AcDbSymbolTableRecord
100
AcDbRegAppTableRecord
  2
HATCHBACKGROUNDCOLOR
 70
0
  0
APPID
  5
3C
330
9
100
AcDbSymbolTableRecord
100
AcDbRegAppTableRecord
  2
EZDXF
 70
0
  0
APPID
  5
E60
330
9
100
AcDbSymbolTableRecord
100
AcDbRegAppTableRecord
  2
MapGWS
 70
0
  0
APPID
  5
E62
330
9
100
AcDbSymbolTableRecord
100
AcDbRegAppTableRecord
  2
AcAecLayerStandard
 70
0
  0
ENDTAB
  0
TABLE
  2
DIMSTYLE
  5
A
330
0
100
AcDbSymbolTable
 70
1
100
AcDbDimStyleTable
  0
DIMSTYLE
105
3D
330
A
100
AcDbSymbolTableRecord
100
AcDbDimStyleTableRecord
  2
Standard
 70
0
 40
1.0
 41
2.5
 42
0.625
 43
3.75
 44
1.25
 45
0.0
 46
0.0
 47
0.0
 48
0.0
 49
2.5
140
2.5
141
2.5
142
0.0
143
0.03937007874
144
1.0
145
0.0
146
1.0
147
0.625
148
0.0
 69
0
 70
0
 71
0
 72
0
 73
0
 74
0
 75
0
 76
0
 77
1
 78
8
 79
3
170
0
171
3
172
1
173
0
174
0
175
0
176
0
177
0
178
0
179
2
271
2
272
2
273
2
274
3
275
0
276
0
277
2
278
44
279
0
280
0
281
0
282
0
283
0
284
8
285
0
286
0
288
0
289
3
290
0
340
11
371
-2
372
-2
  0
ENDTAB
  0
TABLE
  2
BLOCK_RECORD
  5
1
330
0
100
AcDbSymbolTable
 70
2
  0
BLOCK_RECORD
  5
1D
330
1
100
AcDbSymbolTableRecord
100
AcDbBlockTableRecord
  2
*Model_Space
340
1E
 70
0
280
1
281
0
  0
BLOCK_RECORD
  5
1B
330
1
100
AcDbSymbolTableRecord
100
AcDbBlockTableRecord
  2
*Paper_Space
340
1C
 70
0
280
1
281
0
  0
ENDTAB
  0
ENDSEC
  0
SECTION
  2
BLOCKS
  0
BLOCK
  5
3E
330
1D
100
AcDbEntity
  8
0
100
AcDbBlockBegin
  2
*Model_Space
 70
0
 10
0.0
 20
0.0
 30
0.0
  3
*Model_Space
  1

1001
EZDXF
1000
WRITTEN_BY_EZDXF
1000
1.4.2 @ 2025-06-30T04:43:30.333209+00:00
  0
ENDBLK
  5
3F
330
1D
100
AcDbEntity
  8
0
100
AcDbBlockEnd
  0
BLOCK
  5
40
330
1B
100
AcDbEntity
 67
1
  8
0
100
AcDbBlockBegin
  2
*Paper_Space
 70
0
 10
0.0
 20
0.0
 30
0.0
  3
*Paper_Space
  1

  0
ENDBLK
  5
41
330
1B
100
AcDbEntity
 67
1
  8
0
100
AcDbBlockEnd
  0
ENDSEC
  0
SECTION
  2
ENTITIES
  0
LWPOLYLINE
  5
42
330
1D
100
AcDbEntity
  8
GT_1
100
AcDbPolyline
 90
5
 70
128
 10
830.0
 20
12.0
 10
830.0
 20
584.0
 10
616.7
 20
584.0
 10
616.7
 20
12.0
 10
830.0
 20
12.0
  0
TEXT
  5
49
330
1D
100
AcDbEntity
  8
GT_1
 62
2
100
AcDbText
 10
620.129
 20
578.286
 30
0.0
 40
3.0
  1
FABRICATION MATERIALS
  7
HTX1
 41
1.02
100
AcDbText
  0
LWPOLYLINE
  5
4A
330
1D
100
AcDbEntity
  8
GT_1
100
AcDbPolyline
 90
2
 70
128
 10
616.7
 20
572.571
 10
830.0
 20
572.571
  0
TEXT
  5
4E
330
1D
100
AcDbEntity
  8
GT_1
 62
2
100
AcDbText
 10
620.129
 20
566.857
 30
0.0
 40
3.0
  1
PT
  7
HTX1
 41
1.02
100
AcDbText
  0
TEXT
  5
4F
330
1D
100
AcDbEntity
  8
GT_1
 62
2
100
AcDbText
 10
620.129
 20
561.429
 30
0.0
 40
3.0
  1
NO
  7
HTX1
 41
1.02
100
AcDbText
  0
TEXT
  5
50
330
1D
100
AcDbEntity
  8
GT_1
 62
2
100
AcDbText
 10
628.357
 20
566.857
 30
0.0
 40
3.0
  1
ITEM
  7
HTX1
 41
1.02
100
AcDbText
  0
TEXT
  5
51
330
1D
100
AcDbEntity
  8
GT_1
 62
2
100
AcDbText
 10
659.214
 20
566.857
 30
0.0
 40
3.0
  1
MATERIAL
  7
HTX1
 41
1.02
100
AcDbText
  0
TEXT
  5
52
330
1D
100
AcDbEntity
  8
GT_1
 62
2
100
AcDbText
 10
692.129
 20
566.857
 30
0.0
 40
3.0
  1
SIZE (DN)
  7
HTX1
 41
1.02
100
AcDbText
  0
TEXT
  5
53
330
1D
100
AcDbEntity
  8
GT_1
 62
2
100
AcDbText
 10
714.757
 20
566.857
 30
0.0
 40
3.0
  1
DESCRIPTION
  7
HTX1
 41
1.02
100
AcDbText
  0
TEXT
  5
54
330
1D
100
AcDbEntity
  8
GT_1
 62
2
100
AcDbText
 10
760.014
 20
566.857
 30
0.0
 40
3.0
  1
QTY
  7
HTX1
 41
1.02
100
AcDbText
  0
TEXT
  5
55
330
1D
100
AcDbEntity
  8
GT_1
 62
2
100
AcDbText
 10
760.014
 20
561.429
 30
0.0
 40
3.0
  1
[MM,EA]
  7
HTX1
 41
1.02
100
AcDbText
  0
TEXT
  5
56
330
1D
100
AcDbEntity
  8
GT_1
 62
2
100
AcDbText
 10
778.529
 20
566.857
 30
0.0
 40
3.0
  1
UNIT
  7
HTX1
 41
1.02
100
AcDbText
  0
TEXT
  5
57
330
1D
100
AcDbEntity
  8
GT_1
 62
2
100
AcDbText
 10
778.529
 20
561.429
 30
0.0
 40
3.0
  1
W.T
  7
HTX1
 41
1.02
100
AcDbText
  0
TEXT
  5
58
330
1D
100
AcDbEntity
  8
GT_1
 62
2
100
AcDbText
 10
794.986
 20
566.857
 30
0.0
 40
3.0
  1
TOTAL
  7
HTX1
 41
1.02
100
AcDbText
  0
TEXT
  5
59
330
1D
100
AcDbEntity
  8
GT_1
 62
2
100
AcDbText
 10
794.986
 20
561.429
 30
0.0
 40
3.0
  1
W.T
  7
HTX1
 41
1.02
100
AcDbText
  0
TEXT
  5
5A
330
1D
100
AcDbEntity
  8
GT_1
 62
2
100
AcDbText
 10
813.5
 20
566.857
 30
0.0
 40
3.0
  1
 REMARK
  7
HTX1
 41
1.02
100
AcDbText
  0
LWPOLYLINE
  5
5B
330
1D
100
AcDbEntity
  8
GT_1
100
AcDbPolyline
 90
2
 70
128
 10
616.7
 20
558.117
 10
830.0
 20
558.117
  0
TEXT
  5
5F
330
1D
100
AcDbEntity
  8
GT_1
 62
2
100
AcDbText
 10
620.129
 20
549.714
 30
0.0
 40
3.0
  1
  1
  7
HTX1
 41
1.02
100
AcDbText
  0
TEXT
  5
60
330
1D
100
AcDbEntity
  8
GT_1
 62
2
100
AcDbText
 10
628.357
 20
549.714
 30
0.0
 40
3.0
  1
PIPE
  7
HTX1
 41
1.02
100
AcDbText
  0
TEXT
  5
61
330
1D
100
AcDbEntity
  8
GT_1
 62
2
100
AcDbText
 10
659.214
 20
549.714
 30
0.0
 40
3.0
  1
A106-B
  7
HTX1
 41
1.02
100
AcDbText
  0
TEXT
  5
62
330
1D
100
AcDbEntity
  8
GT_1
 62
2
100
AcDbText
 10
692.129
 20
549.714
 30
0.0
 40
3.0
  1
200
  7
HTX1
 41
1.02
100
AcDbText
  0
TEXT
  5
63
330
1D
100
AcDbEntity
  8
GT_1
 62
2
100
AcDbText
 10
714.757
 20
549.714
 30
0.0
 40
3.0
  1
SMLS BE SCH40
  7
HTX1
 41
1.02
100
AcDbText
  0
TEXT
  5
64
330
1D
100
AcDbEntity
  8
GT_1
 62
2
100
AcDbText
 10
760.014
 20
549.714
 30
0.0
 40
3.0
  1
11043
  7
HTX1
 41
1.02
100
AcDbText
  0
TEXT
  5
65
330
1D
100
AcDbEntity
  8
GT_1
 62
2
100
AcDbText
 10
778.529
 20
549.714
 30
0.0
 40
3.0
  1
43.39
  7
HTX1
 41
1.02
100
AcDbText
  0
TEXT
  5
66
330
1D
100
AcDbEntity
  8
GT_1
 62
2
100
AcDbText
 10
794.986
 20
549.714
 30
0.0
 40
3.0
  1
 479.16
  7
HTX1
 41
1.02
100
AcDbText
  0
TEXT
  5
67
330
1D
100
AcDbEntity
  8
GT_1
 62
2
100
AcDbText
 10
620.129
 20
544.0
 30
0.0
 40
3.0
  1
  3
  7
HTX1
 41
1.02
100
AcDbText
  0
TEXT
  5
68
330
1D
100
AcDbEntity
  8
GT_1
 62
2
100
AcDbText
 10
628.357
 20
544.0
 30
0.0
 40
3.0
  1
45 ELBOW
  7
HTX1
 41
1.02
100
AcDbText
  0
TEXT
  5
69
330
1D
100
AcDbEntity
  8
GT_1
 62
2
100
AcDbText
 10
659.214
 20
544.0
 30
0.0
 40
3.0
  1
A234-WPB
  7
HTX1
 41
1.02
100
AcDbText
  0
TEXT
  5
6A
330
1D
100
AcDbEntity
  8
GT_1
 62
2
100
AcDbText
 10
692.129
 20
544.0
 30
0.0
 40
3.0
  1
200
  7
HTX1
 41
1.02
100
AcDbText
  0
TEXT
  5
6B
330
1D
100
AcDbEntity
  8
GT_1
 62
2
100
AcDbText
 10
714.757
 20
544.0
 30
0.0
 40
3.0
  1
SMLS BW SCH40
  7
HTX1
 41
1.02
100
AcDbText
  0
TEXT
  5
6C
330
1D
100
AcDbEntity
  8
GT_1
 62
2
100
AcDbText
 10
760.014
 20
544.0
 30
0.0
 40
3.0
  1
2
  7
HTX1
 41
1.02
100
AcDbText
  0
TEXT
  5
6D
330
1D
100
AcDbEntity
  8
GT_1
 62
2
100
AcDbText
 10
778.529
 20
544.0
 30
0.0
 40
3.0
  1
10.05
  7
HTX1
 41
1.02
100
AcDbText
  0
TEXT
  5
6E
330
1D
100
AcDbEntity
  8
GT_1
 62
2
100
AcDbText
 10
794.986
 20
544.0
 30
0.0
 40
3.0
  1
  20.10
  7
HTX1
 41
1.02
100
AcDbText
  0
TEXT
  5
6F
330
1D
100
AcDbEntity
  8
GT_1
 62
2
100
AcDbText
 10
813.5
 20
544.0
 30
0.0
 40
3.0
  1
45degree
  7
HTX1
 41
1.02
100
AcDbText
  0
TEXT
  5
70
330
1D
100
AcDbEntity
  8
GT_1
 62
2
100
AcDbText
 10
620.129
 20
538.286
 30
0.0
 40
3.0
  1
  4
  7
HTX1
 41
1.02
100
AcDbText
  0
TEXT
  5
71
330
1D
100
AcDbEntity
  8
GT_1
 62
2
100
AcDbText
 10
628.357
 20
538.286
 30
0.0
 40
3.0
  1
90 ELBOW
  7
HTX1
 41
1.02
100
AcDbText
  0
TEXT
  5
72
330
1D
100
AcDbEntity
  8
GT_1
 62
2
100
AcDbText
 10
659.214
 20
538.286
 30
0.0
 40
3.0
  1
A234-WPB
  7
HTX1
 41
1.02
100
AcDbText
  0
TEXT
  5
73
330
1D
100
AcDbEntity
  8
GT_1
 62
2
100
AcDbText
 10
692.129
 20
538.286
 30
0.0
 40
3.0
  1
200
  7
HTX1
 41
1.02
100
AcDbText
  0
TEXT
  5
74
330
1D
100
AcDbEntity
  8
GT_1
 62
2
100
AcDbText
 10
714.757
 20
538.286
 30
0.0
 40
3.0
  1
SMLS BW SCH40
  7
HTX1
 41
1.02
100
AcDbText
  0
TEXT
  5
75
330
1D
100
AcDbEntity
  8
GT_1
 62
2
100
AcDbText
 10
760.014
 20
538.286
 30
0.0
 40
3.0
  1
1
  7
HTX1
 41
1.02
100
AcDbText
  0
TEXT
  5
76
330
1D
100
AcDbEntity
  8
GT_1
 62
2
100
AcDbText
 10
778.529
 20
538.286
 30
0.0
 40
3.0
  1
20.1
  7
HTX1
 41
1.02
100
AcDbText
  0
TEXT
  5
77
330
1D
100
AcDbEntity
  8
GT_1
 62
2
100
AcDbText
 10
794.986
 20
538.286
 30
0.0
 40
3.0
  1
  20.10
  7
HTX1
 41
1.02
100
AcDbText
  0
TEXT
  5
78
330
1D
100
AcDbEntity
  8
GT_1
 62
2
100
AcDbText
 10
620.129
 20
532.571
 30
0.0
 40
3.0
  1
  5
  7
HTX1
 41
1.02
100
AcDbText
  0
TEXT
  5
79
330
1D
100
AcDbEntity
  8
GT_1
 62
2
100
AcDbText
 10
628.357
 20
532.571
 30
0.0
 40
3.0
  1
CAP
  7
HTX1
 41
1.02
100
AcDbText
  0
TEXT
  5
7A
330
1D
100
AcDbEntity
  8
GT_1
 62
2
100
AcDbText
 10
659.214
 20
532.571
 30
0.0
 40
3.0
  1
A234-WPB
  7
HTX1
 41
1.02
100
AcDbText
  0
TEXT
  5
7B
330
1D
100
AcDbEntity
  8
GT_1
 62
2
100
AcDbText
 10
692.129
 20
532.571
 30
0.0
 40
3.0
  1
200
  7
HTX1
 41
1.02
100
AcDbText
  0
TEXT
  5
7C
330
1D
100
AcDbEntity
  8
GT_1
 62
2
100
AcDbText
 10
714.757
 20
532.571
 30
0.0
 40
3.0
  1
SMLS BW SCH40
  7
HTX1
 41
1.02
100
AcDbText
  0
TEXT
  5
7D
330
1D
100
AcDbEntity
  8
GT_1
 62
2
100
AcDbText
 10
760.014
 20
532.571
 30
0.0
 40
3.0
  1
1
  7
HTX1
 41
1.02
100
AcDbText
  0
TEXT
  5
7E
330
1D
100
AcDbEntity
  8
GT_1
 62
2
100
AcDbText
 10
778.529
 20
532.571
 30
0.0
 40
3.0
  1
5.11
  7
HTX1
 41
1.02
100
AcDbText
  0
TEXT
  5
7F
330
1D
100
AcDbEntity
  8
GT_1
 62
2
100
AcDbText
 10
794.986
 20
532.571
 30
0.0
 40
3.0
  1
   5.11
  7
HTX1
 41
1.02
100
AcDbText
  0
TEXT
  5
80
330
1D
100
AcDbEntity
  8
GT_1
 62
2
100
AcDbText
 10
620.129
 20
526.857
 30
0.0
 40
3.0
  1
  6
  7
HTX1
 41
1.02
100
AcDbText
  0
TEXT
  5
81
330
1D
100
AcDbEntity
  8
GT_1
 62
2
100
AcDbText
 10
628.357
 20
526.857
 30
0.0
 40
3.0
  1
LATROLET
  7
HTX1
 41
1.02
100
AcDbText
  0
TEXT
  5
82
330
1D
100
AcDbEntity
  8
GT_1
 62
2
100
AcDbText
 10
659.214
 20
526.857
 30
0.0
 40
3.0
  1
A105
  7
HTX1
 41
1.02
100
AcDbText
  0
TEXT
  5
83
330
1D
100
AcDbEntity
  8
GT_1
 62
2
100
AcDbText
 10
692.129
 20
526.857
 30
0.0
 40
3.0
  1
200 x 50
  7
HTX1
 41
1.02
100
AcDbText
  0
TEXT
  5
84
330
1D
100
AcDbEntity
  8
GT_1
 62
2
100
AcDbText
 10
714.757
 20
526.857
 30
0.0
 40
3.0
  1
SW #3000
  7
HTX1
 41
1.02
100
AcDbText
  0
TEXT
  5
85
330
1D
100
AcDbEntity
  8
GT_1
 62
2
100
AcDbText
 10
760.014
 20
526.857
 30
0.0
 40
3.0
  1
6
  7
HTX1
 41
1.02
100
AcDbText
  0
TEXT
  5
86
330
1D
100
AcDbEntity
  8
GT_1
 62
2
100
AcDbText
 10
778.529
 20
526.857
 30
0.0
 40
3.0
  1
-
  7
HTX1
 41
1.02
100
AcDbText
  0
TEXT
  5
87
330
1D
100
AcDbEntity
  8
GT_1
 62
2
100
AcDbText
 10
620.129
 20
521.143
 30
0.0
 40
3.0
  1
  7
  7
HTX1
 41
1.02
100
AcDbText
  0
TEXT
  5
88
330
1D
100
AcDbEntity
  8
GT_1
 62
2
100
AcDbText
 10
628.357
 20
521.143
 30
0.0
 40
3.0
  1
LATROLET
  7
HTX1
 41
1.02
100
AcDbText
  0
TEXT
  5
89
330
1D
100
AcDbEntity
  8
GT_1
 62
2
100
AcDbText
 10
659.214
 20
521.143
 30
0.0
 40
3.0
  1
A105
  7
HTX1
 41
1.02
100
AcDbText
  0
TEXT
  5
8A
330
1D
100
AcDbEntity
  8
GT_1
 62
2
100
AcDbText
 10
692.129
 20
521.143
 30
0.0
 40
3.0
  1
200 x 100
  7
HTX1
 41
1.02
100
AcDbText
  0
TEXT
  5
8B
330
1D
100
AcDbEntity
  8
GT_1
 62
2
100
AcDbText
 10
714.757
 20
521.143
 30
0.0
 40
3.0
  1
BW SCH40 x SCH40
  7
HTX1
 41
1.02
100
AcDbText
  0
TEXT
  5
8C
330
1D
100
AcDbEntity
  8
GT_1
 62
2
100
AcDbText
 10
760.014
 20
521.143
 30
0.0
 40
3.0
  1
2
  7
HTX1
 41
1.02
100
AcDbText
  0
TEXT
  5
8D
330
1D
100
AcDbEntity
  8
GT_1
 62
2
100
AcDbText
 10
778.529
 20
521.143
 30
0.0
 40
3.0
  1
-
  7
HTX1
 41
1.02
100
AcDbText
  0
LWPOLYLINE
  5
8E
330
1D
100
AcDbEntity
  8
GT_1
100
AcDbPolyline
 90
2
 70
128
 10
616.7
 20
518.117
 10
830.0
 20
518.117
  0
LWPOLYLINE
  5
92
330
1D
100
AcDbEntity
  8
GT_1
100
AcDbPolyline
 90
2
 70
128
 10
627.329
 20
572.571
 10
627.329
 20
518.117
  0
LWPOLYLINE
  5
96
330
1D
100
AcDbEntity
  8
GT_1
100
AcDbPolyline
 90
2
 70
128
 10
658.186
 20
572.571
 10
658.186
 20
518.117
  0
LWPOLYLINE
  5
9A
330
1D
100
AcDbEntity
  8
GT_1
100
AcDbPolyline
 90
2
 70
128
 10
691.1
 20
572.571
 10
691.1
 20
518.117
  0
LWPOLYLINE
  5
9E
330
1D
100
AcDbEntity
  8
GT_1
100
AcDbPolyline
 90
2
 70
128
 10
713.729
 20
572.571
 10
713.729
 20
518.117
  0
LWPOLYLINE
  5
A2
330
1D
100
AcDbEntity
  8
GT_1
100
AcDbPolyline
 90
2
 70
128
 10
758.986
 20
572.571
 10
758.986
 20
518.117
  0
LWPOLYLINE
  5
A6
330
1D
100
AcDbEntity
  8
GT_1
100
AcDbPolyline
 90
2
 70
128
 10
777.5
 20
572.571
 10
777.5
 20
518.117
  0
LWPOLYLINE
  5
AA
330
1D
100
AcDbEntity
  8
GT_1
100
AcDbPolyline
 90
2
 70
128
 10
793.957
 20
572.571
 10
793.957
 20
518.117
  0
LWPOLYLINE
  5
AE
330
1D
100
AcDbEntity
  8
GT_1
100
AcDbPolyline
 90
2
 70
128
 10
812.471
 20
572.571
 10
812.471
 20
518.117
  0
TEXT
  5
B2
330
1D
100
AcDbEntity
  8
GT_1
 62
2
100
AcDbText
 10
743.557
 20
509.714
 30
0.0
 40
3.0
  1
TOTAL FABRICATION WEIGHT
  7
HTX1
 41
1.02
100
AcDbText
  0
TEXT
  5
B3
330
1D
100
AcDbEntity
  8
GT_1
 62
2
100
AcDbText
 10
794.986
 20
509.714
 30
0.0
 40
3.0
  1
 524.47
  7
HTX1
 41
1.02
100
AcDbText
  0
TEXT
  5
B4
330
1D
100
AcDbEntity
  8
GT_1
 62
2
100
AcDbText
 10
620.129
 20
498.286
 30
0.0
 40
3.0
  1
ERECTION MATERIALS
  7
HTX1
 41
1.02
100
AcDbText
  0
LWPOLYLINE
  5
B5
330
1D
100
AcDbEntity
  8
GT_1
100
AcDbPolyline
 90
2
 70
128
 10
616.7
 20
492.571
 10
830.0
 20
492.571
  0
TEXT
  5
B9
330
1D
100
AcDbEntity
  8
GT_1
 62
2
100
AcDbText
 10
620.129
 20
486.857
 30
0.0
 40
3.0
  1
PT
  7
HTX1
 41
1.02
100
AcDbText
  0
TEXT
  5
BA
330
1D
100
AcDbEntity
  8
GT_1
 62
2
100
AcDbText
 10
620.129
 20
481.429
 30
0.0
 40
3.0
  1
NO
  7
HTX1
 41
1.02
100
AcDbText
  0
TEXT
  5
BB
330
1D
100
AcDbEntity
  8
GT_1
 62
2
100
AcDbText
 10
628.357
 20
486.857
 30
0.0
 40
3.0
  1
ITEM
  7
HTX1
 41
1.02
100
AcDbText
  0
TEXT
  5
BC
330
1D
100
AcDbEntity
  8
GT_1
 62
2
100
AcDbText
 10
659.214
 20
486.857
 30
0.0
 40
3.0
  1
MATERIAL
  7
HTX1
 41
1.02
100
AcDbText
  0
TEXT
  5
BD
330
1D
100
AcDbEntity
  8
GT_1
 62
2
100
AcDbText
 10
692.129
 20
486.857
 30
0.0
 40
3.0
  1
SIZE (DN)
  7
HTX1
 41
1.02
100
AcDbText
  0
TEXT
  5
BE
330
1D
100
AcDbEntity
  8
GT_1
 62
2
100
AcDbText
 10
714.757
 20
486.857
 30
0.0
 40
3.0
  1
DESCRIPTION
  7
HTX1
 41
1.02
100
AcDbText
  0
TEXT
  5
BF
330
1D
100
AcDbEntity
  8
GT_1
 62
2
100
AcDbText
 10
760.014
 20
486.857
 30
0.0
 40
3.0
  1
QTY
  7
HTX1
 41
1.02
100
AcDbText
  0
TEXT
  5
C0
330
1D
100
AcDbEntity
  8
GT_1
 62
2
100
AcDbText
 10
760.014
 20
481.429
 30
0.0
 40
3.0
  1
[MM,EA]
  7
HTX1
 41
1.02
100
AcDbText
  0
TEXT
  5
C1
330
1D
100
AcDbEntity
  8
GT_1
 62
2
100
AcDbText
 10
778.529
 20
486.857
 30
0.0
 40
3.0
  1
UNIT
  7
HTX1
 41
1.02
100
AcDbText
  0
TEXT
  5
C2
330
1D
100
AcDbEntity
  8
GT_1
 62
2
100
AcDbText
 10
778.529
 20
481.429
 30
0.0
 40
3.0
  1
W.T
  7
HTX1
 41
1.02
100
AcDbText
  0
TEXT
  5
C3
330
1D
100
AcDbEntity
  8
GT_1
 62
2
100
AcDbText
 10
794.986
 20
486.857
 30
0.0
 40
3.0
  1
TOTAL
  7
HTX1
 41
1.02
100
AcDbText
  0
TEXT
  5
C4
330
1D
100
AcDbEntity
  8
GT_1
 62
2
100
AcDbText
 10
794.986
 20
481.429
 30
0.0
 40
3.0
  1
W.T
  7
HTX1
 41
1.02
100
AcDbText
  0
TEXT
  5
C5
330
1D
100
AcDbEntity
  8
GT_1
 62
2
100
AcDbText
 10
813.5
 20
486.857
 30
0.0
 40
3.0
  1
 REMARK
  7
HTX1
 41
1.02
100
AcDbText
  0
LWPOLYLINE
  5
C6
330
1D
100
AcDbEntity
  8
GT_1
100
AcDbPolyline
 90
2
 70
128
 10
616.7
 20
478.117
 10
830.0
 20
478.117
  0
TEXT
  5
CA
330
1D
100
AcDbEntity
  8
GT_1
 62
2
100
AcDbText
 10
620.129
 20
469.714
 30
0.0
 40
3.0
  1
  2
  7
HTX1
 41
1.02
100
AcDbText
  0
TEXT
  5
CB
330
1D
100
AcDbEntity
  8
GT_1
 62
2
100
AcDbText
 10
628.357
 20
469.714
 30
0.0
 40
3.0
  1
PIPE
  7
HTX1
 41
1.02
100
AcDbText
  0
TEXT
  5
CC
330
1D
100
AcDbEntity
  8
GT_1
 62
2
100
AcDbText
 10
659.214
 20
469.714
 30
0.0
 40
3.0
  1
A106-B
  7
HTX1
 41
1.02
100
AcDbText
  0
TEXT
  5
CD
330
1D
100
AcDbEntity
  8
GT_1
 62
2
100
AcDbText
 10
692.129
 20
469.714
 30
0.0
 40
3.0
  1
50
  7
HTX1
 41
1.02
100
AcDbText
  0
TEXT
  5
CE
330
1D
100
AcDbEntity
  8
GT_1
 62
2
100
AcDbText
 10
714.757
 20
469.714
 30
0.0
 40
3.0
  1
SMLS PE SCH80
  7
HTX1
 41
1.02
100
AcDbText
  0
TEXT
  5
CF
330
1D
100
AcDbEntity
  8
GT_1
 62
2
100
AcDbText
 10
760.014
 20
469.714
 30
0.0
 40
3.0
  1
284
  7
HTX1
 41
1.02
100
AcDbText
  0
TEXT
  5
D0
330
1D
100
AcDbEntity
  8
GT_1
 62
2
100
AcDbText
 10
778.529
 20
469.714
 30
0.0
 40
3.0
  1
7.63
  7
HTX1
 41
1.02
100
AcDbText
  0
TEXT
  5
D1
330
1D
100
AcDbEntity
  8
GT_1
 62
2
100
AcDbText
 10
794.986
 20
469.714
 30
0.0
 40
3.0
  1
   2.17
  7
HTX1
 41
1.02
100
AcDbText
  0
TEXT
  5
D2
330
1D
100
AcDbEntity
  8
GT_1
 62
2
100
AcDbText
 10
620.129
 20
464.0
 30
0.0
 40
3.0
  1
  8
  7
HTX1
 41
1.02
100
AcDbText
  0
TEXT
  5
D3
330
1D
100
AcDbEntity
  8
GT_1
 62
2
100
AcDbText
 10
628.357
 20
464.0
 30
0.0
 40
3.0
  1
FLANGE
  7
HTX1
 41
1.02
100
AcDbText
  0
TEXT
  5
D4
330
1D
100
AcDbEntity
  8
GT_1
 62
2
100
AcDbText
 10
659.214
 20
464.0
 30
0.0
 40
3.0
  1
A105
  7
HTX1
 41
1.02
100
AcDbText
  0
TEXT
  5
D5
330
1D
100
AcDbEntity
  8
GT_1
 62
2
100
AcDbText
 10
692.129
 20
464.0
 30
0.0
 40
3.0
  1
50
  7
HTX1
 41
1.02
100
AcDbText
  0
TEXT
  5
D6
330
1D
100
AcDbEntity
  8
GT_1
 62
2
100
AcDbText
 10
714.757
 20
464.0
 30
0.0
 40
3.0
  1
BLRF #150
  7
HTX1
 41
1.02
100
AcDbText
  0
TEXT
  5
D7
330
1D
100
AcDbEntity
  8
GT_1
 62
2
100
AcDbText
 10
760.014
 20
464.0
 30
0.0
 40
3.0
  1
2
  7
HTX1
 41
1.02
100
AcDbText
  0
TEXT
  5
D8
330
1D
100
AcDbEntity
  8
GT_1
 62
2
100
AcDbText
 10
778.529
 20
464.0
 30
0.0
 40
3.0
  1
2.64
  7
HTX1
 41
1.02
100
AcDbText
  0
TEXT
  5
D9
330
1D
100
AcDbEntity
  8
GT_1
 62
2
100
AcDbText
 10
794.986
 20
464.0
 30
0.0
 40
3.0
  1
   5.28
  7
HTX1
 41
1.02
100
AcDbText
  0
TEXT
  5
DA
330
1D
100
AcDbEntity
  8
GT_1
 62
2
100
AcDbText
 10
620.129
 20
458.286
 30
0.0
 40
3.0
  1
  9
  7
HTX1
 41
1.02
100
AcDbText
  0
TEXT
  5
DB
330
1D
100
AcDbEntity
  8
GT_1
 62
2
100
AcDbText
 10
628.357
 20
458.286
 30
0.0
 40
3.0
  1
FLANGE
  7
HTX1
 41
1.02
100
AcDbText
  0
TEXT
  5
DC
330
1D
100
AcDbEntity
  8
GT_1
 62
2
100
AcDbText
 10
659.214
 20
458.286
 30
0.0
 40
3.0
  1
A105
  7
HTX1
 41
1.02
100
AcDbText
  0
TEXT
  5
DD
330
1D
100
AcDbEntity
  8
GT_1
 62
2
100
AcDbText
 10
692.129
 20
458.286
 30
0.0
 40
3.0
  1
50
  7
HTX1
 41
1.02
100
AcDbText
  0
TEXT
  5
DE
330
1D
100
AcDbEntity
  8
GT_1
 62
2
100
AcDbText
 10
714.757
 20
458.286
 30
0.0
 40
3.0
  1
SWRF #150 SCH80
  7
HTX1
 41
1.02
100
AcDbText
  0
TEXT
  5
DF
330
1D
100
AcDbEntity
  8
GT_1
 62
2
100
AcDbText
 10
760.014
 20
458.286
 30
0.0
 40
3.0
  1
2
  7
HTX1
 41
1.02
100
AcDbText
  0
TEXT
  5
E0
330
1D
100
AcDbEntity
  8
GT_1
 62
2
100
AcDbText
 10
778.529
 20
458.286
 30
0.0
 40
3.0
  1
2.33
  7
HTX1
 41
1.02
100
AcDbText
  0
TEXT
  5
E1
330
1D
100
AcDbEntity
  8
GT_1
 62
2
100
AcDbText
 10
794.986
 20
458.286
 30
0.0
 40
3.0
  1
   4.66
  7
HTX1
 41
1.02
100
AcDbText
  0
TEXT
  5
E2
330
1D
100
AcDbEntity
  8
GT_1
 62
2
100
AcDbText
 10
620.129
 20
452.571
 30
0.0
 40
3.0
  1
 10
  7
HTX1
 41
1.02
100
AcDbText
  0
TEXT
  5
E3
330
1D
100
AcDbEntity
  8
GT_1
 62
2
100
AcDbText
 10
628.357
 20
452.571
 30
0.0
 40
3.0
  1
GASKET
  7
HTX1
 41
1.02
100
AcDbText
  0
TEXT
  5
E4
330
1D
100
AcDbEntity
  8
GT_1
 62
2
100
AcDbText
 10
659.214
 20
452.571
 30
0.0
 40
3.0
  1
SPIRAL-WOUND
  7
HTX1
 41
1.02
100
AcDbText
  0
TEXT
  5
E5
330
1D
100
AcDbEntity
  8
GT_1
 62
2
100
AcDbText
 10
692.129
 20
452.571
 30
0.0
 40
3.0
  1
50
  7
HTX1
 41
1.02
100
AcDbText
  0
TEXT
  5
E6
330
1D
100
AcDbEntity
  8
GT_1
 62
2
100
AcDbText
 10
714.757
 20
452.571
 30
0.0
 40
3.0
  1
4.5T #150 RF I-Ring :
  7
HTX1
 41
1.02
100
AcDbText
  0
TEXT
  5
E7
330
1D
100
AcDbEntity
  8
GT_1
 62
2
100
AcDbText
 10
714.757
 20
447.143
 30
0.0
 40
3.0
  1
SS304, O-Ring :
  7
HTX1
 41
1.02
100
AcDbText
  0
TEXT
  5
E8
330
1D
100
AcDbEntity
  8
GT_1
 62
2
100
AcDbText
 10
714.757
 20
441.714
 30
0.0
 40
3.0
  1
SS304, Filler :
  7
HTX1
 41
1.02
100
AcDbText
  0
TEXT
  5
E9
330
1D
100
AcDbEntity
  8
GT_1
 62
2
100
AcDbText
 10
714.757
 20
436.286
 30
0.0
 40
3.0
  1
Graphite, Hoop :
  7
HTX1
 41
1.02
100
AcDbText
  0
TEXT
  5
EA
330
1D
100
AcDbEntity
  8
GT_1
 62
2
100
AcDbText
 10
714.757
 20
430.857
 30
0.0
 40
3.0
  1
SS304
  7
HTX1
 41
1.02
100
AcDbText
  0
TEXT
  5
EB
330
1D
100
AcDbEntity
  8
GT_1
 62
2
100
AcDbText
 10
760.014
 20
452.571
 30
0.0
 40
3.0
  1
2
  7
HTX1
 41
1.02
100
AcDbText
  0
TEXT
  5
EC
330
1D
100
AcDbEntity
  8
GT_1
 62
2
100
AcDbText
 10
778.529
 20
452.571
 30
0.0
 40
3.0
  1
-
  7
HTX1
 41
1.02
100
AcDbText
  0
TEXT
  5
ED
330
1D
100
AcDbEntity
  8
GT_1
 62
2
100
AcDbText
 10
620.129
 20
424.0
 30
0.0
 40
3.0
  1
 11
  7
HTX1
 41
1.02
100
AcDbText
  0
TEXT
  5
EE
330
1D
100
AcDbEntity
  8
GT_1
 62
2
100
AcDbText
 10
628.357
 20
424.0
 30
0.0
 40
3.0
  1
STUD B/N
  7
HTX1
 41
1.02
100
AcDbText
  0
TEXT
  5
EF
330
1D
100
AcDbEntity
  8
GT_1
 62
2
100
AcDbText
 10
659.214
 20
424.0
 30
0.0
 40
3.0
  1
A193-B7/A194-2H
  7
HTX1
 41
1.02
100
AcDbText
  0
TEXT
  5
F0
330
1D
100
AcDbEntity
  8
GT_1
 62
2
100
AcDbText
 10
692.129
 20
424.0
 30
0.0
 40
3.0
  1
5/8
  7
HTX1
 41
1.02
100
AcDbText
  0
TEXT
  5
F1
330
1D
100
AcDbEntity
  8
GT_1
 62
2
100
AcDbText
 10
714.757
 20
424.0
 30
0.0
 40
3.0
  1
90 L STUD BOLTS/HEAVY
  7
HTX1
 41
1.02
100
AcDbText
  0
TEXT
  5
F2
330
1D
100
AcDbEntity
  8
GT_1
 62
2
100
AcDbText
 10
714.757
 20
418.571
 30
0.0
 40
3.0
  1
HEX NUTS
  7
HTX1
 41
1.02
100
AcDbText
  0
TEXT
  5
F3
330
1D
100
AcDbEntity
  8
GT_1
 62
2
100
AcDbText
 10
760.014
 20
424.0
 30
0.0
 40
3.0
  1
8
  7
HTX1
 41
1.02
100
AcDbText
  0
TEXT
  5
F4
330
1D
100
AcDbEntity
  8
GT_1
 62
2
100
AcDbText
 10
778.529
 20
424.0
 30
0.0
 40
3.0
  1
-
  7
HTX1
 41
1.02
100
AcDbText
  0
TEXT
  5
F5
330
1D
100
AcDbEntity
  8
GT_1
 62
2
100
AcDbText
 10
794.986
 20
424.0
 30
0.0
 40
3.0
  1
   0.00
  7
HTX1
 41
1.02
100
AcDbText
  0
LWPOLYLINE
  5
F6
330
1D
100
AcDbEntity
  8
GT_1
100
AcDbPolyline
 90
2
 70
128
 10
616.7
 20
415.259
 10
830.0
 20
415.259
  0
LWPOLYLINE
  5
FA
330
1D
100
AcDbEntity
  8
GT_1
100
AcDbPolyline
 90
2
 70
128
 10
627.329
 20
492.571
 10
627.329
 20
415.259
  0
LWPOLYLINE
  5
FE
330
1D
100
AcDbEntity
  8
GT_1
100
AcDbPolyline
 90
2
 70
128
 10
658.186
 20
492.571
 10
658.186
 20
415.259
  0
LWPOLYLINE
  5
102
330
1D
100
AcDbEntity
  8
GT_1
100
AcDbPolyline
 90
2
 70
128
 10
691.1
 20
492.571
 10
691.1
 20
415.259
  0
LWPOLYLINE
  5
106
330
1D
100
AcDbEntity
  8
GT_1
100
AcDbPolyline
 90
2
 70
128
 10
713.729
 20
492.571
 10
713.729
 20
415.259
  0
LWPOLYLINE
  5
10A
330
1D
100
AcDbEntity
  8
GT_1
100
AcDbPolyline
 90
2
 70
128
 10
758.986
 20
492.571
 10
758.986
 20
415.259
  0
LWPOLYLINE
  5
10E
330
1D
100
AcDbEntity
  8
GT_1
100
AcDbPolyline
 90
2
 70
128
 10
777.5
 20
492.571
 10
777.5
 20
415.259
  0
LWPOLYLINE
  5
112
330
1D
100
AcDbEntity
  8
GT_1
100
AcDbPolyline
 90
2
 70
128
 10
793.957
 20
492.571
 10
793.957
 20
415.259
  0
LWPOLYLINE
  5
116
330
1D
100
AcDbEntity
  8
GT_1
100
AcDbPolyline
 90
2
 70
128
 10
812.471
 20
492.571
 10
812.471
 20
415.259
  0
TEXT
  5
11A
330
1D
100
AcDbEntity
  8
GT_1
 62
2
100
AcDbText
 10
749.729
 20
406.857
 30
0.0
 40
3.0
  1
TOTAL ERECTION WEIGHT
  7
HTX1
 41
1.02
100
AcDbText
  0
TEXT
  5
11B
330
1D
100
AcDbEntity
  8
GT_1
 62
2
100
AcDbText
 10
794.986
 20
406.857
 30
0.0
 40
3.0
  1
  12.11
  7
HTX1
 41
1.02
100
AcDbText
  0
TEXT
  5
11C
330
1D
100
AcDbEntity
  8
GT_1
 62
2
100
AcDbText
 10
768.243
 20
395.429
 30
0.0
 40
3.0
  1
TOTAL WEIGHT
  7
HTX1
 41
1.02
100
AcDbText
  0
TEXT
  5
11D
330
1D
100
AcDbEntity
  8
GT_1
 62
2
100
AcDbText
 10
794.986
 20
395.429
 30
0.0
 40
3.0
  1
 536.58
  7
HTX1
 41
1.02
100
AcDbText
  0
TEXT
  5
11E
330
1D
100
AcDbEntity
  8
GT_1
 62
2
100
AcDbText
 10
622.186
 20
384.0
 30
0.0
 40
3.0
  1
PIPE SPOOLS
  7
HTX1
 41
1.02
100
AcDbText
  0
LWPOLYLINE
  5
11F
330
1D
100
AcDbEntity
  8
GT_1
100
AcDbPolyline
 90
2
 70
128
 10
644.626
 20
381.971
 10
622.186
 20
381.971
  0
TEXT
  5
123
330
1D
100
AcDbEntity
  8
GT_1
 62
2
100
AcDbText
 10
622.186
 20
372.571
 30
0.0
 40
3.0
  1
110022-13120-093-SOO1
  7
HTX1
 41
1.02
100
AcDbText
  0
TEXT
  5
124
330
1D
100
AcDbEntity
  8
GT_1
 62
2
100
AcDbText
 10
667.443
 20
372.571
 30
0.0
 40
3.0
  1
110022-13120-093-SOO2
  7
HTX1
 41
1.02
100
AcDbText
  0
TEXT
  5
125
330
1D
100
AcDbEntity
  8
GT_1
 62
2
100
AcDbText
 10
712.7
 20
372.571
 30
0.0
 40
3.0
  1
110022-13120-093-SOO3
  7
HTX1
 41
1.02
100
AcDbText
  0
LWPOLYLINE
  5
126
330
1D
100
AcDbEntity
  8
GT_1
100
AcDbPolyline
 90
2
 70
128
 10
616.7
 20
363.831
 10
830.0
 20
363.831
  0
TEXT
  5
12A
330
1D
100
AcDbEntity
  8
GT_1
 62
2
100
AcDbText
 10
718.871
 20
349.714
 30
0.0
 40
3.0
  1
CUT PIPE LENGTH
  7
HTX1
 41
1.02
100
AcDbText
  0
LWPOLYLINE
  5
12B
330
1D
100
AcDbEntity
  8
GT_1
100
AcDbPolyline
 90
5
 70
128
 10
715.786
 20
353.743
 10
752.557
 20
353.743
 10
752.557
 20
347.686
 10
715.786
 20
347.686
 10
715.786
 20
353.743
  0
TEXT
  5
132
330
1D
100
AcDbEntity
  8
GT_1
 62
2
100
AcDbText
 10
620.129
 20
338.286
 30
0.0
 40
3.0
  1
PIECE
  7
HTX1
 41
1.02
100
AcDbText
  0
TEXT
  5
133
330
1D
100
AcDbEntity
  8
GT_1
 62
2
100
AcDbText
 10
620.129
 20
332.857
 30
0.0
 40
3.0
  1
NO
  7
HTX1
 41
1.02
100
AcDbText
  0
TEXT
  5
134
330
1D
100
AcDbEntity
  8
GT_1
 62
2
100
AcDbText
 10
632.471
 20
338.286
 30
0.0
 40
3.0
  1
     CUT
  7
HTX1
 41
1.02
100
AcDbText
  0
TEXT
  5
135
330
1D
100
AcDbEntity
  8
GT_1
 62
2
100
AcDbText
 10
632.471
 20
332.857
 30
0.0
 40
3.0
  1
   LENGTH
  7
HTX1
 41
1.02
100
AcDbText
  0
TEXT
  5
136
330
1D
100
AcDbEntity
  8
GT_1
 62
2
100
AcDbText
 10
655.1
 20
338.286
 30
0.0
 40
3.0
  1
SIZE
  7
HTX1
 41
1.02
100
AcDbText
  0
TEXT
  5
137
330
1D
100
AcDbEntity
  8
GT_1
 62
2
100
AcDbText
 10
655.1
 20
332.857
 30
0.0
 40
3.0
  1
(DN)
  7
HTX1
 41
1.02
100
AcDbText
  0
TEXT
  5
138
330
1D
100
AcDbEntity
  8
GT_1
 62
2
100
AcDbText
 10
704.471
 20
338.286
 30
0.0
 40
3.0
  1
PIECE
  7
HTX1
 41
1.02
100
AcDbText
  0
TEXT
  5
139
330
1D
100
AcDbEntity
  8
GT_1
 62
2
100
AcDbText
 10
704.471
 20
332.857
 30
0.0
 40
3.0
  1
NO
  7
HTX1
 41
1.02
100
AcDbText
  0
TEXT
  5
13A
330
1D
100
AcDbEntity
  8
GT_1
 62
2
100
AcDbText
 10
716.814
 20
338.286
 30
0.0
 40
3.0
  1
     CUT
  7
HTX1
 41
1.02
100
AcDbText
  0
TEXT
  5
13B
330
1D
100
AcDbEntity
  8
GT_1
 62
2
100
AcDbText
 10
716.814
 20
332.857
 30
0.0
 40
3.0
  1
   LENGTH
  7
HTX1
 41
1.02
100
AcDbText
  0
TEXT
  5
13C
330
1D
100
AcDbEntity
  8
GT_1
 62
2
100
AcDbText
 10
739.443
 20
338.286
 30
0.0
 40
3.0
  1
SIZE
  7
HTX1
 41
1.02
100
AcDbText
  0
TEXT
  5
13D
330
1D
100
AcDbEntity
  8
GT_1
 62
2
100
AcDbText
 10
739.443
 20
332.857
 30
0.0
 40
3.0
  1
(DN)
  7
HTX1
 41
1.02
100
AcDbText
  0
TEXT
  5
13E
330
1D
100
AcDbEntity
  8
GT_1
 62
2
100
AcDbText
 10
655.1
 20
326.857
 30
0.0
 40
3.0
  1

  7
HTX1
 41
1.02
100
AcDbText
  0
TEXT
  5
13F
330
1D
100
AcDbEntity
  8
GT_1
 62
2
100
AcDbText
 10
739.443
 20
326.857
 30
0.0
 40
3.0
  1

  7
HTX1
 41
1.02
100
AcDbText
  0
TEXT
  5
140
330
1D
100
AcDbEntity
  8
GT_1
 62
2
100
AcDbText
 10
620.129
 20
321.143
 30
0.0
 40
3.0
  1
  <1>
  7
HTX1
 41
1.02
100
AcDbText
  0
TEXT
  5
141
330
1D
100
AcDbEntity
  8
GT_1
 62
2
100
AcDbText
 10
632.471
 20
321.143
 30
0.0
 40
3.0
  1
      142
  7
HTX1
 41
1.02
100
AcDbText
  0
TEXT
  5
142
330
1D
100
AcDbEntity
  8
GT_1
 62
2
100
AcDbText
 10
655.1
 20
321.143
 30
0.0
 40
3.0
  1
    50
  7
HTX1
 41
1.02
100
AcDbText
  0
TEXT
  5
143
330
1D
100
AcDbEntity
  8
GT_1
 62
2
100
AcDbText
 10
704.471
 20
321.143
 30
0.0
 40
3.0
  1
  <2>
  7
HTX1
 41
1.02
100
AcDbText
  0
TEXT
  5
144
330
1D
100
AcDbEntity
  8
GT_1
 62
2
100
AcDbText
 10
716.814
 20
321.143
 30
0.0
 40
3.0
  1
      142
  7
HTX1
 41
1.02
100
AcDbText
  0
TEXT
  5
145
330
1D
100
AcDbEntity
  8
GT_1
 62
2
100
AcDbText
 10
739.443
 20
321.143
 30
0.0
 40
3.0
  1
    50
  7
HTX1
 41
1.02
100
AcDbText
  0
TEXT
  5
146
330
1D
100
AcDbEntity
  8
GT_1
 62
2
100
AcDbText
 10
620.129
 20
315.429
 30
0.0
 40
3.0
  1
  <3>
  7
HTX1
 41
1.02
100
AcDbText
  0
TEXT
  5
147
330
1D
100
AcDbEntity
  8
GT_1
 62
2
100
AcDbText
 10
632.471
 20
315.429
 30
0.0
 40
3.0
  1
     4050
  7
HTX1
 41
1.02
100
AcDbText
  0
TEXT
  5
148
330
1D
100
AcDbEntity
  8
GT_1
 62
2
100
AcDbText
 10
655.1
 20
315.429
 30
0.0
 40
3.0
  1
   200
  7
HTX1
 41
1.02
100
AcDbText
  0
TEXT
  5
149
330
1D
100
AcDbEntity
  8
GT_1
 62
2
100
AcDbText
 10
704.471
 20
315.429
 30
0.0
 40
3.0
  1
  <4>
  7
HTX1
 41
1.02
100
AcDbText
  0
TEXT
  5
14A
330
1D
100
AcDbEntity
  8
GT_1
 62
2
100
AcDbText
 10
716.814
 20
315.429
 30
0.0
 40
3.0
  1
     5230
  7
HTX1
 41
1.02
100
AcDbText
  0
TEXT
  5
14B
330
1D
100
AcDbEntity
  8
GT_1
 62
2
100
AcDbText
 10
739.443
 20
315.429
 30
0.0
 40
3.0
  1
   200
  7
HTX1
 41
1.02
100
AcDbText
  0
TEXT
  5
14C
330
1D
100
AcDbEntity
  8
GT_1
 62
2
100
AcDbText
 10
620.129
 20
309.714
 30
0.0
 40
3.0
  1
  <5>
  7
HTX1
 41
1.02
100
AcDbText
  0
TEXT
  5
14D
330
1D
100
AcDbEntity
  8
GT_1
 62
2
100
AcDbText
 10
632.471
 20
309.714
 30
0.0
 40
3.0
  1
      963
  7
HTX1
 41
1.02
100
AcDbText
  0
TEXT
  5
14E
330
1D
100
AcDbEntity
  8
GT_1
 62
2
100
AcDbText
 10
655.1
 20
309.714
 30
0.0
 40
3.0
  1
   200
  7
HTX1
 41
1.02
100
AcDbText
  0
TEXT
  5
14F
330
1D
100
AcDbEntity
  8
GT_1
 62
2
100
AcDbText
 10
704.471
 20
309.714
 30
0.0
 40
3.0
  1
  <6>
  7
HTX1
 41
1.02
100
AcDbText
  0
TEXT
  5
150
330
1D
100
AcDbEntity
  8
GT_1
 62
2
100
AcDbText
 10
716.814
 20
309.714
 30
0.0
 40
3.0
  1
      800
  7
HTX1
 41
1.02
100
AcDbText
  0
TEXT
  5
151
330
1D
100
AcDbEntity
  8
GT_1
 62
2
100
AcDbText
 10
739.443
 20
309.714
 30
0.0
 40
3.0
  1
   200
  7
HTX1
 41
1.02
100
AcDbText
  0
LWPOLYLINE
  5
152
330
1D
100
AcDbEntity
  8
GT_1
100
AcDbPolyline
 90
3
 70
128
 10
6.0
 20
0.0
 10
0.0
 20
0.0
 10
0.0
 20
6.0
  0
LWPOLYLINE
  5
157
330
1D
100
AcDbEntity
  8
GT_1
100
AcDbPolyline
 90
3
 70
128
 10
0.0
 20
588.0
 10
0.0
 20
594.0
 10
6.0
 20
594.0
  0
LWPOLYLINE
  5
15C
330
1D
100
AcDbEntity
  8
GT_1
100
AcDbPolyline
 90
3
 70
128
 10
835.0
 20
594.0
 10
841.0
 20
594.0
 10
841.0
 20
588.0
  0
LWPOLYLINE
  5
161
330
1D
100
AcDbEntity
  8
GT_1
100
AcDbPolyline
 90
3
 70
128
 10
841.0
 20
6.0
 10
841.0
 20
0.0
 10
835.0
 20
0.0
  0
TEXT
  5
16F
330
1D
100
AcDbEntity
  8
GT_1
 62
2
100
AcDbText
 10
34.0
 20
63.0
 30
0.0
 40
3.0
  1
110022-13120-093-HB4D-200
  7
HTX1
 41
1.02
100
AcDbText
  0
TEXT
  5
170
330
1D
100
AcDbEntity
  8
GT_1
 62
2
100
AcDbText
 10
94.0
 20
63.0
 30
0.0
 40
3.0
  1
1.1
  7
HTX1
 41
1.02
100
AcDbText
  0
TEXT
  5
171
330
1D
100
AcDbEntity
  8
GT_1
 62
2
100
AcDbText
 10
118.0
 20
63.0
 30
0.0
 40
3.0
  1
102.3
  7
HTX1
 41
1.02
100
AcDbText
  0
TEXT
  5
172
330
1D
100
AcDbEntity
  8
GT_1
 62
2
100
AcDbText
 10
143.0
 20
63.0
 30
0.0
 40
3.0
  1
3.5
  7
HTX1
 41
1.02
100
AcDbText
  0
TEXT
  5
173
330
1D
100
AcDbEntity
  8
GT_1
 62
2
100
AcDbText
 10
166.0
 20
63.0
 30
0.0
 40
3.0
  1
420
  7
HTX1
 41
1.02
100
AcDbText
  0
TEXT
  5
174
330
1D
100
AcDbEntity
  8
GT_1
 62
2
100
AcDbText
 10
189.0
 20
63.0
 30
0.0
 40
3.0
  1
20
  7
HTX1
 41
1.02
100
AcDbText
  0
TEXT
  5
175
330
1D
100
AcDbEntity
  8
GT_1
 62
2
100
AcDbText
 10
204.0
 20
63.0
 30
0.0
 40
3.0
  1
PP
  7
HTX1
 41
1.02
100
AcDbText
  0
TEXT
  5
176
330
1D
100
AcDbEntity
  8
GT_1
 62
2
100
AcDbText
 10
301.0
 20
63.0
 30
0.0
 40
3.0
  1
NBEP
  7
HTX1
 41
1.02
100
AcDbText
  0
TEXT
  5
177
330
1D
100
AcDbEntity
  8
GT_1
 62
2
100
AcDbText
 10
320.0
 20
63.0
 30
0.0
 40
3.0
  1
HB4D
  7
HTX1
 41
1.02
100
AcDbText
  0
TEXT
  5
178
330
1D
100
AcDbEntity
  8
GT_1
 62
2
100
AcDbText
 10
337.0
 20
63.0
 30
0.0
 40
3.0
  1
WATER
  7
HTX1
 41
1.02
100
AcDbText
  0
TEXT
  5
179
330
1D
100
AcDbEntity
  8
GT_1
 62
2
100
AcDbText
 10
356.0
 20
63.0
 30
0.0
 40
3.0
  1
9-13120-ZM-105-041
  7
HTX1
 41
1.02
100
AcDbText
  0
TEXT
  5
17A
330
1D
100
AcDbEntity
  8
GT_1
 62
2
100
AcDbText
 10
720.0
 20
36.0
 30
0.0
 40
3.0
  1
LP DRAIN HEADER LINE
  7
HTX1
 41
1.02
100
AcDbText
  0
LWPOLYLINE
  5
17B
330
1D
100
AcDbEntity
  8
GT_1
100
AcDbPolyline
 90
2
 70
128
 10
616.7
 20
12.0
 10
521.7
 20
12.0
  0
TEXT
  5
17F
330
1D
100
AcDbEntity
  8
GT_1
 62
2
100
AcDbText
 10
521.8
 20
13.1
 30
0.0
 40
3.5
  1
  20
  7
HTX1
 41
1.02
100
AcDbText
  0
LWPOLYLINE
  5
180
330
1D
100
AcDbEntity
  8
GT_1
100
AcDbPolyline
 90
2
 70
128
 10
533.3
 20
17.0
 10
533.3
 20
12.0
  0
TEXT
  5
184
330
1D
100
AcDbEntity
  8
GT_1
 62
2
100
AcDbText
 10
533.7
 20
13.1
 30
0.0
 40
3.5
  1
   F
  7
HTX1
 41
1.02
100
AcDbText
  0
LWPOLYLINE
  5
185
330
1D
100
AcDbEntity
  8
GT_1
100
AcDbPolyline
 90
2
 70
128
 10
550.8
 20
17.0
 10
550.8
 20
12.0
  0
TEXT
  5
189
330
1D
100
AcDbEntity
  8
GT_1
 62
2
100
AcDbText
 10
551.2
 20
13.1
 30
0.0
 40
3.5
  1

  7
HTX1
 41
1.02
100
AcDbText
  0
LWPOLYLINE
  5
18A
330
1D
100
AcDbEntity
  8
GT_1
100
AcDbPolyline
 90
2
 70
128
 10
568.3
 20
17.0
 10
568.3
 20
12.0
  0
TEXT
  5
18E
330
1D
100
AcDbEntity
  8
GT_1
 62
2
100
AcDbText
 10
568.7
 20
13.1
 30
0.0
 40
3.5
  1

  7
HTX1
 41
1.02
100
AcDbText
  0
LWPOLYLINE
  5
18F
330
1D
100
AcDbEntity
  8
GT_1
100
AcDbPolyline
 90
2
 70
128
 10
616.7
 20
17.0
 10
521.7
 20
17.0
  0
TEXT
  5
193
330
1D
100
AcDbEntity
  8
GT_1
 62
2
100
AcDbText
 10
521.8
 20
18.1
 30
0.0
 40
3.5
  1
  19
  7
HTX1
 41
1.02
100
AcDbText
  0
LWPOLYLINE
  5
194
330
1D
100
AcDbEntity
  8
GT_1
100
AcDbPolyline
 90
2
 70
128
 10
533.3
 20
22.0
 10
533.3
 20
17.0
  0
TEXT
  5
198
330
1D
100
AcDbEntity
  8
GT_1
 62
2
100
AcDbText
 10
533.7
 20
18.1
 30
0.0
 40
3.5
  1
   S
  7
HTX1
 41
1.02
100
AcDbText
  0
LWPOLYLINE
  5
199
330
1D
100
AcDbEntity
  8
GT_1
100
AcDbPolyline
 90
2
 70
128
 10
550.8
 20
22.0
 10
550.8
 20
17.0
  0
TEXT
  5
19D
330
1D
100
AcDbEntity
  8
GT_1
 62
2
100
AcDbText
 10
551.2
 20
18.1
 30
0.0
 40
3.5
  1

  7
HTX1
 41
1.02
100
AcDbText
  0
LWPOLYLINE
  5
19E
330
1D
100
AcDbEntity
  8
GT_1
100
AcDbPolyline
 90
2
 70
128
 10
568.3
 20
22.0
 10
568.3
 20
17.0
  0
TEXT
  5
1A2
330
1D
100
AcDbEntity
  8
GT_1
 62
2
100
AcDbText
 10
568.7
 20
18.1
 30
0.0
 40
3.5
  1

  7
HTX1
 41
1.02
100
AcDbText
  0
LWPOLYLINE
  5
1A3
330
1D
100
AcDbEntity
  8
GT_1
100
AcDbPolyline
 90
2
 70
128
 10
616.7
 20
22.0
 10
521.7
 20
22.0
  0
TEXT
  5
1A7
330
1D
100
AcDbEntity
  8
GT_1
 62
2
100
AcDbText
 10
521.8
 20
23.1
 30
0.0
 40
3.5
  1
  18
  7
HTX1
 41
1.02
100
AcDbText
  0
LWPOLYLINE
  5
1A8
330
1D
100
AcDbEntity
  8
GT_1
100
AcDbPolyline
 90
2
 70
128
 10
533.3
 20
27.0
 10
533.3
 20
22.0
  0
TEXT
  5
1AC
330
1D
100
AcDbEntity
  8
GT_1
 62
2
100
AcDbText
 10
533.7
 20
23.1
 30
0.0
 40
3.5
  1
   S
  7
HTX1
 41
1.02
100
AcDbText
  0
LWPOLYLINE
  5
1AD
330
1D
100
AcDbEntity
  8
GT_1
100
AcDbPolyline
 90
2
 70
128
 10
550.8
 20
27.0
 10
550.8
 20
22.0
  0
TEXT
  5
1B1
330
1D
100
AcDbEntity
  8
GT_1
 62
2
100
AcDbText
 10
551.2
 20
23.1
 30
0.0
 40
3.5
  1

  7
HTX1
 41
1.02
100
AcDbText
  0
LWPOLYLINE
  5
1B2
330
1D
100
AcDbEntity
  8
GT_1
100
AcDbPolyline
 90
2
 70
128
 10
568.3
 20
27.0
 10
568.3
 20
22.0
  0
TEXT
  5
1B6
330
1D
100
AcDbEntity
  8
GT_1
 62
2
100
AcDbText
 10
568.7
 20
23.1
 30
0.0
 40
3.5
  1

  7
HTX1
 41
1.02
100
AcDbText
  0
LWPOLYLINE
  5
1B7
330
1D
100
AcDbEntity
  8
GT_1
100
AcDbPolyline
 90
2
 70
128
 10
616.7
 20
27.0
 10
521.7
 20
27.0
  0
TEXT
  5
1BB
330
1D
100
AcDbEntity
  8
GT_1
 62
2
100
AcDbText
 10
521.8
 20
28.1
 30
0.0
 40
3.5
  1
  17
  7
HTX1
 41
1.02
100
AcDbText
  0
LWPOLYLINE
  5
1BC
330
1D
100
AcDbEntity
  8
GT_1
100
AcDbPolyline
 90
2
 70
128
 10
533.3
 20
32.0
 10
533.3
 20
27.0
  0
TEXT
  5
1C0
330
1D
100
AcDbEntity
  8
GT_1
 62
2
100
AcDbText
 10
533.7
 20
28.1
 30
0.0
 40
3.5
  1
   F
  7
HTX1
 41
1.02
100
AcDbText
  0
LWPOLYLINE
  5
1C1
330
1D
100
AcDbEntity
  8
GT_1
100
AcDbPolyline
 90
2
 70
128
 10
550.8
 20
32.0
 10
550.8
 20
27.0
  0
TEXT
  5
1C5
330
1D
100
AcDbEntity
  8
GT_1
 62
2
100
AcDbText
 10
551.2
 20
28.1
 30
0.0
 40
3.5
  1

  7
HTX1
 41
1.02
100
AcDbText
  0
LWPOLYLINE
  5
1C6
330
1D
100
AcDbEntity
  8
GT_1
100
AcDbPolyline
 90
2
 70
128
 10
568.3
 20
32.0
 10
568.3
 20
27.0
  0
TEXT
  5
1CA
330
1D
100
AcDbEntity
  8
GT_1
 62
2
100
AcDbText
 10
568.7
 20
28.1
 30
0.0
 40
3.5
  1

  7
HTX1
 41
1.02
100
AcDbText
  0
LWPOLYLINE
  5
1CB
330
1D
100
AcDbEntity
  8
GT_1
100
AcDbPolyline
 90
2
 70
128
 10
616.7
 20
32.0
 10
521.7
 20
32.0
  0
TEXT
  5
1CF
330
1D
100
AcDbEntity
  8
GT_1
 62
2
100
AcDbText
 10
521.8
 20
33.1
 30
0.0
 40
3.5
  1
  16
  7
HTX1
 41
1.02
100
AcDbText
  0
LWPOLYLINE
  5
1D0
330
1D
100
AcDbEntity
  8
GT_1
100
AcDbPolyline
 90
2
 70
128
 10
533.3
 20
37.0
 10
533.3
 20
32.0
  0
TEXT
  5
1D4
330
1D
100
AcDbEntity
  8
GT_1
 62
2
100
AcDbText
 10
533.7
 20
33.1
 30
0.0
 40
3.5
  1
   S
  7
HTX1
 41
1.02
100
AcDbText
  0
LWPOLYLINE
  5
1D5
330
1D
100
AcDbEntity
  8
GT_1
100
AcDbPolyline
 90
2
 70
128
 10
550.8
 20
37.0
 10
550.8
 20
32.0
  0
TEXT
  5
1D9
330
1D
100
AcDbEntity
  8
GT_1
 62
2
100
AcDbText
 10
551.2
 20
33.1
 30
0.0
 40
3.5
  1

  7
HTX1
 41
1.02
100
AcDbText
  0
LWPOLYLINE
  5
1DA
330
1D
100
AcDbEntity
  8
GT_1
100
AcDbPolyline
 90
2
 70
128
 10
568.3
 20
37.0
 10
568.3
 20
32.0
  0
TEXT
  5
1DE
330
1D
100
AcDbEntity
  8
GT_1
 62
2
100
AcDbText
 10
568.7
 20
33.1
 30
0.0
 40
3.5
  1

  7
HTX1
 41
1.02
100
AcDbText
  0
LWPOLYLINE
  5
1DF
330
1D
100
AcDbEntity
  8
GT_1
100
AcDbPolyline
 90
2
 70
128
 10
616.7
 20
37.0
 10
521.7
 20
37.0
  0
TEXT
  5
1E3
330
1D
100
AcDbEntity
  8
GT_1
 62
2
100
AcDbText
 10
521.8
 20
38.1
 30
0.0
 40
3.5
  1
  15
  7
HTX1
 41
1.02
100
AcDbText
  0
LWPOLYLINE
  5
1E4
330
1D
100
AcDbEntity
  8
GT_1
100
AcDbPolyline
 90
2
 70
128
 10
533.3
 20
42.0
 10
533.3
 20
37.0
  0
TEXT
  5
1E8
330
1D
100
AcDbEntity
  8
GT_1
 62
2
100
AcDbText
 10
533.7
 20
38.1
 30
0.0
 40
3.5
  1
   S
  7
HTX1
 41
1.02
100
AcDbText
  0
LWPOLYLINE
  5
1E9
330
1D
100
AcDbEntity
  8
GT_1
100
AcDbPolyline
 90
2
 70
128
 10
550.8
 20
42.0
 10
550.8
 20
37.0
  0
TEXT
  5
1ED
330
1D
100
AcDbEntity
  8
GT_1
 62
2
100
AcDbText
 10
551.2
 20
38.1
 30
0.0
 40
3.5
  1

  7
HTX1
 41
1.02
100
AcDbText
  0
LWPOLYLINE
  5
1EE
330
1D
100
AcDbEntity
  8
GT_1
100
AcDbPolyline
 90
2
 70
128
 10
568.3
 20
42.0
 10
568.3
 20
37.0
  0
TEXT
  5
1F2
330
1D
100
AcDbEntity
  8
GT_1
 62
2
100
AcDbText
 10
568.7
 20
38.1
 30
0.0
 40
3.5
  1

  7
HTX1
 41
1.02
100
AcDbText
  0
LWPOLYLINE
  5
1F3
330
1D
100
AcDbEntity
  8
GT_1
100
AcDbPolyline
 90
2
 70
128
 10
616.7
 20
42.0
 10
521.7
 20
42.0
  0
TEXT
  5
1F7
330
1D
100
AcDbEntity
  8
GT_1
 62
2
100
AcDbText
 10
521.8
 20
43.1
 30
0.0
 40
3.5
  1
  14
  7
HTX1
 41
1.02
100
AcDbText
  0
LWPOLYLINE
  5
1F8
330
1D
100
AcDbEntity
  8
GT_1
100
AcDbPolyline
 90
2
 70
128
 10
533.3
 20
47.0
 10
533.3
 20
42.0
  0
TEXT
  5
1FC
330
1D
100
AcDbEntity
  8
GT_1
 62
2
100
AcDbText
 10
533.7
 20
43.1
 30
0.0
 40
3.5
  1
   S
  7
HTX1
 41
1.02
100
AcDbText
  0
LWPOLYLINE
  5
1FD
330
1D
100
AcDbEntity
  8
GT_1
100
AcDbPolyline
 90
2
 70
128
 10
550.8
 20
47.0
 10
550.8
 20
42.0
  0
TEXT
  5
201
330
1D
100
AcDbEntity
  8
GT_1
 62
2
100
AcDbText
 10
551.2
 20
43.1
 30
0.0
 40
3.5
  1

  7
HTX1
 41
1.02
100
AcDbText
  0
LWPOLYLINE
  5
202
330
1D
100
AcDbEntity
  8
GT_1
100
AcDbPolyline
 90
2
 70
128
 10
568.3
 20
47.0
 10
568.3
 20
42.0
  0
TEXT
  5
206
330
1D
100
AcDbEntity
  8
GT_1
 62
2
100
AcDbText
 10
568.7
 20
43.1
 30
0.0
 40
3.5
  1

  7
HTX1
 41
1.02
100
AcDbText
  0
LWPOLYLINE
  5
207
330
1D
100
AcDbEntity
  8
GT_1
100
AcDbPolyline
 90
2
 70
128
 10
616.7
 20
47.0
 10
521.7
 20
47.0
  0
TEXT
  5
20B
330
1D
100
AcDbEntity
  8
GT_1
 62
2
100
AcDbText
 10
521.8
 20
48.1
 30
0.0
 40
3.5
  1
  13
  7
HTX1
 41
1.02
100
AcDbText
  0
LWPOLYLINE
  5
20C
330
1D
100
AcDbEntity
  8
GT_1
100
AcDbPolyline
 90
2
 70
128
 10
533.3
 20
52.0
 10
533.3
 20
47.0
  0
TEXT
  5
210
330
1D
100
AcDbEntity
  8
GT_1
 62
2
100
AcDbText
 10
533.7
 20
48.1
 30
0.0
 40
3.5
  1
   S
  7
HTX1
 41
1.02
100
AcDbText
  0
LWPOLYLINE
  5
211
330
1D
100
AcDbEntity
  8
GT_1
100
AcDbPolyline
 90
2
 70
128
 10
550.8
 20
52.0
 10
550.8
 20
47.0
  0
TEXT
  5
215
330
1D
100
AcDbEntity
  8
GT_1
 62
2
100
AcDbText
 10
551.2
 20
48.1
 30
0.0
 40
3.5
  1

  7
HTX1
 41
1.02
100
AcDbText
  0
LWPOLYLINE
  5
216
330
1D
100
AcDbEntity
  8
GT_1
100
AcDbPolyline
 90
2
 70
128
 10
568.3
 20
52.0
 10
568.3
 20
47.0
  0
TEXT
  5
21A
330
1D
100
AcDbEntity
  8
GT_1
 62
2
100
AcDbText
 10
568.7
 20
48.1
 30
0.0
 40
3.5
  1

  7
HTX1
 41
1.02
100
AcDbText
  0
LWPOLYLINE
  5
21B
330
1D
100
AcDbEntity
  8
GT_1
100
AcDbPolyline
 90
2
 70
128
 10
616.7
 20
52.0
 10
521.7
 20
52.0
  0
TEXT
  5
21F
330
1D
100
AcDbEntity
  8
GT_1
 62
2
100
AcDbText
 10
521.8
 20
53.1
 30
0.0
 40
3.5
  1
  12
  7
HTX1
 41
1.02
100
AcDbText
  0
LWPOLYLINE
  5
220
330
1D
100
AcDbEntity
  8
GT_1
100
AcDbPolyline
 90
2
 70
128
 10
533.3
 20
57.0
 10
533.3
 20
52.0
  0
TEXT
  5
224
330
1D
100
AcDbEntity
  8
GT_1
 62
2
100
AcDbText
 10
533.7
 20
53.1
 30
0.0
 40
3.5
  1
   F
  7
HTX1
 41
1.02
100
AcDbText
  0
LWPOLYLINE
  5
225
330
1D
100
AcDbEntity
  8
GT_1
100
AcDbPolyline
 90
2
 70
128
 10
550.8
 20
57.0
 10
550.8
 20
52.0
  0
TEXT
  5
229
330
1D
100
AcDbEntity
  8
GT_1
 62
2
100
AcDbText
 10
551.2
 20
53.1
 30
0.0
 40
3.5
  1

  7
HTX1
 41
1.02
100
AcDbText
  0
LWPOLYLINE
  5
22A
330
1D
100
AcDbEntity
  8
GT_1
100
AcDbPolyline
 90
2
 70
128
 10
568.3
 20
57.0
 10
568.3
 20
52.0
  0
TEXT
  5
22E
330
1D
100
AcDbEntity
  8
GT_1
 62
2
100
AcDbText
 10
568.7
 20
53.1
 30
0.0
 40
3.5
  1

  7
HTX1
 41
1.02
100
AcDbText
  0
LWPOLYLINE
  5
22F
330
1D
100
AcDbEntity
  8
GT_1
100
AcDbPolyline
 90
2
 70
128
 10
616.7
 20
57.0
 10
521.7
 20
57.0
  0
TEXT
  5
233
330
1D
100
AcDbEntity
  8
GT_1
 62
2
100
AcDbText
 10
521.8
 20
58.1
 30
0.0
 40
3.5
  1
  11
  7
HTX1
 41
1.02
100
AcDbText
  0
LWPOLYLINE
  5
234
330
1D
100
AcDbEntity
  8
GT_1
100
AcDbPolyline
 90
2
 70
128
 10
533.3
 20
62.0
 10
533.3
 20
57.0
  0
TEXT
  5
238
330
1D
100
AcDbEntity
  8
GT_1
 62
2
100
AcDbText
 10
533.7
 20
58.1
 30
0.0
 40
3.5
  1
   S
  7
HTX1
 41
1.02
100
AcDbText
  0
LWPOLYLINE
  5
239
330
1D
100
AcDbEntity
  8
GT_1
100
AcDbPolyline
 90
2
 70
128
 10
550.8
 20
62.0
 10
550.8
 20
57.0
  0
TEXT
  5
23D
330
1D
100
AcDbEntity
  8
GT_1
 62
2
100
AcDbText
 10
551.2
 20
58.1
 30
0.0
 40
3.5
  1

  7
HTX1
 41
1.02
100
AcDbText
  0
LWPOLYLINE
  5
23E
330
1D
100
AcDbEntity
  8
GT_1
100
AcDbPolyline
 90
2
 70
128
 10
568.3
 20
62.0
 10
568.3
 20
57.0
  0
TEXT
  5
242
330
1D
100
AcDbEntity
  8
GT_1
 62
2
100
AcDbText
 10
568.7
 20
58.1
 30
0.0
 40
3.5
  1

  7
HTX1
 41
1.02
100
AcDbText
  0
LWPOLYLINE
  5
243
330
1D
100
AcDbEntity
  8
GT_1
100
AcDbPolyline
 90
2
 70
128
 10
616.7
 20
62.0
 10
521.7
 20
62.0
  0
TEXT
  5
247
330
1D
100
AcDbEntity
  8
GT_1
 62
2
100
AcDbText
 10
521.8
 20
63.1
 30
0.0
 40
3.5
  1
  10
  7
HTX1
 41
1.02
100
AcDbText
  0
LWPOLYLINE
  5
248
330
1D
100
AcDbEntity
  8
GT_1
100
AcDbPolyline
 90
2
 70
128
 10
533.3
 20
67.0
 10
533.3
 20
62.0
  0
TEXT
  5
24C
330
1D
100
AcDbEntity
  8
GT_1
 62
2
100
AcDbText
 10
533.7
 20
63.1
 30
0.0
 40
3.5
  1
   S
  7
HTX1
 41
1.02
100
AcDbText
  0
LWPOLYLINE
  5
24D
330
1D
100
AcDbEntity
  8
GT_1
100
AcDbPolyline
 90
2
 70
128
 10
550.8
 20
67.0
 10
550.8
 20
62.0
  0
TEXT
  5
251
330
1D
100
AcDbEntity
  8
GT_1
 62
2
100
AcDbText
 10
551.2
 20
63.1
 30
0.0
 40
3.5
  1

  7
HTX1
 41
1.02
100
AcDbText
  0
LWPOLYLINE
  5
252
330
1D
100
AcDbEntity
  8
GT_1
100
AcDbPolyline
 90
2
 70
128
 10
568.3
 20
67.0
 10
568.3
 20
62.0
  0
TEXT
  5
256
330
1D
100
AcDbEntity
  8
GT_1
 62
2
100
AcDbText
 10
568.7
 20
63.1
 30
0.0
 40
3.5
  1

  7
HTX1
 41
1.02
100
AcDbText
  0
LWPOLYLINE
  5
257
330
1D
100
AcDbEntity
  8
GT_1
100
AcDbPolyline
 90
2
 70
128
 10
616.7
 20
67.0
 10
521.7
 20
67.0
  0
TEXT
  5
25B
330
1D
100
AcDbEntity
  8
GT_1
 62
2
100
AcDbText
 10
521.8
 20
68.1
 30
0.0
 40
3.5
  1
   9
  7
HTX1
 41
1.02
100
AcDbText
  0
LWPOLYLINE
  5
25C
330
1D
100
AcDbEntity
  8
GT_1
100
AcDbPolyline
 90
2
 70
128
 10
533.3
 20
72.0
 10
533.3
 20
67.0
  0
TEXT
  5
260
330
1D
100
AcDbEntity
  8
GT_1
 62
2
100
AcDbText
 10
533.7
 20
68.1
 30
0.0
 40
3.5
  1
   S
  7
HTX1
 41
1.02
100
AcDbText
  0
LWPOLYLINE
  5
261
330
1D
100
AcDbEntity
  8
GT_1
100
AcDbPolyline
 90
2
 70
128
 10
550.8
 20
72.0
 10
550.8
 20
67.0
  0
TEXT
  5
265
330
1D
100
AcDbEntity
  8
GT_1
 62
2
100
AcDbText
 10
551.2
 20
68.1
 30
0.0
 40
3.5
  1

  7
HTX1
 41
1.02
100
AcDbText
  0
LWPOLYLINE
  5
266
330
1D
100
AcDbEntity
  8
GT_1
100
AcDbPolyline
 90
2
 70
128
 10
568.3
 20
72.0
 10
568.3
 20
67.0
  0
TEXT
  5
26A
330
1D
100
AcDbEntity
  8
GT_1
 62
2
100
AcDbText
 10
568.7
 20
68.1
 30
0.0
 40
3.5
  1

  7
HTX1
 41
1.02
100
AcDbText
  0
LWPOLYLINE
  5
26B
330
1D
100
AcDbEntity
  8
GT_1
100
AcDbPolyline
 90
2
 70
128
 10
616.7
 20
72.0
 10
521.7
 20
72.0
  0
TEXT
  5
26F
330
1D
100
AcDbEntity
  8
GT_1
 62
2
100
AcDbText
 10
521.8
 20
73.1
 30
0.0
 40
3.5
  1
   8
  7
HTX1
 41
1.02
100
AcDbText
  0
LWPOLYLINE
  5
270
330
1D
100
AcDbEntity
  8
GT_1
100
AcDbPolyline
 90
2
 70
128
 10
533.3
 20
77.0
 10
533.3
 20
72.0
  0
TEXT
  5
274
330
1D
100
AcDbEntity
  8
GT_1
 62
2
100
AcDbText
 10
533.7
 20
73.1
 30
0.0
 40
3.5
  1
   S
  7
HTX1
 41
1.02
100
AcDbText
  0
LWPOLYLINE
  5
275
330
1D
100
AcDbEntity
  8
GT_1
100
AcDbPolyline
 90
2
 70
128
 10
550.8
 20
77.0
 10
550.8
 20
72.0
  0
TEXT
  5
279
330
1D
100
AcDbEntity
  8
GT_1
 62
2
100
AcDbText
 10
551.2
 20
73.1
 30
0.0
 40
3.5
  1

  7
HTX1
 41
1.02
100
AcDbText
  0
LWPOLYLINE
  5
27A
330
1D
100
AcDbEntity
  8
GT_1
100
AcDbPolyline
 90
2
 70
128
 10
568.3
 20
77.0
 10
568.3
 20
72.0
  0
TEXT
  5
27E
330
1D
100
AcDbEntity
  8
GT_1
 62
2
100
AcDbText
 10
568.7
 20
73.1
 30
0.0
 40
3.5
  1

  7
HTX1
 41
1.02
100
AcDbText
  0
LWPOLYLINE
  5
27F
330
1D
100
AcDbEntity
  8
GT_1
100
AcDbPolyline
 90
2
 70
128
 10
616.7
 20
77.0
 10
521.7
 20
77.0
  0
TEXT
  5
283
330
1D
100
AcDbEntity
  8
GT_1
 62
2
100
AcDbText
 10
521.8
 20
78.1
 30
0.0
 40
3.5
  1
   7
  7
HTX1
 41
1.02
100
AcDbText
  0
LWPOLYLINE
  5
284
330
1D
100
AcDbEntity
  8
GT_1
100
AcDbPolyline
 90
2
 70
128
 10
533.3
 20
82.0
 10
533.3
 20
77.0
  0
TEXT
  5
288
330
1D
100
AcDbEntity
  8
GT_1
 62
2
100
AcDbText
 10
533.7
 20
78.1
 30
0.0
 40
3.5
  1
   F
  7
HTX1
 41
1.02
100
AcDbText
  0
LWPOLYLINE
  5
289
330
1D
100
AcDbEntity
  8
GT_1
100
AcDbPolyline
 90
2
 70
128
 10
550.8
 20
82.0
 10
550.8
 20
77.0
  0
TEXT
  5
28D
330
1D
100
AcDbEntity
  8
GT_1
 62
2
100
AcDbText
 10
551.2
 20
78.1
 30
0.0
 40
3.5
  1

  7
HTX1
 41
1.02
100
AcDbText
  0
LWPOLYLINE
  5
28E
330
1D
100
AcDbEntity
  8
GT_1
100
AcDbPolyline
 90
2
 70
128
 10
568.3
 20
82.0
 10
568.3
 20
77.0
  0
TEXT
  5
292
330
1D
100
AcDbEntity
  8
GT_1
 62
2
100
AcDbText
 10
568.7
 20
78.1
 30
0.0
 40
3.5
  1

  7
HTX1
 41
1.02
100
AcDbText
  0
LWPOLYLINE
  5
293
330
1D
100
AcDbEntity
  8
GT_1
100
AcDbPolyline
 90
2
 70
128
 10
616.7
 20
82.0
 10
521.7
 20
82.0
  0
TEXT
  5
297
330
1D
100
AcDbEntity
  8
GT_1
 62
2
100
AcDbText
 10
521.8
 20
83.1
 30
0.0
 40
3.5
  1
   6
  7
HTX1
 41
1.02
100
AcDbText
  0
LWPOLYLINE
  5
298
330
1D
100
AcDbEntity
  8
GT_1
100
AcDbPolyline
 90
2
 70
128
 10
533.3
 20
87.0
 10
533.3
 20
82.0
  0
TEXT
  5
29C
330
1D
100
AcDbEntity
  8
GT_1
 62
2
100
AcDbText
 10
533.7
 20
83.1
 30
0.0
 40
3.5
  1
   F
  7
HTX1
 41
1.02
100
AcDbText
  0
LWPOLYLINE
  5
29D
330
1D
100
AcDbEntity
  8
GT_1
100
AcDbPolyline
 90
2
 70
128
 10
550.8
 20
87.0
 10
550.8
 20
82.0
  0
TEXT
  5
2A1
330
1D
100
AcDbEntity
  8
GT_1
 62
2
100
AcDbText
 10
551.2
 20
83.1
 30
0.0
 40
3.5
  1

  7
HTX1
 41
1.02
100
AcDbText
  0
LWPOLYLINE
  5
2A2
330
1D
100
AcDbEntity
  8
GT_1
100
AcDbPolyline
 90
2
 70
128
 10
568.3
 20
87.0
 10
568.3
 20
82.0
  0
TEXT
  5
2A6
330
1D
100
AcDbEntity
  8
GT_1
 62
2
100
AcDbText
 10
568.7
 20
83.1
 30
0.0
 40
3.5
  1

  7
HTX1
 41
1.02
100
AcDbText
  0
LWPOLYLINE
  5
2A7
330
1D
100
AcDbEntity
  8
GT_1
100
AcDbPolyline
 90
2
 70
128
 10
616.7
 20
87.0
 10
521.7
 20
87.0
  0
TEXT
  5
2AB
330
1D
100
AcDbEntity
  8
GT_1
 62
2
100
AcDbText
 10
521.8
 20
88.1
 30
0.0
 40
3.5
  1
   5
  7
HTX1
 41
1.02
100
AcDbText
  0
LWPOLYLINE
  5
2AC
330
1D
100
AcDbEntity
  8
GT_1
100
AcDbPolyline
 90
2
 70
128
 10
533.3
 20
92.0
 10
533.3
 20
87.0
  0
TEXT
  5
2B0
330
1D
100
AcDbEntity
  8
GT_1
 62
2
100
AcDbText
 10
533.7
 20
88.1
 30
0.0
 40
3.5
  1
   S
  7
HTX1
 41
1.02
100
AcDbText
  0
LWPOLYLINE
  5
2B1
330
1D
100
AcDbEntity
  8
GT_1
100
AcDbPolyline
 90
2
 70
128
 10
550.8
 20
92.0
 10
550.8
 20
87.0
  0
TEXT
  5
2B5
330
1D
100
AcDbEntity
  8
GT_1
 62
2
100
AcDbText
 10
551.2
 20
88.1
 30
0.0
 40
3.5
  1

  7
HTX1
 41
1.02
100
AcDbText
  0
LWPOLYLINE
  5
2B6
330
1D
100
AcDbEntity
  8
GT_1
100
AcDbPolyline
 90
2
 70
128
 10
568.3
 20
92.0
 10
568.3
 20
87.0
  0
TEXT
  5
2BA
330
1D
100
AcDbEntity
  8
GT_1
 62
2
100
AcDbText
 10
568.7
 20
88.1
 30
0.0
 40
3.5
  1

  7
HTX1
 41
1.02
100
AcDbText
  0
LWPOLYLINE
  5
2BB
330
1D
100
AcDbEntity
  8
GT_1
100
AcDbPolyline
 90
2
 70
128
 10
616.7
 20
92.0
 10
521.7
 20
92.0
  0
TEXT
  5
2BF
330
1D
100
AcDbEntity
  8
GT_1
 62
2
100
AcDbText
 10
521.8
 20
93.1
 30
0.0
 40
3.5
  1
   4
  7
HTX1
 41
1.02
100
AcDbText
  0
LWPOLYLINE
  5
2C0
330
1D
100
AcDbEntity
  8
GT_1
100
AcDbPolyline
 90
2
 70
128
 10
533.3
 20
97.0
 10
533.3
 20
92.0
  0
TEXT
  5
2C4
330
1D
100
AcDbEntity
  8
GT_1
 62
2
100
AcDbText
 10
533.7
 20
93.1
 30
0.0
 40
3.5
  1
   F
  7
HTX1
 41
1.02
100
AcDbText
  0
LWPOLYLINE
  5
2C5
330
1D
100
AcDbEntity
  8
GT_1
100
AcDbPolyline
 90
2
 70
128
 10
550.8
 20
97.0
 10
550.8
 20
92.0
  0
TEXT
  5
2C9
330
1D
100
AcDbEntity
  8
GT_1
 62
2
100
AcDbText
 10
551.2
 20
93.1
 30
0.0
 40
3.5
  1

  7
HTX1
 41
1.02
100
AcDbText
  0
LWPOLYLINE
  5
2CA
330
1D
100
AcDbEntity
  8
GT_1
100
AcDbPolyline
 90
2
 70
128
 10
568.3
 20
97.0
 10
568.3
 20
92.0
  0
TEXT
  5
2CE
330
1D
100
AcDbEntity
  8
GT_1
 62
2
100
AcDbText
 10
568.7
 20
93.1
 30
0.0
 40
3.5
  1

  7
HTX1
 41
1.02
100
AcDbText
  0
LWPOLYLINE
  5
2CF
330
1D
100
AcDbEntity
  8
GT_1
100
AcDbPolyline
 90
2
 70
128
 10
616.7
 20
97.0
 10
521.7
 20
97.0
  0
TEXT
  5
2D3
330
1D
100
AcDbEntity
  8
GT_1
 62
2
100
AcDbText
 10
521.8
 20
98.1
 30
0.0
 40
3.5
  1
   3
  7
HTX1
 41
1.02
100
AcDbText
  0
LWPOLYLINE
  5
2D4
330
1D
100
AcDbEntity
  8
GT_1
100
AcDbPolyline
 90
2
 70
128
 10
533.3
 20
102.0
 10
533.3
 20
97.0
  0
TEXT
  5
2D8
330
1D
100
AcDbEntity
  8
GT_1
 62
2
100
AcDbText
 10
533.7
 20
98.1
 30
0.0
 40
3.5
  1
   F
  7
HTX1
 41
1.02
100
AcDbText
  0
LWPOLYLINE
  5
2D9
330
1D
100
AcDbEntity
  8
GT_1
100
AcDbPolyline
 90
2
 70
128
 10
550.8
 20
102.0
 10
550.8
 20
97.0
  0
TEXT
  5
2DD
330
1D
100
AcDbEntity
  8
GT_1
 62
2
100
AcDbText
 10
551.2
 20
98.1
 30
0.0
 40
3.5
  1

  7
HTX1
 41
1.02
100
AcDbText
  0
LWPOLYLINE
  5
2DE
330
1D
100
AcDbEntity
  8
GT_1
100
AcDbPolyline
 90
2
 70
128
 10
568.3
 20
102.0
 10
568.3
 20
97.0
  0
TEXT
  5
2E2
330
1D
100
AcDbEntity
  8
GT_1
 62
2
100
AcDbText
 10
568.7
 20
98.1
 30
0.0
 40
3.5
  1

  7
HTX1
 41
1.02
100
AcDbText
  0
LWPOLYLINE
  5
2E3
330
1D
100
AcDbEntity
  8
GT_1
100
AcDbPolyline
 90
2
 70
128
 10
616.7
 20
102.0
 10
521.7
 20
102.0
  0
TEXT
  5
2E7
330
1D
100
AcDbEntity
  8
GT_1
 62
2
100
AcDbText
 10
521.8
 20
103.1
 30
0.0
 40
3.5
  1
   2
  7
HTX1
 41
1.02
100
AcDbText
  0
LWPOLYLINE
  5
2E8
330
1D
100
AcDbEntity
  8
GT_1
100
AcDbPolyline
 90
2
 70
128
 10
533.3
 20
107.0
 10
533.3
 20
102.0
  0
TEXT
  5
2EC
330
1D
100
AcDbEntity
  8
GT_1
 62
2
100
AcDbText
 10
533.7
 20
103.1
 30
0.0
 40
3.5
  1
   S
  7
HTX1
 41
1.02
100
AcDbText
  0
LWPOLYLINE
  5
2ED
330
1D
100
AcDbEntity
  8
GT_1
100
AcDbPolyline
 90
2
 70
128
 10
550.8
 20
107.0
 10
550.8
 20
102.0
  0
TEXT
  5
2F1
330
1D
100
AcDbEntity
  8
GT_1
 62
2
100
AcDbText
 10
551.2
 20
103.1
 30
0.0
 40
3.5
  1

  7
HTX1
 41
1.02
100
AcDbText
  0
LWPOLYLINE
  5
2F2
330
1D
100
AcDbEntity
  8
GT_1
100
AcDbPolyline
 90
2
 70
128
 10
568.3
 20
107.0
 10
568.3
 20
102.0
  0
TEXT
  5
2F6
330
1D
100
AcDbEntity
  8
GT_1
 62
2
100
AcDbText
 10
568.7
 20
103.1
 30
0.0
 40
3.5
  1

  7
HTX1
 41
1.02
100
AcDbText
  0
LWPOLYLINE
  5
2F7
330
1D
100
AcDbEntity
  8
GT_1
100
AcDbPolyline
 90
2
 70
128
 10
616.7
 20
107.0
 10
521.7
 20
107.0
  0
TEXT
  5
2FB
330
1D
100
AcDbEntity
  8
GT_1
 62
2
100
AcDbText
 10
521.8
 20
108.1
 30
0.0
 40
3.5
  1
   1
  7
HTX1
 41
1.02
100
AcDbText
  0
LWPOLYLINE
  5
2FC
330
1D
100
AcDbEntity
  8
GT_1
100
AcDbPolyline
 90
2
 70
128
 10
533.3
 20
112.0
 10
533.3
 20
107.0
  0
TEXT
  5
300
330
1D
100
AcDbEntity
  8
GT_1
 62
2
100
AcDbText
 10
533.7
 20
108.1
 30
0.0
 40
3.5
  1
   S
  7
HTX1
 41
1.02
100
AcDbText
  0
LWPOLYLINE
  5
301
330
1D
100
AcDbEntity
  8
GT_1
100
AcDbPolyline
 90
2
 70
128
 10
550.8
 20
112.0
 10
550.8
 20
107.0
  0
TEXT
  5
305
330
1D
100
AcDbEntity
  8
GT_1
 62
2
100
AcDbText
 10
551.2
 20
108.1
 30
0.0
 40
3.5
  1

  7
HTX1
 41
1.02
100
AcDbText
  0
LWPOLYLINE
  5
306
330
1D
100
AcDbEntity
  8
GT_1
100
AcDbPolyline
 90
2
 70
128
 10
568.3
 20
112.0
 10
568.3
 20
107.0
  0
TEXT
  5
30A
330
1D
100
AcDbEntity
  8
GT_1
 62
2
100
AcDbText
 10
568.7
 20
108.1
 30
0.0
 40
3.5
  1

  7
HTX1
 41
1.02
100
AcDbText
  0
LWPOLYLINE
  5
30B
330
1D
100
AcDbEntity
  8
GT_1
100
AcDbPolyline
 90
2
 70
128
 10
616.7
 20
112.0
 10
521.7
 20
112.0
  0
TEXT
  5
30F
330
1D
100
AcDbEntity
  8
GT_1
 62
2
100
AcDbText
 10
521.8
 20
113.1
 30
0.0
 40
3.5
  1
 NO
  7
HTX1
 41
1.02
100
AcDbText
  0
LWPOLYLINE
  5
310
330
1D
100
AcDbEntity
  8
GT_1
100
AcDbPolyline
 90
2
 70
128
 10
533.3
 20
117.0
 10
533.3
 20
112.0
  0
TEXT
  5
314
330
1D
100
AcDbEntity
  8
GT_1
 62
2
100
AcDbText
 10
533.7
 20
113.1
 30
0.0
 40
3.5
  1
 /FLD
  7
HTX1
 41
1.02
100
AcDbText
  0
LWPOLYLINE
  5
315
330
1D
100
AcDbEntity
  8
GT_1
100
AcDbPolyline
 90
2
 70
128
 10
550.8
 20
117.0
 10
550.8
 20
112.0
  0
TEXT
  5
319
330
1D
100
AcDbEntity
  8
GT_1
 62
2
100
AcDbText
 10
551.2
 20
113.1
 30
0.0
 40
3.5
  1
  DN
  7
HTX1
 41
1.02
100
AcDbText
  0
LWPOLYLINE
  5
31A
330
1D
100
AcDbEntity
  8
GT_1
100
AcDbPolyline
 90
2
 70
128
 10
568.3
 20
117.0
 10
568.3
 20
112.0
  0
TEXT
  5
31E
330
1D
100
AcDbEntity
  8
GT_1
 62
2
100
AcDbText
 10
568.7
 20
113.1
 30
0.0
 40
3.5
  1
   TYPE
  7
HTX1
 41
1.02
100
AcDbText
  0
LWPOLYLINE
  5
31F
330
1D
100
AcDbEntity
  8
GT_1
100
AcDbPolyline
 90
2
 70
128
 10
616.7
 20
117.0
 10
521.7
 20
117.0
  0
TEXT
  5
323
330
1D
100
AcDbEntity
  8
GT_1
 62
2
100
AcDbText
 10
521.8
 20
118.1
 30
0.0
 40
3.5
  1
WELD
  7
HTX1
 41
1.02
100
AcDbText
  0
LWPOLYLINE
  5
324
330
1D
100
AcDbEntity
  8
GT_1
100
AcDbPolyline
 90
2
 70
128
 10
533.3
 20
122.0
 10
533.3
 20
117.0
  0
TEXT
  5
328
330
1D
100
AcDbEntity
  8
GT_1
 62
2
100
AcDbText
 10
533.7
 20
118.1
 30
0.0
 40
3.5
  1
 SHOP
  7
HTX1
 41
1.02
100
AcDbText
  0
LWPOLYLINE
  5
329
330
1D
100
AcDbEntity
  8
GT_1
100
AcDbPolyline
 90
2
 70
128
 10
550.8
 20
122.0
 10
550.8
 20
117.0
  0
TEXT
  5
32D
330
1D
100
AcDbEntity
  8
GT_1
 62
2
100
AcDbText
 10
551.2
 20
118.1
 30
0.0
 40
3.5
  1
 WELD
  7
HTX1
 41
1.02
100
AcDbText
  0
LWPOLYLINE
  5
32E
330
1D
100
AcDbEntity
  8
GT_1
100
AcDbPolyline
 90
2
 70
128
 10
568.3
 20
122.0
 10
568.3
 20
117.0
  0
TEXT
  5
332
330
1D
100
AcDbEntity
  8
GT_1
 62
2
100
AcDbText
 10
568.7
 20
118.1
 30
0.0
 40
3.5
  1
   WELD
  7
HTX1
 41
1.02
100
AcDbText
  0
LWPOLYLINE
  5
333
330
1D
100
AcDbEntity
  8
GT_1
100
AcDbPolyline
 90
3
 70
128
 10
616.7
 20
122.0
 10
521.7
 20
122.0
 10
521.7
 20
12.0
  0
TEXT
  5
338
330
1D
100
AcDbEntity
  8
GT_1
 62
2
100
AcDbText
 10
35.8
 20
576.0
 30
0.0
 40
6.25
  1
N
  7
HTX1
 41
1.02
100
AcDbText
  0
TEXT
  5
339
330
1D
100
AcDbEntity
  8
GT_1
 62
2
100
AcDbText
 10
35.6
 20
576.0
 30
0.0
 40
6.25
  1
N
  7
HTX1
 41
1.02
100
AcDbText
  0
LWPOLYLINE
  5
33A
330
1D
100
AcDbEntity
  8
GT_1
100
AcDbPolyline
 90
8
 70
128
 10
42.0
 20
574.0
 10
46.0
 20
568.0
 10
45.6
 20
571.2
 10
52.4
 20
567.2
 10
53.2
 20
568.4
 10
46.4
 20
572.4
 10
49.2
 20
573.6
 10
42.0
 20
574.0
  0
LWPOLYLINE
  5
344
330
1D
100
AcDbEntity
  8
GT_1
100
AcDbPolyline
 90
16
 70
128
 10
56.0
 20
583.2
 10
56.0
 20
563.2
 10
32.0
 20
563.2
 10
32.0
 20
583.4
 10
56.2
 20
583.4
 10
56.2
 20
563.4
 10
32.2
 20
563.4
 10
32.2
 20
583.6
 10
56.4
 20
583.6
 10
56.4
 20
563.6
 10
32.4
 20
563.6
 10
32.4
 20
583.8
 10
56.6
 20
583.8
 10
56.6
 20
563.8
 10
32.6
 20
563.8
 10
32.6
 20
584.0
  0
LWPOLYLINE
  5
356
330
1D
100
AcDbEntity
  8
GT_1
100
AcDbPolyline
 90
10
 70
128
 10
88.7
 20
499.8
 10
88.2
 20
499.5
 10
87.7
 20
498.6
 10
88.2
 20
497.7
 10
89.4
 20
497.0
 10
93.5
 20
499.4
 10
92.3
 20
500.1
 10
90.8
 20
500.4
 10
89.2
 20
500.1
 10
88.7
 20
499.8
  0
LWPOLYLINE
  5
362
330
1D
100
AcDbEntity
  8
GT_1
100
AcDbPolyline
 90
3
 70
128
 10
86.7
 20
496.3
 10
88.0
 20
497.8
 10
86.3
 20
496.8
  0
LWPOLYLINE
  5
367
330
1D
100
AcDbEntity
  8
GT_1
100
AcDbPolyline
 90
2
 70
128
 10
88.0
 20
497.8
 10
84.2
 20
494.6
  0
TEXT
  5
36B
330
1D
100
AcDbEntity
  8
GT_1
 62
2
100
AcDbText
 10
81.6429
 20
495.1
 30
0.0
 40
3.0
  1
5
  7
HTX1
 41
1.02
100
AcDbText
  0
LWPOLYLINE
  5
36C
330
1D
100
AcDbEntity
  8
GT_1
100
AcDbPolyline
 90
5
 70
128
 10
81.1
 20
498.6
 10
84.1
 20
498.6
 10
84.1
 20
494.6
 10
81.1
 20
494.6
 10
81.1
 20
498.6
  0
LWPOLYLINE
  5
388
330
1D
100
AcDbEntity
  8
GT_1
100
AcDbPolyline
 90
2
 70
128
 10
90.2
 20
498.2
 10
92.8
 20
498.2
  0
TEXT
  5
398
330
1D
100
AcDbEntity
  8
GT_1
 62
2
100
AcDbText
 10
83.88736527906255
 20
501.2028864837084
 30
0.0
 40
3.0
  1
1
  7
HTX1
 41
1.02
100
AcDbText
  0
LWPOLYLINE
  5
399
330
1D
100
AcDbEntity
  8
GT_1
 62
7
100
AcDbPolyline
 90
2
 70
128
 43
0.6
 10
91.5
 20
498.2
 10
102.8
 20
491.7
  0
LWPOLYLINE
  5
39D
330
1D
100
AcDbEntity
  8
GT_1
100
AcDbPolyline
 90
3
 70
128
 10
98.5
 20
492.2
 10
100.2
 20
493.2
 10
98.2
 20
492.8
  0
LWPOLYLINE
  5
3A2
330
1D
100
AcDbEntity
  8
GT_1
100
AcDbPolyline
 90
2
 70
128
 10
100.2
 20
493.2
 10
76.7
 20
484.6
  0
TEXT
  5
3A6
330
1D
100
AcDbEntity
  8
GT_1
 62
2
100
AcDbText
 10
65.9143
 20
485.1
 30
0.0
 40
3.0
  1
200DN
  7
HTX1
 41
1.02
100
AcDbText
  0
LWPOLYLINE
  5
3A7
330
1D
100
AcDbEntity
  8
GT_1
100
AcDbPolyline
 90
3
 70
128
 10
95.5
 20
494.0
 10
97.2
 20
495.0
 10
95.2
 20
494.7
  0
LWPOLYLINE
  5
3AC
330
1D
100
AcDbEntity
  8
GT_1
100
AcDbPolyline
 90
3
 70
128
 10
97.2
 20
495.0
 10
81.2
 20
489.2
 10
79.2
 20
492.6
  0
TEXT
  5
3B1
330
1D
100
AcDbEntity
  8
GT_1
 62
2
100
AcDbText
 10
35.5
 20
493.1
 30
0.0
 40
3.0
  1
110022-13120-093-SOO1
  7
HTX1
 41
1.02
100
AcDbText
  0
LWPOLYLINE
  5
3B2
330
1D
100
AcDbEntity
  8
GT_1
100
AcDbPolyline
 90
5
 70
128
 10
35.0
 20
496.6
 10
78.8
 20
496.6
 10
78.8
 20
492.6
 10
35.0
 20
492.6
 10
35.0
 20
496.6
  0
LWPOLYLINE
  5
3B9
330
1D
100
AcDbEntity
  8
GT_1
100
AcDbPolyline
 90
5
 70
128
 10
34.0
 20
497.6
 10
79.8
 20
497.6
 10
79.8
 20
491.6
 10
34.0
 20
491.6
 10
34.0
 20
497.6
  0
LWPOLYLINE
  5
3C0
330
1D
100
AcDbEntity
  8
GT_1
100
AcDbPolyline
 90
2
 70
128
 10
99.6
 20
491.6
 10
102.6
 20
489.8
  0
LWPOLYLINE
  5
3C4
330
1D
100
AcDbEntity
  8
GT_1
100
AcDbPolyline
 90
2
 70
128
 10
106.1
 20
491.8
 10
103.1
 20
493.6
  0
LWPOLYLINE
  5
3C8
330
1D
100
AcDbEntity
  8
GT_1
 62
7
100
AcDbPolyline
 90
2
 70
128
 43
0.6
 10
102.8
 20
491.7
 10
114.1
 20
485.2
  0
LWPOLYLINE
  5
3CC
330
1D
100
AcDbEntity
  8
GT_1
100
AcDbPolyline
 90
2
 70
128
 10
95.0
 20
500.2
 10
105.5
 20
506.3
  0
LWPOLYLINE
  5
3D0
330
1D
100
AcDbEntity
  8
GT_1
100
AcDbPolyline
 90
3
 70
128
 10
106.4
 20
505.0
 10
104.5
 20
505.7
 10
106.0
 20
504.4
  0
LWPOLYLINE
  5
3D5
330
1D
100
AcDbEntity
  8
GT_1
100
AcDbPolyline
 90
2
 70
128
 10
104.5
 20
505.7
 10
115.8
 20
499.2
  0
LWPOLYLINE
  5
3D9
330
1D
100
AcDbEntity
  8
GT_1
100
AcDbPolyline
 90
2
 70
128
 10
117.6
 20
487.2
 10
128.1
 20
493.3
  0
LWPOLYLINE
  5
3DD
330
1D
100
AcDbEntity
  8
GT_1
100
AcDbPolyline
 90
3
 70
128
 10
125.2
 20
493.4
 10
127.1
 20
492.7
 10
125.6
 20
494.0
  0
LWPOLYLINE
  5
3E2
330
1D
100
AcDbEntity
  8
GT_1
100
AcDbPolyline
 90
2
 70
128
 10
127.1
 20
492.7
 10
115.8
 20
499.2
  0
LWPOLYLINE
  5
3E6
330
1D
100
AcDbEntity
  8
GT_1
100
AcDbPolyline
 90
3
 70
128
 10
125.8
 20
495.5
 10
124.1
 20
494.5
 10
126.1
 20
494.8
  0
LWPOLYLINE
  5
3EB
330
1D
100
AcDbEntity
  8
GT_1
100
AcDbPolyline
 90
2
 70
128
 10
124.1
 20
494.5
 10
136.3
 20
498.9
  0
TEXT
  5
3EF
330
1D
100
AcDbEntity
  8
GT_1
 62
2
100
AcDbText
 10
136.8
 20
499.4
 30
0.0
 40
3.0
  1
400
  7
HTX1
 41
1.02
100
AcDbText
  0
LWPOLYLINE
  5
405
330
1D
100
AcDbEntity
  8
GT_1
100
AcDbPolyline
 90
2
 70
128
 10
112.8
 20
485.2
 10
115.4
 20
485.2
  0
TEXT
  5
415
330
1D
100
AcDbEntity
  8
GT_1
 62
2
100
AcDbText
 10
117.498057174427
 20
490.6632991023402
 30
0.0
 40
3.0
  1
2
  7
HTX1
 41
1.02
100
AcDbText
  0
LWPOLYLINE
  5
416
330
1D
100
AcDbEntity
  8
GT_1
100
AcDbPolyline
 90
6
 70
128
 10
114.1
 20
485.2
 10
114.1
 20
483.6
 10
109.3
 20
483.5
 10
109.3
 20
486.7
 10
114.1
 20
486.8
 10
114.1
 20
485.2
  0
LWPOLYLINE
  5
41E
330
1D
100
AcDbEntity
  8
GT_1
100
AcDbPolyline
 90
3
 70
128
 10
109.3
 20
487.1
 10
109.3
 20
485.1
 10
110.0
 20
487.0
  0
LWPOLYLINE
  5
423
330
1D
100
AcDbEntity
  8
GT_1
100
AcDbPolyline
 90
2
 70
128
 10
109.3
 20
485.1
 10
116.4
 20
525.5
  0
TEXT
  5
427
330
1D
100
AcDbEntity
  8
GT_1
 62
2
100
AcDbText
 10
116.9
 20
526.0
 30
0.0
 40
3.0
  1
6
  7
HTX1
 41
1.02
100
AcDbText
  0
LWPOLYLINE
  5
428
330
1D
100
AcDbEntity
  8
GT_1
100
AcDbPolyline
 90
5
 70
128
 10
116.4
 20
529.5
 10
119.4
 20
529.5
 10
119.4
 20
525.5
 10
116.4
 20
525.5
 10
116.4
 20
529.5
  0
TEXT
  5
42F
330
1D
100
AcDbEntity
  8
GT_1
 62
2
100
AcDbText
 10
116.9
 20
522.0
 30
0.0
 40
3.0
  1
200x50DN
  7
HTX1
 41
1.02
100
AcDbText
  0
LWPOLYLINE
  5
430
330
1D
100
AcDbEntity
  8
GT_1
100
AcDbPolyline
 90
2
 70
128
 10
114.1
 20
489.2
 10
114.1
 20
501.4
  0
LWPOLYLINE
  5
434
330
1D
100
AcDbEntity
  8
GT_1
100
AcDbPolyline
 90
3
 70
128
 10
112.1
 20
499.9
 10
114.1
 20
500.2
 10
112.1
 20
500.5
  0
LWPOLYLINE
  5
439
330
1D
100
AcDbEntity
  8
GT_1
100
AcDbPolyline
 90
2
 70
128
 10
114.1
 20
500.2
 10
111.7
 20
500.2
  0
LWPOLYLINE
  5
43D
330
1D
100
AcDbEntity
  8
GT_1
100
AcDbPolyline
 90
2
 70
128
 10
109.3
 20
489.1
 10
109.3
 20
501.3
  0
LWPOLYLINE
  5
441
330
1D
100
AcDbEntity
  8
GT_1
100
AcDbPolyline
 90
3
 70
128
 10
111.3
 20
500.5
 10
109.3
 20
500.1
 10
111.3
 20
499.8
  0
LWPOLYLINE
  5
446
330
1D
100
AcDbEntity
  8
GT_1
100
AcDbPolyline
 90
2
 70
128
 10
109.3
 20
500.1
 10
111.7
 20
500.2
  0
LWPOLYLINE
  5
44A
330
1D
100
AcDbEntity
  8
GT_1
100
AcDbPolyline
 90
3
 70
128
 10
110.4
 20
501.7
 10
111.7
 20
500.2
 10
111.0
 20
502.1
  0
LWPOLYLINE
  5
44F
330
1D
100
AcDbEntity
  8
GT_1
100
AcDbPolyline
 90
2
 70
128
 10
111.7
 20
500.2
 10
105.2
 20
511.5
  0
TEXT
  5
453
330
1D
100
AcDbEntity
  8
GT_1
 62
2
100
AcDbText
 10
98.5286
 20
512.0
 30
0.0
 40
3.0
  1
232
  7
HTX1
 41
1.02
100
AcDbText
  0
LWPOLYLINE
  5
454
330
1D
100
AcDbEntity
  8
GT_1
100
AcDbPolyline
 90
6
 70
128
 10
109.3
 20
485.1
 10
109.3
 20
483.5
 10
107.3
 20
483.5
 10
107.3
 20
486.7
 10
109.3
 20
486.7
 10
109.3
 20
485.1
  0
LWPOLYLINE
  5
45C
330
1D
100
AcDbEntity
  8
GT_1
100
AcDbPolyline
 90
18
 70
128
 10
109.3
 20
483.5
 10
107.3
 20
483.7
 10
109.3
 20
484.1
 10
107.3
 20
484.5
 10
109.3
 20
484.9
 10
107.3
 20
485.3
 10
109.3
 20
485.7
 10
107.3
 20
486.1
 10
109.3
 20
486.5
 10
107.3
 20
486.5
 10
109.3
 20
486.1
 10
107.3
 20
485.7
 10
109.3
 20
485.3
 10
107.3
 20
484.9
 10
109.3
 20
484.5
 10
107.3
 20
484.1
 10
109.3
 20
483.7
 10
107.3
 20
483.5
  0
TEXT
  5
470
330
1D
100
AcDbEntity
  8
GT_1
 62
2
100
AcDbText
 10
117.1608627864524
 20
476.3945304887486
 30
0.0
 40
3.0
  1
3
  7
HTX1
 41
1.02
100
AcDbText
  0
LWPOLYLINE
  5
471
330
1D
100
AcDbEntity
  8
GT_1
 62
7
100
AcDbPolyline
 90
2
 70
128
 43
0.6
 10
109.3
 20
485.1
 10
96.7
 20
484.9
  0
LWPOLYLINE
  5
475
330
1D
100
AcDbEntity
  8
GT_1
100
AcDbPolyline
 90
3
 70
128
 10
100.4
 20
483.1
 10
99.7
 20
485.0
 10
99.7
 20
483.0
  0
LWPOLYLINE
  5
47A
330
1D
100
AcDbEntity
  8
GT_1
100
AcDbPolyline
 90
3
 70
128
 10
99.7
 20
485.0
 10
103.3
 20
464.3
 10
95.8
 20
461.6
  0
TEXT
  5
47F
330
1D
100
AcDbEntity
  8
GT_1
 62
2
100
AcDbText
 10
85.0143
 20
462.1
 30
0.0
 40
3.0
  1
<1>
  7
HTX1
 41
1.02
100
AcDbText
  0
TEXT
  5
480
330
1D
100
AcDbEntity
  8
GT_1
 62
2
100
AcDbText
 10
93.1743
 20
462.1
 30
0.0
 40
3.0
  1
2
  7
HTX1
 41
1.02
100
AcDbText
  0
LWPOLYLINE
  5
481
330
1D
100
AcDbEntity
  8
GT_1
100
AcDbPolyline
 90
5
 70
128
 10
92.7
 20
465.6
 10
95.7
 20
465.6
 10
95.7
 20
461.6
 10
92.7
 20
461.6
 10
92.7
 20
465.6
  0
LWPOLYLINE
  5
488
330
1D
100
AcDbEntity
  8
GT_1
100
AcDbPolyline
 90
6
 70
128
 10
96.7
 20
484.9
 10
96.7
 20
483.3
 10
98.7
 20
483.3
 10
98.7
 20
486.5
 10
96.7
 20
486.5
 10
96.7
 20
484.9
  0
LWPOLYLINE
  5
490
330
1D
100
AcDbEntity
  8
GT_1
100
AcDbPolyline
 90
18
 70
128
 10
96.7
 20
483.3
 10
98.7
 20
483.6
 10
96.7
 20
483.9
 10
98.7
 20
484.4
 10
96.7
 20
484.7
 10
98.7
 20
485.2
 10
96.7
 20
485.5
 10
98.7
 20
486.0
 10
96.7
 20
486.3
 10
98.7
 20
486.4
 10
96.7
 20
485.9
 10
98.7
 20
485.6
 10
96.7
 20
485.1
 10
98.7
 20
484.8
 10
96.7
 20
484.3
 10
98.7
 20
484.0
 10
96.7
 20
483.5
 10
98.7
 20
483.3
  0
TEXT
  5
4A4
330
1D
100
AcDbEntity
  8
GT_1
 62
2
100
AcDbText
 10
93.14921262497498
 20
491.2097964365461
 30
0.0
 40
3.0
  1
4
  7
HTX1
 41
1.02
100
AcDbText
  0
LWPOLYLINE
  5
4A5
330
1D
100
AcDbEntity
  8
GT_1
100
AcDbPolyline
 90
6
 70
128
 10
96.7
 20
484.9
 10
96.7
 20
482.5
 10
95.9
 20
482.5
 10
95.9
 20
487.3
 10
96.7
 20
487.3
 10
96.7
 20
484.9
  0
LWPOLYLINE
  5
4AD
330
1D
100
AcDbEntity
  8
GT_1
100
AcDbPolyline
 90
2
 70
128
 10
98.6
 20
483.4
 10
96.7
 20
483.4
  0
LWPOLYLINE
  5
4B1
330
1D
100
AcDbEntity
  8
GT_1
100
AcDbPolyline
 90
2
 70
128
 10
98.6
 20
486.5
 10
96.7
 20
486.5
  0
LWPOLYLINE
  5
4B5
330
1D
100
AcDbEntity
  8
GT_1
100
AcDbPolyline
 90
3
 70
128
 10
97.2
 20
480.5
 10
97.2
 20
482.5
 10
96.5
 20
480.6
  0
LWPOLYLINE
  5
4BA
330
1D
100
AcDbEntity
  8
GT_1
100
AcDbPolyline
 90
3
 70
128
 10
97.2
 20
482.5
 10
94.9
 20
469.7
 10
78.9
 20
469.7
  0
TEXT
  5
4BF
330
1D
100
AcDbEntity
  8
GT_1
 62
2
100
AcDbText
 10
57.8286
 20
470.2
 30
0.0
 40
3.0
  1
F9 G10 B11
  7
HTX1
 41
1.02
100
AcDbText
  0
LWPOLYLINE
  5
4C0
330
1D
100
AcDbEntity
  8
GT_1
100
AcDbPolyline
 90
5
 70
128
 10
57.3
 20
473.7
 10
78.7
 20
473.7
 10
78.7
 20
469.7
 10
57.3
 20
469.7
 10
57.3
 20
473.7
  0
LWPOLYLINE
  5
4C7
330
1D
100
AcDbEntity
  8
GT_1
100
AcDbPolyline
 90
2
 70
128
 10
109.3
 20
489.1
 10
109.3
 20
501.3
  0
LWPOLYLINE
  5
4CB
330
1D
100
AcDbEntity
  8
GT_1
100
AcDbPolyline
 90
3
 70
128
 10
107.3
 20
499.8
 10
109.3
 20
500.1
 10
107.3
 20
500.4
  0
LWPOLYLINE
  5
4D0
330
1D
100
AcDbEntity
  8
GT_1
100
AcDbPolyline
 90
2
 70
128
 10
109.3
 20
500.1
 10
106.7
 20
500.1
  0
LWPOLYLINE
  5
4D4
330
1D
100
AcDbEntity
  8
GT_1
100
AcDbPolyline
 90
2
 70
128
 10
95.9
 20
488.9
 10
95.9
 20
501.1
  0
LWPOLYLINE
  5
4D8
330
1D
100
AcDbEntity
  8
GT_1
100
AcDbPolyline
 90
3
 70
128
 10
97.9
 20
500.2
 10
95.9
 20
499.9
 10
97.9
 20
499.6
  0
LWPOLYLINE
  5
4DD
330
1D
100
AcDbEntity
  8
GT_1
100
AcDbPolyline
 90
2
 70
128
 10
95.9
 20
499.9
 10
99.5
 20
499.9
  0
TEXT
  5
4E1
330
1D
100
AcDbEntity
  8
GT_1
 62
2
100
AcDbText
 10
99.5357
 20
498.746
 30
0.0
 40
3.0
  1
150
 50
1.0
  7
HTX1
 41
1.02
100
AcDbText
  0
LWPOLYLINE
  5
4E2
330
1D
100
AcDbEntity
  8
GT_1
100
AcDbPolyline
 90
2
 70
128
 10
114.1
 20
489.2
 10
114.1
 20
506.4
  0
LWPOLYLINE
  5
4E6
330
1D
100
AcDbEntity
  8
GT_1
100
AcDbPolyline
 90
3
 70
128
 10
112.1
 20
504.8
 10
114.1
 20
505.2
 10
112.1
 20
505.5
  0
LWPOLYLINE
  5
4EB
330
1D
100
AcDbEntity
  8
GT_1
100
AcDbPolyline
 90
2
 70
128
 10
114.1
 20
505.2
 10
105.0
 20
505.1
  0
LWPOLYLINE
  5
4EF
330
1D
100
AcDbEntity
  8
GT_1
100
AcDbPolyline
 90
2
 70
128
 10
95.9
 20
488.9
 10
95.9
 20
506.1
  0
LWPOLYLINE
  5
4F3
330
1D
100
AcDbEntity
  8
GT_1
100
AcDbPolyline
 90
3
 70
128
 10
97.9
 20
505.3
 10
95.9
 20
504.9
 10
97.9
 20
504.6
  0
LWPOLYLINE
  5
4F8
330
1D
100
AcDbEntity
  8
GT_1
100
AcDbPolyline
 90
2
 70
128
 10
95.9
 20
504.9
 10
105.0
 20
505.1
  0
LWPOLYLINE
  5
4FC
330
1D
100
AcDbEntity
  8
GT_1
100
AcDbPolyline
 90
3
 70
128
 10
97.4
 20
505.3
 10
99.4
 20
505.0
 10
97.7
 20
506.0
  0
LWPOLYLINE
  5
501
330
1D
100
AcDbEntity
  8
GT_1
100
AcDbPolyline
 90
2
 70
128
 10
99.4
 20
505.0
 10
90.9
 20
508.1
  0
TEXT
  5
505
330
1D
100
AcDbEntity
  8
GT_1
 62
2
100
AcDbText
 10
84.2286
 20
508.6
 30
0.0
 40
3.0
  1
382
  7
HTX1
 41
1.02
100
AcDbText
  0
LWPOLYLINE
  5
506
330
1D
100
AcDbEntity
  8
GT_1
100
AcDbPolyline
 90
6
 70
128
 10
94.7
 20
484.9
 10
94.7
 20
482.5
 10
93.9
 20
482.5
 10
93.9
 20
487.3
 10
94.7
 20
487.3
 10
94.7
 20
484.9
  0
LWPOLYLINE
  5
50E
330
1D
100
AcDbEntity
  8
GT_1
100
AcDbPolyline
 90
3
 70
128
 10
93.0
 20
481.0
 10
94.3
 20
482.5
 10
92.6
 20
481.5
  0
LWPOLYLINE
  5
513
330
1D
100
AcDbEntity
  8
GT_1
100
AcDbPolyline
 90
2
 70
128
 10
94.3
 20
482.5
 10
90.5
 20
479.3
  0
TEXT
  5
517
330
1D
100
AcDbEntity
  8
GT_1
 62
2
100
AcDbText
 10
85.8857
 20
479.8
 30
0.0
 40
3.0
  1
F8
  7
HTX1
 41
1.02
100
AcDbText
  0
LWPOLYLINE
  5
518
330
1D
100
AcDbEntity
  8
GT_1
100
AcDbPolyline
 90
5
 70
128
 10
85.4
 20
483.3
 10
90.5
 20
483.3
 10
90.5
 20
479.3
 10
85.4
 20
479.3
 10
85.4
 20
483.3
  0
LWPOLYLINE
  5
51F
330
1D
100
AcDbEntity
  8
GT_1
100
AcDbPolyline
 90
2
 70
128
 10
114.1
 20
485.2
 10
103.7
 20
479.2
  0
LWPOLYLINE
  5
523
330
1D
100
AcDbEntity
  8
GT_1
100
AcDbPolyline
 90
3
 70
128
 10
110.9
 20
482.5
 10
108.9
 20
482.2
 10
110.9
 20
481.9
  0
LWPOLYLINE
  5
528
330
1D
100
AcDbEntity
  8
GT_1
100
AcDbPolyline
 90
2
 70
128
 10
108.9
 20
482.2
 10
125.9
 20
482.2
  0
TEXT
  5
52C
330
1D
100
AcDbEntity
  8
GT_1
 62
2
100
AcDbText
 10
126.4
 20
482.7
 30
0.0
 40
3.0
  1
286
  7
HTX1
 41
1.02
100
AcDbText
  0
LWPOLYLINE
  5
52D
330
1D
100
AcDbEntity
  8
GT_1
100
AcDbPolyline
 90
2
 70
128
 10
103.7
 20
479.2
 10
93.9
 20
484.9
  0
LWPOLYLINE
  5
531
330
1D
100
AcDbEntity
  8
GT_1
100
AcDbPolyline
 90
3
 70
128
 10
95.8
 20
481.5
 10
96.5
 20
483.4
 10
95.2
 20
481.9
  0
LWPOLYLINE
  5
536
330
1D
100
AcDbEntity
  8
GT_1
100
AcDbPolyline
 90
2
 70
128
 10
96.5
 20
483.4
 10
90.0
 20
472.1
  0
TEXT
  5
53A
330
1D
100
AcDbEntity
  8
GT_1
 62
2
100
AcDbText
 10
83.3286
 20
472.6
 30
0.0
 40
3.0
  1
286
  7
HTX1
 41
1.02
100
AcDbText
  0
LWPOLYLINE
  5
53B
330
1D
100
AcDbEntity
  8
GT_1
100
AcDbPolyline
 90
2
 70
128
 10
107.7
 20
482.0
 10
106.8
 20
482.5
  0
LWPOLYLINE
  5
53F
330
1D
100
AcDbEntity
  8
GT_1
100
AcDbPolyline
 90
3
 70
128
 10
112.7
 20
486.8
 10
112.7
 20
484.8
 10
113.4
 20
486.7
  0
LWPOLYLINE
  5
544
330
1D
100
AcDbEntity
  8
GT_1
100
AcDbPolyline
 90
2
 70
128
 10
112.7
 20
484.8
 10
117.0
 20
509.4
  0
TEXT
  5
548
330
1D
100
AcDbEntity
  8
GT_1
 62
2
100
AcDbText
 10
117.5
 20
509.9
 30
0.0
 40
3.0
  1
45
  7
HTX1
 41
1.02
100
AcDbText
  0
TEXT
  5
549
330
1D
100
AcDbEntity
  8
GT_1
 62
2
100
AcDbText
 10
121.58
 20
511.4
 30
0.0
 40
1.5
  1
o
  7
HTX1
 41
1.02
100
AcDbText
  0
LWPOLYLINE
  5
54A
330
1D
100
AcDbEntity
  8
GT_1
100
AcDbPolyline
 90
5
 70
128
 10
117.0
 20
513.4
 10
123.1
 20
513.4
 10
123.1
 20
509.4
 10
117.0
 20
509.4
 10
117.0
 20
513.4
  0
TEXT
  5
551
330
1D
100
AcDbEntity
  8
GT_1
 62
2
100
AcDbText
 10
102.677
 20
481.085
 30
0.0
 40
3.0
  1
H
  7
HTX1
 41
1.02
100
AcDbText
  0
LWPOLYLINE
  5
552
330
1D
100
AcDbEntity
  8
GT_1
100
AcDbPolyline
 90
5
 70
128
 10
102.2
 20
484.6
 10
105.2
 20
484.6
 10
105.2
 20
480.6
 10
102.2
 20
480.6
 10
102.2
 20
484.6
  0
LWPOLYLINE
  5
559
330
1D
100
AcDbEntity
  8
GT_1
 62
7
100
AcDbPolyline
 90
2
 70
128
 43
0.6
 10
114.1
 20
485.2
 10
161.1
 20
458.0
  0
LWPOLYLINE
  5
55D
330
1D
100
AcDbEntity
  8
GT_1
100
AcDbPolyline
 90
2
 70
128
 10
115.8
 20
486.2
 10
128.1
 20
493.3
  0
LWPOLYLINE
  5
561
330
1D
100
AcDbEntity
  8
GT_1
100
AcDbPolyline
 90
3
 70
128
 10
129.0
 20
492.0
 10
127.1
 20
492.7
 10
128.6
 20
491.4
  0
LWPOLYLINE
  5
566
330
1D
100
AcDbEntity
  8
GT_1
100
AcDbPolyline
 90
2
 70
128
 10
127.1
 20
492.7
 10
142.6
 20
483.7
  0
LWPOLYLINE
  5
56A
330
1D
100
AcDbEntity
  8
GT_1
100
AcDbPolyline
 90
2
 70
128
 10
164.6
 20
460.0
 10
175.1
 20
466.1
  0
LWPOLYLINE
  5
56E
330
1D
100
AcDbEntity
  8
GT_1
100
AcDbPolyline
 90
3
 70
128
 10
172.2
 20
466.2
 10
174.1
 20
465.5
 10
172.6
 20
466.8
  0
LWPOLYLINE
  5
573
330
1D
100
AcDbEntity
  8
GT_1
100
AcDbPolyline
 90
2
 70
128
 10
174.1
 20
465.5
 10
148.8
 20
480.1
  0
TEXT
  5
577
330
1D
100
AcDbEntity
  8
GT_1
 62
2
100
AcDbText
 10
141.973
 20
482.689
 30
0.0
 40
3.0
  1
250
 50
330.0
  7
HTX1
 41
1.02
100
AcDbText
  0
LWPOLYLINE
  5
58D
330
1D
100
AcDbEntity
  8
GT_1
100
AcDbPolyline
 90
2
 70
128
 10
159.8
 20
458.0
 10
162.4
 20
458.0
  0
TEXT
  5
59D
330
1D
100
AcDbEntity
  8
GT_1
 62
2
100
AcDbText
 10
164.498057174427
 20
463.4632991023402
 30
0.0
 40
3.0
  1
5
  7
HTX1
 41
1.02
100
AcDbText
  0
LWPOLYLINE
  5
59E
330
1D
100
AcDbEntity
  8
GT_1
100
AcDbPolyline
 90
6
 70
128
 10
161.1
 20
458.0
 10
161.1
 20
456.4
 10
156.3
 20
456.3
 10
156.3
 20
459.5
 10
161.1
 20
459.6
 10
161.1
 20
458.0
  0
LWPOLYLINE
  5
5A6
330
1D
100
AcDbEntity
  8
GT_1
100
AcDbPolyline
 90
3
 70
128
 10
156.3
 20
459.9
 10
156.3
 20
457.9
 10
157.0
 20
459.8
  0
LWPOLYLINE
  5
5AB
330
1D
100
AcDbEntity
  8
GT_1
100
AcDbPolyline
 90
2
 70
128
 10
156.3
 20
457.9
 10
161.3
 20
486.5
  0
TEXT
  5
5AF
330
1D
100
AcDbEntity
  8
GT_1
 62
2
100
AcDbText
 10
161.8
 20
487.0
 30
0.0
 40
3.0
  1
6
  7
HTX1
 41
1.02
100
AcDbText
  0
LWPOLYLINE
  5
5B0
330
1D
100
AcDbEntity
  8
GT_1
100
AcDbPolyline
 90
5
 70
128
 10
161.3
 20
490.5
 10
164.3
 20
490.5
 10
164.3
 20
486.5
 10
161.3
 20
486.5
 10
161.3
 20
490.5
  0
TEXT
  5
5B7
330
1D
100
AcDbEntity
  8
GT_1
 62
2
100
AcDbText
 10
161.8
 20
483.0
 30
0.0
 40
3.0
  1
200x50DN
  7
HTX1
 41
1.02
100
AcDbText
  0
LWPOLYLINE
  5
5B8
330
1D
100
AcDbEntity
  8
GT_1
100
AcDbPolyline
 90
2
 70
128
 10
161.1
 20
462.0
 10
161.1
 20
474.2
  0
LWPOLYLINE
  5
5BC
330
1D
100
AcDbEntity
  8
GT_1
100
AcDbPolyline
 90
3
 70
128
 10
159.1
 20
472.7
 10
161.1
 20
473.0
 10
159.1
 20
473.3
  0
LWPOLYLINE
  5
5C1
330
1D
100
AcDbEntity
  8
GT_1
100
AcDbPolyline
 90
2
 70
128
 10
161.1
 20
473.0
 10
158.7
 20
473.0
  0
LWPOLYLINE
  5
5C5
330
1D
100
AcDbEntity
  8
GT_1
100
AcDbPolyline
 90
2
 70
128
 10
156.3
 20
461.9
 10
156.3
 20
474.1
  0
LWPOLYLINE
  5
5C9
330
1D
100
AcDbEntity
  8
GT_1
100
AcDbPolyline
 90
3
 70
128
 10
158.3
 20
473.3
 10
156.3
 20
472.9
 10
158.3
 20
472.6
  0
LWPOLYLINE
  5
5CE
330
1D
100
AcDbEntity
  8
GT_1
100
AcDbPolyline
 90
2
 70
128
 10
156.3
 20
472.9
 10
158.7
 20
473.0
  0
LWPOLYLINE
  5
5D2
330
1D
100
AcDbEntity
  8
GT_1
100
AcDbPolyline
 90
3
 70
128
 10
158.0
 20
474.9
 10
158.7
 20
473.0
 10
158.7
 20
475.0
  0
LWPOLYLINE
  5
5D7
330
1D
100
AcDbEntity
  8
GT_1
100
AcDbPolyline
 90
2
 70
128
 10
158.7
 20
473.0
 10
155.7
 20
489.7
  0
TEXT
  5
5DB
330
1D
100
AcDbEntity
  8
GT_1
 62
2
100
AcDbText
 10
149.029
 20
490.2
 30
0.0
 40
3.0
  1
232
  7
HTX1
 41
1.02
100
AcDbText
  0
LWPOLYLINE
  5
5DC
330
1D
100
AcDbEntity
  8
GT_1
100
AcDbPolyline
 90
6
 70
128
 10
156.3
 20
457.9
 10
156.3
 20
456.3
 10
154.3
 20
456.3
 10
154.3
 20
459.5
 10
156.3
 20
459.5
 10
156.3
 20
457.9
  0
LWPOLYLINE
  5
5E4
330
1D
100
AcDbEntity
  8
GT_1
100
AcDbPolyline
 90
18
 70
128
 10
156.3
 20
456.3
 10
154.3
 20
456.5
 10
156.3
 20
456.9
 10
154.3
 20
457.3
 10
156.3
 20
457.7
 10
154.3
 20
458.1
 10
156.3
 20
458.5
 10
154.3
 20
458.9
 10
156.3
 20
459.3
 10
154.3
 20
459.3
 10
156.3
 20
458.9
 10
154.3
 20
458.5
 10
156.3
 20
458.1
 10
154.3
 20
457.7
 10
156.3
 20
457.3
 10
154.3
 20
456.9
 10
156.3
 20
456.5
 10
154.3
 20
456.3
  0
TEXT
  5
5F8
330
1D
100
AcDbEntity
  8
GT_1
 62
2
100
AcDbText
 10
146.3341774083169
 20
461.3930074165308
 30
0.0
 40
3.0
  1
6
  7
HTX1
 41
1.02
100
AcDbText
  0
LWPOLYLINE
  5
5F9
330
1D
100
AcDbEntity
  8
GT_1
 62
7
100
AcDbPolyline
 90
2
 70
128
 43
0.6
 10
156.3
 20
457.9
 10
108.5
 20
457.1
  0
TEXT
  5
5FD
330
1D
100
AcDbEntity
  8
GT_1
 62
2
100
AcDbText
 10
127.233
 20
458.86
 30
0.0
 40
3.0
  1
<2>
 50
1.0
  7
HTX1
 41
1.02
100
AcDbText
  0
TEXT
  5
5FE
330
1D
100
AcDbEntity
  8
GT_1
 62
2
100
AcDbText
 10
135.391
 20
459.002
 30
0.0
 40
3.0
  1
2
 50
1.0
  7
HTX1
 41
1.02
100
AcDbText
  0
LWPOLYLINE
  5
5FF
330
1D
100
AcDbEntity
  8
GT_1
100
AcDbPolyline
 90
5
 70
128
 10
134.8
 20
462.5
 10
137.9
 20
462.5
 10
137.9
 20
458.6
 10
134.9
 20
458.5
 10
134.8
 20
462.5
  0
LWPOLYLINE
  5
606
330
1D
100
AcDbEntity
  8
GT_1
100
AcDbPolyline
 90
6
 70
128
 10
108.5
 20
457.1
 10
108.5
 20
455.5
 10
110.5
 20
455.5
 10
110.5
 20
458.7
 10
108.5
 20
458.7
 10
108.5
 20
457.1
  0
LWPOLYLINE
  5
60E
330
1D
100
AcDbEntity
  8
GT_1
100
AcDbPolyline
 90
18
 70
128
 10
108.5
 20
455.5
 10
110.5
 20
455.8
 10
108.5
 20
456.1
 10
110.5
 20
456.6
 10
108.5
 20
456.9
 10
110.5
 20
457.4
 10
108.5
 20
457.7
 10
110.5
 20
458.2
 10
108.5
 20
458.5
 10
110.5
 20
458.6
 10
108.5
 20
458.1
 10
110.5
 20
457.8
 10
108.5
 20
457.3
 10
110.5
 20
457.0
 10
108.5
 20
456.5
 10
110.5
 20
456.2
 10
108.5
 20
455.7
 10
110.5
 20
455.5
  0
TEXT
  5
622
330
1D
100
AcDbEntity
  8
GT_1
 62
2
100
AcDbText
 10
112.7144837152698
 20
442.4260406516647
 30
0.0
 40
3.0
  1
7
  7
HTX1
 41
1.02
100
AcDbText
  0
LWPOLYLINE
  5
623
330
1D
100
AcDbEntity
  8
GT_1
100
AcDbPolyline
 90
6
 70
128
 10
108.5
 20
457.1
 10
108.5
 20
454.7
 10
107.7
 20
454.7
 10
107.7
 20
459.5
 10
108.5
 20
459.5
 10
108.5
 20
457.1
  0
LWPOLYLINE
  5
62B
330
1D
100
AcDbEntity
  8
GT_1
100
AcDbPolyline
 90
2
 70
128
 10
110.4
 20
455.6
 10
108.5
 20
455.6
  0
LWPOLYLINE
  5
62F
330
1D
100
AcDbEntity
  8
GT_1
100
AcDbPolyline
 90
2
 70
128
 10
110.4
 20
458.7
 10
108.5
 20
458.7
  0
LWPOLYLINE
  5
633
330
1D
100
AcDbEntity
  8
GT_1
100
AcDbPolyline
 90
3
 70
128
 10
109.0
 20
452.7
 10
109.0
 20
454.7
 10
108.3
 20
452.8
  0
LWPOLYLINE
  5
638
330
1D
100
AcDbEntity
  8
GT_1
100
AcDbPolyline
 90
2
 70
128
 10
109.0
 20
454.7
 10
106.7
 20
441.9
  0
TEXT
  5
63C
330
1D
100
AcDbEntity
  8
GT_1
 62
2
100
AcDbText
 10
85.6286
 20
442.4
 30
0.0
 40
3.0
  1
F9 G10 B11
  7
HTX1
 41
1.02
100
AcDbText
  0
LWPOLYLINE
  5
63D
330
1D
100
AcDbEntity
  8
GT_1
100
AcDbPolyline
 90
5
 70
128
 10
85.1
 20
445.9
 10
106.5
 20
445.9
 10
106.5
 20
441.9
 10
85.1
 20
441.9
 10
85.1
 20
445.9
  0
LWPOLYLINE
  5
644
330
1D
100
AcDbEntity
  8
GT_1
100
AcDbPolyline
 90
2
 70
128
 10
156.3
 20
461.9
 10
156.3
 20
474.1
  0
LWPOLYLINE
  5
648
330
1D
100
AcDbEntity
  8
GT_1
100
AcDbPolyline
 90
3
 70
128
 10
154.3
 20
472.5
 10
156.3
 20
472.9
 10
154.3
 20
473.2
  0
LWPOLYLINE
  5
64D
330
1D
100
AcDbEntity
  8
GT_1
100
AcDbPolyline
 90
2
 70
128
 10
156.3
 20
472.9
 10
148.5
 20
472.8
  0
LWPOLYLINE
  5
651
330
1D
100
AcDbEntity
  8
GT_1
100
AcDbPolyline
 90
2
 70
128
 10
107.7
 20
461.1
 10
107.7
 20
473.3
  0
LWPOLYLINE
  5
655
330
1D
100
AcDbEntity
  8
GT_1
100
AcDbPolyline
 90
3
 70
128
 10
109.7
 20
472.5
 10
107.7
 20
472.1
 10
109.7
 20
471.8
  0
LWPOLYLINE
  5
65A
330
1D
100
AcDbEntity
  8
GT_1
100
AcDbPolyline
 90
2
 70
128
 10
107.7
 20
472.1
 10
141.3
 20
472.7
  0
TEXT
  5
65E
330
1D
100
AcDbEntity
  8
GT_1
 62
2
100
AcDbText
 10
141.277
 20
471.462
 30
0.0
 40
3.0
  1
150
 50
1.0
  7
HTX1
 41
1.02
100
AcDbText
  0
LWPOLYLINE
  5
65F
330
1D
100
AcDbEntity
  8
GT_1
100
AcDbPolyline
 90
2
 70
128
 10
161.1
 20
462.0
 10
161.1
 20
479.2
  0
LWPOLYLINE
  5
663
330
1D
100
AcDbEntity
  8
GT_1
100
AcDbPolyline
 90
3
 70
128
 10
159.1
 20
477.6
 10
161.1
 20
478.0
 10
159.1
 20
478.3
  0
LWPOLYLINE
  5
668
330
1D
100
AcDbEntity
  8
GT_1
100
AcDbPolyline
 90
2
 70
128
 10
161.1
 20
478.0
 10
123.1
 20
477.4
  0
LWPOLYLINE
  5
66C
330
1D
100
AcDbEntity
  8
GT_1
100
AcDbPolyline
 90
2
 70
128
 10
107.7
 20
461.1
 10
107.7
 20
478.3
  0
LWPOLYLINE
  5
670
330
1D
100
AcDbEntity
  8
GT_1
100
AcDbPolyline
 90
3
 70
128
 10
109.7
 20
477.5
 10
107.7
 20
477.1
 10
109.7
 20
476.8
  0
LWPOLYLINE
  5
675
330
1D
100
AcDbEntity
  8
GT_1
100
AcDbPolyline
 90
2
 70
128
 10
107.7
 20
477.1
 10
115.9
 20
477.2
  0
TEXT
  5
679
330
1D
100
AcDbEntity
  8
GT_1
 62
2
100
AcDbText
 10
115.909
 20
476.027
 30
0.0
 40
3.0
  1
382
 50
1.0
  7
HTX1
 41
1.02
100
AcDbText
  0
LWPOLYLINE
  5
67A
330
1D
100
AcDbEntity
  8
GT_1
100
AcDbPolyline
 90
6
 70
128
 10
106.5
 20
457.1
 10
106.5
 20
454.7
 10
105.7
 20
454.7
 10
105.7
 20
459.5
 10
106.5
 20
459.5
 10
106.5
 20
457.1
  0
LWPOLYLINE
  5
682
330
1D
100
AcDbEntity
  8
GT_1
100
AcDbPolyline
 90
3
 70
128
 10
105.4
 20
452.8
 10
106.1
 20
454.7
 10
104.8
 20
453.2
  0
LWPOLYLINE
  5
687
330
1D
100
AcDbEntity
  8
GT_1
100
AcDbPolyline
 90
2
 70
128
 10
106.1
 20
454.7
 10
103.6
 20
450.4
  0
TEXT
  5
68B
330
1D
100
AcDbEntity
  8
GT_1
 62
2
100
AcDbText
 10
98.9857
 20
450.9
 30
0.0
 40
3.0
  1
F8
  7
HTX1
 41
1.02
100
AcDbText
  0
LWPOLYLINE
  5
68C
330
1D
100
AcDbEntity
  8
GT_1
100
AcDbPolyline
 90
5
 70
128
 10
98.5
 20
454.4
 10
103.6
 20
454.4
 10
103.6
 20
450.4
 10
98.5
 20
450.4
 10
98.5
 20
454.4
  0
LWPOLYLINE
  5
693
330
1D
100
AcDbEntity
  8
GT_1
100
AcDbPolyline
 90
2
 70
128
 10
161.1
 20
458.0
 10
132.6
 20
441.5
  0
TEXT
  5
697
330
1D
100
AcDbEntity
  8
GT_1
 62
2
100
AcDbText
 10
146.171
 20
444.619
 30
0.0
 40
3.0
  1
286
 50
30.0
  7
HTX1
 41
1.02
100
AcDbText
  0
LWPOLYLINE
  5
698
330
1D
100
AcDbEntity
  8
GT_1
100
AcDbPolyline
 90
2
 70
128
 10
132.6
 20
441.5
 10
105.7
 20
457.1
  0
TEXT
  5
69C
330
1D
100
AcDbEntity
  8
GT_1
 62
2
100
AcDbText
 10
114.385
 20
447.305
 30
0.0
 40
3.0
  1
286
 50
330.0
  7
HTX1
 41
1.02
100
AcDbText
  0
LWPOLYLINE
  5
69D
330
1D
100
AcDbEntity
  8
GT_1
100
AcDbPolyline
 90
2
 70
128
 10
155.1
 20
454.5
 10
153.8
 20
455.3
  0
LWPOLYLINE
  5
6A1
330
1D
100
AcDbEntity
  8
GT_1
100
AcDbPolyline
 90
2
 70
128
 10
153.0
 20
455.8
 10
151.2
 20
456.8
  0
LWPOLYLINE
  5
6A5
330
1D
100
AcDbEntity
  8
GT_1
100
AcDbPolyline
 90
2
 70
128
 10
152.1
 20
452.8
 10
145.2
 20
456.8
  0
LWPOLYLINE
  5
6A9
330
1D
100
AcDbEntity
  8
GT_1
100
AcDbPolyline
 90
2
 70
128
 10
148.7
 20
451.3
 10
140.0
 20
456.3
  0
LWPOLYLINE
  5
6AD
330
1D
100
AcDbEntity
  8
GT_1
100
AcDbPolyline
 90
2
 70
128
 10
145.7
 20
449.6
 10
134.0
 20
456.4
  0
LWPOLYLINE
  5
6B1
330
1D
100
AcDbEntity
  8
GT_1
100
AcDbPolyline
 90
2
 70
128
 10
143.1
 20
447.6
 10
128.0
 20
456.4
  0
LWPOLYLINE
  5
6B5
330
1D
100
AcDbEntity
  8
GT_1
100
AcDbPolyline
 90
3
 70
128
 10
157.9
 20
455.0
 10
157.2
 20
456.9
 10
157.2
 20
454.9
  0
LWPOLYLINE
  5
6BA
330
1D
100
AcDbEntity
  8
GT_1
100
AcDbPolyline
 90
2
 70
128
 10
157.2
 20
456.9
 10
160.8
 20
436.2
  0
TEXT
  5
6BE
330
1D
100
AcDbEntity
  8
GT_1
 62
2
100
AcDbText
 10
161.3
 20
436.7
 30
0.0
 40
3.0
  1
45
  7
HTX1
 41
1.02
100
AcDbText
  0
TEXT
  5
6BF
330
1D
100
AcDbEntity
  8
GT_1
 62
2
100
AcDbText
 10
165.38
 20
438.2
 30
0.0
 40
1.5
  1
o
  7
HTX1
 41
1.02
100
AcDbText
  0
LWPOLYLINE
  5
6C0
330
1D
100
AcDbEntity
  8
GT_1
100
AcDbPolyline
 90
5
 70
128
 10
160.8
 20
440.2
 10
166.9
 20
440.2
 10
166.9
 20
436.2
 10
160.8
 20
436.2
 10
160.8
 20
440.2
  0
TEXT
  5
6C7
330
1D
100
AcDbEntity
  8
GT_1
 62
2
100
AcDbText
 10
131.573
 20
443.404
 30
0.0
 40
3.0
  1
H
  7
HTX1
 41
1.02
100
AcDbText
  0
LWPOLYLINE
  5
6C8
330
1D
100
AcDbEntity
  8
GT_1
100
AcDbPolyline
 90
5
 70
128
 10
131.1
 20
446.9
 10
134.1
 20
446.9
 10
134.1
 20
442.9
 10
131.1
 20
442.9
 10
131.1
 20
446.9
  0
LWPOLYLINE
  5
6CF
330
1D
100
AcDbEntity
  8
GT_1
 62
7
100
AcDbPolyline
 90
2
 70
128
 43
0.6
 10
161.1
 20
458.0
 10
213.5
 20
427.8
  0
LWPOLYLINE
  5
6D3
330
1D
100
AcDbEntity
  8
GT_1
100
AcDbPolyline
 90
2
 70
128
 10
162.8
 20
459.0
 10
175.1
 20
466.1
  0
LWPOLYLINE
  5
6D7
330
1D
100
AcDbEntity
  8
GT_1
100
AcDbPolyline
 90
3
 70
128
 10
176.0
 20
464.8
 10
174.1
 20
465.5
 10
175.6
 20
464.2
  0
LWPOLYLINE
  5
6DC
330
1D
100
AcDbEntity
  8
GT_1
100
AcDbPolyline
 90
2
 70
128
 10
174.1
 20
465.5
 10
197.6
 20
451.9
  0
LWPOLYLINE
  5
6E0
330
1D
100
AcDbEntity
  8
GT_1
100
AcDbPolyline
 90
2
 70
128
 10
217.0
 20
429.8
 10
227.5
 20
435.9
  0
LWPOLYLINE
  5
6E4
330
1D
100
AcDbEntity
  8
GT_1
100
AcDbPolyline
 90
3
 70
128
 10
224.6
 20
436.0
 10
226.5
 20
435.3
 10
225.0
 20
436.6
  0
LWPOLYLINE
  5
6E9
330
1D
100
AcDbEntity
  8
GT_1
100
AcDbPolyline
 90
2
 70
128
 10
226.5
 20
435.3
 10
203.9
 20
448.3
  0
TEXT
  5
6ED
330
1D
100
AcDbEntity
  8
GT_1
 62
2
100
AcDbText
 10
197.018
 20
450.904
 30
0.0
 40
3.0
  1
250
 50
330.0
  7
HTX1
 41
1.02
100
AcDbText
  0
LWPOLYLINE
  5
703
330
1D
100
AcDbEntity
  8
GT_1
100
AcDbPolyline
 90
2
 70
128
 10
212.2
 20
427.8
 10
214.8
 20
427.8
  0
TEXT
  5
713
330
1D
100
AcDbEntity
  8
GT_1
 62
2
100
AcDbText
 10
205.0013061910331
 20
421.0788906876218
 30
0.0
 40
3.0
  1
8
  7
HTX1
 41
1.02
100
AcDbText
  0
LWPOLYLINE
  5
714
330
1D
100
AcDbEntity
  8
GT_1
100
AcDbPolyline
 90
6
 70
128
 10
213.5
 20
427.8
 10
213.5
 20
426.2
 10
208.7
 20
426.1
 10
208.7
 20
429.3
 10
213.5
 20
429.4
 10
213.5
 20
427.8
  0
LWPOLYLINE
  5
71C
330
1D
100
AcDbEntity
  8
GT_1
100
AcDbPolyline
 90
3
 70
128
 10
209.4
 20
429.6
 10
208.7
 20
427.7
 10
210.0
 20
429.2
  0
LWPOLYLINE
  5
721
330
1D
100
AcDbEntity
  8
GT_1
100
AcDbPolyline
 90
2
 70
128
 10
208.7
 20
427.7
 10
221.2
 20
449.4
  0
TEXT
  5
725
330
1D
100
AcDbEntity
  8
GT_1
 62
2
100
AcDbText
 10
221.7
 20
449.9
 30
0.0
 40
3.0
  1
6
  7
HTX1
 41
1.02
100
AcDbText
  0
LWPOLYLINE
  5
726
330
1D
100
AcDbEntity
  8
GT_1
100
AcDbPolyline
 90
5
 70
128
 10
221.2
 20
453.4
 10
224.2
 20
453.4
 10
224.2
 20
449.4
 10
221.2
 20
449.4
 10
221.2
 20
453.4
  0
TEXT
  5
72D
330
1D
100
AcDbEntity
  8
GT_1
 62
2
100
AcDbText
 10
221.7
 20
445.9
 30
0.0
 40
3.0
  1
200x50DN
  7
HTX1
 41
1.02
100
AcDbText
  0
LWPOLYLINE
  5
72E
330
1D
100
AcDbEntity
  8
GT_1
100
AcDbPolyline
 90
2
 70
128
 10
213.5
 20
431.8
 10
213.5
 20
444.0
  0
LWPOLYLINE
  5
732
330
1D
100
AcDbEntity
  8
GT_1
100
AcDbPolyline
 90
3
 70
128
 10
211.5
 20
442.5
 10
213.5
 20
442.8
 10
211.5
 20
443.1
  0
LWPOLYLINE
  5
737
330
1D
100
AcDbEntity
  8
GT_1
100
AcDbPolyline
 90
2
 70
128
 10
213.5
 20
442.8
 10
211.1
 20
442.8
  0
LWPOLYLINE
  5
73B
330
1D
100
AcDbEntity
  8
GT_1
100
AcDbPolyline
 90
2
 70
128
 10
208.7
 20
431.7
 10
208.7
 20
443.9
  0
LWPOLYLINE
  5
73F
330
1D
100
AcDbEntity
  8
GT_1
100
AcDbPolyline
 90
3
 70
128
 10
210.7
 20
443.1
 10
208.7
 20
442.7
 10
210.7
 20
442.4
  0
LWPOLYLINE
  5
744
330
1D
100
AcDbEntity
  8
GT_1
100
AcDbPolyline
 90
2
 70
128
 10
208.7
 20
442.7
 10
211.1
 20
442.8
  0
LWPOLYLINE
  5
748
330
1D
100
AcDbEntity
  8
GT_1
100
AcDbPolyline
 90
3
 70
128
 10
210.4
 20
444.7
 10
211.1
 20
442.8
 10
211.1
 20
444.8
  0
LWPOLYLINE
  5
74D
330
1D
100
AcDbEntity
  8
GT_1
100
AcDbPolyline
 90
2
 70
128
 10
211.1
 20
442.8
 10
208.1
 20
459.5
  0
TEXT
  5
751
330
1D
100
AcDbEntity
  8
GT_1
 62
2
100
AcDbText
 10
201.429
 20
460.0
 30
0.0
 40
3.0
  1
232
  7
HTX1
 41
1.02
100
AcDbText
  0
LWPOLYLINE
  5
75B
330
1D
100
AcDbEntity
  8
GT_1
  6
GT100
100
AcDbPolyline
 90
4
 70
128
 10
206.7
 20
426.1
 10
208.7
 20
426.1
 10
208.7
 20
429.3
 10
206.7
 20
429.3
  0
LWPOLYLINE
  5
761
330
1D
100
AcDbEntity
  8
GT_1
100
AcDbPolyline
 90
3
 70
128
 10
206.7
 20
427.4
 10
208.7
 20
427.7
 10
206.7
 20
428.0
  0
LWPOLYLINE
  5
766
330
1D
100
AcDbEntity
  8
GT_1
100
AcDbPolyline
 90
2
 70
128
 10
208.7
 20
427.7
 10
199.7
 20
427.7
  0
TEXT
  5
76A
330
1D
100
AcDbEntity
  8
GT_1
 62
2
100
AcDbText
 10
149.829
 20
428.2
 30
0.0
 40
3.0
  1
CONT. ON
  7
HTX1
 41
1.02
100
AcDbText
  0
TEXT
  5
76B
330
1D
100
AcDbEntity
  8
GT_1
 62
2
100
AcDbText
 10
149.829
 20
424.2
 30
0.0
 40
3.0
  1
110022-13630-569-HB4D-50
  7
HTX1
 41
1.02
100
AcDbText
  0
TEXT
  5
76C
330
1D
100
AcDbEntity
  8
GT_1
 62
2
100
AcDbText
 10
149.829
 20
420.2
 30
0.0
 40
3.0
  1
E 969642
  7
HTX1
 41
1.02
100
AcDbText
  0
TEXT
  5
76D
330
1D
100
AcDbEntity
  8
GT_1
 62
2
100
AcDbText
 10
149.829
 20
416.2
 30
0.0
 40
3.0
  1
S 1294311
  7
HTX1
 41
1.02
100
AcDbText
  0
TEXT
  5
76E
330
1D
100
AcDbEntity
  8
GT_1
 62
2
100
AcDbText
 10
149.829
 20
412.2
 30
0.0
 40
3.0
  1
FL+430
  7
HTX1
 41
1.02
100
AcDbText
  0
LWPOLYLINE
  5
76F
330
1D
100
AcDbEntity
  8
GT_1
 62
7
100
AcDbPolyline
 90
2
 70
128
 43
0.6
 10
213.5
 20
427.8
 10
255.5
 20
403.5
  0
LWPOLYLINE
  5
773
330
1D
100
AcDbEntity
  8
GT_1
100
AcDbPolyline
 90
2
 70
128
 10
215.2
 20
428.8
 10
227.5
 20
435.9
  0
LWPOLYLINE
  5
777
330
1D
100
AcDbEntity
  8
GT_1
100
AcDbPolyline
 90
3
 70
128
 10
228.4
 20
434.6
 10
226.5
 20
435.3
 10
228.0
 20
434.0
  0
LWPOLYLINE
  5
77C
330
1D
100
AcDbEntity
  8
GT_1
100
AcDbPolyline
 90
2
 70
128
 10
226.5
 20
435.3
 10
244.8
 20
424.7
  0
LWPOLYLINE
  5
780
330
1D
100
AcDbEntity
  8
GT_1
100
AcDbPolyline
 90
2
 70
128
 10
259.0
 20
405.5
 10
269.5
 20
411.6
  0
LWPOLYLINE
  5
784
330
1D
100
AcDbEntity
  8
GT_1
100
AcDbPolyline
 90
3
 70
128
 10
266.6
 20
411.7
 10
268.5
 20
411.0
 10
267.0
 20
412.3
  0
LWPOLYLINE
  5
789
330
1D
100
AcDbEntity
  8
GT_1
100
AcDbPolyline
 90
2
 70
128
 10
268.5
 20
411.0
 10
251.1
 20
421.1
  0
TEXT
  5
78D
330
1D
100
AcDbEntity
  8
GT_1
 62
2
100
AcDbText
 10
244.218
 20
423.654
 30
0.0
 40
3.0
  1
250
 50
330.0
  7
HTX1
 41
1.02
100
AcDbText
  0
TEXT
  5
7AF
330
1D
100
AcDbEntity
  8
GT_1
 62
2
100
AcDbText
 10
245.3873877325521
 20
397.369072069757
 30
0.0
 40
3.0
  1
9
  7
HTX1
 41
1.02
100
AcDbText
  0
LWPOLYLINE
  5
7B0
330
1D
100
AcDbEntity
  8
GT_1
100
AcDbPolyline
 90
6
 70
128
 10
255.5
 20
403.5
 10
255.5
 20
401.9
 10
250.7
 20
401.8
 10
250.7
 20
405.0
 10
255.5
 20
405.1
 10
255.5
 20
403.5
  0
LWPOLYLINE
  5
7B8
330
1D
100
AcDbEntity
  8
GT_1
100
AcDbPolyline
 90
3
 70
128
 10
251.4
 20
405.3
 10
250.7
 20
403.4
 10
252.0
 20
404.9
  0
LWPOLYLINE
  5
7BD
330
1D
100
AcDbEntity
  8
GT_1
100
AcDbPolyline
 90
2
 70
128
 10
250.7
 20
403.4
 10
265.2
 20
428.5
  0
TEXT
  5
7C1
330
1D
100
AcDbEntity
  8
GT_1
 62
2
100
AcDbText
 10
265.7
 20
429.0
 30
0.0
 40
3.0
  1
6
  7
HTX1
 41
1.02
100
AcDbText
  0
LWPOLYLINE
  5
7C2
330
1D
100
AcDbEntity
  8
GT_1
100
AcDbPolyline
 90
5
 70
128
 10
265.2
 20
432.5
 10
268.2
 20
432.5
 10
268.2
 20
428.5
 10
265.2
 20
428.5
 10
265.2
 20
432.5
  0
TEXT
  5
7C9
330
1D
100
AcDbEntity
  8
GT_1
 62
2
100
AcDbText
 10
265.7
 20
425.0
 30
0.0
 40
3.0
  1
200x50DN
  7
HTX1
 41
1.02
100
AcDbText
  0
LWPOLYLINE
  5
7CA
330
1D
100
AcDbEntity
  8
GT_1
100
AcDbPolyline
 90
2
 70
128
 10
255.5
 20
407.5
 10
255.5
 20
419.7
  0
LWPOLYLINE
  5
7CE
330
1D
100
AcDbEntity
  8
GT_1
100
AcDbPolyline
 90
3
 70
128
 10
253.5
 20
418.2
 10
255.5
 20
418.5
 10
253.5
 20
418.8
  0
LWPOLYLINE
  5
7D3
330
1D
100
AcDbEntity
  8
GT_1
100
AcDbPolyline
 90
2
 70
128
 10
255.5
 20
418.5
 10
253.1
 20
418.5
  0
LWPOLYLINE
  5
7D7
330
1D
100
AcDbEntity
  8
GT_1
100
AcDbPolyline
 90
2
 70
128
 10
250.7
 20
407.4
 10
250.7
 20
419.6
  0
LWPOLYLINE
  5
7DB
330
1D
100
AcDbEntity
  8
GT_1
100
AcDbPolyline
 90
3
 70
128
 10
252.7
 20
418.8
 10
250.7
 20
418.4
 10
252.7
 20
418.1
  0
LWPOLYLINE
  5
7E0
330
1D
100
AcDbEntity
  8
GT_1
100
AcDbPolyline
 90
2
 70
128
 10
250.7
 20
418.4
 10
253.1
 20
418.5
  0
LWPOLYLINE
  5
7E4
330
1D
100
AcDbEntity
  8
GT_1
100
AcDbPolyline
 90
3
 70
128
 10
253.1
 20
420.5
 10
253.1
 20
418.5
 10
253.8
 20
420.4
  0
LWPOLYLINE
  5
7E9
330
1D
100
AcDbEntity
  8
GT_1
100
AcDbPolyline
 90
2
 70
128
 10
253.1
 20
418.5
 10
254.7
 20
427.4
  0
TEXT
  5
7ED
330
1D
100
AcDbEntity
  8
GT_1
 62
2
100
AcDbText
 10
255.2
 20
427.9
 30
0.0
 40
3.0
  1
232
  7
HTX1
 41
1.02
100
AcDbText
  0
LWPOLYLINE
  5
7F7
330
1D
100
AcDbEntity
  8
GT_1
  6
GT100
100
AcDbPolyline
 90
4
 70
128
 10
248.7
 20
401.8
 10
250.7
 20
401.8
 10
250.7
 20
405.0
 10
248.7
 20
405.0
  0
LWPOLYLINE
  5
7FD
330
1D
100
AcDbEntity
  8
GT_1
100
AcDbPolyline
 90
3
 70
128
 10
248.7
 20
403.1
 10
250.7
 20
403.4
 10
248.7
 20
403.7
  0
LWPOLYLINE
  5
802
330
1D
100
AcDbEntity
  8
GT_1
100
AcDbPolyline
 90
2
 70
128
 10
250.7
 20
403.4
 10
241.7
 20
403.4
  0
TEXT
  5
806
330
1D
100
AcDbEntity
  8
GT_1
 62
2
100
AcDbText
 10
191.829
 20
403.9
 30
0.0
 40
3.0
  1
CONT. ON
  7
HTX1
 41
1.02
100
AcDbText
  0
TEXT
  5
807
330
1D
100
AcDbEntity
  8
GT_1
 62
2
100
AcDbText
 10
191.829
 20
399.9
 30
0.0
 40
3.0
  1
110022-13630-563-HB4D-50
  7
HTX1
 41
1.02
100
AcDbText
  0
TEXT
  5
808
330
1D
100
AcDbEntity
  8
GT_1
 62
2
100
AcDbText
 10
191.829
 20
395.9
 30
0.0
 40
3.0
  1
E 969642
  7
HTX1
 41
1.02
100
AcDbText
  0
TEXT
  5
809
330
1D
100
AcDbEntity
  8
GT_1
 62
2
100
AcDbText
 10
191.829
 20
391.9
 30
0.0
 40
3.0
  1
S 1294561
  7
HTX1
 41
1.02
100
AcDbText
  0
TEXT
  5
80A
330
1D
100
AcDbEntity
  8
GT_1
 62
2
100
AcDbText
 10
191.829
 20
387.9
 30
0.0
 40
3.0
  1
FL+430
  7
HTX1
 41
1.02
100
AcDbText
  0
LWPOLYLINE
  5
80B
330
1D
100
AcDbEntity
  8
GT_1
 62
7
100
AcDbPolyline
 90
2
 70
128
 43
0.6
 10
255.5
 20
403.5
 10
297.5
 20
379.2
  0
LWPOLYLINE
  5
80F
330
1D
100
AcDbEntity
  8
GT_1
100
AcDbPolyline
 90
2
 70
128
 10
257.2
 20
404.5
 10
269.5
 20
411.6
  0
LWPOLYLINE
  5
813
330
1D
100
AcDbEntity
  8
GT_1
100
AcDbPolyline
 90
3
 70
128
 10
270.4
 20
410.3
 10
268.5
 20
411.0
 10
270.0
 20
409.7
  0
LWPOLYLINE
  5
818
330
1D
100
AcDbEntity
  8
GT_1
100
AcDbPolyline
 90
2
 70
128
 10
268.5
 20
411.0
 10
286.8
 20
400.4
  0
LWPOLYLINE
  5
81C
330
1D
100
AcDbEntity
  8
GT_1
100
AcDbPolyline
 90
2
 70
128
 10
301.0
 20
381.2
 10
311.5
 20
387.3
  0
LWPOLYLINE
  5
820
330
1D
100
AcDbEntity
  8
GT_1
100
AcDbPolyline
 90
3
 70
128
 10
308.6
 20
387.4
 10
310.5
 20
386.7
 10
309.0
 20
388.0
  0
LWPOLYLINE
  5
825
330
1D
100
AcDbEntity
  8
GT_1
100
AcDbPolyline
 90
2
 70
128
 10
310.5
 20
386.7
 10
293.1
 20
396.8
  0
TEXT
  5
829
330
1D
100
AcDbEntity
  8
GT_1
 62
2
100
AcDbText
 10
286.218
 20
399.354
 30
0.0
 40
3.0
  1
250
 50
330.0
  7
HTX1
 41
1.02
100
AcDbText
  0
LWPOLYLINE
  5
83F
330
1D
100
AcDbEntity
  8
GT_1
100
AcDbPolyline
 90
2
 70
128
 10
296.2
 20
379.2
 10
298.8
 20
379.2
  0
TEXT
  5
84F
330
1D
100
AcDbEntity
  8
GT_1
 62
2
100
AcDbText
 10
287.9723061910331
 20
372.4788906876218
 30
0.0
 40
3.0
  1
10
  7
HTX1
 41
1.02
100
AcDbText
  0
LWPOLYLINE
  5
850
330
1D
100
AcDbEntity
  8
GT_1
100
AcDbPolyline
 90
6
 70
128
 10
297.5
 20
379.2
 10
297.5
 20
377.6
 10
292.7
 20
377.5
 10
292.7
 20
380.7
 10
297.5
 20
380.8
 10
297.5
 20
379.2
  0
LWPOLYLINE
  5
858
330
1D
100
AcDbEntity
  8
GT_1
100
AcDbPolyline
 90
3
 70
128
 10
293.4
 20
381.0
 10
292.7
 20
379.1
 10
294.0
 20
380.6
  0
LWPOLYLINE
  5
85D
330
1D
100
AcDbEntity
  8
GT_1
100
AcDbPolyline
 90
2
 70
128
 10
292.7
 20
379.1
 10
307.2
 20
404.2
  0
TEXT
  5
861
330
1D
100
AcDbEntity
  8
GT_1
 62
2
100
AcDbText
 10
307.7
 20
404.7
 30
0.0
 40
3.0
  1
6
  7
HTX1
 41
1.02
100
AcDbText
  0
LWPOLYLINE
  5
862
330
1D
100
AcDbEntity
  8
GT_1
100
AcDbPolyline
 90
5
 70
128
 10
307.2
 20
408.2
 10
310.2
 20
408.2
 10
310.2
 20
404.2
 10
307.2
 20
404.2
 10
307.2
 20
408.2
  0
TEXT
  5
869
330
1D
100
AcDbEntity
  8
GT_1
 62
2
100
AcDbText
 10
307.7
 20
400.7
 30
0.0
 40
3.0
  1
200x50DN
  7
HTX1
 41
1.02
100
AcDbText
  0
LWPOLYLINE
  5
86A
330
1D
100
AcDbEntity
  8
GT_1
100
AcDbPolyline
 90
2
 70
128
 10
297.5
 20
383.2
 10
297.5
 20
395.4
  0
LWPOLYLINE
  5
86E
330
1D
100
AcDbEntity
  8
GT_1
100
AcDbPolyline
 90
3
 70
128
 10
295.5
 20
393.9
 10
297.5
 20
394.2
 10
295.5
 20
394.5
  0
LWPOLYLINE
  5
873
330
1D
100
AcDbEntity
  8
GT_1
100
AcDbPolyline
 90
2
 70
128
 10
297.5
 20
394.2
 10
295.1
 20
394.2
  0
LWPOLYLINE
  5
877
330
1D
100
AcDbEntity
  8
GT_1
100
AcDbPolyline
 90
2
 70
128
 10
292.7
 20
383.1
 10
292.7
 20
395.3
  0
LWPOLYLINE
  5
87B
330
1D
100
AcDbEntity
  8
GT_1
100
AcDbPolyline
 90
3
 70
128
 10
294.7
 20
394.5
 10
292.7
 20
394.1
 10
294.7
 20
393.8
  0
LWPOLYLINE
  5
880
330
1D
100
AcDbEntity
  8
GT_1
100
AcDbPolyline
 90
2
 70
128
 10
292.7
 20
394.1
 10
295.1
 20
394.2
  0
LWPOLYLINE
  5
884
330
1D
100
AcDbEntity
  8
GT_1
100
AcDbPolyline
 90
3
 70
128
 10
295.1
 20
396.2
 10
295.1
 20
394.2
 10
295.8
 20
396.1
  0
LWPOLYLINE
  5
889
330
1D
100
AcDbEntity
  8
GT_1
100
AcDbPolyline
 90
2
 70
128
 10
295.1
 20
394.2
 10
296.7
 20
403.1
  0
TEXT
  5
88D
330
1D
100
AcDbEntity
  8
GT_1
 62
2
100
AcDbText
 10
297.2
 20
403.6
 30
0.0
 40
3.0
  1
232
  7
HTX1
 41
1.02
100
AcDbText
  0
LWPOLYLINE
  5
897
330
1D
100
AcDbEntity
  8
GT_1
  6
GT100
100
AcDbPolyline
 90
4
 70
128
 10
290.7
 20
377.5
 10
292.7
 20
377.5
 10
292.7
 20
380.7
 10
290.7
 20
380.7
  0
LWPOLYLINE
  5
89D
330
1D
100
AcDbEntity
  8
GT_1
100
AcDbPolyline
 90
3
 70
128
 10
290.7
 20
378.8
 10
292.7
 20
379.1
 10
290.7
 20
379.4
  0
LWPOLYLINE
  5
8A2
330
1D
100
AcDbEntity
  8
GT_1
100
AcDbPolyline
 90
2
 70
128
 10
292.7
 20
379.1
 10
251.7
 20
379.1
  0
TEXT
  5
8A6
330
1D
100
AcDbEntity
  8
GT_1
 62
2
100
AcDbText
 10
201.829
 20
379.6
 30
0.0
 40
3.0
  1
CONT. ON
  7
HTX1
 41
1.02
100
AcDbText
  0
TEXT
  5
8A7
330
1D
100
AcDbEntity
  8
GT_1
 62
2
100
AcDbText
 10
201.829
 20
375.6
 30
0.0
 40
3.0
  1
110022-13630-518-HB4D-50
  7
HTX1
 41
1.02
100
AcDbText
  0
TEXT
  5
8A8
330
1D
100
AcDbEntity
  8
GT_1
 62
2
100
AcDbText
 10
201.829
 20
371.6
 30
0.0
 40
3.0
  1
E 969642
  7
HTX1
 41
1.02
100
AcDbText
  0
TEXT
  5
8A9
330
1D
100
AcDbEntity
  8
GT_1
 62
2
100
AcDbText
 10
201.829
 20
367.6
 30
0.0
 40
3.0
  1
S 1294811
  7
HTX1
 41
1.02
100
AcDbText
  0
TEXT
  5
8AA
330
1D
100
AcDbEntity
  8
GT_1
 62
2
100
AcDbText
 10
201.829
 20
363.6
 30
0.0
 40
3.0
  1
FL+430
  7
HTX1
 41
1.02
100
AcDbText
  0
LWPOLYLINE
  5
8AB
330
1D
100
AcDbEntity
  8
GT_1
 62
7
100
AcDbPolyline
 90
2
 70
128
 43
0.6
 10
297.5
 20
379.2
 10
339.5
 20
354.9
  0
LWPOLYLINE
  5
8AF
330
1D
100
AcDbEntity
  8
GT_1
100
AcDbPolyline
 90
2
 70
128
 10
299.2
 20
380.2
 10
311.5
 20
387.3
  0
LWPOLYLINE
  5
8B3
330
1D
100
AcDbEntity
  8
GT_1
100
AcDbPolyline
 90
3
 70
128
 10
312.4
 20
386.0
 10
310.5
 20
386.7
 10
312.0
 20
385.4
  0
LWPOLYLINE
  5
8B8
330
1D
100
AcDbEntity
  8
GT_1
100
AcDbPolyline
 90
2
 70
128
 10
310.5
 20
386.7
 10
328.8
 20
376.1
  0
LWPOLYLINE
  5
8BC
330
1D
100
AcDbEntity
  8
GT_1
100
AcDbPolyline
 90
2
 70
128
 10
343.0
 20
356.9
 10
353.5
 20
363.0
  0
LWPOLYLINE
  5
8C0
330
1D
100
AcDbEntity
  8
GT_1
100
AcDbPolyline
 90
3
 70
128
 10
350.6
 20
363.1
 10
352.5
 20
362.4
 10
351.0
 20
363.7
  0
LWPOLYLINE
  5
8C5
330
1D
100
AcDbEntity
  8
GT_1
100
AcDbPolyline
 90
2
 70
128
 10
352.5
 20
362.4
 10
335.1
 20
372.5
  0
TEXT
  5
8C9
330
1D
100
AcDbEntity
  8
GT_1
 62
2
100
AcDbText
 10
328.218
 20
375.054
 30
0.0
 40
3.0
  1
250
 50
330.0
  7
HTX1
 41
1.02
100
AcDbText
  0
TEXT
  5
8EB
330
1D
100
AcDbEntity
  8
GT_1
 62
2
100
AcDbText
 10
329.9723061910331
 20
348.1788906876218
 30
0.0
 40
3.0
  1
11
  7
HTX1
 41
1.02
100
AcDbText
  0
LWPOLYLINE
  5
8EC
330
1D
100
AcDbEntity
  8
GT_1
100
AcDbPolyline
 90
6
 70
128
 10
339.5
 20
354.9
 10
339.5
 20
353.3
 10
334.7
 20
353.2
 10
334.7
 20
356.4
 10
339.5
 20
356.5
 10
339.5
 20
354.9
  0
LWPOLYLINE
  5
8F4
330
1D
100
AcDbEntity
  8
GT_1
100
AcDbPolyline
 90
3
 70
128
 10
335.4
 20
356.7
 10
334.7
 20
354.8
 10
336.0
 20
356.3
  0
LWPOLYLINE
  5
8F9
330
1D
100
AcDbEntity
  8
GT_1
100
AcDbPolyline
 90
2
 70
128
 10
334.7
 20
354.8
 10
349.2
 20
379.9
  0
TEXT
  5
8FD
330
1D
100
AcDbEntity
  8
GT_1
 62
2
100
AcDbText
 10
349.7
 20
380.4
 30
0.0
 40
3.0
  1
6
  7
HTX1
 41
1.02
100
AcDbText
  0
LWPOLYLINE
  5
8FE
330
1D
100
AcDbEntity
  8
GT_1
100
AcDbPolyline
 90
5
 70
128
 10
349.2
 20
383.9
 10
352.2
 20
383.9
 10
352.2
 20
379.9
 10
349.2
 20
379.9
 10
349.2
 20
383.9
  0
TEXT
  5
905
330
1D
100
AcDbEntity
  8
GT_1
 62
2
100
AcDbText
 10
349.7
 20
376.4
 30
0.0
 40
3.0
  1
200x50DN
  7
HTX1
 41
1.02
100
AcDbText
  0
LWPOLYLINE
  5
906
330
1D
100
AcDbEntity
  8
GT_1
100
AcDbPolyline
 90
2
 70
128
 10
339.5
 20
358.9
 10
339.5
 20
371.1
  0
LWPOLYLINE
  5
90A
330
1D
100
AcDbEntity
  8
GT_1
100
AcDbPolyline
 90
3
 70
128
 10
337.5
 20
369.6
 10
339.5
 20
369.9
 10
337.5
 20
370.2
  0
LWPOLYLINE
  5
90F
330
1D
100
AcDbEntity
  8
GT_1
100
AcDbPolyline
 90
2
 70
128
 10
339.5
 20
369.9
 10
337.1
 20
369.9
  0
LWPOLYLINE
  5
913
330
1D
100
AcDbEntity
  8
GT_1
100
AcDbPolyline
 90
2
 70
128
 10
334.7
 20
358.8
 10
334.7
 20
371.0
  0
LWPOLYLINE
  5
917
330
1D
100
AcDbEntity
  8
GT_1
100
AcDbPolyline
 90
3
 70
128
 10
336.7
 20
370.2
 10
334.7
 20
369.8
 10
336.7
 20
369.5
  0
LWPOLYLINE
  5
91C
330
1D
100
AcDbEntity
  8
GT_1
100
AcDbPolyline
 90
2
 70
128
 10
334.7
 20
369.8
 10
337.1
 20
369.9
  0
LWPOLYLINE
  5
920
330
1D
100
AcDbEntity
  8
GT_1
100
AcDbPolyline
 90
3
 70
128
 10
337.1
 20
371.9
 10
337.1
 20
369.9
 10
337.8
 20
371.8
  0
LWPOLYLINE
  5
925
330
1D
100
AcDbEntity
  8
GT_1
100
AcDbPolyline
 90
2
 70
128
 10
337.1
 20
369.9
 10
338.7
 20
378.8
  0
TEXT
  5
929
330
1D
100
AcDbEntity
  8
GT_1
 62
2
100
AcDbText
 10
339.2
 20
379.3
 30
0.0
 40
3.0
  1
232
  7
HTX1
 41
1.02
100
AcDbText
  0
LWPOLYLINE
  5
933
330
1D
100
AcDbEntity
  8
GT_1
  6
GT100
100
AcDbPolyline
 90
4
 70
128
 10
332.7
 20
353.2
 10
334.7
 20
353.2
 10
334.7
 20
356.4
 10
332.7
 20
356.4
  0
LWPOLYLINE
  5
939
330
1D
100
AcDbEntity
  8
GT_1
100
AcDbPolyline
 90
3
 70
128
 10
332.7
 20
354.5
 10
334.7
 20
354.8
 10
332.7
 20
355.1
  0
LWPOLYLINE
  5
93E
330
1D
100
AcDbEntity
  8
GT_1
100
AcDbPolyline
 90
2
 70
128
 10
334.7
 20
354.8
 10
325.7
 20
354.8
  0
TEXT
  5
942
330
1D
100
AcDbEntity
  8
GT_1
 62
2
100
AcDbText
 10
275.829
 20
355.3
 30
0.0
 40
3.0
  1
CONT. ON
  7
HTX1
 41
1.02
100
AcDbText
  0
TEXT
  5
943
330
1D
100
AcDbEntity
  8
GT_1
 62
2
100
AcDbText
 10
275.829
 20
351.3
 30
0.0
 40
3.0
  1
110022-13630-520-HB4D-50
  7
HTX1
 41
1.02
100
AcDbText
  0
TEXT
  5
944
330
1D
100
AcDbEntity
  8
GT_1
 62
2
100
AcDbText
 10
275.829
 20
347.3
 30
0.0
 40
3.0
  1
E 969642
  7
HTX1
 41
1.02
100
AcDbText
  0
TEXT
  5
945
330
1D
100
AcDbEntity
  8
GT_1
 62
2
100
AcDbText
 10
275.829
 20
343.3
 30
0.0
 40
3.0
  1
S 1295061
  7
HTX1
 41
1.02
100
AcDbText
  0
TEXT
  5
946
330
1D
100
AcDbEntity
  8
GT_1
 62
2
100
AcDbText
 10
275.829
 20
339.3
 30
0.0
 40
3.0
  1
FL+430
  7
HTX1
 41
1.02
100
AcDbText
  0
LWPOLYLINE
  5
947
330
1D
100
AcDbEntity
  8
GT_1
 62
7
100
AcDbPolyline
 90
2
 70
128
 43
0.6
 10
339.5
 20
354.9
 10
366.9
 20
339.1
  0
LWPOLYLINE
  5
94B
330
1D
100
AcDbEntity
  8
GT_1
100
AcDbPolyline
 90
2
 70
128
 10
363.7
 20
339.0
 10
366.7
 20
337.2
  0
LWPOLYLINE
  5
94F
330
1D
100
AcDbEntity
  8
GT_1
100
AcDbPolyline
 90
2
 70
128
 10
370.2
 20
339.2
 10
367.2
 20
341.0
  0
LWPOLYLINE
  5
953
330
1D
100
AcDbEntity
  8
GT_1
 62
7
100
AcDbPolyline
 90
2
 70
128
 43
0.6
 10
366.9
 20
339.1
 10
388.9
 20
326.4
  0
TEXT
  5
957
330
1D
100
AcDbEntity
  8
GT_1
 62
2
100
AcDbText
 10
374.171
 20
336.527
 30
0.0
 40
3.0
  1
<3>
 50
330.0
  7
HTX1
 41
1.02
100
AcDbText
  0
TEXT
  5
958
330
1D
100
AcDbEntity
  8
GT_1
 62
2
100
AcDbText
 10
381.238
 20
332.447
 30
0.0
 40
3.0
  1
1
 50
330.0
  7
HTX1
 41
1.02
100
AcDbText
  0
LWPOLYLINE
  5
959
330
1D
100
AcDbEntity
  8
GT_1
100
AcDbPolyline
 90
5
 70
128
 10
382.6
 20
335.7
 10
385.2
 20
334.2
 10
383.2
 20
330.8
 10
380.6
 20
332.3
 10
382.6
 20
335.7
  0
LWPOLYLINE
  5
960
330
1D
100
AcDbEntity
  8
GT_1
100
AcDbPolyline
 90
2
 70
128
 10
341.2
 20
355.9
 10
353.5
 20
363.0
  0
LWPOLYLINE
  5
964
330
1D
100
AcDbEntity
  8
GT_1
100
AcDbPolyline
 90
3
 70
128
 10
354.4
 20
361.7
 10
352.5
 20
362.4
 10
354.0
 20
361.1
  0
LWPOLYLINE
  5
969
330
1D
100
AcDbEntity
  8
GT_1
100
AcDbPolyline
 90
2
 70
128
 10
352.5
 20
362.4
 10
373.6
 20
350.2
  0
LWPOLYLINE
  5
96D
330
1D
100
AcDbEntity
  8
GT_1
100
AcDbPolyline
 90
2
 70
128
 10
392.4
 20
328.4
 10
402.9
 20
334.5
  0
LWPOLYLINE
  5
971
330
1D
100
AcDbEntity
  8
GT_1
100
AcDbPolyline
 90
3
 70
128
 10
400.0
 20
334.6
 10
401.9
 20
333.9
 10
400.4
 20
335.2
  0
LWPOLYLINE
  5
976
330
1D
100
AcDbEntity
  8
GT_1
100
AcDbPolyline
 90
2
 70
128
 10
401.9
 20
333.9
 10
381.6
 20
345.6
  0
TEXT
  5
97A
330
1D
100
AcDbEntity
  8
GT_1
 62
2
100
AcDbText
 10
373.027
 20
349.168
 30
0.0
 40
3.0
  1
2400
 50
330.0
  7
HTX1
 41
1.02
100
AcDbText
  0
LWPOLYLINE
  5
97B
330
1D
100
AcDbEntity
  8
GT_1
100
AcDbPolyline
 90
2
 70
128
 10
385.2
 20
326.2
 10
393.5
 20
326.2
  0
LWPOLYLINE
  5
97F
330
1D
100
AcDbEntity
  8
GT_1
100
AcDbPolyline
 90
2
 70
128
 10
389.3
 20
328.6
 10
389.3
 20
323.8
  0
TEXT
  5
9A8
330
1D
100
AcDbEntity
  8
GT_1
 62
2
100
AcDbText
 10
388.7319303073696
 20
330.3253222235558
 30
0.0
 40
3.0
  1
12
  7
HTX1
 41
1.02
100
AcDbText
  0
LWPOLYLINE
  5
9A9
330
1D
100
AcDbEntity
  8
GT_1
 62
7
100
AcDbPolyline
 90
2
 70
128
 43
0.6
 10
388.9
 20
326.4
 10
400.2
 20
319.9
  0
LWPOLYLINE
  5
9AD
330
1D
100
AcDbEntity
  8
GT_1
100
AcDbPolyline
 90
3
 70
128
 10
393.3
 20
321.7
 10
394.6
 20
323.2
 10
392.9
 20
322.2
  0
LWPOLYLINE
  5
9B2
330
1D
100
AcDbEntity
  8
GT_1
100
AcDbPolyline
 90
2
 70
128
 10
394.6
 20
323.2
 10
384.6
 20
314.8
  0
TEXT
  5
9B6
330
1D
100
AcDbEntity
  8
GT_1
 62
2
100
AcDbText
 10
340.9
 20
315.3
 30
0.0
 40
3.0
  1
110022-13120-093-SOO2
  7
HTX1
 41
1.02
100
AcDbText
  0
LWPOLYLINE
  5
9B7
330
1D
100
AcDbEntity
  8
GT_1
100
AcDbPolyline
 90
5
 70
128
 10
340.4
 20
318.8
 10
384.2
 20
318.8
 10
384.2
 20
314.8
 10
340.4
 20
314.8
 10
340.4
 20
318.8
  0
LWPOLYLINE
  5
9BE
330
1D
100
AcDbEntity
  8
GT_1
100
AcDbPolyline
 90
5
 70
128
 10
339.4
 20
319.8
 10
385.2
 20
319.8
 10
385.2
 20
313.8
 10
339.4
 20
313.8
 10
339.4
 20
319.8
  0
LWPOLYLINE
  5
9C5
330
1D
100
AcDbEntity
  8
GT_1
100
AcDbPolyline
 90
2
 70
128
 10
392.4
 20
328.4
 10
402.9
 20
334.5
  0
LWPOLYLINE
  5
9C9
330
1D
100
AcDbEntity
  8
GT_1
100
AcDbPolyline
 90
3
 70
128
 10
403.8
 20
333.2
 10
401.9
 20
333.9
 10
403.4
 20
332.6
  0
LWPOLYLINE
  5
9CE
330
1D
100
AcDbEntity
  8
GT_1
100
AcDbPolyline
 90
2
 70
128
 10
401.9
 20
333.9
 10
407.5
 20
330.7
  0
LWPOLYLINE
  5
9D2
330
1D
100
AcDbEntity
  8
GT_1
100
AcDbPolyline
 90
2
 70
128
 10
403.7
 20
321.9
 10
414.2
 20
328.0
  0
LWPOLYLINE
  5
9D6
330
1D
100
AcDbEntity
  8
GT_1
100
AcDbPolyline
 90
3
 70
128
 10
411.3
 20
328.1
 10
413.2
 20
327.4
 10
411.7
 20
328.7
  0
LWPOLYLINE
  5
9DB
330
1D
100
AcDbEntity
  8
GT_1
100
AcDbPolyline
 90
2
 70
128
 10
413.2
 20
327.4
 10
407.5
 20
330.7
  0
LWPOLYLINE
  5
9DF
330
1D
100
AcDbEntity
  8
GT_1
100
AcDbPolyline
 90
3
 70
128
 10
408.2
 20
332.6
 10
407.5
 20
330.7
 10
408.8
 20
332.2
  0
LWPOLYLINE
  5
9E4
330
1D
100
AcDbEntity
  8
GT_1
100
AcDbPolyline
 90
2
 70
128
 10
407.5
 20
330.7
 10
412.0
 20
338.5
  0
TEXT
  5
9E8
330
1D
100
AcDbEntity
  8
GT_1
 62
2
100
AcDbText
 10
412.5
 20
339.0
 30
0.0
 40
3.0
  1
200
  7
HTX1
 41
1.02
100
AcDbText
  0
TEXT
  5
A0A
330
1D
100
AcDbEntity
  8
GT_1
 62
2
100
AcDbText
 10
392.057
 20
313.8
 30
0.0
 40
3.0
  1
13
  7
HTX1
 41
1.02
100
AcDbText
  0
LWPOLYLINE
  5
A0B
330
1D
100
AcDbEntity
  8
GT_1
100
AcDbPolyline
 90
6
 70
128
 10
400.2
 20
319.9
 10
398.8
 20
319.1
 10
396.4
 20
323.2
 10
399.2
 20
324.8
 10
401.6
 20
320.7
 10
400.2
 20
319.9
  0
LWPOLYLINE
  5
A13
330
1D
100
AcDbEntity
  8
GT_1
100
AcDbPolyline
 90
3
 70
128
 10
397.8
 20
326.1
 10
397.8
 20
324.1
 10
398.5
 20
326.0
  0
LWPOLYLINE
  5
A18
330
1D
100
AcDbEntity
  8
GT_1
100
AcDbPolyline
 90
2
 70
128
 10
397.8
 20
324.1
 10
406.3
 20
372.4
  0
TEXT
  5
A1C
330
1D
100
AcDbEntity
  8
GT_1
 62
2
100
AcDbText
 10
406.8
 20
372.9
 30
0.0
 40
3.0
  1
7
  7
HTX1
 41
1.02
100
AcDbText
  0
LWPOLYLINE
  5
A1D
330
1D
100
AcDbEntity
  8
GT_1
100
AcDbPolyline
 90
5
 70
128
 10
406.3
 20
376.4
 10
409.3
 20
376.4
 10
409.3
 20
372.4
 10
406.3
 20
372.4
 10
406.3
 20
376.4
  0
TEXT
  5
A24
330
1D
100
AcDbEntity
  8
GT_1
 62
2
100
AcDbText
 10
406.8
 20
368.9
 30
0.0
 40
3.0
  1
200x100DN
  7
HTX1
 41
1.02
100
AcDbText
  0
LWPOLYLINE
  5
A25
330
1D
100
AcDbEntity
  8
GT_1
100
AcDbPolyline
 90
2
 70
128
 10
403.7
 20
321.9
 10
414.2
 20
328.0
  0
LWPOLYLINE
  5
A29
330
1D
100
AcDbEntity
  8
GT_1
100
AcDbPolyline
 90
3
 70
128
 10
411.9
 20
328.9
 10
413.2
 20
327.4
 10
412.5
 20
329.3
  0
LWPOLYLINE
  5
A2E
330
1D
100
AcDbEntity
  8
GT_1
100
AcDbPolyline
 90
2
 70
128
 10
413.2
 20
327.4
 10
412.0
 20
329.5
  0
LWPOLYLINE
  5
A32
330
1D
100
AcDbEntity
  8
GT_1
100
AcDbPolyline
 90
2
 70
128
 10
401.3
 20
326.1
 10
411.8
 20
332.2
  0
LWPOLYLINE
  5
A36
330
1D
100
AcDbEntity
  8
GT_1
100
AcDbPolyline
 90
3
 70
128
 10
412.1
 20
330.1
 10
410.8
 20
331.6
 10
411.5
 20
329.7
  0
LWPOLYLINE
  5
A3B
330
1D
100
AcDbEntity
  8
GT_1
100
AcDbPolyline
 90
2
 70
128
 10
410.8
 20
331.6
 10
412.0
 20
329.5
  0
LWPOLYLINE
  5
A3F
330
1D
100
AcDbEntity
  8
GT_1
100
AcDbPolyline
 90
3
 70
128
 10
413.7
 20
330.5
 10
412.0
 20
329.5
 10
414.0
 20
329.8
  0
LWPOLYLINE
  5
A44
330
1D
100
AcDbEntity
  8
GT_1
100
AcDbPolyline
 90
2
 70
128
 10
412.0
 20
329.5
 10
420.5
 20
332.6
  0
TEXT
  5
A48
330
1D
100
AcDbEntity
  8
GT_1
 62
2
100
AcDbText
 10
421.0
 20
333.1
 30
0.0
 40
3.0
  1
289
  7
HTX1
 41
1.02
100
AcDbText
  0
LWPOLYLINE
  5
A52
330
1D
100
AcDbEntity
  8
GT_1
100
AcDbPolyline
 90
3
 70
128
 10
398.5
 20
326.0
 10
397.8
 20
324.1
 10
399.1
 20
325.6
  0
LWPOLYLINE
  5
A57
330
1D
100
AcDbEntity
  8
GT_1
100
AcDbPolyline
 90
2
 70
128
 10
397.8
 20
324.1
 10
420.3
 20
363.1
  0
TEXT
  5
A5B
330
1D
100
AcDbEntity
  8
GT_1
 62
2
100
AcDbText
 10
420.8
 20
363.6
 30
0.0
 40
3.0
  1
CONT. ON
  7
HTX1
 41
1.02
100
AcDbText
  0
TEXT
  5
A5C
330
1D
100
AcDbEntity
  8
GT_1
 62
2
100
AcDbText
 10
420.8
 20
359.6
 30
0.0
 40
3.0
  1
110022-13630-603-HB4D-100
  7
HTX1
 41
1.02
100
AcDbText
  0
TEXT
  5
A5D
330
1D
100
AcDbEntity
  8
GT_1
 62
2
100
AcDbText
 10
420.8
 20
355.6
 30
0.0
 40
3.0
  1
E 969806
  7
HTX1
 41
1.02
100
AcDbText
  0
TEXT
  5
A5E
330
1D
100
AcDbEntity
  8
GT_1
 62
2
100
AcDbText
 10
420.8
 20
351.6
 30
0.0
 40
3.0
  1
S 1297621
  7
HTX1
 41
1.02
100
AcDbText
  0
TEXT
  5
A5F
330
1D
100
AcDbEntity
  8
GT_1
 62
2
100
AcDbText
 10
420.8
 20
347.6
 30
0.0
 40
3.0
  1
FL+634
  7
HTX1
 41
1.02
100
AcDbText
  0
LWPOLYLINE
  5
A60
330
1D
100
AcDbEntity
  8
GT_1
 62
7
100
AcDbPolyline
 90
2
 70
128
 43
0.6
 10
400.2
 20
319.9
 10
445.0
 20
294.1
  0
LWPOLYLINE
  5
A64
330
1D
100
AcDbEntity
  8
GT_1
100
AcDbPolyline
 90
2
 70
128
 10
401.9
 20
320.9
 10
414.2
 20
328.0
  0
LWPOLYLINE
  5
A68
330
1D
100
AcDbEntity
  8
GT_1
100
AcDbPolyline
 90
3
 70
128
 10
415.1
 20
326.7
 10
413.2
 20
327.4
 10
414.7
 20
326.1
  0
LWPOLYLINE
  5
A6D
330
1D
100
AcDbEntity
  8
GT_1
100
AcDbPolyline
 90
2
 70
128
 10
413.2
 20
327.4
 10
432.0
 20
316.6
  0
LWPOLYLINE
  5
A71
330
1D
100
AcDbEntity
  8
GT_1
100
AcDbPolyline
 90
2
 70
128
 10
448.5
 20
296.1
 10
459.0
 20
302.2
  0
LWPOLYLINE
  5
A75
330
1D
100
AcDbEntity
  8
GT_1
100
AcDbPolyline
 90
3
 70
128
 10
456.1
 20
302.3
 10
458.0
 20
301.6
 10
456.5
 20
302.9
  0
LWPOLYLINE
  5
A7A
330
1D
100
AcDbEntity
  8
GT_1
100
AcDbPolyline
 90
2
 70
128
 10
458.0
 20
301.6
 10
440.0
 20
311.9
  0
TEXT
  5
A7E
330
1D
100
AcDbEntity
  8
GT_1
 62
2
100
AcDbText
 10
431.427
 20
315.518
 30
0.0
 40
3.0
  1
2700
 50
330.0
  7
HTX1
 41
1.02
100
AcDbText
  0
TEXT
  5
AA0
330
1D
100
AcDbEntity
  8
GT_1
 62
2
100
AcDbText
 10
441.4723061910331
 20
287.3788906876217
 30
0.0
 40
3.0
  1
14
  7
HTX1
 41
1.02
100
AcDbText
  0
LWPOLYLINE
  5
AA1
330
1D
100
AcDbEntity
  8
GT_1
100
AcDbPolyline
 90
6
 70
128
 10
445.0
 20
294.1
 10
445.0
 20
292.5
 10
440.2
 20
292.4
 10
440.2
 20
295.6
 10
445.0
 20
295.7
 10
445.0
 20
294.1
  0
LWPOLYLINE
  5
AA9
330
1D
100
AcDbEntity
  8
GT_1
100
AcDbPolyline
 90
3
 70
128
 10
438.2
 20
293.7
 10
440.2
 20
294.0
 10
438.2
 20
294.3
  0
LWPOLYLINE
  5
AAE
330
1D
100
AcDbEntity
  8
GT_1
100
AcDbPolyline
 90
2
 70
128
 10
440.2
 20
294.0
 10
431.2
 20
294.0
  0
TEXT
  5
AB2
330
1D
100
AcDbEntity
  8
GT_1
 62
2
100
AcDbText
 10
412.186
 20
294.5
 30
0.0
 40
3.0
  1
7
  7
HTX1
 41
1.02
100
AcDbText
  0
LWPOLYLINE
  5
AB3
330
1D
100
AcDbEntity
  8
GT_1
100
AcDbPolyline
 90
5
 70
128
 10
411.7
 20
298.0
 10
414.7
 20
298.0
 10
414.7
 20
294.0
 10
411.7
 20
294.0
 10
411.7
 20
298.0
  0
TEXT
  5
ABA
330
1D
100
AcDbEntity
  8
GT_1
 62
2
100
AcDbText
 10
412.186
 20
290.5
 30
0.0
 40
3.0
  1
200x100DN
  7
HTX1
 41
1.02
100
AcDbText
  0
LWPOLYLINE
  5
ABB
330
1D
100
AcDbEntity
  8
GT_1
100
AcDbPolyline
 90
2
 70
128
 10
445.0
 20
298.1
 10
445.0
 20
310.3
  0
LWPOLYLINE
  5
ABF
330
1D
100
AcDbEntity
  8
GT_1
100
AcDbPolyline
 90
3
 70
128
 10
443.0
 20
308.8
 10
445.0
 20
309.1
 10
443.0
 20
309.4
  0
LWPOLYLINE
  5
AC4
330
1D
100
AcDbEntity
  8
GT_1
100
AcDbPolyline
 90
2
 70
128
 10
445.0
 20
309.1
 10
442.6
 20
309.1
  0
LWPOLYLINE
  5
AC8
330
1D
100
AcDbEntity
  8
GT_1
100
AcDbPolyline
 90
2
 70
128
 10
440.2
 20
298.0
 10
440.2
 20
310.2
  0
LWPOLYLINE
  5
ACC
330
1D
100
AcDbEntity
  8
GT_1
100
AcDbPolyline
 90
3
 70
128
 10
442.2
 20
309.4
 10
440.2
 20
309.0
 10
442.2
 20
308.7
  0
LWPOLYLINE
  5
AD1
330
1D
100
AcDbEntity
  8
GT_1
100
AcDbPolyline
 90
2
 70
128
 10
440.2
 20
309.0
 10
442.6
 20
309.1
  0
LWPOLYLINE
  5
AD5
330
1D
100
AcDbEntity
  8
GT_1
100
AcDbPolyline
 90
3
 70
128
 10
441.9
 20
311.0
 10
442.6
 20
309.1
 10
442.6
 20
311.1
  0
LWPOLYLINE
  5
ADA
330
1D
100
AcDbEntity
  8
GT_1
100
AcDbPolyline
 90
2
 70
128
 10
442.6
 20
309.1
 10
439.6
 20
325.8
  0
TEXT
  5
ADE
330
1D
100
AcDbEntity
  8
GT_1
 62
2
100
AcDbText
 10
432.929
 20
326.3
 30
0.0
 40
3.0
  1
289
  7
HTX1
 41
1.02
100
AcDbText
  0
LWPOLYLINE
  5
AE8
330
1D
100
AcDbEntity
  8
GT_1
100
AcDbPolyline
 90
3
 70
128
 10
438.9
 20
292.5
 10
440.2
 20
294.0
 10
438.5
 20
293.0
  0
LWPOLYLINE
  5
AED
330
1D
100
AcDbEntity
  8
GT_1
100
AcDbPolyline
 90
2
 70
128
 10
440.2
 20
294.0
 10
427.2
 20
283.1
  0
TEXT
  5
AF1
330
1D
100
AcDbEntity
  8
GT_1
 62
2
100
AcDbText
 10
375.271
 20
283.6
 30
0.0
 40
3.0
  1
CONT. ON
  7
HTX1
 41
1.02
100
AcDbText
  0
TEXT
  5
AF2
330
1D
100
AcDbEntity
  8
GT_1
 62
2
100
AcDbText
 10
375.271
 20
279.6
 30
0.0
 40
3.0
  1
110022-13630-551-HB4D-100
  7
HTX1
 41
1.02
100
AcDbText
  0
TEXT
  5
AF3
330
1D
100
AcDbEntity
  8
GT_1
 62
2
100
AcDbText
 10
375.271
 20
275.6
 30
0.0
 40
3.0
  1
E 969602
  7
HTX1
 41
1.02
100
AcDbText
  0
TEXT
  5
AF4
330
1D
100
AcDbEntity
  8
GT_1
 62
2
100
AcDbText
 10
375.271
 20
271.6
 30
0.0
 40
3.0
  1
S 1300321
  7
HTX1
 41
1.02
100
AcDbText
  0
TEXT
  5
AF5
330
1D
100
AcDbEntity
  8
GT_1
 62
2
100
AcDbText
 10
375.271
 20
267.6
 30
0.0
 40
3.0
  1
FL+430
  7
HTX1
 41
1.02
100
AcDbText
  0
LWPOLYLINE
  5
AF6
330
1D
100
AcDbEntity
  8
GT_1
 62
7
100
AcDbPolyline
 90
2
 70
128
 43
0.6
 10
445.0
 20
294.1
 10
481.7
 20
272.9
  0
LWPOLYLINE
  5
AFA
330
1D
100
AcDbEntity
  8
GT_1
100
AcDbPolyline
 90
2
 70
128
 10
478.5
 20
272.8
 10
481.5
 20
271.0
  0
LWPOLYLINE
  5
AFE
330
1D
100
AcDbEntity
  8
GT_1
100
AcDbPolyline
 90
2
 70
128
 10
485.0
 20
273.0
 10
482.0
 20
274.8
  0
LWPOLYLINE
  5
B02
330
1D
100
AcDbEntity
  8
GT_1
 62
7
100
AcDbPolyline
 90
2
 70
128
 43
0.6
 10
481.7
 20
272.9
 10
493.4
 20
266.1
  0
LWPOLYLINE
  5
B06
330
1D
100
AcDbEntity
  8
GT_1
100
AcDbPolyline
 90
3
 70
128
 10
483.6
 20
269.5
 10
484.3
 20
271.4
 10
483.0
 20
269.9
  0
LWPOLYLINE
  5
B0B
330
1D
100
AcDbEntity
  8
GT_1
100
AcDbPolyline
 90
2
 70
128
 10
484.3
 20
271.4
 10
479.8
 20
263.6
  0
TEXT
  5
B0F
330
1D
100
AcDbEntity
  8
GT_1
 62
2
100
AcDbText
 10
469.014
 20
264.1
 30
0.0
 40
3.0
  1
<4>
  7
HTX1
 41
1.02
100
AcDbText
  0
TEXT
  5
B10
330
1D
100
AcDbEntity
  8
GT_1
 62
2
100
AcDbText
 10
477.174
 20
264.1
 30
0.0
 40
3.0
  1
1
  7
HTX1
 41
1.02
100
AcDbText
  0
LWPOLYLINE
  5
B11
330
1D
100
AcDbEntity
  8
GT_1
100
AcDbPolyline
 90
5
 70
128
 10
476.7
 20
267.6
 10
479.7
 20
267.6
 10
479.7
 20
263.6
 10
476.7
 20
263.6
 10
476.7
 20
267.6
  0
TEXT
  5
B39
330
1D
100
AcDbEntity
  8
GT_1
 62
2
100
AcDbText
 10
499.071
 20
268.7
 30
0.0
 40
3.0
  1
15
  7
HTX1
 41
1.02
100
AcDbText
  0
LWPOLYLINE
  5
B3A
330
1D
100
AcDbEntity
  8
GT_1
 62
7
100
AcDbPolyline
 90
2
 70
128
 43
0.6
 10
493.4
 20
266.1
 10
502.1000000000017
 20
261.1081967213096
  0
LWPOLYLINE
  5
B3E
330
1D
100
AcDbEntity
  8
GT_1
100
AcDbPolyline
 90
3
 70
128
 10
502.8
 20
263.0
 10
502.1
 20
261.1
 10
503.4
 20
262.6
  0
LWPOLYLINE
  5
B43
330
1D
100
AcDbEntity
  8
GT_1
100
AcDbPolyline
 90
2
 70
128
 10
502.1
 20
261.1
 10
514.6
 20
282.8
  0
TEXT
  5
B47
330
1D
100
AcDbEntity
  8
GT_1
 62
2
100
AcDbText
 10
515.1
 20
283.3
 30
0.0
 40
3.0
  1
3
  7
HTX1
 41
1.02
100
AcDbText
  0
LWPOLYLINE
  5
B48
330
1D
100
AcDbEntity
  8
GT_1
100
AcDbPolyline
 90
5
 70
128
 10
514.6
 20
286.8
 10
517.6
 20
286.8
 10
517.6
 20
282.8
 10
514.6
 20
282.8
 10
514.6
 20
286.8
  0
TEXT
  5
B4F
330
1D
100
AcDbEntity
  8
GT_1
 62
2
100
AcDbText
 10
515.1
 20
279.3
 30
0.0
 40
3.0
  1
45
  7
HTX1
 41
1.02
100
AcDbText
  0
TEXT
  5
B50
330
1D
100
AcDbEntity
  8
GT_1
 62
2
100
AcDbText
 10
519.18
 20
280.8
 30
0.0
 40
1.5
  1
o
  7
HTX1
 41
1.02
100
AcDbText
  0
LWPOLYLINE
  5
B51
330
1D
100
AcDbEntity
  8
GT_1
100
AcDbPolyline
 90
2
 70
128
 10
446.7
 20
295.1
 10
459.0
 20
302.2
  0
LWPOLYLINE
  5
B55
330
1D
100
AcDbEntity
  8
GT_1
100
AcDbPolyline
 90
3
 70
128
 10
459.9
 20
300.9
 10
458.0
 20
301.6
 10
459.5
 20
300.3
  0
LWPOLYLINE
  5
B5A
330
1D
100
AcDbEntity
  8
GT_1
100
AcDbPolyline
 90
2
 70
128
 10
458.0
 20
301.6
 10
483.0
 20
287.2
  0
LWPOLYLINE
  5
B5E
330
1D
100
AcDbEntity
  8
GT_1
100
AcDbPolyline
 90
2
 70
128
 10
505.6
 20
263.1
 10
516.1
 20
269.2
  0
LWPOLYLINE
  5
B62
330
1D
100
AcDbEntity
  8
GT_1
100
AcDbPolyline
 90
3
 70
128
 10
513.2
 20
269.3
 10
515.1
 20
268.6
 10
513.6
 20
269.9
  0
LWPOLYLINE
  5
B67
330
1D
100
AcDbEntity
  8
GT_1
100
AcDbPolyline
 90
2
 70
128
 10
515.1
 20
268.6
 10
491.0
 20
282.5
  0
TEXT
  5
B6B
330
1D
100
AcDbEntity
  8
GT_1
 62
2
100
AcDbText
 10
482.377
 20
286.118
 30
0.0
 40
3.0
  1
2457
 50
330.0
  7
HTX1
 41
1.02
100
AcDbText
  0
LWPOLYLINE
  5
B6C
330
1D
100
AcDbEntity
  8
GT_1
100
AcDbPolyline
 90
2
 70
128
 10
95.0
 20
500.2
 10
109.9
 20
508.8
  0
LWPOLYLINE
  5
B70
330
1D
100
AcDbEntity
  8
GT_1
100
AcDbPolyline
 90
3
 70
128
 10
110.7
 20
507.5
 10
108.8
 20
508.2
 10
110.3
 20
506.9
  0
LWPOLYLINE
  5
B75
330
1D
100
AcDbEntity
  8
GT_1
100
AcDbPolyline
 90
2
 70
128
 10
108.8
 20
508.2
 10
310.6
 20
391.7
  0
LWPOLYLINE
  5
B79
330
1D
100
AcDbEntity
  8
GT_1
100
AcDbPolyline
 90
2
 70
128
 10
505.6
 20
263.1
 10
520.5
 20
271.7
  0
LWPOLYLINE
  5
B7D
330
1D
100
AcDbEntity
  8
GT_1
100
AcDbPolyline
 90
3
 70
128
 10
517.5
 20
271.8
 10
519.4
 20
271.1
 10
517.9
 20
272.4
  0
LWPOLYLINE
  5
B82
330
1D
100
AcDbEntity
  8
GT_1
100
AcDbPolyline
 90
2
 70
128
 10
519.4
 20
271.1
 10
318.6
 20
387.1
  0
TEXT
  5
B86
330
1D
100
AcDbEntity
  8
GT_1
 62
2
100
AcDbText
 10
309.957
 20
390.668
 30
0.0
 40
3.0
  1
9407
 50
330.0
  7
HTX1
 41
1.02
100
AcDbText
  0
LWPOLYLINE
  5
B8B
330
1D
100
AcDbEntity
  8
GT_1
 62
7
100
AcDbPolyline
 90
2
 70
128
 43
0.6
 10
502.1000000000017
 20
261.1081967213096
 10
502.1
 20
251.1
  0
TEXT
  5
BC0
330
1D
100
AcDbEntity
  8
GT_1
 62
2
100
AcDbText
 10
508.971
 20
249.3
 30
0.0
 40
3.0
  1
16
  7
HTX1
 41
1.02
100
AcDbText
  0
LWPOLYLINE
  5
BC1
330
1D
100
AcDbEntity
  8
GT_1
 62
7
100
AcDbPolyline
 90
2
 70
128
 43
0.6
 10
502.1
 20
251.1
 10
502.1
 20
196.2
  0
TEXT
  5
BC5
330
1D
100
AcDbEntity
  8
GT_1
 62
2
100
AcDbText
 10
500.65
 20
218.457
 30
0.0
 40
3.0
  1
<5>
 50
90.0
  7
HTX1
 41
1.02
100
AcDbText
  0
TEXT
  5
BC6
330
1D
100
AcDbEntity
  8
GT_1
 62
2
100
AcDbText
 10
500.65
 20
226.617
 30
0.0
 40
3.0
  1
1
 50
90.0
  7
HTX1
 41
1.02
100
AcDbText
  0
LWPOLYLINE
  5
BC7
330
1D
100
AcDbEntity
  8
GT_1
100
AcDbPolyline
 90
5
 70
128
 10
497.2
 20
226.1
 10
497.2
 20
229.2
 10
501.1
 20
229.2
 10
501.1
 20
226.1
 10
497.2
 20
226.1
  0
LWPOLYLINE
  5
BCE
330
1D
100
AcDbEntity
  8
GT_1
100
AcDbPolyline
 90
2
 70
128
 10
498.6
 20
263.1
 10
488.1
 20
269.2
  0
LWPOLYLINE
  5
BD2
330
1D
100
AcDbEntity
  8
GT_1
100
AcDbPolyline
 90
3
 70
128
 10
489.4
 20
266.6
 10
489.1
 20
268.6
 10
488.8
 20
266.6
  0
LWPOLYLINE
  5
BD7
330
1D
100
AcDbEntity
  8
GT_1
100
AcDbPolyline
 90
2
 70
128
 10
489.1
 20
268.6
 10
489.1
 20
241.3
  0
LWPOLYLINE
  5
BDB
330
1D
100
AcDbEntity
  8
GT_1
100
AcDbPolyline
 90
2
 70
128
 10
498.6
 20
198.2
 10
488.1
 20
204.3
  0
LWPOLYLINE
  5
BDF
330
1D
100
AcDbEntity
  8
GT_1
100
AcDbPolyline
 90
3
 70
128
 10
488.8
 20
205.7
 10
489.1
 20
203.7
 10
489.4
 20
205.7
  0
LWPOLYLINE
  5
BE4
330
1D
100
AcDbEntity
  8
GT_1
100
AcDbPolyline
 90
2
 70
128
 10
489.1
 20
203.7
 10
489.1
 20
232.0
  0
TEXT
  5
BE8
330
1D
100
AcDbEntity
  8
GT_1
 62
2
100
AcDbText
 10
490.31
 20
232.036
 30
0.0
 40
3.0
  1
1090
 50
90.0
  7
HTX1
 41
1.02
100
AcDbText
  0
LWPOLYLINE
  5
BE9
330
1D
100
AcDbEntity
  8
GT_1
100
AcDbPolyline
 90
2
 70
128
 10
504.2
 20
196.9
 10
500.0
 20
194.5
  0
LWPOLYLINE
  5
BED
330
1D
100
AcDbEntity
  8
GT_1
100
AcDbPolyline
 90
2
 70
128
 10
500.0
 20
199.3
 10
504.2
 20
192.1
  0
TEXT
  5
C1E
330
1D
100
AcDbEntity
  8
GT_1
 62
2
100
AcDbText
 10
508.671
 20
194.0
 30
0.0
 40
3.0
  1
17
  7
HTX1
 41
1.02
100
AcDbText
  0
LWPOLYLINE
  5
C1F
330
1D
100
AcDbEntity
  8
GT_1
 62
7
100
AcDbPolyline
 90
2
 70
128
 43
0.6
 10
502.1
 20
196.2
 10
502.1000000000017
 20
186.1918032786861
  0
LWPOLYLINE
  5
C23
330
1D
100
AcDbEntity
  8
GT_1
100
AcDbPolyline
 90
3
 70
128
 10
500.8
 20
184.7
 10
502.1
 20
186.2
 10
500.4
 20
185.2
  0
LWPOLYLINE
  5
C28
330
1D
100
AcDbEntity
  8
GT_1
100
AcDbPolyline
 90
2
 70
128
 10
502.1
 20
186.2
 10
495.2
 20
180.4
  0
TEXT
  5
C2C
330
1D
100
AcDbEntity
  8
GT_1
 62
2
100
AcDbText
 10
488.529
 20
180.9
 30
0.0
 40
3.0
  1
3
  7
HTX1
 41
1.02
100
AcDbText
  0
LWPOLYLINE
  5
C2D
330
1D
100
AcDbEntity
  8
GT_1
100
AcDbPolyline
 90
5
 70
128
 10
488.0
 20
184.4
 10
491.0
 20
184.4
 10
491.0
 20
180.4
 10
488.0
 20
180.4
 10
488.0
 20
184.4
  0
TEXT
  5
C34
330
1D
100
AcDbEntity
  8
GT_1
 62
2
100
AcDbText
 10
488.529
 20
176.9
 30
0.0
 40
3.0
  1
45
  7
HTX1
 41
1.02
100
AcDbText
  0
TEXT
  5
C35
330
1D
100
AcDbEntity
  8
GT_1
 62
2
100
AcDbText
 10
492.609
 20
178.4
 30
0.0
 40
1.5
  1
o
  7
HTX1
 41
1.02
100
AcDbText
  0
LWPOLYLINE
  5
C36
330
1D
100
AcDbEntity
  8
GT_1
100
AcDbPolyline
 90
2
 70
128
 10
498.6
 20
198.2
 10
488.1
 20
204.3
  0
LWPOLYLINE
  5
C3A
330
1D
100
AcDbEntity
  8
GT_1
100
AcDbPolyline
 90
3
 70
128
 10
489.4
 20
201.7
 10
489.1
 20
203.7
 10
488.8
 20
201.7
  0
LWPOLYLINE
  5
C3F
330
1D
100
AcDbEntity
  8
GT_1
100
AcDbPolyline
 90
2
 70
128
 10
489.1
 20
203.7
 10
489.1
 20
198.7
  0
LWPOLYLINE
  5
C43
330
1D
100
AcDbEntity
  8
GT_1
100
AcDbPolyline
 90
2
 70
128
 10
498.6
 20
188.2
 10
488.1
 20
194.3
  0
LWPOLYLINE
  5
C47
330
1D
100
AcDbEntity
  8
GT_1
100
AcDbPolyline
 90
3
 70
128
 10
488.8
 20
195.7
 10
489.1
 20
193.7
 10
489.4
 20
195.7
  0
LWPOLYLINE
  5
C4C
330
1D
100
AcDbEntity
  8
GT_1
100
AcDbPolyline
 90
2
 70
128
 10
489.1
 20
193.7
 10
489.1
 20
198.7
  0
LWPOLYLINE
  5
C50
330
1D
100
AcDbEntity
  8
GT_1
100
AcDbPolyline
 90
3
 70
128
 10
487.4
 20
199.7
 10
489.1
 20
198.7
 10
487.8
 20
200.2
  0
LWPOLYLINE
  5
C55
330
1D
100
AcDbEntity
  8
GT_1
100
AcDbPolyline
 90
2
 70
128
 10
489.1
 20
198.7
 10
482.2
 20
204.5
  0
TEXT
  5
C59
330
1D
100
AcDbEntity
  8
GT_1
 62
2
100
AcDbText
 10
475.529
 20
205.0
 30
0.0
 40
3.0
  1
127
  7
HTX1
 41
1.02
100
AcDbText
  0
LWPOLYLINE
  5
C5A
330
1D
100
AcDbEntity
  8
GT_1
100
AcDbPolyline
 90
2
 70
128
 10
498.6
 20
263.1
 10
483.7
 20
271.7
  0
LWPOLYLINE
  5
C5E
330
1D
100
AcDbEntity
  8
GT_1
100
AcDbPolyline
 90
3
 70
128
 10
485.1
 20
269.1
 10
484.8
 20
271.1
 10
484.5
 20
269.1
  0
LWPOLYLINE
  5
C63
330
1D
100
AcDbEntity
  8
GT_1
100
AcDbPolyline
 90
2
 70
128
 10
484.8
 20
271.1
 10
484.8
 20
238.8
  0
LWPOLYLINE
  5
C67
330
1D
100
AcDbEntity
  8
GT_1
100
AcDbPolyline
 90
2
 70
128
 10
498.6
 20
188.2
 10
483.7
 20
196.8
  0
LWPOLYLINE
  5
C6B
330
1D
100
AcDbEntity
  8
GT_1
100
AcDbPolyline
 90
3
 70
128
 10
484.5
 20
198.2
 10
484.8
 20
196.2
 10
485.1
 20
198.2
  0
LWPOLYLINE
  5
C70
330
1D
100
AcDbEntity
  8
GT_1
100
AcDbPolyline
 90
2
 70
128
 10
484.8
 20
196.2
 10
484.8
 20
229.5
  0
TEXT
  5
C74
330
1D
100
AcDbEntity
  8
GT_1
 62
2
100
AcDbText
 10
485.979
 20
229.536
 30
0.0
 40
3.0
  1
1217
 50
90.0
  7
HTX1
 41
1.02
100
AcDbText
  0
LWPOLYLINE
  5
C75
330
1D
100
AcDbEntity
  8
GT_1
100
AcDbPolyline
 90
2
 70
128
 10
502.1
 20
261.1
 10
437.2
 20
223.6
  0
TEXT
  5
C79
330
1D
100
AcDbEntity
  8
GT_1
 62
2
100
AcDbText
 10
466.203
 20
242.013
 30
0.0
 40
3.0
  1
861
 50
30.0
  7
HTX1
 41
1.02
100
AcDbText
  0
LWPOLYLINE
  5
C7A
330
1D
100
AcDbEntity
  8
GT_1
100
AcDbPolyline
 90
2
 70
128
 10
437.2
 20
223.6
 10
502.1
 20
186.2
  0
TEXT
  5
C7E
330
1D
100
AcDbEntity
  8
GT_1
 62
2
100
AcDbText
 10
464.885
 20
202.905
 30
0.0
 40
3.0
  1
861
 50
330.0
  7
HTX1
 41
1.02
100
AcDbText
  0
LWPOLYLINE
  5
C7F
330
1D
100
AcDbEntity
  8
GT_1
100
AcDbPolyline
 90
2
 70
128
 10
499.5
 20
259.1
 10
499.1
 20
259.4
  0
LWPOLYLINE
  5
C83
330
1D
100
AcDbEntity
  8
GT_1
100
AcDbPolyline
 90
2
 70
128
 10
500.4
 20
255.2
 10
496.1
 20
257.6
  0
LWPOLYLINE
  5
C87
330
1D
100
AcDbEntity
  8
GT_1
100
AcDbPolyline
 90
2
 70
128
 10
499.5
 20
252.2
 10
493.1
 20
255.9
  0
LWPOLYLINE
  5
C8B
330
1D
100
AcDbEntity
  8
GT_1
100
AcDbPolyline
 90
2
 70
128
 10
500.4
 20
248.2
 10
490.1
 20
254.2
  0
LWPOLYLINE
  5
C8F
330
1D
100
AcDbEntity
  8
GT_1
100
AcDbPolyline
 90
2
 70
128
 10
500.4
 20
244.8
 10
489.5
 20
251.0
  0
LWPOLYLINE
  5
C93
330
1D
100
AcDbEntity
  8
GT_1
100
AcDbPolyline
 90
2
 70
128
 10
489.1
 20
251.3
 10
487.1
 20
252.4
  0
LWPOLYLINE
  5
C97
330
1D
100
AcDbEntity
  8
GT_1
100
AcDbPolyline
 90
2
 70
128
 10
500.4
 20
241.3
 10
489.5
 20
247.6
  0
LWPOLYLINE
  5
C9B
330
1D
100
AcDbEntity
  8
GT_1
100
AcDbPolyline
 90
2
 70
128
 10
488.2
 20
248.3
 10
484.1
 20
250.7
  0
LWPOLYLINE
  5
C9F
330
1D
100
AcDbEntity
  8
GT_1
100
AcDbPolyline
 90
3
 70
128
 10
501.6
 20
257.1
 10
499.6
 20
256.8
 10
501.6
 20
256.5
  0
LWPOLYLINE
  5
CA4
330
1D
100
AcDbEntity
  8
GT_1
100
AcDbPolyline
 90
2
 70
128
 10
499.6
 20
256.8
 10
508.6
 20
256.8
  0
TEXT
  5
CA8
330
1D
100
AcDbEntity
  8
GT_1
 62
2
100
AcDbText
 10
509.1
 20
257.3
 30
0.0
 40
3.0
  1
45
  7
HTX1
 41
1.02
100
AcDbText
  0
TEXT
  5
CA9
330
1D
100
AcDbEntity
  8
GT_1
 62
2
100
AcDbText
 10
513.18
 20
258.8
 30
0.0
 40
1.5
  1
o
  7
HTX1
 41
1.02
100
AcDbText
  0
LWPOLYLINE
  5
CAA
330
1D
100
AcDbEntity
  8
GT_1
100
AcDbPolyline
 90
5
 70
128
 10
508.6
 20
260.8
 10
514.7
 20
260.8
 10
514.7
 20
256.8
 10
508.6
 20
256.8
 10
508.6
 20
260.8
  0
TEXT
  5
CB1
330
1D
100
AcDbEntity
  8
GT_1
 62
2
100
AcDbText
 10
441.671
 20
222.403
 30
0.0
 40
3.0
  1
H
  7
HTX1
 41
1.02
100
AcDbText
  0
LWPOLYLINE
  5
CB2
330
1D
100
AcDbEntity
  8
GT_1
100
AcDbPolyline
 90
5
 70
128
 10
441.2
 20
225.9
 10
444.2
 20
225.9
 10
444.2
 20
221.9
 10
441.2
 20
221.9
 10
441.2
 20
225.9
  0
LWPOLYLINE
  5
CBD
330
1D
100
AcDbEntity
  8
GT_1
 62
7
100
AcDbPolyline
 90
2
 70
128
 43
0.6
 10
502.1000000000017
 20
186.1918032786861
 10
510.8
 20
181.2
  0
LWPOLYLINE
  5
CC1
330
1D
100
AcDbEntity
  8
GT_1
100
AcDbPolyline
 90
3
 70
128
 10
507.8
 20
185.2
 10
506.5
 20
183.7
 10
508.2
 20
184.7
  0
LWPOLYLINE
  5
CC6
330
1D
100
AcDbEntity
  8
GT_1
100
AcDbPolyline
 90
2
 70
128
 10
506.5
 20
183.7
 10
516.5
 20
192.1
  0
TEXT
  5
CCA
330
1D
100
AcDbEntity
  8
GT_1
 62
2
100
AcDbText
 10
517.0
 20
192.6
 30
0.0
 40
3.0
  1
110022-13120-093-SOO3
  7
HTX1
 41
1.02
100
AcDbText
  0
LWPOLYLINE
  5
CCB
330
1D
100
AcDbEntity
  8
GT_1
100
AcDbPolyline
 90
5
 70
128
 10
516.5
 20
196.1
 10
560.3
 20
196.1
 10
560.3
 20
192.1
 10
516.5
 20
192.1
 10
516.5
 20
196.1
  0
LWPOLYLINE
  5
CD2
330
1D
100
AcDbEntity
  8
GT_1
100
AcDbPolyline
 90
5
 70
128
 10
515.5
 20
197.1
 10
561.3
 20
197.1
 10
561.3
 20
191.1
 10
515.5
 20
191.1
 10
515.5
 20
197.1
  0
TEXT
  5
D0E
330
1D
100
AcDbEntity
  8
GT_1
 62
2
100
AcDbText
 10
505.357
 20
173.9
 30
0.0
 40
3.0
  1
18
  7
HTX1
 41
1.02
100
AcDbText
  0
LWPOLYLINE
  5
D0F
330
1D
100
AcDbEntity
  8
GT_1
 62
7
100
AcDbPolyline
 90
2
 70
128
 43
0.6
 10
510.8
 20
181.2
 10
530.2
 20
170.0
  0
TEXT
  5
D13
330
1D
100
AcDbEntity
  8
GT_1
 62
2
100
AcDbText
 10
516.771
 20
179.427
 30
0.0
 40
3.0
  1
<6>
 50
330.0
  7
HTX1
 41
1.02
100
AcDbText
  0
TEXT
  5
D14
330
1D
100
AcDbEntity
  8
GT_1
 62
2
100
AcDbText
 10
523.838
 20
175.347
 30
0.0
 40
3.0
  1
1
 50
330.0
  7
HTX1
 41
1.02
100
AcDbText
  0
LWPOLYLINE
  5
D15
330
1D
100
AcDbEntity
  8
GT_1
100
AcDbPolyline
 90
5
 70
128
 10
525.2
 20
178.6
 10
527.8
 20
177.1
 10
525.8
 20
173.7
 10
523.2
 20
175.2
 10
525.2
 20
178.6
  0
TEXT
  5
D51
330
1D
100
AcDbEntity
  8
GT_1
 62
2
100
AcDbText
 10
534.771
 20
173.2
 30
0.0
 40
3.0
  1
19
  7
HTX1
 41
1.02
100
AcDbText
  0
LWPOLYLINE
  5
D52
330
1D
100
AcDbEntity
  8
GT_1
 62
7
100
AcDbPolyline
 90
2
 70
128
 43
0.6
 10
530.2
 20
170.0
 10
538.8999999999988
 20
165.0081967213117
  0
LWPOLYLINE
  5
D56
330
1D
100
AcDbEntity
  8
GT_1
100
AcDbPolyline
 90
3
 70
128
 10
538.9
 20
163.0
 10
538.9
 20
165.0
 10
538.2
 20
163.1
  0
LWPOLYLINE
  5
D5B
330
1D
100
AcDbEntity
  8
GT_1
100
AcDbPolyline
 90
2
 70
128
 10
538.9
 20
165.0
 10
537.3
 20
156.1
  0
TEXT
  5
D5F
330
1D
100
AcDbEntity
  8
GT_1
 62
2
100
AcDbText
 10
534.743
 20
156.6
 30
0.0
 40
3.0
  1
4
  7
HTX1
 41
1.02
100
AcDbText
  0
LWPOLYLINE
  5
D60
330
1D
100
AcDbEntity
  8
GT_1
100
AcDbPolyline
 90
5
 70
128
 10
534.2
 20
160.1
 10
537.2
 20
160.1
 10
537.2
 20
156.1
 10
534.2
 20
156.1
 10
534.2
 20
160.1
  0
LWPOLYLINE
  5
D67
330
1D
100
AcDbEntity
  8
GT_1
100
AcDbPolyline
 90
2
 70
128
 10
502.1
 20
182.2
 10
502.1
 20
170.0
  0
LWPOLYLINE
  5
D6B
330
1D
100
AcDbEntity
  8
GT_1
100
AcDbPolyline
 90
3
 70
128
 10
504.0
 20
170.5
 10
502.1
 20
171.2
 10
503.6
 20
169.9
  0
LWPOLYLINE
  5
D70
330
1D
100
AcDbEntity
  8
GT_1
100
AcDbPolyline
 90
2
 70
128
 10
502.1
 20
171.2
 10
516.9
 20
162.7
  0
LWPOLYLINE
  5
D74
330
1D
100
AcDbEntity
  8
GT_1
100
AcDbPolyline
 90
2
 70
128
 10
538.9
 20
161.0
 10
538.9
 20
148.8
  0
LWPOLYLINE
  5
D78
330
1D
100
AcDbEntity
  8
GT_1
100
AcDbPolyline
 90
3
 70
128
 10
537.0
 20
150.7
 10
538.9
 20
150.0
 10
537.4
 20
151.3
  0
LWPOLYLINE
  5
D7D
330
1D
100
AcDbEntity
  8
GT_1
100
AcDbPolyline
 90
2
 70
128
 10
538.9
 20
150.0
 10
525.0
 20
158.0
  0
TEXT
  5
D81
330
1D
100
AcDbEntity
  8
GT_1
 62
2
100
AcDbText
 10
516.337
 20
161.618
 30
0.0
 40
3.0
  1
1232
 50
330.0
  7
HTX1
 41
1.02
100
AcDbText
  0
LWPOLYLINE
  5
D86
330
1D
100
AcDbEntity
  8
GT_1
 62
7
100
AcDbPolyline
 90
2
 70
128
 43
0.6
 10
538.8999999999988
 20
165.0081967213117
 10
547.6
 20
170.0
  0
LWPOLYLINE
  5
D8A
330
1D
100
AcDbEntity
  8
GT_1
100
AcDbPolyline
 90
3
 70
128
 10
543.9
 20
170.2
 10
544.6
 20
168.3
 10
544.6
 20
170.3
  0
LWPOLYLINE
  5
D8F
330
1D
100
AcDbEntity
  8
GT_1
100
AcDbPolyline
 90
2
 70
128
 10
544.6
 20
168.3
 10
542.3
 20
181.1
  0
TEXT
  5
D93
330
1D
100
AcDbEntity
  8
GT_1
 62
2
100
AcDbText
 10
531.514
 20
181.6
 30
0.0
 40
3.0
  1
200DN
  7
HTX1
 41
1.02
100
AcDbText
  0
LWPOLYLINE
  5
D94
330
1D
100
AcDbEntity
  8
GT_1
100
AcDbPolyline
 90
2
 70
128
 10
538.9
 20
161.0
 10
538.9
 20
148.8
  0
LWPOLYLINE
  5
D98
330
1D
100
AcDbEntity
  8
GT_1
100
AcDbPolyline
 90
3
 70
128
 10
540.4
 20
151.3
 10
538.9
 20
150.0
 10
540.8
 20
150.7
  0
LWPOLYLINE
  5
D9D
330
1D
100
AcDbEntity
  8
GT_1
100
AcDbPolyline
 90
2
 70
128
 10
538.9
 20
150.0
 10
543.3
 20
152.5
  0
LWPOLYLINE
  5
DA1
330
1D
100
AcDbEntity
  8
GT_1
100
AcDbPolyline
 90
2
 70
128
 10
547.6
 20
166.0
 10
547.6
 20
153.8
  0
LWPOLYLINE
  5
DA5
330
1D
100
AcDbEntity
  8
GT_1
100
AcDbPolyline
 90
3
 70
128
 10
546.1
 20
153.7
 10
547.6
 20
155.0
 10
545.7
 20
154.3
  0
LWPOLYLINE
  5
DAA
330
1D
100
AcDbEntity
  8
GT_1
100
AcDbPolyline
 90
2
 70
128
 10
547.6
 20
155.0
 10
543.3
 20
152.5
  0
LWPOLYLINE
  5
DAE
330
1D
100
AcDbEntity
  8
GT_1
100
AcDbPolyline
 90
3
 70
128
 10
544.6
 20
151.0
 10
543.3
 20
152.5
 10
544.0
 20
150.6
  0
LWPOLYLINE
  5
DB3
330
1D
100
AcDbEntity
  8
GT_1
100
AcDbPolyline
 90
2
 70
128
 10
543.3
 20
152.5
 10
545.8
 20
148.2
  0
TEXT
  5
DB7
330
1D
100
AcDbEntity
  8
GT_1
 62
2
100
AcDbText
 10
546.3
 20
148.7
 30
0.0
 40
3.0
  1
305
  7
HTX1
 41
1.02
100
AcDbText
  0
LWPOLYLINE
  5
DB8
330
1D
100
AcDbEntity
  8
GT_1
100
AcDbPolyline
 90
2
 70
128
 10
545.9
 20
171.4
 10
550.1
 20
169.0
  0
LWPOLYLINE
  5
DBC
330
1D
100
AcDbEntity
  8
GT_1
100
AcDbPolyline
 90
2
 70
128
 10
545.9
 20
166.6
 10
550.1
 20
173.8
  0
TEXT
  5
DF1
330
1D
100
AcDbEntity
  8
GT_1
 62
2
100
AcDbText
 10
548.7693347209374
 20
162.9028864837084
 30
0.0
 40
3.0
  1
20
  7
HTX1
 41
1.02
100
AcDbText
  0
LWPOLYLINE
  5
DF2
330
1D
100
AcDbEntity
  8
GT_1
100
AcDbPolyline
 90
3
 70
128
 10
549.6
 20
169.7
 10
547.6
 20
170.0
 10
549.3
 20
169.0
  0
LWPOLYLINE
  5
DF7
330
1D
100
AcDbEntity
  8
GT_1
100
AcDbPolyline
 90
2
 70
128
 10
547.6
 20
170.0
 10
559.8
 20
165.6
  0
TEXT
  5
DFB
330
1D
100
AcDbEntity
  8
GT_1
 62
2
100
AcDbText
 10
560.3
 20
166.1
 30
0.0
 40
3.0
  1
CONN. TO
  7
HTX1
 41
1.02
100
AcDbText
  0
TEXT
  5
DFC
330
1D
100
AcDbEntity
  8
GT_1
 62
2
100
AcDbText
 10
560.3
 20
162.1
 30
0.0
 40
3.0
  1
110022-13120-M-TK-01:N03
  7
HTX1
 41
1.02
100
AcDbText
  0
TEXT
  5
DFD
330
1D
100
AcDbEntity
  8
GT_1
 62
2
100
AcDbText
 10
560.3
 20
158.1
 30
0.0
 40
3.0
  1
E 969250
  7
HTX1
 41
1.02
100
AcDbText
  0
TEXT
  5
DFE
330
1D
100
AcDbEntity
  8
GT_1
 62
2
100
AcDbText
 10
560.3
 20
154.1
 30
0.0
 40
3.0
  1
S 1305075
  7
HTX1
 41
1.02
100
AcDbText
  0
TEXT
  5
DFF
330
1D
100
AcDbEntity
  8
GT_1
 62
2
100
AcDbText
 10
560.3
 20
150.1
 30
0.0
 40
3.0
  1
FL+430
  7
HTX1
 41
1.02
100
AcDbText
  0
LWPOLYLINE
  5
E00
330
1D
100
AcDbEntity
  8
GT_1
  6
GT100
100
AcDbPolyline
 90
4
 70
128
 10
552.4
 20
174.3
 10
547.6
 20
171.5
 10
547.6
 20
168.5
 10
552.4
 20
171.3
  0
LINE
  5
E06
330
1D
100
AcDbEntity
  8
0
 62
1
100
AcDbLine
 10
86.76974338462645
 20
500.6829736602101
 30
0.0
 11
91.5
 21
498.1
 31
0.0
  0
LINE
  5
E07
330
1D
100
AcDbEntity
  8
0
 62
1
100
AcDbLine
 10
117.1285876770261
 20
489.5063049207723
 30
0.0
 11
114.1
 21
485.1
 31
0.0
  0
LINE
  5
E08
330
1D
100
AcDbEntity
  8
0
 62
1
100
AcDbLine
 10
115.7472458944516
 20
478.9743666854621
 30
0.0
 11
108.3
 21
483.5
 31
0.0
  0
LINE
  5
E09
330
1D
100
AcDbEntity
  8
0
 62
1
100
AcDbLine
 10
95.41457381189045
 20
490.156667444889
 30
0.0
 11
97.7
 21
486.5
 31
0.0
  0
LINE
  5
E0A
330
1D
100
AcDbEntity
  8
0
 62
1
100
AcDbLine
 10
164.1285876770261
 20
462.3063049207723
 30
0.0
 11
161.1
 21
457.9
 31
0.0
  0
LINE
  5
E0B
330
1D
100
AcDbEntity
  8
0
 62
1
100
AcDbLine
 10
149.6737106140602
 20
461.6460766469486
 30
0.0
 11
155.3
 21
459.5
 31
0.0
  0
LINE
  5
E0C
330
1D
100
AcDbEntity
  8
0
 62
1
100
AcDbLine
 10
112.7096759629047
 20
446.1393922780719
 30
0.0
 11
109.5
 21
455.5
 31
0.0
  0
LINE
  5
E0D
330
1D
100
AcDbEntity
  8
0
 62
1
100
AcDbLine
 10
207.9815920890065
 20
423.8761715005872
 30
0.0
 11
213.5
 21
427.7
 31
0.0
  0
LINE
  5
E0E
330
1D
100
AcDbEntity
  8
0
 62
1
100
AcDbLine
 10
248.5910337275558
 20
399.8152267849241
 30
0.0
 11
255.5
 21
403.4
 31
0.0
  0
LINE
  5
E0F
330
1D
100
AcDbEntity
  8
0
 62
1
100
AcDbLine
 10
291.9815920890064
 20
375.2761715005873
 30
0.0
 11
297.5
 21
379.1
 31
0.0
  0
LINE
  5
E10
330
1D
100
AcDbEntity
  8
0
 62
1
100
AcDbLine
 10
333.9815920890064
 20
350.9761715005873
 30
0.0
 11
339.5
 21
354.8
 31
0.0
  0
LINE
  5
E11
330
1D
100
AcDbEntity
  8
0
 62
1
100
AcDbLine
 10
390.3400612331625
 20
328.882891944892
 30
0.0
 11
389.1428571428571
 21
326.1142857142858
 31
0.0
  0
LINE
  5
E12
330
1D
100
AcDbEntity
  8
0
 62
1
100
AcDbLine
 10
395.9836773275001
 20
316.7015537149991
 30
0.0
 11
400.1999999999999
 21
319.8
 31
0.0
  0
LINE
  5
E13
330
1D
100
AcDbEntity
  8
0
 62
1
100
AcDbLine
 10
443.6490209862782
 20
291.2199385682604
 30
0.0
 11
445.0
 21
294.0
 31
0.0
  0
LINE
  5
E14
330
1D
100
AcDbEntity
  8
0
 62
1
100
AcDbLine
 10
498.5763186669892
 20
268.7201672191986
 30
0.0
 11
493.4
 21
266.0
 31
0.0
  0
LINE
  5
E15
330
1D
100
AcDbEntity
  8
0
 62
1
100
AcDbLine
 10
508.2
 20
250.5
 30
0.0
 11
502.1857142857143
 21
250.9428571428572
 31
0.0
  0
LINE
  5
E16
330
1D
100
AcDbEntity
  8
0
 62
1
100
AcDbLine
 10
507.9
 20
195.2
 30
0.0
 11
502.2142857142857
 21
195.7285714285715
 31
0.0
  0
LINE
  5
E17
330
1D
100
AcDbEntity
  8
0
 62
1
100
AcDbLine
 10
508.8038668901314
 20
177.2501961657699
 30
0.0
 11
510.8857142857143
 21
181.2571428571428
 31
0.0
  0
LINE
  5
E18
330
1D
100
AcDbEntity
  8
0
 62
1
100
AcDbLine
 10
534.276318666989
 20
173.2201672191986
 30
0.0
 11
530.2857142857143
 21
170.0571428571429
 31
0.0
  0
LINE
  5
E19
330
1D
100
AcDbEntity
  8
0
 62
1
100
AcDbLine
 10
549.4464539721874
 20
166.4689499518558
 30
0.0
 11
547.9428571428572
 21
170.3428571428571
 31
0.0
  0
CIRCLE
  5
E1A
330
1D
100
AcDbEntity
  8
0
 62
2
100
AcDbCircle
 10
84.74451527906254
 20
502.4028864837084
 30
0.0
 40
2.657
  0
CIRCLE
  5
E1B
330
1D
100
AcDbEntity
  8
0
 62
2
100
AcDbCircle
 10
118.3550571744271
 20
491.8632991023402
 30
0.0
 40
2.657
  0
CIRCLE
  5
E1C
330
1D
100
AcDbEntity
  8
0
 62
2
100
AcDbCircle
 10
118.0178627864524
 20
477.5945304887485
 30
0.0
 40
2.657
  0
CIRCLE
  5
E1D
330
1D
100
AcDbEntity
  8
0
 62
2
100
AcDbCircle
 10
94.00636262497498
 20
492.4097964365462
 30
0.0
 40
2.657
  0
CIRCLE
  5
E1E
330
1D
100
AcDbEntity
  8
0
 62
2
100
AcDbCircle
 10
165.355057174427
 20
464.6632991023402
 30
0.0
 40
2.657
  0
CIRCLE
  5
E1F
330
1D
100
AcDbEntity
  8
0
 62
2
100
AcDbCircle
 10
147.1911774083169
 20
462.5930074165308
 30
0.0
 40
2.657
  0
CIRCLE
  5
E20
330
1D
100
AcDbEntity
  8
0
 62
2
100
AcDbCircle
 10
113.5714837152698
 20
443.6260406516647
 30
0.0
 40
2.657
  0
CIRCLE
  5
E21
330
1D
100
AcDbEntity
  8
0
 62
2
100
AcDbCircle
 10
205.8583061910331
 20
422.2788906876218
 30
0.0
 40
2.657
  0
CIRCLE
  5
E22
330
1D
100
AcDbEntity
  8
0
 62
2
100
AcDbCircle
 10
246.2443877325521
 20
398.569072069757
 30
0.0
 40
2.657
  0
CIRCLE
  5
E23
330
1D
100
AcDbEntity
  8
0
 62
2
100
AcDbCircle
 10
289.8583061910331
 20
373.6788906876218
 30
0.0
 40
2.657
  0
CIRCLE
  5
E24
330
1D
100
AcDbEntity
  8
0
 62
2
100
AcDbCircle
 10
331.8583061910331
 20
349.3788906876218
 30
0.0
 40
2.657
  0
CIRCLE
  5
E25
330
1D
100
AcDbEntity
  8
0
 62
2
100
AcDbCircle
 10
390.6179303073695
 20
331.5253222235558
 30
0.0
 40
2.657
  0
CIRCLE
  5
E26
330
1D
100
AcDbEntity
  8
0
 62
2
100
AcDbCircle
 10
393.943
 20
315.0
 30
0.0
 40
2.657
  0
CIRCLE
  5
E27
330
1D
100
AcDbEntity
  8
0
 62
2
100
AcDbCircle
 10
443.3583061910331
 20
288.5788906876218
 30
0.0
 40
2.657
  0
CIRCLE
  5
E28
330
1D
100
AcDbEntity
  8
0
 62
2
100
AcDbCircle
 10
500.957
 20
269.9
 30
0.0
 40
2.657
  0
CIRCLE
  5
E29
330
1D
100
AcDbEntity
  8
0
 62
2
100
AcDbCircle
 10
510.857
 20
250.5
 30
0.0
 40
2.657
  0
CIRCLE
  5
E2A
330
1D
100
AcDbEntity
  8
0
 62
2
100
AcDbCircle
 10
510.557
 20
195.2
 30
0.0
 40
2.657
  0
CIRCLE
  5
E2B
330
1D
100
AcDbEntity
  8
0
 62
2
100
AcDbCircle
 10
507.243
 20
175.1
 30
0.0
 40
2.657
  0
CIRCLE
  5
E2C
330
1D
100
AcDbEntity
  8
0
 62
2
100
AcDbCircle
 10
536.6569999999999
 20
174.4
 30
0.0
 40
2.657
  0
CIRCLE
  5
E2D
330
1D
100
AcDbEntity
  8
0
 62
2
100
AcDbCircle
 10
550.6553347209374
 20
164.1028864837084
 30
0.0
 40
2.657
  0
CIRCLE
  5
E6F
330
1D
100
AcDbEntity
  8
OW
 62
2
100
AcDbCircle
 10
427.0571428571428
 20
175.4285714285714
 30
0.0
 40
0.8
  0
HATCH
  5
E70
330
1D
100
AcDbEntity
  8
0
 62
2
100
AcDbHatch
 10
0.0
 20
0.0
 30
0.0
210
0.0
220
0.0
230
1.0
  2
SOLID
 70
1
 71
0
 91
1
 92
1
 93
1
 72
2
 10
427.0571428571428
 20
175.4285714285714
 40
0.8
 50
0.0
 51
360.0
 73
1
 97
0
 75
0
 76
1
 98
0
  0
CIRCLE
  5
E71
330
1D
100
AcDbEntity
  8
SW
 62
2
100
AcDbCircle
 10
91.5
 20
498.1
 30
0.0
 40
0.8
  0
HATCH
  5
E72
330
1D
100
AcDbEntity
  8
0
 62
2
100
AcDbHatch
 10
0.0
 20
0.0
 30
0.0
210
0.0
220
0.0
230
1.0
  2
SOLID
 70
1
 71
0
 91
1
 92
1
 93
1
 72
2
 10
91.5
 20
498.1
 40
0.8
 50
0.0
 51
360.0
 73
1
 97
0
 75
0
 76
1
 98
0
  0
CIRCLE
  5
E73
330
1D
100
AcDbEntity
  8
SW
 62
2
100
AcDbCircle
 10
114.1
 20
485.1
 30
0.0
 40
0.8
  0
HATCH
  5
E74
330
1D
100
AcDbEntity
  8
0
 62
2
100
AcDbHatch
 10
0.0
 20
0.0
 30
0.0
210
0.0
220
0.0
230
1.0
  2
SOLID
 70
1
 71
0
 91
1
 92
1
 93
1
 72
2
 10
114.1
 20
485.1
 40
0.8
 50
0.0
 51
360.0
 73
1
 97
0
 75
0
 76
1
 98
0
  0
CIRCLE
  5
E75
330
1D
100
AcDbEntity
  8
SW
 62
2
100
AcDbCircle
 10
161.1
 20
457.9
 30
0.0
 40
0.8
  0
HATCH
  5
E76
330
1D
100
AcDbEntity
  8
0
 62
2
100
AcDbHatch
 10
0.0
 20
0.0
 30
0.0
210
0.0
220
0.0
230
1.0
  2
SOLID
 70
1
 71
0
 91
1
 92
1
 93
1
 72
2
 10
161.1
 20
457.9
 40
0.8
 50
0.0
 51
360.0
 73
1
 97
0
 75
0
 76
1
 98
0
  0
CIRCLE
  5
E77
330
1D
100
AcDbEntity
  8
SW
 62
2
100
AcDbCircle
 10
213.5
 20
427.7
 30
0.0
 40
0.8
  0
HATCH
  5
E78
330
1D
100
AcDbEntity
  8
0
 62
2
100
AcDbHatch
 10
0.0
 20
0.0
 30
0.0
210
0.0
220
0.0
230
1.0
  2
SOLID
 70
1
 71
0
 91
1
 92
1
 93
1
 72
2
 10
213.5
 20
427.7
 40
0.8
 50
0.0
 51
360.0
 73
1
 97
0
 75
0
 76
1
 98
0
  0
CIRCLE
  5
E79
330
1D
100
AcDbEntity
  8
OW
 62
2
100
AcDbCircle
 10
208.6
 20
427.5857142857143
 30
0.0
 40
0.8
  0
CIRCLE
  5
E7A
330
1D
100
AcDbEntity
  8
SW
 62
2
100
AcDbCircle
 10
255.5
 20
403.4
 30
0.0
 40
0.8
  0
HATCH
  5
E7B
330
1D
100
AcDbEntity
  8
0
 62
2
100
AcDbHatch
 10
0.0
 20
0.0
 30
0.0
210
0.0
220
0.0
230
1.0
  2
SOLID
 70
1
 71
0
 91
1
 92
1
 93
1
 72
2
 10
255.5
 20
403.4
 40
0.8
 50
0.0
 51
360.0
 73
1
 97
0
 75
0
 76
1
 98
0
  0
CIRCLE
  5
E7C
330
1D
100
AcDbEntity
  8
OW
 62
2
100
AcDbCircle
 10
250.6
 20
403.2857142857143
 30
0.0
 40
0.8
  0
CIRCLE
  5
E7D
330
1D
100
AcDbEntity
  8
SW
 62
2
100
AcDbCircle
 10
297.5
 20
379.1
 30
0.0
 40
0.8
  0
HATCH
  5
E7E
330
1D
100
AcDbEntity
  8
0
 62
2
100
AcDbHatch
 10
0.0
 20
0.0
 30
0.0
210
0.0
220
0.0
230
1.0
  2
SOLID
 70
1
 71
0
 91
1
 92
1
 93
1
 72
2
 10
297.5
 20
379.1
 40
0.8
 50
0.0
 51
360.0
 73
1
 97
0
 75
0
 76
1
 98
0
  0
CIRCLE
  5
E7F
330
1D
100
AcDbEntity
  8
OW
 62
2
100
AcDbCircle
 10
292.6
 20
378.9857142857143
 30
0.0
 40
0.8
  0
CIRCLE
  5
E80
330
1D
100
AcDbEntity
  8
SW
 62
2
100
AcDbCircle
 10
339.5
 20
354.8
 30
0.0
 40
0.8
  0
HATCH
  5
E81
330
1D
100
AcDbEntity
  8
0
 62
2
100
AcDbHatch
 10
0.0
 20
0.0
 30
0.0
210
0.0
220
0.0
230
1.0
  2
SOLID
 70
1
 71
0
 91
1
 92
1
 93
1
 72
2
 10
339.5
 20
354.8
 40
0.8
 50
0.0
 51
360.0
 73
1
 97
0
 75
0
 76
1
 98
0
  0
CIRCLE
  5
E82
330
1D
100
AcDbEntity
  8
OW
 62
2
100
AcDbCircle
 10
334.6
 20
354.6857142857143
 30
0.0
 40
0.8
  0
CIRCLE
  5
E83
330
1D
100
AcDbEntity
  8
SW
 62
2
100
AcDbCircle
 10
389.1428571428571
 20
326.1142857142858
 30
0.0
 40
0.8
  0
HATCH
  5
E84
330
1D
100
AcDbEntity
  8
0
 62
2
100
AcDbHatch
 10
0.0
 20
0.0
 30
0.0
210
0.0
220
0.0
230
1.0
  2
SOLID
 70
1
 71
0
 91
1
 92
1
 93
1
 72
2
 10
389.1428571428571
 20
326.1142857142858
 40
0.8
 50
0.0
 51
360.0
 73
1
 97
0
 75
0
 76
1
 98
0
  0
CIRCLE
  5
E85
330
1D
100
AcDbEntity
  8
SW
 62
2
100
AcDbCircle
 10
400.1999999999999
 20
319.8
 30
0.0
 40
0.8
  0
HATCH
  5
E86
330
1D
100
AcDbEntity
  8
0
 62
2
100
AcDbHatch
 10
0.0
 20
0.0
 30
0.0
210
0.0
220
0.0
230
1.0
  2
SOLID
 70
1
 71
0
 91
1
 92
1
 93
1
 72
2
 10
400.1999999999999
 20
319.8
 40
0.8
 50
0.0
 51
360.0
 73
1
 97
0
 75
0
 76
1
 98
0
  0
CIRCLE
  5
E87
330
1D
100
AcDbEntity
  8
OW
 62
2
100
AcDbCircle
 10
397.6571428571428
 20
324.1428571428572
 30
0.0
 40
0.8
  0
CIRCLE
  5
E88
330
1D
100
AcDbEntity
  8
SW
 62
2
100
AcDbCircle
 10
445.0
 20
294.0
 30
0.0
 40
0.8
  0
HATCH
  5
E89
330
1D
100
AcDbEntity
  8
0
 62
2
100
AcDbHatch
 10
0.0
 20
0.0
 30
0.0
210
0.0
220
0.0
230
1.0
  2
SOLID
 70
1
 71
0
 91
1
 92
1
 93
1
 72
2
 10
445.0
 20
294.0
 40
0.8
 50
0.0
 51
360.0
 73
1
 97
0
 75
0
 76
1
 98
0
  0
CIRCLE
  5
E8A
330
1D
100
AcDbEntity
  8
OW
 62
2
100
AcDbCircle
 10
440.1
 20
293.8857142857142
 30
0.0
 40
0.8
  0
CIRCLE
  5
E8B
330
1D
100
AcDbEntity
  8
SW
 62
2
100
AcDbCircle
 10
493.4
 20
266.0
 30
0.0
 40
0.8
  0
HATCH
  5
E8C
330
1D
100
AcDbEntity
  8
0
 62
2
100
AcDbHatch
 10
0.0
 20
0.0
 30
0.0
210
0.0
220
0.0
230
1.0
  2
SOLID
 70
1
 71
0
 91
1
 92
1
 93
1
 72
2
 10
493.4
 20
266.0
 40
0.8
 50
0.0
 51
360.0
 73
1
 97
0
 75
0
 76
1
 98
0
  0
CIRCLE
  5
E8D
330
1D
100
AcDbEntity
  8
SW
 62
2
100
AcDbCircle
 10
502.1857142857143
 20
250.9428571428572
 30
0.0
 40
0.8
  0
HATCH
  5
E8E
330
1D
100
AcDbEntity
  8
0
 62
2
100
AcDbHatch
 10
0.0
 20
0.0
 30
0.0
210
0.0
220
0.0
230
1.0
  2
SOLID
 70
1
 71
0
 91
1
 92
1
 93
1
 72
2
 10
502.1857142857143
 20
250.9428571428572
 40
0.8
 50
0.0
 51
360.0
 73
1
 97
0
 75
0
 76
1
 98
0
  0
CIRCLE
  5
E8F
330
1D
100
AcDbEntity
  8
SW
 62
2
100
AcDbCircle
 10
502.2142857142857
 20
195.7285714285715
 30
0.0
 40
0.8
  0
HATCH
  5
E90
330
1D
100
AcDbEntity
  8
0
 62
2
100
AcDbHatch
 10
0.0
 20
0.0
 30
0.0
210
0.0
220
0.0
230
1.0
  2
SOLID
 70
1
 71
0
 91
1
 92
1
 93
1
 72
2
 10
502.2142857142857
 20
195.7285714285715
 40
0.8
 50
0.0
 51
360.0
 73
1
 97
0
 75
0
 76
1
 98
0
  0
CIRCLE
  5
E91
330
1D
100
AcDbEntity
  8
SW
 62
2
100
AcDbCircle
 10
510.8857142857143
 20
181.2571428571428
 30
0.0
 40
0.8
  0
HATCH
  5
E92
330
1D
100
AcDbEntity
  8
0
 62
2
100
AcDbHatch
 10
0.0
 20
0.0
 30
0.0
210
0.0
220
0.0
230
1.0
  2
SOLID
 70
1
 71
0
 91
1
 92
1
 93
1
 72
2
 10
510.8857142857143
 20
181.2571428571428
 40
0.8
 50
0.0
 51
360.0
 73
1
 97
0
 75
0
 76
1
 98
0
  0
CIRCLE
  5
E93
330
1D
100
AcDbEntity
  8
SW
 62
2
100
AcDbCircle
 10
530.2857142857143
 20
170.0571428571429
 30
0.0
 40
0.8
  0
HATCH
  5
E94
330
1D
100
AcDbEntity
  8
0
 62
2
100
AcDbHatch
 10
0.0
 20
0.0
 30
0.0
210
0.0
220
0.0
230
1.0
  2
SOLID
 70
1
 71
0
 91
1
 92
1
 93
1
 72
2
 10
530.2857142857143
 20
170.0571428571429
 40
0.8
 50
0.0
 51
360.0
 73
1
 97
0
 75
0
 76
1
 98
0
  0
CIRCLE
  5
E95
330
1D
100
AcDbEntity
  8
SW
 62
2
100
AcDbCircle
 10
547.9428571428572
 20
170.3428571428571
 30
0.0
 40
0.8
  0
HATCH
  5
E96
330
1D
100
AcDbEntity
  8
0
 62
2
100
AcDbHatch
 10
0.0
 20
0.0
 30
0.0
210
0.0
220
0.0
230
1.0
  2
SOLID
 70
1
 71
0
 91
1
 92
1
 93
1
 72
2
 10
547.9428571428572
 20
170.3428571428571
 40
0.8
 50
0.0
 51
360.0
 73
1
 97
0
 75
0
 76
1
 98
0
  0
ENDSEC
  0
SECTION
  2
OBJECTS
  0
DICTIONARY
  5
C
330
0
100
AcDbDictionary
281
1
  3
ACAD_COLOR
350
E6E
  3
ACAD_DETAILVIEWSTYLE
350
E6C
  3
ACAD_GROUP
350
D
  3
ACAD_LAYOUT
350
1A
  3
ACAD_MATERIAL
350
33
  3
ACAD_MLEADERSTYLE
350
E5C
  3
ACAD_MLINESTYLE
350
17
  3
ACAD_PLOTSETTINGS
350
19
  3
ACAD_PLOTSTYLENAME
350
E
  3
ACAD_SCALELIST
350
E2F
  3
ACAD_SECTIONVIEWSTYLE
350
E6D
  3
ACAD_TABLESTYLE
350
E5A
  3
ACAD_VISUALSTYLE
350
E41
  3
ACDB_RECOMPOSE_DATA
350
E9F
  3
AcDbVariableDictionary
350
E64
  3
Autodesk_MAP
350
E5E
  3
EZDXF_META
350
E97
  0
SUN
  5
E9B
330
20
100
AcDbSun
 90
1
290
0
 63
7
421
16777215
 40
1.0
291
1
 91
2455826
 92
54000000
292
0
 70
2
 71
256
280
1
  0
DICTIONARY
  5
E6E
330
C
100
AcDbDictionary
281
1
  0
DICTIONARY
  5
E6C
102
{ACAD_REACTORS
330
C
102
}
330
C
100
AcDbDictionary
281
1
  0
DICTIONARY
  5
D
102
{ACAD_REACTORS
330
C
102
}
330
C
100
AcDbDictionary
281
1
  0
DICTIONARY
  5
1A
102
{ACAD_REACTORS
330
C
102
}
330
C
100
AcDbDictionary
281
1
  3
Layout1
350
1C
  3
Model
350
1E
  0
DICTIONARY
  5
33
102
{ACAD_REACTORS
330
C
102
}
330
C
100
AcDbDictionary
281
1
  3
ByBlock
350
35
  3
ByLayer
350
34
  3
Global
350
36
  0
DICTIONARY
  5
E5C
102
{ACAD_REACTORS
330
C
102
}
330
C
100
AcDbDictionary
281
1
  3
Standard
350
E5D
  0
DICTIONARY
  5
17
102
{ACAD_REACTORS
330
C
102
}
330
C
100
AcDbDictionary
281
1
  3
Standard
350
18
  0
DICTIONARY
  5
19
102
{ACAD_REACTORS
330
C
102
}
330
C
100
AcDbDictionary
281
1
  0
ACDBDICTIONARYWDFLT
  5
E
102
{ACAD_REACTORS
330
C
102
}
330
C
100
AcDbDictionary
281
1
  3
Normal
350
F
100
AcDbDictionaryWithDefault
340
F
  0
DICTIONARY
  5
E2F
102
{ACAD_REACTORS
330
C
102
}
330
C
100
AcDbDictionary
281
1
  3
A0
350
E30
  3
A1
350
E31
  3
A2
350
E32
  3
A3
350
E33
  3
A4
350
E34
  3
A5
350
E35
  3
A6
350
E36
  3
A7
350
E37
  3
A8
350
E38
  3
A9
350
E39
  3
B1
350
E3A
  3
B2
350
E3B
  3
B3
350
E3C
  3
B4
350
E3D
  3
B5
350
E3E
  3
B6
350
E3F
  3
B7
350
E40
  0
DICTIONARY
  5
E6D
102
{ACAD_REACTORS
330
C
102
}
330
C
100
AcDbDictionary
281
1
  0
DICTIONARY
  5
E5A
102
{ACAD_REACTORS
330
C
102
}
330
C
100
AcDbDictionary
281
1
  3
Standard
350
E5B
  0
DICTIONARY
  5
E41
102
{ACAD_REACTORS
330
C
102
}
330
C
100
AcDbDictionary
281
1
  3
2dWireframe
350
E46
  3
Basic
350
E49
  3
Brighten
350
E4D
  3
ColorChange
350
E51
  3
Conceptual
350
E4B
  3
Dim
350
E4C
  3
EdgeColorOff
350
E54
  3
Facepattern
350
E50
  3
Flat
350
E42
  3
FlatWithEdges
350
E43
  3
Gouraud
350
E44
  3
GouraudWithEdges
350
E45
  3
Hidden
350
E48
  3
JitterOff
350
E52
  3
Linepattern
350
E4F
  3
OverhangOff
350
E53
  3
Realistic
350
E4A
  3
Shaded
350
E59
  3
Shaded with edges
350
E58
  3
Shades of Gray
350
E55
  3
Sketchy
350
E56
  3
Thicken
350
E4E
  3
Wireframe
350
E47
  3
X-Ray
350
E57
  0
XRECORD
  5
E9F
102
{ACAD_REACTORS
330
C
102
}
330
C
100
AcDbXrecord
280
1
 90
1
330
E5B
  0
DICTIONARY
  5
E64
102
{ACAD_REACTORS
330
C
102
}
330
C
100
AcDbDictionary
281
1
  3
CANNOSCALE
350
E65
  3
CMLEADERSTYLE
350
E6A
  3
CTABLESTYLE
350
E69
  3
MSLTSCALE
350
E6B
  0
DICTIONARY
  5
E5E
102
{ACAD_REACTORS
330
C
102
}
330
C
100
AcDbDictionary
281
1
  3
AcMapResourceManager
350
E5F
1001
MapGWS
1000
C:\Users\장혁준\OneDrive\JJDATA\PYTHON\ISO AUTO EDIT\110022-13120-093-HB4D-200-001_final3be313ae-4292-4e50-93ef-cde160d28396GWS.xml
  0
DICTIONARY
  5
E97
330
C
100
AcDbDictionary
280
1
281
1
  3
WRITTEN_BY_EZDXF
360
E98
  0
LAYOUT
  5
1C
102
{ACAD_REACTORS
330
1A
102
}
330
1A
100
AcDbPlotSettings
  1

  2
none_device
  4

  6

 40
0.0
 41
0.0
 42
0.0
 43
0.0
 44
0.0
 45
0.0
 46
0.0
 47
0.0
 48
0.0
 49
0.0
140
0.0
141
0.0
142
1.0
143
1.0
 70
688
 72
0
 73
0
 74
5
  7

 75
16
 76
0
 77
2
 78
300
147
1.0
148
0.0
149
0.0
100
AcDbLayout
  1
Layout1
 70
1
 71
1
 10
0.0
 20
0.0
 11
420.0
 21
297.0
 12
0.0
 22
0.0
 32
0.0
 14
1e+20
 24
1e+20
 34
1e+20
 15
-1e+20
 25
-1e+20
 35
-1e+20
146
0.0
 13
0.0
 23
0.0
 33
0.0
 16
1.0
 26
0.0
 36
0.0
 17
0.0
 27
1.0
 37
0.0
 76
0
330
1B
  0
LAYOUT
  5
1E
102
{ACAD_REACTORS
330
1A
102
}
330
1A
100
AcDbPlotSettings
  1

  2
none_device
  4
Letter_(8.50_x_11.00_Inches)
  6

 40
6.35
 41
6.35
 42
6.35000508
 43
6.35000508
 44
215.9
 45
279.4
 46
0.0
 47
0.0
 48
0.0
 49
0.0
140
0.0
141
0.0
142
1.0
143
1.0
 70
1712
 72
0
 73
0
 74
0
  7

 75
0
 76
0
 77
2
 78
300
147
1.0
148
0.0
149
0.0
100
AcDbLayout
  1
Model
 70
1
 71
0
 10
0.0
 20
0.0
 11
12.0
 21
9.0
 12
0.0
 22
0.0
 32
0.0
 14
1e+20
 24
1e+20
 34
1e+20
 15
-1e+20
 25
-1e+20
 35
-1e+20
146
0.0
 13
0.0
 23
0.0
 33
0.0
 16
1.0
 26
0.0
 36
0.0
 17
0.0
 27
1.0
 37
0.0
 76
0
330
1D
331
20
  0
MATERIAL
  5
35
102
{ACAD_REACTORS
330
33
102
}
330
33
100
AcDbMaterial
  1
ByBlock
  2

 70
0
 40
1.0
 71
0
 41
1.0
 91
-1023410177
 42
1.0
 72
1
  3

 73
1
 74
1
 75
1
 44
0.5
 73
0
 45
1.0
 46
1.0
 77
1
  4

 78
1
 79
1
170
1
 48
1.0
171
1
  6

172
1
173
1
174
1
140
1.0
141
1.0
175
1
  7

176
1
177
1
178
1
143
1.0
179
1
  8

270
1
271
1
272
1
145
1.0
146
1.0
273
1
  9

274
1
275
1
276
1
 42
1.0
 72
1
  3

 73
1
 74
1
 75
1
 94
127
  0
MATERIAL
  5
34
102
{ACAD_REACTORS
330
33
102
}
330
33
100
AcDbMaterial
  1
ByLayer
  2

 70
0
 40
1.0
 71
0
 41
1.0
 91
-1023410177
 42
1.0
 72
1
  3

 73
1
 74
1
 75
1
 44
0.5
 73
0
 45
1.0
 46
1.0
 77
1
  4

 78
1
 79
1
170
1
 48
1.0
171
1
  6

172
1
173
1
174
1
140
1.0
141
1.0
175
1
  7

176
1
177
1
178
1
143
1.0
179
1
  8

270
1
271
1
272
1
145
1.0
146
1.0
273
1
  9

274
1
275
1
276
1
 42
1.0
 72
1
  3

 73
1
 74
1
 75
1
 94
127
  0
MATERIAL
  5
36
102
{ACAD_REACTORS
330
33
102
}
330
33
100
AcDbMaterial
  1
Global
  2

 70
0
 40
1.0
 71
0
 41
1.0
 91
-1023410177
 42
1.0
 72
1
  3

 73
1
 74
1
 75
1
 44
0.5
 73
0
 45
1.0
 46
1.0
 77
1
  4

 78
1
 79
1
170
1
 48
1.0
171
1
  6

172
1
173
1
174
1
140
1.0
141
1.0
175
1
  7

176
1
177
1
178
1
143
1.0
179
1
  8

270
1
271
1
272
1
145
1.0
146
1.0
273
1
  9

274
1
275
1
276
1
 42
1.0
 72
1
  3

 73
1
 74
1
 75
1
 94
127
  0
MLEADERSTYLE
  5
E5D
102
{ACAD_REACTORS
330
E5C
102
}
330
E5C
100
AcDbMLeaderStyle
179
2
170
2
171
1
172
0
 90
2
 40
0.0
 41
0.0
173
1
 91
-1056964608
340
14
 92
-2
290
1
 42
0.09
291
1
 43
0.36
  3
Standard
341
0
 44
0.18
300

342
11
174
1
175
1
176
0
178
6
 93
-1056964608
 45
0.18
292
0
297
0
 46
0.18
293
1
343
0
 94
-1056964608
 47
1.0
 49
1.0
140
1.0
294
1
141
0.0
177
0
142
1.0
295
0
296
0
143
0.125
271
0
272
9
273
9
298
0
  0
MLINESTYLE
  5
18
102
{ACAD_REACTORS
330
17
102
}
330
17
100
AcDbMlineStyle
  2
Standard
 70
0
  3

 62
256
 51
90.0
 52
90.0
 71
2
 49
0.5
 62
256
  6
BYLAYER
 49
-0.5
 62
256
  6
BYLAYER
  0
ACDBPLACEHOLDER
  5
F
102
{ACAD_REACTORS
330
E
102
}
330
E
  0
SCALE
  5
E30
102
{ACAD_REACTORS
330
E2F
102
}
330
E2F
100
AcDbScale
 70
0
300
1:1
140
1.0
141
1.0
290
1
  0
SCALE
  5
E31
102
{ACAD_REACTORS
330
E2F
102
}
330
E2F
100
AcDbScale
 70
0
300
1/128" = 1'-0"
140
0.0078125
141
12.0
290
0
  0
SCALE
  5
E32
102
{ACAD_REACTORS
330
E2F
102
}
330
E2F
100
AcDbScale
 70
0
300
1/64" = 1'-0"
140
0.015625
141
12.0
290
0
  0
SCALE
  5
E33
102
{ACAD_REACTORS
330
E2F
102
}
330
E2F
100
AcDbScale
 70
0
300
1/32" = 1'-0"
140
0.03125
141
12.0
290
0
  0
SCALE
  5
E34
102
{ACAD_REACTORS
330
E2F
102
}
330
E2F
100
AcDbScale
 70
0
300
1/16" = 1'-0"
140
0.0625
141
12.0
290
0
  0
SCALE
  5
E35
102
{ACAD_REACTORS
330
E2F
102
}
330
E2F
100
AcDbScale
 70
0
300
3/32" = 1'-0"
140
0.09375
141
12.0
290
0
  0
SCALE
  5
E36
102
{ACAD_REACTORS
330
E2F
102
}
330
E2F
100
AcDbScale
 70
0
300
1/8" = 1'-0"
140
0.125
141
12.0
290
0
  0
SCALE
  5
E37
102
{ACAD_REACTORS
330
E2F
102
}
330
E2F
100
AcDbScale
 70
0
300
3/16" = 1'-0"
140
0.1875
141
12.0
290
0
  0
SCALE
  5
E38
102
{ACAD_REACTORS
330
E2F
102
}
330
E2F
100
AcDbScale
 70
0
300
1/4" = 1'-0"
140
0.25
141
12.0
290
0
  0
SCALE
  5
E39
102
{ACAD_REACTORS
330
E2F
102
}
330
E2F
100
AcDbScale
 70
0
300
3/8" = 1'-0"
140
0.375
141
12.0
290
0
  0
SCALE
  5
E3A
102
{ACAD_REACTORS
330
E2F
102
}
330
E2F
100
AcDbScale
 70
0
300
1/2" = 1'-0"
140
0.5
141
12.0
290
0
  0
SCALE
  5
E3B
102
{ACAD_REACTORS
330
E2F
102
}
330
E2F
100
AcDbScale
 70
0
300
3/4" = 1'-0"
140
0.75
141
12.0
290
0
  0
SCALE
  5
E3C
102
{ACAD_REACTORS
330
E2F
102
}
330
E2F
100
AcDbScale
 70
0
300
1" = 1'-0"
140
1.0
141
12.0
290
0
  0
SCALE
  5
E3D
102
{ACAD_REACTORS
330
E2F
102
}
330
E2F
100
AcDbScale
 70
0
300
1-1/2" = 1'-0"
140
1.5
141
12.0
290
0
  0
SCALE
  5
E3E
102
{ACAD_REACTORS
330
E2F
102
}
330
E2F
100
AcDbScale
 70
0
300
3" = 1'-0"
140
3.0
141
12.0
290
0
  0
SCALE
  5
E3F
102
{ACAD_REACTORS
330
E2F
102
}
330
E2F
100
AcDbScale
 70
0
300
6" = 1'-0"
140
6.0
141
12.0
290
0
  0
SCALE
  5
E40
102
{ACAD_REACTORS
330
E2F
102
}
330
E2F
100
AcDbScale
 70
0
300
1'-0" = 1'-0"
140
12.0
141
12.0
290
0
  0
TABLESTYLE
  5
E5B
102
{ACAD_XDICTIONARY
360
E9D
102
}
102
{ACAD_REACTORS
330
E5A
102
}
330
E5A
100
AcDbTableStyle
  3
Standard
 70
0
 71
0
 40
0.06
 41
0.06
280
0
281
0
  7
Standard
140
0.18
170
2
 62
0
 63
257
283
0
 90
4
 91
0
  1

274
-2
284
1
 64
0
275
-2
285
1
 65
0
276
-2
286
1
 66
0
277
-2
287
1
 67
0
278
-2
288
1
 68
0
279
-2
289
1
 69
0
  7
Standard
140
0.25
170
5
 62
0
 63
257
283
0
 90
4
 91
0
  1

274
-2
284
1
 64
0
275
-2
285
1
 65
0
276
-2
286
1
 66
0
277
-2
287
1
 67
0
278
-2
288
1
 68
0
279
-2
289
1
 69
0
  7
Standard
140
0.18
170
5
 62
0
 63
257
283
0
 90
4
 91
0
  1

274
-2
284
1
 64
0
275
-2
285
1
 65
0
276
-2
286
1
 66
0
277
-2
287
1
 67
0
278
-2
288
1
 68
0
279
-2
289
1
 69
0
  0
VISUALSTYLE
  5
E46
102
{ACAD_REACTORS
330
E41
102
}
330
E41
100
AcDbVisualStyle
  2
2dWireframe
 70
4
177
3
291
0
 70
58
 90
0
176
1
 90
2
176
1
 90
0
176
1
 90
0
176
1
 40
0.6
176
1
 40
30.0
176
1
 62
7
420
16777215
176
1
 90
1
176
1
 90
4
176
1
 62
7
176
1
 62
257
176
1
 90
1
176
1
 90
1
176
1
 40
1.0
176
1
 90
0
176
1
 62
257
176
1
 40
1.0
176
1
 90
1
176
1
 90
6
176
1
 90
2
176
1
 62
7
176
1
 90
5
176
1
 90
0
176
1
 90
0
176
1
290
0
176
1
 90
1
176
1
 40
0.0
176
1
 90
0
176
1
290
1
176
1
290
1
176
1
290
0
176
1
290
0
176
1
290
0
176
1
290
0
176
1
290
0
176
1
290
0
176
1
290
0
176
1
 90
50
176
1
 40
0.0
176
1
 40
1.0
176
1
 90
0
176
1
 62
18
420
0
176
1
 90
50
176
1
 90
3
176
1
 62
5
420
255
176
1
290
0
176
1
 90
50
176
1
 90
50
176
1
 90
50
176
1
290
0
176
1
 90
50
176
1
 62
256
176
0
 40
1.0
176
0
 90
2
176
1
  1
strokes_ogs.tif
176
1
290
0
176
1
 40
1.0
176
1
 40
1.0
176
1
  0
VISUALSTYLE
  5
E49
102
{ACAD_REACTORS
330
E41
102
}
330
E41
100
AcDbVisualStyle
  2
Basic
 70
7
177
3
291
1
 70
58
 90
1
176
1
 90
0
176
1
 90
1
176
1
 90
0
176
1
 40
0.6
176
1
 40
30.0
176
1
 62
7
420
16777215
176
1
 90
0
176
1
 90
4
176
1
 62
7
176
1
 62
257
176
1
 90
1
176
1
 90
1
176
1
 40
1.0
176
1
 90
8
176
1
 62
7
176
1
 40
1.0
176
1
 90
1
176
1
 90
6
176
1
 90
2
176
1
 62
7
176
1
 90
5
176
1
 90
0
176
1
 90
0
176
1
290
0
176
1
 90
1
176
1
 40
0.0
176
1
 90
0
176
1
290
0
176
1
290
1
176
1
290
1
176
1
290
0
176
1
290
0
176
1
290
0
176
1
290
0
176
1
290
0
176
1
290
0
176
1
 90
50
176
1
 40
0.0
176
1
 40
1.0
176
1
 90
0
176
1
 62
18
420
0
176
1
 90
50
176
1
 90
3
176
1
 62
5
420
255
176
1
290
0
176
1
 90
50
176
1
 90
50
176
1
 90
50
176
1
290
0
176
1
 90
50
176
1
 62
256
176
0
 40
1.0
176
0
 90
2
176
1
  1
strokes_ogs.tif
176
1
290
0
176
1
 40
1.0
176
1
 40
1.0
176
1
  0
VISUALSTYLE
  5
E4D
102
{ACAD_REACTORS
330
E41
102
}
330
E41
100
AcDbVisualStyle
  2
Brighten
 70
12
177
3
291
1
 70
58
 90
2
176
1
 90
2
176
1
 90
0
176
1
 90
0
176
1
 40
0.6
176
1
 40
30.0
176
1
 62
7
420
16777215
176
1
 90
1
176
1
 90
4
176
1
 62
7
176
1
 62
257
176
1
 90
1
176
1
 90
1
176
1
 40
1.0
176
1
 90
8
176
1
 62
7
176
1
 40
1.0
176
1
 90
1
176
1
 90
6
176
1
 90
2
176
1
 62
7
176
1
 90
5
176
1
 90
0
176
1
 90
0
176
1
290
0
176
1
 90
1
176
1
 40
50.0
176
1
 90
0
176
1
290
0
176
1
290
1
176
1
290
1
176
1
290
0
176
1
290
0
176
1
290
0
176
1
290
0
176
1
290
0
176
1
290
0
176
1
 90
50
176
1
 40
0.0
176
1
 40
1.0
176
1
 90
0
176
1
 62
18
420
0
176
1
 90
50
176
1
 90
3
176
1
 62
5
420
255
176
1
290
0
176
1
 90
50
176
1
 90
50
176
1
 90
50
176
1
290
0
176
1
 90
50
176
1
 62
256
176
0
 40
1.0
176
0
 90
2
176
1
  1
strokes_ogs.tif
176
1
290
0
176
1
 40
1.0
176
1
 40
1.0
176
1
  0
VISUALSTYLE
  5
E51
102
{ACAD_REACTORS
330
E41
102
}
330
E41
100
AcDbVisualStyle
  2
ColorChange
 70
16
177
3
291
1
 70
58
 90
2
176
1
 90
2
176
1
 90
3
176
1
 90
0
176
1
 40
0.6
176
1
 40
30.0
176
1
 62
8
420
8421504
176
1
 90
1
176
1
 90
4
176
1
 62
7
176
1
 62
257
176
1
 90
1
176
1
 90
1
176
1
 40
1.0
176
1
 90
8
176
1
 62
8
420
8421504
176
1
 40
1.0
176
1
 90
1
176
1
 90
6
176
1
 90
2
176
1
 62
7
176
1
 90
5
176
1
 90
0
176
1
 90
0
176
1
290
0
176
1
 90
1
176
1
 40
0.0
176
1
 90
0
176
1
290
0
176
1
290
1
176
1
290
1
176
1
290
0
176
1
290
0
176
1
290
0
176
1
290
0
176
1
290
0
176
1
290
0
176
1
 90
50
176
1
 40
0.0
176
1
 40
1.0
176
1
 90
0
176
1
 62
18
420
0
176
1
 90
50
176
1
 90
3
176
1
 62
5
420
255
176
1
290
0
176
1
 90
50
176
1
 90
50
176
1
 90
50
176
1
290
0
176
1
 90
50
176
1
 62
256
176
0
 40
1.0
176
0
 90
2
176
1
  1
strokes_ogs.tif
176
1
290
0
176
1
 40
1.0
176
1
 40
1.0
176
1
  0
VISUALSTYLE
  5
E4B
102
{ACAD_REACTORS
330
E41
102
}
330
E41
100
AcDbVisualStyle
  2
Conceptual
 70
9
177
3
291
0
 70
58
 90
3
176
1
 90
2
176
1
 90
0
176
1
 90
0
176
1
 40
0.6
176
1
 40
30.0
176
1
 62
7
420
16777215
176
1
 90
2
176
1
 90
2
176
1
 62
7
176
1
 62
257
176
1
 90
1
176
1
 90
1
176
1
 40
179.0
176
1
 90
8
176
1
 62
7
176
1
 40
1.0
176
1
 90
1
176
1
 90
6
176
1
 90
2
176
1
 62
7
176
1
 90
3
176
1
 90
0
176
1
 90
0
176
1
290
0
176
1
 90
1
176
1
 40
0.0
176
1
 90
0
176
1
290
0
176
1
290
1
176
1
290
1
176
1
290
0
176
1
290
0
176
1
290
0
176
1
290
0
176
1
290
0
176
1
290
0
176
1
 90
50
176
1
 40
0.0
176
1
 40
1.0
176
1
 90
0
176
1
 62
18
420
0
176
1
 90
50
176
1
 90
3
176
1
 62
5
420
255
176
1
290
0
176
1
 90
50
176
1
 90
50
176
1
 90
50
176
1
290
0
176
1
 90
50
176
1
 62
256
176
0
 40
1.0
176
0
 90
2
176
1
  1
strokes_ogs.tif
176
1
290
0
176
1
 40
1.0
176
1
 40
1.0
176
1
  0
VISUALSTYLE
  5
E4C
102
{ACAD_REACTORS
330
E41
102
}
330
E41
100
AcDbVisualStyle
  2
Dim
 70
11
177
3
291
1
 70
58
 90
2
176
1
 90
2
176
1
 90
0
176
1
 90
0
176
1
 40
0.6
176
1
 40
30.0
176
1
 62
7
420
16777215
176
1
 90
1
176
1
 90
4
176
1
 62
7
176
1
 62
257
176
1
 90
1
176
1
 90
1
176
1
 40
1.0
176
1
 90
8
176
1
 62
7
176
1
 40
1.0
176
1
 90
1
176
1
 90
6
176
1
 90
2
176
1
 62
7
176
1
 90
5
176
1
 90
0
176
1
 90
0
176
1
290
0
176
1
 90
1
176
1
 40
-50.0
176
1
 90
0
176
1
290
0
176
1
290
1
176
1
290
1
176
1
290
0
176
1
290
0
176
1
290
0
176
1
290
0
176
1
290
0
176
1
290
0
176
1
 90
50
176
1
 40
0.0
176
1
 40
1.0
176
1
 90
0
176
1
 62
18
420
0
176
1
 90
50
176
1
 90
3
176
1
 62
5
420
255
176
1
290
0
176
1
 90
50
176
1
 90
50
176
1
 90
50
176
1
290
0
176
1
 90
50
176
1
 62
256
176
0
 40
1.0
176
0
 90
2
176
1
  1
strokes_ogs.tif
176
1
290
0
176
1
 40
1.0
176
1
 40
1.0
176
1
  0
VISUALSTYLE
  5
E54
102
{ACAD_REACTORS
330
E41
102
}
330
E41
100
AcDbVisualStyle
  2
EdgeColorOff
 70
22
177
3
291
1
 70
58
 90
2
176
0
 90
2
176
0
 90
0
176
0
 90
0
176
0
 40
0.6
176
0
 40
30.0
176
0
 62
7
420
16777215
176
0
 90
1
176
0
 90
4
176
0
 62
7
176
0
 62
257
176
0
 90
1
176
0
 90
1
176
0
 40
1.0
176
0
 90
8
176
2
 62
7
176
0
 40
1.0
176
0
 90
1
176
0
 90
6
176
0
 90
2
176
0
 62
7
176
0
 90
5
176
0
 90
0
176
0
 90
0
176
0
290
0
176
0
 90
1
176
0
 40
0.0
176
0
 90
0
176
0
290
0
176
0
290
1
176
0
290
1
176
0
290
0
176
0
290
0
176
0
290
0
176
0
290
0
176
0
290
0
176
0
290
0
176
0
 90
50
176
0
 40
0.0
176
0
 40
1.0
176
0
 90
0
176
0
 62
18
420
0
176
0
 90
50
176
0
 90
3
176
0
 62
5
420
255
176
0
290
0
176
0
 90
50
176
0
 90
50
176
0
 90
50
176
0
290
0
176
0
 90
50
176
0
 62
256
176
0
 40
1.0
176
0
 90
2
176
0
  1
strokes_ogs.tif
176
0
290
0
176
0
 40
1.0
176
0
 40
1.0
176
0
  0
VISUALSTYLE
  5
E50
102
{ACAD_REACTORS
330
E41
102
}
330
E41
100
AcDbVisualStyle
  2
Facepattern
 70
15
177
3
291
1
 70
58
 90
2
176
1
 90
2
176
1
 90
0
176
1
 90
0
176
1
 40
0.6
176
1
 40
30.0
176
1
 62
7
420
16777215
176
1
 90
1
176
1
 90
4
176
1
 62
7
176
1
 62
257
176
1
 90
1
176
1
 90
1
176
1
 40
1.0
176
1
 90
8
176
1
 62
7
176
1
 40
1.0
176
1
 90
1
176
1
 90
6
176
1
 90
2
176
1
 62
7
176
1
 90
5
176
1
 90
0
176
1
 90
0
176
1
290
0
176
1
 90
1
176
1
 40
0.0
176
1
 90
0
176
1
290
0
176
1
290
1
176
1
290
1
176
1
290
0
176
1
290
0
176
1
290
0
176
1
290
0
176
1
290
0
176
1
290
0
176
1
 90
50
176
1
 40
0.0
176
1
 40
1.0
176
1
 90
0
176
1
 62
18
420
0
176
1
 90
50
176
1
 90
3
176
1
 62
5
420
255
176
1
290
0
176
1
 90
50
176
1
 90
50
176
1
 90
50
176
1
290
0
176
1
 90
50
176
1
 62
256
176
0
 40
1.0
176
0
 90
2
176
1
  1
strokes_ogs.tif
176
1
290
0
176
1
 40
1.0
176
1
 40
1.0
176
1
  0
VISUALSTYLE
  5
E42
102
{ACAD_REACTORS
330
E41
102
}
330
E41
100
AcDbVisualStyle
  2
Flat
 70
0
177
3
291
1
 70
58
 90
2
176
1
 90
1
176
1
 90
1
176
1
 90
2
176
1
 40
0.6
176
1
 40
30.0
176
1
 62
7
420
16777215
176
1
 90
0
176
1
 90
0
176
1
 62
7
176
1
 62
257
176
1
 90
1
176
1
 90
1
176
1
 40
1.0
176
1
 90
8
176
1
 62
7
176
1
 40
1.0
176
1
 90
1
176
1
 90
6
176
1
 90
2
176
1
 62
7
176
1
 90
5
176
1
 90
0
176
1
 90
0
176
1
290
0
176
1
 90
13
176
1
 40
0.0
176
1
 90
0
176
1
290
0
176
1
290
1
176
1
290
1
176
1
290
0
176
1
290
0
176
1
290
0
176
1
290
0
176
1
290
0
176
1
290
0
176
1
 90
50
176
1
 40
0.0
176
1
 40
1.0
176
1
 90
0
176
1
 62
18
420
0
176
1
 90
50
176
1
 90
3
176
1
 62
5
420
255
176
1
290
0
176
1
 90
50
176
1
 90
50
176
1
 90
50
176
1
290
0
176
1
 90
50
176
1
 62
256
176
0
 40
1.0
176
0
 90
2
176
1
  1
strokes_ogs.tif
176
1
290
0
176
1
 40
1.0
176
1
 40
1.0
176
1
  0
VISUALSTYLE
  5
E43
102
{ACAD_REACTORS
330
E41
102
}
330
E41
100
AcDbVisualStyle
  2
FlatWithEdges
 70
1
177
3
291
1
 70
58
 90
2
176
1
 90
1
176
1
 90
1
176
1
 90
2
176
1
 40
0.6
176
1
 40
30.0
176
1
 62
7
420
16777215
176
1
 90
1
176
1
 90
0
176
1
 62
7
176
1
 62
257
176
1
 90
1
176
1
 90
1
176
1
 40
1.0
176
1
 90
0
176
1
 62
257
176
1
 40
1.0
176
1
 90
1
176
1
 90
6
176
1
 90
2
176
1
 62
7
176
1
 90
5
176
1
 90
0
176
1
 90
0
176
1
290
0
176
1
 90
13
176
1
 40
0.0
176
1
 90
0
176
1
290
0
176
1
290
1
176
1
290
1
176
1
290
0
176
1
290
0
176
1
290
0
176
1
290
0
176
1
290
0
176
1
290
0
176
1
 90
50
176
1
 40
0.0
176
1
 40
1.0
176
1
 90
0
176
1
 62
18
420
0
176
1
 90
50
176
1
 90
3
176
1
 62
5
420
255
176
1
290
0
176
1
 90
50
176
1
 90
50
176
1
 90
50
176
1
290
0
176
1
 90
50
176
1
 62
256
176
0
 40
1.0
176
0
 90
2
176
1
  1
strokes_ogs.tif
176
1
290
0
176
1
 40
1.0
176
1
 40
1.0
176
1
  0
VISUALSTYLE
  5
E44
102
{ACAD_REACTORS
330
E41
102
}
330
E41
100
AcDbVisualStyle
  2
Gouraud
 70
2
177
3
291
1
 70
58
 90
2
176
1
 90
2
176
1
 90
1
176
1
 90
2
176
1
 40
0.6
176
1
 40
30.0
176
1
 62
7
420
16777215
176
1
 90
0
176
1
 90
0
176
1
 62
7
176
1
 62
257
176
1
 90
1
176
1
 90
1
176
1
 40
1.0
176
1
 90
0
176
1
 62
7
176
1
 40
1.0
176
1
 90
1
176
1
 90
6
176
1
 90
2
176
1
 62
7
176
1
 90
5
176
1
 90
0
176
1
 90
0
176
1
290
0
176
1
 90
13
176
1
 40
0.0
176
1
 90
0
176
1
290
0
176
1
290
1
176
1
290
1
176
1
290
0
176
1
290
0
176
1
290
0
176
1
290
0
176
1
290
0
176
1
290
0
176
1
 90
50
176
1
 40
0.0
176
1
 40
1.0
176
1
 90
0
176
1
 62
18
420
0
176
1
 90
50
176
1
 90
3
176
1
 62
5
420
255
176
1
290
0
176
1
 90
50
176
1
 90
50
176
1
 90
50
176
1
290
0
176
1
 90
50
176
1
 62
256
176
0
 40
1.0
176
0
 90
2
176
1
  1
strokes_ogs.tif
176
1
290
0
176
1
 40
1.0
176
1
 40
1.0
176
1
  0
VISUALSTYLE
  5
E45
102
{ACAD_REACTORS
330
E41
102
}
330
E41
100
AcDbVisualStyle
  2
GouraudWithEdges
 70
3
177
3
291
1
 70
58
 90
2
176
1
 90
2
176
1
 90
1
176
1
 90
2
176
1
 40
0.6
176
1
 40
30.0
176
1
 62
7
420
16777215
176
1
 90
1
176
1
 90
0
176
1
 62
7
176
1
 62
257
176
1
 90
1
176
1
 90
1
176
1
 40
1.0
176
1
 90
0
176
1
 62
257
176
1
 40
1.0
176
1
 90
1
176
1
 90
6
176
1
 90
2
176
1
 62
7
176
1
 90
5
176
1
 90
0
176
1
 90
0
176
1
290
0
176
1
 90
13
176
1
 40
0.0
176
1
 90
0
176
1
290
0
176
1
290
1
176
1
290
1
176
1
290
0
176
1
290
0
176
1
290
0
176
1
290
0
176
1
290
0
176
1
290
0
176
1
 90
50
176
1
 40
0.0
176
1
 40
1.0
176
1
 90
0
176
1
 62
18
420
0
176
1
 90
50
176
1
 90
3
176
1
 62
5
420
255
176
1
290
0
176
1
 90
50
176
1
 90
50
176
1
 90
50
176
1
290
0
176
1
 90
50
176
1
 62
256
176
0
 40
1.0
176
0
 90
2
176
1
  1
strokes_ogs.tif
176
1
290
0
176
1
 40
1.0
176
1
 40
1.0
176
1
  0
VISUALSTYLE
  5
E48
102
{ACAD_REACTORS
330
E41
102
}
330
E41
100
AcDbVisualStyle
  2
Hidden
 70
6
177
3
291
0
 70
58
 90
1
176
1
 90
2
176
1
 90
2
176
1
 90
0
176
1
 40
0.6
176
1
 40
30.0
176
1
 62
7
420
16777215
176
1
 90
2
176
1
 90
2
176
1
 62
7
176
1
 62
257
176
1
 90
2
176
1
 90
1
176
1
 40
40.0
176
1
 90
0
176
1
 62
257
176
1
 40
1.0
176
1
 90
1
176
1
 90
6
176
1
 90
2
176
1
 62
7
176
1
 90
3
176
1
 90
0
176
1
 90
0
176
1
290
0
176
1
 90
1
176
1
 40
0.0
176
1
 90
0
176
1
290
0
176
1
290
1
176
1
290
1
176
1
290
0
176
1
290
0
176
1
290
0
176
1
290
0
176
1
290
0
176
1
290
0
176
1
 90
50
176
1
 40
0.0
176
1
 40
1.0
176
1
 90
0
176
1
 62
18
420
0
176
1
 90
50
176
1
 90
3
176
1
 62
5
420
255
176
1
290
0
176
1
 90
50
176
1
 90
50
176
1
 90
50
176
1
290
0
176
1
 90
50
176
1
 62
256
176
0
 40
1.0
176
0
 90
2
176
1
  1
strokes_ogs.tif
176
1
290
0
176
1
 40
1.0
176
1
 40
1.0
176
1
  0
VISUALSTYLE
  5
E52
102
{ACAD_REACTORS
330
E41
102
}
330
E41
100
AcDbVisualStyle
  2
JitterOff
 70
20
177
3
291
1
 70
58
 90
2
176
0
 90
2
176
0
 90
0
176
0
 90
0
176
0
 40
0.6
176
0
 40
30.0
176
0
 62
7
420
16777215
176
0
 90
1
176
0
 90
4
176
0
 62
7
176
0
 62
257
176
0
 90
1
176
0
 90
1
176
0
 40
1.0
176
0
 90
10
176
2
 62
7
176
0
 40
1.0
176
0
 90
1
176
0
 90
6
176
0
 90
2
176
0
 62
7
176
0
 90
5
176
0
 90
0
176
0
 90
0
176
0
290
0
176
0
 90
1
176
0
 40
0.0
176
0
 90
0
176
0
290
0
176
0
290
1
176
0
290
1
176
0
290
0
176
0
290
0
176
0
290
0
176
0
290
0
176
0
290
0
176
0
290
0
176
0
 90
50
176
0
 40
0.0
176
0
 40
1.0
176
0
 90
0
176
0
 62
18
420
0
176
0
 90
50
176
0
 90
3
176
0
 62
5
420
255
176
0
290
0
176
0
 90
50
176
0
 90
50
176
0
 90
50
176
0
290
0
176
0
 90
50
176
0
 62
256
176
0
 40
1.0
176
0
 90
2
176
0
  1
strokes_ogs.tif
176
0
290
0
176
0
 40
1.0
176
0
 40
1.0
176
0
  0
VISUALSTYLE
  5
E4F
102
{ACAD_REACTORS
330
E41
102
}
330
E41
100
AcDbVisualStyle
  2
Linepattern
 70
14
177
3
291
1
 70
58
 90
2
176
1
 90
2
176
1
 90
0
176
1
 90
0
176
1
 40
0.6
176
1
 40
30.0
176
1
 62
7
420
16777215
176
1
 90
1
176
1
 90
4
176
1
 62
7
176
1
 62
257
176
1
 90
7
176
1
 90
7
176
1
 40
1.0
176
1
 90
8
176
1
 62
7
176
1
 40
1.0
176
1
 90
1
176
1
 90
6
176
1
 90
2
176
1
 62
7
176
1
 90
5
176
1
 90
0
176
1
 90
0
176
1
290
0
176
1
 90
1
176
1
 40
0.0
176
1
 90
0
176
1
290
0
176
1
290
1
176
1
290
1
176
1
290
0
176
1
290
0
176
1
290
0
176
1
290
0
176
1
290
0
176
1
290
0
176
1
 90
50
176
1
 40
0.0
176
1
 40
1.0
176
1
 90
0
176
1
 62
18
420
0
176
1
 90
50
176
1
 90
3
176
1
 62
5
420
255
176
1
290
0
176
1
 90
50
176
1
 90
50
176
1
 90
50
176
1
290
0
176
1
 90
50
176
1
 62
256
176
0
 40
1.0
176
0
 90
2
176
1
  1
strokes_ogs.tif
176
1
290
0
176
1
 40
1.0
176
1
 40
1.0
176
1
  0
VISUALSTYLE
  5
E53
102
{ACAD_REACTORS
330
E41
102
}
330
E41
100
AcDbVisualStyle
  2
OverhangOff
 70
21
177
3
291
1
 70
58
 90
2
176
0
 90
2
176
0
 90
0
176
0
 90
0
176
0
 40
0.6
176
0
 40
30.0
176
0
 62
7
420
16777215
176
0
 90
1
176
0
 90
4
176
0
 62
7
176
0
 62
257
176
0
 90
1
176
0
 90
1
176
0
 40
1.0
176
0
 90
9
176
2
 62
7
176
0
 40
1.0
176
0
 90
1
176
0
 90
6
176
0
 90
2
176
0
 62
7
176
0
 90
5
176
0
 90
0
176
0
 90
0
176
0
290
0
176
0
 90
1
176
0
 40
0.0
176
0
 90
0
176
0
290
0
176
0
290
1
176
0
290
1
176
0
290
0
176
0
290
0
176
0
290
0
176
0
290
0
176
0
290
0
176
0
290
0
176
0
 90
50
176
0
 40
0.0
176
0
 40
1.0
176
0
 90
0
176
0
 62
18
420
0
176
0
 90
50
176
0
 90
3
176
0
 62
5
420
255
176
0
290
0
176
0
 90
50
176
0
 90
50
176
0
 90
50
176
0
290
0
176
0
 90
50
176
0
 62
256
176
0
 40
1.0
176
0
 90
2
176
0
  1
strokes_ogs.tif
176
0
290
0
176
0
 40
1.0
176
0
 40
1.0
176
0
  0
VISUALSTYLE
  5
E4A
102
{ACAD_REACTORS
330
E41
102
}
330
E41
100
AcDbVisualStyle
  2
Realistic
 70
8
177
3
291
0
 70
58
 90
2
176
1
 90
3
176
1
 90
0
176
1
 90
2
176
1
 40
0.6
176
1
 40
30.0
176
1
 62
7
420
16777215
176
1
 90
0
176
1
 90
0
176
1
 62
7
176
1
 62
257
176
1
 90
1
176
1
 90
1
176
1
 40
1.0
176
1
 90
8
176
1
 62
257
176
1
 40
1.0
176
1
 90
1
176
1
 90
6
176
1
 90
2
176
1
 62
7
176
1
 90
3
176
1
 90
0
176
1
 90
0
176
1
290
0
176
1
 90
13
176
1
 40
0.0
176
1
 90
0
176
1
290
0
176
1
290
1
176
1
290
1
176
1
290
0
176
1
290
0
176
1
290
0
176
1
290
0
176
1
290
0
176
1
290
0
176
1
 90
50
176
1
 40
0.0
176
1
 40
1.0
176
1
 90
0
176
1
 62
18
420
0
176
1
 90
50
176
1
 90
3
176
1
 62
5
420
255
176
1
290
0
176
1
 90
50
176
1
 90
50
176
1
 90
50
176
1
290
0
176
1
 90
50
176
1
 62
256
176
0
 40
1.0
176
0
 90
2
176
1
  1
strokes_ogs.tif
176
1
290
0
176
1
 40
1.0
176
1
 40
1.0
176
1
  0
VISUALSTYLE
  5
E59
102
{ACAD_REACTORS
330
E41
102
}
330
E41
100
AcDbVisualStyle
  2
Shaded
 70
27
177
3
291
0
 70
58
 90
2
176
1
 90
2
176
1
 90
1
176
1
 90
2
176
1
 40
0.6
176
1
 40
30.0
176
1
 62
7
420
16777215
176
1
 90
0
176
1
 90
4
176
1
 62
7
176
1
 62
257
176
1
 90
1
176
1
 90
1
176
1
 40
1.0
176
1
 90
8
176
1
 62
257
176
1
 40
1.0
176
1
 90
1
176
1
 90
6
176
1
 90
2
176
1
 62
8
420
7895160
176
1
 90
3
176
1
 90
0
176
1
 90
0
176
1
290
0
176
1
 90
5
176
1
 40
0.0
176
1
 90
0
176
1
290
0
176
1
290
1
176
1
290
1
176
1
290
0
176
1
290
0
176
1
290
0
176
1
290
0
176
1
290
0
176
1
290
0
176
1
 90
50
176
1
 40
0.0
176
1
 40
1.0
176
1
 90
0
176
1
 62
18
420
0
176
1
 90
50
176
1
 90
3
176
1
 62
5
420
255
176
1
290
0
176
1
 90
50
176
1
 90
50
176
1
 90
50
176
1
290
0
176
1
 90
50
176
1
 62
256
176
0
 40
1.0
176
0
 90
2
176
1
  1
strokes_ogs.tif
176
1
290
0
176
1
 40
1.0
176
1
 40
1.0
176
1
  0
VISUALSTYLE
  5
E58
102
{ACAD_REACTORS
330
E41
102
}
330
E41
100
AcDbVisualStyle
  2
Shaded with edges
 70
26
177
3
291
0
 70
58
 90
2
176
1
 90
2
176
1
 90
1
176
1
 90
2
176
1
 40
0.6
176
1
 40
30.0
176
1
 62
7
420
16777215
176
1
 90
1
176
1
 90
10
176
1
 62
7
176
1
 62
257
176
1
 90
2
176
1
 90
1
176
1
 40
1.0
176
1
 90
8
176
1
 62
257
176
1
 40
1.0
176
1
 90
1
176
1
 90
6
176
1
 90
2
176
1
 62
7
176
1
 90
3
176
1
 90
0
176
1
 90
0
176
1
290
0
176
1
 90
5
176
1
 40
0.0
176
1
 90
0
176
1
290
0
176
1
290
1
176
1
290
1
176
1
290
0
176
1
290
0
176
1
290
0
176
1
290
0
176
1
290
0
176
1
290
0
176
1
 90
50
176
1
 40
0.0
176
1
 40
1.0
176
1
 90
0
176
1
 62
18
420
0
176
1
 90
50
176
1
 90
3
176
1
 62
5
420
255
176
1
290
0
176
1
 90
50
176
1
 90
50
176
1
 90
50
176
1
290
0
176
1
 90
50
176
1
 62
256
176
0
 40
1.0
176
0
 90
2
176
1
  1
strokes_ogs.tif
176
1
290
0
176
1
 40
1.0
176
1
 40
1.0
176
1
  0
VISUALSTYLE
  5
E55
102
{ACAD_REACTORS
330
E41
102
}
330
E41
100
AcDbVisualStyle
  2
Shades of Gray
 70
23
177
3
291
0
 70
58
 90
2
176
1
 90
2
176
1
 90
3
176
1
 90
0
176
1
 40
0.6
176
1
 40
30.0
176
1
 62
7
420
16777215
176
1
 90
2
176
1
 90
2
176
1
 62
7
176
1
 62
7
176
1
 90
1
176
1
 90
1
176
1
 40
40.0
176
1
 90
8
176
1
 62
7
176
1
 40
1.0
176
1
 90
1
176
1
 90
6
176
1
 90
2
176
1
 62
7
176
1
 90
3
176
1
 90
0
176
1
 90
0
176
1
290
0
176
1
 90
1
176
1
 40
0.0
176
1
 90
0
176
1
290
0
176
1
290
1
176
1
290
1
176
1
290
0
176
1
290
0
176
1
290
0
176
1
290
0
176
1
290
0
176
1
290
0
176
1
 90
50
176
1
 40
0.0
176
1
 40
1.0
176
1
 90
0
176
1
 62
18
420
0
176
1
 90
50
176
1
 90
3
176
1
 62
5
420
255
176
1
290
0
176
1
 90
50
176
1
 90
50
176
1
 90
50
176
1
290
0
176
1
 90
50
176
1
 62
256
176
0
 40
1.0
176
0
 90
2
176
1
  1
strokes_ogs.tif
176
1
290
0
176
1
 40
1.0
176
1
 40
1.0
176
1
  0
VISUALSTYLE
  5
E56
102
{ACAD_REACTORS
330
E41
102
}
330
E41
100
AcDbVisualStyle
  2
Sketchy
 70
24
177
3
291
0
 70
58
 90
1
176
1
 90
2
176
1
 90
2
176
1
 90
0
176
1
 40
0.6
176
1
 40
30.0
176
1
 62
7
420
16777215
176
1
 90
2
176
1
 90
2
176
1
 62
7
176
1
 62
7
176
1
 90
1
176
1
 90
1
176
1
 40
40.0
176
1
 90
11
176
1
 62
7
176
1
 40
1.0
176
1
 90
1
176
1
 90
6
176
1
 90
2
176
1
 62
7
176
1
 90
6
176
1
 90
0
176
1
 90
0
176
1
290
0
176
1
 90
1
176
1
 40
0.0
176
1
 90
0
176
1
290
0
176
1
290
1
176
1
290
1
176
1
290
0
176
1
290
0
176
1
290
0
176
1
290
0
176
1
290
0
176
1
290
0
176
1
 90
50
176
1
 40
0.0
176
1
 40
1.0
176
1
 90
0
176
1
 62
18
420
0
176
1
 90
50
176
1
 90
3
176
1
 62
5
420
255
176
1
290
0
176
1
 90
50
176
1
 90
50
176
1
 90
50
176
1
290
0
176
1
 90
50
176
1
 62
256
176
0
 40
1.0
176
0
 90
2
176
1
  1
strokes_ogs.tif
176
1
290
0
176
1
 40
1.0
176
1
 40
1.0
176
1
  0
VISUALSTYLE
  5
E4E
102
{ACAD_REACTORS
330
E41
102
}
330
E41
100
AcDbVisualStyle
  2
Thicken
 70
13
177
3
291
1
 70
58
 90
2
176
1
 90
2
176
1
 90
0
176
1
 90
0
176
1
 40
0.6
176
1
 40
30.0
176
1
 62
7
420
16777215
176
1
 90
1
176
1
 90
4
176
1
 62
7
176
1
 62
257
176
1
 90
1
176
1
 90
1
176
1
 40
1.0
176
1
 90
12
176
1
 62
7
176
1
 40
1.0
176
1
 90
1
176
1
 90
6
176
1
 90
2
176
1
 62
7
176
1
 90
5
176
1
 90
0
176
1
 90
0
176
1
290
0
176
1
 90
1
176
1
 40
0.0
176
1
 90
0
176
1
290
0
176
1
290
1
176
1
290
1
176
1
290
0
176
1
290
0
176
1
290
0
176
1
290
0
176
1
290
0
176
1
290
0
176
1
 90
50
176
1
 40
0.0
176
1
 40
1.0
176
1
 90
0
176
1
 62
18
420
0
176
1
 90
50
176
1
 90
3
176
1
 62
5
420
255
176
1
290
0
176
1
 90
50
176
1
 90
50
176
1
 90
50
176
1
290
0
176
1
 90
50
176
1
 62
256
176
0
 40
1.0
176
0
 90
2
176
1
  1
strokes_ogs.tif
176
1
290
0
176
1
 40
1.0
176
1
 40
1.0
176
1
  0
VISUALSTYLE
  5
E47
102
{ACAD_REACTORS
330
E41
102
}
330
E41
100
AcDbVisualStyle
  2
Wireframe
 70
5
177
3
291
0
 70
58
 90
0
176
1
 90
2
176
1
 90
0
176
1
 90
0
176
1
 40
0.6
176
1
 40
30.0
176
1
 62
7
420
16777215
176
1
 90
1
176
1
 90
4
176
1
 62
7
176
1
 62
257
176
1
 90
1
176
1
 90
1
176
1
 40
1.0
176
1
 90
0
176
1
 62
257
176
1
 40
1.0
176
1
 90
1
176
1
 90
6
176
1
 90
2
176
1
 62
7
176
1
 90
3
176
1
 90
0
176
1
 90
0
176
1
290
0
176
1
 90
1
176
1
 40
0.0
176
1
 90
0
176
1
290
0
176
1
290
1
176
1
290
1
176
1
290
0
176
1
290
0
176
1
290
0
176
1
290
0
176
1
290
0
176
1
290
0
176
1
 90
50
176
1
 40
0.0
176
1
 40
1.0
176
1
 90
0
176
1
 62
18
420
0
176
1
 90
50
176
1
 90
3
176
1
 62
5
420
255
176
1
290
0
176
1
 90
50
176
1
 90
50
176
1
 90
50
176
1
290
0
176
1
 90
50
176
1
 62
256
176
0
 40
1.0
176
0
 90
2
176
1
  1
strokes_ogs.tif
176
1
290
0
176
1
 40
1.0
176
1
 40
1.0
176
1
  0
VISUALSTYLE
  5
E57
102
{ACAD_REACTORS
330
E41
102
}
330
E41
100
AcDbVisualStyle
  2
X-Ray
 70
25
177
3
291
0
 70
58
 90
2
176
1
 90
2
176
1
 90
1
176
1
 90
1
176
1
 40
0.5
176
1
 40
30.0
176
1
 62
7
420
16777215
176
1
 90
1
176
1
 90
0
176
1
 62
7
176
1
 62
257
176
1
 90
1
176
1
 90
1
176
1
 40
1.0
176
1
 90
8
176
1
 62
7
176
1
 40
1.0
176
1
 90
1
176
1
 90
6
176
1
 90
2
176
1
 62
7
176
1
 90
3
176
1
 90
0
176
1
 90
0
176
1
290
0
176
1
 90
13
176
1
 40
0.0
176
1
 90
0
176
1
290
0
176
1
290
1
176
1
290
1
176
1
290
0
176
1
290
0
176
1
290
0
176
1
290
0
176
1
290
0
176
1
290
0
176
1
 90
50
176
1
 40
0.0
176
1
 40
1.0
176
1
 90
0
176
1
 62
18
420
0
176
1
 90
50
176
1
 90
3
176
1
 62
5
420
255
176
1
290
0
176
1
 90
50
176
1
 90
50
176
1
 90
50
176
1
290
0
176
1
 90
50
176
1
 62
256
176
0
 40
1.0
176
0
 90
2
176
1
  1
strokes_ogs.tif
176
1
290
0
176
1
 40
1.0
176
1
 40
1.0
176
1
  0
DICTIONARYVAR
  5
E65
102
{ACAD_REACTORS
330
E64
102
}
330
E64
100
DictionaryVariables
280
0
  1
1:1
  0
DICTIONARYVAR
  5
E6A
102
{ACAD_REACTORS
330
E64
102
}
330
E64
100
DictionaryVariables
280
0
  1
Standard
  0
DICTIONARYVAR
  5
E69
102
{ACAD_REACTORS
330
E64
102
}
330
E64
100
DictionaryVariables
280
0
  1
Standard
  0
DICTIONARYVAR
  5
E6B
102
{ACAD_REACTORS
330
E64
102
}
330
E64
100
DictionaryVariables
280
0
  1
0
  0
MAPRESOURCEMANAGEROBJECT
  5
E5F
102
{ACAD_REACTORS
330
E5E
102
}
330
E5E
100
AcMapResourceManager
 70
1
 90
0
  0
DICTIONARYVAR
  5
E98
330
E97
100
DictionaryVariables
280
0
  1
1.4.2 @ 2025-06-30T06:04:15.697063+00:00
  0
DICTIONARY
  5
E9D
330
E5B
100
AcDbDictionary
280
1
281
1
  3
ACAD_ROUNDTRIP_2008_TABLESTYLE_CELLSTYLEMAP
360
E9E
  0
CELLSTYLEMAP
  5
E9E
102
{ACAD_REACTORS
330
E9D
102
}
330
E9D
100
AcDbCellStyleMap
 90
3
300
CELLSTYLE
  1
TABLEFORMAT_BEGIN
 90
5
170
1
 91
0
 92
32768
 62
257
 93
1
300
CONTENTFORMAT
  1
CONTENTFORMAT_BEGIN
 90
0
 91
0
 92
4
 93
0
300

 40
0.0
140
1.0
 94
5
 62
0
340
11
144
0.25
309
CONTENTFORMAT_END
171
1
301
MARGIN
  1
CELLMARGIN_BEGIN
 40
0.06
 40
0.06
 40
0.06
 40
0.06
 40
0.06
 40
0.06
309
CELLMARGIN_END
 94
6
 95
1
302
GRIDFORMAT
  1
GRIDFORMAT_BEGIN
 90
0
 91
1
 62
0
 92
-2
340
14
 93
0
 40
0.045
309
GRIDFORMAT_END
 95
2
302
GRIDFORMAT
  1
GRIDFORMAT_BEGIN
 90
0
 91
1
 62
0
 92
-2
340
14
 93
0
 40
0.045
309
GRIDFORMAT_END
 95
4
302
GRIDFORMAT
  1
GRIDFORMAT_BEGIN
 90
0
 91
1
 62
0
 92
-2
340
14
 93
0
 40
0.045
309
GRIDFORMAT_END
 95
8
302
GRIDFORMAT
  1
GRIDFORMAT_BEGIN
 90
0
 91
1
 62
0
 92
-2
340
14
 93
0
 40
0.045
309
GRIDFORMAT_END
 95
16
302
GRIDFORMAT
  1
GRIDFORMAT_BEGIN
 90
0
 91
1
 62
0
 92
-2
340
14
 93
0
 40
0.045
309
GRIDFORMAT_END
 95
32
302
GRIDFORMAT
  1
GRIDFORMAT_BEGIN
 90
0
 91
1
 62
0
 92
-2
340
14
 93
0
 40
0.045
309
GRIDFORMAT_END
309
TABLEFORMAT_END
  1
CELLSTYLE_BEGIN
 90
1
 91
1
300
_TITLE
309
CELLSTYLE_END
300
CELLSTYLE
  1
TABLEFORMAT_BEGIN
 90
5
170
1
 91
0
 92
0
 62
257
 93
1
300
CONTENTFORMAT
  1
CONTENTFORMAT_BEGIN
 90
0
 91
0
 92
4
 93
0
300

 40
0.0
140
1.0
 94
5
 62
0
340
11
144
0.18
309
CONTENTFORMAT_END
171
1
301
MARGIN
  1
CELLMARGIN_BEGIN
 40
0.06
 40
0.06
 40
0.06
 40
0.06
 40
0.06
 40
0.06
309
CELLMARGIN_END
 94
6
 95
1
302
GRIDFORMAT
  1
GRIDFORMAT_BEGIN
 90
0
 91
1
 62
0
 92
-2
340
14
 93
0
 40
0.045
309
GRIDFORMAT_END
 95
2
302
GRIDFORMAT
  1
GRIDFORMAT_BEGIN
 90
0
 91
1
 62
0
 92
-2
340
14
 93
0
 40
0.045
309
GRIDFORMAT_END
 95
4
302
GRIDFORMAT
  1
GRIDFORMAT_BEGIN
 90
0
 91
1
 62
0
 92
-2
340
14
 93
0
 40
0.045
309
GRIDFORMAT_END
 95
8
302
GRIDFORMAT
  1
GRIDFORMAT_BEGIN
 90
0
 91
1
 62
0
 92
-2
340
14
 93
0
 40
0.045
309
GRIDFORMAT_END
 95
16
302
GRIDFORMAT
  1
GRIDFORMAT_BEGIN
 90
0
 91
1
 62
0
 92
-2
340
14
 93
0
 40
0.045
309
GRIDFORMAT_END
 95
32
302
GRIDFORMAT
  1
GRIDFORMAT_BEGIN
 90
0
 91
1
 62
0
 92
-2
340
14
 93
0
 40
0.045
309
GRIDFORMAT_END
309
TABLEFORMAT_END
  1
CELLSTYLE_BEGIN
 90
2
 91
1
300
_HEADER
309
CELLSTYLE_END
300
CELLSTYLE
  1
TABLEFORMAT_BEGIN
 90
5
170
1
 91
0
 92
0
 62
257
 93
1
300
CONTENTFORMAT
  1
CONTENTFORMAT_BEGIN
 90
0
 91
0
 92
4
 93
0
300

 40
0.0
140
1.0
 94
2
 62
0
340
11
144
0.18
309
CONTENTFORMAT_END
171
1
301
MARGIN
  1
CELLMARGIN_BEGIN
 40
0.06
 40
0.06
 40
0.06
 40
0.06
 40
0.06
 40
0.06
309
CELLMARGIN_END
 94
6
 95
1
302
GRIDFORMAT
  1
GRIDFORMAT_BEGIN
 90
0
 91
1
 62
0
 92
-2
340
14
 93
0
 40
0.045
309
GRIDFORMAT_END
 95
2
302
GRIDFORMAT
  1
GRIDFORMAT_BEGIN
 90
0
 91
1
 62
0
 92
-2
340
14
 93
0
 40
0.045
309
GRIDFORMAT_END
 95
4
302
GRIDFORMAT
  1
GRIDFORMAT_BEGIN
 90
0
 91
1
 62
0
 92
-2
340
14
 93
0
 40
0.045
309
GRIDFORMAT_END
 95
8
302
GRIDFORMAT
  1
GRIDFORMAT_BEGIN
 90
0
 91
1
 62
0
 92
-2
340
14
 93
0
 40
0.045
309
GRIDFORMAT_END
 95
16
302
GRIDFORMAT
  1
GRIDFORMAT_BEGIN
 90
0
 91
1
 62
0
 92
-2
340
14
 93
0
 40
0.045
309
GRIDFORMAT_END
 95
32
302
GRIDFORMAT
  1
GRIDFORMAT_BEGIN
 90
0
 91
1
 62
0
 92
-2
340
14
 93
0
 40
0.045
309
GRIDFORMAT_END
309
TABLEFORMAT_END
  1
CELLSTYLE_BEGIN
 90
3
 91
2
300
_DATA
309
CELLSTYLE_END
  0
ENDSEC
  0
EOF
